<svg width="238" height="238" viewBox="0 0 238 238" fill="none" xmlns="http://www.w3.org/2000/svg">
<rect width="238" height="238" rx="51" fill="url(#paint0_linear_2_7)" fill-opacity="0.83"/>
<path d="M187 56H108.625C84.3677 58.8808 60.3339 77.8155 55.4813 101.5C55.0974 103.374 55 105.092 55 107V123.731V178.5C55 182.278 54.7218 182 58.5 182H86C89.572 182 89.428 181.986 89.6598 178.5C89.9663 173.889 90.9095 169.606 92.6406 165.067C96.25 155.605 104.549 142.609 108.625 138.672C115.65 131.887 124.113 127.595 132.806 123.731C145 118.312 157.645 113.736 167.406 104.308C181.276 90.9115 185.527 74.1352 187 56Z" fill="white"/>
<defs>
<linearGradient id="paint0_linear_2_7" x1="11.5" y1="119" x2="134.5" y2="79.5" gradientUnits="userSpaceOnUse">
<stop stop-color="#853CFF"/>
<stop offset="0.3009" stop-color="#7042FF"/>
<stop offset="0.562581" stop-color="#7042FF"/>
<stop offset="1" stop-color="#5C28FC"/>
</linearGradient>
</defs>
</svg>
