<svg width="238" height="238" viewBox="0 0 238 238" fill="none" xmlns="http://www.w3.org/2000/svg">
<rect width="238" height="238" rx="51" fill="url(#paint0_linear_2_7)" fill-opacity="0.83"/>
<path d="M55 123.731V177C55 179.761 57.2386 182 60 182H84.5469C87.3083 182 89.5124 179.756 89.7825 177.007C90.1806 172.955 91.0976 169.112 92.6406 165.067C96.25 155.605 104.549 142.609 108.625 138.672C115.65 131.887 124.113 127.595 132.806 123.731C145 118.312 157.645 113.736 167.406 104.308C179.89 92.2509 184.581 77.456 186.468 61.3966C186.809 58.4956 184.499 56 181.578 56H108.625C83.4162 58.9938 58.4488 79.3256 55 104.308V123.731Z" fill="white"/>
<defs>
<linearGradient id="paint0_linear_2_7" x1="11.5" y1="119" x2="134.5" y2="79.5" gradientUnits="userSpaceOnUse">
<stop stop-color="#853CFF"/>
<stop offset="0.3009" stop-color="#7042FF"/>
<stop offset="0.562581" stop-color="#7042FF"/>
<stop offset="1" stop-color="#5C28FC"/>
</linearGradient>
</defs>
</svg>
