<svg width="452" height="474" viewBox="0 0 452 474" fill="none" xmlns="http://www.w3.org/2000/svg">
<path d="M3.5 251.533H8.5V274.585H3.5V251.533Z" fill="#271406"/>
<path d="M349 90.1638V94.6741H375V98.6833H380V90.1638H349Z" fill="#271406"/>
<path d="M3.5 251.533H8.5V274.585H3.5V251.533Z" stroke="#B27C40" stroke-width="0.5"/>
<path d="M349 90.1638V94.6741H375V98.6833H380V90.1638H349Z" stroke="#B27C40" stroke-width="0.5"/>
<path d="M294.5 56.0869H339V94.6729H324V123.741H375V108.206H436.5V140.277H421.5V153.102H451V207.932H444V235.998H451.5V268.069H417.5V281.102H450V297.637H444V313.172H436.5V328.207H374.5V313.172H361.5V348.255H376.5V410.395H314.5V395.861H286.961V455.999H187.5V395.861H144.5V410.395H59.5V383.631L59.6426 383.485L75.5 367.296V348.255H77.5V326.881L26.0078 327.705L25.5 327.714V308.5H0.5V284.609H45V242.01H1V158H6.1875L10.0508 150.082L10.1875 149.801H75.5V144H68V127.751H157.5V110.208H142.5V56.5879H202.5V18.501H294.5V56.0869ZM204 409.895V438.961H233.5V409.895H204ZM170.5 268V301.146H154.5L143 301.5L133 308.663V327.206H117.5V371.808L125.5 379.325H173V363.789H218.5V379.325H248.5V352.764H252V345.748H248.5V320.189H241.5V327.206H187.5V296.636H195.5V268H170.5ZM301 214.949V241.009H256.5V281.602H294V335.224H279V345.748H275.5V352.764H279V363.789H323V281.602H390V267.569L375.5 252.535H360V248.525H357.5V252.535H323V214.949H301ZM227.5 147.294V206.43L230.5 207.933V220.963L227.5 222.968V282.604H219V296.636H240.5V270.576L238.5 267.068L240.5 264.062V251.532L238.5 248.024L240.5 245.018V232.489L238.5 229.482L240.5 226.476V213.445H256.5V232.489H278V206.43H338V169.846H270L253 196.406H242L240.5 193.399V147.294H227.5ZM143 177.363V191.396H151.5V222.5H69V285.109H83.5V278.094H154.5V251.5H196V177.363H143ZM406 207.432V235.997H434.5V207.432H406ZM354 139.777V206.43L357.5 221.464V225.473H360V168.844H397.5V139.777H354ZM97.5 143.786V165L106 173.5V198.5H128V143.786H97.5ZM180.5 87.6582L174 94.6738V161.827H210.5V124.241H256L271 139.276V153.81H308V87.6582H180.5Z" fill="#271406"/>
<path d="M294.5 56.0869H294V56.5869H294.5V56.0869ZM339 56.0869H339.5V55.5869H339V56.0869ZM339 94.6729V95.1729H339.5V94.6729H339ZM324 94.6729V94.1729H323.5V94.6729H324ZM324 123.741H323.5V124.241H324V123.741ZM375 123.741V124.241H375.5V123.741H375ZM375 108.206V107.706H374.5V108.206H375ZM436.5 108.206H437V107.706H436.5V108.206ZM436.5 140.277V140.777H437V140.277H436.5ZM421.5 140.277V139.777H421V140.277H421.5ZM421.5 153.102H421V153.602H421.5V153.102ZM451 153.102H451.5V152.602H451V153.102ZM451 207.932V208.432H451.5V207.932H451ZM444 207.932V207.432H443.5V207.932H444ZM444 235.998H443.5V236.498H444V235.998ZM451.5 235.998H452V235.498H451.5V235.998ZM451.5 268.069V268.569H452V268.069H451.5ZM417.5 268.069V267.569H417V268.069H417.5ZM417.5 281.102H417V281.602H417.5V281.102ZM450 281.102H450.5V280.602H450V281.102ZM450 297.637V298.137H450.5V297.637H450ZM444 297.637V297.137H443.5V297.637H444ZM444 313.172V313.672H444.5V313.172H444ZM436.5 313.172V312.672H436V313.172H436.5ZM436.5 328.207V328.707H437V328.207H436.5ZM374.5 328.207H374V328.707H374.5V328.207ZM374.5 313.172H375V312.672H374.5V313.172ZM361.5 313.172V312.672H361V313.172H361.5ZM361.5 348.255H361V348.755H361.5V348.255ZM376.5 348.255H377V347.755H376.5V348.255ZM376.5 410.395V410.895H377V410.395H376.5ZM314.5 410.395H314V410.895H314.5V410.395ZM314.5 395.861H315V395.361H314.5V395.861ZM286.961 395.861V395.361H286.461V395.861H286.961ZM286.961 455.999V456.499H287.461V455.999H286.961ZM187.5 455.999H187V456.499H187.5V455.999ZM187.5 395.861H188V395.361H187.5V395.861ZM144.5 395.861V395.361H144V395.861H144.5ZM144.5 410.395V410.895H145V410.395H144.5ZM59.5 410.395H59V410.895H59.5V410.395ZM59.5 383.631L59.1429 383.281L59 383.427V383.631H59.5ZM59.6426 383.485L59.9997 383.835L59.9998 383.835L59.6426 383.485ZM75.5 367.296L75.8572 367.646L76 367.5V367.296H75.5ZM75.5 348.255V347.755H75V348.255H75.5ZM77.5 348.255V348.755H78V348.255H77.5ZM77.5 326.881H78V326.373L77.492 326.381L77.5 326.881ZM26.0078 327.705L25.9998 327.205L25.9992 327.205L26.0078 327.705ZM25.5 327.714H25V328.223L25.5087 328.214L25.5 327.714ZM25.5 308.5H26V308H25.5V308.5ZM0.5 308.5H0V309H0.5V308.5ZM0.5 284.609V284.109H0V284.609H0.5ZM45 284.609V285.109H45.5V284.609H45ZM45 242.01H45.5V241.51H45V242.01ZM1 242.01H0.5V242.51H1V242.01ZM1 158V157.5H0.5V158H1ZM6.1875 158V158.5H6.49988L6.63687 158.219L6.1875 158ZM10.0508 150.082L10.5001 150.301L10.5005 150.301L10.0508 150.082ZM10.1875 149.801V149.301H9.87461L9.73782 149.582L10.1875 149.801ZM75.5 149.801V150.301H76V149.801H75.5ZM75.5 144H76V143.5H75.5V144ZM68 144H67.5V144.5H68V144ZM68 127.751V127.251H67.5V127.751H68ZM157.5 127.751V128.251H158V127.751H157.5ZM157.5 110.208H158V109.708H157.5V110.208ZM142.5 110.208H142V110.708H142.5V110.208ZM142.5 56.5879V56.0879H142V56.5879H142.5ZM202.5 56.5879V57.0879H203V56.5879H202.5ZM202.5 18.501V18.001H202V18.501H202.5ZM294.5 18.501H295V18.001H294.5V18.501ZM204 409.895V409.395H203.5V409.895H204ZM204 438.961H203.5V439.461H204V438.961ZM233.5 438.961V439.461H234V438.961H233.5ZM233.5 409.895H234V409.395H233.5V409.895ZM170.5 268V267.5H170V268H170.5ZM170.5 301.146V301.646H171V301.146H170.5ZM154.5 301.146V300.646H154.492L154.485 300.647L154.5 301.146ZM143 301.5L142.985 301L142.833 301.005L142.709 301.094L143 301.5ZM133 308.663L132.709 308.257L132.5 308.406V308.663H133ZM133 327.206V327.706H133.5V327.206H133ZM117.5 327.206V326.706H117V327.206H117.5ZM117.5 371.808H117V372.024L117.158 372.172L117.5 371.808ZM125.5 379.325L125.158 379.69L125.302 379.825H125.5V379.325ZM173 379.325V379.825H173.5V379.325H173ZM173 363.789V363.289H172.5V363.789H173ZM218.5 363.789H219V363.289H218.5V363.789ZM218.5 379.325H218V379.825H218.5V379.325ZM248.5 379.325V379.825H249V379.325H248.5ZM248.5 352.764V352.264H248V352.764H248.5ZM252 352.764V353.264H252.5V352.764H252ZM252 345.748H252.5V345.248H252V345.748ZM248.5 345.748H248V346.248H248.5V345.748ZM248.5 320.189H249V319.689H248.5V320.189ZM241.5 320.189V319.689H241V320.189H241.5ZM241.5 327.206V327.706H242V327.206H241.5ZM187.5 327.206H187V327.706H187.5V327.206ZM187.5 296.636V296.136H187V296.636H187.5ZM195.5 296.636V297.136H196V296.636H195.5ZM195.5 268H196V267.5H195.5V268ZM301 214.949V214.449H300.5V214.949H301ZM301 241.009V241.509H301.5V241.009H301ZM256.5 241.009V240.509H256V241.009H256.5ZM256.5 281.602H256V282.102H256.5V281.602ZM294 281.602H294.5V281.102H294V281.602ZM294 335.224V335.724H294.5V335.224H294ZM279 335.224V334.724H278.5V335.224H279ZM279 345.748V346.248H279.5V345.748H279ZM275.5 345.748V345.248H275V345.748H275.5ZM275.5 352.764H275V353.264H275.5V352.764ZM279 352.764H279.5V352.264H279V352.764ZM279 363.789H278.5V364.289H279V363.789ZM323 363.789V364.289H323.5V363.789H323ZM323 281.602V281.102H322.5V281.602H323ZM390 281.602V282.102H390.5V281.602H390ZM390 267.569H390.5V267.368L390.36 267.222L390 267.569ZM375.5 252.535L375.86 252.188L375.712 252.035H375.5V252.535ZM360 252.535H359.5V253.035H360V252.535ZM360 248.525H360.5V248.025H360V248.525ZM357.5 248.525V248.025H357V248.525H357.5ZM357.5 252.535V253.035H358V252.535H357.5ZM323 252.535H322.5V253.035H323V252.535ZM323 214.949H323.5V214.449H323V214.949ZM227.5 147.294V146.794H227V147.294H227.5ZM227.5 206.43H227V206.738L227.276 206.877L227.5 206.43ZM230.5 207.933H231V207.624L230.724 207.486L230.5 207.933ZM230.5 220.963L230.778 221.379L231 221.23V220.963H230.5ZM227.5 222.968L227.222 222.552L227 222.701V222.968H227.5ZM227.5 282.604V283.104H228V282.604H227.5ZM219 282.604V282.104H218.5V282.604H219ZM219 296.636H218.5V297.136H219V296.636ZM240.5 296.636V297.136H241V296.636H240.5ZM240.5 270.576H241V270.444L240.934 270.329L240.5 270.576ZM238.5 267.068L238.084 266.791L237.913 267.048L238.066 267.316L238.5 267.068ZM240.5 264.062L240.916 264.338L241 264.213V264.062H240.5ZM240.5 251.532H241V251.4L240.934 251.285L240.5 251.532ZM238.5 248.024L238.084 247.748L237.913 248.004L238.066 248.272L238.5 248.024ZM240.5 245.018L240.916 245.294L241 245.169V245.018H240.5ZM240.5 232.489H241V232.338L240.916 232.212L240.5 232.489ZM238.5 229.482L238.084 229.206L237.899 229.482L238.084 229.759L238.5 229.482ZM240.5 226.476L240.916 226.752L241 226.627V226.476H240.5ZM240.5 213.445V212.945H240V213.445H240.5ZM256.5 213.445H257V212.945H256.5V213.445ZM256.5 232.489H256V232.989H256.5V232.489ZM278 232.489V232.989H278.5V232.489H278ZM278 206.43V205.93H277.5V206.43H278ZM338 206.43V206.93H338.5V206.43H338ZM338 169.846H338.5V169.346H338V169.846ZM270 169.846V169.346H269.726L269.579 169.576L270 169.846ZM253 196.406V196.906H253.274L253.421 196.676L253 196.406ZM242 196.406L241.553 196.629L241.691 196.906H242V196.406ZM240.5 193.399H240V193.517L240.053 193.623L240.5 193.399ZM240.5 147.294H241V146.794H240.5V147.294ZM143 177.363V176.863H142.5V177.363H143ZM143 191.396H142.5V191.896H143V191.396ZM151.5 191.396H152V190.896H151.5V191.396ZM151.5 222.5V223H152V222.5H151.5ZM69 222.5V222H68.5V222.5H69ZM69 285.109H68.5V285.609H69V285.109ZM83.5 285.109V285.609H84V285.109H83.5ZM83.5 278.094V277.594H83V278.094H83.5ZM154.5 278.094V278.594H155V278.094H154.5ZM154.5 251.5V251H154V251.5H154.5ZM196 251.5V252H196.5V251.5H196ZM196 177.363H196.5V176.863H196V177.363ZM406 207.432V206.932H405.5V207.432H406ZM406 235.997H405.5V236.497H406V235.997ZM434.5 235.997V236.497H435V235.997H434.5ZM434.5 207.432H435V206.932H434.5V207.432ZM354 139.777V139.277H353.5V139.777H354ZM354 206.43H353.5V206.487L353.513 206.543L354 206.43ZM357.5 221.464H358V221.406L357.987 221.35L357.5 221.464ZM357.5 225.473H357V225.973H357.5V225.473ZM360 225.473V225.973H360.5V225.473H360ZM360 168.844V168.344H359.5V168.844H360ZM397.5 168.844V169.344H398V168.844H397.5ZM397.5 139.777H398V139.277H397.5V139.777ZM97.5 143.786V143.286H97V143.786H97.5ZM97.5 165H97V165.207L97.1464 165.354L97.5 165ZM106 173.5H106.5V173.293L106.354 173.146L106 173.5ZM106 198.5H105.5V199H106V198.5ZM128 198.5V199H128.5V198.5H128ZM128 143.786H128.5V143.286H128V143.786ZM180.5 87.6582V87.1582H180.282L180.133 87.3184L180.5 87.6582ZM174 94.6738L173.633 94.334L173.5 94.4778V94.6738H174ZM174 161.827H173.5V162.327H174V161.827ZM210.5 161.827V162.327H211V161.827H210.5ZM210.5 124.241V123.741H210V124.241H210.5ZM256 124.241L256.354 123.888L256.207 123.741H256V124.241ZM271 139.276H271.5V139.07L271.354 138.923L271 139.276ZM271 153.81H270.5V154.31H271V153.81ZM308 153.81V154.31H308.5V153.81H308ZM308 87.6582H308.5V87.1582H308V87.6582ZM294.5 56.0869V56.5869H339V56.0869V55.5869H294.5V56.0869ZM339 56.0869H338.5V94.6729H339H339.5V56.0869H339ZM339 94.6729V94.1729H324V94.6729V95.1729H339V94.6729ZM324 94.6729H323.5V123.741H324H324.5V94.6729H324ZM324 123.741V124.241H375V123.741V123.241H324V123.741ZM375 123.741H375.5V108.206H375H374.5V123.741H375ZM375 108.206V108.706H436.5V108.206V107.706H375V108.206ZM436.5 108.206H436V140.277H436.5H437V108.206H436.5ZM436.5 140.277V139.777H421.5V140.277V140.777H436.5V140.277ZM421.5 140.277H421V153.102H421.5H422V140.277H421.5ZM421.5 153.102V153.602H451V153.102V152.602H421.5V153.102ZM451 153.102H450.5V207.932H451H451.5V153.102H451ZM451 207.932V207.432H444V207.932V208.432H451V207.932ZM444 207.932H443.5V235.998H444H444.5V207.932H444ZM444 235.998V236.498H451.5V235.998V235.498H444V235.998ZM451.5 235.998H451V268.069H451.5H452V235.998H451.5ZM451.5 268.069V267.569H417.5V268.069V268.569H451.5V268.069ZM417.5 268.069H417V281.102H417.5H418V268.069H417.5ZM417.5 281.102V281.602H450V281.102V280.602H417.5V281.102ZM450 281.102H449.5V297.637H450H450.5V281.102H450ZM450 297.637V297.137H444V297.637V298.137H450V297.637ZM444 297.637H443.5V313.172H444H444.5V297.637H444ZM444 313.172V312.672H436.5V313.172V313.672H444V313.172ZM436.5 313.172H436V328.207H436.5H437V313.172H436.5ZM436.5 328.207V327.707H374.5V328.207V328.707H436.5V328.207ZM374.5 328.207H375V313.172H374.5H374V328.207H374.5ZM374.5 313.172V312.672H361.5V313.172V313.672H374.5V313.172ZM361.5 313.172H361V348.255H361.5H362V313.172H361.5ZM361.5 348.255V348.755H376.5V348.255V347.755H361.5V348.255ZM376.5 348.255H376V410.395H376.5H377V348.255H376.5ZM376.5 410.395V409.895H314.5V410.395V410.895H376.5V410.395ZM314.5 410.395H315V395.861H314.5H314V410.395H314.5ZM314.5 395.861V395.361H286.961V395.861V396.361H314.5V395.861ZM286.961 395.861H286.461V455.999H286.961H287.461V395.861H286.961ZM286.961 455.999V455.499H187.5V455.999V456.499H286.961V455.999ZM187.5 455.999H188V395.861H187.5H187V455.999H187.5ZM187.5 395.861V395.361H144.5V395.861V396.361H187.5V395.861ZM144.5 395.861H144V410.395H144.5H145V395.861H144.5ZM144.5 410.395V409.895H59.5V410.395V410.895H144.5V410.395ZM59.5 410.395H60V383.631H59.5H59V410.395H59.5ZM59.5 383.631L59.8571 383.981L59.9997 383.835L59.6426 383.485L59.2854 383.135L59.1429 383.281L59.5 383.631ZM59.6426 383.485L59.9998 383.835L75.8572 367.646L75.5 367.296L75.1428 366.946L59.2854 383.135L59.6426 383.485ZM75.5 367.296H76V348.255H75.5H75V367.296H75.5ZM75.5 348.255V348.755H77.5V348.255V347.755H75.5V348.255ZM77.5 348.255H78V326.881H77.5H77V348.255H77.5ZM77.5 326.881L77.492 326.381L25.9998 327.205L26.0078 327.705L26.0158 328.205L77.508 327.381L77.5 326.881ZM26.0078 327.705L25.9992 327.205L25.4913 327.214L25.5 327.714L25.5087 328.214L26.0165 328.205L26.0078 327.705ZM25.5 327.714H26V308.5H25.5H25V327.714H25.5ZM25.5 308.5V308H0.5V308.5V309H25.5V308.5ZM0.5 308.5H1V284.609H0.5H0V308.5H0.5ZM0.5 284.609V285.109H45V284.609V284.109H0.5V284.609ZM45 284.609H45.5V242.01H45H44.5V284.609H45ZM45 242.01V241.51H1V242.01V242.51H45V242.01ZM1 242.01H1.5V158H1H0.5V242.01H1ZM1 158V158.5H6.1875V158V157.5H1V158ZM6.1875 158L6.63687 158.219L10.5001 150.301L10.0508 150.082L9.60142 149.863L5.73813 157.781L6.1875 158ZM10.0508 150.082L10.5005 150.301L10.6372 150.019L10.1875 149.801L9.73782 149.582L9.6011 149.863L10.0508 150.082ZM10.1875 149.801V150.301H75.5V149.801V149.301H10.1875V149.801ZM75.5 149.801H76V144H75.5H75V149.801H75.5ZM75.5 144V143.5H68V144V144.5H75.5V144ZM68 144H68.5V127.751H68H67.5V144H68ZM68 127.751V128.251H157.5V127.751V127.251H68V127.751ZM157.5 127.751H158V110.208H157.5H157V127.751H157.5ZM157.5 110.208V109.708H142.5V110.208V110.708H157.5V110.208ZM142.5 110.208H143V56.5879H142.5H142V110.208H142.5ZM142.5 56.5879V57.0879H202.5V56.5879V56.0879H142.5V56.5879ZM202.5 56.5879H203V18.501H202.5H202V56.5879H202.5ZM202.5 18.501V19.001H294.5V18.501V18.001H202.5V18.501ZM294.5 18.501H294V56.0869H294.5H295V18.501H294.5ZM204 409.895H203.5V438.961H204H204.5V409.895H204ZM204 438.961V439.461H233.5V438.961V438.461H204V438.961ZM233.5 438.961H234V409.895H233.5H233V438.961H233.5ZM233.5 409.895V409.395H204V409.895V410.395H233.5V409.895ZM170.5 268H170V301.146H170.5H171V268H170.5ZM170.5 301.146V300.646H154.5V301.146V301.646H170.5V301.146ZM154.5 301.146L154.485 300.647L142.985 301L143 301.5L143.015 302L154.515 301.646L154.5 301.146ZM143 301.5L142.709 301.094L132.709 308.257L133 308.663L133.291 309.07L143.291 301.906L143 301.5ZM133 308.663H132.5V327.206H133H133.5V308.663H133ZM133 327.206V326.706H117.5V327.206V327.706H133V327.206ZM117.5 327.206H117V371.808H117.5H118V327.206H117.5ZM117.5 371.808L117.158 372.172L125.158 379.69L125.5 379.325L125.842 378.961L117.842 371.443L117.5 371.808ZM125.5 379.325V379.825H173V379.325V378.825H125.5V379.325ZM173 379.325H173.5V363.789H173H172.5V379.325H173ZM173 363.789V364.289H218.5V363.789V363.289H173V363.789ZM218.5 363.789H218V379.325H218.5H219V363.789H218.5ZM218.5 379.325V379.825H248.5V379.325V378.825H218.5V379.325ZM248.5 379.325H249V352.764H248.5H248V379.325H248.5ZM248.5 352.764V353.264H252V352.764V352.264H248.5V352.764ZM252 352.764H252.5V345.748H252H251.5V352.764H252ZM252 345.748V345.248H248.5V345.748V346.248H252V345.748ZM248.5 345.748H249V320.189H248.5H248V345.748H248.5ZM248.5 320.189V319.689H241.5V320.189V320.689H248.5V320.189ZM241.5 320.189H241V327.206H241.5H242V320.189H241.5ZM241.5 327.206V326.706H187.5V327.206V327.706H241.5V327.206ZM187.5 327.206H188V296.636H187.5H187V327.206H187.5ZM187.5 296.636V297.136H195.5V296.636V296.136H187.5V296.636ZM195.5 296.636H196V268H195.5H195V296.636H195.5ZM195.5 268V267.5H170.5V268V268.5H195.5V268ZM301 214.949H300.5V241.009H301H301.5V214.949H301ZM301 241.009V240.509H256.5V241.009V241.509H301V241.009ZM256.5 241.009H256V281.602H256.5H257V241.009H256.5ZM256.5 281.602V282.102H294V281.602V281.102H256.5V281.602ZM294 281.602H293.5V335.224H294H294.5V281.602H294ZM294 335.224V334.724H279V335.224V335.724H294V335.224ZM279 335.224H278.5V345.748H279H279.5V335.224H279ZM279 345.748V345.248H275.5V345.748V346.248H279V345.748ZM275.5 345.748H275V352.764H275.5H276V345.748H275.5ZM275.5 352.764V353.264H279V352.764V352.264H275.5V352.764ZM279 352.764H278.5V363.789H279H279.5V352.764H279ZM279 363.789V364.289H323V363.789V363.289H279V363.789ZM323 363.789H323.5V281.602H323H322.5V363.789H323ZM323 281.602V282.102H390V281.602V281.102H323V281.602ZM390 281.602H390.5V267.569H390H389.5V281.602H390ZM390 267.569L390.36 267.222L375.86 252.188L375.5 252.535L375.14 252.882L389.64 267.916L390 267.569ZM375.5 252.535V252.035H360V252.535V253.035H375.5V252.535ZM360 252.535H360.5V248.525H360H359.5V252.535H360ZM360 248.525V248.025H357.5V248.525V249.025H360V248.525ZM357.5 248.525H357V252.535H357.5H358V248.525H357.5ZM357.5 252.535V252.035H323V252.535V253.035H357.5V252.535ZM323 252.535H323.5V214.949H323H322.5V252.535H323ZM323 214.949V214.449H301V214.949V215.449H323V214.949ZM227.5 147.294H227V206.43H227.5H228V147.294H227.5ZM227.5 206.43L227.276 206.877L230.276 208.38L230.5 207.933L230.724 207.486L227.724 205.983L227.5 206.43ZM230.5 207.933H230V220.963H230.5H231V207.933H230.5ZM230.5 220.963L230.222 220.547L227.222 222.552L227.5 222.968L227.778 223.383L230.778 221.379L230.5 220.963ZM227.5 222.968H227V282.604H227.5H228V222.968H227.5ZM227.5 282.604V282.104H219V282.604V283.104H227.5V282.604ZM219 282.604H218.5V296.636H219H219.5V282.604H219ZM219 296.636V297.136H240.5V296.636V296.136H219V296.636ZM240.5 296.636H241V270.576H240.5H240V296.636H240.5ZM240.5 270.576L240.934 270.329L238.934 266.821L238.5 267.068L238.066 267.316L240.066 270.824L240.5 270.576ZM238.5 267.068L238.916 267.345L240.916 264.338L240.5 264.062L240.084 263.785L238.084 266.791L238.5 267.068ZM240.5 264.062H241V251.532H240.5H240V264.062H240.5ZM240.5 251.532L240.934 251.285L238.934 247.777L238.5 248.024L238.066 248.272L240.066 251.78L240.5 251.532ZM238.5 248.024L238.916 248.301L240.916 245.294L240.5 245.018L240.084 244.741L238.084 247.748L238.5 248.024ZM240.5 245.018H241V232.489H240.5H240V245.018H240.5ZM240.5 232.489L240.916 232.212L238.916 229.206L238.5 229.482L238.084 229.759L240.084 232.766L240.5 232.489ZM238.5 229.482L238.916 229.759L240.916 226.752L240.5 226.476L240.084 226.199L238.084 229.206L238.5 229.482ZM240.5 226.476H241V213.445H240.5H240V226.476H240.5ZM240.5 213.445V213.945H256.5V213.445V212.945H240.5V213.445ZM256.5 213.445H256V232.489H256.5H257V213.445H256.5ZM256.5 232.489V232.989H278V232.489V231.989H256.5V232.489ZM278 232.489H278.5V206.43H278H277.5V232.489H278ZM278 206.43V206.93H338V206.43V205.93H278V206.43ZM338 206.43H338.5V169.846H338H337.5V206.43H338ZM338 169.846V169.346H270V169.846V170.346H338V169.846ZM270 169.846L269.579 169.576L252.579 196.137L253 196.406L253.421 196.676L270.421 170.115L270 169.846ZM253 196.406V195.906H242V196.406V196.906H253V196.406ZM242 196.406L242.447 196.183L240.947 193.176L240.5 193.399L240.053 193.623L241.553 196.629L242 196.406ZM240.5 193.399H241V147.294H240.5H240V193.399H240.5ZM240.5 147.294V146.794H227.5V147.294V147.794H240.5V147.294ZM143 177.363H142.5V191.396H143H143.5V177.363H143ZM143 191.396V191.896H151.5V191.396V190.896H143V191.396ZM151.5 191.396H151V222.5H151.5H152V191.396H151.5ZM151.5 222.5V222H69V222.5V223H151.5V222.5ZM69 222.5H68.5V285.109H69H69.5V222.5H69ZM69 285.109V285.609H83.5V285.109V284.609H69V285.109ZM83.5 285.109H84V278.094H83.5H83V285.109H83.5ZM83.5 278.094V278.594H154.5V278.094V277.594H83.5V278.094ZM154.5 278.094H155V251.5H154.5H154V278.094H154.5ZM154.5 251.5V252H196V251.5V251H154.5V251.5ZM196 251.5H196.5V177.363H196H195.5V251.5H196ZM196 177.363V176.863H143V177.363V177.863H196V177.363ZM406 207.432H405.5V235.997H406H406.5V207.432H406ZM406 235.997V236.497H434.5V235.997V235.497H406V235.997ZM434.5 235.997H435V207.432H434.5H434V235.997H434.5ZM434.5 207.432V206.932H406V207.432V207.932H434.5V207.432ZM354 139.777H353.5V206.43H354H354.5V139.777H354ZM354 206.43L353.513 206.543L357.013 221.577L357.5 221.464L357.987 221.35L354.487 206.316L354 206.43ZM357.5 221.464H357V225.473H357.5H358V221.464H357.5ZM357.5 225.473V225.973H360V225.473V224.973H357.5V225.473ZM360 225.473H360.5V168.844H360H359.5V225.473H360ZM360 168.844V169.344H397.5V168.844V168.344H360V168.844ZM397.5 168.844H398V139.777H397.5H397V168.844H397.5ZM397.5 139.777V139.277H354V139.777V140.277H397.5V139.777ZM97.5 143.786H97V165H97.5H98V143.786H97.5ZM97.5 165L97.1464 165.354L105.646 173.854L106 173.5L106.354 173.146L97.8536 164.646L97.5 165ZM106 173.5H105.5V198.5H106H106.5V173.5H106ZM106 198.5V199H128V198.5V198H106V198.5ZM128 198.5H128.5V143.786H128H127.5V198.5H128ZM128 143.786V143.286H97.5V143.786V144.286H128V143.786ZM180.5 87.6582L180.133 87.3184L173.633 94.334L174 94.6738L174.367 95.0136L180.867 87.998L180.5 87.6582ZM174 94.6738H173.5V161.827H174H174.5V94.6738H174ZM174 161.827V162.327H210.5V161.827V161.327H174V161.827ZM210.5 161.827H211V124.241H210.5H210V161.827H210.5ZM210.5 124.241V124.741H256V124.241V123.741H210.5V124.241ZM256 124.241L255.646 124.594L270.646 139.63L271 139.276L271.354 138.923L256.354 123.888L256 124.241ZM271 139.276H270.5V153.81H271H271.5V139.276H271ZM271 153.81V154.31H308V153.81V153.31H271V153.81ZM308 153.81H308.5V87.6582H308H307.5V153.81H308ZM308 87.6582V87.1582H180.5V87.6582V88.1582H308V87.6582Z" fill="#B27C40"/>
<path d="M227.5 192.899H240.5M256.5 191V213.947M339 94.6741C339.4 94.6741 363.167 94.6741 375 94.6741V108.706M80 348.755H75.5M34 308.5V301.5H41V308.5M196 229.482H211V236.498H196M175 94.173L170 88.6604L174.5 84.1501L179.5 88.6604M230.5 147.294V139.777H237.5V147.294M421 108.205V116.223M421 116.223H436.5M421 116.223V124.242H436.5M451.5 260.052H435.5V268.07M451.5 268.07V281.601H450M271 296.636V304.654H279M339 293.629V300.645M383 281.601V289.119H390V281.601M380 257.546L386 251.533L391 256.544L385.5 262.558M118.5 372.5L107.5 383.5L113 388.345L124 377.821M143 177.864V166.338H150V177.363M69 226.475V214.5H76.5V222.5M8.5 248.526V277H37V248.526H8.5ZM50 308.663H94.5V311.5V314.677V315.5H91.5V311.5H50V308.663ZM94.5 323.698V349.5H91.5V323.698H94.5Z" stroke="#B27C40"/>
<path d="M25 308.5H52.5M94.5 314.677V324.7M117.5 327.707V312.5H125.5M133 312.5H125.5M133 309.164H125.5V312.5M143 301.647V278.594M241.5 324.199H234V327.707M241.5 320.691V312.171H248.5V320.691M279 312.171V296.5H240.5M199.5 236.999V241.009M196 245.018H199.5V241.009M199.5 241.009H203V236.999M202.5 56.5871C204.1 56.5871 224.167 56.5871 234 56.5871M209.5 19.0011V24.5137H222V19.0011M243.5 19.0011V24.5137H256V19.0011M271.5 19.0011V24.5137H283.5V19.0011M290.5 19.0011V24.0126H294.5M339 64.1042H294M301 88.1592V83.6489M308 88.1592V79.6397H301V83.6489M301 83.6489H297V88.1592M154.5 301.647V278.594" stroke="#B27C40" stroke-width="0.5"/>
<path d="M98 165.837H26.5V181.372H31.5V188.388V189M1 165.837H20V181.372H17V225.974H31.5V203.924V203M31.5 189H37.5V196M31.5 189V196M37.5 196H31.5M37.5 196H45.5V203H31.5M31.5 196V203M82 186.5L77 181.372L72 186L77 191.5L79.5 189M82 186.5L84.5 184.5L90 189L84.5 194L79.5 189M82 186.5L79.5 189" stroke="#B27C40"/>
<path d="M324 94.6741H322.5M309.5 94.6741H308M324 123.741H322M309.5 123.741H308M354 169.846H352M339.5 169.846H338" stroke="#B27C40"/>
<path d="M327 169.846V166.338H331M331 166.338V169.846M331 166.338V162.329H338V169.846M406 207.432H383.5V192.397H428V207.432" stroke="#B27C40" stroke-width="0.5"/>
<path d="M383.5 207.432C383.5 208.234 383.5 212.109 383.5 213.947H391M398.5 213.947V207.432M398.5 213.947H391M398.5 213.947V217.455M406 221.965H398.5V217.455M391 213.947V217.455H398.5M360 225.974V248.526M339 281.601V341.739M349.5 386.341V380.327H334.5V386.341M349.5 386.341V390.851H334.5V386.842V386.341M349.5 386.341H334.5M402 328.709V312.672H406M444 312.672H424M406 312.672V328.709M406 312.672H417M417 312.672V315.178H424V312.672M417 312.672H424" stroke="#B27C40" stroke-width="0.5"/>
<path d="M218.5 409.895V379.325M59.5 393H64.5V406H74V410.897" stroke="#B27C40" stroke-width="0.5"/>
<path d="M53.5 196H37V189H32V181H27.5V180.867H27V166.338H20V180.867H17V188H24V214H11.5V159H53.5V196Z" fill="#F08234" fill-opacity="0.23"/>
<path d="M38.7891 184V176H41.8516C42.4297 176 42.9102 176.091 43.293 176.273C43.6784 176.453 43.9661 176.699 44.1563 177.012C44.349 177.324 44.4453 177.678 44.4453 178.074C44.4453 178.4 44.3828 178.678 44.2578 178.91C44.1328 179.139 43.9648 179.326 43.7539 179.469C43.543 179.612 43.3073 179.715 43.0469 179.777V179.855C43.3307 179.871 43.6029 179.958 43.8633 180.117C44.1263 180.273 44.3411 180.495 44.5078 180.781C44.6745 181.068 44.7578 181.414 44.7578 181.82C44.7578 182.234 44.6576 182.607 44.457 182.937C44.2565 183.266 43.9544 183.525 43.5508 183.715C43.1471 183.905 42.6393 184 42.0273 184H38.7891ZM40.2383 182.789H41.7969C42.3229 182.789 42.7018 182.689 42.9336 182.488C43.168 182.285 43.2852 182.025 43.2852 181.707C43.2852 181.47 43.2266 181.257 43.1094 181.066C42.9922 180.874 42.8255 180.723 42.6094 180.613C42.3932 180.501 42.1354 180.445 41.8359 180.445H40.2383V182.789ZM40.2383 179.402H41.6719C41.9219 179.402 42.1471 179.357 42.3477 179.266C42.5482 179.172 42.7057 179.04 42.8203 178.871C42.9375 178.699 42.9961 178.496 42.9961 178.262C42.9961 177.952 42.8867 177.697 42.668 177.496C42.4518 177.296 42.1302 177.195 41.7031 177.195H40.2383V179.402Z" fill="white"/>
<path d="M444 176.361H450.5V207.432H444V176.361Z" fill="#F08234" fill-opacity="0.23"/>
<path d="M444 229.482H435V207.432H428.243V192.154H383.243V207.432H383.254V214.188H406.5V214.203H390.756V217.683H406.5V217.695H398.267V222.207H406.5V229.482H376V176.361H444V229.482Z" fill="#F08234" fill-opacity="0.23"/>
<path d="M400.816 187.361H399.27L402.086 179.361H403.875L406.695 187.361H405.148L403.012 181.001H402.949L400.816 187.361ZM400.867 184.224H405.086V185.388H400.867V184.224Z" fill="white"/>
<path d="M6.5 158.5H54V166M17 187.5H24.5V214.5H17" stroke="#B27C40" stroke-opacity="0.23"/>
<path d="M1 165H6V158" stroke="#B27C40"/>
</svg>
