<svg width="452" height="474" viewBox="0 0 452 474" fill="none" xmlns="http://www.w3.org/2000/svg">
<path d="M448.5 222.467H443.5V199.415H448.5V222.467Z" fill="#271406"/>
<path d="M103 383.836V379.326H77V375.317H72V383.836H103Z" fill="#271406"/>
<path d="M448.5 222.467H443.5V199.415H448.5V222.467Z" stroke="#B27C40" stroke-width="0.5"/>
<path d="M103 383.836V379.326H77V375.317H72V383.836H103Z" stroke="#B27C40" stroke-width="0.5"/>
<path d="M157.5 417.913H113V379.327H128V350.259H77V365.794H15.5V333.723H30.5V320.898H1V266.068H8V238.002H0.5V205.931H34.5V192.898H2V176.363H8V160.828H15.5V145.793H77.5V160.828H90.5V125.745H75.5V63.6055H137.5V78.1387H165.039V18.001H264.5V78.1387H307.5V63.6055H392.5V90.3691L392.357 90.5146L376.5 106.704V125.745H374.5V147.119L425.992 146.295L426.5 146.286V165.5H451.5V189.391H407V231.99H451V316H445.812L441.949 323.918L441.812 324.199H376.5V330H384V346.249H294.5V363.792H309.5V417.412H249.5V455.499H157.5V417.913ZM248 64.1055V35.0391H218.5V64.1055H248ZM281.5 206V172.854H297.5L309 172.5L319 165.337V146.794H334.5V102.192L326.5 94.6748H279V110.211H233.5V94.6748H203.5V121.236H200V128.252H203.5V153.811H210.5V146.794H264.5V177.364H256.5V206H281.5ZM151 259.051V232.991H195.5V192.398H158V138.776H173V128.252H176.5V121.236H173V110.211H129V192.398H62V206.431L76.5 221.465H92V225.475H94.5V221.465H129V259.051H151ZM224.5 326.706V267.57L221.5 266.067V253.037L224.5 251.032V191.396H233V177.364H211.5V203.424L213.5 206.932L211.5 209.938V222.468L213.5 225.976L211.5 228.982V241.511L213.5 244.518L211.5 247.524V260.555H195.5V241.511H174V267.57H114V304.154H182L199 277.594H210L211.5 280.601V326.706H224.5ZM309 296.637V282.604H300.5V251.5H383V188.891H368.5V195.906H297.5V222.5H256V296.637H309ZM46 266.568V238.003H17.5V266.568H46ZM98 334.223V267.57L94.5 252.536V248.527H92V305.156H54.5V334.223H98ZM354.5 330.214V309L346 300.5V275.5H324V330.214H354.5ZM271.5 386.342L278 379.326V312.173H241.5V349.759H196L181 334.724V320.19H144V386.342H271.5Z" fill="#271406"/>
<path d="M157.5 417.913H158V417.413H157.5V417.913ZM113 417.913H112.5V418.413H113V417.913ZM113 379.327V378.827H112.5V379.327H113ZM128 379.327V379.827H128.5V379.327H128ZM128 350.259H128.5V349.759H128V350.259ZM77 350.259V349.759H76.5V350.259H77ZM77 365.794V366.294H77.5V365.794H77ZM15.5 365.794H15V366.294H15.5V365.794ZM15.5 333.723V333.223H15V333.723H15.5ZM30.5 333.723V334.223H31V333.723H30.5ZM30.5 320.898H31V320.398H30.5V320.898ZM1 320.898H0.5V321.398H1V320.898ZM1 266.068V265.568H0.5V266.068H1ZM8 266.068V266.568H8.5V266.068H8ZM8 238.002H8.5V237.502H8V238.002ZM0.5 238.002H0V238.502H0.5V238.002ZM0.5 205.931V205.431H0V205.931H0.5ZM34.5 205.931V206.431H35V205.931H34.5ZM34.5 192.898H35V192.398H34.5V192.898ZM2 192.898H1.5V193.398H2V192.898ZM2 176.363V175.863H1.5V176.363H2ZM8 176.363V176.863H8.5V176.363H8ZM8 160.828V160.328H7.5V160.828H8ZM15.5 160.828V161.328H16V160.828H15.5ZM15.5 145.793V145.293H15V145.793H15.5ZM77.5 145.793H78V145.293H77.5V145.793ZM77.5 160.828H77V161.328H77.5V160.828ZM90.5 160.828V161.328H91V160.828H90.5ZM90.5 125.745H91V125.245H90.5V125.745ZM75.5 125.745H75V126.245H75.5V125.745ZM75.5 63.6055V63.1055H75V63.6055H75.5ZM137.5 63.6055H138V63.1055H137.5V63.6055ZM137.5 78.1387H137V78.6387H137.5V78.1387ZM165.039 78.1387V78.6387H165.539V78.1387H165.039ZM165.039 18.001V17.501H164.539V18.001H165.039ZM264.5 18.001H265V17.501H264.5V18.001ZM264.5 78.1387H264V78.6387H264.5V78.1387ZM307.5 78.1387V78.6387H308V78.1387H307.5ZM307.5 63.6055V63.1055H307V63.6055H307.5ZM392.5 63.6055H393V63.1055H392.5V63.6055ZM392.5 90.3691L392.857 90.7191L393 90.5733V90.3691H392.5ZM392.357 90.5146L392 90.1647L392 90.1648L392.357 90.5146ZM376.5 106.704L376.143 106.354L376 106.5V106.704H376.5ZM376.5 125.745V126.245H377V125.745H376.5ZM374.5 125.745V125.245H374V125.745H374.5ZM374.5 147.119H374V147.627L374.508 147.619L374.5 147.119ZM425.992 146.295L426 146.795L426.001 146.795L425.992 146.295ZM426.5 146.286H427V145.777L426.491 145.786L426.5 146.286ZM426.5 165.5H426V166H426.5V165.5ZM451.5 165.5H452V165H451.5V165.5ZM451.5 189.391V189.891H452V189.391H451.5ZM407 189.391V188.891H406.5V189.391H407ZM407 231.99H406.5V232.49H407V231.99ZM451 231.99H451.5V231.49H451V231.99ZM451 316V316.5H451.5V316H451ZM445.812 316V315.5H445.5L445.363 315.781L445.812 316ZM441.949 323.918L441.5 323.699L441.5 323.699L441.949 323.918ZM441.812 324.199V324.699H442.125L442.262 324.418L441.812 324.199ZM376.5 324.199V323.699H376V324.199H376.5ZM376.5 330H376V330.5H376.5V330ZM384 330H384.5V329.5H384V330ZM384 346.249V346.749H384.5V346.249H384ZM294.5 346.249V345.749H294V346.249H294.5ZM294.5 363.792H294V364.292H294.5V363.792ZM309.5 363.792H310V363.292H309.5V363.792ZM309.5 417.412V417.912H310V417.412H309.5ZM249.5 417.412V416.912H249V417.412H249.5ZM249.5 455.499V455.999H250V455.499H249.5ZM157.5 455.499H157V455.999H157.5V455.499ZM248 64.1055V64.6055H248.5V64.1055H248ZM248 35.0391H248.5V34.5391H248V35.0391ZM218.5 35.0391V34.5391H218V35.0391H218.5ZM218.5 64.1055H218V64.6055H218.5V64.1055ZM281.5 206V206.5H282V206H281.5ZM281.5 172.854V172.354H281V172.854H281.5ZM297.5 172.854V173.354H297.508L297.515 173.353L297.5 172.854ZM309 172.5L309.015 173L309.167 172.995L309.291 172.906L309 172.5ZM319 165.337L319.291 165.743L319.5 165.594V165.337H319ZM319 146.794V146.294H318.5V146.794H319ZM334.5 146.794V147.294H335V146.794H334.5ZM334.5 102.192H335V101.976L334.842 101.828L334.5 102.192ZM326.5 94.6748L326.842 94.3104L326.698 94.1748H326.5V94.6748ZM279 94.6748V94.1748H278.5V94.6748H279ZM279 110.211V110.711H279.5V110.211H279ZM233.5 110.211H233V110.711H233.5V110.211ZM233.5 94.6748H234V94.1748H233.5V94.6748ZM203.5 94.6748V94.1748H203V94.6748H203.5ZM203.5 121.236V121.736H204V121.236H203.5ZM200 121.236V120.736H199.5V121.236H200ZM200 128.252H199.5V128.752H200V128.252ZM203.5 128.252H204V127.752H203.5V128.252ZM203.5 153.811H203V154.311H203.5V153.811ZM210.5 153.811V154.311H211V153.811H210.5ZM210.5 146.794V146.294H210V146.794H210.5ZM264.5 146.794H265V146.294H264.5V146.794ZM264.5 177.364V177.864H265V177.364H264.5ZM256.5 177.364V176.864H256V177.364H256.5ZM256.5 206H256V206.5H256.5V206ZM151 259.051V259.551H151.5V259.051H151ZM151 232.991V232.491H150.5V232.991H151ZM195.5 232.991V233.491H196V232.991H195.5ZM195.5 192.398H196V191.898H195.5V192.398ZM158 192.398H157.5V192.898H158V192.398ZM158 138.776V138.276H157.5V138.776H158ZM173 138.776V139.276H173.5V138.776H173ZM173 128.252V127.752H172.5V128.252H173ZM176.5 128.252V128.752H177V128.252H176.5ZM176.5 121.236H177V120.736H176.5V121.236ZM173 121.236H172.5V121.736H173V121.236ZM173 110.211H173.5V109.711H173V110.211ZM129 110.211V109.711H128.5V110.211H129ZM129 192.398V192.898H129.5V192.398H129ZM62 192.398V191.898H61.5V192.398H62ZM62 206.431H61.5V206.632L61.6401 206.778L62 206.431ZM76.5 221.465L76.1401 221.812L76.2876 221.965H76.5V221.465ZM92 221.465H92.5V220.965H92V221.465ZM92 225.475H91.5V225.975H92V225.475ZM94.5 225.475V225.975H95V225.475H94.5ZM94.5 221.465V220.965H94V221.465H94.5ZM129 221.465H129.5V220.965H129V221.465ZM129 259.051H128.5V259.551H129V259.051ZM224.5 326.706V327.206H225V326.706H224.5ZM224.5 267.57H225V267.262L224.724 267.123L224.5 267.57ZM221.5 266.067H221V266.376L221.276 266.514L221.5 266.067ZM221.5 253.037L221.222 252.621L221 252.77V253.037H221.5ZM224.5 251.032L224.778 251.448L225 251.299V251.032H224.5ZM224.5 191.396V190.896H224V191.396H224.5ZM233 191.396V191.896H233.5V191.396H233ZM233 177.364H233.5V176.864H233V177.364ZM211.5 177.364V176.864H211V177.364H211.5ZM211.5 203.424H211V203.556L211.066 203.671L211.5 203.424ZM213.5 206.932L213.916 207.209L214.087 206.952L213.934 206.684L213.5 206.932ZM211.5 209.938L211.084 209.662L211 209.787V209.938H211.5ZM211.5 222.468H211V222.6L211.066 222.715L211.5 222.468ZM213.5 225.976L213.916 226.252L214.087 225.996L213.934 225.728L213.5 225.976ZM211.5 228.982L211.084 228.706L211 228.831V228.982H211.5ZM211.5 241.511H211V241.662L211.084 241.788L211.5 241.511ZM213.5 244.518L213.916 244.794L214.101 244.518L213.916 244.241L213.5 244.518ZM211.5 247.524L211.084 247.248L211 247.373V247.524H211.5ZM211.5 260.555V261.055H212V260.555H211.5ZM195.5 260.555H195V261.055H195.5V260.555ZM195.5 241.511H196V241.011H195.5V241.511ZM174 241.511V241.011H173.5V241.511H174ZM174 267.57V268.07H174.5V267.57H174ZM114 267.57V267.07H113.5V267.57H114ZM114 304.154H113.5V304.654H114V304.154ZM182 304.154V304.654H182.274L182.421 304.424L182 304.154ZM199 277.594V277.094H198.726L198.579 277.324L199 277.594ZM210 277.594L210.447 277.371L210.309 277.094H210V277.594ZM211.5 280.601H212V280.483L211.947 280.377L211.5 280.601ZM211.5 326.706H211V327.206H211.5V326.706ZM309 296.637V297.137H309.5V296.637H309ZM309 282.604H309.5V282.104H309V282.604ZM300.5 282.604H300V283.104H300.5V282.604ZM300.5 251.5V251H300V251.5H300.5ZM383 251.5V252H383.5V251.5H383ZM383 188.891H383.5V188.391H383V188.891ZM368.5 188.891V188.391H368V188.891H368.5ZM368.5 195.906V196.406H369V195.906H368.5ZM297.5 195.906V195.406H297V195.906H297.5ZM297.5 222.5V223H298V222.5H297.5ZM256 222.5V222H255.5V222.5H256ZM256 296.637H255.5V297.137H256V296.637ZM46 266.568V267.068H46.5V266.568H46ZM46 238.003H46.5V237.503H46V238.003ZM17.5 238.003V237.503H17V238.003H17.5ZM17.5 266.568H17V267.068H17.5V266.568ZM98 334.223V334.723H98.5V334.223H98ZM98 267.57H98.5V267.513L98.487 267.457L98 267.57ZM94.5 252.536H94V252.594L94.013 252.65L94.5 252.536ZM94.5 248.527H95V248.027H94.5V248.527ZM92 248.527V248.027H91.5V248.527H92ZM92 305.156V305.656H92.5V305.156H92ZM54.5 305.156V304.656H54V305.156H54.5ZM54.5 334.223H54V334.723H54.5V334.223ZM354.5 330.214V330.714H355V330.214H354.5ZM354.5 309H355V308.793L354.854 308.646L354.5 309ZM346 300.5H345.5V300.707L345.646 300.854L346 300.5ZM346 275.5H346.5V275H346V275.5ZM324 275.5V275H323.5V275.5H324ZM324 330.214H323.5V330.714H324V330.214ZM271.5 386.342V386.842H271.718L271.867 386.682L271.5 386.342ZM278 379.326L278.367 379.666L278.5 379.522V379.326H278ZM278 312.173H278.5V311.673H278V312.173ZM241.5 312.173V311.673H241V312.173H241.5ZM241.5 349.759V350.259H242V349.759H241.5ZM196 349.759L195.646 350.112L195.793 350.259H196V349.759ZM181 334.724H180.5V334.93L180.646 335.077L181 334.724ZM181 320.19H181.5V319.69H181V320.19ZM144 320.19V319.69H143.5V320.19H144ZM144 386.342H143.5V386.842H144V386.342ZM157.5 417.913V417.413H113V417.913V418.413H157.5V417.913ZM113 417.913H113.5V379.327H113H112.5V417.913H113ZM113 379.327V379.827H128V379.327V378.827H113V379.327ZM128 379.327H128.5V350.259H128H127.5V379.327H128ZM128 350.259V349.759H77V350.259V350.759H128V350.259ZM77 350.259H76.5V365.794H77H77.5V350.259H77ZM77 365.794V365.294H15.5V365.794V366.294H77V365.794ZM15.5 365.794H16V333.723H15.5H15V365.794H15.5ZM15.5 333.723V334.223H30.5V333.723V333.223H15.5V333.723ZM30.5 333.723H31V320.898H30.5H30V333.723H30.5ZM30.5 320.898V320.398H1V320.898V321.398H30.5V320.898ZM1 320.898H1.5V266.068H1H0.5V320.898H1ZM1 266.068V266.568H8V266.068V265.568H1V266.068ZM8 266.068H8.5V238.002H8H7.5V266.068H8ZM8 238.002V237.502H0.5V238.002V238.502H8V238.002ZM0.5 238.002H1V205.931H0.5H0V238.002H0.5ZM0.5 205.931V206.431H34.5V205.931V205.431H0.5V205.931ZM34.5 205.931H35V192.898H34.5H34V205.931H34.5ZM34.5 192.898V192.398H2V192.898V193.398H34.5V192.898ZM2 192.898H2.5V176.363H2H1.5V192.898H2ZM2 176.363V176.863H8V176.363V175.863H2V176.363ZM8 176.363H8.5V160.828H8H7.5V176.363H8ZM8 160.828V161.328H15.5V160.828V160.328H8V160.828ZM15.5 160.828H16V145.793H15.5H15V160.828H15.5ZM15.5 145.793V146.293H77.5V145.793V145.293H15.5V145.793ZM77.5 145.793H77V160.828H77.5H78V145.793H77.5ZM77.5 160.828V161.328H90.5V160.828V160.328H77.5V160.828ZM90.5 160.828H91V125.745H90.5H90V160.828H90.5ZM90.5 125.745V125.245H75.5V125.745V126.245H90.5V125.745ZM75.5 125.745H76V63.6055H75.5H75V125.745H75.5ZM75.5 63.6055V64.1055H137.5V63.6055V63.1055H75.5V63.6055ZM137.5 63.6055H137V78.1387H137.5H138V63.6055H137.5ZM137.5 78.1387V78.6387H165.039V78.1387V77.6387H137.5V78.1387ZM165.039 78.1387H165.539V18.001H165.039H164.539V78.1387H165.039ZM165.039 18.001V18.501H264.5V18.001V17.501H165.039V18.001ZM264.5 18.001H264V78.1387H264.5H265V18.001H264.5ZM264.5 78.1387V78.6387H307.5V78.1387V77.6387H264.5V78.1387ZM307.5 78.1387H308V63.6055H307.5H307V78.1387H307.5ZM307.5 63.6055V64.1055H392.5V63.6055V63.1055H307.5V63.6055ZM392.5 63.6055H392V90.3691H392.5H393V63.6055H392.5ZM392.5 90.3691L392.143 90.0192L392 90.1647L392.357 90.5146L392.715 90.8646L392.857 90.7191L392.5 90.3691ZM392.357 90.5146L392 90.1648L376.143 106.354L376.5 106.704L376.857 107.054L392.715 90.8645L392.357 90.5146ZM376.5 106.704H376V125.745H376.5H377V106.704H376.5ZM376.5 125.745V125.245H374.5V125.745V126.245H376.5V125.745ZM374.5 125.745H374V147.119H374.5H375V125.745H374.5ZM374.5 147.119L374.508 147.619L426 146.795L425.992 146.295L425.984 145.795L374.492 146.619L374.5 147.119ZM425.992 146.295L426.001 146.795L426.509 146.786L426.5 146.286L426.491 145.786L425.984 145.795L425.992 146.295ZM426.5 146.286H426V165.5H426.5H427V146.286H426.5ZM426.5 165.5V166H451.5V165.5V165H426.5V165.5ZM451.5 165.5H451V189.391H451.5H452V165.5H451.5ZM451.5 189.391V188.891H407V189.391V189.891H451.5V189.391ZM407 189.391H406.5V231.99H407H407.5V189.391H407ZM407 231.99V232.49H451V231.99V231.49H407V231.99ZM451 231.99H450.5V316H451H451.5V231.99H451ZM451 316V315.5H445.812V316V316.5H451V316ZM445.812 316L445.363 315.781L441.5 323.699L441.949 323.918L442.399 324.137L446.262 316.219L445.812 316ZM441.949 323.918L441.5 323.699L441.363 323.981L441.812 324.199L442.262 324.418L442.399 324.137L441.949 323.918ZM441.812 324.199V323.699H376.5V324.199V324.699H441.812V324.199ZM376.5 324.199H376V330H376.5H377V324.199H376.5ZM376.5 330V330.5H384V330V329.5H376.5V330ZM384 330H383.5V346.249H384H384.5V330H384ZM384 346.249V345.749H294.5V346.249V346.749H384V346.249ZM294.5 346.249H294V363.792H294.5H295V346.249H294.5ZM294.5 363.792V364.292H309.5V363.792V363.292H294.5V363.792ZM309.5 363.792H309V417.412H309.5H310V363.792H309.5ZM309.5 417.412V416.912H249.5V417.412V417.912H309.5V417.412ZM249.5 417.412H249V455.499H249.5H250V417.412H249.5ZM249.5 455.499V454.999H157.5V455.499V455.999H249.5V455.499ZM157.5 455.499H158V417.913H157.5H157V455.499H157.5ZM248 64.1055H248.5V35.0391H248H247.5V64.1055H248ZM248 35.0391V34.5391H218.5V35.0391V35.5391H248V35.0391ZM218.5 35.0391H218V64.1055H218.5H219V35.0391H218.5ZM218.5 64.1055V64.6055H248V64.1055V63.6055H218.5V64.1055ZM281.5 206H282V172.854H281.5H281V206H281.5ZM281.5 172.854V173.354H297.5V172.854V172.354H281.5V172.854ZM297.5 172.854L297.515 173.353L309.015 173L309 172.5L308.985 172L297.485 172.354L297.5 172.854ZM309 172.5L309.291 172.906L319.291 165.743L319 165.337L318.709 164.93L308.709 172.094L309 172.5ZM319 165.337H319.5V146.794H319H318.5V165.337H319ZM319 146.794V147.294H334.5V146.794V146.294H319V146.794ZM334.5 146.794H335V102.192H334.5H334V146.794H334.5ZM334.5 102.192L334.842 101.828L326.842 94.3104L326.5 94.6748L326.158 95.0392L334.158 102.557L334.5 102.192ZM326.5 94.6748V94.1748H279V94.6748V95.1748H326.5V94.6748ZM279 94.6748H278.5V110.211H279H279.5V94.6748H279ZM279 110.211V109.711H233.5V110.211V110.711H279V110.211ZM233.5 110.211H234V94.6748H233.5H233V110.211H233.5ZM233.5 94.6748V94.1748H203.5V94.6748V95.1748H233.5V94.6748ZM203.5 94.6748H203V121.236H203.5H204V94.6748H203.5ZM203.5 121.236V120.736H200V121.236V121.736H203.5V121.236ZM200 121.236H199.5V128.252H200H200.5V121.236H200ZM200 128.252V128.752H203.5V128.252V127.752H200V128.252ZM203.5 128.252H203V153.811H203.5H204V128.252H203.5ZM203.5 153.811V154.311H210.5V153.811V153.311H203.5V153.811ZM210.5 153.811H211V146.794H210.5H210V153.811H210.5ZM210.5 146.794V147.294H264.5V146.794V146.294H210.5V146.794ZM264.5 146.794H264V177.364H264.5H265V146.794H264.5ZM264.5 177.364V176.864H256.5V177.364V177.864H264.5V177.364ZM256.5 177.364H256V206H256.5H257V177.364H256.5ZM256.5 206V206.5H281.5V206V205.5H256.5V206ZM151 259.051H151.5V232.991H151H150.5V259.051H151ZM151 232.991V233.491H195.5V232.991V232.491H151V232.991ZM195.5 232.991H196V192.398H195.5H195V232.991H195.5ZM195.5 192.398V191.898H158V192.398V192.898H195.5V192.398ZM158 192.398H158.5V138.776H158H157.5V192.398H158ZM158 138.776V139.276H173V138.776V138.276H158V138.776ZM173 138.776H173.5V128.252H173H172.5V138.776H173ZM173 128.252V128.752H176.5V128.252V127.752H173V128.252ZM176.5 128.252H177V121.236H176.5H176V128.252H176.5ZM176.5 121.236V120.736H173V121.236V121.736H176.5V121.236ZM173 121.236H173.5V110.211H173H172.5V121.236H173ZM173 110.211V109.711H129V110.211V110.711H173V110.211ZM129 110.211H128.5V192.398H129H129.5V110.211H129ZM129 192.398V191.898H62V192.398V192.898H129V192.398ZM62 192.398H61.5V206.431H62H62.5V192.398H62ZM62 206.431L61.6401 206.778L76.1401 221.812L76.5 221.465L76.8599 221.118L62.3599 206.084L62 206.431ZM76.5 221.465V221.965H92V221.465V220.965H76.5V221.465ZM92 221.465H91.5V225.475H92H92.5V221.465H92ZM92 225.475V225.975H94.5V225.475V224.975H92V225.475ZM94.5 225.475H95V221.465H94.5H94V225.475H94.5ZM94.5 221.465V221.965H129V221.465V220.965H94.5V221.465ZM129 221.465H128.5V259.051H129H129.5V221.465H129ZM129 259.051V259.551H151V259.051V258.551H129V259.051ZM224.5 326.706H225V267.57H224.5H224V326.706H224.5ZM224.5 267.57L224.724 267.123L221.724 265.62L221.5 266.067L221.276 266.514L224.276 268.017L224.5 267.57ZM221.5 266.067H222V253.037H221.5H221V266.067H221.5ZM221.5 253.037L221.778 253.453L224.778 251.448L224.5 251.032L224.222 250.617L221.222 252.621L221.5 253.037ZM224.5 251.032H225V191.396H224.5H224V251.032H224.5ZM224.5 191.396V191.896H233V191.396V190.896H224.5V191.396ZM233 191.396H233.5V177.364H233H232.5V191.396H233ZM233 177.364V176.864H211.5V177.364V177.864H233V177.364ZM211.5 177.364H211V203.424H211.5H212V177.364H211.5ZM211.5 203.424L211.066 203.671L213.066 207.179L213.5 206.932L213.934 206.684L211.934 203.176L211.5 203.424ZM213.5 206.932L213.084 206.655L211.084 209.662L211.5 209.938L211.916 210.215L213.916 207.209L213.5 206.932ZM211.5 209.938H211V222.468H211.5H212V209.938H211.5ZM211.5 222.468L211.066 222.715L213.066 226.223L213.5 225.976L213.934 225.728L211.934 222.22L211.5 222.468ZM213.5 225.976L213.084 225.699L211.084 228.706L211.5 228.982L211.916 229.259L213.916 226.252L213.5 225.976ZM211.5 228.982H211V241.511H211.5H212V228.982H211.5ZM211.5 241.511L211.084 241.788L213.084 244.794L213.5 244.518L213.916 244.241L211.916 241.234L211.5 241.511ZM213.5 244.518L213.084 244.241L211.084 247.248L211.5 247.524L211.916 247.801L213.916 244.794L213.5 244.518ZM211.5 247.524H211V260.555H211.5H212V247.524H211.5ZM211.5 260.555V260.055H195.5V260.555V261.055H211.5V260.555ZM195.5 260.555H196V241.511H195.5H195V260.555H195.5ZM195.5 241.511V241.011H174V241.511V242.011H195.5V241.511ZM174 241.511H173.5V267.57H174H174.5V241.511H174ZM174 267.57V267.07H114V267.57V268.07H174V267.57ZM114 267.57H113.5V304.154H114H114.5V267.57H114ZM114 304.154V304.654H182V304.154V303.654H114V304.154ZM182 304.154L182.421 304.424L199.421 277.863L199 277.594L198.579 277.324L181.579 303.885L182 304.154ZM199 277.594V278.094H210V277.594V277.094H199V277.594ZM210 277.594L209.553 277.817L211.053 280.824L211.5 280.601L211.947 280.377L210.447 277.371L210 277.594ZM211.5 280.601H211V326.706H211.5H212V280.601H211.5ZM211.5 326.706V327.206H224.5V326.706V326.206H211.5V326.706ZM309 296.637H309.5V282.604H309H308.5V296.637H309ZM309 282.604V282.104H300.5V282.604V283.104H309V282.604ZM300.5 282.604H301V251.5H300.5H300V282.604H300.5ZM300.5 251.5V252H383V251.5V251H300.5V251.5ZM383 251.5H383.5V188.891H383H382.5V251.5H383ZM383 188.891V188.391H368.5V188.891V189.391H383V188.891ZM368.5 188.891H368V195.906H368.5H369V188.891H368.5ZM368.5 195.906V195.406H297.5V195.906V196.406H368.5V195.906ZM297.5 195.906H297V222.5H297.5H298V195.906H297.5ZM297.5 222.5V222H256V222.5V223H297.5V222.5ZM256 222.5H255.5V296.637H256H256.5V222.5H256ZM256 296.637V297.137H309V296.637V296.137H256V296.637ZM46 266.568H46.5V238.003H46H45.5V266.568H46ZM46 238.003V237.503H17.5V238.003V238.503H46V238.003ZM17.5 238.003H17V266.568H17.5H18V238.003H17.5ZM17.5 266.568V267.068H46V266.568V266.068H17.5V266.568ZM98 334.223H98.5V267.57H98H97.5V334.223H98ZM98 267.57L98.487 267.457L94.987 252.423L94.5 252.536L94.013 252.65L97.513 267.684L98 267.57ZM94.5 252.536H95V248.527H94.5H94V252.536H94.5ZM94.5 248.527V248.027H92V248.527V249.027H94.5V248.527ZM92 248.527H91.5V305.156H92H92.5V248.527H92ZM92 305.156V304.656H54.5V305.156V305.656H92V305.156ZM54.5 305.156H54V334.223H54.5H55V305.156H54.5ZM54.5 334.223V334.723H98V334.223V333.723H54.5V334.223ZM354.5 330.214H355V309H354.5H354V330.214H354.5ZM354.5 309L354.854 308.646L346.354 300.146L346 300.5L345.646 300.854L354.146 309.354L354.5 309ZM346 300.5H346.5V275.5H346H345.5V300.5H346ZM346 275.5V275H324V275.5V276H346V275.5ZM324 275.5H323.5V330.214H324H324.5V275.5H324ZM324 330.214V330.714H354.5V330.214V329.714H324V330.214ZM271.5 386.342L271.867 386.682L278.367 379.666L278 379.326L277.633 378.986L271.133 386.002L271.5 386.342ZM278 379.326H278.5V312.173H278H277.5V379.326H278ZM278 312.173V311.673H241.5V312.173V312.673H278V312.173ZM241.5 312.173H241V349.759H241.5H242V312.173H241.5ZM241.5 349.759V349.259H196V349.759V350.259H241.5V349.759ZM196 349.759L196.354 349.406L181.354 334.37L181 334.724L180.646 335.077L195.646 350.112L196 349.759ZM181 334.724H181.5V320.19H181H180.5V334.724H181ZM181 320.19V319.69H144V320.19V320.69H181V320.19ZM144 320.19H143.5V386.342H144H144.5V320.19H144ZM144 386.342V386.842H271.5V386.342V385.842H144V386.342Z" fill="#B27C40"/>
<path d="M224.5 281.101H211.5M195.5 283V260.053M113 379.326C112.6 379.326 88.8333 379.326 77 379.326V365.294M372 125.245H376.5M418 165.5V172.5H411V165.5M256 244.518H241V237.502H256M277 379.827L282 385.34L277.5 389.85L272.5 385.34M221.5 326.706V334.223H214.5V326.706M31 365.795V357.777M31 357.777H15.5M31 357.777V349.758H15.5M0.5 213.948H16.5V205.929M0.5 205.929V192.399H2M181 177.364V169.346H173M113 180.371V173.355M69 192.399V184.881H62V192.399M72 216.454L66 222.467L61 217.456L66.5 211.442M333.5 101.5L344.5 90.4999L339 85.6545L328 96.1786M309 296.136V307.662H302V296.637M383 247.525V259.5H375.5V251.5M443.5 225.474V197H415V225.474H443.5ZM402 165.337H357.5V162.5V159.323V158.5H360.5V162.5H402V165.337ZM357.5 150.302V124.5H360.5V150.302H357.5Z" stroke="#B27C40"/>
<path d="M427 165.5H399.5M357.5 159.323V149.3M334.5 146.293V161.5H326.5M319 161.5H326.5M319 164.836H326.5V161.5M309 172.353V195.405M210.5 149.801H218V146.293M210.5 153.309V161.829H203.5V153.309M173 161.829V177.5H211.5M252.5 237V232.991M256 228.982H252.5V232.991M252.5 232.991H249V237M249.5 417.413C247.9 417.413 227.833 417.413 218 417.413M242.5 454.999V449.486H230V454.999M208.5 454.999V449.486H196V454.999M180.5 454.999V449.486H168.5V454.999M161.5 454.999V449.987H157.5M113 409.896H158M151 385.841V390.351M144 385.841V394.36H151V390.351M151 390.351H155V385.841M297.5 172.353V195.405" stroke="#B27C40" stroke-width="0.5"/>
<path d="M354 308.163H425.5V292.628H420.5V285.612V285M451 308.163H432V292.628H435V248.026H420.5V270.076V271M420.5 285H414.5V278M420.5 285V278M414.5 278H420.5M414.5 278H406.5V271H420.5M420.5 278V271M370 287.5L375 292.628L380 288L375 282.5L372.5 285M370 287.5L367.5 289.5L362 285L367.5 280L372.5 285M370 287.5L372.5 285" stroke="#B27C40"/>
<path d="M128 379.326H129.5M142.5 379.326H144M128 350.259H130M142.5 350.259H144M98 304.154H100M112.5 304.154H114" stroke="#B27C40"/>
<path d="M125 304.154V307.662H121M121 307.662V304.154M121 307.662V311.671H114V304.154M46 266.568H68.5V281.602H24V266.568" stroke="#B27C40" stroke-width="0.5"/>
<path d="M68.5 266.568C68.5 265.766 68.5 261.891 68.5 260.053H61M53.5 260.053V266.568M53.5 260.053H61M53.5 260.053V256.545M46 252.035H53.5V256.545M61 260.053V256.545H53.5M92 248.026V225.474M113 192.399V132.261M102.5 87.6592V93.6729H117.5V87.6592M102.5 87.6592V83.1489H117.5V87.158V87.6592M102.5 87.6592H117.5M50 145.291V161.328H46M8 161.328H28M46 161.328V145.291M46 161.328H35M35 161.328V158.822H28V161.328M35 161.328H28" stroke="#B27C40" stroke-width="0.5"/>
<path d="M233.5 64.1054V94.6753M392.5 81H387.5V68H378V63.1031" stroke="#B27C40" stroke-width="0.5"/>
<path d="M398.5 278H415V285H420V293H424.5V293.133H425V307.662H432V293.133H435V286H428V260H440.5V315H398.5V278Z" fill="#F08234" fill-opacity="0.23"/>
<path d="M406.789 298.97V290.97H409.852C410.43 290.97 410.91 291.061 411.293 291.244C411.678 291.423 411.966 291.669 412.156 291.982C412.349 292.294 412.445 292.649 412.445 293.044C412.445 293.37 412.383 293.649 412.258 293.88C412.133 294.11 411.965 294.296 411.754 294.439C411.543 294.582 411.307 294.685 411.047 294.748V294.826C411.331 294.841 411.603 294.929 411.863 295.087C412.126 295.244 412.341 295.465 412.508 295.751C412.674 296.038 412.758 296.384 412.758 296.791C412.758 297.205 412.658 297.577 412.457 297.908C412.257 298.236 411.954 298.495 411.551 298.685C411.147 298.875 410.639 298.97 410.027 298.97H406.789ZM408.238 297.759H409.797C410.323 297.759 410.702 297.659 410.934 297.458C411.168 297.255 411.285 296.995 411.285 296.677C411.285 296.44 411.227 296.227 411.109 296.037C410.992 295.844 410.826 295.693 410.609 295.583C410.393 295.472 410.135 295.416 409.836 295.416H408.238V297.759ZM408.238 294.373H409.672C409.922 294.373 410.147 294.327 410.348 294.236C410.548 294.142 410.706 294.011 410.82 293.841C410.938 293.669 410.996 293.466 410.996 293.232C410.996 292.922 410.887 292.667 410.668 292.466C410.452 292.266 410.13 292.166 409.703 292.166H408.238V294.373Z" fill="white"/>
<path d="M8 297.639H1.5V266.568H8V297.639Z" fill="#F08234" fill-opacity="0.23"/>
<path d="M8 244.518H17V266.568H23.7568V281.846H68.7568V266.568H68.7461V259.812H45.5V259.797H61.2441V256.317H45.5V256.305H53.7334V251.793H45.5V244.518H76V297.639H8V244.518Z" fill="#F08234" fill-opacity="0.23"/>
<path d="M51.1836 295.609H52.7305L49.9141 287.609H48.125L45.3047 295.609H46.8516L48.9883 289.25H49.0508L51.1836 295.609ZM51.1328 292.473H46.9141V293.637H51.1328V292.473Z" fill="white"/>
<path d="M445.5 315.5H398V308M435 286.5H427.5V259.5H435" stroke="#B27C40" stroke-opacity="0.23"/>
<path d="M451 309H446V316" stroke="#B27C40"/>
</svg>
