<svg width="411" height="474" viewBox="0 0 411 474" fill="none" xmlns="http://www.w3.org/2000/svg">
<path fill-rule="evenodd" clip-rule="evenodd" d="M410.5 323V370.5H383.737V364.5H381.5V377.5H295.856V380.5H302V407H216.5V455.5H157.5V407.5H153.5V413H134V407.5H85V367H16V271.5H40.5V255.5H1V235.5H22.5V242.5H32.5V235.5H98V232.5H86.5V143.5H126V159H127.5V124H121V90H148V81H221L223.5 69.5V33.5H240.5L251.5 18.5H269.5V68L270 73.5L274.5 69H299V179.5H347.5V245.203H342V247.5H345.5V298.5H295.729V301.77H381.5V329H383.5V323H410.5ZM225 344V351H260V344.5H262.5V358.38H279V377.5H282.5V380.5H266V390.5H253V380.5H190.5V379H216.5V348H223.5V344H225ZM116.5 348V349.5H124.5V367.5H102V366H101V390H134V348H116.5ZM88 294.5H92V302H107.5V304.5H102.5V309H98V327.5L104.5 337V348H109.261V349.5H64.5H58.5V348H82V305H88V294.5ZM167 173H121V232.5H110V235.5H114.5V265.5H97.5V255.5H57V271.5H88V282H91.5V275H131V268.5H124.5V242.312H151V252H167V173ZM279 222.5V133.5H233V136.5H197V124H144.5V150H197V199.5L204 206.5H239.5V222.5H241.5V209H266V222.5H279ZM118.5 304.5V302H148V275H140.843V268.5H187V270H206.5V271.5H187V298.5H200.305V317.796H183.5V341.5H196.5L202.5 347V354.5L197 360.5H170V379H176.5V380.5H157.5V390H153.5V331H127.5V304.5H118.5ZM325 247H329V245H295.172V235.671H276V245H241.5V232.5H239.5V270H220V271.5H239.5V298.5H223.5V328.5H225V322L236 311H260V334H262.5V316H273V306.5L277.5 302H282.5V298.5H269.5V265.206H305.5V275.5H325V247ZM384 335.5H381.5V358H384V335.5Z" fill="#271406"/>
<path d="M410.5 370.5V371H411V370.5H410.5ZM410.5 323H411V322.5H410.5V323ZM383.737 370.5H383.237V371H383.737V370.5ZM383.737 364.5H384.237V364H383.737V364.5ZM381.5 364.5V364H381V364.5H381.5ZM381.5 377.5V378H382V377.5H381.5ZM295.856 377.5V377H295.356V377.5H295.856ZM295.856 380.5H295.356V381H295.856V380.5ZM302 380.5H302.5V380H302V380.5ZM302 407V407.5H302.5V407H302ZM216.5 407V406.5H216V407H216.5ZM216.5 455.5V456H217V455.5H216.5ZM157.5 455.5H157V456H157.5V455.5ZM157.5 407.5H158V407H157.5V407.5ZM153.5 407.5V407H153V407.5H153.5ZM153.5 413V413.5H154V413H153.5ZM134 413H133.5V413.5H134V413ZM134 407.5H134.5V407H134V407.5ZM85 407.5H84.5V408H85V407.5ZM85 367H85.5V366.5H85V367ZM16 367H15.5V367.5H16V367ZM16 271.5V271H15.5V271.5H16ZM40.5 271.5V272H41V271.5H40.5ZM40.5 255.5H41V255H40.5V255.5ZM1 255.5H0.5V256H1V255.5ZM1 235.5V235H0.5V235.5H1ZM22.5 235.5H23V235H22.5V235.5ZM22.5 242.5H22V243H22.5V242.5ZM32.5 242.5V243H33V242.5H32.5ZM32.5 235.5V235H32V235.5H32.5ZM98 235.5V236H98.5V235.5H98ZM98 232.5H98.5V232H98V232.5ZM86.5 232.5H86V233H86.5V232.5ZM86.5 143.5V143H86V143.5H86.5ZM126 143.5H126.5V143H126V143.5ZM126 159H125.5V159.5H126V159ZM127.5 159V159.5H128V159H127.5ZM127.5 124H128V123.5H127.5V124ZM121 124H120.5V124.5H121V124ZM121 90V89.5H120.5V90H121ZM148 90V90.5H148.5V90H148ZM148 81V80.5H147.5V81H148ZM221 81V81.5H221.403L221.489 81.1062L221 81ZM223.5 69.5L223.989 69.6062L224 69.5537V69.5H223.5ZM223.5 33.5V33H223V33.5H223.5ZM240.5 33.5V34H240.753L240.903 33.7957L240.5 33.5ZM251.5 18.5V18H251.247L251.097 18.2043L251.5 18.5ZM269.5 18.5H270V18H269.5V18.5ZM269.5 68H269V68.0227L269.002 68.0453L269.5 68ZM270 73.5L269.502 73.5453L269.599 74.6084L270.354 73.8535L270 73.5ZM274.5 69V68.5H274.293L274.146 68.6465L274.5 69ZM299 69H299.5V68.5H299V69ZM299 179.5H298.5V180H299V179.5ZM347.5 179.5H348V179H347.5V179.5ZM347.5 245.203V245.703H348V245.203H347.5ZM342 245.203V244.703H341.5V245.203H342ZM342 247.5H341.5V248H342V247.5ZM345.5 247.5H346V247H345.5V247.5ZM345.5 298.5V299H346V298.5H345.5ZM295.729 298.5V298H295.229V298.5H295.729ZM295.729 301.77H295.229V302.27H295.729V301.77ZM381.5 301.77H382V301.27H381.5V301.77ZM381.5 329H381V329.5H381.5V329ZM383.5 329V329.5H384V329H383.5ZM383.5 323V322.5H383V323H383.5ZM225 351H224.5V351.5H225V351ZM225 344H225.5V343.5H225V344ZM260 351V351.5H260.5V351H260ZM260 344.5V344H259.5V344.5H260ZM262.5 344.5H263V344H262.5V344.5ZM262.5 358.38H262V358.88H262.5V358.38ZM279 358.38H279.5V357.88H279V358.38ZM279 377.5H278.5V378H279V377.5ZM282.5 377.5H283V377H282.5V377.5ZM282.5 380.5V381H283V380.5H282.5ZM266 380.5V380H265.5V380.5H266ZM266 390.5V391H266.5V390.5H266ZM253 390.5H252.5V391H253V390.5ZM253 380.5H253.5V380H253V380.5ZM190.5 380.5H190V381H190.5V380.5ZM190.5 379V378.5H190V379H190.5ZM216.5 379V379.5H217V379H216.5ZM216.5 348V347.5H216V348H216.5ZM223.5 348V348.5H224V348H223.5ZM223.5 344V343.5H223V344H223.5ZM116.5 349.5H116V350H116.5V349.5ZM116.5 348V347.5H116V348H116.5ZM124.5 349.5H125V349H124.5V349.5ZM124.5 367.5V368H125V367.5H124.5ZM102 367.5H101.5V368H102V367.5ZM102 366H102.5V365.5H102V366ZM101 366V365.5H100.5V366H101ZM101 390H100.5V390.5H101V390ZM134 390V390.5H134.5V390H134ZM134 348H134.5V347.5H134V348ZM92 294.5H92.5V294H92V294.5ZM88 294.5V294H87.5V294.5H88ZM92 302H91.5V302.5H92V302ZM107.5 302H108V301.5H107.5V302ZM107.5 304.5V305H108V304.5H107.5ZM102.5 304.5V304H102V304.5H102.5ZM102.5 309V309.5H103V309H102.5ZM98 309V308.5H97.5V309H98ZM98 327.5H97.5V327.655L97.5873 327.782L98 327.5ZM104.5 337H105V336.845L104.913 336.718L104.5 337ZM104.5 348H104V348.5H104.5V348ZM109.261 348H109.761V347.5H109.261V348ZM109.261 349.5V350H109.761V349.5H109.261ZM58.5 349.5H58V350H58.5V349.5ZM58.5 348V347.5H58V348H58.5ZM82 348V348.5H82.5V348H82ZM82 305V304.5H81.5V305H82ZM88 305V305.5H88.5V305H88ZM121 173V172.5H120.5V173H121ZM167 173H167.5V172.5H167V173ZM121 232.5V233H121.5V232.5H121ZM110 232.5V232H109.5V232.5H110ZM110 235.5H109.5V236H110V235.5ZM114.5 235.5H115V235H114.5V235.5ZM114.5 265.5V266H115V265.5H114.5ZM97.5 265.5H97V266H97.5V265.5ZM97.5 255.5H98V255H97.5V255.5ZM57 255.5V255H56.5V255.5H57ZM57 271.5H56.5V272H57V271.5ZM88 271.5H88.5V271H88V271.5ZM88 282H87.5V282.5H88V282ZM91.5 282V282.5H92V282H91.5ZM91.5 275V274.5H91V275H91.5ZM131 275V275.5H131.5V275H131ZM131 268.5H131.5V268H131V268.5ZM124.5 268.5H124V269H124.5V268.5ZM124.5 242.312V241.812H124V242.312H124.5ZM151 242.312H151.5V241.812H151V242.312ZM151 252H150.5V252.5H151V252ZM167 252V252.5H167.5V252H167ZM279 133.5H279.5V133H279V133.5ZM279 222.5V223H279.5V222.5H279ZM233 133.5V133H232.5V133.5H233ZM233 136.5V137H233.5V136.5H233ZM197 136.5H196.5V137H197V136.5ZM197 124H197.5V123.5H197V124ZM144.5 124V123.5H144V124H144.5ZM144.5 150H144V150.5H144.5V150ZM197 150H197.5V149.5H197V150ZM197 199.5H196.5V199.707L196.646 199.854L197 199.5ZM204 206.5L203.646 206.854L203.793 207H204V206.5ZM239.5 206.5H240V206H239.5V206.5ZM239.5 222.5H239V223H239.5V222.5ZM241.5 222.5V223H242V222.5H241.5ZM241.5 209V208.5H241V209H241.5ZM266 209H266.5V208.5H266V209ZM266 222.5H265.5V223H266V222.5ZM118.5 302V301.5H118V302H118.5ZM118.5 304.5H118V305H118.5V304.5ZM148 302V302.5H148.5V302H148ZM148 275H148.5V274.5H148V275ZM140.843 275H140.343V275.5H140.843V275ZM140.843 268.5V268H140.343V268.5H140.843ZM187 268.5H187.5V268H187V268.5ZM187 270H186.5V270.5H187V270ZM206.5 270H207V269.5H206.5V270ZM206.5 271.5V272H207V271.5H206.5ZM187 271.5V271H186.5V271.5H187ZM187 298.5H186.5V299H187V298.5ZM200.305 298.5H200.805V298H200.305V298.5ZM200.305 317.796V318.296H200.805V317.796H200.305ZM183.5 317.796V317.296H183V317.796H183.5ZM183.5 341.5H183V342H183.5V341.5ZM196.5 341.5L196.838 341.131L196.694 341H196.5V341.5ZM202.5 347H203V346.78L202.838 346.631L202.5 347ZM202.5 354.5L202.869 354.838L203 354.694V354.5H202.5ZM197 360.5V361H197.22L197.369 360.838L197 360.5ZM170 360.5V360H169.5V360.5H170ZM170 379H169.5V379.5H170V379ZM176.5 379H177V378.5H176.5V379ZM176.5 380.5V381H177V380.5H176.5ZM157.5 380.5V380H157V380.5H157.5ZM157.5 390V390.5H158V390H157.5ZM153.5 390H153V390.5H153.5V390ZM153.5 331H154V330.5H153.5V331ZM127.5 331H127V331.5H127.5V331ZM127.5 304.5H128V304H127.5V304.5ZM329 247V247.5H329.5V247H329ZM325 247V246.5H324.5V247H325ZM329 245H329.5V244.5H329V245ZM295.172 245H294.672V245.5H295.172V245ZM295.172 235.671H295.672V235.171H295.172V235.671ZM276 235.671V235.171H275.5V235.671H276ZM276 245V245.5H276.5V245H276ZM241.5 245H241V245.5H241.5V245ZM241.5 232.5H242V232H241.5V232.5ZM239.5 232.5V232H239V232.5H239.5ZM239.5 270V270.5H240V270H239.5ZM220 270V269.5H219.5V270H220ZM220 271.5H219.5V272H220V271.5ZM239.5 271.5H240V271H239.5V271.5ZM239.5 298.5V299H240V298.5H239.5ZM223.5 298.5V298H223V298.5H223.5ZM223.5 328.5H223V329H223.5V328.5ZM225 328.5V329H225.5V328.5H225ZM225 322L224.646 321.646L224.5 321.793V322H225ZM236 311V310.5H235.793L235.646 310.646L236 311ZM260 311H260.5V310.5H260V311ZM260 334H259.5V334.5H260V334ZM262.5 334V334.5H263V334H262.5ZM262.5 316V315.5H262V316H262.5ZM273 316V316.5H273.5V316H273ZM273 306.5L272.646 306.146L272.5 306.293V306.5H273ZM277.5 302V301.5H277.293L277.146 301.646L277.5 302ZM282.5 302V302.5H283V302H282.5ZM282.5 298.5H283V298H282.5V298.5ZM269.5 298.5H269V299H269.5V298.5ZM269.5 265.206V264.706H269V265.206H269.5ZM305.5 265.206H306V264.706H305.5V265.206ZM305.5 275.5H305V276H305.5V275.5ZM325 275.5V276H325.5V275.5H325ZM381.5 335.5V335H381V335.5H381.5ZM384 335.5H384.5V335H384V335.5ZM381.5 358H381V358.5H381.5V358ZM384 358V358.5H384.5V358H384ZM410.5 370.5H411V323H410.5H410V370.5H410.5ZM383.737 370.5V371H410.5V370.5V370H383.737V370.5ZM383.737 364.5H383.237V370.5H383.737H384.237V364.5H383.737ZM381.5 364.5V365H383.737V364.5V364H381.5V364.5ZM381.5 377.5H382V364.5H381.5H381V377.5H381.5ZM295.856 377.5V378H381.5V377.5V377H295.856V377.5ZM295.856 380.5H296.356V377.5H295.856H295.356V380.5H295.856ZM302 380.5V380H295.856V380.5V381H302V380.5ZM302 407H302.5V380.5H302H301.5V407H302ZM216.5 407V407.5H302V407V406.5H216.5V407ZM216.5 455.5H217V407H216.5H216V455.5H216.5ZM157.5 455.5V456H216.5V455.5V455H157.5V455.5ZM157.5 407.5H157V455.5H157.5H158V407.5H157.5ZM153.5 407.5V408H157.5V407.5V407H153.5V407.5ZM153.5 413H154V407.5H153.5H153V413H153.5ZM134 413V413.5H153.5V413V412.5H134V413ZM134 407.5H133.5V413H134H134.5V407.5H134ZM85 407.5V408H134V407.5V407H85V407.5ZM85 367H84.5V407.5H85H85.5V367H85ZM16 367V367.5H85V367V366.5H16V367ZM16 271.5H15.5V367H16H16.5V271.5H16ZM40.5 271.5V271H16V271.5V272H40.5V271.5ZM40.5 255.5H40V271.5H40.5H41V255.5H40.5ZM1 255.5V256H40.5V255.5V255H1V255.5ZM1 235.5H0.5V255.5H1H1.5V235.5H1ZM22.5 235.5V235H1V235.5V236H22.5V235.5ZM22.5 242.5H23V235.5H22.5H22V242.5H22.5ZM32.5 242.5V242H22.5V242.5V243H32.5V242.5ZM32.5 235.5H32V242.5H32.5H33V235.5H32.5ZM98 235.5V235H32.5V235.5V236H98V235.5ZM98 232.5H97.5V235.5H98H98.5V232.5H98ZM86.5 232.5V233H98V232.5V232H86.5V232.5ZM86.5 143.5H86V232.5H86.5H87V143.5H86.5ZM126 143.5V143H86.5V143.5V144H126V143.5ZM126 159H126.5V143.5H126H125.5V159H126ZM127.5 159V158.5H126V159V159.5H127.5V159ZM127.5 124H127V159H127.5H128V124H127.5ZM121 124V124.5H127.5V124V123.5H121V124ZM121 90H120.5V124H121H121.5V90H121ZM148 90V89.5H121V90V90.5H148V90ZM148 81H147.5V90H148H148.5V81H148ZM221 81V80.5H148V81V81.5H221V81ZM223.5 69.5L223.011 69.3938L220.511 80.8938L221 81L221.489 81.1062L223.989 69.6062L223.5 69.5ZM223.5 33.5H223V69.5H223.5H224V33.5H223.5ZM240.5 33.5V33H223.5V33.5V34H240.5V33.5ZM251.5 18.5L251.097 18.2043L240.097 33.2043L240.5 33.5L240.903 33.7957L251.903 18.7957L251.5 18.5ZM269.5 18.5V18H251.5V18.5V19H269.5V18.5ZM269.5 68H270V18.5H269.5H269V68H269.5ZM270 73.5L270.498 73.4547L269.998 67.9547L269.5 68L269.002 68.0453L269.502 73.5453L270 73.5ZM274.5 69L274.146 68.6465L269.646 73.1465L270 73.5L270.354 73.8535L274.854 69.3535L274.5 69ZM299 69V68.5H274.5V69V69.5H299V69ZM299 179.5H299.5V69H299H298.5V179.5H299ZM347.5 179.5V179H299V179.5V180H347.5V179.5ZM347.5 245.203H348V179.5H347.5H347V245.203H347.5ZM342 245.203V245.703H347.5V245.203V244.703H342V245.203ZM342 247.5H342.5V245.203H342H341.5V247.5H342ZM345.5 247.5V247H342V247.5V248H345.5V247.5ZM345.5 298.5H346V247.5H345.5H345V298.5H345.5ZM295.729 298.5V299H345.5V298.5V298H295.729V298.5ZM295.729 301.77H296.229V298.5H295.729H295.229V301.77H295.729ZM381.5 301.77V301.27H295.729V301.77V302.27H381.5V301.77ZM381.5 329H382V301.77H381.5H381V329H381.5ZM383.5 329V328.5H381.5V329V329.5H383.5V329ZM383.5 323H383V329H383.5H384V323H383.5ZM410.5 323V322.5H383.5V323V323.5H410.5V323ZM225 351H225.5V344H225H224.5V351H225ZM260 351V350.5H225V351V351.5H260V351ZM260 344.5H259.5V351H260H260.5V344.5H260ZM262.5 344.5V344H260V344.5V345H262.5V344.5ZM262.5 358.38H263V344.5H262.5H262V358.38H262.5ZM279 358.38V357.88H262.5V358.38V358.88H279V358.38ZM279 377.5H279.5V358.38H279H278.5V377.5H279ZM282.5 377.5V377H279V377.5V378H282.5V377.5ZM282.5 380.5H283V377.5H282.5H282V380.5H282.5ZM266 380.5V381H282.5V380.5V380H266V380.5ZM266 390.5H266.5V380.5H266H265.5V390.5H266ZM253 390.5V391H266V390.5V390H253V390.5ZM253 380.5H252.5V390.5H253H253.5V380.5H253ZM190.5 380.5V381H253V380.5V380H190.5V380.5ZM190.5 379H190V380.5H190.5H191V379H190.5ZM216.5 379V378.5H190.5V379V379.5H216.5V379ZM216.5 348H216V379H216.5H217V348H216.5ZM223.5 348V347.5H216.5V348V348.5H223.5V348ZM223.5 344H223V348H223.5H224V344H223.5ZM225 344V343.5H223.5V344V344.5H225V344ZM116.5 349.5H117V348H116.5H116V349.5H116.5ZM124.5 349.5V349H116.5V349.5V350H124.5V349.5ZM124.5 367.5H125V349.5H124.5H124V367.5H124.5ZM102 367.5V368H124.5V367.5V367H102V367.5ZM102 366H101.5V367.5H102H102.5V366H102ZM101 366V366.5H102V366V365.5H101V366ZM101 390H101.5V366H101H100.5V390H101ZM134 390V389.5H101V390V390.5H134V390ZM134 348H133.5V390H134H134.5V348H134ZM116.5 348V348.5H134V348V347.5H116.5V348ZM92 294.5V294H88V294.5V295H92V294.5ZM92 302H92.5V294.5H92H91.5V302H92ZM107.5 302V301.5H92V302V302.5H107.5V302ZM107.5 304.5H108V302H107.5H107V304.5H107.5ZM102.5 304.5V305H107.5V304.5V304H102.5V304.5ZM102.5 309H103V304.5H102.5H102V309H102.5ZM98 309V309.5H102.5V309V308.5H98V309ZM98 327.5H98.5V309H98H97.5V327.5H98ZM104.5 337L104.913 336.718L98.4127 327.218L98 327.5L97.5873 327.782L104.087 337.282L104.5 337ZM104.5 348H105V337H104.5H104V348H104.5ZM109.261 348V347.5H104.5V348V348.5H109.261V348ZM109.261 349.5H109.761V348H109.261H108.761V349.5H109.261ZM64.5 349.5V350H109.261V349.5V349H64.5V349.5ZM58.5 349.5V350H64.5V349.5V349H58.5V349.5ZM58.5 348H58V349.5H58.5H59V348H58.5ZM82 348V347.5H58.5V348V348.5H82V348ZM82 305H81.5V348H82H82.5V305H82ZM88 305V304.5H82V305V305.5H88V305ZM88 294.5H87.5V305H88H88.5V294.5H88ZM121 173V173.5H167V173V172.5H121V173ZM121 232.5H121.5V173H121H120.5V232.5H121ZM110 232.5V233H121V232.5V232H110V232.5ZM110 235.5H110.5V232.5H110H109.5V235.5H110ZM114.5 235.5V235H110V235.5V236H114.5V235.5ZM114.5 265.5H115V235.5H114.5H114V265.5H114.5ZM97.5 265.5V266H114.5V265.5V265H97.5V265.5ZM97.5 255.5H97V265.5H97.5H98V255.5H97.5ZM57 255.5V256H97.5V255.5V255H57V255.5ZM57 271.5H57.5V255.5H57H56.5V271.5H57ZM88 271.5V271H57V271.5V272H88V271.5ZM88 282H88.5V271.5H88H87.5V282H88ZM91.5 282V281.5H88V282V282.5H91.5V282ZM91.5 275H91V282H91.5H92V275H91.5ZM131 275V274.5H91.5V275V275.5H131V275ZM131 268.5H130.5V275H131H131.5V268.5H131ZM124.5 268.5V269H131V268.5V268H124.5V268.5ZM124.5 242.312H124V268.5H124.5H125V242.312H124.5ZM151 242.312V241.812H124.5V242.312V242.812H151V242.312ZM151 252H151.5V242.312H151H150.5V252H151ZM167 252V251.5H151V252V252.5H167V252ZM167 173H166.5V252H167H167.5V173H167ZM279 133.5H278.5V222.5H279H279.5V133.5H279ZM233 133.5V134H279V133.5V133H233V133.5ZM233 136.5H233.5V133.5H233H232.5V136.5H233ZM197 136.5V137H233V136.5V136H197V136.5ZM197 124H196.5V136.5H197H197.5V124H197ZM144.5 124V124.5H197V124V123.5H144.5V124ZM144.5 150H145V124H144.5H144V150H144.5ZM197 150V149.5H144.5V150V150.5H197V150ZM197 199.5H197.5V150H197H196.5V199.5H197ZM204 206.5L204.354 206.146L197.354 199.146L197 199.5L196.646 199.854L203.646 206.854L204 206.5ZM239.5 206.5V206H204V206.5V207H239.5V206.5ZM239.5 222.5H240V206.5H239.5H239V222.5H239.5ZM241.5 222.5V222H239.5V222.5V223H241.5V222.5ZM241.5 209H241V222.5H241.5H242V209H241.5ZM266 209V208.5H241.5V209V209.5H266V209ZM266 222.5H266.5V209H266H265.5V222.5H266ZM279 222.5V222H266V222.5V223H279V222.5ZM118.5 302H118V304.5H118.5H119V302H118.5ZM148 302V301.5H118.5V302V302.5H148V302ZM148 275H147.5V302H148H148.5V275H148ZM140.843 275V275.5H148V275V274.5H140.843V275ZM140.843 268.5H140.343V275H140.843H141.343V268.5H140.843ZM187 268.5V268H140.843V268.5V269H187V268.5ZM187 270H187.5V268.5H187H186.5V270H187ZM206.5 270V269.5H187V270V270.5H206.5V270ZM206.5 271.5H207V270H206.5H206V271.5H206.5ZM187 271.5V272H206.5V271.5V271H187V271.5ZM187 298.5H187.5V271.5H187H186.5V298.5H187ZM200.305 298.5V298H187V298.5V299H200.305V298.5ZM200.305 317.796H200.805V298.5H200.305H199.805V317.796H200.305ZM183.5 317.796V318.296H200.305V317.796V317.296H183.5V317.796ZM183.5 341.5H184V317.796H183.5H183V341.5H183.5ZM196.5 341.5V341H183.5V341.5V342H196.5V341.5ZM202.5 347L202.838 346.631L196.838 341.131L196.5 341.5L196.162 341.869L202.162 347.369L202.5 347ZM202.5 354.5H203V347H202.5H202V354.5H202.5ZM197 360.5L197.369 360.838L202.869 354.838L202.5 354.5L202.131 354.162L196.631 360.162L197 360.5ZM170 360.5V361H197V360.5V360H170V360.5ZM170 379H170.5V360.5H170H169.5V379H170ZM176.5 379V378.5H170V379V379.5H176.5V379ZM176.5 380.5H177V379H176.5H176V380.5H176.5ZM157.5 380.5V381H176.5V380.5V380H157.5V380.5ZM157.5 390H158V380.5H157.5H157V390H157.5ZM153.5 390V390.5H157.5V390V389.5H153.5V390ZM153.5 331H153V390H153.5H154V331H153.5ZM127.5 331V331.5H153.5V331V330.5H127.5V331ZM127.5 304.5H127V331H127.5H128V304.5H127.5ZM118.5 304.5V305H127.5V304.5V304H118.5V304.5ZM329 247V246.5H325V247V247.5H329V247ZM329 245H328.5V247H329H329.5V245H329ZM295.172 245V245.5H329V245V244.5H295.172V245ZM295.172 235.671H294.672V245H295.172H295.672V235.671H295.172ZM276 235.671V236.171H295.172V235.671V235.171H276V235.671ZM276 245H276.5V235.671H276H275.5V245H276ZM241.5 245V245.5H276V245V244.5H241.5V245ZM241.5 232.5H241V245H241.5H242V232.5H241.5ZM239.5 232.5V233H241.5V232.5V232H239.5V232.5ZM239.5 270H240V232.5H239.5H239V270H239.5ZM220 270V270.5H239.5V270V269.5H220V270ZM220 271.5H220.5V270H220H219.5V271.5H220ZM239.5 271.5V271H220V271.5V272H239.5V271.5ZM239.5 298.5H240V271.5H239.5H239V298.5H239.5ZM223.5 298.5V299H239.5V298.5V298H223.5V298.5ZM223.5 328.5H224V298.5H223.5H223V328.5H223.5ZM225 328.5V328H223.5V328.5V329H225V328.5ZM225 322H224.5V328.5H225H225.5V322H225ZM236 311L235.646 310.646L224.646 321.646L225 322L225.354 322.354L236.354 311.354L236 311ZM260 311V310.5H236V311V311.5H260V311ZM260 334H260.5V311H260H259.5V334H260ZM262.5 334V333.5H260V334V334.5H262.5V334ZM262.5 316H262V334H262.5H263V316H262.5ZM273 316V315.5H262.5V316V316.5H273V316ZM273 306.5H272.5V316H273H273.5V306.5H273ZM277.5 302L277.146 301.646L272.646 306.146L273 306.5L273.354 306.854L277.854 302.354L277.5 302ZM282.5 302V301.5H277.5V302V302.5H282.5V302ZM282.5 298.5H282V302H282.5H283V298.5H282.5ZM269.5 298.5V299H282.5V298.5V298H269.5V298.5ZM269.5 265.206H269V298.5H269.5H270V265.206H269.5ZM305.5 265.206V264.706H269.5V265.206V265.706H305.5V265.206ZM305.5 275.5H306V265.206H305.5H305V275.5H305.5ZM325 275.5V275H305.5V275.5V276H325V275.5ZM325 247H324.5V275.5H325H325.5V247H325ZM381.5 335.5V336H384V335.5V335H381.5V335.5ZM381.5 358H382V335.5H381.5H381V358H381.5ZM384 358V357.5H381.5V358V358.5H384V358ZM384 335.5H383.5V358H384H384.5V335.5H384Z" fill="#B27C40"/>
<path d="M86.5 186.5H93V183.5M93 180H86.5M93 180H96.5V183.5H93M93 180V183.5M121 199.5H115V205.5H121M29 271.5V285H22.5M16 285H22.5M22.5 271.5V285M16 308H23V315H16M39 325H45V331H39V329M39 325V323.5H33V329H39M39 325V329M16 351H23V357.5H16M122 304.5V324.5M104.5 304.5V324.5M178.5 268.5V262H172.5V268.5M253 390.5H216M309 363H325V324M325 315.5H309M325 315.5V322M325 315.5H331.5M358 341.5L354 345.5L352 343.5M358 341.5L358.5 341L356.5 339M358 341.5V347H352V343.5M352 343.5L349.5 341L350.5 340M350.5 340L354 336.5L356.5 339M350.5 340V335H356.5V339M348 377.5V371H342V377.5M383.5 329H385L389.5 324.5V323M335 298.5V292H332M328.5 292V298.5M328.5 292H332M328.5 292V288H332V292M347.5 219.5H335V206H347.5M270 348.5H278.5V326H273M262.5 326H273M273 326V324H262.5M338 315.5H331.5M239.5 278H233.5V271.5M229.5 270V264H223.5V270M216.5 206.5V212.5H210.5V206.5M167 173V166.5H160.5V173M197 166.5H190.5V172.5H197M134 354.5H141V348H134M183.5 328.5H187V325.5M187 325.5H183.5M187 325.5H191V318M325 322V324M325 322H330.5M331.5 315.5V322H330.5M325 324H330.5V322M148 90H160V81.5M58 348H26M26 348H22.5M26 348V345H22.5M22.5 348H16M22.5 348V345M16 341.5H22.5V345M280.5 69L283.5 72V78L280 81.5H274.5L271 78V72.5M102 349.5V351H101V349.5M72 334V315H65.5V334H72ZM311.5 351L315 346.5V328.5H308V346.5L311.5 351ZM140 109.5H133V103H140V109.5Z" stroke="#B27C40"/>
<path d="M58.5 291V305H82M41 291V305H16M119.5 347.5V341.5H109M104.5 341.5H109M109 341.5V337.5H104.5M93 232.5V226H86.5M86.5 228H91V232.5M337.5 315.5H381.5M231 271.5V274H224V271.5" stroke="#B27C40" stroke-width="0.5"/>
<path d="M190.5 172.751H178.5V219.5M196.5 173.724H180V218M178.752 235.52V261.52M180 268V237" stroke="#B27C40" stroke-width="0.5"/>
<path d="M178.25 219.5H184.5M179.75 218H184.5M178.5 235.5H184.5M179.753 237H184.5M190.5 235.5H197V237H190.5M190.5 235.5V237M190.5 235.5H184.5M190.5 237H184.5M184.5 235.5V237M190.5 219.5H197V218H190.5M190.5 219.5V218M190.5 219.5H184.5M190.5 218H184.5M184.5 218V219.5" stroke="#B27C40" stroke-width="0.5"/>
<circle cx="247" cy="108" r="3.5" transform="rotate(180 247 108)" stroke="#B27C40"/>
<circle cx="247" cy="108" r="3.5" transform="rotate(180 247 108)" stroke="#B27C40"/>
<circle cx="214" cy="228" r="3.5" transform="rotate(180 214 228)" stroke="#B27C40"/>
<circle cx="214" cy="228" r="3.5" transform="rotate(180 214 228)" stroke="#B27C40"/>
<circle cx="187" cy="415" r="3.5" transform="rotate(180 187 415)" stroke="#B27C40"/>
<circle cx="187" cy="415" r="3.5" transform="rotate(180 187 415)" stroke="#B27C40"/>
<path d="M148 296H144.5L142 298.5V302M245.5 245V243.5L244 241H241.5M4.5 255.5V254L3 252.5H1" stroke="#B27C40" stroke-width="0.5"/>
<path d="M325 324.5H331V322.5H332V315.753H381V377H348.5V370.5H341.5V377H325V324.5ZM358 341L356 339V335H350V341L352 343V347H358V341Z" fill="#F08234" fill-opacity="0.23"/>
<path d="M351.789 359V351H354.852C355.43 351 355.91 351.091 356.293 351.273C356.678 351.453 356.966 351.699 357.156 352.012C357.349 352.324 357.445 352.678 357.445 353.074C357.445 353.4 357.383 353.678 357.258 353.91C357.133 354.139 356.965 354.326 356.754 354.469C356.543 354.612 356.307 354.715 356.047 354.777V354.855C356.331 354.871 356.603 354.958 356.863 355.117C357.126 355.273 357.341 355.495 357.508 355.781C357.674 356.068 357.758 356.414 357.758 356.82C357.758 357.234 357.658 357.607 357.457 357.937C357.257 358.266 356.954 358.525 356.551 358.715C356.147 358.905 355.639 359 355.027 359H351.789ZM353.238 357.789H354.797C355.323 357.789 355.702 357.689 355.934 357.488C356.168 357.285 356.285 357.025 356.285 356.707C356.285 356.47 356.227 356.257 356.109 356.066C355.992 355.874 355.826 355.723 355.609 355.613C355.393 355.501 355.135 355.445 354.836 355.445H353.238V357.789ZM353.238 354.402H354.672C354.922 354.402 355.147 354.357 355.348 354.266C355.548 354.172 355.706 354.04 355.82 353.871C355.938 353.699 355.996 353.496 355.996 353.262C355.996 352.952 355.887 352.697 355.668 352.496C355.452 352.296 355.13 352.195 354.703 352.195H353.238V354.402Z" fill="white"/>
<path d="M16 305H82V348H16V305ZM23.5 307.5H16.5V315.5H23.5V307.5ZM72.5 314.5H65V334.5H72.5V314.5ZM45.5 324.5H39.5V323H32.5V329.5H38.5V331.5H45.5V324.5ZM26.5 347.5V344.5H23V341H16.5V347.5H26.5Z" fill="#F08234" fill-opacity="0.23"/>
<path d="M55.1836 331H56.7305L53.9141 323H52.125L49.3047 331H50.8516L52.9883 324.641H53.0508L55.1836 331ZM55.1328 327.863H50.9141V329.027H55.1328V327.863Z" fill="white"/>
<path d="M61.5 349.5V356.5H67.5V364.5H31V350.5H39.5V348" stroke="#B27C40" stroke-opacity="0.23" stroke-width="0.5"/>
</svg>
