<svg width="410" height="474" viewBox="0 0 410 474" fill="none" xmlns="http://www.w3.org/2000/svg">
<path d="M85 172V176H66V172H85Z" fill="#FB5757" fill-opacity="0.71"/>
<path d="M108 172V176H90V172H108Z" fill="#FB5757" fill-opacity="0.71"/>
<path d="M130 172V176H114V172H130Z" fill="#FB5757" fill-opacity="0.71"/>
<path d="M280 200V204H270V200H280Z" fill="#FB5757" fill-opacity="0.71"/>
<path d="M210.5 173.5V177.5H187.5V173.5H210.5Z" fill="#FB5757" fill-opacity="0.71"/>
<path d="M370.5 209V213H354V209H370.5Z" fill="#FB5757" fill-opacity="0.71"/>
<path d="M82 226V230H69V226H82Z" fill="#57FBA9" fill-opacity="0.71"/>
<path d="M264.5 301.5V323.5H260.5V301.5H264.5Z" fill="#57FBA9" fill-opacity="0.71"/>
<path d="M290.5 266H324V270H290.5V266Z" fill="#57FBA9" fill-opacity="0.71"/>
<path d="M137 252H133V238H137V252Z" fill="#57FBA9" fill-opacity="0.71"/>
</svg>
