<svg width="411" height="474" viewBox="0 0 411 474" fill="none" xmlns="http://www.w3.org/2000/svg">
<path fill-rule="evenodd" clip-rule="evenodd" d="M0.5 151V103.5H27.2628V109.5H29.5V96.5H115.144V93.5H109V67H194.5V18.5H253.5V66.5H257.5V61H277V66.5H326V107H395V202.5H370.5V218.5H410V238.5H388.5V231.5H378.5V238.5H313V241.5H324.5V330.5H285V315H283.5V350H290V384H263V393H190L187.5 404.5V440.5H170.5L159.5 455.5H141.5V406L141 400.5L136.5 405H112V294.5H63.5V228.797H69V226.5H65.5V175.5H115.271V172.23H29.5V145H27.5V151H0.5ZM186 130V123H151V129.5H148.5V115.62H132V96.5H128.5V93.5H145V83.5H158V93.5H220.5V95H194.5V126H187.5V130H186ZM294.5 126V124.5H286.5V106.5H309V108H310V84H277V126H294.5ZM323 179.5H319V172H303.5V169.5H308.5V165H313V146.5L306.5 137V126H301.739V124.5H346.5H352.5V126H329V169H323V179.5ZM244 301H290V241.5H301V238.5H296.5V208.5H313.5V218.5H354V202.5H323V192H319.5V199H280V205.5H286.5V231.688H260V222H244V301ZM132 251.5V340.5H178V337.5H214V350H266.5V324H214V274.5L207 267.5H171.5V251.5H169.5V265H145V251.5H132ZM292.5 169.5V172H263V199H270.157V205.5H224V204H204.5V202.5H224V175.5H210.695V156.204H227.5V132.5H214.5L208.5 127V119.5L214 113.5H241V95H234.5V93.5H253.5V84H257.5V143H283.5V169.5H292.5ZM86 227H82V229H115.828V238.329H135V229H169.5V241.5H171.5V204H191V202.5H171.5V175.5H187.5V145.5H186V152L175 163H151V140H148.5V158H138V167.5L133.5 172H128.5V175.5H141.5V208.794H105.5V198.5H86V227ZM27 138.5H29.5V116H27V138.5Z" fill="#271406"/>
<path d="M0.5 103.5V103H0V103.5H0.5ZM0.5 151H0V151.5H0.5V151ZM27.2628 103.5H27.7628V103H27.2628V103.5ZM27.2628 109.5H26.7628V110H27.2628V109.5ZM29.5 109.5V110H30V109.5H29.5ZM29.5 96.5V96H29V96.5H29.5ZM115.144 96.5V97H115.644V96.5H115.144ZM115.144 93.5H115.644V93H115.144V93.5ZM109 93.5H108.5V94H109V93.5ZM109 67V66.5H108.5V67H109ZM194.5 67V67.5H195V67H194.5ZM194.5 18.5V18H194V18.5H194.5ZM253.5 18.5H254V18H253.5V18.5ZM253.5 66.5H253V67H253.5V66.5ZM257.5 66.5V67H258V66.5H257.5ZM257.5 61V60.5H257V61H257.5ZM277 61H277.5V60.5H277V61ZM277 66.5H276.5V67H277V66.5ZM326 66.5H326.5V66H326V66.5ZM326 107H325.5V107.5H326V107ZM395 107H395.5V106.5H395V107ZM395 202.5V203H395.5V202.5H395ZM370.5 202.5V202H370V202.5H370.5ZM370.5 218.5H370V219H370.5V218.5ZM410 218.5H410.5V218H410V218.5ZM410 238.5V239H410.5V238.5H410ZM388.5 238.5H388V239H388.5V238.5ZM388.5 231.5H389V231H388.5V231.5ZM378.5 231.5V231H378V231.5H378.5ZM378.5 238.5V239H379V238.5H378.5ZM313 238.5V238H312.5V238.5H313ZM313 241.5H312.5V242H313V241.5ZM324.5 241.5H325V241H324.5V241.5ZM324.5 330.5V331H325V330.5H324.5ZM285 330.5H284.5V331H285V330.5ZM285 315H285.5V314.5H285V315ZM283.5 315V314.5H283V315H283.5ZM283.5 350H283V350.5H283.5V350ZM290 350H290.5V349.5H290V350ZM290 384V384.5H290.5V384H290ZM263 384V383.5H262.5V384H263ZM263 393V393.5H263.5V393H263ZM190 393V392.5H189.597L189.511 392.894L190 393ZM187.5 404.5L187.011 404.394L187 404.446V404.5H187.5ZM187.5 440.5V441H188V440.5H187.5ZM170.5 440.5V440H170.247L170.097 440.204L170.5 440.5ZM159.5 455.5V456H159.753L159.903 455.796L159.5 455.5ZM141.5 455.5H141V456H141.5V455.5ZM141.5 406H142V405.977L141.998 405.955L141.5 406ZM141 400.5L141.498 400.455L141.401 399.392L140.646 400.146L141 400.5ZM136.5 405V405.5H136.707L136.854 405.354L136.5 405ZM112 405H111.5V405.5H112V405ZM112 294.5H112.5V294H112V294.5ZM63.5 294.5H63V295H63.5V294.5ZM63.5 228.797V228.297H63V228.797H63.5ZM69 228.797V229.297H69.5V228.797H69ZM69 226.5H69.5V226H69V226.5ZM65.5 226.5H65V227H65.5V226.5ZM65.5 175.5V175H65V175.5H65.5ZM115.271 175.5V176H115.771V175.5H115.271ZM115.271 172.23H115.771V171.73H115.271V172.23ZM29.5 172.23H29V172.73H29.5V172.23ZM29.5 145H30V144.5H29.5V145ZM27.5 145V144.5H27V145H27.5ZM27.5 151V151.5H28V151H27.5ZM186 123H186.5V122.5H186V123ZM186 130H185.5V130.5H186V130ZM151 123V122.5H150.5V123H151ZM151 129.5V130H151.5V129.5H151ZM148.5 129.5H148V130H148.5V129.5ZM148.5 115.62H149V115.12H148.5V115.62ZM132 115.62H131.5V116.12H132V115.62ZM132 96.5H132.5V96H132V96.5ZM128.5 96.5H128V97H128.5V96.5ZM128.5 93.5V93H128V93.5H128.5ZM145 93.5V94H145.5V93.5H145ZM145 83.5V83H144.5V83.5H145ZM158 83.5H158.5V83H158V83.5ZM158 93.5H157.5V94H158V93.5ZM220.5 93.5H221V93H220.5V93.5ZM220.5 95V95.5H221V95H220.5ZM194.5 95V94.5H194V95H194.5ZM194.5 126V126.5H195V126H194.5ZM187.5 126V125.5H187V126H187.5ZM187.5 130V130.5H188V130H187.5ZM294.5 124.5H295V124H294.5V124.5ZM294.5 126V126.5H295V126H294.5ZM286.5 124.5H286V125H286.5V124.5ZM286.5 106.5V106H286V106.5H286.5ZM309 106.5H309.5V106H309V106.5ZM309 108H308.5V108.5H309V108ZM310 108V108.5H310.5V108H310ZM310 84H310.5V83.5H310V84ZM277 84V83.5H276.5V84H277ZM277 126H276.5V126.5H277V126ZM319 179.5H318.5V180H319V179.5ZM323 179.5V180H323.5V179.5H323ZM319 172H319.5V171.5H319V172ZM303.5 172H303V172.5H303.5V172ZM303.5 169.5V169H303V169.5H303.5ZM308.5 169.5V170H309V169.5H308.5ZM308.5 165V164.5H308V165H308.5ZM313 165V165.5H313.5V165H313ZM313 146.5H313.5V146.345L313.413 146.218L313 146.5ZM306.5 137H306V137.155L306.087 137.282L306.5 137ZM306.5 126H307V125.5H306.5V126ZM301.739 126H301.239V126.5H301.739V126ZM301.739 124.5V124H301.239V124.5H301.739ZM352.5 124.5H353V124H352.5V124.5ZM352.5 126V126.5H353V126H352.5ZM329 126V125.5H328.5V126H329ZM329 169V169.5H329.5V169H329ZM323 169V168.5H322.5V169H323ZM290 301V301.5H290.5V301H290ZM244 301H243.5V301.5H244V301ZM290 241.5V241H289.5V241.5H290ZM301 241.5V242H301.5V241.5H301ZM301 238.5H301.5V238H301V238.5ZM296.5 238.5H296V239H296.5V238.5ZM296.5 208.5V208H296V208.5H296.5ZM313.5 208.5H314V208H313.5V208.5ZM313.5 218.5H313V219H313.5V218.5ZM354 218.5V219H354.5V218.5H354ZM354 202.5H354.5V202H354V202.5ZM323 202.5H322.5V203H323V202.5ZM323 192H323.5V191.5H323V192ZM319.5 192V191.5H319V192H319.5ZM319.5 199V199.5H320V199H319.5ZM280 199V198.5H279.5V199H280ZM280 205.5H279.5V206H280V205.5ZM286.5 205.5H287V205H286.5V205.5ZM286.5 231.688V232.188H287V231.688H286.5ZM260 231.688H259.5V232.188H260V231.688ZM260 222H260.5V221.5H260V222ZM244 222V221.5H243.5V222H244ZM132 340.5H131.5V341H132V340.5ZM132 251.5V251H131.5V251.5H132ZM178 340.5V341H178.5V340.5H178ZM178 337.5V337H177.5V337.5H178ZM214 337.5H214.5V337H214V337.5ZM214 350H213.5V350.5H214V350ZM266.5 350V350.5H267V350H266.5ZM266.5 324H267V323.5H266.5V324ZM214 324H213.5V324.5H214V324ZM214 274.5H214.5V274.293L214.354 274.146L214 274.5ZM207 267.5L207.354 267.146L207.207 267H207V267.5ZM171.5 267.5H171V268H171.5V267.5ZM171.5 251.5H172V251H171.5V251.5ZM169.5 251.5V251H169V251.5H169.5ZM169.5 265V265.5H170V265H169.5ZM145 265H144.5V265.5H145V265ZM145 251.5H145.5V251H145V251.5ZM292.5 172V172.5H293V172H292.5ZM292.5 169.5H293V169H292.5V169.5ZM263 172V171.5H262.5V172H263ZM263 199H262.5V199.5H263V199ZM270.157 199H270.657V198.5H270.157V199ZM270.157 205.5V206H270.657V205.5H270.157ZM224 205.5H223.5V206H224V205.5ZM224 204H224.5V203.5H224V204ZM204.5 204H204V204.5H204.5V204ZM204.5 202.5V202H204V202.5H204.5ZM224 202.5V203H224.5V202.5H224ZM224 175.5H224.5V175H224V175.5ZM210.695 175.5H210.195V176H210.695V175.5ZM210.695 156.204V155.704H210.195V156.204H210.695ZM227.5 156.204V156.704H228V156.204H227.5ZM227.5 132.5H228V132H227.5V132.5ZM214.5 132.5L214.162 132.869L214.306 133H214.5V132.5ZM208.5 127H208V127.22L208.162 127.369L208.5 127ZM208.5 119.5L208.131 119.162L208 119.306V119.5H208.5ZM214 113.5V113H213.78L213.631 113.162L214 113.5ZM241 113.5V114H241.5V113.5H241ZM241 95H241.5V94.5H241V95ZM234.5 95H234V95.5H234.5V95ZM234.5 93.5V93H234V93.5H234.5ZM253.5 93.5V94H254V93.5H253.5ZM253.5 84V83.5H253V84H253.5ZM257.5 84H258V83.5H257.5V84ZM257.5 143H257V143.5H257.5V143ZM283.5 143H284V142.5H283.5V143ZM283.5 169.5H283V170H283.5V169.5ZM82 227V226.5H81.5V227H82ZM86 227V227.5H86.5V227H86ZM82 229H81.5V229.5H82V229ZM115.828 229H116.328V228.5H115.828V229ZM115.828 238.329H115.328V238.829H115.828V238.329ZM135 238.329V238.829H135.5V238.329H135ZM135 229V228.5H134.5V229H135ZM169.5 229H170V228.5H169.5V229ZM169.5 241.5H169V242H169.5V241.5ZM171.5 241.5V242H172V241.5H171.5ZM171.5 204V203.5H171V204H171.5ZM191 204V204.5H191.5V204H191ZM191 202.5H191.5V202H191V202.5ZM171.5 202.5H171V203H171.5V202.5ZM171.5 175.5V175H171V175.5H171.5ZM187.5 175.5V176H188V175.5H187.5ZM187.5 145.5H188V145H187.5V145.5ZM186 145.5V145H185.5V145.5H186ZM186 152L186.354 152.354L186.5 152.207V152H186ZM175 163V163.5H175.207L175.354 163.354L175 163ZM151 163H150.5V163.5H151V163ZM151 140H151.5V139.5H151V140ZM148.5 140V139.5H148V140H148.5ZM148.5 158V158.5H149V158H148.5ZM138 158V157.5H137.5V158H138ZM138 167.5L138.354 167.854L138.5 167.707V167.5H138ZM133.5 172V172.5H133.707L133.854 172.354L133.5 172ZM128.5 172V171.5H128V172H128.5ZM128.5 175.5H128V176H128.5V175.5ZM141.5 175.5H142V175H141.5V175.5ZM141.5 208.794V209.294H142V208.794H141.5ZM105.5 208.794H105V209.294H105.5V208.794ZM105.5 198.5H106V198H105.5V198.5ZM86 198.5V198H85.5V198.5H86ZM29.5 138.5V139H30V138.5H29.5ZM27 138.5H26.5V139H27V138.5ZM29.5 116H30V115.5H29.5V116ZM27 116V115.5H26.5V116H27ZM0 103.5V151H1V103.5H0ZM27.2628 103H0.5V104H27.2628V103ZM27.7628 109.5V103.5H26.7628V109.5H27.7628ZM29.5 109H27.2628V110H29.5V109ZM29 96.5V109.5H30V96.5H29ZM115.144 96H29.5V97H115.144V96ZM114.644 93.5V96.5H115.644V93.5H114.644ZM109 94H115.144V93H109V94ZM108.5 67V93.5H109.5V67H108.5ZM194.5 66.5H109V67.5H194.5V66.5ZM194 18.5V67H195V18.5H194ZM253.5 18H194.5V19H253.5V18ZM254 66.5V18.5H253V66.5H254ZM257.5 66H253.5V67H257.5V66ZM257 61V66.5H258V61H257ZM277 60.5H257.5V61.5H277V60.5ZM277.5 66.5V61H276.5V66.5H277.5ZM326 66H277V67H326V66ZM326.5 107V66.5H325.5V107H326.5ZM395 106.5H326V107.5H395V106.5ZM395.5 202.5V107H394.5V202.5H395.5ZM370.5 203H395V202H370.5V203ZM371 218.5V202.5H370V218.5H371ZM410 218H370.5V219H410V218ZM410.5 238.5V218.5H409.5V238.5H410.5ZM388.5 239H410V238H388.5V239ZM388 231.5V238.5H389V231.5H388ZM378.5 232H388.5V231H378.5V232ZM379 238.5V231.5H378V238.5H379ZM313 239H378.5V238H313V239ZM313.5 241.5V238.5H312.5V241.5H313.5ZM324.5 241H313V242H324.5V241ZM325 330.5V241.5H324V330.5H325ZM285 331H324.5V330H285V331ZM284.5 315V330.5H285.5V315H284.5ZM283.5 315.5H285V314.5H283.5V315.5ZM284 350V315H283V350H284ZM290 349.5H283.5V350.5H290V349.5ZM290.5 384V350H289.5V384H290.5ZM263 384.5H290V383.5H263V384.5ZM263.5 393V384H262.5V393H263.5ZM190 393.5H263V392.5H190V393.5ZM187.989 404.606L190.489 393.106L189.511 392.894L187.011 404.394L187.989 404.606ZM188 440.5V404.5H187V440.5H188ZM170.5 441H187.5V440H170.5V441ZM159.903 455.796L170.903 440.796L170.097 440.204L159.097 455.204L159.903 455.796ZM141.5 456H159.5V455H141.5V456ZM141 406V455.5H142V406H141ZM140.502 400.545L141.002 406.045L141.998 405.955L141.498 400.455L140.502 400.545ZM136.854 405.354L141.354 400.854L140.646 400.146L136.146 404.646L136.854 405.354ZM112 405.5H136.5V404.5H112V405.5ZM111.5 294.5V405H112.5V294.5H111.5ZM63.5 295H112V294H63.5V295ZM63 228.797V294.5H64V228.797H63ZM69 228.297H63.5V229.297H69V228.297ZM68.5 226.5V228.797H69.5V226.5H68.5ZM65.5 227H69V226H65.5V227ZM65 175.5V226.5H66V175.5H65ZM115.271 175H65.5V176H115.271V175ZM114.771 172.23V175.5H115.771V172.23H114.771ZM29.5 172.73H115.271V171.73H29.5V172.73ZM29 145V172.23H30V145H29ZM27.5 145.5H29.5V144.5H27.5V145.5ZM28 151V145H27V151H28ZM0.5 151.5H27.5V150.5H0.5V151.5ZM185.5 123V130H186.5V123H185.5ZM151 123.5H186V122.5H151V123.5ZM151.5 129.5V123H150.5V129.5H151.5ZM148.5 130H151V129H148.5V130ZM148 115.62V129.5H149V115.62H148ZM132 116.12H148.5V115.12H132V116.12ZM131.5 96.5V115.62H132.5V96.5H131.5ZM128.5 97H132V96H128.5V97ZM128 93.5V96.5H129V93.5H128ZM145 93H128.5V94H145V93ZM144.5 83.5V93.5H145.5V83.5H144.5ZM158 83H145V84H158V83ZM158.5 93.5V83.5H157.5V93.5H158.5ZM220.5 93H158V94H220.5V93ZM221 95V93.5H220V95H221ZM194.5 95.5H220.5V94.5H194.5V95.5ZM195 126V95H194V126H195ZM187.5 126.5H194.5V125.5H187.5V126.5ZM188 130V126H187V130H188ZM186 130.5H187.5V129.5H186V130.5ZM294 124.5V126H295V124.5H294ZM286.5 125H294.5V124H286.5V125ZM286 106.5V124.5H287V106.5H286ZM309 106H286.5V107H309V106ZM309.5 108V106.5H308.5V108H309.5ZM310 107.5H309V108.5H310V107.5ZM309.5 84V108H310.5V84H309.5ZM277 84.5H310V83.5H277V84.5ZM277.5 126V84H276.5V126H277.5ZM294.5 125.5H277V126.5H294.5V125.5ZM319 180H323V179H319V180ZM318.5 172V179.5H319.5V172H318.5ZM303.5 172.5H319V171.5H303.5V172.5ZM303 169.5V172H304V169.5H303ZM308.5 169H303.5V170H308.5V169ZM308 165V169.5H309V165H308ZM313 164.5H308.5V165.5H313V164.5ZM312.5 146.5V165H313.5V146.5H312.5ZM306.087 137.282L312.587 146.782L313.413 146.218L306.913 136.718L306.087 137.282ZM306 126V137H307V126H306ZM301.739 126.5H306.5V125.5H301.739V126.5ZM301.239 124.5V126H302.239V124.5H301.239ZM346.5 124H301.739V125H346.5V124ZM352.5 124H346.5V125H352.5V124ZM353 126V124.5H352V126H353ZM329 126.5H352.5V125.5H329V126.5ZM329.5 169V126H328.5V169H329.5ZM323 169.5H329V168.5H323V169.5ZM323.5 179.5V169H322.5V179.5H323.5ZM290 300.5H244V301.5H290V300.5ZM289.5 241.5V301H290.5V241.5H289.5ZM301 241H290V242H301V241ZM300.5 238.5V241.5H301.5V238.5H300.5ZM296.5 239H301V238H296.5V239ZM296 208.5V238.5H297V208.5H296ZM313.5 208H296.5V209H313.5V208ZM314 218.5V208.5H313V218.5H314ZM354 218H313.5V219H354V218ZM353.5 202.5V218.5H354.5V202.5H353.5ZM323 203H354V202H323V203ZM322.5 192V202.5H323.5V192H322.5ZM319.5 192.5H323V191.5H319.5V192.5ZM320 199V192H319V199H320ZM280 199.5H319.5V198.5H280V199.5ZM280.5 205.5V199H279.5V205.5H280.5ZM286.5 205H280V206H286.5V205ZM287 231.688V205.5H286V231.688H287ZM260 232.188H286.5V231.188H260V232.188ZM259.5 222V231.688H260.5V222H259.5ZM244 222.5H260V221.5H244V222.5ZM244.5 301V222H243.5V301H244.5ZM132.5 340.5V251.5H131.5V340.5H132.5ZM178 340H132V341H178V340ZM177.5 337.5V340.5H178.5V337.5H177.5ZM214 337H178V338H214V337ZM214.5 350V337.5H213.5V350H214.5ZM266.5 349.5H214V350.5H266.5V349.5ZM266 324V350H267V324H266ZM214 324.5H266.5V323.5H214V324.5ZM213.5 274.5V324H214.5V274.5H213.5ZM206.646 267.854L213.646 274.854L214.354 274.146L207.354 267.146L206.646 267.854ZM171.5 268H207V267H171.5V268ZM171 251.5V267.5H172V251.5H171ZM169.5 252H171.5V251H169.5V252ZM170 265V251.5H169V265H170ZM145 265.5H169.5V264.5H145V265.5ZM144.5 251.5V265H145.5V251.5H144.5ZM132 252H145V251H132V252ZM293 172V169.5H292V172H293ZM263 172.5H292.5V171.5H263V172.5ZM263.5 199V172H262.5V199H263.5ZM270.157 198.5H263V199.5H270.157V198.5ZM270.657 205.5V199H269.657V205.5H270.657ZM224 206H270.157V205H224V206ZM223.5 204V205.5H224.5V204H223.5ZM204.5 204.5H224V203.5H204.5V204.5ZM204 202.5V204H205V202.5H204ZM224 202H204.5V203H224V202ZM223.5 175.5V202.5H224.5V175.5H223.5ZM210.695 176H224V175H210.695V176ZM210.195 156.204V175.5H211.195V156.204H210.195ZM227.5 155.704H210.695V156.704H227.5V155.704ZM227 132.5V156.204H228V132.5H227ZM214.5 133H227.5V132H214.5V133ZM208.162 127.369L214.162 132.869L214.838 132.131L208.838 126.631L208.162 127.369ZM208 119.5V127H209V119.5H208ZM213.631 113.162L208.131 119.162L208.869 119.838L214.369 113.838L213.631 113.162ZM241 113H214V114H241V113ZM240.5 95V113.5H241.5V95H240.5ZM234.5 95.5H241V94.5H234.5V95.5ZM234 93.5V95H235V93.5H234ZM253.5 93H234.5V94H253.5V93ZM253 84V93.5H254V84H253ZM257.5 83.5H253.5V84.5H257.5V83.5ZM258 143V84H257V143H258ZM283.5 142.5H257.5V143.5H283.5V142.5ZM284 169.5V143H283V169.5H284ZM292.5 169H283.5V170H292.5V169ZM82 227.5H86V226.5H82V227.5ZM82.5 229V227H81.5V229H82.5ZM115.828 228.5H82V229.5H115.828V228.5ZM116.328 238.329V229H115.328V238.329H116.328ZM135 237.829H115.828V238.829H135V237.829ZM134.5 229V238.329H135.5V229H134.5ZM169.5 228.5H135V229.5H169.5V228.5ZM170 241.5V229H169V241.5H170ZM171.5 241H169.5V242H171.5V241ZM171 204V241.5H172V204H171ZM191 203.5H171.5V204.5H191V203.5ZM190.5 202.5V204H191.5V202.5H190.5ZM171.5 203H191V202H171.5V203ZM171 175.5V202.5H172V175.5H171ZM187.5 175H171.5V176H187.5V175ZM187 145.5V175.5H188V145.5H187ZM186 146H187.5V145H186V146ZM186.5 152V145.5H185.5V152H186.5ZM175.354 163.354L186.354 152.354L185.646 151.646L174.646 162.646L175.354 163.354ZM151 163.5H175V162.5H151V163.5ZM150.5 140V163H151.5V140H150.5ZM148.5 140.5H151V139.5H148.5V140.5ZM149 158V140H148V158H149ZM138 158.5H148.5V157.5H138V158.5ZM138.5 167.5V158H137.5V167.5H138.5ZM133.854 172.354L138.354 167.854L137.646 167.146L133.146 171.646L133.854 172.354ZM128.5 172.5H133.5V171.5H128.5V172.5ZM129 175.5V172H128V175.5H129ZM141.5 175H128.5V176H141.5V175ZM142 208.794V175.5H141V208.794H142ZM105.5 209.294H141.5V208.294H105.5V209.294ZM105 198.5V208.794H106V198.5H105ZM86 199H105.5V198H86V199ZM86.5 227V198.5H85.5V227H86.5ZM29.5 138H27V139H29.5V138ZM29 116V138.5H30V116H29ZM27 116.5H29.5V115.5H27V116.5ZM27.5 138.5V116H26.5V138.5H27.5Z" fill="#B27C40"/>
<path d="M324.5 287.5H318V290.5M318 294H324.5M318 294H314.5V290.5H318M318 294V290.5M290 274.5H296V268.5H290M382 202.5V189H388.5M395 189H388.5M388.5 202.5V189M395 166H388V159H395M372 149H366V143H372V145M372 149V150.5H378V145H372M372 149V145M395 123H388V116.5H395M289 169.5V149.5M306.5 169.5V149.5M232.5 205.5V212H238.5V205.5M158 83.5H195M102 111H86V150M86 158.5H102M86 158.5V152M86 158.5H79.5M53 132.5L57 128.5L59 130.5M53 132.5L52.5 133L54.5 135M53 132.5V127H59V130.5M59 130.5L61.5 133L60.5 134M60.5 134L57 137.5L54.5 135M60.5 134V139H54.5V135M63 96.5V103H69V96.5M27.5 145H26L21.5 149.5V151M76 175.5V182H79M82.5 182V175.5M82.5 182H79M82.5 182V186H79V182M63.5 254.5H76V268H63.5M141 125.5H132.5V148H138M148.5 148H138M138 148V150H148.5M73 158.5H79.5M171.5 196H177.5V202.5M181.5 204V210H187.5V204M194.5 267.5V261.5H200.5V267.5M244 301V307.5H250.5V301M214 307.5H220.5V301.5H214M277 119.5H270V126H277M227.5 145.5H224V148.5M224 148.5H227.5M224 148.5H220V156M86 152V150M86 152H80.5M79.5 158.5V152H80.5M86 150H80.5V152M263 384H251V392.5M353 126H385M385 126H388.5M385 126V129H388.5M388.5 126H395M388.5 126V129M395 132.5H388.5V129M130.5 405L127.5 402V396L131 392.5H136.5L140 396V401.5M309 124.5V123H310V124.5M339 140V159H345.5V140H339ZM99.5 123L96 127.5V145.5H103V127.5L99.5 123ZM271 364.5H278V371H271V364.5Z" stroke="#B27C40"/>
<path d="M352.5 183V169H329M370 183V169H395M291.5 126.5V132.5H302M306.5 132.5H302M302 132.5V136.5H306.5M318 241.5V248H324.5M324.5 246H320V241.5M73.5 158.5H29.5M180 202.5V200H187V202.5" stroke="#B27C40" stroke-width="0.5"/>
<path d="M220.5 301.249H232.5V254.5M214.5 300.276H231V256M232.248 238.48V212.48M231 206V237" stroke="#B27C40" stroke-width="0.5"/>
<path d="M232.75 254.5H226.5M231.25 256H226.5M232.5 238.5H226.5M231.247 237H226.5M220.5 238.5H214V237H220.5M220.5 238.5V237M220.5 238.5H226.5M220.5 237H226.5M226.5 238.5V237M220.5 254.5H214V256H220.5M220.5 254.5V256M220.5 254.5H226.5M220.5 256H226.5M226.5 256V254.5" stroke="#B27C40" stroke-width="0.5"/>
<circle cx="164" cy="366" r="3.5" stroke="#B27C40"/>
<circle cx="164" cy="366" r="3.5" stroke="#B27C40"/>
<circle cx="197" cy="246" r="3.5" stroke="#B27C40"/>
<circle cx="197" cy="246" r="3.5" stroke="#B27C40"/>
<circle cx="224" cy="59" r="3.5" stroke="#B27C40"/>
<circle cx="224" cy="59" r="3.5" stroke="#B27C40"/>
<path d="M263 178H266.5L269 175.5V172M165.5 229V230.5L167 233H169.5M406.5 218.5V220L408 221.5H410" stroke="#B27C40" stroke-width="0.5"/>
<path fill-rule="evenodd" clip-rule="evenodd" d="M62.5 97H30V158.247H79V151.5H80V149.5H86V97H69.5V103.5H62.5V97ZM59 127H53V133L55 135V139H61V133L59 131V127Z" fill="#F08234" fill-opacity="0.23"/>
<path d="M52.7891 124V116H55.8516C56.4297 116 56.9102 116.091 57.293 116.273C57.6784 116.453 57.9661 116.699 58.1563 117.012C58.349 117.324 58.4453 117.678 58.4453 118.074C58.4453 118.4 58.3828 118.678 58.2578 118.91C58.1328 119.139 57.9648 119.326 57.7539 119.469C57.543 119.612 57.3073 119.715 57.0469 119.777V119.855C57.3307 119.871 57.6029 119.958 57.8633 120.117C58.1263 120.273 58.3411 120.495 58.5078 120.781C58.6745 121.068 58.7578 121.414 58.7578 121.82C58.7578 122.234 58.6576 122.607 58.457 122.937C58.2565 123.266 57.9544 123.525 57.5508 123.715C57.1471 123.905 56.6393 124 56.0273 124H52.7891ZM54.2383 122.789H55.7969C56.3229 122.789 56.7018 122.689 56.9336 122.488C57.168 122.285 57.2852 122.025 57.2852 121.707C57.2852 121.47 57.2266 121.257 57.1094 121.066C56.9922 120.874 56.8255 120.723 56.6094 120.613C56.3932 120.501 56.1354 120.445 55.8359 120.445H54.2383V122.789ZM54.2383 119.402H55.6719C55.9219 119.402 56.1471 119.357 56.3477 119.266C56.5482 119.172 56.7057 119.04 56.8203 118.871C56.9375 118.699 56.9961 118.496 56.9961 118.262C56.9961 117.952 56.8867 117.697 56.668 117.496C56.4518 117.296 56.1302 117.195 55.7031 117.195H54.2383V119.402Z" fill="white"/>
<path fill-rule="evenodd" clip-rule="evenodd" d="M395 126H329V169H395V126ZM346 139.5H338.5V159.5H346V139.5ZM365.5 142.5H372.5V144.5H378.5V151H372.5H371.5V149.5H365.5V142.5ZM394.5 158.5H387.5V166.5H394.5V158.5ZM388 126.5H394.5V133H388V129.5H384.5V126.5H388Z" fill="#F08234" fill-opacity="0.23"/>
<path d="M355.816 152H354.27L357.086 144H358.875L361.695 152H360.148L358.012 145.641H357.949L355.816 152ZM355.867 148.863H360.086V150.027H355.867V148.863Z" fill="white"/>
<path d="M349.5 124.5V117.5H343.5V109.5H380V123.5H371.5V126" stroke="#B27C40" stroke-opacity="0.23" stroke-width="0.5"/>
</svg>
