<svg width="416" height="474" viewBox="0 0 416 474" fill="none" xmlns="http://www.w3.org/2000/svg">
<path d="M400.07 258.822L401.749 261.34L400.07 263.858H415.178V91.2401H-3.05176e-05V225.529V226.089H12.3098L14.175 223.291L12.3098 220.494H5.03583V96.276H410.142V258.822H400.07Z" fill="white" fill-opacity="0.48"/>
<path d="M190.244 426.964L186.327 406.261V375.486H125.896V373.248H123.658V375.486H84.4907V353.104H95.6812L84.4907 341.913H78.895V314.496H90.0854V299.389H78.895V275.328H95.6812V274.209H48.6802V249.03H57.0728V232.244H63.7876V230.565H49.7993V237.279H29.6558L22.3813 229.446V217.137L29.6558 209.303H49.7993V216.577H51.4771V166.777H92.8833L103.514 161.183V114.181L141.563 75.0137H143.801V73.8945L154.993 61.0254V44.2383C154.994 43.3415 157.603 37.8969 158.909 35.2861L167.302 24.6553V22.9766L171.219 18.5H192.481L194.719 22.9766L195.279 25.2148L191.362 29.6904L203.113 38.6436L207.589 45.917V64.3818L211.505 68.2988V69.418L214.863 71.0967L217.661 74.4541L223.256 81.168L224.935 85.6445L233.328 95.1572L234.447 97.3945L237.245 98.5137L243.958 111.943L249.554 142.158V147.194L251.233 147.754L260.745 149.432H268.019L275.293 147.754H279.209L280.888 148.873H282.567L285.924 147.194H288.722L289.841 147.754H302.71L305.508 146.635H348.033L377.689 176.29V197.553H370.415V202.588H376.57V248.471H390.558V256.304H391.677V266.936H390.558V274.209H358.665V271.412H356.986V279.805H350.271V281.483H365.379V303.865H390.558V345.271H362.582V375.486H287.603V373.808H285.365V375.486H245.078V406.82L241.721 421.928L228.851 455.5H203.113L190.244 426.964ZM231.089 116.979L224.375 111.384V108.586L202.553 86.7637V82.2871L194.719 72.7754V69.9775L190.802 67.1797L188.564 66.6201L185.208 62.7031H182.969L171.778 66.6201L171.218 67.7393L162.266 77.8115V80.6084L146.599 100.192V103.55H141.003L137.646 108.026L137.086 111.384L133.73 115.859V119.776L136.527 123.693H137.646L140.444 128.729L161.147 116.979H174.576L184.088 114.74H190.243L227.732 131.527L231.089 116.979ZM193.6 217.696V207.624H201.994L208.148 201.47V180.207H238.364V164.54H231.089V170.135H215.982V140.479H204.792L201.434 136.562L192.481 132.086H188.004L186.886 130.408V129.289L177.933 127.61H175.135L167.302 132.646H165.624V133.765H162.266L154.432 139.36H131.492V166.777H148.278V207.624H191.921V217.696H193.6ZM320.616 199.231V178.528H315.02V164.54H285.241V165.659H257.388V164.54H249.554V180.207H286.484V197.553H278.09V199.231H320.616ZM125.336 282.603V264.697H148.278L158.909 259.661V222.731H140.444V228.327H122.539V193.636H134.29V190.278H94.0024V208.743H77.7759L77.2163 230.565H72.1802V232.244H77.2163V259.661H113.586V274.209H106.872V275.328H110.229V282.603H125.336ZM222.137 384.438L243.399 358.7H285.365V360.938H287.603V358.7H293.757V340.235H287.603V319.845H298.793V263.578H280.329V267.495L272.496 271.412H265.221L257.388 267.495V263.578H256.829V271.412H236.125L227.172 262.459V252.388L236.685 242.875H256.829V250.149H257.947V199.231H267.459V197.553H265.221V192.517H222.137V228.327H193.6V225.529H191.921V228.327H176.254V237.839H187.446V260.78H176.254V266.376H177.933V278.126H176.254V284.281H192.481V301.067H191.362V303.865H192.481V320.651H171.218V312.817H163.385V320.651H151.076V322.89H160.028V327.925H180.731V356.462H175.695V358.7H185.767L206.469 384.438H222.137ZM325.652 293.233L334.044 281.483H337.402V279.805H329.008V257.423L335.164 251.828H350.831L356.986 257.423V260.221H358.665V211.541H299.353V224.97H285.924V250.149H280.329V251.269H298.793V235.042H321.175V258.542H315.859V268.614H321.175V293.233H325.652ZM156.111 313.937V303.306H182.969V301.627H151.076V313.937H156.111ZM350.831 358.7V329.044H372.653V317.854H348.033V356.462H304.389V358.7H350.831ZM125.896 360.938V358.7H166.743V337.438H160.028V340.235L157.79 341.913H113.586L102.395 353.104H124.217V360.938H125.896Z" fill="#271406"/>
<path d="M190.244 426.964L189.752 427.057L189.763 427.115L189.788 427.169L190.244 426.964ZM186.327 406.261H185.827V406.308L185.835 406.354L186.327 406.261ZM186.327 375.486H186.827V374.986H186.327V375.486ZM125.896 375.486H125.396V375.986H125.896V375.486ZM125.896 373.248H126.396V372.748H125.896V373.248ZM123.658 373.248V372.748H123.158V373.248H123.658ZM123.658 375.486V375.986H124.158V375.486H123.658ZM84.4907 375.486H83.9907V375.986H84.4907V375.486ZM84.4907 353.104V352.604H83.9907V353.104H84.4907ZM95.6812 353.104V353.604H96.8882L96.0347 352.751L95.6812 353.104ZM84.4907 341.913L84.8443 341.56L84.6978 341.413H84.4907V341.913ZM78.895 341.913H78.395V342.413H78.895V341.913ZM78.895 314.496V313.996H78.395V314.496H78.895ZM90.0854 314.496V314.996H90.5854V314.496H90.0854ZM90.0854 299.389H90.5854V298.889H90.0854V299.389ZM78.895 299.389H78.395V299.889H78.895V299.389ZM78.895 275.328V274.828H78.395V275.328H78.895ZM95.6812 275.328V275.828H96.1812V275.328H95.6812ZM95.6812 274.209H96.1812V273.709H95.6812V274.209ZM48.6802 274.209H48.1802V274.709H48.6802V274.209ZM48.6802 249.03V248.53H48.1802V249.03H48.6802ZM57.0728 249.03V249.53H57.5728V249.03H57.0728ZM57.0728 232.244V231.744H56.5728V232.244H57.0728ZM63.7876 232.244V232.744H64.2876V232.244H63.7876ZM63.7876 230.565H64.2876V230.065H63.7876V230.565ZM49.7993 230.565V230.065H49.2993V230.565H49.7993ZM49.7993 237.279V237.779H50.2993V237.279H49.7993ZM29.6558 237.279L29.2894 237.62L29.4377 237.779H29.6558V237.279ZM22.3813 229.446H21.8813V229.643L22.015 229.787L22.3813 229.446ZM22.3813 217.137L22.015 216.796L21.8813 216.94V217.137H22.3813ZM29.6558 209.303V208.803H29.4377L29.2894 208.963L29.6558 209.303ZM49.7993 209.303H50.2993V208.803H49.7993V209.303ZM49.7993 216.577H49.2993V217.077H49.7993V216.577ZM51.4771 216.577V217.077H51.9771V216.577H51.4771ZM51.4771 166.777V166.277H50.9771V166.777H51.4771ZM92.8833 166.777V167.277H93.0068L93.1161 167.22L92.8833 166.777ZM103.514 161.183L103.747 161.625L104.014 161.484V161.183H103.514ZM103.514 114.181L103.156 113.832L103.014 113.978V114.181H103.514ZM141.563 75.0137V74.5137H141.352L141.204 74.6653L141.563 75.0137ZM143.801 75.0137V75.5137H144.301V75.0137H143.801ZM143.801 73.8945L143.424 73.5664L143.301 73.7075V73.8945H143.801ZM154.993 61.0254L155.37 61.3535L155.493 61.2124V61.0254H154.993ZM154.993 44.2383L154.493 44.2378V44.2383H154.993ZM158.909 35.2861L158.516 34.9763L158.484 35.0166L158.461 35.0625L158.909 35.2861ZM167.302 24.6553L167.695 24.9651L167.802 24.8289V24.6553H167.302ZM167.302 22.9766L166.926 22.6473L166.802 22.7887V22.9766H167.302ZM171.219 18.5V18H170.992L170.843 18.1707L171.219 18.5ZM192.481 18.5L192.928 18.2764L192.79 18H192.481V18.5ZM194.719 22.9766L195.204 22.8553L195.191 22.802L195.166 22.753L194.719 22.9766ZM195.279 25.2148L195.655 25.5441L195.827 25.3473L195.764 25.0936L195.279 25.2148ZM191.362 29.6904L190.986 29.3611L190.633 29.7638L191.059 30.0881L191.362 29.6904ZM203.113 38.6436L203.539 38.3815L203.49 38.3022L203.416 38.2458L203.113 38.6436ZM207.589 45.917H208.089V45.7755L208.015 45.6549L207.589 45.917ZM207.589 64.3818H207.089V64.5889L207.236 64.7354L207.589 64.3818ZM211.505 68.2988H212.005V68.0918L211.859 67.9453L211.505 68.2988ZM211.505 69.418H211.005V69.727L211.282 69.8652L211.505 69.418ZM214.863 71.0967L215.247 70.7766L215.18 70.6962L215.086 70.6495L214.863 71.0967ZM217.661 74.4541L217.277 74.7742L217.277 74.7742L217.661 74.4541ZM223.256 81.168L223.725 80.9924L223.695 80.913L223.64 80.8478L223.256 81.168ZM224.935 85.6445L224.467 85.8201L224.499 85.9063L224.56 85.9753L224.935 85.6445ZM233.328 95.1572L233.775 94.9335L233.746 94.8753L233.703 94.8264L233.328 95.1572ZM234.447 97.3945L234 97.6182L234.085 97.7882L234.261 97.8588L234.447 97.3945ZM237.245 98.5137L237.692 98.2901L237.607 98.1201L237.43 98.0494L237.245 98.5137ZM243.958 111.943L244.45 111.852L244.437 111.783L244.406 111.72L243.958 111.943ZM249.554 142.158H250.054V142.112L250.046 142.067L249.554 142.158ZM249.554 147.194H249.054V147.555L249.396 147.669L249.554 147.194ZM251.233 147.754L251.075 148.228L251.11 148.24L251.146 148.246L251.233 147.754ZM260.745 149.432L260.658 149.924L260.701 149.932H260.745V149.432ZM268.019 149.432V149.932H268.076L268.131 149.919L268.019 149.432ZM275.293 147.754V147.254H275.237L275.181 147.267L275.293 147.754ZM279.209 147.754L279.487 147.338L279.361 147.254H279.209V147.754ZM280.888 148.873L280.611 149.289L280.737 149.373H280.888V148.873ZM282.567 148.873V149.373H282.685L282.791 149.32L282.567 148.873ZM285.924 147.194V146.694H285.806L285.701 146.747L285.924 147.194ZM288.722 147.194L288.946 146.747L288.84 146.694H288.722V147.194ZM289.841 147.754L289.618 148.201L289.723 148.254H289.841V147.754ZM302.71 147.754V148.254H302.807L302.896 148.218L302.71 147.754ZM305.508 146.635V146.135H305.412L305.323 146.171L305.508 146.635ZM348.033 146.635L348.386 146.281L348.24 146.135H348.033V146.635ZM377.689 176.29H378.189V176.083L378.043 175.936L377.689 176.29ZM377.689 197.553V198.053H378.189V197.553H377.689ZM370.415 197.553V197.053H369.915V197.553H370.415ZM370.415 202.588H369.915V203.088H370.415V202.588ZM376.57 202.588H377.07V202.088H376.57V202.588ZM376.57 248.471H376.07V248.971H376.57V248.471ZM390.558 248.471H391.058V247.971H390.558V248.471ZM390.558 256.304H390.058V256.804H390.558V256.304ZM391.677 256.304H392.177V255.804H391.677V256.304ZM391.677 266.936V267.436H392.177V266.936H391.677ZM390.558 266.936V266.436H390.058V266.936H390.558ZM390.558 274.209V274.709H391.058V274.209H390.558ZM358.665 274.209H358.165V274.709H358.665V274.209ZM358.665 271.412H359.165V270.912H358.665V271.412ZM356.986 271.412V270.912H356.486V271.412H356.986ZM356.986 279.805V280.305H357.486V279.805H356.986ZM350.271 279.805V279.305H349.771V279.805H350.271ZM350.271 281.483H349.771V281.983H350.271V281.483ZM365.379 281.483H365.879V280.983H365.379V281.483ZM365.379 303.865H364.879V304.365H365.379V303.865ZM390.558 303.865H391.058V303.365H390.558V303.865ZM390.558 345.271V345.771H391.058V345.271H390.558ZM362.582 345.271V344.771H362.082V345.271H362.582ZM362.582 375.486V375.986H363.082V375.486H362.582ZM287.603 375.486H287.103V375.986H287.603V375.486ZM287.603 373.808H288.103V373.308H287.603V373.808ZM285.365 373.808V373.308H284.865V373.808H285.365ZM285.365 375.486V375.986H285.865V375.486H285.365ZM245.078 375.486V374.986H244.578V375.486H245.078ZM245.078 406.82L245.566 406.929L245.578 406.875V406.82H245.078ZM241.721 421.928L242.188 422.107L242.201 422.072L242.209 422.036L241.721 421.928ZM228.851 455.5V456H229.195L229.318 455.679L228.851 455.5ZM203.113 455.5L202.657 455.706L202.79 456H203.113V455.5ZM231.089 116.979L231.577 117.091L231.646 116.791L231.409 116.594L231.089 116.979ZM224.375 111.384H223.875V111.618L224.054 111.768L224.375 111.384ZM224.375 108.586H224.875V108.379L224.728 108.232L224.375 108.586ZM202.553 86.7637H202.053V86.9708L202.2 87.1172L202.553 86.7637ZM202.553 82.2871H203.053V82.1077L202.939 81.9692L202.553 82.2871ZM194.719 72.7754H194.219V72.9548L194.333 73.0933L194.719 72.7754ZM194.719 69.9775H195.219V69.7202L195.01 69.5707L194.719 69.9775ZM190.802 67.1797L191.093 66.7728L191.016 66.7177L190.924 66.6946L190.802 67.1797ZM188.564 66.6201L188.184 66.9455L188.288 67.0665L188.443 67.1052L188.564 66.6201ZM185.208 62.7031L185.587 62.3778L185.438 62.2031H185.208V62.7031ZM182.969 62.7031V62.2031H182.884L182.804 62.2312L182.969 62.7031ZM171.778 66.6201L171.613 66.1482L171.421 66.2152L171.331 66.3965L171.778 66.6201ZM171.218 67.7393L171.592 68.0714L171.636 68.022L171.665 67.9629L171.218 67.7393ZM162.266 77.8115L161.892 77.4794L161.766 77.6214V77.8115H162.266ZM162.266 80.6084L162.657 80.9207L162.766 80.7838V80.6084H162.266ZM146.599 100.192L146.209 99.88L146.099 100.017V100.192H146.599ZM146.599 103.55V104.05H147.099V103.55H146.599ZM141.003 103.55V103.05H140.753L140.603 103.25L141.003 103.55ZM137.646 108.026L137.246 107.726L137.173 107.824L137.153 107.944L137.646 108.026ZM137.086 111.384L137.486 111.684L137.56 111.586L137.58 111.466L137.086 111.384ZM133.73 115.859L133.33 115.559L133.23 115.693V115.859H133.73ZM133.73 119.776H133.23V119.937L133.323 120.067L133.73 119.776ZM136.527 123.693L136.12 123.984L136.27 124.193H136.527V123.693ZM137.646 123.693L138.083 123.451L137.94 123.193H137.646V123.693ZM140.444 128.729L140.007 128.972L140.252 129.413L140.691 129.164L140.444 128.729ZM161.147 116.979V116.479H161.015L160.9 116.544L161.147 116.979ZM174.576 116.979V117.479H174.634L174.69 117.465L174.576 116.979ZM184.088 114.74V114.24H184.03L183.974 114.254L184.088 114.74ZM190.243 114.74L190.447 114.284L190.35 114.24H190.243V114.74ZM227.732 131.527L227.528 131.984L228.082 132.232L228.219 131.64L227.732 131.527ZM193.6 217.696V218.196H194.1V217.696H193.6ZM193.6 207.624V207.124H193.1V207.624H193.6ZM201.994 207.624V208.124H202.201L202.347 207.978L201.994 207.624ZM208.148 201.47L208.501 201.823L208.648 201.677V201.47H208.148ZM208.148 180.207V179.707H207.648V180.207H208.148ZM238.364 180.207V180.707H238.864V180.207H238.364ZM238.364 164.54H238.864V164.04H238.364V164.54ZM231.089 164.54V164.04H230.589V164.54H231.089ZM231.089 170.135V170.635H231.589V170.135H231.089ZM215.982 170.135H215.482V170.635H215.982V170.135ZM215.982 140.479H216.482V139.979H215.982V140.479ZM204.792 140.479L204.412 140.805L204.562 140.979H204.792V140.479ZM201.434 136.562L201.814 136.237L201.748 136.16L201.658 136.115L201.434 136.562ZM192.481 132.086L192.705 131.639L192.599 131.586H192.481V132.086ZM188.004 132.086L187.588 132.363L187.737 132.586H188.004V132.086ZM186.886 130.408H186.386V130.56L186.47 130.685L186.886 130.408ZM186.886 129.289H187.386V128.874L186.978 128.798L186.886 129.289ZM177.933 127.61L178.025 127.119L177.98 127.11H177.933V127.61ZM175.135 127.61V127.11H174.988L174.865 127.19L175.135 127.61ZM167.302 132.646V133.146H167.449L167.573 133.066L167.302 132.646ZM165.624 132.646V132.146H165.124V132.646H165.624ZM165.624 133.765V134.265H166.124V133.765H165.624ZM162.266 133.765V133.265H162.106L161.975 133.358L162.266 133.765ZM154.432 139.36V139.86H154.592L154.723 139.767L154.432 139.36ZM131.492 139.36V138.86H130.992V139.36H131.492ZM131.492 166.777H130.992V167.277H131.492V166.777ZM148.278 166.777H148.778V166.277H148.278V166.777ZM148.278 207.624H147.778V208.124H148.278V207.624ZM191.921 207.624H192.421V207.124H191.921V207.624ZM191.921 217.696H191.421V218.196H191.921V217.696ZM320.616 199.231V199.731H321.116V199.231H320.616ZM320.616 178.528H321.116V178.028H320.616V178.528ZM315.02 178.528H314.52V179.028H315.02V178.528ZM315.02 164.54H315.52V164.04H315.02V164.54ZM285.241 164.54V164.04H284.741V164.54H285.241ZM285.241 165.659V166.159H285.741V165.659H285.241ZM257.388 165.659H256.888V166.159H257.388V165.659ZM257.388 164.54H257.888V164.04H257.388V164.54ZM249.554 164.54V164.04H249.054V164.54H249.554ZM249.554 180.207H249.054V180.707H249.554V180.207ZM286.484 180.207H286.984V179.707H286.484V180.207ZM286.484 197.553V198.053H286.984V197.553H286.484ZM278.09 197.553V197.053H277.59V197.553H278.09ZM278.09 199.231H277.59V199.731H278.09V199.231ZM125.336 282.603V283.103H125.836V282.603H125.336ZM125.336 264.697V264.197H124.836V264.697H125.336ZM148.278 264.697V265.197H148.39L148.492 265.149L148.278 264.697ZM158.909 259.661L159.123 260.113L159.409 259.978V259.661H158.909ZM158.909 222.731H159.409V222.231H158.909V222.731ZM140.444 222.731V222.231H139.944V222.731H140.444ZM140.444 228.327V228.827H140.944V228.327H140.444ZM122.539 228.327H122.039V228.827H122.539V228.327ZM122.539 193.636V193.136H122.039V193.636H122.539ZM134.29 193.636V194.136H134.79V193.636H134.29ZM134.29 190.278H134.79V189.778H134.29V190.278ZM94.0024 190.278V189.778H93.5024V190.278H94.0024ZM94.0024 208.743V209.243H94.5024V208.743H94.0024ZM77.7759 208.743V208.243H77.2885L77.276 208.73L77.7759 208.743ZM77.2163 230.565V231.065H77.7036L77.7162 230.578L77.2163 230.565ZM72.1802 230.565V230.065H71.6802V230.565H72.1802ZM72.1802 232.244H71.6802V232.744H72.1802V232.244ZM77.2163 232.244H77.7163V231.744H77.2163V232.244ZM77.2163 259.661H76.7163V260.161H77.2163V259.661ZM113.586 259.661H114.086V259.161H113.586V259.661ZM113.586 274.209V274.709H114.086V274.209H113.586ZM106.872 274.209V273.709H106.372V274.209H106.872ZM106.872 275.328H106.372V275.828H106.872V275.328ZM110.229 275.328H110.729V274.828H110.229V275.328ZM110.229 282.603H109.729V283.103H110.229V282.603ZM222.137 384.438V384.938H222.373L222.523 384.757L222.137 384.438ZM243.399 358.7V358.2H243.163L243.013 358.382L243.399 358.7ZM285.365 358.7H285.865V358.2H285.365V358.7ZM285.365 360.938H284.865V361.438H285.365V360.938ZM287.603 360.938V361.438H288.103V360.938H287.603ZM287.603 358.7V358.2H287.103V358.7H287.603ZM293.757 358.7V359.2H294.257V358.7H293.757ZM293.757 340.235H294.257V339.735H293.757V340.235ZM287.603 340.235H287.103V340.735H287.603V340.235ZM287.603 319.845V319.345H287.103V319.845H287.603ZM298.793 319.845V320.345H299.293V319.845H298.793ZM298.793 263.578H299.293V263.078H298.793V263.578ZM280.329 263.578V263.078H279.829V263.578H280.329ZM280.329 267.495L280.552 267.942L280.829 267.804V267.495H280.329ZM272.496 271.412V271.912H272.614L272.719 271.859L272.496 271.412ZM265.221 271.412L264.998 271.859L265.103 271.912H265.221V271.412ZM257.388 267.495H256.888V267.804L257.165 267.942L257.388 267.495ZM257.388 263.578H257.888V263.078H257.388V263.578ZM256.829 263.578V263.078H256.329V263.578H256.829ZM256.829 271.412V271.912H257.329V271.412H256.829ZM236.125 271.412L235.772 271.766L235.918 271.912H236.125V271.412ZM227.172 262.459H226.672V262.666L226.819 262.813L227.172 262.459ZM227.172 252.388L226.819 252.034L226.672 252.181V252.388H227.172ZM236.685 242.875V242.375H236.478L236.332 242.521L236.685 242.875ZM256.829 242.875H257.329V242.375H256.829V242.875ZM256.829 250.149H256.329V250.649H256.829V250.149ZM257.947 250.149V250.649H258.447V250.149H257.947ZM257.947 199.231V198.731H257.447V199.231H257.947ZM267.459 199.231V199.731H267.959V199.231H267.459ZM267.459 197.553H267.959V197.053H267.459V197.553ZM265.221 197.553H264.721V198.053H265.221V197.553ZM265.221 192.517H265.721V192.017H265.221V192.517ZM222.137 192.517V192.017H221.637V192.517H222.137ZM222.137 228.327V228.827H222.637V228.327H222.137ZM193.6 228.327H193.1V228.827H193.6V228.327ZM193.6 225.529H194.1V225.029H193.6V225.529ZM191.921 225.529V225.029H191.421V225.529H191.921ZM191.921 228.327V228.827H192.421V228.327H191.921ZM176.254 228.327V227.827H175.754V228.327H176.254ZM176.254 237.839H175.754V238.339H176.254V237.839ZM187.446 237.839H187.946V237.339H187.446V237.839ZM187.446 260.78V261.28H187.946V260.78H187.446ZM176.254 260.78V260.28H175.754V260.78H176.254ZM176.254 266.376H175.754V266.876H176.254V266.376ZM177.933 266.376H178.433V265.876H177.933V266.376ZM177.933 278.126V278.626H178.433V278.126H177.933ZM176.254 278.126V277.626H175.754V278.126H176.254ZM176.254 284.281H175.754V284.781H176.254V284.281ZM192.481 284.281H192.981V283.781H192.481V284.281ZM192.481 301.067V301.567H192.981V301.067H192.481ZM191.362 301.067V300.567H190.862V301.067H191.362ZM191.362 303.865H190.862V304.365H191.362V303.865ZM192.481 303.865H192.981V303.365H192.481V303.865ZM192.481 320.651V321.151H192.981V320.651H192.481ZM171.218 320.651H170.718V321.151H171.218V320.651ZM171.218 312.817H171.718V312.317H171.218V312.817ZM163.385 312.817V312.317H162.885V312.817H163.385ZM163.385 320.651V321.151H163.885V320.651H163.385ZM151.076 320.651V320.151H150.576V320.651H151.076ZM151.076 322.89H150.576V323.39H151.076V322.89ZM160.028 322.89H160.528V322.39H160.028V322.89ZM160.028 327.925H159.528V328.425H160.028V327.925ZM180.731 327.925H181.231V327.425H180.731V327.925ZM180.731 356.462V356.962H181.231V356.462H180.731ZM175.695 356.462V355.962H175.195V356.462H175.695ZM175.695 358.7H175.195V359.2H175.695V358.7ZM185.767 358.7L186.157 358.387L186.007 358.2H185.767V358.7ZM206.469 384.438L206.08 384.752L206.23 384.938H206.469V384.438ZM325.652 293.233V293.733H325.909L326.059 293.524L325.652 293.233ZM334.044 281.483V280.983H333.787L333.638 281.193L334.044 281.483ZM337.402 281.483V281.983H337.902V281.483H337.402ZM337.402 279.805H337.902V279.305H337.402V279.805ZM329.008 279.805H328.508V280.305H329.008V279.805ZM329.008 257.423L328.672 257.053L328.508 257.202V257.423H329.008ZM335.164 251.828V251.328H334.97L334.827 251.458L335.164 251.828ZM350.831 251.828L351.167 251.458L351.024 251.328H350.831V251.828ZM356.986 257.423H357.486V257.202L357.322 257.053L356.986 257.423ZM356.986 260.221H356.486V260.721H356.986V260.221ZM358.665 260.221V260.721H359.165V260.221H358.665ZM358.665 211.541H359.165V211.041H358.665V211.541ZM299.353 211.541V211.041H298.853V211.541H299.353ZM299.353 224.97V225.47H299.853V224.97H299.353ZM285.924 224.97V224.47H285.424V224.97H285.924ZM285.924 250.149V250.649H286.424V250.149H285.924ZM280.329 250.149V249.649H279.829V250.149H280.329ZM280.329 251.269H279.829V251.769H280.329V251.269ZM298.793 251.269V251.769H299.293V251.269H298.793ZM298.793 235.042V234.542H298.293V235.042H298.793ZM321.175 235.042H321.675V234.542H321.175V235.042ZM321.175 258.542V259.042H321.675V258.542H321.175ZM315.859 258.542V258.042H315.359V258.542H315.859ZM315.859 268.614H315.359V269.114H315.859V268.614ZM321.175 268.614H321.675V268.114H321.175V268.614ZM321.175 293.233H320.675V293.733H321.175V293.233ZM156.111 313.937V314.437H156.611V313.937H156.111ZM156.111 303.306V302.806H155.611V303.306H156.111ZM182.969 303.306V303.806H183.469V303.306H182.969ZM182.969 301.627H183.469V301.127H182.969V301.627ZM151.076 301.627V301.127H150.576V301.627H151.076ZM151.076 313.937H150.576V314.437H151.076V313.937ZM350.831 358.7V359.2H351.331V358.7H350.831ZM350.831 329.044V328.544H350.331V329.044H350.831ZM372.653 329.044V329.544H373.153V329.044H372.653ZM372.653 317.854H373.153V317.354H372.653V317.854ZM348.033 317.854V317.354H347.533V317.854H348.033ZM348.033 356.462V356.962H348.533V356.462H348.033ZM304.389 356.462V355.962H303.889V356.462H304.389ZM304.389 358.7H303.889V359.2H304.389V358.7ZM125.896 360.938V361.438H126.396V360.938H125.896ZM125.896 358.7V358.2H125.396V358.7H125.896ZM166.743 358.7V359.2H167.243V358.7H166.743ZM166.743 337.438H167.243V336.938H166.743V337.438ZM160.028 337.438V336.938H159.528V337.438H160.028ZM160.028 340.235L160.328 340.635L160.528 340.485V340.235H160.028ZM157.79 341.913V342.413H157.956L158.089 342.313L157.79 341.913ZM113.586 341.913V341.413H113.379L113.233 341.56L113.586 341.913ZM102.395 353.104L102.041 352.751L101.188 353.604H102.395V353.104ZM124.217 353.104H124.717V352.604H124.217V353.104ZM124.217 360.938H123.717V361.438H124.217V360.938ZM190.244 426.964L190.735 426.871L186.818 406.168L186.327 406.261L185.835 406.354L189.752 427.057L190.244 426.964ZM186.327 406.261H186.827V375.486H186.327H185.827V406.261H186.327ZM186.327 375.486V374.986H125.896V375.486V375.986H186.327V375.486ZM125.896 375.486H126.396V373.248H125.896H125.396V375.486H125.896ZM125.896 373.248V372.748H123.658V373.248V373.748H125.896V373.248ZM123.658 373.248H123.158V375.486H123.658H124.158V373.248H123.658ZM123.658 375.486V374.986H84.4907V375.486V375.986H123.658V375.486ZM84.4907 375.486H84.9907V353.104H84.4907H83.9907V375.486H84.4907ZM84.4907 353.104V353.604H95.6812V353.104V352.604H84.4907V353.104ZM95.6812 353.104L96.0347 352.751L84.8443 341.56L84.4907 341.913L84.1371 342.267L95.3276 353.458L95.6812 353.104ZM84.4907 341.913V341.413H78.895V341.913V342.413H84.4907V341.913ZM78.895 341.913H79.395V314.496H78.895H78.395V341.913H78.895ZM78.895 314.496V314.996H90.0854V314.496V313.996H78.895V314.496ZM90.0854 314.496H90.5854V299.389H90.0854H89.5854V314.496H90.0854ZM90.0854 299.389V298.889H78.895V299.389V299.889H90.0854V299.389ZM78.895 299.389H79.395V275.328H78.895H78.395V299.389H78.895ZM78.895 275.328V275.828H95.6812V275.328V274.828H78.895V275.328ZM95.6812 275.328H96.1812V274.209H95.6812H95.1812V275.328H95.6812ZM95.6812 274.209V273.709H48.6802V274.209V274.709H95.6812V274.209ZM48.6802 274.209H49.1802V249.03H48.6802H48.1802V274.209H48.6802ZM48.6802 249.03V249.53H57.0728V249.03V248.53H48.6802V249.03ZM57.0728 249.03H57.5728V232.244H57.0728H56.5728V249.03H57.0728ZM57.0728 232.244V232.744H63.7876V232.244V231.744H57.0728V232.244ZM63.7876 232.244H64.2876V230.565H63.7876H63.2876V232.244H63.7876ZM63.7876 230.565V230.065H49.7993V230.565V231.065H63.7876V230.565ZM49.7993 230.565H49.2993V237.279H49.7993H50.2993V230.565H49.7993ZM49.7993 237.279V236.779H29.6558V237.279V237.779H49.7993V237.279ZM29.6558 237.279L30.0221 236.939L22.7477 229.106L22.3813 229.446L22.015 229.787L29.2894 237.62L29.6558 237.279ZM22.3813 229.446H22.8813V217.137H22.3813H21.8813V229.446H22.3813ZM22.3813 217.137L22.7477 217.477L30.0222 209.643L29.6558 209.303L29.2894 208.963L22.015 216.796L22.3813 217.137ZM29.6558 209.303V209.803H49.7993V209.303V208.803H29.6558V209.303ZM49.7993 209.303H49.2993V216.577H49.7993H50.2993V209.303H49.7993ZM49.7993 216.577V217.077H51.4771V216.577V216.077H49.7993V216.577ZM51.4771 216.577H51.9771V166.777H51.4771H50.9771V216.577H51.4771ZM51.4771 166.777V167.277H92.8833V166.777V166.277H51.4771V166.777ZM92.8833 166.777L93.1161 167.22L103.747 161.625L103.514 161.183L103.281 160.74L92.6505 166.335L92.8833 166.777ZM103.514 161.183H104.014V114.181H103.514H103.014V161.183H103.514ZM103.514 114.181L103.873 114.529L141.922 75.3621L141.563 75.0137L141.204 74.6653L103.156 113.832L103.514 114.181ZM141.563 75.0137V75.5137H143.801V75.0137V74.5137H141.563V75.0137ZM143.801 75.0137H144.301V73.8945H143.801H143.301V75.0137H143.801ZM143.801 73.8945L144.179 74.2226L155.37 61.3535L154.993 61.0254L154.615 60.6973L143.424 73.5664L143.801 73.8945ZM154.993 61.0254H155.493V44.2383H154.993H154.493V61.0254H154.993ZM154.993 44.2383L155.493 44.2388C155.493 44.2395 155.493 44.2303 155.496 44.2087C155.499 44.1878 155.503 44.1601 155.511 44.1247C155.527 44.0534 155.551 43.9622 155.585 43.8507C155.654 43.6275 155.757 43.3438 155.887 43.0106C156.147 42.3452 156.51 41.5081 156.917 40.6114C157.729 38.8193 158.705 36.8115 159.356 35.5097L158.909 35.2861L158.461 35.0625C157.807 36.3715 156.825 38.3914 156.006 40.1985C155.597 41.1014 155.226 41.9568 154.956 42.6461C154.821 42.9902 154.709 43.2994 154.63 43.5558C154.557 43.7936 154.493 44.0421 154.493 44.2378L154.993 44.2383ZM158.909 35.2861L159.301 35.596L167.695 24.9651L167.302 24.6553L166.91 24.3454L158.516 34.9763L158.909 35.2861ZM167.302 24.6553H167.802V22.9766H167.302H166.802V24.6553H167.302ZM167.302 22.9766L167.679 23.3058L171.596 18.8293L171.219 18.5L170.843 18.1707L166.926 22.6473L167.302 22.9766ZM171.219 18.5V19H192.481V18.5V18H171.219V18.5ZM192.481 18.5L192.034 18.7236L194.272 23.2002L194.719 22.9766L195.166 22.753L192.928 18.2764L192.481 18.5ZM194.719 22.9766L194.234 23.0978L194.794 25.3361L195.279 25.2148L195.764 25.0936L195.204 22.8553L194.719 22.9766ZM195.279 25.2148L194.903 24.8856L190.986 29.3611L191.362 29.6904L191.738 30.0197L195.655 25.5441L195.279 25.2148ZM191.362 29.6904L191.059 30.0881L202.81 39.0413L203.113 38.6436L203.416 38.2458L191.665 29.2927L191.362 29.6904ZM203.113 38.6436L202.687 38.9056L207.164 46.1791L207.589 45.917L208.015 45.6549L203.539 38.3815L203.113 38.6436ZM207.589 45.917H207.089V64.3818H207.589H208.089V45.917H207.589ZM207.589 64.3818L207.236 64.7354L211.152 68.6523L211.505 68.2988L211.859 67.9453L207.943 64.0283L207.589 64.3818ZM211.505 68.2988H211.005V69.418H211.505H212.005V68.2988H211.505ZM211.505 69.418L211.282 69.8652L214.639 71.5439L214.863 71.0967L215.086 70.6495L211.729 68.9708L211.505 69.418ZM214.863 71.0967L214.479 71.4168L217.277 74.7742L217.661 74.4541L218.045 74.134L215.247 70.7766L214.863 71.0967ZM217.661 74.4541L217.277 74.7742L222.872 81.4881L223.256 81.168L223.64 80.8478L218.045 74.134L217.661 74.4541ZM223.256 81.168L222.788 81.3435L224.467 85.8201L224.935 85.6445L225.403 85.469L223.725 80.9924L223.256 81.168ZM224.935 85.6445L224.56 85.9753L232.953 95.488L233.328 95.1572L233.703 94.8264L225.31 85.3138L224.935 85.6445ZM233.328 95.1572L232.88 95.3809L234 97.6182L234.447 97.3945L234.894 97.1708L233.775 94.9335L233.328 95.1572ZM234.447 97.3945L234.261 97.8588L237.059 98.9779L237.245 98.5137L237.43 98.0494L234.632 96.9303L234.447 97.3945ZM237.245 98.5137L236.797 98.7372L243.511 112.167L243.958 111.943L244.406 111.72L237.692 98.2901L237.245 98.5137ZM243.958 111.943L243.467 112.034L249.063 142.249L249.554 142.158L250.046 142.067L244.45 111.852L243.958 111.943ZM249.554 142.158H249.054V147.194H249.554H250.054V142.158H249.554ZM249.554 147.194L249.396 147.669L251.075 148.228L251.233 147.754L251.391 147.28L249.712 146.72L249.554 147.194ZM251.233 147.754L251.146 148.246L260.658 149.924L260.745 149.432L260.831 148.939L251.32 147.262L251.233 147.754ZM260.745 149.432V149.932H268.019V149.432V148.932H260.745V149.432ZM268.019 149.432L268.131 149.919L275.406 148.241L275.293 147.754L275.181 147.267L267.907 148.944L268.019 149.432ZM275.293 147.754V148.254H279.209V147.754V147.254H275.293V147.754ZM279.209 147.754L278.932 148.17L280.611 149.289L280.888 148.873L281.166 148.457L279.487 147.338L279.209 147.754ZM280.888 148.873V149.373H282.567V148.873V148.373H280.888V148.873ZM282.567 148.873L282.791 149.32L286.148 147.642L285.924 147.194L285.701 146.747L282.343 148.426L282.567 148.873ZM285.924 147.194V147.694H288.722V147.194V146.694H285.924V147.194ZM288.722 147.194L288.499 147.642L289.618 148.201L289.841 147.754L290.065 147.307L288.946 146.747L288.722 147.194ZM289.841 147.754V148.254H302.71V147.754V147.254H289.841V147.754ZM302.71 147.754L302.896 148.218L305.694 147.099L305.508 146.635L305.323 146.171L302.525 147.29L302.71 147.754ZM305.508 146.635V147.135H348.033V146.635V146.135H305.508V146.635ZM348.033 146.635L347.679 146.988L377.335 176.644L377.689 176.29L378.043 175.936L348.386 146.281L348.033 146.635ZM377.689 176.29H377.189V197.553H377.689H378.189V176.29H377.689ZM377.689 197.553V197.053H370.415V197.553V198.053H377.689V197.553ZM370.415 197.553H369.915V202.588H370.415H370.915V197.553H370.415ZM370.415 202.588V203.088H376.57V202.588V202.088H370.415V202.588ZM376.57 202.588H376.07V248.471H376.57H377.07V202.588H376.57ZM376.57 248.471V248.971H390.558V248.471V247.971H376.57V248.471ZM390.558 248.471H390.058V256.304H390.558H391.058V248.471H390.558ZM390.558 256.304V256.804H391.677V256.304V255.804H390.558V256.304ZM391.677 256.304H391.177V266.936H391.677H392.177V256.304H391.677ZM391.677 266.936V266.436H390.558V266.936V267.436H391.677V266.936ZM390.558 266.936H390.058V274.209H390.558H391.058V266.936H390.558ZM390.558 274.209V273.709H358.665V274.209V274.709H390.558V274.209ZM358.665 274.209H359.165V271.412H358.665H358.165V274.209H358.665ZM358.665 271.412V270.912H356.986V271.412V271.912H358.665V271.412ZM356.986 271.412H356.486V279.805H356.986H357.486V271.412H356.986ZM356.986 279.805V279.305H350.271V279.805V280.305H356.986V279.805ZM350.271 279.805H349.771V281.483H350.271H350.771V279.805H350.271ZM350.271 281.483V281.983H365.379V281.483V280.983H350.271V281.483ZM365.379 281.483H364.879V303.865H365.379H365.879V281.483H365.379ZM365.379 303.865V304.365H390.558V303.865V303.365H365.379V303.865ZM390.558 303.865H390.058V345.271H390.558H391.058V303.865H390.558ZM390.558 345.271V344.771H362.582V345.271V345.771H390.558V345.271ZM362.582 345.271H362.082V375.486H362.582H363.082V345.271H362.582ZM362.582 375.486V374.986H287.603V375.486V375.986H362.582V375.486ZM287.603 375.486H288.103V373.808H287.603H287.103V375.486H287.603ZM287.603 373.808V373.308H285.365V373.808V374.308H287.603V373.808ZM285.365 373.808H284.865V375.486H285.365H285.865V373.808H285.365ZM285.365 375.486V374.986H245.078V375.486V375.986H285.365V375.486ZM245.078 375.486H244.578V406.82H245.078H245.578V375.486H245.078ZM245.078 406.82L244.59 406.712L241.233 421.819L241.721 421.928L242.209 422.036L245.566 406.929L245.078 406.82ZM241.721 421.928L241.254 421.749L228.384 455.321L228.851 455.5L229.318 455.679L242.188 422.107L241.721 421.928ZM228.851 455.5V455H203.113V455.5V456H228.851V455.5ZM203.113 455.5L203.569 455.294L190.699 426.758L190.244 426.964L189.788 427.169L202.657 455.706L203.113 455.5ZM231.089 116.979L231.409 116.594L224.695 111L224.375 111.384L224.054 111.768L230.769 117.363L231.089 116.979ZM224.375 111.384H224.875V108.586H224.375H223.875V111.384H224.375ZM224.375 108.586L224.728 108.232L202.907 86.4101L202.553 86.7637L202.2 87.1172L224.021 108.939L224.375 108.586ZM202.553 86.7637H203.053V82.2871H202.553H202.053V86.7637H202.553ZM202.553 82.2871L202.939 81.9692L195.105 72.4575L194.719 72.7754L194.333 73.0933L202.167 82.605L202.553 82.2871ZM194.719 72.7754H195.219V69.9775H194.719H194.219V72.7754H194.719ZM194.719 69.9775L195.01 69.5707L191.093 66.7728L190.802 67.1797L190.512 67.5865L194.429 70.3844L194.719 69.9775ZM190.802 67.1797L190.924 66.6946L188.685 66.135L188.564 66.6201L188.443 67.1052L190.681 67.6648L190.802 67.1797ZM188.564 66.6201L188.944 66.2948L185.587 62.3778L185.208 62.7031L184.828 63.0285L188.184 66.9455L188.564 66.6201ZM185.208 62.7031V62.2031H182.969V62.7031V63.2031H185.208V62.7031ZM182.969 62.7031L182.804 62.2312L171.613 66.1482L171.778 66.6201L171.943 67.092L183.134 63.175L182.969 62.7031ZM171.778 66.6201L171.331 66.3965L170.771 67.5157L171.218 67.7393L171.665 67.9629L172.225 66.8437L171.778 66.6201ZM171.218 67.7393L170.845 67.4071L161.892 77.4794L162.266 77.8115L162.64 78.1437L171.592 68.0714L171.218 67.7393ZM162.266 77.8115H161.766V80.6084H162.266H162.766V77.8115H162.266ZM162.266 80.6084L161.876 80.2961L146.209 99.88L146.599 100.192L146.99 100.505L162.657 80.9207L162.266 80.6084ZM146.599 100.192H146.099V103.55H146.599H147.099V100.192H146.599ZM146.599 103.55V103.05H141.003V103.55V104.05H146.599V103.55ZM141.003 103.55L140.603 103.25L137.246 107.726L137.646 108.026L138.046 108.326L141.403 103.85L141.003 103.55ZM137.646 108.026L137.153 107.944L136.593 111.302L137.086 111.384L137.58 111.466L138.139 108.109L137.646 108.026ZM137.086 111.384L136.686 111.084L133.33 115.559L133.73 115.859L134.13 116.159L137.486 111.684L137.086 111.384ZM133.73 115.859H133.23V119.776H133.73H134.23V115.859H133.73ZM133.73 119.776L133.323 120.067L136.12 123.984L136.527 123.693L136.934 123.403L134.137 119.486L133.73 119.776ZM136.527 123.693V124.193H137.646V123.693V123.193H136.527V123.693ZM137.646 123.693L137.209 123.936L140.007 128.972L140.444 128.729L140.881 128.487L138.083 123.451L137.646 123.693ZM140.444 128.729L140.691 129.164L161.394 117.413L161.147 116.979L160.9 116.544L140.197 128.295L140.444 128.729ZM161.147 116.979V117.479H174.576V116.979V116.479H161.147V116.979ZM174.576 116.979L174.69 117.465L184.203 115.227L184.088 114.74L183.974 114.254L174.461 116.492L174.576 116.979ZM184.088 114.74V115.24H190.243V114.74V114.24H184.088V114.74ZM190.243 114.74L190.038 115.197L227.528 131.984L227.732 131.527L227.936 131.071L190.447 114.284L190.243 114.74ZM227.732 131.527L228.219 131.64L231.577 117.091L231.089 116.979L230.602 116.866L227.245 131.415L227.732 131.527ZM193.6 217.696H194.1V207.624H193.6H193.1V217.696H193.6ZM193.6 207.624V208.124H201.994V207.624V207.124H193.6V207.624ZM201.994 207.624L202.347 207.978L208.501 201.823L208.148 201.47L207.794 201.116L201.64 207.27L201.994 207.624ZM208.148 201.47H208.648V180.207H208.148H207.648V201.47H208.148ZM208.148 180.207V180.707H238.364V180.207V179.707H208.148V180.207ZM238.364 180.207H238.864V164.54H238.364H237.864V180.207H238.364ZM238.364 164.54V164.04H231.089V164.54V165.04H238.364V164.54ZM231.089 164.54H230.589V170.135H231.089H231.589V164.54H231.089ZM231.089 170.135V169.635H215.982V170.135V170.635H231.089V170.135ZM215.982 170.135H216.482V140.479H215.982H215.482V170.135H215.982ZM215.982 140.479V139.979H204.792V140.479V140.979H215.982V140.479ZM204.792 140.479L205.171 140.154L201.814 136.237L201.434 136.562L201.054 136.888L204.412 140.805L204.792 140.479ZM201.434 136.562L201.658 136.115L192.705 131.639L192.481 132.086L192.257 132.533L201.21 137.01L201.434 136.562ZM192.481 132.086V131.586H188.004V132.086V132.586H192.481V132.086ZM188.004 132.086L188.42 131.809L187.302 130.131L186.886 130.408L186.47 130.685L187.588 132.363L188.004 132.086ZM186.886 130.408H187.386V129.289H186.886H186.386V130.408H186.886ZM186.886 129.289L186.978 128.798L178.025 127.119L177.933 127.61L177.841 128.102L186.794 129.78L186.886 129.289ZM177.933 127.61V127.11H175.135V127.61V128.11H177.933V127.61ZM175.135 127.61L174.865 127.19L167.032 132.225L167.302 132.646L167.573 133.066L175.406 128.031L175.135 127.61ZM167.302 132.646V132.146H165.624V132.646V133.146H167.302V132.646ZM165.624 132.646H165.124V133.765H165.624H166.124V132.646H165.624ZM165.624 133.765V133.265H162.266V133.765V134.265H165.624V133.765ZM162.266 133.765L161.975 133.358L154.142 138.953L154.432 139.36L154.723 139.767L162.557 134.172L162.266 133.765ZM154.432 139.36V138.86H131.492V139.36V139.86H154.432V139.36ZM131.492 139.36H130.992V166.777H131.492H131.992V139.36H131.492ZM131.492 166.777V167.277H148.278V166.777V166.277H131.492V166.777ZM148.278 166.777H147.778V207.624H148.278H148.778V166.777H148.278ZM148.278 207.624V208.124H191.921V207.624V207.124H148.278V207.624ZM191.921 207.624H191.421V217.696H191.921H192.421V207.624H191.921ZM191.921 217.696V218.196H193.6V217.696V217.196H191.921V217.696ZM320.616 199.231H321.116V178.528H320.616H320.116V199.231H320.616ZM320.616 178.528V178.028H315.02V178.528V179.028H320.616V178.528ZM315.02 178.528H315.52V164.54H315.02H314.52V178.528H315.02ZM315.02 164.54V164.04H285.241V164.54V165.04H315.02V164.54ZM285.241 164.54H284.741V165.659H285.241H285.741V164.54H285.241ZM285.241 165.659V165.159H257.388V165.659V166.159H285.241V165.659ZM257.388 165.659H257.888V164.54H257.388H256.888V165.659H257.388ZM257.388 164.54V164.04H249.554V164.54V165.04H257.388V164.54ZM249.554 164.54H249.054V180.207H249.554H250.054V164.54H249.554ZM249.554 180.207V180.707H286.484V180.207V179.707H249.554V180.207ZM286.484 180.207H285.984V197.553H286.484H286.984V180.207H286.484ZM286.484 197.553V197.053H278.09V197.553V198.053H286.484V197.553ZM278.09 197.553H277.59V199.231H278.09H278.59V197.553H278.09ZM278.09 199.231V199.731H320.616V199.231V198.731H278.09V199.231ZM125.336 282.603H125.836V264.697H125.336H124.836V282.603H125.336ZM125.336 264.697V265.197H148.278V264.697V264.197H125.336V264.697ZM148.278 264.697L148.492 265.149L159.123 260.113L158.909 259.661L158.695 259.209L148.064 264.245L148.278 264.697ZM158.909 259.661H159.409V222.731H158.909H158.409V259.661H158.909ZM158.909 222.731V222.231H140.444V222.731V223.231H158.909V222.731ZM140.444 222.731H139.944V228.327H140.444H140.944V222.731H140.444ZM140.444 228.327V227.827H122.539V228.327V228.827H140.444V228.327ZM122.539 228.327H123.039V193.636H122.539H122.039V228.327H122.539ZM122.539 193.636V194.136H134.29V193.636V193.136H122.539V193.636ZM134.29 193.636H134.79V190.278H134.29H133.79V193.636H134.29ZM134.29 190.278V189.778H94.0024V190.278V190.778H134.29V190.278ZM94.0024 190.278H93.5024V208.743H94.0024H94.5024V190.278H94.0024ZM94.0024 208.743V208.243H77.7759V208.743V209.243H94.0024V208.743ZM77.7759 208.743L77.276 208.73L76.7165 230.553L77.2163 230.565L77.7162 230.578L78.2757 208.756L77.7759 208.743ZM77.2163 230.565V230.065H72.1802V230.565V231.065H77.2163V230.565ZM72.1802 230.565H71.6802V232.244H72.1802H72.6802V230.565H72.1802ZM72.1802 232.244V232.744H77.2163V232.244V231.744H72.1802V232.244ZM77.2163 232.244H76.7163V259.661H77.2163H77.7163V232.244H77.2163ZM77.2163 259.661V260.161H113.586V259.661V259.161H77.2163V259.661ZM113.586 259.661H113.086V274.209H113.586H114.086V259.661H113.586ZM113.586 274.209V273.709H106.872V274.209V274.709H113.586V274.209ZM106.872 274.209H106.372V275.328H106.872H107.372V274.209H106.872ZM106.872 275.328V275.828H110.229V275.328V274.828H106.872V275.328ZM110.229 275.328H109.729V282.603H110.229H110.729V275.328H110.229ZM110.229 282.603V283.103H125.336V282.603V282.103H110.229V282.603ZM222.137 384.438L222.523 384.757L243.784 359.019L243.399 358.7L243.013 358.382L221.752 384.12L222.137 384.438ZM243.399 358.7V359.2H285.365V358.7V358.2H243.399V358.7ZM285.365 358.7H284.865V360.938H285.365H285.865V358.7H285.365ZM285.365 360.938V361.438H287.603V360.938V360.438H285.365V360.938ZM287.603 360.938H288.103V358.7H287.603H287.103V360.938H287.603ZM287.603 358.7V359.2H293.757V358.7V358.2H287.603V358.7ZM293.757 358.7H294.257V340.235H293.757H293.257V358.7H293.757ZM293.757 340.235V339.735H287.603V340.235V340.735H293.757V340.235ZM287.603 340.235H288.103V319.845H287.603H287.103V340.235H287.603ZM287.603 319.845V320.345H298.793V319.845V319.345H287.603V319.845ZM298.793 319.845H299.293V263.578H298.793H298.293V319.845H298.793ZM298.793 263.578V263.078H280.329V263.578V264.078H298.793V263.578ZM280.329 263.578H279.829V267.495H280.329H280.829V263.578H280.329ZM280.329 267.495L280.105 267.048L272.272 270.965L272.496 271.412L272.719 271.859L280.552 267.942L280.329 267.495ZM272.496 271.412V270.912H265.221V271.412V271.912H272.496V271.412ZM265.221 271.412L265.445 270.965L257.612 267.048L257.388 267.495L257.165 267.942L264.998 271.859L265.221 271.412ZM257.388 267.495H257.888V263.578H257.388H256.888V267.495H257.388ZM257.388 263.578V263.078H256.829V263.578V264.078H257.388V263.578ZM256.829 263.578H256.329V271.412H256.829H257.329V263.578H256.829ZM256.829 271.412V270.912H236.125V271.412V271.912H256.829V271.412ZM236.125 271.412L236.479 271.059L227.526 262.105L227.172 262.459L226.819 262.813L235.772 271.766L236.125 271.412ZM227.172 262.459H227.672V252.388H227.172H226.672V262.459H227.172ZM227.172 252.388L227.526 252.741L237.039 243.229L236.685 242.875L236.332 242.521L226.819 252.034L227.172 252.388ZM236.685 242.875V243.375H256.829V242.875V242.375H236.685V242.875ZM256.829 242.875H256.329V250.149H256.829H257.329V242.875H256.829ZM256.829 250.149V250.649H257.947V250.149V249.649H256.829V250.149ZM257.947 250.149H258.447V199.231H257.947H257.447V250.149H257.947ZM257.947 199.231V199.731H267.459V199.231V198.731H257.947V199.231ZM267.459 199.231H267.959V197.553H267.459H266.959V199.231H267.459ZM267.459 197.553V197.053H265.221V197.553V198.053H267.459V197.553ZM265.221 197.553H265.721V192.517H265.221H264.721V197.553H265.221ZM265.221 192.517V192.017H222.137V192.517V193.017H265.221V192.517ZM222.137 192.517H221.637V228.327H222.137H222.637V192.517H222.137ZM222.137 228.327V227.827H193.6V228.327V228.827H222.137V228.327ZM193.6 228.327H194.1V225.529H193.6H193.1V228.327H193.6ZM193.6 225.529V225.029H191.921V225.529V226.029H193.6V225.529ZM191.921 225.529H191.421V228.327H191.921H192.421V225.529H191.921ZM191.921 228.327V227.827H176.254V228.327V228.827H191.921V228.327ZM176.254 228.327H175.754V237.839H176.254H176.754V228.327H176.254ZM176.254 237.839V238.339H187.446V237.839V237.339H176.254V237.839ZM187.446 237.839H186.946V260.78H187.446H187.946V237.839H187.446ZM187.446 260.78V260.28H176.254V260.78V261.28H187.446V260.78ZM176.254 260.78H175.754V266.376H176.254H176.754V260.78H176.254ZM176.254 266.376V266.876H177.933V266.376V265.876H176.254V266.376ZM177.933 266.376H177.433V278.126H177.933H178.433V266.376H177.933ZM177.933 278.126V277.626H176.254V278.126V278.626H177.933V278.126ZM176.254 278.126H175.754V284.281H176.254H176.754V278.126H176.254ZM176.254 284.281V284.781H192.481V284.281V283.781H176.254V284.281ZM192.481 284.281H191.981V301.067H192.481H192.981V284.281H192.481ZM192.481 301.067V300.567H191.362V301.067V301.567H192.481V301.067ZM191.362 301.067H190.862V303.865H191.362H191.862V301.067H191.362ZM191.362 303.865V304.365H192.481V303.865V303.365H191.362V303.865ZM192.481 303.865H191.981V320.651H192.481H192.981V303.865H192.481ZM192.481 320.651V320.151H171.218V320.651V321.151H192.481V320.651ZM171.218 320.651H171.718V312.817H171.218H170.718V320.651H171.218ZM171.218 312.817V312.317H163.385V312.817V313.317H171.218V312.817ZM163.385 312.817H162.885V320.651H163.385H163.885V312.817H163.385ZM163.385 320.651V320.151H151.076V320.651V321.151H163.385V320.651ZM151.076 320.651H150.576V322.89H151.076H151.576V320.651H151.076ZM151.076 322.89V323.39H160.028V322.89V322.39H151.076V322.89ZM160.028 322.89H159.528V327.925H160.028H160.528V322.89H160.028ZM160.028 327.925V328.425H180.731V327.925V327.425H160.028V327.925ZM180.731 327.925H180.231V356.462H180.731H181.231V327.925H180.731ZM180.731 356.462V355.962H175.695V356.462V356.962H180.731V356.462ZM175.695 356.462H175.195V358.7H175.695H176.195V356.462H175.695ZM175.695 358.7V359.2H185.767V358.7V358.2H175.695V358.7ZM185.767 358.7L185.377 359.014L206.08 384.752L206.469 384.438L206.859 384.125L186.157 358.387L185.767 358.7ZM206.469 384.438V384.938H222.137V384.438V383.938H206.469V384.438ZM325.652 293.233L326.059 293.524L334.451 281.774L334.044 281.483L333.638 281.193L325.245 292.943L325.652 293.233ZM334.044 281.483V281.983H337.402V281.483V280.983H334.044V281.483ZM337.402 281.483H337.902V279.805H337.402H336.902V281.483H337.402ZM337.402 279.805V279.305H329.008V279.805V280.305H337.402V279.805ZM329.008 279.805H329.508V257.423H329.008H328.508V279.805H329.008ZM329.008 257.423L329.345 257.793L335.5 252.198L335.164 251.828L334.827 251.458L328.672 257.053L329.008 257.423ZM335.164 251.828V252.328H350.831V251.828V251.328H335.164V251.828ZM350.831 251.828L350.494 252.198L356.65 257.793L356.986 257.423L357.322 257.053L351.167 251.458L350.831 251.828ZM356.986 257.423H356.486V260.221H356.986H357.486V257.423H356.986ZM356.986 260.221V260.721H358.665V260.221V259.721H356.986V260.221ZM358.665 260.221H359.165V211.541H358.665H358.165V260.221H358.665ZM358.665 211.541V211.041H299.353V211.541V212.041H358.665V211.541ZM299.353 211.541H298.853V224.97H299.353H299.853V211.541H299.353ZM299.353 224.97V224.47H285.924V224.97V225.47H299.353V224.97ZM285.924 224.97H285.424V250.149H285.924H286.424V224.97H285.924ZM285.924 250.149V249.649H280.329V250.149V250.649H285.924V250.149ZM280.329 250.149H279.829V251.269H280.329H280.829V250.149H280.329ZM280.329 251.269V251.769H298.793V251.269V250.769H280.329V251.269ZM298.793 251.269H299.293V235.042H298.793H298.293V251.269H298.793ZM298.793 235.042V235.542H321.175V235.042V234.542H298.793V235.042ZM321.175 235.042H320.675V258.542H321.175H321.675V235.042H321.175ZM321.175 258.542V258.042H315.859V258.542V259.042H321.175V258.542ZM315.859 258.542H315.359V268.614H315.859H316.359V258.542H315.859ZM315.859 268.614V269.114H321.175V268.614V268.114H315.859V268.614ZM321.175 268.614H320.675V293.233H321.175H321.675V268.614H321.175ZM321.175 293.233V293.733H325.652V293.233V292.733H321.175V293.233ZM156.111 313.937H156.611V303.306H156.111H155.611V313.937H156.111ZM156.111 303.306V303.806H182.969V303.306V302.806H156.111V303.306ZM182.969 303.306H183.469V301.627H182.969H182.469V303.306H182.969ZM182.969 301.627V301.127H151.076V301.627V302.127H182.969V301.627ZM151.076 301.627H150.576V313.937H151.076H151.576V301.627H151.076ZM151.076 313.937V314.437H156.111V313.937V313.437H151.076V313.937ZM350.831 358.7H351.331V329.044H350.831H350.331V358.7H350.831ZM350.831 329.044V329.544H372.653V329.044V328.544H350.831V329.044ZM372.653 329.044H373.153V317.854H372.653H372.153V329.044H372.653ZM372.653 317.854V317.354H348.033V317.854V318.354H372.653V317.854ZM348.033 317.854H347.533V356.462H348.033H348.533V317.854H348.033ZM348.033 356.462V355.962H304.389V356.462V356.962H348.033V356.462ZM304.389 356.462H303.889V358.7H304.389H304.889V356.462H304.389ZM304.389 358.7V359.2H350.831V358.7V358.2H304.389V358.7ZM125.896 360.938H126.396V358.7H125.896H125.396V360.938H125.896ZM125.896 358.7V359.2H166.743V358.7V358.2H125.896V358.7ZM166.743 358.7H167.243V337.438H166.743H166.243V358.7H166.743ZM166.743 337.438V336.938H160.028V337.438V337.938H166.743V337.438ZM160.028 337.438H159.528V340.235H160.028H160.528V337.438H160.028ZM160.028 340.235L159.728 339.835L157.49 341.513L157.79 341.913L158.089 342.313L160.328 340.635L160.028 340.235ZM157.79 341.913V341.413H113.586V341.913V342.413H157.79V341.913ZM113.586 341.913L113.233 341.56L102.041 352.751L102.395 353.104L102.749 353.458L113.94 342.267L113.586 341.913ZM102.395 353.104V353.604H124.217V353.104V352.604H102.395V353.104ZM124.217 353.104H123.717V360.938H124.217H124.717V353.104H124.217ZM124.217 360.938V361.438H125.896V360.938V360.438H124.217V360.938Z" fill="#B27C40"/>
<circle cx="214.863" cy="181.885" r="1.98816" transform="rotate(180 214.863 181.885)" stroke="#B27C40" stroke-width="0.5"/>
<circle cx="80.014" cy="325.687" r="1.42862" transform="rotate(180 80.014 325.687)" stroke="#B27C40" stroke-width="0.5"/>
<path d="M315.58 334.64H335.164V324.568H309.425V334.64H309.985M315.58 334.64V340.235H309.985V334.64M315.58 334.64H309.985M348.033 322.889H342.997V317.853H348.033M365.379 303.865H359.784V293.234H365.379M306.627 164.54V159.504H301.591V164.54M213.184 180.207V185.802H208.148M103.515 156.147H109.67V150.551H103.515M87.8475 208.743V202.588H94.0025M84.4903 275.328V280.364M84.4903 280.364H78.8949M84.4903 280.364H90.0857V275.328M151.075 310.579H134.289V303.305H151.075M164.504 301.627V293.234H159.469V301.627M125.337 282.602H130.932V278.686H125.337M158.349 260.221H164.504V249.59H158.909" stroke="#B27C40"/>
<path d="M82.8118 299.389V289.317H78.895" stroke="#B27C40" stroke-width="0.5"/>
<path d="M164.505 293.234V290.436H159.469V293.234M113.3 341.914H84.4905M164.505 249.59V246.232H158.909M140.444 222.732H126.456M122.539 222.732H126.456M126.456 222.732V219.375H122.539M94.0026 199.791H90.6454V202.588M51.4777 191.957H58.1921M74.4188 191.957H58.1921M58.1921 191.957V188.04H51.4777M106.872 150.551V147.754H103.515M342.438 251.828L329.009 265.257M321.176 242.316H314.461V235.042M321.176 240.637H315.58V235.042M298.794 278.126H304.949V271.412H298.794M298.794 272.531H303.83V277.007H298.794M329.009 324.568V319.532H315.58V324.568M191.922 210.981H172.338V207.624M315.58 293.234H303.83V298.27H298.794M303.83 292.115H315.58M351.391 181.326V173.492L346.914 169.576H339.081L334.604 173.492V181.326L339.081 185.802H346.914L351.391 181.326ZM348.033 180.207V182.445H344.676L342.998 184.124L341.319 182.445H337.962V180.207L336.283 177.969L337.962 175.73V172.933H341.319L342.998 171.254L344.676 172.933H348.033V175.73L349.712 177.969L348.033 180.207Z" stroke="#B27C40" stroke-width="0.5"/>
<path d="M109.67 309.46V298.269H115.265V309.46M109.67 309.46H104.074V315.056H115.265V309.46M109.67 309.46H115.265" stroke="#B27C40"/>
<path d="M134.565 193.636V208.184" stroke="#B27C40" stroke-width="0.5"/>
<path d="M321.176 293.234H315.58V292.115H321.176M298.794 293.234H303.83V292.115H298.794M390.558 328.485H387.201M372.653 328.485H376.01M257.388 246.232H262.983V241.756H257.948" stroke="#B27C40"/>
<circle cx="219.339" cy="225.529" r="3.10723" transform="rotate(180 219.339 225.529)" stroke="#B27C40" stroke-width="0.5"/>
<circle cx="146.599" cy="168.456" r="1.98816" transform="rotate(180 146.599 168.456)" stroke="#B27C40" stroke-width="0.5"/>
<path d="M334.604 333.521H309.985M309.985 325.687H334.604" stroke="#B27C40" stroke-opacity="0.23"/>
<path d="M392.796 256.304H397.273L398.951 258.822L400.63 261.34L398.951 263.858L397.273 266.376H392.796L396.154 261.34L392.796 256.304Z" fill="white"/>
<path d="M12.3098 218.255H16.7861L18.4647 220.773L20.1433 223.291L18.4647 225.809L16.7861 228.327H12.3098L13.8019 226.089L15.667 223.291L13.8019 220.494L12.3098 218.255Z" fill="white"/>
<path d="M218.22 252.387H222.696L224.375 254.905L226.054 257.423L224.375 259.941L222.696 262.459H218.22L221.577 257.423L218.22 252.387Z" fill="white"/>
<path d="M179.052 267.495H183.529L185.207 270.013L186.886 272.531L185.207 275.049L183.529 277.567H179.052L182.41 272.531L179.052 267.495Z" fill="white"/>
<path d="M183.82 270.013L185.499 272.531L183.82 275.049H207.371L207.589 260.221H220.459H221.866V254.947H202.41V270.013H183.82Z" fill="white" fill-opacity="0.48"/>
<path d="M302.151 317.294H340.2V347.509H302.151V317.294ZM316.08 335.139H335.664V324.068H329.258V319.281H315.33V324.068H308.924V335.139H309.484V340.734H316.08V335.139Z" fill="#F08234" fill-opacity="0.23"/>
<path d="M99.0381 287.079H142.123V331.842H99.0381V287.079ZM115.766 315.556V297.77H109.17V308.96H103.574V315.556H115.766ZM142.063 311.079V302.806H133.789V311.079H142.063Z" fill="#F08234" fill-opacity="0.23"/>
<path d="M324.203 345.08V337.08H327.265C327.843 337.08 328.324 337.171 328.707 337.354C329.092 337.533 329.38 337.779 329.57 338.092C329.763 338.404 329.859 338.758 329.859 339.154C329.859 339.48 329.796 339.758 329.671 339.99C329.546 340.219 329.378 340.406 329.167 340.549C328.957 340.692 328.721 340.795 328.46 340.857V340.936C328.744 340.951 329.016 341.038 329.277 341.197C329.54 341.354 329.755 341.575 329.921 341.861C330.088 342.148 330.171 342.494 330.171 342.9C330.171 343.314 330.071 343.687 329.871 344.018C329.67 344.346 329.368 344.605 328.964 344.795C328.561 344.985 328.053 345.08 327.441 345.08H324.203ZM325.652 343.869H327.21C327.736 343.869 328.115 343.769 328.347 343.568C328.582 343.365 328.699 343.105 328.699 342.787C328.699 342.55 328.64 342.337 328.523 342.146C328.406 341.954 328.239 341.803 328.023 341.693C327.807 341.581 327.549 341.525 327.25 341.525H325.652V343.869ZM325.652 340.482H327.085C327.335 340.482 327.561 340.437 327.761 340.346C327.962 340.252 328.119 340.12 328.234 339.951C328.351 339.779 328.41 339.576 328.41 339.342C328.41 339.032 328.3 338.777 328.082 338.576C327.865 338.376 327.544 338.275 327.117 338.275H325.652V340.482Z" fill="white"/>
<path d="M127.997 323.818H129.543L126.727 315.818H124.938L122.118 323.818H123.665L125.801 317.458H125.864L127.997 323.818ZM127.946 320.681H123.727V321.845H127.946V320.681Z" fill="white"/>
</svg>
