<svg width="416" height="474" viewBox="0 0 416 474" fill="none" xmlns="http://www.w3.org/2000/svg">
<path d="M15.1076 215.178L13.4289 212.66L15.1076 210.142H0V382.76H415.178V248.471V247.911H402.868L401.003 250.709L402.868 253.506H410.142V377.724H5.03585V215.178H15.1076Z" fill="white" fill-opacity="0.48"/>
<path d="M224.934 47.0361L228.851 67.7393V98.5137H289.282V100.752H291.52V98.5137H330.687V120.896H319.497L330.687 132.087H336.283V159.504H325.092V174.611H336.283V198.672H319.497V199.791H366.498V224.97H358.105V241.756H351.39V243.435H365.378V236.721H385.522L392.796 244.554V256.863L385.522 264.697H365.378V257.423H363.701V307.223H322.294L311.664 312.817V359.819L273.615 398.986H271.376V400.105L260.185 412.975V429.762C260.184 430.658 257.574 436.103 256.269 438.714L247.875 449.345V451.023L243.958 455.5H222.697L220.458 451.023L219.899 448.785L223.816 444.31L212.065 435.356L207.588 428.083V409.618L203.672 405.701V404.582L200.315 402.903L197.517 399.546L191.921 392.832L190.243 388.355L181.85 378.843L180.731 376.605L177.933 375.486L171.219 362.057L165.624 331.842V326.806L163.945 326.246L154.433 324.568H147.159L139.884 326.246H135.968L134.29 325.127H132.611L129.253 326.806H126.456L125.336 326.246H112.467L109.669 327.365H67.145L37.4888 297.71V276.447H44.7632V271.412H38.6079V225.529H24.6196V217.696H23.5005V207.064H24.6196V199.791H56.5132V202.588H58.1919V194.195H64.9067V192.517H49.7983V170.135H24.6196V128.729H52.5962V98.5137H127.575V100.192H129.813V98.5137H170.1V67.1797L173.457 52.0723L186.327 18.5H212.065L224.934 47.0361ZM184.088 357.021L190.803 362.616V365.414L212.625 387.236V391.713L220.458 401.225V404.022L224.375 406.82L226.614 407.38L229.97 411.297H232.208L243.4 407.38L243.959 406.261L252.912 396.188V393.392L268.579 373.808V370.45H274.174L277.532 365.974L278.091 362.616L281.448 358.141V354.224L278.651 350.307H277.532L274.734 345.271L254.031 357.021H240.602L231.089 359.26H224.935L187.446 342.473L184.088 357.021ZM221.578 256.304V266.376H213.184L207.03 272.53V293.793H176.814V309.46H184.088V303.865H199.196V333.521H210.386L213.744 337.438L222.697 341.914H227.173L228.292 343.592V344.711L237.245 346.39H240.042L247.875 341.354H249.554V340.235H252.912L260.746 334.64H283.686V307.223H266.9V266.376H223.256V256.304H221.578ZM94.562 274.769V295.472H100.158V309.46H129.937V308.341H157.79V309.46H165.624V293.793H128.694V276.447H137.087V274.769H94.562ZM289.841 191.397V209.303H266.9L256.269 214.339V251.269H274.734V245.673H292.639V280.364H280.888V283.722H321.175V265.257H337.402L337.961 243.435H342.998V241.756H337.961V214.339H301.591V199.791H308.306V198.672H304.949V191.397H289.841ZM193.041 89.5615L171.779 115.3H129.813V113.062H127.575V115.3H121.42V133.765H127.575V154.155H116.384V210.422H134.849V206.505L142.682 202.588H149.957L157.79 206.505V210.422H158.349V202.588H179.052L188.005 211.541V221.612L178.493 231.125H158.349V223.851H157.231V274.769H147.718V276.447H149.957V281.483H193.041V245.673H221.578V248.471H223.256V245.673H238.923V236.161H227.732V213.22H238.923V207.624H237.245V195.874H238.923V189.719H222.697V172.933H223.816V170.135H222.697V153.349H243.959V161.183H251.792V153.349H264.102V151.11H255.15V146.075H234.447V117.538H239.483V115.3H229.411L208.708 89.5615H193.041ZM89.5259 180.767L81.1333 192.517H77.7759V194.195H86.1694V216.577L80.0142 222.172H64.3472L58.1919 216.577V213.779H56.5132V262.459H115.825V249.03H129.253V223.851H134.849V222.731H116.384V238.958H94.0024V215.458H99.3188V205.386H94.0024V180.767H89.5259ZM259.067 160.063V170.694H232.208V172.373H264.102V160.063H259.067ZM64.3472 115.3V144.956H42.5249V156.146H67.145V117.538H110.789V115.3H64.3472ZM289.282 113.062V115.3H248.435V136.562H255.15V133.765L257.388 132.087H301.591L312.783 120.896H290.96V113.062H289.282Z" fill="#271406"/>
<path d="M224.934 47.0361L225.425 46.9432L225.414 46.8848L225.39 46.8306L224.934 47.0361ZM228.851 67.7393H229.351V67.6924L229.342 67.6463L228.851 67.7393ZM228.851 98.5137H228.351V99.0137H228.851V98.5137ZM289.282 98.5137H289.782V98.0137H289.282V98.5137ZM289.282 100.752H288.782V101.252H289.282V100.752ZM291.52 100.752V101.252H292.02V100.752H291.52ZM291.52 98.5137V98.0137H291.02V98.5137H291.52ZM330.687 98.5137H331.187V98.0137H330.687V98.5137ZM330.687 120.896V121.396H331.187V120.896H330.687ZM319.497 120.896V120.396H318.29L319.143 121.249L319.497 120.896ZM330.687 132.087L330.333 132.44L330.48 132.587H330.687V132.087ZM336.283 132.087H336.783V131.587H336.283V132.087ZM336.283 159.504V160.004H336.783V159.504H336.283ZM325.092 159.504V159.004H324.592V159.504H325.092ZM325.092 174.611H324.592V175.111H325.092V174.611ZM336.283 174.611H336.783V174.111H336.283V174.611ZM336.283 198.672V199.172H336.783V198.672H336.283ZM319.497 198.672V198.172H318.997V198.672H319.497ZM319.497 199.791H318.997V200.291H319.497V199.791ZM366.498 199.791H366.998V199.291H366.498V199.791ZM366.498 224.97V225.47H366.998V224.97H366.498ZM358.105 224.97V224.47H357.605V224.97H358.105ZM358.105 241.756V242.256H358.605V241.756H358.105ZM351.39 241.756V241.256H350.89V241.756H351.39ZM351.39 243.435H350.89V243.935H351.39V243.435ZM365.378 243.435V243.935H365.878V243.435H365.378ZM365.378 236.721V236.221H364.878V236.721H365.378ZM385.522 236.721L385.888 236.38L385.74 236.221H385.522V236.721ZM392.796 244.554H393.296V244.357L393.163 244.213L392.796 244.554ZM392.796 256.863L393.163 257.204L393.296 257.06V256.863H392.796ZM385.522 264.697V265.197H385.74L385.888 265.037L385.522 264.697ZM365.378 264.697H364.878V265.197H365.378V264.697ZM365.378 257.423H365.878V256.923H365.378V257.423ZM363.701 257.423V256.923H363.201V257.423H363.701ZM363.701 307.223V307.723H364.201V307.223H363.701ZM322.294 307.223V306.723H322.171L322.062 306.78L322.294 307.223ZM311.664 312.817L311.431 312.375L311.164 312.516V312.817H311.664ZM311.664 359.819L312.022 360.168L312.164 360.022V359.819H311.664ZM273.615 398.986V399.486H273.826L273.973 399.335L273.615 398.986ZM271.376 398.986V398.486H270.876V398.986H271.376ZM271.376 400.105L271.754 400.434L271.876 400.292V400.105H271.376ZM260.185 412.975L259.808 412.647L259.685 412.788V412.975H260.185ZM260.185 429.762L260.685 429.762V429.762H260.185ZM256.269 438.714L256.661 439.024L256.693 438.983L256.716 438.937L256.269 438.714ZM247.875 449.345L247.483 449.035L247.375 449.171V449.345H247.875ZM247.875 451.023L248.252 451.353L248.375 451.211V451.023H247.875ZM243.958 455.5V456H244.185L244.335 455.829L243.958 455.5ZM222.697 455.5L222.25 455.724L222.388 456H222.697V455.5ZM220.458 451.023L219.973 451.145L219.987 451.198L220.011 451.247L220.458 451.023ZM219.899 448.785L219.523 448.456L219.35 448.653L219.414 448.906L219.899 448.785ZM223.816 444.31L224.192 444.639L224.545 444.236L224.119 443.912L223.816 444.31ZM212.065 435.356L211.639 435.619L211.688 435.698L211.762 435.754L212.065 435.356ZM207.588 428.083H207.088V428.225L207.163 428.345L207.588 428.083ZM207.588 409.618H208.088V409.411L207.942 409.265L207.588 409.618ZM203.672 405.701H203.172V405.908L203.319 406.055L203.672 405.701ZM203.672 404.582H204.172V404.273L203.896 404.135L203.672 404.582ZM200.315 402.903L199.931 403.223L199.998 403.304L200.091 403.351L200.315 402.903ZM197.517 399.546L197.901 399.226L197.901 399.226L197.517 399.546ZM191.921 392.832L191.453 393.008L191.483 393.087L191.537 393.152L191.921 392.832ZM190.243 388.355L190.711 388.18L190.679 388.094L190.618 388.025L190.243 388.355ZM181.85 378.843L181.403 379.066L181.432 379.125L181.475 379.174L181.85 378.843ZM180.731 376.605L181.178 376.382L181.093 376.212L180.917 376.141L180.731 376.605ZM177.933 375.486L177.486 375.71L177.571 375.88L177.747 375.951L177.933 375.486ZM171.219 362.057L170.728 362.148L170.74 362.217L170.772 362.28L171.219 362.057ZM165.624 331.842H165.124V331.888L165.132 331.933L165.624 331.842ZM165.624 326.806H166.124V326.445L165.782 326.331L165.624 326.806ZM163.945 326.246L164.103 325.772L164.068 325.76L164.032 325.754L163.945 326.246ZM154.433 324.568L154.52 324.076L154.477 324.068H154.433V324.568ZM147.159 324.568V324.068H147.102L147.046 324.081L147.159 324.568ZM139.884 326.246V326.746H139.941L139.997 326.733L139.884 326.246ZM135.968 326.246L135.691 326.662L135.817 326.746H135.968V326.246ZM134.29 325.127L134.567 324.711L134.441 324.627H134.29V325.127ZM132.611 325.127V324.627H132.493L132.387 324.68L132.611 325.127ZM129.253 326.806V327.306H129.371L129.477 327.253L129.253 326.806ZM126.456 326.806L126.232 327.253L126.338 327.306H126.456V326.806ZM125.336 326.246L125.56 325.799L125.454 325.746H125.336V326.246ZM112.467 326.246V325.746H112.371L112.282 325.782L112.467 326.246ZM109.669 327.365V327.865H109.766L109.855 327.829L109.669 327.365ZM67.145 327.365L66.7915 327.719L66.9379 327.865H67.145V327.365ZM37.4888 297.71H36.9888V297.917L37.1352 298.064L37.4888 297.71ZM37.4888 276.447V275.947H36.9888V276.447H37.4888ZM44.7632 276.447V276.947H45.2632V276.447H44.7632ZM44.7632 271.412H45.2632V270.912H44.7632V271.412ZM38.6079 271.412H38.1079V271.912H38.6079V271.412ZM38.6079 225.529H39.1079V225.029H38.6079V225.529ZM24.6196 225.529H24.1196V226.029H24.6196V225.529ZM24.6196 217.696H25.1196V217.196H24.6196V217.696ZM23.5005 217.696H23.0005V218.196H23.5005V217.696ZM23.5005 207.064V206.564H23.0005V207.064H23.5005ZM24.6196 207.064V207.564H25.1196V207.064H24.6196ZM24.6196 199.791V199.291H24.1196V199.791H24.6196ZM56.5132 199.791H57.0132V199.291H56.5132V199.791ZM56.5132 202.588H56.0132V203.088H56.5132V202.588ZM58.1919 202.588V203.088H58.6919V202.588H58.1919ZM58.1919 194.195V193.695H57.6919V194.195H58.1919ZM64.9067 194.195V194.695H65.4067V194.195H64.9067ZM64.9067 192.517H65.4067V192.017H64.9067V192.517ZM49.7983 192.517H49.2983V193.017H49.7983V192.517ZM49.7983 170.135H50.2983V169.635H49.7983V170.135ZM24.6196 170.135H24.1196V170.635H24.6196V170.135ZM24.6196 128.729V128.229H24.1196V128.729H24.6196ZM52.5962 128.729V129.229H53.0962V128.729H52.5962ZM52.5962 98.5137V98.0137H52.0962V98.5137H52.5962ZM127.575 98.5137H128.075V98.0137H127.575V98.5137ZM127.575 100.192H127.075V100.692H127.575V100.192ZM129.813 100.192V100.692H130.313V100.192H129.813ZM129.813 98.5137V98.0137H129.313V98.5137H129.813ZM170.1 98.5137V99.0137H170.6V98.5137H170.1ZM170.1 67.1797L169.612 67.0712L169.6 67.1248V67.1797H170.1ZM173.457 52.0723L172.99 51.8933L172.976 51.9278L172.968 51.9638L173.457 52.0723ZM186.327 18.5V18H185.983L185.86 18.321L186.327 18.5ZM212.065 18.5L212.521 18.2944L212.388 18H212.065V18.5ZM184.088 357.021L183.601 356.909L183.532 357.209L183.768 357.406L184.088 357.021ZM190.803 362.616H191.303V362.382L191.123 362.232L190.803 362.616ZM190.803 365.414H190.303V365.621L190.45 365.768L190.803 365.414ZM212.625 387.236H213.125V387.029L212.978 386.883L212.625 387.236ZM212.625 391.713H212.125V391.892L212.239 392.031L212.625 391.713ZM220.458 401.225H220.958V401.045L220.844 400.907L220.458 401.225ZM220.458 404.022H219.958V404.28L220.168 404.429L220.458 404.022ZM224.375 406.82L224.085 407.227L224.162 407.282L224.254 407.305L224.375 406.82ZM226.614 407.38L226.993 407.055L226.89 406.933L226.735 406.895L226.614 407.38ZM229.97 411.297L229.591 411.622L229.74 411.797H229.97V411.297ZM232.208 411.297V411.797H232.293L232.374 411.769L232.208 411.297ZM243.4 407.38L243.565 407.852L243.756 407.785L243.847 407.603L243.4 407.38ZM243.959 406.261L243.586 405.929L243.542 405.978L243.512 406.037L243.959 406.261ZM252.912 396.188L253.285 396.521L253.412 396.379V396.188H252.912ZM252.912 393.392L252.521 393.079L252.412 393.216V393.392H252.912ZM268.579 373.808L268.969 374.12L269.079 373.983V373.808H268.579ZM268.579 370.45V369.95H268.079V370.45H268.579ZM274.174 370.45V370.95H274.424L274.574 370.75L274.174 370.45ZM277.532 365.974L277.932 366.274L278.005 366.176L278.025 366.056L277.532 365.974ZM278.091 362.616L277.691 362.316L277.618 362.414L277.598 362.534L278.091 362.616ZM281.448 358.141L281.848 358.441L281.948 358.307V358.141H281.448ZM281.448 354.224H281.948V354.063L281.855 353.933L281.448 354.224ZM278.651 350.307L279.058 350.016L278.908 349.807H278.651V350.307ZM277.532 350.307L277.095 350.549L277.238 350.807H277.532V350.307ZM274.734 345.271L275.171 345.028L274.926 344.587L274.487 344.836L274.734 345.271ZM254.031 357.021V357.521H254.163L254.278 357.456L254.031 357.021ZM240.602 357.021V356.521H240.544L240.488 356.535L240.602 357.021ZM231.089 359.26V359.76H231.147L231.204 359.746L231.089 359.26ZM224.935 359.26L224.731 359.716L224.828 359.76H224.935V359.26ZM187.446 342.473L187.65 342.016L187.095 341.768L186.959 342.36L187.446 342.473ZM221.578 256.304V255.804H221.078V256.304H221.578ZM221.578 266.376V266.876H222.078V266.376H221.578ZM213.184 266.376V265.876H212.977L212.831 266.022L213.184 266.376ZM207.03 272.53L206.676 272.177L206.53 272.323V272.53H207.03ZM207.03 293.793V294.293H207.53V293.793H207.03ZM176.814 293.793V293.293H176.314V293.793H176.814ZM176.814 309.46H176.314V309.96H176.814V309.46ZM184.088 309.46V309.96H184.588V309.46H184.088ZM184.088 303.865V303.365H183.588V303.865H184.088ZM199.196 303.865H199.696V303.365H199.196V303.865ZM199.196 333.521H198.696V334.021H199.196V333.521ZM210.386 333.521L210.766 333.195L210.616 333.021H210.386V333.521ZM213.744 337.438L213.364 337.763L213.43 337.84L213.52 337.885L213.744 337.438ZM222.697 341.914L222.473 342.361L222.579 342.414H222.697V341.914ZM227.173 341.914L227.589 341.637L227.441 341.414H227.173V341.914ZM228.292 343.592H228.792V343.44L228.708 343.315L228.292 343.592ZM228.292 344.711H227.792V345.126L228.199 345.202L228.292 344.711ZM237.245 346.39L237.152 346.881L237.198 346.89H237.245V346.39ZM240.042 346.39V346.89H240.189L240.313 346.81L240.042 346.39ZM247.875 341.354V340.854H247.729L247.605 340.934L247.875 341.354ZM249.554 341.354V341.854H250.054V341.354H249.554ZM249.554 340.235V339.735H249.054V340.235H249.554ZM252.912 340.235V340.735H253.072L253.202 340.642L252.912 340.235ZM260.746 334.64V334.14H260.585L260.455 334.233L260.746 334.64ZM283.686 334.64V335.14H284.186V334.64H283.686ZM283.686 307.223H284.186V306.723H283.686V307.223ZM266.9 307.223H266.4V307.723H266.9V307.223ZM266.9 266.376H267.4V265.876H266.9V266.376ZM223.256 266.376H222.756V266.876H223.256V266.376ZM223.256 256.304H223.756V255.804H223.256V256.304ZM94.562 274.769V274.269H94.062V274.769H94.562ZM94.562 295.472H94.062V295.972H94.562V295.472ZM100.158 295.472H100.658V294.972H100.158V295.472ZM100.158 309.46H99.6577V309.96H100.158V309.46ZM129.937 309.46V309.96H130.437V309.46H129.937ZM129.937 308.341V307.841H129.437V308.341H129.937ZM157.79 308.341H158.29V307.841H157.79V308.341ZM157.79 309.46H157.29V309.96H157.79V309.46ZM165.624 309.46V309.96H166.124V309.46H165.624ZM165.624 293.793H166.124V293.293H165.624V293.793ZM128.694 293.793H128.194V294.293H128.694V293.793ZM128.694 276.447V275.947H128.194V276.447H128.694ZM137.087 276.447V276.947H137.587V276.447H137.087ZM137.087 274.769H137.587V274.269H137.087V274.769ZM289.841 191.397V190.897H289.341V191.397H289.841ZM289.841 209.303V209.803H290.341V209.303H289.841ZM266.9 209.303V208.803H266.787L266.686 208.851L266.9 209.303ZM256.269 214.339L256.055 213.887L255.769 214.022V214.339H256.269ZM256.269 251.269H255.769V251.769H256.269V251.269ZM274.734 251.269V251.769H275.234V251.269H274.734ZM274.734 245.673V245.173H274.234V245.673H274.734ZM292.639 245.673H293.139V245.173H292.639V245.673ZM292.639 280.364V280.864H293.139V280.364H292.639ZM280.888 280.364V279.864H280.388V280.364H280.888ZM280.888 283.722H280.388V284.222H280.888V283.722ZM321.175 283.722V284.222H321.675V283.722H321.175ZM321.175 265.257V264.757H320.675V265.257H321.175ZM337.402 265.257V265.757H337.889L337.902 265.27L337.402 265.257ZM337.961 243.435V242.935H337.474L337.462 243.422L337.961 243.435ZM342.998 243.435V243.935H343.498V243.435H342.998ZM342.998 241.756H343.498V241.256H342.998V241.756ZM337.961 241.756H337.461V242.256H337.961V241.756ZM337.961 214.339H338.461V213.839H337.961V214.339ZM301.591 214.339H301.091V214.839H301.591V214.339ZM301.591 199.791V199.291H301.091V199.791H301.591ZM308.306 199.791V200.291H308.806V199.791H308.306ZM308.306 198.672H308.806V198.172H308.306V198.672ZM304.949 198.672H304.449V199.172H304.949V198.672ZM304.949 191.397H305.449V190.897H304.949V191.397ZM193.041 89.5615V89.0615H192.805L192.655 89.2431L193.041 89.5615ZM171.779 115.3V115.8H172.014L172.164 115.618L171.779 115.3ZM129.813 115.3H129.313V115.8H129.813V115.3ZM129.813 113.062H130.313V112.562H129.813V113.062ZM127.575 113.062V112.562H127.075V113.062H127.575ZM127.575 115.3V115.8H128.075V115.3H127.575ZM121.42 115.3V114.8H120.92V115.3H121.42ZM121.42 133.765H120.92V134.265H121.42V133.765ZM127.575 133.765H128.075V133.265H127.575V133.765ZM127.575 154.155V154.655H128.075V154.155H127.575ZM116.384 154.155V153.655H115.884V154.155H116.384ZM116.384 210.422H115.884V210.922H116.384V210.422ZM134.849 210.422V210.922H135.349V210.422H134.849ZM134.849 206.505L134.625 206.058L134.349 206.196V206.505H134.849ZM142.682 202.588V202.088H142.564L142.458 202.141L142.682 202.588ZM149.957 202.588L150.18 202.141L150.075 202.088H149.957V202.588ZM157.79 206.505H158.29V206.196L158.013 206.058L157.79 206.505ZM157.79 210.422H157.29V210.922H157.79V210.422ZM158.349 210.422V210.922H158.849V210.422H158.349ZM158.349 202.588V202.088H157.849V202.588H158.349ZM179.052 202.588L179.406 202.234L179.259 202.088H179.052V202.588ZM188.005 211.541H188.505V211.334L188.359 211.187L188.005 211.541ZM188.005 221.612L188.359 221.966L188.505 221.819V221.612H188.005ZM178.493 231.125V231.625H178.7L178.846 231.479L178.493 231.125ZM158.349 231.125H157.849V231.625H158.349V231.125ZM158.349 223.851H158.849V223.351H158.349V223.851ZM157.231 223.851V223.351H156.731V223.851H157.231ZM157.231 274.769V275.269H157.731V274.769H157.231ZM147.718 274.769V274.269H147.218V274.769H147.718ZM147.718 276.447H147.218V276.947H147.718V276.447ZM149.957 276.447H150.457V275.947H149.957V276.447ZM149.957 281.483H149.457V281.983H149.957V281.483ZM193.041 281.483V281.983H193.541V281.483H193.041ZM193.041 245.673V245.173H192.541V245.673H193.041ZM221.578 245.673H222.078V245.173H221.578V245.673ZM221.578 248.471H221.078V248.971H221.578V248.471ZM223.256 248.471V248.971H223.756V248.471H223.256ZM223.256 245.673V245.173H222.756V245.673H223.256ZM238.923 245.673V246.173H239.423V245.673H238.923ZM238.923 236.161H239.423V235.661H238.923V236.161ZM227.732 236.161H227.232V236.661H227.732V236.161ZM227.732 213.22V212.72H227.232V213.22H227.732ZM238.923 213.22V213.72H239.423V213.22H238.923ZM238.923 207.624H239.423V207.124H238.923V207.624ZM237.245 207.624H236.745V208.124H237.245V207.624ZM237.245 195.874V195.374H236.745V195.874H237.245ZM238.923 195.874V196.374H239.423V195.874H238.923ZM238.923 189.719H239.423V189.219H238.923V189.719ZM222.697 189.719H222.197V190.219H222.697V189.719ZM222.697 172.933V172.433H222.197V172.933H222.697ZM223.816 172.933V173.433H224.316V172.933H223.816ZM223.816 170.135H224.316V169.635H223.816V170.135ZM222.697 170.135H222.197V170.635H222.697V170.135ZM222.697 153.349V152.849H222.197V153.349H222.697ZM243.959 153.349H244.459V152.849H243.959V153.349ZM243.959 161.183H243.459V161.683H243.959V161.183ZM251.792 161.183V161.683H252.292V161.183H251.792ZM251.792 153.349V152.849H251.292V153.349H251.792ZM264.102 153.349V153.849H264.602V153.349H264.102ZM264.102 151.11H264.602V150.61H264.102V151.11ZM255.15 151.11H254.65V151.61H255.15V151.11ZM255.15 146.075H255.65V145.575H255.15V146.075ZM234.447 146.075H233.947V146.575H234.447V146.075ZM234.447 117.538V117.038H233.947V117.538H234.447ZM239.483 117.538V118.038H239.983V117.538H239.483ZM239.483 115.3H239.983V114.8H239.483V115.3ZM229.411 115.3L229.021 115.613L229.171 115.8H229.411V115.3ZM208.708 89.5615L209.098 89.2481L208.948 89.0615H208.708V89.5615ZM89.5259 180.767V180.267H89.2686L89.119 180.476L89.5259 180.767ZM81.1333 192.517V193.017H81.3906L81.5402 192.807L81.1333 192.517ZM77.7759 192.517V192.017H77.2759V192.517H77.7759ZM77.7759 194.195H77.2759V194.695H77.7759V194.195ZM86.1694 194.195H86.6694V193.695H86.1694V194.195ZM86.1694 216.577L86.5057 216.947L86.6694 216.798V216.577H86.1694ZM80.0142 222.172V222.672H80.2074L80.3505 222.542L80.0142 222.172ZM64.3472 222.172L64.0109 222.542L64.1539 222.672H64.3472V222.172ZM58.1919 216.577H57.6919V216.798L57.8556 216.947L58.1919 216.577ZM58.1919 213.779H58.6919V213.279H58.1919V213.779ZM56.5132 213.779V213.279H56.0132V213.779H56.5132ZM56.5132 262.459H56.0132V262.959H56.5132V262.459ZM115.825 262.459V262.959H116.325V262.459H115.825ZM115.825 249.03V248.53H115.325V249.03H115.825ZM129.253 249.03V249.53H129.753V249.03H129.253ZM129.253 223.851V223.351H128.753V223.851H129.253ZM134.849 223.851V224.351H135.349V223.851H134.849ZM134.849 222.731H135.349V222.231H134.849V222.731ZM116.384 222.731V222.231H115.884V222.731H116.384ZM116.384 238.958V239.458H116.884V238.958H116.384ZM94.0024 238.958H93.5024V239.458H94.0024V238.958ZM94.0024 215.458V214.958H93.5024V215.458H94.0024ZM99.3188 215.458V215.958H99.8188V215.458H99.3188ZM99.3188 205.386H99.8188V204.886H99.3188V205.386ZM94.0024 205.386H93.5024V205.886H94.0024V205.386ZM94.0024 180.767H94.5024V180.267H94.0024V180.767ZM259.067 160.063V159.563H258.567V160.063H259.067ZM259.067 170.694V171.194H259.567V170.694H259.067ZM232.208 170.694V170.194H231.708V170.694H232.208ZM232.208 172.373H231.708V172.873H232.208V172.373ZM264.102 172.373V172.873H264.602V172.373H264.102ZM264.102 160.063H264.602V159.563H264.102V160.063ZM64.3472 115.3V114.8H63.8472V115.3H64.3472ZM64.3472 144.956V145.456H64.8472V144.956H64.3472ZM42.5249 144.956V144.456H42.0249V144.956H42.5249ZM42.5249 156.146H42.0249V156.646H42.5249V156.146ZM67.145 156.146V156.646H67.645V156.146H67.145ZM67.145 117.538V117.038H66.645V117.538H67.145ZM110.789 117.538V118.038H111.289V117.538H110.789ZM110.789 115.3H111.289V114.8H110.789V115.3ZM289.282 113.062V112.562H288.782V113.062H289.282ZM289.282 115.3V115.8H289.782V115.3H289.282ZM248.435 115.3V114.8H247.935V115.3H248.435ZM248.435 136.562H247.935V137.062H248.435V136.562ZM255.15 136.562V137.062H255.65V136.562H255.15ZM255.15 133.765L254.85 133.365L254.65 133.515V133.765H255.15ZM257.388 132.087V131.587H257.222L257.088 131.687L257.388 132.087ZM301.591 132.087V132.587H301.798L301.945 132.44L301.591 132.087ZM312.783 120.896L313.136 121.249L313.99 120.396H312.783V120.896ZM290.96 120.896H290.46V121.396H290.96V120.896ZM290.96 113.062H291.46V112.562H290.96V113.062ZM224.934 47.0361L224.443 47.1291L228.36 67.8322L228.851 67.7393L229.342 67.6463L225.425 46.9432L224.934 47.0361ZM228.851 67.7393H228.351V98.5137H228.851H229.351V67.7393H228.851ZM228.851 98.5137V99.0137H289.282V98.5137V98.0137H228.851V98.5137ZM289.282 98.5137H288.782V100.752H289.282H289.782V98.5137H289.282ZM289.282 100.752V101.252H291.52V100.752V100.252H289.282V100.752ZM291.52 100.752H292.02V98.5137H291.52H291.02V100.752H291.52ZM291.52 98.5137V99.0137H330.687V98.5137V98.0137H291.52V98.5137ZM330.687 98.5137H330.187V120.896H330.687H331.187V98.5137H330.687ZM330.687 120.896V120.396H319.497V120.896V121.396H330.687V120.896ZM319.497 120.896L319.143 121.249L330.333 132.44L330.687 132.087L331.041 131.733L319.85 120.542L319.497 120.896ZM330.687 132.087V132.587H336.283V132.087V131.587H330.687V132.087ZM336.283 132.087H335.783V159.504H336.283H336.783V132.087H336.283ZM336.283 159.504V159.004H325.092V159.504V160.004H336.283V159.504ZM325.092 159.504H324.592V174.611H325.092H325.592V159.504H325.092ZM325.092 174.611V175.111H336.283V174.611V174.111H325.092V174.611ZM336.283 174.611H335.783V198.672H336.283H336.783V174.611H336.283ZM336.283 198.672V198.172H319.497V198.672V199.172H336.283V198.672ZM319.497 198.672H318.997V199.791H319.497H319.997V198.672H319.497ZM319.497 199.791V200.291H366.498V199.791V199.291H319.497V199.791ZM366.498 199.791H365.998V224.97H366.498H366.998V199.791H366.498ZM366.498 224.97V224.47H358.105V224.97V225.47H366.498V224.97ZM358.105 224.97H357.605V241.756H358.105H358.605V224.97H358.105ZM358.105 241.756V241.256H351.39V241.756V242.256H358.105V241.756ZM351.39 241.756H350.89V243.435H351.39H351.89V241.756H351.39ZM351.39 243.435V243.935H365.378V243.435V242.935H351.39V243.435ZM365.378 243.435H365.878V236.721H365.378H364.878V243.435H365.378ZM365.378 236.721V237.221H385.522V236.721V236.221H365.378V236.721ZM385.522 236.721L385.156 237.061L392.43 244.894L392.796 244.554L393.163 244.213L385.888 236.38L385.522 236.721ZM392.796 244.554H392.296V256.863H392.796H393.296V244.554H392.796ZM392.796 256.863L392.43 256.523L385.156 264.357L385.522 264.697L385.888 265.037L393.163 257.204L392.796 256.863ZM385.522 264.697V264.197H365.378V264.697V265.197H385.522V264.697ZM365.378 264.697H365.878V257.423H365.378H364.878V264.697H365.378ZM365.378 257.423V256.923H363.701V257.423V257.923H365.378V257.423ZM363.701 257.423H363.201V307.223H363.701H364.201V257.423H363.701ZM363.701 307.223V306.723H322.294V307.223V307.723H363.701V307.223ZM322.294 307.223L322.062 306.78L311.431 312.375L311.664 312.817L311.896 313.26L322.527 307.665L322.294 307.223ZM311.664 312.817H311.164V359.819H311.664H312.164V312.817H311.664ZM311.664 359.819L311.305 359.471L273.256 398.638L273.615 398.986L273.973 399.335L312.022 360.168L311.664 359.819ZM273.615 398.986V398.486H271.376V398.986V399.486H273.615V398.986ZM271.376 398.986H270.876V400.105H271.376H271.876V398.986H271.376ZM271.376 400.105L270.999 399.777L259.808 412.647L260.185 412.975L260.562 413.303L271.754 400.434L271.376 400.105ZM260.185 412.975H259.685V429.762H260.185H260.685V412.975H260.185ZM260.185 429.762L259.685 429.761C259.685 429.761 259.685 429.77 259.682 429.791C259.679 429.812 259.674 429.84 259.667 429.875C259.651 429.947 259.627 430.038 259.592 430.149C259.523 430.372 259.421 430.656 259.291 430.989C259.03 431.655 258.667 432.492 258.261 433.389C257.449 435.181 256.473 437.189 255.822 438.49L256.269 438.714L256.716 438.937C257.371 437.628 258.352 435.609 259.172 433.801C259.581 432.899 259.952 432.043 260.222 431.354C260.357 431.01 260.469 430.701 260.548 430.444C260.621 430.206 260.685 429.958 260.685 429.762L260.185 429.762ZM256.269 438.714L255.877 438.404L247.483 449.035L247.875 449.345L248.268 449.655L256.661 439.024L256.269 438.714ZM247.875 449.345H247.375V451.023H247.875H248.375V449.345H247.875ZM247.875 451.023L247.499 450.694L243.582 455.171L243.958 455.5L244.335 455.829L248.252 451.353L247.875 451.023ZM243.958 455.5V455H222.697V455.5V456H243.958V455.5ZM222.697 455.5L223.144 455.276L220.906 450.8L220.458 451.023L220.011 451.247L222.25 455.724L222.697 455.5ZM220.458 451.023L220.944 450.902L220.384 448.664L219.899 448.785L219.414 448.906L219.973 451.145L220.458 451.023ZM219.899 448.785L220.275 449.114L224.192 444.639L223.816 444.31L223.44 443.98L219.523 448.456L219.899 448.785ZM223.816 444.31L224.119 443.912L212.368 434.959L212.065 435.356L211.762 435.754L223.513 444.707L223.816 444.31ZM212.065 435.356L212.491 435.094L208.014 427.821L207.588 428.083L207.163 428.345L211.639 435.619L212.065 435.356ZM207.588 428.083H208.088V409.618H207.588H207.088V428.083H207.588ZM207.588 409.618L207.942 409.265L204.026 405.348L203.672 405.701L203.319 406.055L207.235 409.972L207.588 409.618ZM203.672 405.701H204.172V404.582H203.672H203.172V405.701H203.672ZM203.672 404.582L203.896 404.135L200.539 402.456L200.315 402.903L200.091 403.351L203.449 405.029L203.672 404.582ZM200.315 402.903L200.699 402.583L197.901 399.226L197.517 399.546L197.133 399.866L199.931 403.223L200.315 402.903ZM197.517 399.546L197.901 399.226L192.305 392.512L191.921 392.832L191.537 393.152L197.133 399.866L197.517 399.546ZM191.921 392.832L192.39 392.656L190.711 388.18L190.243 388.355L189.775 388.531L191.453 393.008L191.921 392.832ZM190.243 388.355L190.618 388.025L182.225 378.512L181.85 378.843L181.475 379.174L189.868 388.686L190.243 388.355ZM181.85 378.843L182.297 378.619L181.178 376.382L180.731 376.605L180.284 376.829L181.403 379.066L181.85 378.843ZM180.731 376.605L180.917 376.141L178.119 375.022L177.933 375.486L177.747 375.951L180.545 377.07L180.731 376.605ZM177.933 375.486L178.38 375.263L171.666 361.833L171.219 362.057L170.772 362.28L177.486 375.71L177.933 375.486ZM171.219 362.057L171.711 361.966L166.115 331.751L165.624 331.842L165.132 331.933L170.728 362.148L171.219 362.057ZM165.624 331.842H166.124V326.806H165.624H165.124V331.842H165.624ZM165.624 326.806L165.782 326.331L164.103 325.772L163.945 326.246L163.787 326.72L165.465 327.28L165.624 326.806ZM163.945 326.246L164.032 325.754L154.52 324.076L154.433 324.568L154.346 325.061L163.858 326.738L163.945 326.246ZM154.433 324.568V324.068H147.159V324.568V325.068H154.433V324.568ZM147.159 324.568L147.046 324.081L139.772 325.759L139.884 326.246L139.997 326.733L147.271 325.056L147.159 324.568ZM139.884 326.246V325.746H135.968V326.246V326.746H139.884V326.246ZM135.968 326.246L136.246 325.83L134.567 324.711L134.29 325.127L134.012 325.543L135.691 326.662L135.968 326.246ZM134.29 325.127V324.627H132.611V325.127V325.627H134.29V325.127ZM132.611 325.127L132.387 324.68L129.03 326.358L129.253 326.806L129.477 327.253L132.834 325.574L132.611 325.127ZM129.253 326.806V326.306H126.456V326.806V327.306H129.253V326.806ZM126.456 326.806L126.679 326.358L125.56 325.799L125.336 326.246L125.113 326.693L126.232 327.253L126.456 326.806ZM125.336 326.246V325.746H112.467V326.246V326.746H125.336V326.246ZM112.467 326.246L112.282 325.782L109.484 326.901L109.669 327.365L109.855 327.829L112.653 326.71L112.467 326.246ZM109.669 327.365V326.865H67.145V327.365V327.865H109.669V327.365ZM67.145 327.365L67.4986 327.012L37.8423 297.356L37.4888 297.71L37.1352 298.064L66.7915 327.719L67.145 327.365ZM37.4888 297.71H37.9888V276.447H37.4888H36.9888V297.71H37.4888ZM37.4888 276.447V276.947H44.7632V276.447V275.947H37.4888V276.447ZM44.7632 276.447H45.2632V271.412H44.7632H44.2632V276.447H44.7632ZM44.7632 271.412V270.912H38.6079V271.412V271.912H44.7632V271.412ZM38.6079 271.412H39.1079V225.529H38.6079H38.1079V271.412H38.6079ZM38.6079 225.529V225.029H24.6196V225.529V226.029H38.6079V225.529ZM24.6196 225.529H25.1196V217.696H24.6196H24.1196V225.529H24.6196ZM24.6196 217.696V217.196H23.5005V217.696V218.196H24.6196V217.696ZM23.5005 217.696H24.0005V207.064H23.5005H23.0005V217.696H23.5005ZM23.5005 207.064V207.564H24.6196V207.064V206.564H23.5005V207.064ZM24.6196 207.064H25.1196V199.791H24.6196H24.1196V207.064H24.6196ZM24.6196 199.791V200.291H56.5132V199.791V199.291H24.6196V199.791ZM56.5132 199.791H56.0132V202.588H56.5132H57.0132V199.791H56.5132ZM56.5132 202.588V203.088H58.1919V202.588V202.088H56.5132V202.588ZM58.1919 202.588H58.6919V194.195H58.1919H57.6919V202.588H58.1919ZM58.1919 194.195V194.695H64.9067V194.195V193.695H58.1919V194.195ZM64.9067 194.195H65.4067V192.517H64.9067H64.4067V194.195H64.9067ZM64.9067 192.517V192.017H49.7983V192.517V193.017H64.9067V192.517ZM49.7983 192.517H50.2983V170.135H49.7983H49.2983V192.517H49.7983ZM49.7983 170.135V169.635H24.6196V170.135V170.635H49.7983V170.135ZM24.6196 170.135H25.1196V128.729H24.6196H24.1196V170.135H24.6196ZM24.6196 128.729V129.229H52.5962V128.729V128.229H24.6196V128.729ZM52.5962 128.729H53.0962V98.5137H52.5962H52.0962V128.729H52.5962ZM52.5962 98.5137V99.0137H127.575V98.5137V98.0137H52.5962V98.5137ZM127.575 98.5137H127.075V100.192H127.575H128.075V98.5137H127.575ZM127.575 100.192V100.692H129.813V100.192V99.6924H127.575V100.192ZM129.813 100.192H130.313V98.5137H129.813H129.313V100.192H129.813ZM129.813 98.5137V99.0137H170.1V98.5137V98.0137H129.813V98.5137ZM170.1 98.5137H170.6V67.1797H170.1H169.6V98.5137H170.1ZM170.1 67.1797L170.588 67.2881L173.945 52.1807L173.457 52.0723L172.968 51.9638L169.612 67.0712L170.1 67.1797ZM173.457 52.0723L173.923 52.2512L186.794 18.679L186.327 18.5L185.86 18.321L172.99 51.8933L173.457 52.0723ZM186.327 18.5V19H212.065V18.5V18H186.327V18.5ZM212.065 18.5L211.609 18.7056L224.478 47.2417L224.934 47.0361L225.39 46.8306L212.521 18.2944L212.065 18.5ZM184.088 357.021L183.768 357.406L190.483 363L190.803 362.616L191.123 362.232L184.408 356.637L184.088 357.021ZM190.803 362.616H190.303V365.414H190.803H191.303V362.616H190.803ZM190.803 365.414L190.45 365.768L212.271 387.59L212.625 387.236L212.978 386.883L191.157 365.061L190.803 365.414ZM212.625 387.236H212.125V391.713H212.625H213.125V387.236H212.625ZM212.625 391.713L212.239 392.031L220.073 401.542L220.458 401.225L220.844 400.907L213.01 391.395L212.625 391.713ZM220.458 401.225H219.958V404.022H220.458H220.958V401.225H220.458ZM220.458 404.022L220.168 404.429L224.085 407.227L224.375 406.82L224.666 406.413L220.749 403.616L220.458 404.022ZM224.375 406.82L224.254 407.305L226.493 407.865L226.614 407.38L226.735 406.895L224.497 406.335L224.375 406.82ZM226.614 407.38L226.234 407.705L229.591 411.622L229.97 411.297L230.35 410.972L226.993 407.055L226.614 407.38ZM229.97 411.297V411.797H232.208V411.297V410.797H229.97V411.297ZM232.208 411.297L232.374 411.769L243.565 407.852L243.4 407.38L243.235 406.908L232.043 410.825L232.208 411.297ZM243.4 407.38L243.847 407.603L244.407 406.484L243.959 406.261L243.512 406.037L242.953 407.156L243.4 407.38ZM243.959 406.261L244.333 406.593L253.285 396.521L252.912 396.188L252.538 395.856L243.586 405.929L243.959 406.261ZM252.912 396.188H253.412V393.392H252.912H252.412V396.188H252.912ZM252.912 393.392L253.302 393.704L268.969 374.12L268.579 373.808L268.188 373.495L252.521 393.079L252.912 393.392ZM268.579 373.808H269.079V370.45H268.579H268.079V373.808H268.579ZM268.579 370.45V370.95H274.174V370.45V369.95H268.579V370.45ZM274.174 370.45L274.574 370.75L277.932 366.274L277.532 365.974L277.132 365.674L273.774 370.15L274.174 370.45ZM277.532 365.974L278.025 366.056L278.585 362.698L278.091 362.616L277.598 362.534L277.039 365.891L277.532 365.974ZM278.091 362.616L278.491 362.916L281.848 358.441L281.448 358.141L281.048 357.841L277.691 362.316L278.091 362.616ZM281.448 358.141H281.948V354.224H281.448H280.948V358.141H281.448ZM281.448 354.224L281.855 353.933L279.058 350.016L278.651 350.307L278.244 350.597L281.041 354.514L281.448 354.224ZM278.651 350.307V349.807H277.532V350.307V350.807H278.651V350.307ZM277.532 350.307L277.969 350.064L275.171 345.028L274.734 345.271L274.297 345.513L277.095 350.549L277.532 350.307ZM274.734 345.271L274.487 344.836L253.784 356.587L254.031 357.021L254.278 357.456L274.981 345.705L274.734 345.271ZM254.031 357.021V356.521H240.602V357.021V357.521H254.031V357.021ZM240.602 357.021L240.488 356.535L230.975 358.773L231.089 359.26L231.204 359.746L240.717 357.508L240.602 357.021ZM231.089 359.26V358.76H224.935V359.26V359.76H231.089V359.26ZM224.935 359.26L225.139 358.803L187.65 342.016L187.446 342.473L187.241 342.929L224.731 359.716L224.935 359.26ZM187.446 342.473L186.959 342.36L183.601 356.909L184.088 357.021L184.576 357.134L187.933 342.585L187.446 342.473ZM221.578 256.304H221.078V266.376H221.578H222.078V256.304H221.578ZM221.578 266.376V265.876H213.184V266.376V266.876H221.578V266.376ZM213.184 266.376L212.831 266.022L206.676 272.177L207.03 272.53L207.383 272.884L213.538 266.73L213.184 266.376ZM207.03 272.53H206.53V293.793H207.03H207.53V272.53H207.03ZM207.03 293.793V293.293H176.814V293.793V294.293H207.03V293.793ZM176.814 293.793H176.314V309.46H176.814H177.314V293.793H176.814ZM176.814 309.46V309.96H184.088V309.46V308.96H176.814V309.46ZM184.088 309.46H184.588V303.865H184.088H183.588V309.46H184.088ZM184.088 303.865V304.365H199.196V303.865V303.365H184.088V303.865ZM199.196 303.865H198.696V333.521H199.196H199.696V303.865H199.196ZM199.196 333.521V334.021H210.386V333.521V333.021H199.196V333.521ZM210.386 333.521L210.007 333.846L213.364 337.763L213.744 337.438L214.123 337.112L210.766 333.195L210.386 333.521ZM213.744 337.438L213.52 337.885L222.473 342.361L222.697 341.914L222.92 341.467L213.967 336.99L213.744 337.438ZM222.697 341.914V342.414H227.173V341.914V341.414H222.697V341.914ZM227.173 341.914L226.757 342.191L227.875 343.869L228.292 343.592L228.708 343.315L227.589 341.637L227.173 341.914ZM228.292 343.592H227.792V344.711H228.292H228.792V343.592H228.292ZM228.292 344.711L228.199 345.202L237.152 346.881L237.245 346.39L237.337 345.898L228.384 344.22L228.292 344.711ZM237.245 346.39V346.89H240.042V346.39V345.89H237.245V346.39ZM240.042 346.39L240.313 346.81L248.146 341.775L247.875 341.354L247.605 340.934L239.772 345.969L240.042 346.39ZM247.875 341.354V341.854H249.554V341.354V340.854H247.875V341.354ZM249.554 341.354H250.054V340.235H249.554H249.054V341.354H249.554ZM249.554 340.235V340.735H252.912V340.235V339.735H249.554V340.235ZM252.912 340.235L253.202 340.642L261.036 335.047L260.746 334.64L260.455 334.233L252.621 339.828L252.912 340.235ZM260.746 334.64V335.14H283.686V334.64V334.14H260.746V334.64ZM283.686 334.64H284.186V307.223H283.686H283.186V334.64H283.686ZM283.686 307.223V306.723H266.9V307.223V307.723H283.686V307.223ZM266.9 307.223H267.4V266.376H266.9H266.4V307.223H266.9ZM266.9 266.376V265.876H223.256V266.376V266.876H266.9V266.376ZM223.256 266.376H223.756V256.304H223.256H222.756V266.376H223.256ZM223.256 256.304V255.804H221.578V256.304V256.804H223.256V256.304ZM94.562 274.769H94.062V295.472H94.562H95.062V274.769H94.562ZM94.562 295.472V295.972H100.158V295.472V294.972H94.562V295.472ZM100.158 295.472H99.6577V309.46H100.158H100.658V295.472H100.158ZM100.158 309.46V309.96H129.937V309.46V308.96H100.158V309.46ZM129.937 309.46H130.437V308.341H129.937H129.437V309.46H129.937ZM129.937 308.341V308.841H157.79V308.341V307.841H129.937V308.341ZM157.79 308.341H157.29V309.46H157.79H158.29V308.341H157.79ZM157.79 309.46V309.96H165.624V309.46V308.96H157.79V309.46ZM165.624 309.46H166.124V293.793H165.624H165.124V309.46H165.624ZM165.624 293.793V293.293H128.694V293.793V294.293H165.624V293.793ZM128.694 293.793H129.194V276.447H128.694H128.194V293.793H128.694ZM128.694 276.447V276.947H137.087V276.447V275.947H128.694V276.447ZM137.087 276.447H137.587V274.769H137.087H136.587V276.447H137.087ZM137.087 274.769V274.269H94.562V274.769V275.269H137.087V274.769ZM289.841 191.397H289.341V209.303H289.841H290.341V191.397H289.841ZM289.841 209.303V208.803H266.9V209.303V209.803H289.841V209.303ZM266.9 209.303L266.686 208.851L256.055 213.887L256.269 214.339L256.483 214.791L267.114 209.755L266.9 209.303ZM256.269 214.339H255.769V251.269H256.269H256.769V214.339H256.269ZM256.269 251.269V251.769H274.734V251.269V250.769H256.269V251.269ZM274.734 251.269H275.234V245.673H274.734H274.234V251.269H274.734ZM274.734 245.673V246.173H292.639V245.673V245.173H274.734V245.673ZM292.639 245.673H292.139V280.364H292.639H293.139V245.673H292.639ZM292.639 280.364V279.864H280.888V280.364V280.864H292.639V280.364ZM280.888 280.364H280.388V283.722H280.888H281.388V280.364H280.888ZM280.888 283.722V284.222H321.175V283.722V283.222H280.888V283.722ZM321.175 283.722H321.675V265.257H321.175H320.675V283.722H321.175ZM321.175 265.257V265.757H337.402V265.257V264.757H321.175V265.257ZM337.402 265.257L337.902 265.27L338.461 243.447L337.961 243.435L337.462 243.422L336.902 265.244L337.402 265.257ZM337.961 243.435V243.935H342.998V243.435V242.935H337.961V243.435ZM342.998 243.435H343.498V241.756H342.998H342.498V243.435H342.998ZM342.998 241.756V241.256H337.961V241.756V242.256H342.998V241.756ZM337.961 241.756H338.461V214.339H337.961H337.461V241.756H337.961ZM337.961 214.339V213.839H301.591V214.339V214.839H337.961V214.339ZM301.591 214.339H302.091V199.791H301.591H301.091V214.339H301.591ZM301.591 199.791V200.291H308.306V199.791V199.291H301.591V199.791ZM308.306 199.791H308.806V198.672H308.306H307.806V199.791H308.306ZM308.306 198.672V198.172H304.949V198.672V199.172H308.306V198.672ZM304.949 198.672H305.449V191.397H304.949H304.449V198.672H304.949ZM304.949 191.397V190.897H289.841V191.397V191.897H304.949V191.397ZM193.041 89.5615L192.655 89.2431L171.393 114.981L171.779 115.3L172.164 115.618L193.426 89.88L193.041 89.5615ZM171.779 115.3V114.8H129.813V115.3V115.8H171.779V115.3ZM129.813 115.3H130.313V113.062H129.813H129.313V115.3H129.813ZM129.813 113.062V112.562H127.575V113.062V113.562H129.813V113.062ZM127.575 113.062H127.075V115.3H127.575H128.075V113.062H127.575ZM127.575 115.3V114.8H121.42V115.3V115.8H127.575V115.3ZM121.42 115.3H120.92V133.765H121.42H121.92V115.3H121.42ZM121.42 133.765V134.265H127.575V133.765V133.265H121.42V133.765ZM127.575 133.765H127.075V154.155H127.575H128.075V133.765H127.575ZM127.575 154.155V153.655H116.384V154.155V154.655H127.575V154.155ZM116.384 154.155H115.884V210.422H116.384H116.884V154.155H116.384ZM116.384 210.422V210.922H134.849V210.422V209.922H116.384V210.422ZM134.849 210.422H135.349V206.505H134.849H134.349V210.422H134.849ZM134.849 206.505L135.073 206.952L142.906 203.035L142.682 202.588L142.458 202.141L134.625 206.058L134.849 206.505ZM142.682 202.588V203.088H149.957V202.588V202.088H142.682V202.588ZM149.957 202.588L149.733 203.035L157.566 206.952L157.79 206.505L158.013 206.058L150.18 202.141L149.957 202.588ZM157.79 206.505H157.29V210.422H157.79H158.29V206.505H157.79ZM157.79 210.422V210.922H158.349V210.422V209.922H157.79V210.422ZM158.349 210.422H158.849V202.588H158.349H157.849V210.422H158.349ZM158.349 202.588V203.088H179.052V202.588V202.088H158.349V202.588ZM179.052 202.588L178.699 202.941L187.652 211.895L188.005 211.541L188.359 211.187L179.406 202.234L179.052 202.588ZM188.005 211.541H187.505V221.612H188.005H188.505V211.541H188.005ZM188.005 221.612L187.652 221.259L178.139 230.771L178.493 231.125L178.846 231.479L188.359 221.966L188.005 221.612ZM178.493 231.125V230.625H158.349V231.125V231.625H178.493V231.125ZM158.349 231.125H158.849V223.851H158.349H157.849V231.125H158.349ZM158.349 223.851V223.351H157.231V223.851V224.351H158.349V223.851ZM157.231 223.851H156.731V274.769H157.231H157.731V223.851H157.231ZM157.231 274.769V274.269H147.718V274.769V275.269H157.231V274.769ZM147.718 274.769H147.218V276.447H147.718H148.218V274.769H147.718ZM147.718 276.447V276.947H149.957V276.447V275.947H147.718V276.447ZM149.957 276.447H149.457V281.483H149.957H150.457V276.447H149.957ZM149.957 281.483V281.983H193.041V281.483V280.983H149.957V281.483ZM193.041 281.483H193.541V245.673H193.041H192.541V281.483H193.041ZM193.041 245.673V246.173H221.578V245.673V245.173H193.041V245.673ZM221.578 245.673H221.078V248.471H221.578H222.078V245.673H221.578ZM221.578 248.471V248.971H223.256V248.471V247.971H221.578V248.471ZM223.256 248.471H223.756V245.673H223.256H222.756V248.471H223.256ZM223.256 245.673V246.173H238.923V245.673V245.173H223.256V245.673ZM238.923 245.673H239.423V236.161H238.923H238.423V245.673H238.923ZM238.923 236.161V235.661H227.732V236.161V236.661H238.923V236.161ZM227.732 236.161H228.232V213.22H227.732H227.232V236.161H227.732ZM227.732 213.22V213.72H238.923V213.22V212.72H227.732V213.22ZM238.923 213.22H239.423V207.624H238.923H238.423V213.22H238.923ZM238.923 207.624V207.124H237.245V207.624V208.124H238.923V207.624ZM237.245 207.624H237.745V195.874H237.245H236.745V207.624H237.245ZM237.245 195.874V196.374H238.923V195.874V195.374H237.245V195.874ZM238.923 195.874H239.423V189.719H238.923H238.423V195.874H238.923ZM238.923 189.719V189.219H222.697V189.719V190.219H238.923V189.719ZM222.697 189.719H223.197V172.933H222.697H222.197V189.719H222.697ZM222.697 172.933V173.433H223.816V172.933V172.433H222.697V172.933ZM223.816 172.933H224.316V170.135H223.816H223.316V172.933H223.816ZM223.816 170.135V169.635H222.697V170.135V170.635H223.816V170.135ZM222.697 170.135H223.197V153.349H222.697H222.197V170.135H222.697ZM222.697 153.349V153.849H243.959V153.349V152.849H222.697V153.349ZM243.959 153.349H243.459V161.183H243.959H244.459V153.349H243.959ZM243.959 161.183V161.683H251.792V161.183V160.683H243.959V161.183ZM251.792 161.183H252.292V153.349H251.792H251.292V161.183H251.792ZM251.792 153.349V153.849H264.102V153.349V152.849H251.792V153.349ZM264.102 153.349H264.602V151.11H264.102H263.602V153.349H264.102ZM264.102 151.11V150.61H255.15V151.11V151.61H264.102V151.11ZM255.15 151.11H255.65V146.075H255.15H254.65V151.11H255.15ZM255.15 146.075V145.575H234.447V146.075V146.575H255.15V146.075ZM234.447 146.075H234.947V117.538H234.447H233.947V146.075H234.447ZM234.447 117.538V118.038H239.483V117.538V117.038H234.447V117.538ZM239.483 117.538H239.983V115.3H239.483H238.983V117.538H239.483ZM239.483 115.3V114.8H229.411V115.3V115.8H239.483V115.3ZM229.411 115.3L229.8 114.986L209.098 89.2481L208.708 89.5615L208.319 89.8749L229.021 115.613L229.411 115.3ZM208.708 89.5615V89.0615H193.041V89.5615V90.0615H208.708V89.5615ZM89.5259 180.767L89.119 180.476L80.7264 192.226L81.1333 192.517L81.5402 192.807L89.9328 181.057L89.5259 180.767ZM81.1333 192.517V192.017H77.7759V192.517V193.017H81.1333V192.517ZM77.7759 192.517H77.2759V194.195H77.7759H78.2759V192.517H77.7759ZM77.7759 194.195V194.695H86.1694V194.195V193.695H77.7759V194.195ZM86.1694 194.195H85.6694V216.577H86.1694H86.6694V194.195H86.1694ZM86.1694 216.577L85.8331 216.207L79.6779 221.802L80.0142 222.172L80.3505 222.542L86.5057 216.947L86.1694 216.577ZM80.0142 222.172V221.672H64.3472V222.172V222.672H80.0142V222.172ZM64.3472 222.172L64.6835 221.802L58.5282 216.207L58.1919 216.577L57.8556 216.947L64.0109 222.542L64.3472 222.172ZM58.1919 216.577H58.6919V213.779H58.1919H57.6919V216.577H58.1919ZM58.1919 213.779V213.279H56.5132V213.779V214.279H58.1919V213.779ZM56.5132 213.779H56.0132V262.459H56.5132H57.0132V213.779H56.5132ZM56.5132 262.459V262.959H115.825V262.459V261.959H56.5132V262.459ZM115.825 262.459H116.325V249.03H115.825H115.325V262.459H115.825ZM115.825 249.03V249.53H129.253V249.03V248.53H115.825V249.03ZM129.253 249.03H129.753V223.851H129.253H128.753V249.03H129.253ZM129.253 223.851V224.351H134.849V223.851V223.351H129.253V223.851ZM134.849 223.851H135.349V222.731H134.849H134.349V223.851H134.849ZM134.849 222.731V222.231H116.384V222.731V223.231H134.849V222.731ZM116.384 222.731H115.884V238.958H116.384H116.884V222.731H116.384ZM116.384 238.958V238.458H94.0024V238.958V239.458H116.384V238.958ZM94.0024 238.958H94.5024V215.458H94.0024H93.5024V238.958H94.0024ZM94.0024 215.458V215.958H99.3188V215.458V214.958H94.0024V215.458ZM99.3188 215.458H99.8188V205.386H99.3188H98.8188V215.458H99.3188ZM99.3188 205.386V204.886H94.0024V205.386V205.886H99.3188V205.386ZM94.0024 205.386H94.5024V180.767H94.0024H93.5024V205.386H94.0024ZM94.0024 180.767V180.267H89.5259V180.767V181.267H94.0024V180.767ZM259.067 160.063H258.567V170.694H259.067H259.567V160.063H259.067ZM259.067 170.694V170.194H232.208V170.694V171.194H259.067V170.694ZM232.208 170.694H231.708V172.373H232.208H232.708V170.694H232.208ZM232.208 172.373V172.873H264.102V172.373V171.873H232.208V172.373ZM264.102 172.373H264.602V160.063H264.102H263.602V172.373H264.102ZM264.102 160.063V159.563H259.067V160.063V160.563H264.102V160.063ZM64.3472 115.3H63.8472V144.956H64.3472H64.8472V115.3H64.3472ZM64.3472 144.956V144.456H42.5249V144.956V145.456H64.3472V144.956ZM42.5249 144.956H42.0249V156.146H42.5249H43.0249V144.956H42.5249ZM42.5249 156.146V156.646H67.145V156.146V155.646H42.5249V156.146ZM67.145 156.146H67.645V117.538H67.145H66.645V156.146H67.145ZM67.145 117.538V118.038H110.789V117.538V117.038H67.145V117.538ZM110.789 117.538H111.289V115.3H110.789H110.289V117.538H110.789ZM110.789 115.3V114.8H64.3472V115.3V115.8H110.789V115.3ZM289.282 113.062H288.782V115.3H289.282H289.782V113.062H289.282ZM289.282 115.3V114.8H248.435V115.3V115.8H289.282V115.3ZM248.435 115.3H247.935V136.562H248.435H248.935V115.3H248.435ZM248.435 136.562V137.062H255.15V136.562V136.062H248.435V136.562ZM255.15 136.562H255.65V133.765H255.15H254.65V136.562H255.15ZM255.15 133.765L255.45 134.165L257.688 132.487L257.388 132.087L257.088 131.687L254.85 133.365L255.15 133.765ZM257.388 132.087V132.587H301.591V132.087V131.587H257.388V132.087ZM301.591 132.087L301.945 132.44L313.136 121.249L312.783 120.896L312.429 120.542L301.238 131.733L301.591 132.087ZM312.783 120.896V120.396H290.96V120.896V121.396H312.783V120.896ZM290.96 120.896H291.46V113.062H290.96H290.46V120.896H290.96ZM290.96 113.062V112.562H289.282V113.062V113.562H290.96V113.062Z" fill="#B27C40"/>
<circle cx="200.315" cy="292.115" r="1.98816" stroke="#B27C40" stroke-width="0.5"/>
<circle cx="335.164" cy="148.313" r="1.42862" stroke="#B27C40" stroke-width="0.5"/>
<path d="M99.5978 139.36H80.0139V149.432H105.753V139.36H105.193M99.5978 139.36V133.765H105.193V139.36M99.5978 139.36H105.193M67.1445 151.111H72.1804V156.147H67.1445M49.7988 170.135H55.3942V180.766H49.7988M108.55 309.46V314.496H113.586V309.46M201.993 293.793V288.198H207.029M311.663 317.853H305.508V323.449H311.663M327.33 265.257V271.412H321.175M330.687 198.672V193.636M330.687 193.636H336.283M330.687 193.636H325.092V198.672M264.102 163.421H280.888V170.695H264.102M250.673 172.373V180.766H255.709V172.373M289.841 191.398H284.246V195.314H289.841M256.828 213.779H250.673V224.41H256.269" stroke="#B27C40"/>
<path d="M332.366 174.611V184.683H336.283" stroke="#B27C40" stroke-width="0.5"/>
<path d="M250.674 180.766V183.564H255.71V180.766M301.878 132.086H330.688M250.674 224.41V227.768H256.269M274.734 251.268H288.722M292.639 251.268H288.722M288.722 251.268V254.625H292.639M321.176 274.209H324.533V271.412M363.701 282.043H356.986M340.759 282.043H356.986M356.986 282.043V285.96H363.701M308.306 323.449V326.246H311.663M72.7402 222.172L86.1692 208.743M94.0027 231.684H100.717V238.958M94.0027 233.363H99.5981V238.958M116.384 195.874H110.229V202.588H116.384M116.384 201.469H111.348V196.993H116.384M86.1692 149.432V154.468H99.5981V149.432M223.256 263.019H242.84V266.376M99.5981 180.766H111.348V175.73H116.384M111.348 181.885H99.5981M63.7876 292.674V300.508L68.2639 304.424H76.0975L80.5738 300.508V292.674L76.0975 288.198H68.2639L63.7876 292.674ZM67.1448 293.793V291.555H70.5021L72.1807 289.876L73.8593 291.555H77.2165V293.793L78.8952 296.031L77.2165 298.27V301.067H73.8593L72.1807 302.746L70.5021 301.067H67.1448V298.27L65.4662 296.031L67.1448 293.793Z" stroke="#B27C40" stroke-width="0.5"/>
<path d="M305.508 164.54V175.73H299.913V164.54M305.508 164.54H311.104V158.944H299.913V164.54M305.508 164.54H299.913" stroke="#B27C40"/>
<path d="M280.613 280.364V265.816" stroke="#B27C40" stroke-width="0.5"/>
<path d="M94.0025 180.766H99.5979V181.885H94.0025M116.384 180.766H111.348V181.885H116.384M24.6196 145.515H27.9769M42.5249 145.515H39.1676M157.79 227.768H152.195V232.244H157.23" stroke="#B27C40"/>
<circle cx="195.839" cy="248.471" r="3.10723" stroke="#B27C40" stroke-width="0.5"/>
<circle cx="268.579" cy="305.544" r="1.98816" stroke="#B27C40" stroke-width="0.5"/>
<path d="M80.5737 140.48H105.193M105.193 148.313H80.5737" stroke="#B27C40" stroke-opacity="0.23"/>
<path d="M22.3814 217.696H17.9051L16.2265 215.178L14.5479 212.66L16.2265 210.142L17.9051 207.624H22.3814L19.0242 212.66L22.3814 217.696Z" fill="white"/>
<path d="M402.868 255.745H398.392L396.713 253.227L395.035 250.709L396.713 248.191L398.392 245.673H402.868L401.376 247.911L399.511 250.709L401.376 253.506L402.868 255.745Z" fill="white"/>
<path d="M196.958 221.613H192.481L190.803 219.095L189.124 216.577L190.803 214.059L192.481 211.541H196.958L193.6 216.577L196.958 221.613Z" fill="white"/>
<path d="M236.126 206.505H231.649L229.971 203.987L228.292 201.469L229.971 198.951L231.649 196.433H236.126L232.768 201.469L236.126 206.505Z" fill="white"/>
<path d="M231.358 203.987L229.679 201.469L231.358 198.951H207.807L207.589 213.779H194.719H193.312V219.053H212.768V203.987H231.358Z" fill="white" fill-opacity="0.48"/>
<path d="M113.027 156.706H74.978V126.491H113.027V156.706ZM99.0981 138.861H79.5142V149.932H85.9194V154.719H99.8481V149.932H106.253V138.861H105.694V133.265H99.0981V138.861Z" fill="#F08234" fill-opacity="0.23"/>
<path d="M316.14 186.921H273.055V142.158H316.14V186.921ZM299.413 158.444V176.23H306.008V165.04H311.604V158.444H299.413ZM273.115 162.921V171.194H281.389V162.921H273.115Z" fill="#F08234" fill-opacity="0.23"/>
<path d="M83.6011 136.372V128.372H86.6636C87.2417 128.372 87.7222 128.463 88.105 128.645C88.4904 128.825 88.7782 129.071 88.9683 129.384C89.161 129.696 89.2573 130.05 89.2573 130.446C89.2573 130.772 89.1948 131.05 89.0698 131.282C88.9448 131.511 88.7769 131.697 88.5659 131.841C88.355 131.984 88.1193 132.087 87.8589 132.149V132.227C88.1427 132.243 88.4149 132.33 88.6753 132.489C88.9383 132.645 89.1532 132.867 89.3198 133.153C89.4865 133.44 89.5698 133.786 89.5698 134.192C89.5698 134.606 89.4696 134.979 89.269 135.309C89.0685 135.638 88.7664 135.897 88.3628 136.087C87.9591 136.277 87.4513 136.372 86.8394 136.372H83.6011ZM85.0503 135.161H86.6089C87.1349 135.161 87.5138 135.061 87.7456 134.86C87.98 134.657 88.0972 134.397 88.0972 134.079C88.0972 133.842 88.0386 133.628 87.9214 133.438C87.8042 133.246 87.6375 133.095 87.4214 132.985C87.2052 132.873 86.9474 132.817 86.6479 132.817H85.0503V135.161ZM85.0503 131.774H86.4839C86.7339 131.774 86.9591 131.729 87.1597 131.638C87.3602 131.544 87.5177 131.412 87.6323 131.243C87.7495 131.071 87.8081 130.868 87.8081 130.634C87.8081 130.324 87.6987 130.069 87.48 129.868C87.2638 129.668 86.9422 129.567 86.5151 129.567H85.0503V131.774Z" fill="white"/>
<path d="M287.181 157.634H285.634L288.451 149.634H290.24L293.06 157.634H291.513L289.376 151.275H289.314L287.181 157.634ZM287.232 154.498H291.451V155.662H287.232V154.498Z" fill="white"/>
</svg>
