<svg width="387" height="473" viewBox="0 0 387 473" fill="none" xmlns="http://www.w3.org/2000/svg">
<path d="M181.71 430.564H141.931V395.332H117.495V407.834H52.7119V356.121H68.0557V343.619H29.9814V324.866H27.708V337.368H1V269.176H14.0703V266.902H1V240.762H39.6416V227.691H42.4834V216.028H26.8818V176.548H77.7158V125.403H129.429V106.65H116.358V71.417H132.271V69.1445L166.366 46.4131L170.912 44.1406V19.7051L172.617 18H214.102L215.806 20.8418V41.8672L270.928 61.5195V108.923H258.426L258.09 137.905H309.57V189.617H296.5V221.44H299.094V208.37H360.146V241.898H344.804V253.264H360.146V279.973H348.213V291.906H386.287V356.689H344.546V368.313H360.473V407.834H295.932V395.332H245.356V430.564H211.26V455H181.71V430.564ZM167.503 164.046V125.403H230.013V137.905H231.718V87.8975H155.569V164.046H167.503ZM269.792 279.404V253.264H324.346V241.898H269.792V166.887H282.862V164.614H231.718V151.544H207.282V189.618H219.784V215.758H207.282V227.691H219.784V266.902H203.304V279.404H231.718L241.378 269.176H258.426V279.404H269.792ZM142.499 260.083V241.33H129.429V215.189H166.366V227.691H168.071V189.618H180.573V177.116H129.429V151.544H117.495V215.758H77.7158V203.256H65.7822V215.758H62.9414V227.691H66.3506L90.7861 240.762H117.495V260.083H142.499ZM94.1963 381.693V368.623H129.429V356.121H154.433V317.479H186.824V305.545H173.754V279.404H183.982V266.902H169.208V241.33H155.569V243.604H162.389V286.224H129.429V273.153H104.425V305.545H53.2803V317.479H104.425V343.619H88.5137V356.121H91.3545V381.693H94.1963ZM29.9814 311.228V269.176H75.667V291.906H77.7158V266.902H27.708V311.228H29.9814ZM321.504 381.693V368.623H324.346V356.689H321.504V343.619H282.862V323.729H295.932V318.047H282.862V292.475H258.426V302.703H222.057V292.475H219.784V305.545H200.463V317.479H232.854V356.121H258.426V368.623H319.231V381.693H321.504ZM359.578 330.549V305.545H357.306V318.047H309.477V330.549H359.578ZM205.881 393.627L218.647 369.76V331.117H168.64V369.417L181.71 393.627H205.881Z" fill="#271406"/>
<path d="M181.71 430.564H182.21V430.064H181.71V430.564ZM141.931 430.564H141.431V431.064H141.931V430.564ZM141.931 395.332H142.431V394.832H141.931V395.332ZM117.495 395.332V394.832H116.995V395.332H117.495ZM117.495 407.834V408.334H117.995V407.834H117.495ZM52.7119 407.834H52.2119V408.334H52.7119V407.834ZM52.7119 356.121V355.621H52.2119V356.121H52.7119ZM68.0557 356.121V356.621H68.5557V356.121H68.0557ZM68.0557 343.619H68.5557V343.119H68.0557V343.619ZM29.9814 343.619H29.4814V344.119H29.9814V343.619ZM29.9814 324.866H30.4814V324.366H29.9814V324.866ZM27.708 324.866V324.366H27.208V324.866H27.708ZM27.708 337.368V337.868H28.208V337.368H27.708ZM1 337.368H0.5V337.868H1V337.368ZM1 269.176V268.676H0.5V269.176H1ZM14.0703 269.176V269.676H14.5703V269.176H14.0703ZM14.0703 266.902H14.5703V266.402H14.0703V266.902ZM1 266.902H0.5V267.402H1V266.902ZM1 240.762V240.262H0.5V240.762H1ZM39.6416 240.762V241.262H40.1416V240.762H39.6416ZM39.6416 227.691V227.191H39.1416V227.691H39.6416ZM42.4834 227.691V228.191H42.9834V227.691H42.4834ZM42.4834 216.028H42.9834V215.528H42.4834V216.028ZM26.8818 216.028H26.3818V216.528H26.8818V216.028ZM26.8818 176.548V176.048H26.3818V176.548H26.8818ZM77.7158 176.548V177.048H78.2158V176.548H77.7158ZM77.7158 125.403V124.903H77.2158V125.403H77.7158ZM129.429 125.403V125.903H129.929V125.403H129.429ZM129.429 106.65H129.929V106.15H129.429V106.65ZM116.358 106.65H115.858V107.15H116.358V106.65ZM116.358 71.417V70.917H115.858V71.417H116.358ZM132.271 71.417V71.917H132.771V71.417H132.271ZM132.271 69.1445L131.993 68.7285L131.771 68.877V69.1445H132.271ZM166.366 46.4131L166.143 45.9659L166.115 45.9798L166.089 45.9971L166.366 46.4131ZM170.912 44.1406L171.136 44.5879L171.412 44.4497V44.1406H170.912ZM170.912 19.7051L170.559 19.3515L170.412 19.498V19.7051H170.912ZM172.617 18V17.5H172.41L172.264 17.6465L172.617 18ZM214.102 18L214.53 17.7429L214.385 17.5H214.102V18ZM215.806 20.8418H216.306V20.7034L216.234 20.5847L215.806 20.8418ZM215.806 41.8672H215.306V42.2198L215.638 42.3382L215.806 41.8672ZM270.928 61.5195H271.428V61.167L271.096 61.0486L270.928 61.5195ZM270.928 108.923V109.423H271.428V108.923H270.928ZM258.426 108.923V108.423H257.932L257.926 108.917L258.426 108.923ZM258.09 137.905L257.59 137.899L257.584 138.405H258.09V137.905ZM309.57 137.905H310.07V137.405H309.57V137.905ZM309.57 189.617V190.117H310.07V189.617H309.57ZM296.5 189.617V189.117H296V189.617H296.5ZM296.5 221.44H296V221.94H296.5V221.44ZM299.094 221.44V221.94H299.594V221.44H299.094ZM299.094 208.37V207.87H298.594V208.37H299.094ZM360.146 208.37H360.646V207.87H360.146V208.37ZM360.146 241.898V242.398H360.646V241.898H360.146ZM344.804 241.898V241.398H344.304V241.898H344.804ZM344.804 253.264H344.304V253.764H344.804V253.264ZM360.146 253.264H360.646V252.764H360.146V253.264ZM360.146 279.973V280.473H360.646V279.973H360.146ZM348.213 279.973V279.473H347.713V279.973H348.213ZM348.213 291.906H347.713V292.406H348.213V291.906ZM386.287 291.906H386.787V291.406H386.287V291.906ZM386.287 356.689V357.189H386.787V356.689H386.287ZM344.546 356.689V356.189H344.046V356.689H344.546ZM344.546 368.313H344.046V368.813H344.546V368.313ZM360.473 368.313H360.973V367.813H360.473V368.313ZM360.473 407.834V408.334H360.973V407.834H360.473ZM295.932 407.834H295.432V408.334H295.932V407.834ZM295.932 395.332H296.432V394.832H295.932V395.332ZM245.356 395.332V394.832H244.856V395.332H245.356ZM245.356 430.564V431.064H245.856V430.564H245.356ZM211.26 430.564V430.064H210.76V430.564H211.26ZM211.26 455V455.5H211.76V455H211.26ZM181.71 455H181.21V455.5H181.71V455ZM167.503 164.046V164.546H168.003V164.046H167.503ZM167.503 125.403V124.903H167.003V125.403H167.503ZM230.013 125.403H230.513V124.903H230.013V125.403ZM230.013 137.905H229.513V138.405H230.013V137.905ZM231.718 137.905V138.405H232.218V137.905H231.718ZM231.718 87.8975H232.218V87.3975H231.718V87.8975ZM155.569 87.8975V87.3975H155.069V87.8975H155.569ZM155.569 164.046H155.069V164.546H155.569V164.046ZM269.792 279.404V279.904H270.292V279.404H269.792ZM269.792 253.264V252.764H269.292V253.264H269.792ZM324.346 253.264V253.764H324.846V253.264H324.346ZM324.346 241.898H324.846V241.398H324.346V241.898ZM269.792 241.898H269.292V242.398H269.792V241.898ZM269.792 166.887V166.387H269.292V166.887H269.792ZM282.862 166.887V167.387H283.362V166.887H282.862ZM282.862 164.614H283.362V164.114H282.862V164.614ZM231.718 164.614H231.218V165.114H231.718V164.614ZM231.718 151.544H232.218V151.044H231.718V151.544ZM207.282 151.544V151.044H206.782V151.544H207.282ZM207.282 189.618H206.782V190.118H207.282V189.618ZM219.784 189.618H220.284V189.118H219.784V189.618ZM219.784 215.758V216.258H220.284V215.758H219.784ZM207.282 215.758V215.258H206.782V215.758H207.282ZM207.282 227.691H206.782V228.191H207.282V227.691ZM219.784 227.691H220.284V227.191H219.784V227.691ZM219.784 266.902V267.402H220.284V266.902H219.784ZM203.304 266.902V266.402H202.804V266.902H203.304ZM203.304 279.404H202.804V279.904H203.304V279.404ZM231.718 279.404V279.904H231.933L232.081 279.748L231.718 279.404ZM241.378 269.176V268.676H241.162L241.014 268.832L241.378 269.176ZM258.426 269.176H258.926V268.676H258.426V269.176ZM258.426 279.404H257.926V279.904H258.426V279.404ZM142.499 260.083V260.583H142.999V260.083H142.499ZM142.499 241.33H142.999V240.83H142.499V241.33ZM129.429 241.33H128.929V241.83H129.429V241.33ZM129.429 215.189V214.689H128.929V215.189H129.429ZM166.366 215.189H166.866V214.689H166.366V215.189ZM166.366 227.691H165.866V228.191H166.366V227.691ZM168.071 227.691V228.191H168.571V227.691H168.071ZM168.071 189.618V189.118H167.571V189.618H168.071ZM180.573 189.618V190.118H181.073V189.618H180.573ZM180.573 177.116H181.073V176.616H180.573V177.116ZM129.429 177.116H128.929V177.616H129.429V177.116ZM129.429 151.544H129.929V151.044H129.429V151.544ZM117.495 151.544V151.044H116.995V151.544H117.495ZM117.495 215.758V216.258H117.995V215.758H117.495ZM77.7158 215.758H77.2158V216.258H77.7158V215.758ZM77.7158 203.256H78.2158V202.756H77.7158V203.256ZM65.7822 203.256V202.756H65.2822V203.256H65.7822ZM65.7822 215.758V216.258H66.2822V215.758H65.7822ZM62.9414 215.758V215.258H62.4414V215.758H62.9414ZM62.9414 227.691H62.4414V228.191H62.9414V227.691ZM66.3506 227.691L66.5864 227.251L66.4759 227.191H66.3506V227.691ZM90.7861 240.762L90.5503 241.203L90.6608 241.262H90.7861V240.762ZM117.495 240.762H117.995V240.262H117.495V240.762ZM117.495 260.083H116.995V260.583H117.495V260.083ZM94.1963 381.693V382.193H94.6963V381.693H94.1963ZM94.1963 368.623V368.123H93.6963V368.623H94.1963ZM129.429 368.623V369.123H129.929V368.623H129.429ZM129.429 356.121V355.621H128.929V356.121H129.429ZM154.433 356.121V356.621H154.933V356.121H154.433ZM154.433 317.479V316.979H153.933V317.479H154.433ZM186.824 317.479V317.979H187.324V317.479H186.824ZM186.824 305.545H187.324V305.045H186.824V305.545ZM173.754 305.545H173.254V306.045H173.754V305.545ZM173.754 279.404V278.904H173.254V279.404H173.754ZM183.982 279.404V279.904H184.482V279.404H183.982ZM183.982 266.902H184.482V266.402H183.982V266.902ZM169.208 266.902H168.708V267.402H169.208V266.902ZM169.208 241.33H169.708V240.83H169.208V241.33ZM155.569 241.33V240.83H155.069V241.33H155.569ZM155.569 243.604H155.069V244.104H155.569V243.604ZM162.389 243.604H162.889V243.104H162.389V243.604ZM162.389 286.224V286.724H162.889V286.224H162.389ZM129.429 286.224H128.929V286.724H129.429V286.224ZM129.429 273.153H129.929V272.653H129.429V273.153ZM104.425 273.153V272.653H103.925V273.153H104.425ZM104.425 305.545V306.045H104.925V305.545H104.425ZM53.2803 305.545V305.045H52.7803V305.545H53.2803ZM53.2803 317.479H52.7803V317.979H53.2803V317.479ZM104.425 317.479H104.925V316.979H104.425V317.479ZM104.425 343.619V344.119H104.925V343.619H104.425ZM88.5137 343.619V343.119H88.0137V343.619H88.5137ZM88.5137 356.121H88.0137V356.621H88.5137V356.121ZM91.3545 356.121H91.8545V355.621H91.3545V356.121ZM91.3545 381.693H90.8545V382.193H91.3545V381.693ZM29.9814 311.228V311.728H30.4814V311.228H29.9814ZM29.9814 269.176V268.676H29.4814V269.176H29.9814ZM75.667 269.176H76.167V268.676H75.667V269.176ZM75.667 291.906H75.167V292.406H75.667V291.906ZM77.7158 291.906V292.406H78.2158V291.906H77.7158ZM77.7158 266.902H78.2158V266.402H77.7158V266.902ZM27.708 266.902V266.402H27.208V266.902H27.708ZM27.708 311.228H27.208V311.728H27.708V311.228ZM321.504 381.693V382.193H322.004V381.693H321.504ZM321.504 368.623V368.123H321.004V368.623H321.504ZM324.346 368.623V369.123H324.846V368.623H324.346ZM324.346 356.689H324.846V356.189H324.346V356.689ZM321.504 356.689H321.004V357.189H321.504V356.689ZM321.504 343.619H322.004V343.119H321.504V343.619ZM282.862 343.619H282.362V344.119H282.862V343.619ZM282.862 323.729V323.229H282.362V323.729H282.862ZM295.932 323.729V324.229H296.432V323.729H295.932ZM295.932 318.047H296.432V317.547H295.932V318.047ZM282.862 318.047H282.362V318.547H282.862V318.047ZM282.862 292.475H283.362V291.975H282.862V292.475ZM258.426 292.475V291.975H257.926V292.475H258.426ZM258.426 302.703V303.203H258.926V302.703H258.426ZM222.057 302.703H221.557V303.203H222.057V302.703ZM222.057 292.475H222.557V291.975H222.057V292.475ZM219.784 292.475V291.975H219.284V292.475H219.784ZM219.784 305.545V306.045H220.284V305.545H219.784ZM200.463 305.545V305.045H199.963V305.545H200.463ZM200.463 317.479H199.963V317.979H200.463V317.479ZM232.854 317.479H233.354V316.979H232.854V317.479ZM232.854 356.121H232.354V356.621H232.854V356.121ZM258.426 356.121H258.926V355.621H258.426V356.121ZM258.426 368.623H257.926V369.123H258.426V368.623ZM319.231 368.623H319.731V368.123H319.231V368.623ZM319.231 381.693H318.731V382.193H319.231V381.693ZM359.578 330.549V331.049H360.078V330.549H359.578ZM359.578 305.545H360.078V305.045H359.578V305.545ZM357.306 305.545V305.045H356.806V305.545H357.306ZM357.306 318.047V318.547H357.806V318.047H357.306ZM309.477 318.047V317.547H308.977V318.047H309.477ZM309.477 330.549H308.977V331.049H309.477V330.549ZM205.881 393.627V394.127H206.18L206.322 393.863L205.881 393.627ZM218.647 369.76L219.088 369.996L219.147 369.885V369.76H218.647ZM218.647 331.117H219.147V330.617H218.647V331.117ZM168.64 331.117V330.617H168.14V331.117H168.64ZM168.64 369.417H168.14V369.543L168.2 369.655L168.64 369.417ZM181.71 393.627L181.27 393.864L181.412 394.127H181.71V393.627ZM181.71 430.564V430.064H141.931V430.564V431.064H181.71V430.564ZM141.931 430.564H142.431V395.332H141.931H141.431V430.564H141.931ZM141.931 395.332V394.832H117.495V395.332V395.832H141.931V395.332ZM117.495 395.332H116.995V407.834H117.495H117.995V395.332H117.495ZM117.495 407.834V407.334H52.7119V407.834V408.334H117.495V407.834ZM52.7119 407.834H53.2119V356.121H52.7119H52.2119V407.834H52.7119ZM52.7119 356.121V356.621H68.0557V356.121V355.621H52.7119V356.121ZM68.0557 356.121H68.5557V343.619H68.0557H67.5557V356.121H68.0557ZM68.0557 343.619V343.119H29.9814V343.619V344.119H68.0557V343.619ZM29.9814 343.619H30.4814V324.866H29.9814H29.4814V343.619H29.9814ZM29.9814 324.866V324.366H27.708V324.866V325.366H29.9814V324.866ZM27.708 324.866H27.208V337.368H27.708H28.208V324.866H27.708ZM27.708 337.368V336.868H1V337.368V337.868H27.708V337.368ZM1 337.368H1.5V269.176H1H0.5V337.368H1ZM1 269.176V269.676H14.0703V269.176V268.676H1V269.176ZM14.0703 269.176H14.5703V266.902H14.0703H13.5703V269.176H14.0703ZM14.0703 266.902V266.402H1V266.902V267.402H14.0703V266.902ZM1 266.902H1.5V240.762H1H0.5V266.902H1ZM1 240.762V241.262H39.6416V240.762V240.262H1V240.762ZM39.6416 240.762H40.1416V227.691H39.6416H39.1416V240.762H39.6416ZM39.6416 227.691V228.191H42.4834V227.691V227.191H39.6416V227.691ZM42.4834 227.691H42.9834V216.028H42.4834H41.9834V227.691H42.4834ZM42.4834 216.028V215.528H26.8818V216.028V216.528H42.4834V216.028ZM26.8818 216.028H27.3818V176.548H26.8818H26.3818V216.028H26.8818ZM26.8818 176.548V177.048H77.7158V176.548V176.048H26.8818V176.548ZM77.7158 176.548H78.2158V125.403H77.7158H77.2158V176.548H77.7158ZM77.7158 125.403V125.903H129.429V125.403V124.903H77.7158V125.403ZM129.429 125.403H129.929V106.65H129.429H128.929V125.403H129.429ZM129.429 106.65V106.15H116.358V106.65V107.15H129.429V106.65ZM116.358 106.65H116.858V71.417H116.358H115.858V106.65H116.358ZM116.358 71.417V71.917H132.271V71.417V70.917H116.358V71.417ZM132.271 71.417H132.771V69.1445H132.271H131.771V71.417H132.271ZM132.271 69.1445L132.548 69.5605L166.644 46.8291L166.366 46.4131L166.089 45.9971L131.993 68.7285L132.271 69.1445ZM166.366 46.4131L166.59 46.8603L171.136 44.5879L170.912 44.1406L170.689 43.6934L166.143 45.9659L166.366 46.4131ZM170.912 44.1406H171.412V19.7051H170.912H170.412V44.1406H170.912ZM170.912 19.7051L171.266 20.0586L172.971 18.3535L172.617 18L172.264 17.6465L170.559 19.3515L170.912 19.7051ZM172.617 18V18.5H214.102V18V17.5H172.617V18ZM214.102 18L213.673 18.2571L215.377 21.0989L215.806 20.8418L216.234 20.5847L214.53 17.7429L214.102 18ZM215.806 20.8418H215.306V41.8672H215.806H216.306V20.8418H215.806ZM215.806 41.8672L215.638 42.3382L270.76 61.9905L270.928 61.5195L271.096 61.0486L215.974 41.3962L215.806 41.8672ZM270.928 61.5195H270.428V108.923H270.928H271.428V61.5195H270.928ZM270.928 108.923V108.423H258.426V108.923V109.423H270.928V108.923ZM258.426 108.923L257.926 108.917L257.59 137.899L258.09 137.905L258.59 137.911L258.926 108.929L258.426 108.923ZM258.09 137.905V138.405H309.57V137.905V137.405H258.09V137.905ZM309.57 137.905H309.07V189.617H309.57H310.07V137.905H309.57ZM309.57 189.617V189.117H296.5V189.617V190.117H309.57V189.617ZM296.5 189.617H296V221.44H296.5H297V189.617H296.5ZM296.5 221.44V221.94H299.094V221.44V220.94H296.5V221.44ZM299.094 221.44H299.594V208.37H299.094H298.594V221.44H299.094ZM299.094 208.37V208.87H360.146V208.37V207.87H299.094V208.37ZM360.146 208.37H359.646V241.898H360.146H360.646V208.37H360.146ZM360.146 241.898V241.398H344.804V241.898V242.398H360.146V241.898ZM344.804 241.898H344.304V253.264H344.804H345.304V241.898H344.804ZM344.804 253.264V253.764H360.146V253.264V252.764H344.804V253.264ZM360.146 253.264H359.646V279.973H360.146H360.646V253.264H360.146ZM360.146 279.973V279.473H348.213V279.973V280.473H360.146V279.973ZM348.213 279.973H347.713V291.906H348.213H348.713V279.973H348.213ZM348.213 291.906V292.406H386.287V291.906V291.406H348.213V291.906ZM386.287 291.906H385.787V356.689H386.287H386.787V291.906H386.287ZM386.287 356.689V356.189H344.546V356.689V357.189H386.287V356.689ZM344.546 356.689H344.046V368.313H344.546H345.046V356.689H344.546ZM344.546 368.313V368.813H360.473V368.313V367.813H344.546V368.313ZM360.473 368.313H359.973V407.834H360.473H360.973V368.313H360.473ZM360.473 407.834V407.334H295.932V407.834V408.334H360.473V407.834ZM295.932 407.834H296.432V395.332H295.932H295.432V407.834H295.932ZM295.932 395.332V394.832H245.356V395.332V395.832H295.932V395.332ZM245.356 395.332H244.856V430.564H245.356H245.856V395.332H245.356ZM245.356 430.564V430.064H211.26V430.564V431.064H245.356V430.564ZM211.26 430.564H210.76V455H211.26H211.76V430.564H211.26ZM211.26 455V454.5H181.71V455V455.5H211.26V455ZM181.71 455H182.21V430.564H181.71H181.21V455H181.71ZM167.503 164.046H168.003V125.403H167.503H167.003V164.046H167.503ZM167.503 125.403V125.903H230.013V125.403V124.903H167.503V125.403ZM230.013 125.403H229.513V137.905H230.013H230.513V125.403H230.013ZM230.013 137.905V138.405H231.718V137.905V137.405H230.013V137.905ZM231.718 137.905H232.218V87.8975H231.718H231.218V137.905H231.718ZM231.718 87.8975V87.3975H155.569V87.8975V88.3975H231.718V87.8975ZM155.569 87.8975H155.069V164.046H155.569H156.069V87.8975H155.569ZM155.569 164.046V164.546H167.503V164.046V163.546H155.569V164.046ZM269.792 279.404H270.292V253.264H269.792H269.292V279.404H269.792ZM269.792 253.264V253.764H324.346V253.264V252.764H269.792V253.264ZM324.346 253.264H324.846V241.898H324.346H323.846V253.264H324.346ZM324.346 241.898V241.398H269.792V241.898V242.398H324.346V241.898ZM269.792 241.898H270.292V166.887H269.792H269.292V241.898H269.792ZM269.792 166.887V167.387H282.862V166.887V166.387H269.792V166.887ZM282.862 166.887H283.362V164.614H282.862H282.362V166.887H282.862ZM282.862 164.614V164.114H231.718V164.614V165.114H282.862V164.614ZM231.718 164.614H232.218V151.544H231.718H231.218V164.614H231.718ZM231.718 151.544V151.044H207.282V151.544V152.044H231.718V151.544ZM207.282 151.544H206.782V189.618H207.282H207.782V151.544H207.282ZM207.282 189.618V190.118H219.784V189.618V189.118H207.282V189.618ZM219.784 189.618H219.284V215.758H219.784H220.284V189.618H219.784ZM219.784 215.758V215.258H207.282V215.758V216.258H219.784V215.758ZM207.282 215.758H206.782V227.691H207.282H207.782V215.758H207.282ZM207.282 227.691V228.191H219.784V227.691V227.191H207.282V227.691ZM219.784 227.691H219.284V266.902H219.784H220.284V227.691H219.784ZM219.784 266.902V266.402H203.304V266.902V267.402H219.784V266.902ZM203.304 266.902H202.804V279.404H203.304H203.804V266.902H203.304ZM203.304 279.404V279.904H231.718V279.404V278.904H203.304V279.404ZM231.718 279.404L232.081 279.748L241.741 269.519L241.378 269.176L241.014 268.832L231.354 279.061L231.718 279.404ZM241.378 269.176V269.676H258.426V269.176V268.676H241.378V269.176ZM258.426 269.176H257.926V279.404H258.426H258.926V269.176H258.426ZM258.426 279.404V279.904H269.792V279.404V278.904H258.426V279.404ZM142.499 260.083H142.999V241.33H142.499H141.999V260.083H142.499ZM142.499 241.33V240.83H129.429V241.33V241.83H142.499V241.33ZM129.429 241.33H129.929V215.189H129.429H128.929V241.33H129.429ZM129.429 215.189V215.689H166.366V215.189V214.689H129.429V215.189ZM166.366 215.189H165.866V227.691H166.366H166.866V215.189H166.366ZM166.366 227.691V228.191H168.071V227.691V227.191H166.366V227.691ZM168.071 227.691H168.571V189.618H168.071H167.571V227.691H168.071ZM168.071 189.618V190.118H180.573V189.618V189.118H168.071V189.618ZM180.573 189.618H181.073V177.116H180.573H180.073V189.618H180.573ZM180.573 177.116V176.616H129.429V177.116V177.616H180.573V177.116ZM129.429 177.116H129.929V151.544H129.429H128.929V177.116H129.429ZM129.429 151.544V151.044H117.495V151.544V152.044H129.429V151.544ZM117.495 151.544H116.995V215.758H117.495H117.995V151.544H117.495ZM117.495 215.758V215.258H77.7158V215.758V216.258H117.495V215.758ZM77.7158 215.758H78.2158V203.256H77.7158H77.2158V215.758H77.7158ZM77.7158 203.256V202.756H65.7822V203.256V203.756H77.7158V203.256ZM65.7822 203.256H65.2822V215.758H65.7822H66.2822V203.256H65.7822ZM65.7822 215.758V215.258H62.9414V215.758V216.258H65.7822V215.758ZM62.9414 215.758H62.4414V227.691H62.9414H63.4414V215.758H62.9414ZM62.9414 227.691V228.191H66.3506V227.691V227.191H62.9414V227.691ZM66.3506 227.691L66.1147 228.132L90.5503 241.203L90.7861 240.762L91.022 240.321L66.5864 227.251L66.3506 227.691ZM90.7861 240.762V241.262H117.495V240.762V240.262H90.7861V240.762ZM117.495 240.762H116.995V260.083H117.495H117.995V240.762H117.495ZM117.495 260.083V260.583H142.499V260.083V259.583H117.495V260.083ZM94.1963 381.693H94.6963V368.623H94.1963H93.6963V381.693H94.1963ZM94.1963 368.623V369.123H129.429V368.623V368.123H94.1963V368.623ZM129.429 368.623H129.929V356.121H129.429H128.929V368.623H129.429ZM129.429 356.121V356.621H154.433V356.121V355.621H129.429V356.121ZM154.433 356.121H154.933V317.479H154.433H153.933V356.121H154.433ZM154.433 317.479V317.979H186.824V317.479V316.979H154.433V317.479ZM186.824 317.479H187.324V305.545H186.824H186.324V317.479H186.824ZM186.824 305.545V305.045H173.754V305.545V306.045H186.824V305.545ZM173.754 305.545H174.254V279.404H173.754H173.254V305.545H173.754ZM173.754 279.404V279.904H183.982V279.404V278.904H173.754V279.404ZM183.982 279.404H184.482V266.902H183.982H183.482V279.404H183.982ZM183.982 266.902V266.402H169.208V266.902V267.402H183.982V266.902ZM169.208 266.902H169.708V241.33H169.208H168.708V266.902H169.208ZM169.208 241.33V240.83H155.569V241.33V241.83H169.208V241.33ZM155.569 241.33H155.069V243.604H155.569H156.069V241.33H155.569ZM155.569 243.604V244.104H162.389V243.604V243.104H155.569V243.604ZM162.389 243.604H161.889V286.224H162.389H162.889V243.604H162.389ZM162.389 286.224V285.724H129.429V286.224V286.724H162.389V286.224ZM129.429 286.224H129.929V273.153H129.429H128.929V286.224H129.429ZM129.429 273.153V272.653H104.425V273.153V273.653H129.429V273.153ZM104.425 273.153H103.925V305.545H104.425H104.925V273.153H104.425ZM104.425 305.545V305.045H53.2803V305.545V306.045H104.425V305.545ZM53.2803 305.545H52.7803V317.479H53.2803H53.7803V305.545H53.2803ZM53.2803 317.479V317.979H104.425V317.479V316.979H53.2803V317.479ZM104.425 317.479H103.925V343.619H104.425H104.925V317.479H104.425ZM104.425 343.619V343.119H88.5137V343.619V344.119H104.425V343.619ZM88.5137 343.619H88.0137V356.121H88.5137H89.0137V343.619H88.5137ZM88.5137 356.121V356.621H91.3545V356.121V355.621H88.5137V356.121ZM91.3545 356.121H90.8545V381.693H91.3545H91.8545V356.121H91.3545ZM91.3545 381.693V382.193H94.1963V381.693V381.193H91.3545V381.693ZM29.9814 311.228H30.4814V269.176H29.9814H29.4814V311.228H29.9814ZM29.9814 269.176V269.676H75.667V269.176V268.676H29.9814V269.176ZM75.667 269.176H75.167V291.906H75.667H76.167V269.176H75.667ZM75.667 291.906V292.406H77.7158V291.906V291.406H75.667V291.906ZM77.7158 291.906H78.2158V266.902H77.7158H77.2158V291.906H77.7158ZM77.7158 266.902V266.402H27.708V266.902V267.402H77.7158V266.902ZM27.708 266.902H27.208V311.228H27.708H28.208V266.902H27.708ZM27.708 311.228V311.728H29.9814V311.228V310.728H27.708V311.228ZM321.504 381.693H322.004V368.623H321.504H321.004V381.693H321.504ZM321.504 368.623V369.123H324.346V368.623V368.123H321.504V368.623ZM324.346 368.623H324.846V356.689H324.346H323.846V368.623H324.346ZM324.346 356.689V356.189H321.504V356.689V357.189H324.346V356.689ZM321.504 356.689H322.004V343.619H321.504H321.004V356.689H321.504ZM321.504 343.619V343.119H282.862V343.619V344.119H321.504V343.619ZM282.862 343.619H283.362V323.729H282.862H282.362V343.619H282.862ZM282.862 323.729V324.229H295.932V323.729V323.229H282.862V323.729ZM295.932 323.729H296.432V318.047H295.932H295.432V323.729H295.932ZM295.932 318.047V317.547H282.862V318.047V318.547H295.932V318.047ZM282.862 318.047H283.362V292.475H282.862H282.362V318.047H282.862ZM282.862 292.475V291.975H258.426V292.475V292.975H282.862V292.475ZM258.426 292.475H257.926V302.703H258.426H258.926V292.475H258.426ZM258.426 302.703V302.203H222.057V302.703V303.203H258.426V302.703ZM222.057 302.703H222.557V292.475H222.057H221.557V302.703H222.057ZM222.057 292.475V291.975H219.784V292.475V292.975H222.057V292.475ZM219.784 292.475H219.284V305.545H219.784H220.284V292.475H219.784ZM219.784 305.545V305.045H200.463V305.545V306.045H219.784V305.545ZM200.463 305.545H199.963V317.479H200.463H200.963V305.545H200.463ZM200.463 317.479V317.979H232.854V317.479V316.979H200.463V317.479ZM232.854 317.479H232.354V356.121H232.854H233.354V317.479H232.854ZM232.854 356.121V356.621H258.426V356.121V355.621H232.854V356.121ZM258.426 356.121H257.926V368.623H258.426H258.926V356.121H258.426ZM258.426 368.623V369.123H319.231V368.623V368.123H258.426V368.623ZM319.231 368.623H318.731V381.693H319.231H319.731V368.623H319.231ZM319.231 381.693V382.193H321.504V381.693V381.193H319.231V381.693ZM359.578 330.549H360.078V305.545H359.578H359.078V330.549H359.578ZM359.578 305.545V305.045H357.306V305.545V306.045H359.578V305.545ZM357.306 305.545H356.806V318.047H357.306H357.806V305.545H357.306ZM357.306 318.047V317.547H309.477V318.047V318.547H357.306V318.047ZM309.477 318.047H308.977V330.549H309.477H309.977V318.047H309.477ZM309.477 330.549V331.049H359.578V330.549V330.049H309.477V330.549ZM205.881 393.627L206.322 393.863L219.088 369.996L218.647 369.76L218.207 369.524L205.44 393.391L205.881 393.627ZM218.647 369.76H219.147V331.117H218.647H218.147V369.76H218.647ZM218.647 331.117V330.617H168.64V331.117V331.617H218.647V331.117ZM168.64 331.117H168.14V369.417H168.64H169.14V331.117H168.64ZM168.64 369.417L168.2 369.655L181.27 393.864L181.71 393.627L182.15 393.389L169.08 369.179L168.64 369.417ZM181.71 393.627V394.127H205.881V393.627V393.127H181.71V393.627Z" fill="#B27C40"/>
<path d="M309.571 318.047V315.206H295.932V318.047M359.578 330.549V336.8H353.896V330.549M386.287 327.707H380.036V321.457H386.287M373.217 291.906V330.549M292.522 253.264V260.083H286.84V253.264M321.504 241.899V234.511H315.253V241.899M360.147 215.19H353.896V208.371M238.537 164.614V157.795H231.718M207.282 173.706H200.463V168.023H207.282M91.3547 240.762L87.9451 246.445L82.8307 243.603L86.2403 237.921M27.7084 295.316H20.8892V289.633H27.7084M29.9815 291.906H36.2325V286.224H29.9815M53.2806 305.545V299.294H58.9633V305.545M81.1258 317.479V324.298H75.4431V317.479M169.208 242.467H181.141V241.33H169.208M168.071 211.78H174.322V206.098H168.071M193.643 125.403V132.222H167.503M155.569 131.654H149.318V119.152H155.569M100.447 125.403V131.654H94.7643V125.403M117.495 151.544H110.676V157.226H117.495M55.5537 176.548V182.798H49.871V176.548M39.6421 240.762V253.264H33.3911V240.762M307.866 298.157H295.932V273.154H307.866V298.157ZM97.6057 176.548H77.7162V172.57H97.6057V176.548Z" stroke="#B27C40"/>
<path d="M181.142 242.467H193.075V215.758H191.939V225.419M181.142 241.33H191.939V231.101M191.939 231.101H189.097V225.419H191.939M191.939 231.101V225.419M237.969 49.8232L235.127 51.528L233.423 56.0742L230.013 54.9376L231.718 50.3915L231.149 47.5501M193.075 18V20.8414L187.393 25.3876L182.278 20.8414V18M152.728 55.5059V58.3472L155.57 61.7569L152.16 64.5982L149.319 60.6203L147.045 59.4838M299.342 137.905V141.315H293.091V137.905M321.504 343.619C321.504 343.443 321.504 342.069 321.504 340.209M321.504 330.549C321.504 333.103 321.504 337.265 321.504 340.209M321.504 345.892H324.346V340.209H321.504M200.463 311.228H186.824M186.824 307.25H200.463M173.754 286.224L180.573 279.404M84.5357 172.57V166.319H77.7165M33.3914 253.264H27.1404M198.19 69.7127L201.031 64.0299C200.084 62.1357 197.622 58.3472 197.622 58.3472C197.622 58.3472 193.265 58.3472 191.371 58.3472L187.961 64.0299L191.371 69.7127H198.19ZM315.822 306.113H334.575V265.198H315.254V266.334H333.438V304.977H315.822V306.113Z" stroke="#B27C40" stroke-width="0.5"/>
<path d="M333.438 291.906H327.755V279.404H333.438" stroke="#B27C40"/>
<path d="M307.297 295.316H301.615V275.995H307.297" stroke="#B27C40" stroke-opacity="0.23"/>
<path d="M30.5493 269.744H75.0845V304.977H30.5493V269.744ZM36.7329 292.406V285.724H30.6177V292.406H36.7329ZM59.4634 304.908V298.794H52.7808V304.908H59.4634Z" fill="#F08234" fill-opacity="0.23"/>
<path d="M59.9883 290.973H61.5352L58.7187 282.973H56.9297L54.1094 290.973H55.6562L57.793 284.613H57.8555L59.9883 290.973ZM59.9375 287.836H55.7187V289H59.9375V287.836Z" fill="white"/>
<path d="M295.932 266.654H333.154V278.904H327.255V292.406H333.154V304.672H295.932V266.654ZM308.366 298.657V294.815H302.115V276.495H308.366V272.653H296V298.657H308.366Z" fill="#F08234" fill-opacity="0.23"/>
<path d="M313.769 292.109V284.109H316.832C317.41 284.109 317.89 284.2 318.273 284.383C318.658 284.562 318.946 284.808 319.136 285.121C319.329 285.433 319.425 285.788 319.425 286.183C319.425 286.509 319.363 286.788 319.238 287.019C319.113 287.249 318.945 287.435 318.734 287.578C318.523 287.721 318.287 287.824 318.027 287.887V287.965C318.311 287.98 318.583 288.068 318.843 288.226C319.106 288.383 319.321 288.604 319.488 288.891C319.654 289.177 319.738 289.523 319.738 289.93C319.738 290.344 319.638 290.716 319.437 291.047C319.236 291.375 318.934 291.634 318.531 291.824C318.127 292.014 317.619 292.109 317.007 292.109H313.769ZM315.218 290.898H316.777C317.303 290.898 317.682 290.798 317.914 290.598C318.148 290.394 318.265 290.134 318.265 289.816C318.265 289.579 318.207 289.366 318.089 289.176C317.972 288.983 317.806 288.832 317.589 288.723C317.373 288.611 317.115 288.555 316.816 288.555H315.218V290.898ZM315.218 287.512H316.652C316.902 287.512 317.127 287.466 317.328 287.375C317.528 287.281 317.686 287.15 317.8 286.98C317.917 286.808 317.976 286.605 317.976 286.371C317.976 286.061 317.867 285.806 317.648 285.605C317.432 285.405 317.11 285.305 316.683 285.305H315.218V287.512Z" fill="white"/>
<circle cx="240.242" cy="162.909" r="2.02308" transform="rotate(180 240.242 162.909)" stroke="#B27C40" stroke-width="0.5"/>
<circle cx="195.348" cy="130.518" r="1.45481" transform="rotate(180 195.348 130.518)" stroke="#B27C40" stroke-width="0.5"/>
<circle cx="195.348" cy="127.108" r="1.45481" transform="rotate(180 195.348 127.108)" stroke="#B27C40" stroke-width="0.5"/>
</svg>
