<svg width="387" height="473" viewBox="0 0 387 473" fill="none" xmlns="http://www.w3.org/2000/svg">
<path d="M205.077 42.4355H244.856V77.668H269.292V65.166H334.075V116.879H318.731V129.381H356.806V148.134H359.079V135.632H385.787V203.824H372.717V206.098H385.787V232.238H347.146V245.309H344.304V256.972H359.905V296.452H309.071V347.597H257.358V366.35H270.429V401.583H254.517V403.855L220.421 426.587L215.875 428.859V453.295L214.17 455H172.686L170.981 452.158V431.133L115.859 411.48V364.077H128.361L128.697 335.095H77.2168V283.383H90.2871V251.56H87.6934V264.63H26.6406V231.102H41.9834V219.736H26.6406V193.027H38.5742V181.094H0.5V116.311H42.2412V104.687H26.3145V65.166H90.8555V77.668H141.431V42.4355H175.527V18H205.077V42.4355ZM219.284 308.954V347.597H156.774V335.095H155.069V385.103H231.218V308.954H219.284ZM116.995 193.596V219.736H62.4414V231.102H116.995V306.113H103.925V308.386H155.069V321.456H179.505V283.382H167.003V257.242H179.505V245.309H167.003V206.098H183.483V193.596H155.069L145.409 203.824H128.361V193.596H116.995ZM244.288 212.917V231.67H257.358V257.811H220.421V245.309H218.716V283.382H206.214V295.884H257.358V321.456H269.292V257.242H309.071V269.744H321.005V257.242H323.846V245.309H320.437L296.001 232.238H269.292V212.917H244.288ZM292.591 91.3066V104.377H257.358V116.879H232.354V155.521H199.963V167.455H213.033V193.596H202.805V206.098H217.579V231.67H231.218V229.396H224.398V186.776H257.358V199.847H282.362V167.455H333.507V155.521H282.362V129.381H298.273V116.879H295.433V91.3066H292.591ZM356.806 161.772V203.824H311.12V181.094H309.071V206.098H359.079V161.772H356.806ZM65.2832 91.3066V104.377H62.4414V116.311H65.2832V129.381H103.925V149.271H90.8555V154.953H103.925V180.525H128.361V170.297H164.73V180.525H167.003V167.455H186.324V155.521H153.933V116.879H128.361V104.377H67.5557V91.3066H65.2832ZM27.209 142.451V167.455H29.4814V154.953H77.3105V142.451H27.209ZM180.906 79.373L168.14 103.24V141.883H218.147V103.583L205.077 79.373H180.906Z" fill="#271406"/>
<path d="M205.077 42.4355H204.577V42.9355H205.077V42.4355ZM244.856 42.4355H245.356V41.9355H244.856V42.4355ZM244.856 77.668H244.356V78.168H244.856V77.668ZM269.292 77.668V78.168H269.792V77.668H269.292ZM269.292 65.166V64.666H268.792V65.166H269.292ZM334.075 65.166H334.575V64.666H334.075V65.166ZM334.075 116.879V117.379H334.575V116.879H334.075ZM318.731 116.879V116.379H318.231V116.879H318.731ZM318.731 129.381H318.231V129.881H318.731V129.381ZM356.806 129.381H357.306V128.881H356.806V129.381ZM356.806 148.134H356.306V148.634H356.806V148.134ZM359.079 148.134V148.634H359.579V148.134H359.079ZM359.079 135.632V135.132H358.579V135.632H359.079ZM385.787 135.632H386.287V135.132H385.787V135.632ZM385.787 203.824V204.324H386.287V203.824H385.787ZM372.717 203.824V203.324H372.217V203.824H372.717ZM372.717 206.098H372.217V206.598H372.717V206.098ZM385.787 206.098H386.287V205.598H385.787V206.098ZM385.787 232.238V232.738H386.287V232.238H385.787ZM347.146 232.238V231.738H346.646V232.238H347.146ZM347.146 245.309V245.809H347.646V245.309H347.146ZM344.304 245.309V244.809H343.804V245.309H344.304ZM344.304 256.972H343.804V257.472H344.304V256.972ZM359.905 256.972H360.405V256.472H359.905V256.972ZM359.905 296.452V296.952H360.405V296.452H359.905ZM309.071 296.452V295.952H308.571V296.452H309.071ZM309.071 347.597V348.097H309.571V347.597H309.071ZM257.358 347.597V347.097H256.858V347.597H257.358ZM257.358 366.35H256.858V366.85H257.358V366.35ZM270.429 366.35H270.929V365.85H270.429V366.35ZM270.429 401.583V402.083H270.929V401.583H270.429ZM254.517 401.583V401.083H254.017V401.583H254.517ZM254.517 403.855L254.794 404.271L255.017 404.123V403.855H254.517ZM220.421 426.587L220.644 427.034L220.672 427.02L220.698 427.003L220.421 426.587ZM215.875 428.859L215.651 428.412L215.375 428.55V428.859H215.875ZM215.875 453.295L216.229 453.648L216.375 453.502V453.295H215.875ZM214.17 455V455.5H214.377L214.523 455.354L214.17 455ZM172.686 455L172.257 455.257L172.402 455.5H172.686V455ZM170.981 452.158H170.481V452.297L170.553 452.415L170.981 452.158ZM170.981 431.133H171.481V430.78L171.149 430.662L170.981 431.133ZM115.859 411.48H115.359V411.833L115.691 411.951L115.859 411.48ZM115.859 364.077V363.577H115.359V364.077H115.859ZM128.361 364.077V364.577H128.856L128.861 364.083L128.361 364.077ZM128.697 335.095L129.197 335.101L129.203 334.595H128.697V335.095ZM77.2168 335.095H76.7168V335.595H77.2168V335.095ZM77.2168 283.383V282.883H76.7168V283.383H77.2168ZM90.2871 283.383V283.883H90.7871V283.383H90.2871ZM90.2871 251.56H90.7871V251.06H90.2871V251.56ZM87.6934 251.56V251.06H87.1934V251.56H87.6934ZM87.6934 264.63V265.13H88.1934V264.63H87.6934ZM26.6406 264.63H26.1406V265.13H26.6406V264.63ZM26.6406 231.102V230.602H26.1406V231.102H26.6406ZM41.9834 231.102V231.602H42.4834V231.102H41.9834ZM41.9834 219.736H42.4834V219.236H41.9834V219.736ZM26.6406 219.736H26.1406V220.236H26.6406V219.736ZM26.6406 193.027V192.527H26.1406V193.027H26.6406ZM38.5742 193.027V193.527H39.0742V193.027H38.5742ZM38.5742 181.094H39.0742V180.594H38.5742V181.094ZM0.5 181.094H0V181.594H0.5V181.094ZM0.5 116.311V115.811H0V116.311H0.5ZM42.2412 116.311V116.811H42.7412V116.311H42.2412ZM42.2412 104.687H42.7412V104.187H42.2412V104.687ZM26.3145 104.687H25.8145V105.187H26.3145V104.687ZM26.3145 65.166V64.666H25.8145V65.166H26.3145ZM90.8555 65.166H91.3555V64.666H90.8555V65.166ZM90.8555 77.668H90.3555V78.168H90.8555V77.668ZM141.431 77.668V78.168H141.931V77.668H141.431ZM141.431 42.4355V41.9355H140.931V42.4355H141.431ZM175.527 42.4355V42.9355H176.027V42.4355H175.527ZM175.527 18V17.5H175.027V18H175.527ZM205.077 18H205.577V17.5H205.077V18ZM219.284 308.954V308.454H218.784V308.954H219.284ZM219.284 347.597V348.097H219.784V347.597H219.284ZM156.774 347.597H156.274V348.097H156.774V347.597ZM156.774 335.095H157.274V334.595H156.774V335.095ZM155.069 335.095V334.595H154.569V335.095H155.069ZM155.069 385.103H154.569V385.603H155.069V385.103ZM231.218 385.103V385.603H231.718V385.103H231.218ZM231.218 308.954H231.718V308.454H231.218V308.954ZM116.995 193.596V193.096H116.495V193.596H116.995ZM116.995 219.736V220.236H117.495V219.736H116.995ZM62.4414 219.736V219.236H61.9414V219.736H62.4414ZM62.4414 231.102H61.9414V231.602H62.4414V231.102ZM116.995 231.102H117.495V230.602H116.995V231.102ZM116.995 306.113V306.613H117.495V306.113H116.995ZM103.925 306.113V305.613H103.425V306.113H103.925ZM103.925 308.386H103.425V308.886H103.925V308.386ZM155.069 308.386H155.569V307.886H155.069V308.386ZM155.069 321.456H154.569V321.956H155.069V321.456ZM179.505 321.456V321.956H180.005V321.456H179.505ZM179.505 283.382H180.005V282.882H179.505V283.382ZM167.003 283.382H166.503V283.882H167.003V283.382ZM167.003 257.242V256.742H166.503V257.242H167.003ZM179.505 257.242V257.742H180.005V257.242H179.505ZM179.505 245.309H180.005V244.809H179.505V245.309ZM167.003 245.309H166.503V245.809H167.003V245.309ZM167.003 206.098V205.598H166.503V206.098H167.003ZM183.483 206.098V206.598H183.983V206.098H183.483ZM183.483 193.596H183.983V193.096H183.483V193.596ZM155.069 193.596V193.096H154.854L154.706 193.252L155.069 193.596ZM145.409 203.824V204.324H145.625L145.773 204.168L145.409 203.824ZM128.361 203.824H127.861V204.324H128.361V203.824ZM128.361 193.596H128.861V193.096H128.361V193.596ZM244.288 212.917V212.417H243.788V212.917H244.288ZM244.288 231.67H243.788V232.17H244.288V231.67ZM257.358 231.67H257.858V231.17H257.358V231.67ZM257.358 257.811V258.311H257.858V257.811H257.358ZM220.421 257.811H219.921V258.311H220.421V257.811ZM220.421 245.309H220.921V244.809H220.421V245.309ZM218.716 245.309V244.809H218.216V245.309H218.716ZM218.716 283.382V283.882H219.216V283.382H218.716ZM206.214 283.382V282.882H205.714V283.382H206.214ZM206.214 295.884H205.714V296.384H206.214V295.884ZM257.358 295.884H257.858V295.384H257.358V295.884ZM257.358 321.456H256.858V321.956H257.358V321.456ZM269.292 321.456V321.956H269.792V321.456H269.292ZM269.292 257.242V256.742H268.792V257.242H269.292ZM309.071 257.242H309.571V256.742H309.071V257.242ZM309.071 269.744H308.571V270.244H309.071V269.744ZM321.005 269.744V270.244H321.505V269.744H321.005ZM321.005 257.242V256.742H320.505V257.242H321.005ZM323.846 257.242V257.742H324.346V257.242H323.846ZM323.846 245.309H324.346V244.809H323.846V245.309ZM320.437 245.309L320.201 245.749L320.311 245.809H320.437V245.309ZM296.001 232.238L296.237 231.797L296.126 231.738H296.001V232.238ZM269.292 232.238H268.792V232.738H269.292V232.238ZM269.292 212.917H269.792V212.417H269.292V212.917ZM292.591 91.3066V90.8066H292.091V91.3066H292.591ZM292.591 104.377V104.877H293.091V104.377H292.591ZM257.358 104.377V103.877H256.858V104.377H257.358ZM257.358 116.879V117.379H257.858V116.879H257.358ZM232.354 116.879V116.379H231.854V116.879H232.354ZM232.354 155.521V156.021H232.854V155.521H232.354ZM199.963 155.521V155.021H199.463V155.521H199.963ZM199.963 167.455H199.463V167.955H199.963V167.455ZM213.033 167.455H213.533V166.955H213.033V167.455ZM213.033 193.596V194.096H213.533V193.596H213.033ZM202.805 193.596V193.096H202.305V193.596H202.805ZM202.805 206.098H202.305V206.598H202.805V206.098ZM217.579 206.098H218.079V205.598H217.579V206.098ZM217.579 231.67H217.079V232.17H217.579V231.67ZM231.218 231.67V232.17H231.718V231.67H231.218ZM231.218 229.396H231.718V228.896H231.218V229.396ZM224.398 229.396H223.898V229.896H224.398V229.396ZM224.398 186.776V186.276H223.898V186.776H224.398ZM257.358 186.776H257.858V186.276H257.358V186.776ZM257.358 199.847H256.858V200.347H257.358V199.847ZM282.362 199.847V200.347H282.862V199.847H282.362ZM282.362 167.455V166.955H281.862V167.455H282.362ZM333.507 167.455V167.955H334.007V167.455H333.507ZM333.507 155.521H334.007V155.021H333.507V155.521ZM282.362 155.521H281.862V156.021H282.362V155.521ZM282.362 129.381V128.881H281.862V129.381H282.362ZM298.273 129.381V129.881H298.773V129.381H298.273ZM298.273 116.879H298.773V116.379H298.273V116.879ZM295.433 116.879H294.933V117.379H295.433V116.879ZM295.433 91.3066H295.933V90.8066H295.433V91.3066ZM356.806 161.772V161.272H356.306V161.772H356.806ZM356.806 203.824V204.324H357.306V203.824H356.806ZM311.12 203.824H310.62V204.324H311.12V203.824ZM311.12 181.094H311.62V180.594H311.12V181.094ZM309.071 181.094V180.594H308.571V181.094H309.071ZM309.071 206.098H308.571V206.598H309.071V206.098ZM359.079 206.098V206.598H359.579V206.098H359.079ZM359.079 161.772H359.579V161.272H359.079V161.772ZM65.2832 91.3066V90.8066H64.7832V91.3066H65.2832ZM65.2832 104.377V104.877H65.7832V104.377H65.2832ZM62.4414 104.377V103.877H61.9414V104.377H62.4414ZM62.4414 116.311H61.9414V116.811H62.4414V116.311ZM65.2832 116.311H65.7832V115.811H65.2832V116.311ZM65.2832 129.381H64.7832V129.881H65.2832V129.381ZM103.925 129.381H104.425V128.881H103.925V129.381ZM103.925 149.271V149.771H104.425V149.271H103.925ZM90.8555 149.271V148.771H90.3555V149.271H90.8555ZM90.8555 154.953H90.3555V155.453H90.8555V154.953ZM103.925 154.953H104.425V154.453H103.925V154.953ZM103.925 180.525H103.425V181.025H103.925V180.525ZM128.361 180.525V181.025H128.861V180.525H128.361ZM128.361 170.297V169.797H127.861V170.297H128.361ZM164.73 170.297H165.23V169.797H164.73V170.297ZM164.73 180.525H164.23V181.025H164.73V180.525ZM167.003 180.525V181.025H167.503V180.525H167.003ZM167.003 167.455V166.955H166.503V167.455H167.003ZM186.324 167.455V167.955H186.824V167.455H186.324ZM186.324 155.521H186.824V155.021H186.324V155.521ZM153.933 155.521H153.433V156.021H153.933V155.521ZM153.933 116.879H154.433V116.379H153.933V116.879ZM128.361 116.879H127.861V117.379H128.361V116.879ZM128.361 104.377H128.861V103.877H128.361V104.377ZM67.5557 104.377H67.0557V104.877H67.5557V104.377ZM67.5557 91.3066H68.0557V90.8066H67.5557V91.3066ZM27.209 142.451V141.951H26.709V142.451H27.209ZM27.209 167.455H26.709V167.955H27.209V167.455ZM29.4814 167.455V167.955H29.9814V167.455H29.4814ZM29.4814 154.953V154.453H28.9814V154.953H29.4814ZM77.3105 154.953V155.453H77.8105V154.953H77.3105ZM77.3105 142.451H77.8105V141.951H77.3105V142.451ZM180.906 79.373V78.873H180.607L180.465 79.1372L180.906 79.373ZM168.14 103.24L167.699 103.004L167.64 103.115V103.24H168.14ZM168.14 141.883H167.64V142.383H168.14V141.883ZM218.147 141.883V142.383H218.647V141.883H218.147ZM218.147 103.583H218.647V103.457L218.587 103.345L218.147 103.583ZM205.077 79.373L205.517 79.1355L205.375 78.873H205.077V79.373ZM205.077 42.4355V42.9355H244.856V42.4355V41.9355H205.077V42.4355ZM244.856 42.4355H244.356V77.668H244.856H245.356V42.4355H244.856ZM244.856 77.668V78.168H269.292V77.668V77.168H244.856V77.668ZM269.292 77.668H269.792V65.166H269.292H268.792V77.668H269.292ZM269.292 65.166V65.666H334.075V65.166V64.666H269.292V65.166ZM334.075 65.166H333.575V116.879H334.075H334.575V65.166H334.075ZM334.075 116.879V116.379H318.731V116.879V117.379H334.075V116.879ZM318.731 116.879H318.231V129.381H318.731H319.231V116.879H318.731ZM318.731 129.381V129.881H356.806V129.381V128.881H318.731V129.381ZM356.806 129.381H356.306V148.134H356.806H357.306V129.381H356.806ZM356.806 148.134V148.634H359.079V148.134V147.634H356.806V148.134ZM359.079 148.134H359.579V135.632H359.079H358.579V148.134H359.079ZM359.079 135.632V136.132H385.787V135.632V135.132H359.079V135.632ZM385.787 135.632H385.287V203.824H385.787H386.287V135.632H385.787ZM385.787 203.824V203.324H372.717V203.824V204.324H385.787V203.824ZM372.717 203.824H372.217V206.098H372.717H373.217V203.824H372.717ZM372.717 206.098V206.598H385.787V206.098V205.598H372.717V206.098ZM385.787 206.098H385.287V232.238H385.787H386.287V206.098H385.787ZM385.787 232.238V231.738H347.146V232.238V232.738H385.787V232.238ZM347.146 232.238H346.646V245.309H347.146H347.646V232.238H347.146ZM347.146 245.309V244.809H344.304V245.309V245.809H347.146V245.309ZM344.304 245.309H343.804V256.972H344.304H344.804V245.309H344.304ZM344.304 256.972V257.472H359.905V256.972V256.472H344.304V256.972ZM359.905 256.972H359.405V296.452H359.905H360.405V256.972H359.905ZM359.905 296.452V295.952H309.071V296.452V296.952H359.905V296.452ZM309.071 296.452H308.571V347.597H309.071H309.571V296.452H309.071ZM309.071 347.597V347.097H257.358V347.597V348.097H309.071V347.597ZM257.358 347.597H256.858V366.35H257.358H257.858V347.597H257.358ZM257.358 366.35V366.85H270.429V366.35V365.85H257.358V366.35ZM270.429 366.35H269.929V401.583H270.429H270.929V366.35H270.429ZM270.429 401.583V401.083H254.517V401.583V402.083H270.429V401.583ZM254.517 401.583H254.017V403.855H254.517H255.017V401.583H254.517ZM254.517 403.855L254.239 403.439L220.144 426.171L220.421 426.587L220.698 427.003L254.794 404.271L254.517 403.855ZM220.421 426.587L220.197 426.14L215.651 428.412L215.875 428.859L216.099 429.307L220.644 427.034L220.421 426.587ZM215.875 428.859H215.375V453.295H215.875H216.375V428.859H215.875ZM215.875 453.295L215.521 452.941L213.816 454.646L214.17 455L214.523 455.354L216.229 453.648L215.875 453.295ZM214.17 455V454.5H172.686V455V455.5H214.17V455ZM172.686 455L173.114 454.743L171.41 451.901L170.981 452.158L170.553 452.415L172.257 455.257L172.686 455ZM170.981 452.158H171.481V431.133H170.981H170.481V452.158H170.981ZM170.981 431.133L171.149 430.662L116.027 411.01L115.859 411.48L115.691 411.951L170.814 431.604L170.981 431.133ZM115.859 411.48H116.359V364.077H115.859H115.359V411.48H115.859ZM115.859 364.077V364.577H128.361V364.077V363.577H115.859V364.077ZM128.361 364.077L128.861 364.083L129.197 335.101L128.697 335.095L128.197 335.089L127.861 364.071L128.361 364.077ZM128.697 335.095V334.595H77.2168V335.095V335.595H128.697V335.095ZM77.2168 335.095H77.7168V283.383H77.2168H76.7168V335.095H77.2168ZM77.2168 283.383V283.883H90.2871V283.383V282.883H77.2168V283.383ZM90.2871 283.383H90.7871V251.56H90.2871H89.7871V283.383H90.2871ZM90.2871 251.56V251.06H87.6934V251.56V252.06H90.2871V251.56ZM87.6934 251.56H87.1934V264.63H87.6934H88.1934V251.56H87.6934ZM87.6934 264.63V264.13H26.6406V264.63V265.13H87.6934V264.63ZM26.6406 264.63H27.1406V231.102H26.6406H26.1406V264.63H26.6406ZM26.6406 231.102V231.602H41.9834V231.102V230.602H26.6406V231.102ZM41.9834 231.102H42.4834V219.736H41.9834H41.4834V231.102H41.9834ZM41.9834 219.736V219.236H26.6406V219.736V220.236H41.9834V219.736ZM26.6406 219.736H27.1406V193.027H26.6406H26.1406V219.736H26.6406ZM26.6406 193.027V193.527H38.5742V193.027V192.527H26.6406V193.027ZM38.5742 193.027H39.0742V181.094H38.5742H38.0742V193.027H38.5742ZM38.5742 181.094V180.594H0.5V181.094V181.594H38.5742V181.094ZM0.5 181.094H1V116.311H0.5H0V181.094H0.5ZM0.5 116.311V116.811H42.2412V116.311V115.811H0.5V116.311ZM42.2412 116.311H42.7412V104.687H42.2412H41.7412V116.311H42.2412ZM42.2412 104.687V104.187H26.3145V104.687V105.187H42.2412V104.687ZM26.3145 104.687H26.8145V65.166H26.3145H25.8145V104.687H26.3145ZM26.3145 65.166V65.666H90.8555V65.166V64.666H26.3145V65.166ZM90.8555 65.166H90.3555V77.668H90.8555H91.3555V65.166H90.8555ZM90.8555 77.668V78.168H141.431V77.668V77.168H90.8555V77.668ZM141.431 77.668H141.931V42.4355H141.431H140.931V77.668H141.431ZM141.431 42.4355V42.9355H175.527V42.4355V41.9355H141.431V42.4355ZM175.527 42.4355H176.027V18H175.527H175.027V42.4355H175.527ZM175.527 18V18.5H205.077V18V17.5H175.527V18ZM205.077 18H204.577V42.4355H205.077H205.577V18H205.077ZM219.284 308.954H218.784V347.597H219.284H219.784V308.954H219.284ZM219.284 347.597V347.097H156.774V347.597V348.097H219.284V347.597ZM156.774 347.597H157.274V335.095H156.774H156.274V347.597H156.774ZM156.774 335.095V334.595H155.069V335.095V335.595H156.774V335.095ZM155.069 335.095H154.569V385.103H155.069H155.569V335.095H155.069ZM155.069 385.103V385.603H231.218V385.103V384.603H155.069V385.103ZM231.218 385.103H231.718V308.954H231.218H230.718V385.103H231.218ZM231.218 308.954V308.454H219.284V308.954V309.454H231.218V308.954ZM116.995 193.596H116.495V219.736H116.995H117.495V193.596H116.995ZM116.995 219.736V219.236H62.4414V219.736V220.236H116.995V219.736ZM62.4414 219.736H61.9414V231.102H62.4414H62.9414V219.736H62.4414ZM62.4414 231.102V231.602H116.995V231.102V230.602H62.4414V231.102ZM116.995 231.102H116.495V306.113H116.995H117.495V231.102H116.995ZM116.995 306.113V305.613H103.925V306.113V306.613H116.995V306.113ZM103.925 306.113H103.425V308.386H103.925H104.425V306.113H103.925ZM103.925 308.386V308.886H155.069V308.386V307.886H103.925V308.386ZM155.069 308.386H154.569V321.456H155.069H155.569V308.386H155.069ZM155.069 321.456V321.956H179.505V321.456V320.956H155.069V321.456ZM179.505 321.456H180.005V283.382H179.505H179.005V321.456H179.505ZM179.505 283.382V282.882H167.003V283.382V283.882H179.505V283.382ZM167.003 283.382H167.503V257.242H167.003H166.503V283.382H167.003ZM167.003 257.242V257.742H179.505V257.242V256.742H167.003V257.242ZM179.505 257.242H180.005V245.309H179.505H179.005V257.242H179.505ZM179.505 245.309V244.809H167.003V245.309V245.809H179.505V245.309ZM167.003 245.309H167.503V206.098H167.003H166.503V245.309H167.003ZM167.003 206.098V206.598H183.483V206.098V205.598H167.003V206.098ZM183.483 206.098H183.983V193.596H183.483H182.983V206.098H183.483ZM183.483 193.596V193.096H155.069V193.596V194.096H183.483V193.596ZM155.069 193.596L154.706 193.252L145.046 203.481L145.409 203.824L145.773 204.168L155.433 193.939L155.069 193.596ZM145.409 203.824V203.324H128.361V203.824V204.324H145.409V203.824ZM128.361 203.824H128.861V193.596H128.361H127.861V203.824H128.361ZM128.361 193.596V193.096H116.995V193.596V194.096H128.361V193.596ZM244.288 212.917H243.788V231.67H244.288H244.788V212.917H244.288ZM244.288 231.67V232.17H257.358V231.67V231.17H244.288V231.67ZM257.358 231.67H256.858V257.811H257.358H257.858V231.67H257.358ZM257.358 257.811V257.311H220.421V257.811V258.311H257.358V257.811ZM220.421 257.811H220.921V245.309H220.421H219.921V257.811H220.421ZM220.421 245.309V244.809H218.716V245.309V245.809H220.421V245.309ZM218.716 245.309H218.216V283.382H218.716H219.216V245.309H218.716ZM218.716 283.382V282.882H206.214V283.382V283.882H218.716V283.382ZM206.214 283.382H205.714V295.884H206.214H206.714V283.382H206.214ZM206.214 295.884V296.384H257.358V295.884V295.384H206.214V295.884ZM257.358 295.884H256.858V321.456H257.358H257.858V295.884H257.358ZM257.358 321.456V321.956H269.292V321.456V320.956H257.358V321.456ZM269.292 321.456H269.792V257.242H269.292H268.792V321.456H269.292ZM269.292 257.242V257.742H309.071V257.242V256.742H269.292V257.242ZM309.071 257.242H308.571V269.744H309.071H309.571V257.242H309.071ZM309.071 269.744V270.244H321.005V269.744V269.244H309.071V269.744ZM321.005 269.744H321.505V257.242H321.005H320.505V269.744H321.005ZM321.005 257.242V257.742H323.846V257.242V256.742H321.005V257.242ZM323.846 257.242H324.346V245.309H323.846H323.346V257.242H323.846ZM323.846 245.309V244.809H320.437V245.309V245.809H323.846V245.309ZM320.437 245.309L320.672 244.868L296.237 231.797L296.001 232.238L295.765 232.679L320.201 245.749L320.437 245.309ZM296.001 232.238V231.738H269.292V232.238V232.738H296.001V232.238ZM269.292 232.238H269.792V212.917H269.292H268.792V232.238H269.292ZM269.292 212.917V212.417H244.288V212.917V213.417H269.292V212.917ZM292.591 91.3066H292.091V104.377H292.591H293.091V91.3066H292.591ZM292.591 104.377V103.877H257.358V104.377V104.877H292.591V104.377ZM257.358 104.377H256.858V116.879H257.358H257.858V104.377H257.358ZM257.358 116.879V116.379H232.354V116.879V117.379H257.358V116.879ZM232.354 116.879H231.854V155.521H232.354H232.854V116.879H232.354ZM232.354 155.521V155.021H199.963V155.521V156.021H232.354V155.521ZM199.963 155.521H199.463V167.455H199.963H200.463V155.521H199.963ZM199.963 167.455V167.955H213.033V167.455V166.955H199.963V167.455ZM213.033 167.455H212.533V193.596H213.033H213.533V167.455H213.033ZM213.033 193.596V193.096H202.805V193.596V194.096H213.033V193.596ZM202.805 193.596H202.305V206.098H202.805H203.305V193.596H202.805ZM202.805 206.098V206.598H217.579V206.098V205.598H202.805V206.098ZM217.579 206.098H217.079V231.67H217.579H218.079V206.098H217.579ZM217.579 231.67V232.17H231.218V231.67V231.17H217.579V231.67ZM231.218 231.67H231.718V229.396H231.218H230.718V231.67H231.218ZM231.218 229.396V228.896H224.398V229.396V229.896H231.218V229.396ZM224.398 229.396H224.898V186.776H224.398H223.898V229.396H224.398ZM224.398 186.776V187.276H257.358V186.776V186.276H224.398V186.776ZM257.358 186.776H256.858V199.847H257.358H257.858V186.776H257.358ZM257.358 199.847V200.347H282.362V199.847V199.347H257.358V199.847ZM282.362 199.847H282.862V167.455H282.362H281.862V199.847H282.362ZM282.362 167.455V167.955H333.507V167.455V166.955H282.362V167.455ZM333.507 167.455H334.007V155.521H333.507H333.007V167.455H333.507ZM333.507 155.521V155.021H282.362V155.521V156.021H333.507V155.521ZM282.362 155.521H282.862V129.381H282.362H281.862V155.521H282.362ZM282.362 129.381V129.881H298.273V129.381V128.881H282.362V129.381ZM298.273 129.381H298.773V116.879H298.273H297.773V129.381H298.273ZM298.273 116.879V116.379H295.433V116.879V117.379H298.273V116.879ZM295.433 116.879H295.933V91.3066H295.433H294.933V116.879H295.433ZM295.433 91.3066V90.8066H292.591V91.3066V91.8066H295.433V91.3066ZM356.806 161.772H356.306V203.824H356.806H357.306V161.772H356.806ZM356.806 203.824V203.324H311.12V203.824V204.324H356.806V203.824ZM311.12 203.824H311.62V181.094H311.12H310.62V203.824H311.12ZM311.12 181.094V180.594H309.071V181.094V181.594H311.12V181.094ZM309.071 181.094H308.571V206.098H309.071H309.571V181.094H309.071ZM309.071 206.098V206.598H359.079V206.098V205.598H309.071V206.098ZM359.079 206.098H359.579V161.772H359.079H358.579V206.098H359.079ZM359.079 161.772V161.272H356.806V161.772V162.272H359.079V161.772ZM65.2832 91.3066H64.7832V104.377H65.2832H65.7832V91.3066H65.2832ZM65.2832 104.377V103.877H62.4414V104.377V104.877H65.2832V104.377ZM62.4414 104.377H61.9414V116.311H62.4414H62.9414V104.377H62.4414ZM62.4414 116.311V116.811H65.2832V116.311V115.811H62.4414V116.311ZM65.2832 116.311H64.7832V129.381H65.2832H65.7832V116.311H65.2832ZM65.2832 129.381V129.881H103.925V129.381V128.881H65.2832V129.381ZM103.925 129.381H103.425V149.271H103.925H104.425V129.381H103.925ZM103.925 149.271V148.771H90.8555V149.271V149.771H103.925V149.271ZM90.8555 149.271H90.3555V154.953H90.8555H91.3555V149.271H90.8555ZM90.8555 154.953V155.453H103.925V154.953V154.453H90.8555V154.953ZM103.925 154.953H103.425V180.525H103.925H104.425V154.953H103.925ZM103.925 180.525V181.025H128.361V180.525V180.025H103.925V180.525ZM128.361 180.525H128.861V170.297H128.361H127.861V180.525H128.361ZM128.361 170.297V170.797H164.73V170.297V169.797H128.361V170.297ZM164.73 170.297H164.23V180.525H164.73H165.23V170.297H164.73ZM164.73 180.525V181.025H167.003V180.525V180.025H164.73V180.525ZM167.003 180.525H167.503V167.455H167.003H166.503V180.525H167.003ZM167.003 167.455V167.955H186.324V167.455V166.955H167.003V167.455ZM186.324 167.455H186.824V155.521H186.324H185.824V167.455H186.324ZM186.324 155.521V155.021H153.933V155.521V156.021H186.324V155.521ZM153.933 155.521H154.433V116.879H153.933H153.433V155.521H153.933ZM153.933 116.879V116.379H128.361V116.879V117.379H153.933V116.879ZM128.361 116.879H128.861V104.377H128.361H127.861V116.879H128.361ZM128.361 104.377V103.877H67.5557V104.377V104.877H128.361V104.377ZM67.5557 104.377H68.0557V91.3066H67.5557H67.0557V104.377H67.5557ZM67.5557 91.3066V90.8066H65.2832V91.3066V91.8066H67.5557V91.3066ZM27.209 142.451H26.709V167.455H27.209H27.709V142.451H27.209ZM27.209 167.455V167.955H29.4814V167.455V166.955H27.209V167.455ZM29.4814 167.455H29.9814V154.953H29.4814H28.9814V167.455H29.4814ZM29.4814 154.953V155.453H77.3105V154.953V154.453H29.4814V154.953ZM77.3105 154.953H77.8105V142.451H77.3105H76.8105V154.953H77.3105ZM77.3105 142.451V141.951H27.209V142.451V142.951H77.3105V142.451ZM180.906 79.373L180.465 79.1372L167.699 103.004L168.14 103.24L168.581 103.476L181.347 79.6089L180.906 79.373ZM168.14 103.24H167.64V141.883H168.14H168.64V103.24H168.14ZM168.14 141.883V142.383H218.147V141.883V141.383H168.14V141.883ZM218.147 141.883H218.647V103.583H218.147H217.647V141.883H218.147ZM218.147 103.583L218.587 103.345L205.517 79.1355L205.077 79.373L204.637 79.6106L217.707 103.821L218.147 103.583ZM205.077 79.373V78.873H180.906V79.373V79.873H205.077V79.373Z" fill="#B27C40"/>
<path d="M77.2165 154.953V157.795H90.855V154.953M27.2087 142.451V136.2H32.8914V142.451M0.5 145.293H6.75098V151.544H0.5M13.5702 181.094V142.451M94.2646 219.736V212.917H99.9473V219.736M65.2828 231.101V238.489H71.5338V231.101M26.6404 257.81H32.8914V264.629M148.25 308.386V315.205H155.07M179.505 299.294H186.324V304.977H179.505M295.432 232.238L298.842 226.555L303.956 229.397L300.547 235.079M359.079 177.684H365.898V183.367H359.079M356.806 181.094H350.555V186.776H356.806M333.507 167.455V173.706H327.824V167.455M305.661 155.521V148.702H311.344V155.521M217.579 230.533H205.646V231.67H217.579M218.716 261.22H212.465V266.902H218.716M193.144 347.597V340.778H219.284M231.218 341.346H237.469V353.848H231.218M286.34 347.597V341.346H292.023V347.597M269.292 321.456H276.111V315.774H269.292M331.233 296.453V290.202H336.916V296.453M347.145 232.238V219.736H353.396V232.238M78.9213 174.843H90.855V199.847H78.9213V174.843ZM289.181 296.453H309.071V300.43H289.181V296.453Z" stroke="#B27C40"/>
<path d="M205.645 230.533H193.712V257.242H194.848V247.581M205.645 231.67H194.848V241.899M194.848 241.899H197.69V247.581H194.848M194.848 241.899V247.581M148.818 423.177L151.66 421.472L153.365 416.926L156.774 418.062L155.069 422.609L155.638 425.45M193.712 455V452.159L199.394 447.612L204.509 452.159V455M234.059 417.494V414.653L231.218 411.243L234.627 408.402L237.469 412.38L239.742 413.516M87.4452 335.095V331.685H93.6961V335.095M65.2826 129.381C65.2826 129.557 65.2826 130.931 65.2826 132.791M65.2826 142.451C65.2826 139.897 65.2826 135.735 65.2826 132.791M65.2826 127.108H62.4413V132.791H65.2826M186.324 161.772H199.963M199.963 165.75H186.324M213.033 186.776L206.214 193.596M302.251 300.43V306.681H309.071M353.396 219.736H359.647M188.597 403.287L185.756 408.97C186.703 410.864 189.166 414.653 189.166 414.653C189.166 414.653 193.522 414.653 195.417 414.653L198.826 408.97L195.417 403.287H188.597ZM70.9653 166.887H52.2124V207.802H71.5336V206.666H53.3489V168.023H70.9653V166.887Z" stroke="#B27C40" stroke-width="0.5"/>
<path d="M53.3491 181.094H59.0318V193.596H53.3491" stroke="#B27C40"/>
<path d="M79.4897 177.684H85.1725V197.005H79.4897" stroke="#B27C40" stroke-opacity="0.23"/>
<path d="M356.238 203.256H311.704V168.023H356.238V203.256ZM350.054 180.594V187.276H356.169V180.594H350.054ZM327.324 168.092V174.206H334.006V168.092H327.324Z" fill="#F08234" fill-opacity="0.23"/>
<path d="M326.799 189.252H325.252L328.068 181.252H329.857L332.678 189.252H331.131L328.994 182.893H328.932L326.799 189.252ZM326.85 186.116H331.068V187.28H326.85V186.116Z" fill="white"/>
<path d="M90.855 206.346H53.6333V194.096H59.5317V180.594H53.6333V168.328H90.855V206.346ZM78.4214 174.343V178.185H84.6724V196.505H78.4214V200.347H90.7866V174.343H78.4214Z" fill="#F08234" fill-opacity="0.23"/>
<path d="M65.5034 188.116V180.116H68.5659C69.144 180.116 69.6245 180.207 70.0073 180.389C70.3927 180.569 70.6805 180.815 70.8706 181.127C71.0633 181.44 71.1597 181.794 71.1597 182.19C71.1597 182.515 71.0972 182.794 70.9722 183.026C70.8472 183.255 70.6792 183.441 70.4683 183.584C70.2573 183.728 70.0216 183.831 69.7612 183.893V183.971C70.0451 183.987 70.3172 184.074 70.5776 184.233C70.8407 184.389 71.0555 184.611 71.2222 184.897C71.3888 185.183 71.4722 185.53 71.4722 185.936C71.4722 186.35 71.3719 186.723 71.1714 187.053C70.9709 187.381 70.6688 187.64 70.2651 187.831C69.8615 188.021 69.3537 188.116 68.7417 188.116H65.5034ZM66.9526 186.905H68.5112C69.0373 186.905 69.4162 186.805 69.6479 186.604C69.8823 186.401 69.9995 186.14 69.9995 185.823C69.9995 185.586 69.9409 185.372 69.8237 185.182C69.7065 184.989 69.5399 184.838 69.3237 184.729C69.1076 184.617 68.8498 184.561 68.5503 184.561H66.9526V186.905ZM66.9526 183.518H68.3862C68.6362 183.518 68.8615 183.473 69.062 183.381C69.2625 183.288 69.4201 183.156 69.5347 182.987C69.6519 182.815 69.7104 182.612 69.7104 182.377C69.7104 182.068 69.6011 181.812 69.3823 181.612C69.1662 181.411 68.8446 181.311 68.4175 181.311H66.9526V183.518Z" fill="white"/>
<circle cx="146.546" cy="310.091" r="2.02308" stroke="#B27C40" stroke-width="0.5"/>
<circle cx="191.439" cy="342.482" r="1.45481" stroke="#B27C40" stroke-width="0.5"/>
<circle cx="191.439" cy="345.892" r="1.45481" stroke="#B27C40" stroke-width="0.5"/>
</svg>
