<svg width="460" height="473" viewBox="0 0 460 473" fill="none" xmlns="http://www.w3.org/2000/svg">
<path fill-rule="evenodd" clip-rule="evenodd" d="M411.302 91.5191V104.339L398.482 113.258L425.794 158.964V172.342H414.089V203.556H415.761L426.352 186.834H444.189V193.523H451.435V258.181H459.238V271.559H412.417V301.101L405.728 309.462H395.138V313.364L372.842 335.659H322.676V364.087H334.939V427.073L305.954 455.5H192.245L186.671 452.156H183.884L179.982 449.926L175.523 446.024H170.506L162.703 443.795H157.129L135.39 440.45L115.324 439.335L101.946 423.728V402.547H111.979V392.514L105.291 368.546L98.6018 350.709C98.8104 348.693 99.2303 347.749 100.274 346.25L103.061 343.463L100.831 340.119C95.1348 337.96 91.968 337.4 86.3391 336.774L56.797 315.593V250.378H67.3875V245.918H47.3212V265.985H0.499756V188.506H35.6158V174.014H31.7141V114.372L67.3875 78.699H101.946V90.9617H139.849V60.8622H127.586V26.3036L138.734 20.7296H179.424V18.5H244.64V62.5344H253.001V50.8291H289.232V59.7474H302.052L315.43 52.5013H339.955V51.9439H364.481V91.5191H411.302ZM123.685 240.344H99.7166V249.82L95.8148 258.181H83.552V265.427H95.2574V305.56H83.552V313.921H112.537C124.183 327.39 130.148 335.66 138.988 351.824L139.292 373.005L140.407 374.12V383.038L138.988 390.842H136.505V401.99H139.292V409.793H179.424V384.153H242.968V408.679H278.641L298.15 389.17V372.448H280.313L268.051 356.283V322.282H297.593V288.281H266.379L254.673 282.707H141.521L123.685 264.312V240.344ZM171.063 214.147V172.342H167.162V203.556L149.325 218.606H120.898V223.622H142.079V251.492H163.817V214.147H171.063ZM106.963 150.046V136.111H85.7816V122.973H65.1579V174.571H54.0099V188.506L64.6005 202.441H83.552V191.851H129.816V172.342H128.701L106.963 150.046ZM355.005 202.441H311.528L293.134 220.835V235.328L283.1 245.361V267.099H273.067V234.77L308.741 199.097H355.005V202.441ZM378.416 124.406L390.678 147.259V176.801H361.136V134.439L378.416 124.406ZM334.938 176.801H329.365V169.555H299.265L255.231 213.589H223.459V252.05H200.606V214.147H187.228V157.292H159.358V145.587L140.407 126.635H116.438V118.274H165.49V55.2883H170.506V60.8622H194.474V104.897H195.589V106.569L197.261 108.241V111.028H244.64V103.224H276.969L289.232 80.3712H302.609L334.938 150.046V176.801ZM342.185 303.888V251.492H315.43V291.625H326.578V303.888H342.185ZM385.104 254.279H436.385V258.739H399.597V294.412H395.137V287.166H373.399V263.198H362.251V245.918H385.104V254.279Z" fill="#271406"/>
<path d="M411.302 104.339L411.588 104.75L411.802 104.601V104.339H411.302ZM411.302 91.5191H411.802V91.0191H411.302V91.5191ZM398.482 113.258L398.196 112.847L397.813 113.114L398.053 113.514L398.482 113.258ZM425.794 158.964H426.294V158.826L426.224 158.708L425.794 158.964ZM425.794 172.342V172.842H426.294V172.342H425.794ZM414.089 172.342V171.842H413.589V172.342H414.089ZM414.089 203.556H413.589V204.056H414.089V203.556ZM415.761 203.556V204.056H416.036L416.184 203.824L415.761 203.556ZM426.352 186.834V186.334H426.077L425.929 186.567L426.352 186.834ZM444.189 186.834H444.689V186.334H444.189V186.834ZM444.189 193.523H443.689V194.023H444.189V193.523ZM451.435 193.523H451.935V193.023H451.435V193.523ZM451.435 258.181H450.935V258.681H451.435V258.181ZM459.238 258.181H459.738V257.681H459.238V258.181ZM459.238 271.559V272.059H459.738V271.559H459.238ZM412.417 271.559V271.059H411.917V271.559H412.417ZM412.417 301.101L412.807 301.413L412.917 301.276V301.101H412.417ZM405.728 309.462V309.962H405.968L406.119 309.774L405.728 309.462ZM395.138 309.462V308.962H394.638V309.462H395.138ZM395.138 313.364L395.491 313.717L395.638 313.571V313.364H395.138ZM372.842 335.659V336.159H373.049L373.195 336.013L372.842 335.659ZM322.676 335.659V335.159H322.176V335.659H322.676ZM322.676 364.087H322.176V364.587H322.676V364.087ZM334.939 364.087H335.439V363.587H334.939V364.087ZM334.939 427.073L335.289 427.43L335.439 427.283V427.073H334.939ZM305.954 455.5V456H306.158L306.304 455.857L305.954 455.5ZM192.245 455.5L191.987 455.929L192.106 456H192.245V455.5ZM186.671 452.156L186.928 451.727L186.809 451.656H186.671V452.156ZM183.884 452.156L183.636 452.59L183.751 452.656H183.884V452.156ZM179.982 449.926L179.653 450.302L179.69 450.335L179.734 450.36L179.982 449.926ZM175.523 446.024L175.852 445.648L175.711 445.524H175.523V446.024ZM170.506 446.024L170.369 446.505L170.436 446.524H170.506V446.024ZM162.703 443.795L162.84 443.314L162.773 443.295H162.703V443.795ZM157.129 443.795L157.053 444.289L157.09 444.295H157.129V443.795ZM135.39 440.45L135.466 439.956L135.442 439.952L135.418 439.951L135.39 440.45ZM115.324 439.335L114.944 439.661L115.083 439.823L115.296 439.835L115.324 439.335ZM101.946 423.728H101.446V423.913L101.567 424.054L101.946 423.728ZM101.946 402.547V402.047H101.446V402.547H101.946ZM111.979 402.547V403.047H112.479V402.547H111.979ZM111.979 392.514H112.479V392.446L112.461 392.38L111.979 392.514ZM105.291 368.546L105.772 368.412L105.766 368.391L105.759 368.37L105.291 368.546ZM98.6018 350.709L98.1045 350.658L98.0924 350.775L98.1336 350.885L98.6018 350.709ZM100.274 346.25L99.9204 345.896L99.889 345.928L99.8636 345.964L100.274 346.25ZM103.061 343.463L103.415 343.817L103.704 343.527L103.477 343.186L103.061 343.463ZM100.831 340.119L101.247 339.841L101.158 339.708L101.009 339.651L100.831 340.119ZM86.3391 336.774L86.0477 337.181L86.1539 337.257L86.2838 337.271L86.3391 336.774ZM56.797 315.593H56.297V315.85L56.5056 315.999L56.797 315.593ZM56.797 250.378V249.878H56.297V250.378H56.797ZM67.3875 250.378V250.878H67.8875V250.378H67.3875ZM67.3875 245.918H67.8875V245.418H67.3875V245.918ZM47.3212 245.918V245.418H46.8212V245.918H47.3212ZM47.3212 265.985V266.485H47.8212V265.985H47.3212ZM0.499756 265.985H-0.000244141V266.485H0.499756V265.985ZM0.499756 188.506V188.006H-0.000244141V188.506H0.499756ZM35.6158 188.506V189.006H36.1158V188.506H35.6158ZM35.6158 174.014H36.1158V173.514H35.6158V174.014ZM31.7141 174.014H31.2141V174.514H31.7141V174.014ZM31.7141 114.372L31.3605 114.019L31.2141 114.165V114.372H31.7141ZM67.3875 78.699V78.199H67.1804L67.034 78.3454L67.3875 78.699ZM101.946 78.699H102.446V78.199H101.946V78.699ZM101.946 90.9617H101.446V91.4617H101.946V90.9617ZM139.849 90.9617V91.4617H140.349V90.9617H139.849ZM139.849 60.8622H140.349V60.3622H139.849V60.8622ZM127.586 60.8622H127.086V61.3622H127.586V60.8622ZM127.586 26.3036L127.363 25.8564L127.086 25.9945V26.3036H127.586ZM138.734 20.7296V20.2296H138.616L138.511 20.2824L138.734 20.7296ZM179.424 20.7296V21.2296H179.924V20.7296H179.424ZM179.424 18.5V18H178.924V18.5H179.424ZM244.64 18.5H245.14V18H244.64V18.5ZM244.64 62.5344H244.14V63.0344H244.64V62.5344ZM253.001 62.5344V63.0344H253.501V62.5344H253.001ZM253.001 50.8291V50.3291H252.501V50.8291H253.001ZM289.232 50.8291H289.732V50.3291H289.232V50.8291ZM289.232 59.7474H288.732V60.2474H289.232V59.7474ZM302.052 59.7474V60.2474H302.179L302.29 60.1871L302.052 59.7474ZM315.43 52.5013V52.0013H315.303L315.191 52.0616L315.43 52.5013ZM339.955 52.5013V53.0013H340.455V52.5013H339.955ZM339.955 51.9439V51.4439H339.455V51.9439H339.955ZM364.481 51.9439H364.981V51.4439H364.481V51.9439ZM364.481 91.5191H363.981V92.0191H364.481V91.5191ZM99.7166 240.344V239.844H99.2166V240.344H99.7166ZM123.685 240.344H124.185V239.844H123.685V240.344ZM99.7166 249.82L100.17 250.032L100.217 249.931V249.82H99.7166ZM95.8148 258.181V258.681H96.1332L96.2679 258.393L95.8148 258.181ZM83.552 258.181V257.681H83.052V258.181H83.552ZM83.552 265.427H83.052V265.927H83.552V265.427ZM95.2574 265.427H95.7574V264.927H95.2574V265.427ZM95.2574 305.56V306.06H95.7574V305.56H95.2574ZM83.552 305.56V305.06H83.052V305.56H83.552ZM83.552 313.921H83.052V314.421H83.552V313.921ZM112.537 313.921L112.915 313.594L112.765 313.421H112.537V313.921ZM138.988 351.824L139.487 351.817L139.486 351.693L139.426 351.584L138.988 351.824ZM139.292 373.005L138.792 373.012L138.795 373.215L138.938 373.359L139.292 373.005ZM140.407 374.12H140.907V373.913L140.76 373.766L140.407 374.12ZM140.407 383.038L140.899 383.128L140.907 383.083V383.038H140.407ZM138.988 390.842V391.342H139.405L139.479 390.931L138.988 390.842ZM136.505 390.842V390.342H136.005V390.842H136.505ZM136.505 401.99H136.005V402.49H136.505V401.99ZM139.292 401.99H139.792V401.49H139.292V401.99ZM139.292 409.793H138.792V410.293H139.292V409.793ZM179.424 409.793V410.293H179.924V409.793H179.424ZM179.424 384.153V383.653H178.924V384.153H179.424ZM242.968 384.153H243.468V383.653H242.968V384.153ZM242.968 408.679H242.468V409.179H242.968V408.679ZM278.641 408.679V409.179H278.848L278.995 409.032L278.641 408.679ZM298.15 389.17L298.504 389.523L298.65 389.377V389.17H298.15ZM298.15 372.448H298.65V371.948H298.15V372.448ZM280.313 372.448L279.915 372.75L280.065 372.948H280.313V372.448ZM268.051 356.283H267.551V356.451L267.652 356.585L268.051 356.283ZM268.051 322.282V321.782H267.551V322.282H268.051ZM297.593 322.282V322.782H298.093V322.282H297.593ZM297.593 288.281H298.093V287.781H297.593V288.281ZM266.379 288.281L266.164 288.732L266.266 288.781H266.379V288.281ZM254.673 282.707L254.888 282.255L254.786 282.207H254.673V282.707ZM141.521 282.707L141.162 283.055L141.31 283.207H141.521V282.707ZM123.685 264.312H123.185V264.515L123.326 264.661L123.685 264.312ZM171.063 172.342H171.563V171.842H171.063V172.342ZM171.063 214.147V214.647H171.563V214.147H171.063ZM167.162 172.342V171.842H166.662V172.342H167.162ZM167.162 203.556L167.484 203.938L167.662 203.788V203.556H167.162ZM149.325 218.606V219.106H149.508L149.647 218.988L149.325 218.606ZM120.898 218.606V218.106H120.398V218.606H120.898ZM120.898 223.622H120.398V224.122H120.898V223.622ZM142.079 223.622H142.579V223.122H142.079V223.622ZM142.079 251.492H141.579V251.992H142.079V251.492ZM163.817 251.492V251.992H164.317V251.492H163.817ZM163.817 214.147V213.647H163.317V214.147H163.817ZM106.963 136.111H107.463V135.611H106.963V136.111ZM106.963 150.046H106.463V150.249L106.605 150.395L106.963 150.046ZM85.7816 136.111H85.2816V136.611H85.7816V136.111ZM85.7816 122.973H86.2816V122.473H85.7816V122.973ZM65.1579 122.973V122.473H64.6579V122.973H65.1579ZM65.1579 174.571V175.071H65.6579V174.571H65.1579ZM54.0099 174.571V174.071H53.5099V174.571H54.0099ZM54.0099 188.506H53.5099V188.675L53.6119 188.809L54.0099 188.506ZM64.6005 202.441L64.2024 202.744L64.3525 202.941H64.6005V202.441ZM83.552 202.441V202.941H84.052V202.441H83.552ZM83.552 191.851V191.351H83.052V191.851H83.552ZM129.816 191.851V192.351H130.316V191.851H129.816ZM129.816 172.342H130.316V171.842H129.816V172.342ZM128.701 172.342L128.343 172.691L128.49 172.842H128.701V172.342ZM311.528 202.441V201.941H311.321L311.174 202.088L311.528 202.441ZM355.005 202.441V202.941H355.505V202.441H355.005ZM293.134 220.835L292.78 220.482L292.634 220.628V220.835H293.134ZM293.134 235.328L293.487 235.681L293.634 235.535V235.328H293.134ZM283.1 245.361L282.747 245.007L282.6 245.154V245.361H283.1ZM283.1 267.099V267.599H283.6V267.099H283.1ZM273.067 267.099H272.567V267.599H273.067V267.099ZM273.067 234.77L272.714 234.417L272.567 234.563V234.77H273.067ZM308.741 199.097V198.597H308.534L308.387 198.743L308.741 199.097ZM355.005 199.097H355.505V198.597H355.005V199.097ZM390.678 147.259H391.178V147.133L391.119 147.022L390.678 147.259ZM378.416 124.406L378.856 124.169L378.612 123.714L378.164 123.973L378.416 124.406ZM390.678 176.801V177.301H391.178V176.801H390.678ZM361.136 176.801H360.636V177.301H361.136V176.801ZM361.136 134.439L360.885 134.006L360.636 134.151V134.439H361.136ZM329.365 176.801H328.865V177.301H329.365V176.801ZM334.938 176.801V177.301H335.438V176.801H334.938ZM329.365 169.555H329.865V169.055H329.365V169.555ZM299.265 169.555V169.055H299.058L298.911 169.201L299.265 169.555ZM255.231 213.589V214.089H255.438L255.584 213.943L255.231 213.589ZM223.459 213.589V213.089H222.959V213.589H223.459ZM223.459 252.05V252.55H223.959V252.05H223.459ZM200.606 252.05H200.106V252.55H200.606V252.05ZM200.606 214.147H201.106V213.647H200.606V214.147ZM187.228 214.147H186.728V214.647H187.228V214.147ZM187.228 157.292H187.728V156.792H187.228V157.292ZM159.358 157.292H158.858V157.792H159.358V157.292ZM159.358 145.587H159.858V145.38L159.712 145.233L159.358 145.587ZM140.407 126.635L140.76 126.282L140.614 126.135H140.407V126.635ZM116.438 126.635H115.938V127.135H116.438V126.635ZM116.438 118.274V117.774H115.938V118.274H116.438ZM165.49 118.274V118.774H165.99V118.274H165.49ZM165.49 55.2883V54.7883H164.99V55.2883H165.49ZM170.506 55.2883H171.006V54.7883H170.506V55.2883ZM170.506 60.8622H170.006V61.3622H170.506V60.8622ZM194.474 60.8622H194.974V60.3622H194.474V60.8622ZM194.474 104.897H193.974V105.397H194.474V104.897ZM195.589 104.897H196.089V104.397H195.589V104.897ZM195.589 106.569H195.089V106.776L195.235 106.922L195.589 106.569ZM197.261 108.241H197.761V108.034L197.615 107.888L197.261 108.241ZM197.261 111.028H196.761V111.528H197.261V111.028ZM244.64 111.028V111.528H245.14V111.028H244.64ZM244.64 103.224V102.724H244.14V103.224H244.64ZM276.969 103.224V103.724H277.268L277.41 103.461L276.969 103.224ZM289.232 80.3712V79.8712H288.933L288.791 80.1347L289.232 80.3712ZM302.609 80.3712L303.063 80.1607L302.929 79.8712H302.609V80.3712ZM334.938 150.046H335.438V149.936L335.392 149.835L334.938 150.046ZM342.185 251.492H342.685V250.992H342.185V251.492ZM342.185 303.888V304.388H342.685V303.888H342.185ZM315.43 251.492V250.992H314.93V251.492H315.43ZM315.43 291.625H314.93V292.125H315.43V291.625ZM326.578 291.625H327.078V291.125H326.578V291.625ZM326.578 303.888H326.078V304.388H326.578V303.888ZM436.385 254.279H436.885V253.779H436.385V254.279ZM385.104 254.279H384.604V254.779H385.104V254.279ZM436.385 258.739V259.239H436.885V258.739H436.385ZM399.597 258.739V258.239H399.097V258.739H399.597ZM399.597 294.412V294.912H400.097V294.412H399.597ZM395.137 294.412H394.637V294.912H395.137V294.412ZM395.137 287.166H395.637V286.666H395.137V287.166ZM373.399 287.166H372.899V287.666H373.399V287.166ZM373.399 263.198H373.899V262.698H373.399V263.198ZM362.251 263.198H361.751V263.698H362.251V263.198ZM362.251 245.918V245.418H361.751V245.918H362.251ZM385.104 245.918H385.604V245.418H385.104V245.918ZM139.109 352.046L139.548 351.806L139.547 351.806L139.109 352.046ZM411.302 104.339H411.802V91.5191H411.302H410.802V104.339H411.302ZM398.482 113.258L398.767 113.668L411.588 104.75L411.302 104.339L411.017 103.929L398.196 112.847L398.482 113.258ZM425.794 158.964L426.224 158.708L398.911 113.001L398.482 113.258L398.053 113.514L425.365 159.221L425.794 158.964ZM425.794 172.342H426.294V158.964H425.794H425.294V172.342H425.794ZM414.089 172.342V172.842H425.794V172.342V171.842H414.089V172.342ZM414.089 203.556H414.589V172.342H414.089H413.589V203.556H414.089ZM415.761 203.556V203.056H414.089V203.556V204.056H415.761V203.556ZM426.352 186.834L425.929 186.567L415.339 203.289L415.761 203.556L416.184 203.824L426.774 187.102L426.352 186.834ZM444.189 186.834V186.334H426.352V186.834V187.334H444.189V186.834ZM444.189 193.523H444.689V186.834H444.189H443.689V193.523H444.189ZM451.435 193.523V193.023H444.189V193.523V194.023H451.435V193.523ZM451.435 258.181H451.935V193.523H451.435H450.935V258.181H451.435ZM459.238 258.181V257.681H451.435V258.181V258.681H459.238V258.181ZM459.238 271.559H459.738V258.181H459.238H458.738V271.559H459.238ZM412.417 271.559V272.059H459.238V271.559V271.059H412.417V271.559ZM412.417 301.101H412.917V271.559H412.417H411.917V301.101H412.417ZM405.728 309.462L406.119 309.774L412.807 301.413L412.417 301.101L412.026 300.788L405.338 309.149L405.728 309.462ZM395.138 309.462V309.962H405.728V309.462V308.962H395.138V309.462ZM395.138 313.364H395.638V309.462H395.138H394.638V313.364H395.138ZM372.842 335.659L373.195 336.013L395.491 313.717L395.138 313.364L394.784 313.01L372.488 335.306L372.842 335.659ZM322.676 335.659V336.159H372.842V335.659V335.159H322.676V335.659ZM322.676 364.087H323.176V335.659H322.676H322.176V364.087H322.676ZM334.939 364.087V363.587H322.676V364.087V364.587H334.939V364.087ZM334.939 427.073H335.439V364.087H334.939H334.439V427.073H334.939ZM305.954 455.5L306.304 455.857L335.289 427.43L334.939 427.073L334.588 426.716L305.604 455.143L305.954 455.5ZM192.245 455.5V456H305.954V455.5V455H192.245V455.5ZM186.671 452.156L186.413 452.584L191.987 455.929L192.245 455.5L192.502 455.071L186.928 451.727L186.671 452.156ZM183.884 452.156V452.656H186.671V452.156V451.656H183.884V452.156ZM179.982 449.926L179.734 450.36L183.636 452.59L183.884 452.156L184.132 451.721L180.23 449.492L179.982 449.926ZM175.523 446.024L175.193 446.401L179.653 450.302L179.982 449.926L180.311 449.55L175.852 445.648L175.523 446.024ZM170.506 446.024V446.524H175.523V446.024V445.524H170.506V446.024ZM162.703 443.795L162.565 444.275L170.369 446.505L170.506 446.024L170.643 445.543L162.84 443.314L162.703 443.795ZM157.129 443.795V444.295H162.703V443.795V443.295H157.129V443.795ZM135.39 440.45L135.314 440.944L157.053 444.289L157.129 443.795L157.205 443.3L135.466 439.956L135.39 440.45ZM115.324 439.335L115.296 439.835L135.362 440.949L135.39 440.45L135.418 439.951L115.351 438.836L115.324 439.335ZM101.946 423.728L101.567 424.054L114.944 439.661L115.324 439.335L115.703 439.01L102.326 423.403L101.946 423.728ZM101.946 402.547H101.446V423.728H101.946H102.446V402.547H101.946ZM111.979 402.547V402.047H101.946V402.547V403.047H111.979V402.547ZM111.979 392.514H111.479V402.547H111.979H112.479V392.514H111.979ZM105.291 368.546L104.809 368.68L111.498 392.648L111.979 392.514L112.461 392.38L105.772 368.412L105.291 368.546ZM98.6018 350.709L98.1336 350.885L104.822 368.721L105.291 368.546L105.759 368.37L99.07 350.534L98.6018 350.709ZM100.274 346.25L99.8636 345.964C99.3326 346.727 98.9409 347.376 98.6585 348.105C98.3755 348.836 98.2115 349.623 98.1045 350.658L98.6018 350.709L99.0992 350.761C99.2007 349.779 99.351 349.086 99.591 348.466C99.8316 347.845 100.172 347.272 100.684 346.536L100.274 346.25ZM103.061 343.463L102.707 343.109L99.9204 345.896L100.274 346.25L100.628 346.604L103.415 343.817L103.061 343.463ZM100.831 340.119L100.415 340.396L102.645 343.74L103.061 343.463L103.477 343.186L101.247 339.841L100.831 340.119ZM86.3391 336.774L86.2838 337.271C91.8846 337.894 95.0078 338.447 100.654 340.586L100.831 340.119L101.009 339.651C95.2617 337.474 92.0515 336.907 86.3943 336.277L86.3391 336.774ZM56.797 315.593L56.5056 315.999L86.0477 337.181L86.3391 336.774L86.6304 336.368L57.0883 315.187L56.797 315.593ZM56.797 250.378H56.297V315.593H56.797H57.297V250.378H56.797ZM67.3875 250.378V249.878H56.797V250.378V250.878H67.3875V250.378ZM67.3875 245.918H66.8875V250.378H67.3875H67.8875V245.918H67.3875ZM47.3212 245.918V246.418H67.3875V245.918V245.418H47.3212V245.918ZM47.3212 265.985H47.8212V245.918H47.3212H46.8212V265.985H47.3212ZM0.499756 265.985V266.485H47.3212V265.985V265.485H0.499756V265.985ZM0.499756 188.506H-0.000244141V265.985H0.499756H0.999756V188.506H0.499756ZM35.6158 188.506V188.006H0.499756V188.506V189.006H35.6158V188.506ZM35.6158 174.014H35.1158V188.506H35.6158H36.1158V174.014H35.6158ZM31.7141 174.014V174.514H35.6158V174.014V173.514H31.7141V174.014ZM31.7141 114.372H31.2141V174.014H31.7141H32.2141V114.372H31.7141ZM67.3875 78.699L67.034 78.3454L31.3605 114.019L31.7141 114.372L32.0676 114.726L67.7411 79.0525L67.3875 78.699ZM101.946 78.699V78.199H67.3875V78.699V79.199H101.946V78.699ZM101.946 90.9617H102.446V78.699H101.946H101.446V90.9617H101.946ZM139.849 90.9617V90.4617H101.946V90.9617V91.4617H139.849V90.9617ZM139.849 60.8622H139.349V90.9617H139.849H140.349V60.8622H139.849ZM127.586 60.8622V61.3622H139.849V60.8622V60.3622H127.586V60.8622ZM127.586 26.3036H127.086V60.8622H127.586H128.086V26.3036H127.586ZM138.734 20.7296L138.511 20.2824L127.363 25.8564L127.586 26.3036L127.81 26.7508L138.958 21.1768L138.734 20.7296ZM179.424 20.7296V20.2296H138.734V20.7296V21.2296H179.424V20.7296ZM179.424 18.5H178.924V20.7296H179.424H179.924V18.5H179.424ZM244.64 18.5V18H179.424V18.5V19H244.64V18.5ZM244.64 62.5344H245.14V18.5H244.64H244.14V62.5344H244.64ZM253.001 62.5344V62.0344H244.64V62.5344V63.0344H253.001V62.5344ZM253.001 50.8291H252.501V62.5344H253.001H253.501V50.8291H253.001ZM289.232 50.8291V50.3291H253.001V50.8291V51.3291H289.232V50.8291ZM289.232 59.7474H289.732V50.8291H289.232H288.732V59.7474H289.232ZM302.052 59.7474V59.2474H289.232V59.7474V60.2474H302.052V59.7474ZM315.43 52.5013L315.191 52.0616L301.814 59.3078L302.052 59.7474L302.29 60.1871L315.668 52.9409L315.43 52.5013ZM339.955 52.5013V52.0013H315.43V52.5013V53.0013H339.955V52.5013ZM339.955 51.9439H339.455V52.5013H339.955H340.455V51.9439H339.955ZM364.481 51.9439V51.4439H339.955V51.9439V52.4439H364.481V51.9439ZM364.481 91.5191H364.981V51.9439H364.481H363.981V91.5191H364.481ZM411.302 91.5191V91.0191H364.481V91.5191V92.0191H411.302V91.5191ZM99.7166 240.344V240.844H123.685V240.344V239.844H99.7166V240.344ZM99.7166 249.82H100.217V240.344H99.7166H99.2166V249.82H99.7166ZM95.8148 258.181L96.2679 258.393L100.17 250.032L99.7166 249.82L99.2635 249.609L95.3617 257.97L95.8148 258.181ZM83.552 258.181V258.681H95.8148V258.181V257.681H83.552V258.181ZM83.552 265.427H84.052V258.181H83.552H83.052V265.427H83.552ZM95.2574 265.427V264.927H83.552V265.427V265.927H95.2574V265.427ZM95.2574 305.56H95.7574V265.427H95.2574H94.7574V305.56H95.2574ZM83.552 305.56V306.06H95.2574V305.56V305.06H83.552V305.56ZM83.552 313.921H84.052V305.56H83.552H83.052V313.921H83.552ZM112.537 313.921V313.421H83.552V313.921V314.421H112.537V313.921ZM138.988 351.824L139.426 351.584C130.568 335.386 124.582 327.087 112.915 313.594L112.537 313.921L112.158 314.248C123.784 327.693 129.728 335.934 138.549 352.064L138.988 351.824ZM139.292 373.005L139.792 372.998L139.487 351.817L138.988 351.824L138.488 351.831L138.792 373.012L139.292 373.005ZM140.407 374.12L140.76 373.766L139.645 372.652L139.292 373.005L138.938 373.359L140.053 374.473L140.407 374.12ZM140.407 383.038H140.907V374.12H140.407H139.907V383.038H140.407ZM138.988 390.842L139.479 390.931L140.899 383.128L140.407 383.038L139.915 382.949L138.496 390.752L138.988 390.842ZM136.505 390.842V391.342H138.988V390.842V390.342H136.505V390.842ZM136.505 401.99H137.005V390.842H136.505H136.005V401.99H136.505ZM139.292 401.99V401.49H136.505V401.99V402.49H139.292V401.99ZM139.292 409.793H139.792V401.99H139.292H138.792V409.793H139.292ZM179.424 409.793V409.293H139.292V409.793V410.293H179.424V409.793ZM179.424 384.153H178.924V409.793H179.424H179.924V384.153H179.424ZM242.968 384.153V383.653H179.424V384.153V384.653H242.968V384.153ZM242.968 408.679H243.468V384.153H242.968H242.468V408.679H242.968ZM278.641 408.679V408.179H242.968V408.679V409.179H278.641V408.679ZM298.15 389.17L297.797 388.816L278.288 408.325L278.641 408.679L278.995 409.032L298.504 389.523L298.15 389.17ZM298.15 372.448H297.65V389.17H298.15H298.65V372.448H298.15ZM280.313 372.448V372.948H298.15V372.448V371.948H280.313V372.448ZM268.051 356.283L267.652 356.585L279.915 372.75L280.313 372.448L280.712 372.146L268.449 355.981L268.051 356.283ZM268.051 322.282H267.551V356.283H268.051H268.551V322.282H268.051ZM297.593 322.282V321.782H268.051V322.282V322.782H297.593V322.282ZM297.593 288.281H297.093V322.282H297.593H298.093V288.281H297.593ZM266.379 288.281V288.781H297.593V288.281V287.781H266.379V288.281ZM254.673 282.707L254.458 283.158L266.164 288.732L266.379 288.281L266.594 287.829L254.888 282.255L254.673 282.707ZM141.521 282.707V283.207H254.673V282.707V282.207H141.521V282.707ZM123.685 264.312L123.326 264.661L141.162 283.055L141.521 282.707L141.88 282.359L124.044 263.964L123.685 264.312ZM123.685 240.344H123.185V264.312H123.685H124.185V240.344H123.685ZM171.063 172.342H170.563V214.147H171.063H171.563V172.342H171.063ZM167.162 172.342V172.842H171.063V172.342V171.842H167.162V172.342ZM167.162 203.556H167.662V172.342H167.162H166.662V203.556H167.162ZM149.325 218.606L149.647 218.988L167.484 203.938L167.162 203.556L166.839 203.174L149.003 218.224L149.325 218.606ZM120.898 218.606V219.106H149.325V218.606V218.106H120.898V218.606ZM120.898 223.622H121.398V218.606H120.898H120.398V223.622H120.898ZM142.079 223.622V223.122H120.898V223.622V224.122H142.079V223.622ZM142.079 251.492H142.579V223.622H142.079H141.579V251.492H142.079ZM163.817 251.492V250.992H142.079V251.492V251.992H163.817V251.492ZM163.817 214.147H163.317V251.492H163.817H164.317V214.147H163.817ZM171.063 214.147V213.647H163.817V214.147V214.647H171.063V214.147ZM106.963 136.111H106.463V150.046H106.963H107.463V136.111H106.963ZM85.7816 136.111V136.611H106.963V136.111V135.611H85.7816V136.111ZM85.7816 122.973H85.2816V136.111H85.7816H86.2816V122.973H85.7816ZM65.1579 122.973V123.473H85.7816V122.973V122.473H65.1579V122.973ZM65.1579 174.571H65.6579V122.973H65.1579H64.6579V174.571H65.1579ZM54.0099 174.571V175.071H65.1579V174.571V174.071H54.0099V174.571ZM54.0099 188.506H54.5099V174.571H54.0099H53.5099V188.506H54.0099ZM64.6005 202.441L64.9986 202.139L54.408 188.204L54.0099 188.506L53.6119 188.809L64.2024 202.744L64.6005 202.441ZM83.552 202.441V201.941H64.6005V202.441V202.941H83.552V202.441ZM83.552 191.851H83.052V202.441H83.552H84.052V191.851H83.552ZM129.816 191.851V191.351H83.552V191.851V192.351H129.816V191.851ZM129.816 172.342H129.316V191.851H129.816H130.316V172.342H129.816ZM128.701 172.342V172.842H129.816V172.342V171.842H128.701V172.342ZM106.963 150.046L106.605 150.395L128.343 172.691L128.701 172.342L129.059 171.993L107.321 149.697L106.963 150.046ZM311.528 202.441V202.941H355.005V202.441V201.941H311.528V202.441ZM293.134 220.835L293.487 221.189L311.881 202.795L311.528 202.441L311.174 202.088L292.78 220.482L293.134 220.835ZM293.134 235.328H293.634V220.835H293.134H292.634V235.328H293.134ZM283.1 245.361L283.454 245.715L293.487 235.681L293.134 235.328L292.78 234.974L282.747 245.007L283.1 245.361ZM283.1 267.099H283.6V245.361H283.1H282.6V267.099H283.1ZM273.067 267.099V267.599H283.1V267.099V266.599H273.067V267.099ZM273.067 234.77H272.567V267.099H273.067H273.567V234.77H273.067ZM308.741 199.097L308.387 198.743L272.714 234.417L273.067 234.77L273.421 235.124L309.094 199.45L308.741 199.097ZM355.005 199.097V198.597H308.741V199.097V199.597H355.005V199.097ZM355.005 202.441H355.505V199.097H355.005H354.505V202.441H355.005ZM390.678 147.259L391.119 147.022L378.856 124.169L378.416 124.406L377.975 124.642L390.238 147.495L390.678 147.259ZM390.678 176.801H391.178V147.259H390.678H390.178V176.801H390.678ZM361.136 176.801V177.301H390.678V176.801V176.301H361.136V176.801ZM361.136 134.439H360.636V176.801H361.136H361.636V134.439H361.136ZM378.416 124.406L378.164 123.973L360.885 134.006L361.136 134.439L361.387 134.871L378.667 124.838L378.416 124.406ZM329.365 176.801V177.301H334.938V176.801V176.301H329.365V176.801ZM329.365 169.555H328.865V176.801H329.365H329.865V169.555H329.365ZM299.265 169.555V170.055H329.365V169.555V169.055H299.265V169.555ZM255.231 213.589L255.584 213.943L299.619 169.908L299.265 169.555L298.911 169.201L254.877 213.236L255.231 213.589ZM223.459 213.589V214.089H255.231V213.589V213.089H223.459V213.589ZM223.459 252.05H223.959V213.589H223.459H222.959V252.05H223.459ZM200.606 252.05V252.55H223.459V252.05V251.55H200.606V252.05ZM200.606 214.147H200.106V252.05H200.606H201.106V214.147H200.606ZM187.228 214.147V214.647H200.606V214.147V213.647H187.228V214.147ZM187.228 157.292H186.728V214.147H187.228H187.728V157.292H187.228ZM159.358 157.292V157.792H187.228V157.292V156.792H159.358V157.292ZM159.358 145.587H158.858V157.292H159.358H159.858V145.587H159.358ZM140.407 126.635L140.053 126.989L159.005 145.94L159.358 145.587L159.712 145.233L140.76 126.282L140.407 126.635ZM116.438 126.635V127.135H140.407V126.635V126.135H116.438V126.635ZM116.438 118.274H115.938V126.635H116.438H116.938V118.274H116.438ZM165.49 118.274V117.774H116.438V118.274V118.774H165.49V118.274ZM165.49 55.2883H164.99V118.274H165.49H165.99V55.2883H165.49ZM170.506 55.2883V54.7883H165.49V55.2883V55.7883H170.506V55.2883ZM170.506 60.8622H171.006V55.2883H170.506H170.006V60.8622H170.506ZM194.474 60.8622V60.3622H170.506V60.8622V61.3622H194.474V60.8622ZM194.474 104.897H194.974V60.8622H194.474H193.974V104.897H194.474ZM195.589 104.897V104.397H194.474V104.897V105.397H195.589V104.897ZM195.589 106.569H196.089V104.897H195.589H195.089V106.569H195.589ZM197.261 108.241L197.615 107.888L195.943 106.215L195.589 106.569L195.235 106.922L196.908 108.595L197.261 108.241ZM197.261 111.028H197.761V108.241H197.261H196.761V111.028H197.261ZM244.64 111.028V110.528H197.261V111.028V111.528H244.64V111.028ZM244.64 103.224H244.14V111.028H244.64H245.14V103.224H244.64ZM276.969 103.224V102.724H244.64V103.224V103.724H276.969V103.224ZM289.232 80.3712L288.791 80.1347L276.529 102.988L276.969 103.224L277.41 103.461L289.672 80.6076L289.232 80.3712ZM302.609 80.3712V79.8712H289.232V80.3712V80.8712H302.609V80.3712ZM334.938 150.046L335.392 149.835L303.063 80.1607L302.609 80.3712L302.156 80.5816L334.485 150.256L334.938 150.046ZM334.938 176.801H335.438V150.046H334.938H334.438V176.801H334.938ZM342.185 251.492H341.685V303.888H342.185H342.685V251.492H342.185ZM315.43 251.492V251.992H342.185V251.492V250.992H315.43V251.492ZM315.43 291.625H315.93V251.492H315.43H314.93V291.625H315.43ZM326.578 291.625V291.125H315.43V291.625V292.125H326.578V291.625ZM326.578 303.888H327.078V291.625H326.578H326.078V303.888H326.578ZM342.185 303.888V303.388H326.578V303.888V304.388H342.185V303.888ZM436.385 254.279V253.779H385.104V254.279V254.779H436.385V254.279ZM436.385 258.739H436.885V254.279H436.385H435.885V258.739H436.385ZM399.597 258.739V259.239H436.385V258.739V258.239H399.597V258.739ZM399.597 294.412H400.097V258.739H399.597H399.097V294.412H399.597ZM395.137 294.412V294.912H399.597V294.412V293.912H395.137V294.412ZM395.137 287.166H394.637V294.412H395.137H395.637V287.166H395.137ZM373.399 287.166V287.666H395.137V287.166V286.666H373.399V287.166ZM373.399 263.198H372.899V287.166H373.399H373.899V263.198H373.399ZM362.251 263.198V263.698H373.399V263.198V262.698H362.251V263.198ZM362.251 245.918H361.751V263.198H362.251H362.751V245.918H362.251ZM385.104 245.918V245.418H362.251V245.918V246.418H385.104V245.918ZM385.104 254.279H385.604V245.918H385.104H384.604V254.279H385.104ZM138.988 351.824L138.549 352.064L138.67 352.285L139.109 352.046L139.547 351.806L139.426 351.584L138.988 351.824ZM139.109 352.046L138.67 352.285L138.853 352.621L139.292 352.381L139.731 352.142L139.548 351.806L139.109 352.046Z" fill="#B27C40"/>
<path d="M182.211 434.319H173.293C170.843 435.676 169.508 435.274 167.162 433.762H157.129L154.899 434.319" stroke="#B27C40" stroke-width="0.5"/>
<path d="M390.121 195.195V213.589H383.989V215.819H376.186V231.426M376.186 231.426H383.989M376.186 231.426H370.054" stroke="#B27C40"/>
<path d="M85.7813 122.733V114.93H78.5351V122.733M31.7137 147.259H42.3043V138.898H31.7137M373.956 306.675L362.251 318.38L356.677 312.806L368.382 301.101L373.956 306.675Z" stroke="#B27C40"/>
<path d="M361.136 176.801H334.939" stroke="#B27C40"/>
<path d="M335.495 199.097V202.441H355.004V199.097H335.495Z" fill="#271406" stroke="#B27C40"/>
<path d="M371.727 176.801V184.047H365.038V176.801M414.089 203.556V214.147M388.449 224.737H396.252V232.541H388.449V228.082M388.449 224.737V228.082M388.449 224.737V220.278H380.088V228.082H388.449M332.151 202.441V228.639H324.348V202.441M297.035 288.281H313.2V251.492H318.216M163.817 251.492H171.063V247.591M163.817 239.787H171.063V247.591M163.817 247.591H171.063" stroke="#B27C40"/>
<path d="M129.816 218.606V212.474H120.897V218.606M72.4038 202.441V209.687H65.1576V202.441M324.348 127.75L340.512 116.045L339.131 114.026M319.331 115.487L333.266 105.454L339.131 114.026M336.053 109.356L342.184 104.897L345.529 109.356L339.131 114.026" stroke="#B27C40"/>
<path d="M364.48 91.5191V93.1913H356.119V84.8304H364.48M253.001 62.5344V69.7806H244.64V62.5344M244.64 103.224V88.7321M221.229 38.2623L223.459 38.5663V32.435L211.196 30.7628V33.5497M221.229 38.2623V41.9107H216.77M221.229 38.2623L216.77 37.6542M216.77 41.9107V37.6542M216.77 41.9107H212.311V37.0462M216.77 37.6542L212.311 37.0462M212.311 37.0462L211.196 36.8941V36.3367M211.196 33.5497H207.294V37.6542H211.196V36.3367M211.196 33.5497V36.3367" stroke="#B27C40"/>
<path d="M225.131 373.562L228.51 379.415H221.752L225.131 373.562Z" fill="#B27C40"/>
<path d="M207.851 122.733L203.99 116.045H211.713L207.851 122.733Z" fill="#B27C40"/>
<path d="M225.469 369.103V282.707M207.852 379.136V282.707M207.852 251.492V126.078M225.334 213.589V116.045" stroke="#B27C40" stroke-width="0.5"/>
<path d="M228.475 213.589V259.853H195.281V214.147M159.358 210.245V157.292M187.228 161.194H181.654L179.981 160.079V157.292M116.996 126.078L106.405 136.668M162.145 118.274V114.93H165.489M99.1588 240.344H91.9126V258.181M83.5516 258.181H67.3871V250.378M83.5516 282.149V305.56" stroke="#B27C40" stroke-width="0.5"/>
<path d="M395.137 309.462V294.412M274.739 321.725V364.944M22.7954 197.982H8.30302V214.704H23.9102M32.8285 228.082V245.918H0.49945" stroke="#B27C40" stroke-width="0.5"/>
<path d="M32.8286 228.082V214.704H23.9102" stroke="#B27C40"/>
<path d="M8.30292 245.918V238.115H0.499351M233.492 455.5V449.369H225.688V441.565H217.885V455.5M186.67 452.156V446.024C185.738 444.21 185.824 443.24 186.67 441.565V434.876L184.441 433.761H182.768L181.654 434.876V440.45C182.842 443.238 182.602 444.501 181.654 446.582V451.041" stroke="#B27C40"/>
<path d="M436.385 231.983V243.131V254.279" stroke="#B27C40"/>
<path d="M361.136 176.801V233.656H315.716V251.26M297.035 288.281V216.831L301.495 212.475H335.496V202.441M334.939 199.097V176.801" stroke="#B27C40" stroke-opacity="0.23"/>
<path d="M21.1235 233.656V245.361H32.2715V233.656H21.1235Z" stroke="#B27C40" stroke-opacity="0.23"/>
<path d="M1.05713 214.48H8.3042V198.267H46.7642V265.427H1.05713V214.48Z" fill="#F08234" fill-opacity="0.2"/>
<path d="M41.0459 212.884H42.5928L39.7764 204.884H37.9873L35.167 212.884H36.7139L38.8506 206.525H38.9131L41.0459 212.884ZM40.9951 209.747H36.7764V210.911H40.9951V209.747Z" fill="white"/>
<path d="M436.385 214.146H414.089V202.345L415.204 204.113L426.439 186.276H444.189V192.966H450.877V231.983H436.385V214.146Z" fill="#F08234" fill-opacity="0.2"/>
<path d="M385.105 254.279V245.361H383.99V228.639H388.449V233.099H396.252V225.295H388.449V219.721H383.99V214.146H436.385V254.279H385.105Z" fill="#F08234" fill-opacity="0.2"/>
<path d="M418.223 236.295V228.295H421.285C421.863 228.295 422.344 228.386 422.727 228.568C423.112 228.748 423.4 228.994 423.59 229.306C423.783 229.619 423.879 229.973 423.879 230.369C423.879 230.694 423.816 230.973 423.691 231.205C423.566 231.434 423.398 231.62 423.187 231.763C422.977 231.907 422.741 232.009 422.48 232.072V232.15C422.764 232.166 423.036 232.253 423.297 232.412C423.56 232.568 423.775 232.789 423.941 233.076C424.108 233.362 424.191 233.709 424.191 234.115C424.191 234.529 424.091 234.901 423.891 235.232C423.69 235.56 423.388 235.819 422.984 236.009C422.581 236.2 422.073 236.295 421.461 236.295H418.223ZM419.672 235.084H421.23C421.757 235.084 422.135 234.983 422.367 234.783C422.602 234.58 422.719 234.319 422.719 234.002C422.719 233.765 422.66 233.551 422.543 233.361C422.426 233.168 422.259 233.017 422.043 232.908C421.827 232.796 421.569 232.74 421.27 232.74H419.672V235.084ZM419.672 231.697H421.105C421.355 231.697 421.581 231.651 421.781 231.56C421.982 231.466 422.139 231.335 422.254 231.166C422.371 230.994 422.43 230.791 422.43 230.556C422.43 230.246 422.32 229.991 422.102 229.791C421.885 229.59 421.564 229.49 421.137 229.49H419.672V231.697Z" fill="white"/>
</svg>
