<svg width="460" height="473" viewBox="0 0 460 473" fill="none" xmlns="http://www.w3.org/2000/svg">
<path fill-rule="evenodd" clip-rule="evenodd" d="M48.4362 381.481V368.661L61.2564 359.742L33.9439 314.036V300.658H45.6492V269.444H43.977L33.3865 286.166H15.5497V279.477H8.30357V214.819H0.5V201.441H47.3214V171.899L54.0102 163.538H64.6008V159.636L86.8967 137.341H137.062V108.913H124.8V45.9273L153.784 17.5H267.494L273.068 20.8444H275.855L279.756 23.074L284.216 26.9758H289.232L297.036 29.2054H302.61L324.348 32.5497L344.415 33.6645L357.792 49.2717V70.4528H347.759V80.486L354.448 104.454L361.136 122.291C360.928 124.307 360.508 125.251 359.464 126.75L356.677 129.537L358.907 132.881C364.603 135.04 367.77 135.6 373.399 136.226L402.941 157.407V222.622H392.351V227.082H412.417V207.015H459.239V284.494H424.122V298.986H428.024V358.628L392.351 394.301H357.792V382.038H319.889V412.138H332.152V446.696L321.004 452.27H280.314V454.5H215.098V410.466H206.737V422.171H170.506V413.253H157.686L144.309 420.499H119.783V421.056H95.2577V381.481H48.4362ZM336.054 232.656H360.022V223.18L363.924 214.819H376.186V207.573H364.481V167.44H376.186V159.079H347.202C335.555 145.61 329.591 137.34 320.751 121.176L320.446 99.9949L319.332 98.8801V89.9617L320.751 82.1582H323.233V71.0102H320.446V63.2066H280.314V88.8469H216.77V64.3214H181.097L161.588 83.8304V100.552H179.425L191.688 116.717V150.718H162.145V184.719H193.36L205.065 190.293H318.217L336.054 208.688V232.656ZM288.675 258.853V300.658H292.577V269.444L310.413 254.394H338.841V249.378H317.659V221.508H295.921V258.853H288.675ZM352.776 322.954V336.889H373.957V350.027H394.58V298.429H405.728V284.494L395.138 270.559H376.186V281.149H329.922V300.658H331.037L352.776 322.954ZM104.733 270.559H148.211L166.605 252.165V237.672L176.638 227.639V205.901H186.671V238.23L150.997 273.903H104.733V270.559ZM81.3227 348.594L69.06 325.741V296.199H98.6021V338.561L81.3227 348.594ZM124.8 296.199H130.374V303.445H160.473L204.508 259.411H236.279V220.95H259.133V258.853H272.51V315.708H300.38V327.413L319.332 346.365H343.3V354.726H294.249V417.712H289.232V412.138H265.264V368.103H264.149V366.431L262.477 364.759V361.972H215.098V369.776H182.769L170.506 392.629H157.129L124.8 322.954V296.199ZM117.554 169.112V221.508H144.309V181.375H133.161V169.112H117.554ZM74.634 218.721H23.3534V214.261H60.1416V178.588H64.6008V185.834H86.3393V209.802H97.4873V227.082H74.634V218.721Z" fill="#271406"/>
<path d="M48.4362 368.661L48.1507 368.25L47.9362 368.399V368.661H48.4362ZM48.4362 381.481H47.9362V381.981H48.4362V381.481ZM61.2564 359.742L61.5419 360.153L61.9249 359.886L61.6856 359.486L61.2564 359.742ZM33.9439 314.036H33.4439V314.174L33.5147 314.292L33.9439 314.036ZM33.9439 300.658V300.158H33.4439V300.658H33.9439ZM45.6492 300.658V301.158H46.1492V300.658H45.6492ZM45.6492 269.444H46.1492V268.944H45.6492V269.444ZM43.977 269.444V268.944H43.7019L43.5546 269.176L43.977 269.444ZM33.3865 286.166V286.666H33.6617L33.8089 286.433L33.3865 286.166ZM15.5497 286.166H15.0497V286.666H15.5497V286.166ZM15.5497 279.477H16.0497V278.977H15.5497V279.477ZM8.30357 279.477H7.80357V279.977H8.30357V279.477ZM8.30357 214.819H8.80357V214.319H8.30357V214.819ZM0.5 214.819H0V215.319H0.5V214.819ZM0.5 201.441V200.941H0V201.441H0.5ZM47.3214 201.441V201.941H47.8214V201.441H47.3214ZM47.3214 171.899L46.931 171.587L46.8214 171.724V171.899H47.3214ZM54.0102 163.538V163.038H53.7699L53.6198 163.226L54.0102 163.538ZM64.6008 163.538V164.038H65.1008V163.538H64.6008ZM64.6008 159.636L64.2472 159.283L64.1008 159.429V159.636H64.6008ZM86.8967 137.341V136.841H86.6896L86.5431 136.987L86.8967 137.341ZM137.062 137.341V137.841H137.562V137.341H137.062ZM137.062 108.913H137.562V108.413H137.062V108.913ZM124.8 108.913H124.3V109.413H124.8V108.913ZM124.8 45.9273L124.45 45.5703L124.3 45.7173V45.9273H124.8ZM153.784 17.5V17H153.58L153.434 17.143L153.784 17.5ZM267.494 17.5L267.751 17.0713L267.632 17H267.494V17.5ZM273.068 20.8444L272.81 21.2731L272.929 21.3444H273.068V20.8444ZM275.855 20.8444L276.103 20.4103L275.987 20.3444H275.855V20.8444ZM279.756 23.074L280.086 22.6977L280.048 22.6647L280.004 22.6399L279.756 23.074ZM284.216 26.9758L283.886 27.3521L284.028 27.4758H284.216V26.9758ZM289.232 26.9758L289.37 26.495L289.302 26.4758H289.232V26.9758ZM297.036 29.2054L296.898 29.6861L296.966 29.7054H297.036V29.2054ZM302.61 29.2054L302.686 28.7112L302.648 28.7054H302.61V29.2054ZM324.348 32.5497L324.272 33.0439L324.296 33.0476L324.32 33.049L324.348 32.5497ZM344.415 33.6645L344.794 33.3391L344.655 33.1771L344.442 33.1653L344.415 33.6645ZM357.792 49.2717H358.292V49.0867L358.172 48.9463L357.792 49.2717ZM357.792 70.4528V70.9528H358.292V70.4528H357.792ZM347.759 70.4528V69.9528H347.259V70.4528H347.759ZM347.759 80.486H347.259V80.5544L347.277 80.6204L347.759 80.486ZM354.448 104.454L353.966 104.588L353.972 104.609L353.98 104.63L354.448 104.454ZM361.136 122.291L361.634 122.342L361.646 122.225L361.605 122.115L361.136 122.291ZM359.464 126.75L359.818 127.104L359.849 127.072L359.875 127.036L359.464 126.75ZM356.677 129.537L356.324 129.183L356.034 129.473L356.261 129.814L356.677 129.537ZM358.907 132.881L358.491 133.159L358.58 133.292L358.73 133.349L358.907 132.881ZM373.399 136.226L373.691 135.819L373.584 135.743L373.455 135.729L373.399 136.226ZM402.941 157.407H403.441V157.15L403.233 157.001L402.941 157.407ZM402.941 222.622V223.122H403.441V222.622H402.941ZM392.351 222.622V222.122H391.851V222.622H392.351ZM392.351 227.082H391.851V227.582H392.351V227.082ZM412.417 227.082V227.582H412.917V227.082H412.417ZM412.417 207.015V206.515H411.917V207.015H412.417ZM459.239 207.015H459.739V206.515H459.239V207.015ZM459.239 284.494V284.994H459.739V284.494H459.239ZM424.122 284.494V283.994H423.622V284.494H424.122ZM424.122 298.986H423.622V299.486H424.122V298.986ZM428.024 298.986H428.524V298.486H428.024V298.986ZM428.024 358.628L428.378 358.981L428.524 358.835V358.628H428.024ZM392.351 394.301V394.801H392.558L392.704 394.655L392.351 394.301ZM357.792 394.301H357.292V394.801H357.792V394.301ZM357.792 382.038H358.292V381.538H357.792V382.038ZM319.889 382.038V381.538H319.389V382.038H319.889ZM319.889 412.138H319.389V412.638H319.889V412.138ZM332.152 412.138H332.652V411.638H332.152V412.138ZM332.152 446.696L332.375 447.144L332.652 447.005V446.696H332.152ZM321.004 452.27V452.77H321.122L321.227 452.718L321.004 452.27ZM280.314 452.27V451.77H279.814V452.27H280.314ZM280.314 454.5V455H280.814V454.5H280.314ZM215.098 454.5H214.598V455H215.098V454.5ZM215.098 410.466H215.598V409.966H215.098V410.466ZM206.737 410.466V409.966H206.237V410.466H206.737ZM206.737 422.171V422.671H207.237V422.171H206.737ZM170.506 422.171H170.006V422.671H170.506V422.171ZM170.506 413.253H171.006V412.753H170.506V413.253ZM157.686 413.253V412.753H157.559L157.448 412.813L157.686 413.253ZM144.309 420.499V420.999H144.435L144.547 420.938L144.309 420.499ZM119.783 420.499V419.999H119.283V420.499H119.783ZM119.783 421.056V421.556H120.283V421.056H119.783ZM95.2577 421.056H94.7577V421.556H95.2577V421.056ZM95.2577 381.481H95.7577V380.981H95.2577V381.481ZM360.022 232.656V233.156H360.522V232.656H360.022ZM336.054 232.656H335.554V233.156H336.054V232.656ZM360.022 223.18L359.569 222.968L359.522 223.069V223.18H360.022ZM363.924 214.819V214.319H363.605L363.47 214.607L363.924 214.819ZM376.186 214.819V215.319H376.686V214.819H376.186ZM376.186 207.573H376.686V207.073H376.186V207.573ZM364.481 207.573H363.981V208.073H364.481V207.573ZM364.481 167.44V166.94H363.981V167.44H364.481ZM376.186 167.44V167.94H376.686V167.44H376.186ZM376.186 159.079H376.686V158.579H376.186V159.079ZM347.202 159.079L346.823 159.406L346.973 159.579H347.202V159.079ZM320.751 121.176L320.251 121.183L320.253 121.307L320.312 121.416L320.751 121.176ZM320.446 99.9949L320.946 99.9877L320.944 99.7848L320.8 99.6413L320.446 99.9949ZM319.332 98.8801H318.832V99.0872L318.978 99.2337L319.332 98.8801ZM319.332 89.9617L318.84 89.8723L318.832 89.9166V89.9617H319.332ZM320.751 82.1582V81.6582H320.333L320.259 82.0687L320.751 82.1582ZM323.233 82.1582V82.6582H323.733V82.1582H323.233ZM323.233 71.0102H323.733V70.5102H323.233V71.0102ZM320.446 71.0102H319.946V71.5102H320.446V71.0102ZM320.446 63.2066H320.946V62.7066H320.446V63.2066ZM280.314 63.2066V62.7066H279.814V63.2066H280.314ZM280.314 88.8469V89.3469H280.814V88.8469H280.314ZM216.77 88.8469H216.27V89.3469H216.77V88.8469ZM216.77 64.3214H217.27V63.8214H216.77V64.3214ZM181.097 64.3214V63.8214H180.89L180.743 63.9679L181.097 64.3214ZM161.588 83.8304L161.235 83.4768L161.088 83.6233V83.8304H161.588ZM161.588 100.552H161.088V101.052H161.588V100.552ZM179.425 100.552L179.823 100.25L179.673 100.052H179.425V100.552ZM191.688 116.717H192.188V116.549L192.086 116.415L191.688 116.717ZM191.688 150.718V151.218H192.188V150.718H191.688ZM162.145 150.718V150.218H161.645V150.718H162.145ZM162.145 184.719H161.645V185.219H162.145V184.719ZM193.36 184.719L193.575 184.268L193.473 184.219H193.36V184.719ZM205.065 190.293L204.85 190.745L204.952 190.793H205.065V190.293ZM318.217 190.293L318.576 189.945L318.429 189.793H318.217V190.293ZM336.054 208.688H336.554V208.485L336.413 208.339L336.054 208.688ZM288.675 300.658H288.175V301.158H288.675V300.658ZM288.675 258.853V258.353H288.175V258.853H288.675ZM292.577 300.658V301.158H293.077V300.658H292.577ZM292.577 269.444L292.254 269.062L292.077 269.212V269.444H292.577ZM310.413 254.394V253.894H310.231L310.091 254.012L310.413 254.394ZM338.841 254.394V254.894H339.341V254.394H338.841ZM338.841 249.378H339.341V248.878H338.841V249.378ZM317.659 249.378H317.159V249.878H317.659V249.378ZM317.659 221.508H318.159V221.008H317.659V221.508ZM295.921 221.508V221.008H295.421V221.508H295.921ZM295.921 258.853V259.353H296.421V258.853H295.921ZM352.776 336.889H352.276V337.389H352.776V336.889ZM352.776 322.954H353.276V322.751L353.134 322.605L352.776 322.954ZM373.957 336.889H374.457V336.389H373.957V336.889ZM373.957 350.027H373.457V350.527H373.957V350.027ZM394.58 350.027V350.527H395.08V350.027H394.58ZM394.58 298.429V297.929H394.08V298.429H394.58ZM405.728 298.429V298.929H406.228V298.429H405.728ZM405.728 284.494H406.228V284.325L406.126 284.191L405.728 284.494ZM395.138 270.559L395.536 270.256L395.386 270.059H395.138V270.559ZM376.186 270.559V270.059H375.686V270.559H376.186ZM376.186 281.149V281.649H376.686V281.149H376.186ZM329.922 281.149V280.649H329.422V281.149H329.922ZM329.922 300.658H329.422V301.158H329.922V300.658ZM331.037 300.658L331.395 300.309L331.248 300.158H331.037V300.658ZM148.211 270.559V271.059H148.418L148.564 270.912L148.211 270.559ZM104.733 270.559V270.059H104.233V270.559H104.733ZM166.605 252.165L166.958 252.518L167.105 252.372V252.165H166.605ZM166.605 237.672L166.251 237.319L166.105 237.465V237.672H166.605ZM176.638 227.639L176.991 227.993L177.138 227.846V227.639H176.638ZM176.638 205.901V205.401H176.138V205.901H176.638ZM186.671 205.901H187.171V205.401H186.671V205.901ZM186.671 238.23L187.025 238.583L187.171 238.437V238.23H186.671ZM150.997 273.903V274.403H151.205L151.351 274.257L150.997 273.903ZM104.733 273.903H104.233V274.403H104.733V273.903ZM69.06 325.741H68.56V325.867L68.6194 325.977L69.06 325.741ZM81.3227 348.594L80.8822 348.831L81.1267 349.286L81.5738 349.027L81.3227 348.594ZM69.06 296.199V295.699H68.56V296.199H69.06ZM98.6021 296.199H99.1021V295.699H98.6021V296.199ZM98.6021 338.561L98.8531 338.994L99.1021 338.849V338.561H98.6021ZM130.374 296.199H130.874V295.699H130.374V296.199ZM124.8 296.199V295.699H124.3V296.199H124.8ZM130.374 303.445H129.874V303.945H130.374V303.445ZM160.473 303.445V303.945H160.68L160.827 303.799L160.473 303.445ZM204.508 259.411V258.911H204.301L204.154 259.057L204.508 259.411ZM236.279 259.411V259.911H236.779V259.411H236.279ZM236.279 220.95V220.45H235.779V220.95H236.279ZM259.133 220.95H259.633V220.45H259.133V220.95ZM259.133 258.853H258.633V259.353H259.133V258.853ZM272.51 258.853H273.01V258.353H272.51V258.853ZM272.51 315.708H272.01V316.208H272.51V315.708ZM300.38 315.708H300.88V315.208H300.38V315.708ZM300.38 327.413H299.88V327.62L300.027 327.767L300.38 327.413ZM319.332 346.365L318.978 346.718L319.125 346.865H319.332V346.365ZM343.3 346.365H343.8V345.865H343.3V346.365ZM343.3 354.726V355.226H343.8V354.726H343.3ZM294.249 354.726V354.226H293.749V354.726H294.249ZM294.249 417.712V418.212H294.749V417.712H294.249ZM289.232 417.712H288.732V418.212H289.232V417.712ZM289.232 412.138H289.732V411.638H289.232V412.138ZM265.264 412.138H264.764V412.638H265.264V412.138ZM265.264 368.103H265.764V367.603H265.264V368.103ZM264.149 368.103H263.649V368.603H264.149V368.103ZM264.149 366.431H264.649V366.224L264.503 366.078L264.149 366.431ZM262.477 364.759H261.977V364.966L262.124 365.112L262.477 364.759ZM262.477 361.972H262.977V361.472H262.477V361.972ZM215.098 361.972V361.472H214.598V361.972H215.098ZM215.098 369.776V370.276H215.598V369.776H215.098ZM182.769 369.776V369.276H182.47L182.329 369.539L182.769 369.776ZM170.506 392.629V393.129H170.806L170.947 392.865L170.506 392.629ZM157.129 392.629L156.675 392.839L156.81 393.129H157.129V392.629ZM124.8 322.954H124.3V323.064L124.346 323.165L124.8 322.954ZM117.554 221.508H117.054V222.008H117.554V221.508ZM117.554 169.112V168.612H117.054V169.112H117.554ZM144.309 221.508V222.008H144.809V221.508H144.309ZM144.309 181.375H144.809V180.875H144.309V181.375ZM133.161 181.375H132.661V181.875H133.161V181.375ZM133.161 169.112H133.661V168.612H133.161V169.112ZM23.3534 218.721H22.8534V219.221H23.3534V218.721ZM74.634 218.721H75.134V218.221H74.634V218.721ZM23.3534 214.261V213.761H22.8534V214.261H23.3534ZM60.1416 214.261V214.761H60.6416V214.261H60.1416ZM60.1416 178.588V178.088H59.6416V178.588H60.1416ZM64.6008 178.588H65.1008V178.088H64.6008V178.588ZM64.6008 185.834H64.1008V186.334H64.6008V185.834ZM86.3393 185.834H86.8393V185.334H86.3393V185.834ZM86.3393 209.802H85.8393V210.302H86.3393V209.802ZM97.4873 209.802H97.9873V209.302H97.4873V209.802ZM97.4873 227.082V227.582H97.9873V227.082H97.4873ZM74.634 227.082H74.134V227.582H74.634V227.082ZM320.63 120.954L320.191 121.194L320.191 121.194L320.63 120.954ZM48.4362 368.661H47.9362V381.481H48.4362H48.9362V368.661H48.4362ZM61.2564 359.742L60.9708 359.332L48.1507 368.25L48.4362 368.661L48.7218 369.071L61.5419 360.153L61.2564 359.742ZM33.9439 314.036L33.5147 314.292L60.8272 359.999L61.2564 359.742L61.6856 359.486L34.3731 313.779L33.9439 314.036ZM33.9439 300.658H33.4439V314.036H33.9439H34.4439V300.658H33.9439ZM45.6492 300.658V300.158H33.9439V300.658V301.158H45.6492V300.658ZM45.6492 269.444H45.1492V300.658H45.6492H46.1492V269.444H45.6492ZM43.977 269.444V269.944H45.6492V269.444V268.944H43.977V269.444ZM33.3865 286.166L33.8089 286.433L44.3994 269.711L43.977 269.444L43.5546 269.176L32.9641 285.898L33.3865 286.166ZM15.5497 286.166V286.666H33.3865V286.166V285.666H15.5497V286.166ZM15.5497 279.477H15.0497V286.166H15.5497H16.0497V279.477H15.5497ZM8.30357 279.477V279.977H15.5497V279.477V278.977H8.30357V279.477ZM8.30357 214.819H7.80357V279.477H8.30357H8.80357V214.819H8.30357ZM0.5 214.819V215.319H8.30357V214.819V214.319H0.5V214.819ZM0.5 201.441H0V214.819H0.5H1V201.441H0.5ZM47.3214 201.441V200.941H0.5V201.441V201.941H47.3214V201.441ZM47.3214 171.899H46.8214V201.441H47.3214H47.8214V171.899H47.3214ZM54.0102 163.538L53.6198 163.226L46.931 171.587L47.3214 171.899L47.7119 172.212L54.4006 163.851L54.0102 163.538ZM64.6008 163.538V163.038H54.0102V163.538V164.038H64.6008V163.538ZM64.6008 159.636H64.1008V163.538H64.6008H65.1008V159.636H64.6008ZM86.8967 137.341L86.5431 136.987L64.2472 159.283L64.6008 159.636L64.9543 159.99L87.2502 137.694L86.8967 137.341ZM137.062 137.341V136.841H86.8967V137.341V137.841H137.062V137.341ZM137.062 108.913H136.562V137.341H137.062H137.562V108.913H137.062ZM124.8 108.913V109.413H137.062V108.913V108.413H124.8V108.913ZM124.8 45.9273H124.3V108.913H124.8H125.3V45.9273H124.8ZM153.784 17.5L153.434 17.143L124.45 45.5703L124.8 45.9273L125.15 46.2843L154.135 17.857L153.784 17.5ZM267.494 17.5V17H153.784V17.5V18H267.494V17.5ZM273.068 20.8444L273.325 20.4156L267.751 17.0713L267.494 17.5L267.236 17.9287L272.81 21.2731L273.068 20.8444ZM275.855 20.8444V20.3444H273.068V20.8444V21.3444H275.855V20.8444ZM279.756 23.074L280.004 22.6399L276.103 20.4103L275.855 20.8444L275.607 21.2785L279.508 23.5081L279.756 23.074ZM284.216 26.9758L284.545 26.5995L280.086 22.6977L279.756 23.074L279.427 23.4503L283.886 27.3521L284.216 26.9758ZM289.232 26.9758V26.4758H284.216V26.9758V27.4758H289.232V26.9758ZM297.036 29.2054L297.173 28.7246L289.37 26.495L289.232 26.9758L289.095 27.4565L296.898 29.6861L297.036 29.2054ZM302.61 29.2054V28.7054H297.036V29.2054V29.7054H302.61V29.2054ZM324.348 32.5497L324.424 32.0556L302.686 28.7112L302.61 29.2054L302.534 29.6995L324.272 33.0439L324.348 32.5497ZM344.415 33.6645L344.442 33.1653L324.376 32.0505L324.348 32.5497L324.32 33.049L344.387 34.1638L344.415 33.6645ZM357.792 49.2717L358.172 48.9463L344.794 33.3391L344.415 33.6645L344.035 33.9899L357.412 49.5971L357.792 49.2717ZM357.792 70.4528H358.292V49.2717H357.792H357.292V70.4528H357.792ZM347.759 70.4528V70.9528H357.792V70.4528V69.9528H347.759V70.4528ZM347.759 80.486H348.259V70.4528H347.759H347.259V80.486H347.759ZM354.448 104.454L354.929 104.32L348.241 80.3516L347.759 80.486L347.277 80.6204L353.966 104.588L354.448 104.454ZM361.136 122.291L361.605 122.115L354.916 104.279L354.448 104.454L353.98 104.63L360.668 122.466L361.136 122.291ZM359.464 126.75L359.875 127.036C360.406 126.273 360.797 125.624 361.08 124.895C361.363 124.164 361.527 123.377 361.634 122.342L361.136 122.291L360.639 122.239C360.538 123.221 360.387 123.914 360.147 124.534C359.907 125.155 359.567 125.728 359.054 126.464L359.464 126.75ZM356.677 129.537L357.031 129.891L359.818 127.104L359.464 126.75L359.111 126.396L356.324 129.183L356.677 129.537ZM358.907 132.881L359.323 132.604L357.093 129.26L356.677 129.537L356.261 129.814L358.491 133.159L358.907 132.881ZM373.399 136.226L373.455 135.729C367.854 135.106 364.73 134.553 359.084 132.414L358.907 132.881L358.73 133.349C364.477 135.526 367.687 136.093 373.344 136.723L373.399 136.226ZM402.941 157.407L403.233 157.001L373.691 135.819L373.399 136.226L373.108 136.632L402.65 157.813L402.941 157.407ZM402.941 222.622H403.441V157.407H402.941H402.441V222.622H402.941ZM392.351 222.622V223.122H402.941V222.622V222.122H392.351V222.622ZM392.351 227.082H392.851V222.622H392.351H391.851V227.082H392.351ZM412.417 227.082V226.582H392.351V227.082V227.582H412.417V227.082ZM412.417 207.015H411.917V227.082H412.417H412.917V207.015H412.417ZM459.239 207.015V206.515H412.417V207.015V207.515H459.239V207.015ZM459.239 284.494H459.739V207.015H459.239H458.739V284.494H459.239ZM424.122 284.494V284.994H459.239V284.494V283.994H424.122V284.494ZM424.122 298.986H424.622V284.494H424.122H423.622V298.986H424.122ZM428.024 298.986V298.486H424.122V298.986V299.486H428.024V298.986ZM428.024 358.628H428.524V298.986H428.024H427.524V358.628H428.024ZM392.351 394.301L392.704 394.655L428.378 358.981L428.024 358.628L427.671 358.274L391.997 393.947L392.351 394.301ZM357.792 394.301V394.801H392.351V394.301V393.801H357.792V394.301ZM357.792 382.038H357.292V394.301H357.792H358.292V382.038H357.792ZM319.889 382.038V382.538H357.792V382.038V381.538H319.889V382.038ZM319.889 412.138H320.389V382.038H319.889H319.389V412.138H319.889ZM332.152 412.138V411.638H319.889V412.138V412.638H332.152V412.138ZM332.152 446.696H332.652V412.138H332.152H331.652V446.696H332.152ZM321.004 452.27L321.227 452.718L332.375 447.144L332.152 446.696L331.928 446.249L320.78 451.823L321.004 452.27ZM280.314 452.27V452.77H321.004V452.27V451.77H280.314V452.27ZM280.314 454.5H280.814V452.27H280.314H279.814V454.5H280.314ZM215.098 454.5V455H280.314V454.5V454H215.098V454.5ZM215.098 410.466H214.598V454.5H215.098H215.598V410.466H215.098ZM206.737 410.466V410.966H215.098V410.466V409.966H206.737V410.466ZM206.737 422.171H207.237V410.466H206.737H206.237V422.171H206.737ZM170.506 422.171V422.671H206.737V422.171V421.671H170.506V422.171ZM170.506 413.253H170.006V422.171H170.506H171.006V413.253H170.506ZM157.686 413.253V413.753H170.506V413.253V412.753H157.686V413.253ZM144.309 420.499L144.547 420.938L157.924 413.692L157.686 413.253L157.448 412.813L144.071 420.059L144.309 420.499ZM119.783 420.499V420.999H144.309V420.499V419.999H119.783V420.499ZM119.783 421.056H120.283V420.499H119.783H119.283V421.056H119.783ZM95.2577 421.056V421.556H119.783V421.056V420.556H95.2577V421.056ZM95.2577 381.481H94.7577V421.056H95.2577H95.7577V381.481H95.2577ZM48.4362 381.481V381.981H95.2577V381.481V380.981H48.4362V381.481ZM360.022 232.656V232.156H336.054V232.656V233.156H360.022V232.656ZM360.022 223.18H359.522V232.656H360.022H360.522V223.18H360.022ZM363.924 214.819L363.47 214.607L359.569 222.968L360.022 223.18L360.475 223.391L364.377 215.03L363.924 214.819ZM376.186 214.819V214.319H363.924V214.819V215.319H376.186V214.819ZM376.186 207.573H375.686V214.819H376.186H376.686V207.573H376.186ZM364.481 207.573V208.073H376.186V207.573V207.073H364.481V207.573ZM364.481 167.44H363.981V207.573H364.481H364.981V167.44H364.481ZM376.186 167.44V166.94H364.481V167.44V167.94H376.186V167.44ZM376.186 159.079H375.686V167.44H376.186H376.686V159.079H376.186ZM347.202 159.079V159.579H376.186V159.079V158.579H347.202V159.079ZM320.751 121.176L320.312 121.416C329.171 137.614 335.156 145.913 346.823 159.406L347.202 159.079L347.58 158.752C335.954 145.307 330.011 137.066 321.189 120.936L320.751 121.176ZM320.446 99.9949L319.947 100.002L320.251 121.183L320.751 121.176L321.251 121.169L320.946 99.9877L320.446 99.9949ZM319.332 98.8801L318.978 99.2337L320.093 100.348L320.446 99.9949L320.8 99.6413L319.685 98.5265L319.332 98.8801ZM319.332 89.9617H318.832V98.8801H319.332H319.832V89.9617H319.332ZM320.751 82.1582L320.259 82.0687L318.84 89.8723L319.332 89.9617L319.824 90.0512L321.243 82.2476L320.751 82.1582ZM323.233 82.1582V81.6582H320.751V82.1582V82.6582H323.233V82.1582ZM323.233 71.0102H322.733V82.1582H323.233H323.733V71.0102H323.233ZM320.446 71.0102V71.5102H323.233V71.0102V70.5102H320.446V71.0102ZM320.446 63.2066H319.946V71.0102H320.446H320.946V63.2066H320.446ZM280.314 63.2066V63.7066H320.446V63.2066V62.7066H280.314V63.2066ZM280.314 88.8469H280.814V63.2066H280.314H279.814V88.8469H280.314ZM216.77 88.8469V89.3469H280.314V88.8469V88.3469H216.77V88.8469ZM216.77 64.3214H216.27V88.8469H216.77H217.27V64.3214H216.77ZM181.097 64.3214V64.8214H216.77V64.3214V63.8214H181.097V64.3214ZM161.588 83.8304L161.942 84.1839L181.451 64.675L181.097 64.3214L180.743 63.9679L161.235 83.4768L161.588 83.8304ZM161.588 100.552H162.088V83.8304H161.588H161.088V100.552H161.588ZM179.425 100.552V100.052H161.588V100.552V101.052H179.425V100.552ZM191.688 116.717L192.086 116.415L179.823 100.25L179.425 100.552L179.026 100.854L191.289 117.019L191.688 116.717ZM191.688 150.718H192.188V116.717H191.688H191.188V150.718H191.688ZM162.145 150.718V151.218H191.688V150.718V150.218H162.145V150.718ZM162.145 184.719H162.645V150.718H162.145H161.645V184.719H162.145ZM193.36 184.719V184.219H162.145V184.719V185.219H193.36V184.719ZM205.065 190.293L205.28 189.842L193.575 184.268L193.36 184.719L193.145 185.171L204.85 190.745L205.065 190.293ZM318.217 190.293V189.793H205.065V190.293V190.793H318.217V190.293ZM336.054 208.688L336.413 208.339L318.576 189.945L318.217 190.293L317.858 190.641L335.695 209.036L336.054 208.688ZM336.054 232.656H336.554V208.688H336.054H335.554V232.656H336.054ZM288.675 300.658H289.175V258.853H288.675H288.175V300.658H288.675ZM292.577 300.658V300.158H288.675V300.658V301.158H292.577V300.658ZM292.577 269.444H292.077V300.658H292.577H293.077V269.444H292.577ZM310.413 254.394L310.091 254.012L292.254 269.062L292.577 269.444L292.899 269.826L310.736 254.776L310.413 254.394ZM338.841 254.394V253.894H310.413V254.394V254.894H338.841V254.394ZM338.841 249.378H338.341V254.394H338.841H339.341V249.378H338.841ZM317.659 249.378V249.878H338.841V249.378V248.878H317.659V249.378ZM317.659 221.508H317.159V249.378H317.659H318.159V221.508H317.659ZM295.921 221.508V222.008H317.659V221.508V221.008H295.921V221.508ZM295.921 258.853H296.421V221.508H295.921H295.421V258.853H295.921ZM288.675 258.853V259.353H295.921V258.853V258.353H288.675V258.853ZM352.776 336.889H353.276V322.954H352.776H352.276V336.889H352.776ZM373.957 336.889V336.389H352.776V336.889V337.389H373.957V336.889ZM373.957 350.027H374.457V336.889H373.957H373.457V350.027H373.957ZM394.58 350.027V349.527H373.957V350.027V350.527H394.58V350.027ZM394.58 298.429H394.08V350.027H394.58H395.08V298.429H394.58ZM405.728 298.429V297.929H394.58V298.429V298.929H405.728V298.429ZM405.728 284.494H405.228V298.429H405.728H406.228V284.494H405.728ZM395.138 270.559L394.74 270.861L405.33 284.796L405.728 284.494L406.126 284.191L395.536 270.256L395.138 270.559ZM376.186 270.559V271.059H395.138V270.559V270.059H376.186V270.559ZM376.186 281.149H376.686V270.559H376.186H375.686V281.149H376.186ZM329.922 281.149V281.649H376.186V281.149V280.649H329.922V281.149ZM329.922 300.658H330.422V281.149H329.922H329.422V300.658H329.922ZM331.037 300.658V300.158H329.922V300.658V301.158H331.037V300.658ZM352.776 322.954L353.134 322.605L331.395 300.309L331.037 300.658L330.679 301.007L352.418 323.303L352.776 322.954ZM148.211 270.559V270.059H104.733V270.559V271.059H148.211V270.559ZM166.605 252.165L166.251 251.811L147.857 270.205L148.211 270.559L148.564 270.912L166.958 252.518L166.605 252.165ZM166.605 237.672H166.105V252.165H166.605H167.105V237.672H166.605ZM176.638 227.639L176.284 227.285L166.251 237.319L166.605 237.672L166.958 238.026L176.991 227.993L176.638 227.639ZM176.638 205.901H176.138V227.639H176.638H177.138V205.901H176.638ZM186.671 205.901V205.401H176.638V205.901V206.401H186.671V205.901ZM186.671 238.23H187.171V205.901H186.671H186.171V238.23H186.671ZM150.997 273.903L151.351 274.257L187.025 238.583L186.671 238.23L186.317 237.876L150.644 273.55L150.997 273.903ZM104.733 273.903V274.403H150.997V273.903V273.403H104.733V273.903ZM104.733 270.559H104.233V273.903H104.733H105.233V270.559H104.733ZM69.06 325.741L68.6194 325.977L80.8822 348.831L81.3227 348.594L81.7633 348.358L69.5006 325.505L69.06 325.741ZM69.06 296.199H68.56V325.741H69.06H69.56V296.199H69.06ZM98.6021 296.199V295.699H69.06V296.199V296.699H98.6021V296.199ZM98.6021 338.561H99.1021V296.199H98.6021H98.1021V338.561H98.6021ZM81.3227 348.594L81.5738 349.027L98.8531 338.994L98.6021 338.561L98.351 338.129L81.0717 348.162L81.3227 348.594ZM130.374 296.199V295.699H124.8V296.199V296.699H130.374V296.199ZM130.374 303.445H130.874V296.199H130.374H129.874V303.445H130.374ZM160.473 303.445V302.945H130.374V303.445V303.945H160.473V303.445ZM204.508 259.411L204.154 259.057L160.12 303.092L160.473 303.445L160.827 303.799L204.861 259.764L204.508 259.411ZM236.279 259.411V258.911H204.508V259.411V259.911H236.279V259.411ZM236.279 220.95H235.779V259.411H236.279H236.779V220.95H236.279ZM259.133 220.95V220.45H236.279V220.95V221.45H259.133V220.95ZM259.133 258.853H259.633V220.95H259.133H258.633V258.853H259.133ZM272.51 258.853V258.353H259.133V258.853V259.353H272.51V258.853ZM272.51 315.708H273.01V258.853H272.51H272.01V315.708H272.51ZM300.38 315.708V315.208H272.51V315.708V316.208H300.38V315.708ZM300.38 327.413H300.88V315.708H300.38H299.88V327.413H300.38ZM319.332 346.365L319.685 346.011L300.734 327.06L300.38 327.413L300.027 327.767L318.978 346.718L319.332 346.365ZM343.3 346.365V345.865H319.332V346.365V346.865H343.3V346.365ZM343.3 354.726H343.8V346.365H343.3H342.8V354.726H343.3ZM294.249 354.726V355.226H343.3V354.726V354.226H294.249V354.726ZM294.249 417.712H294.749V354.726H294.249H293.749V417.712H294.249ZM289.232 417.712V418.212H294.249V417.712V417.212H289.232V417.712ZM289.232 412.138H288.732V417.712H289.232H289.732V412.138H289.232ZM265.264 412.138V412.638H289.232V412.138V411.638H265.264V412.138ZM265.264 368.103H264.764V412.138H265.264H265.764V368.103H265.264ZM264.149 368.103V368.603H265.264V368.103V367.603H264.149V368.103ZM264.149 366.431H263.649V368.103H264.149H264.649V366.431H264.149ZM262.477 364.759L262.124 365.112L263.796 366.785L264.149 366.431L264.503 366.078L262.831 364.405L262.477 364.759ZM262.477 361.972H261.977V364.759H262.477H262.977V361.972H262.477ZM215.098 361.972V362.472H262.477V361.972V361.472H215.098V361.972ZM215.098 369.776H215.598V361.972H215.098H214.598V369.776H215.098ZM182.769 369.776V370.276H215.098V369.776V369.276H182.769V369.776ZM170.506 392.629L170.947 392.865L183.21 370.012L182.769 369.776L182.329 369.539L170.066 392.392L170.506 392.629ZM157.129 392.629V393.129H170.506V392.629V392.129H157.129V392.629ZM124.8 322.954L124.346 323.165L156.675 392.839L157.129 392.629L157.582 392.418L125.253 322.744L124.8 322.954ZM124.8 296.199H124.3V322.954H124.8H125.3V296.199H124.8ZM117.554 221.508H118.054V169.112H117.554H117.054V221.508H117.554ZM144.309 221.508V221.008H117.554V221.508V222.008H144.309V221.508ZM144.309 181.375H143.809V221.508H144.309H144.809V181.375H144.309ZM133.161 181.375V181.875H144.309V181.375V180.875H133.161V181.375ZM133.161 169.112H132.661V181.375H133.161H133.661V169.112H133.161ZM117.554 169.112V169.612H133.161V169.112V168.612H117.554V169.112ZM23.3534 218.721V219.221H74.634V218.721V218.221H23.3534V218.721ZM23.3534 214.261H22.8534V218.721H23.3534H23.8534V214.261H23.3534ZM60.1416 214.261V213.761H23.3534V214.261V214.761H60.1416V214.261ZM60.1416 178.588H59.6416V214.261H60.1416H60.6416V178.588H60.1416ZM64.6008 178.588V178.088H60.1416V178.588V179.088H64.6008V178.588ZM64.6008 185.834H65.1008V178.588H64.6008H64.1008V185.834H64.6008ZM86.3393 185.834V185.334H64.6008V185.834V186.334H86.3393V185.834ZM86.3393 209.802H86.8393V185.834H86.3393H85.8393V209.802H86.3393ZM97.4873 209.802V209.302H86.3393V209.802V210.302H97.4873V209.802ZM97.4873 227.082H97.9873V209.802H97.4873H96.9873V227.082H97.4873ZM74.634 227.082V227.582H97.4873V227.082V226.582H74.634V227.082ZM74.634 218.721H74.134V227.082H74.634H75.134V218.721H74.634ZM320.751 121.176L321.19 120.936L321.068 120.715L320.63 120.954L320.191 121.194L320.312 121.416L320.751 121.176ZM320.63 120.954L321.069 120.715L320.885 120.379L320.446 120.619L320.008 120.858L320.191 121.194L320.63 120.954Z" fill="#B27C40"/>
<path d="M277.527 38.6811H286.445C288.895 37.3242 290.23 37.7259 292.577 39.2385H302.61L304.839 38.6811" stroke="#B27C40" stroke-width="0.5"/>
<path d="M69.6174 277.805V259.411H75.7488V257.181H83.5524V241.574M83.5524 241.574H75.7488M83.5524 241.574H89.6838" stroke="#B27C40"/>
<path d="M373.957 350.267V358.07H381.203V350.267M428.024 325.741H417.434V334.102H428.024M85.782 166.325L97.4873 154.62L103.061 160.194L91.356 171.899L85.782 166.325Z" stroke="#B27C40"/>
<path d="M98.6021 296.199H124.8" stroke="#B27C40"/>
<path d="M124.242 273.903V270.559H104.733V273.903H124.242Z" fill="#271406" stroke="#B27C40"/>
<path d="M88.0114 296.199V288.953H94.7002V296.199M45.6492 269.444V258.853M71.2895 248.263H63.4859V240.459H71.2895V244.918M71.2895 248.263V244.918M71.2895 248.263V252.722H79.6504V244.918H71.2895M127.587 270.559V244.361H135.39V270.559M162.703 184.719H146.538V221.508H141.522M295.921 221.508H288.675V225.409M295.921 233.213H288.675V225.409M295.921 225.409H288.675" stroke="#B27C40"/>
<path d="M329.922 254.394V260.526H338.841V254.394M387.334 270.559V263.313H394.58V270.559M135.39 345.25L119.226 356.955L120.607 358.974M140.407 357.513L126.472 367.546L120.607 358.974M123.685 363.644L117.554 368.103L114.209 363.644L120.607 358.974" stroke="#B27C40"/>
<path d="M95.2576 381.481V379.809H103.619V388.17H95.2576M206.737 410.466V403.219H215.098V410.466M215.098 369.776V384.268M238.509 434.738L236.279 434.434V440.565L248.542 442.237V439.45M238.509 434.738V431.089H242.968M238.509 434.738L242.968 435.346M242.968 431.089V435.346M242.968 431.089H247.427V435.954M242.968 435.346L247.427 435.954M247.427 435.954L248.542 436.106V436.663M248.542 439.45H252.444V435.346H248.542V436.663M248.542 439.45V436.663" stroke="#B27C40"/>
<path d="M234.607 99.4375L231.228 93.5848H237.986L234.607 99.4375Z" fill="#B27C40"/>
<path d="M251.886 350.267L255.748 356.955H248.025L251.886 350.267Z" fill="#B27C40"/>
<path d="M234.269 103.897V190.293M251.886 93.8635V190.293M251.886 221.508V346.922M234.404 259.411V356.955" stroke="#B27C40" stroke-width="0.5"/>
<path d="M231.263 259.411V213.147H264.457V258.853M300.38 262.755V315.708M272.51 311.806H278.084L279.756 312.921V315.708M342.742 346.922L353.333 336.332M297.593 354.726V358.07H294.249M360.579 232.656H367.825V214.819M376.186 214.819H392.351V222.622M376.186 190.851V167.44" stroke="#B27C40" stroke-width="0.5"/>
<path d="M64.6008 163.538V178.588M184.999 151.276V108.056M436.943 275.018H451.435V258.296H435.828M426.91 244.918V227.082H459.239" stroke="#B27C40" stroke-width="0.5"/>
<path d="M426.909 244.918V258.296H435.828" stroke="#B27C40"/>
<path d="M451.435 227.082V234.885H459.238M226.246 17.5V23.6314H234.05V31.4349H241.853V17.5M273.068 20.8444V26.9758C274 28.7896 273.914 29.7597 273.068 31.4349V38.1237L275.297 39.2385H276.969L278.084 38.1237V32.5497C276.896 29.7616 277.136 28.4988 278.084 26.4184V21.9592" stroke="#B27C40"/>
<path d="M23.3533 241.017V229.869V218.721" stroke="#B27C40"/>
<path d="M98.6021 296.199V239.344H144.022V221.74M162.703 184.719V256.169L158.244 260.526H124.242V270.559M124.8 273.903V296.199" stroke="#B27C40" stroke-opacity="0.23"/>
<path d="M438.615 239.344V227.639H427.467V239.344H438.615Z" stroke="#B27C40" stroke-opacity="0.23"/>
<path d="M458.682 258.52H451.435V274.733H412.975V207.573H458.682V258.52Z" fill="#F08234" fill-opacity="0.2"/>
<path d="M418.693 267.624H417.146L419.962 259.624H421.751L424.572 267.624H423.025L420.888 261.264H420.825L418.693 267.624ZM418.743 264.487H422.962V265.651H418.743V264.487Z" fill="white"/>
<path d="M23.3533 258.853H45.6492V270.655L44.5349 268.887L33.2996 286.724H15.5496V280.034H8.86108V241.017H23.3533V258.853Z" fill="#F08234" fill-opacity="0.2"/>
<path d="M74.6335 218.721V227.639H75.7488V244.361H71.2898V239.901H63.4861V247.705H71.2898V253.279H75.7488V258.853H23.3533V218.721H74.6335Z" fill="#F08234" fill-opacity="0.2"/>
<path d="M34.1755 244.213V236.213H37.238C37.8162 236.213 38.2966 236.304 38.6794 236.486C39.0649 236.666 39.3526 236.912 39.5427 237.225C39.7354 237.537 39.8318 237.891 39.8318 238.287C39.8318 238.613 39.7693 238.891 39.6443 239.123C39.5193 239.352 39.3513 239.539 39.1404 239.682C38.9294 239.825 38.6938 239.928 38.4333 239.99V240.068C38.7172 240.084 38.9893 240.171 39.2498 240.33C39.5128 240.486 39.7276 240.708 39.8943 240.994C40.061 241.281 40.1443 241.627 40.1443 242.033C40.1443 242.447 40.044 242.82 39.8435 243.151C39.643 243.479 39.3409 243.738 38.9373 243.928C38.5336 244.118 38.0258 244.213 37.4138 244.213H34.1755ZM35.6248 243.002H37.1833C37.7094 243.002 38.0883 242.902 38.3201 242.701C38.5544 242.498 38.6716 242.238 38.6716 241.92C38.6716 241.683 38.613 241.47 38.4958 241.279C38.3787 241.087 38.212 240.936 37.9958 240.826C37.7797 240.714 37.5219 240.658 37.2224 240.658H35.6248V243.002ZM35.6248 239.615H37.0583C37.3083 239.615 37.5336 239.57 37.7341 239.479C37.9347 239.385 38.0922 239.253 38.2068 239.084C38.324 238.912 38.3826 238.709 38.3826 238.475C38.3826 238.165 38.2732 237.91 38.0544 237.709C37.8383 237.509 37.5167 237.408 37.0896 237.408H35.6248V239.615Z" fill="white"/>
</svg>
