<svg width="395" height="474" viewBox="0 0 395 474" fill="none" xmlns="http://www.w3.org/2000/svg">
<path d="M21.3605 337.625H16.1855V334.75H33.4355V350.275H21.3605V337.625Z" fill="#271406" fill-opacity="0.9" stroke="#B27C40" stroke-opacity="0.23" stroke-width="0.5"/>
<path fill-rule="evenodd" clip-rule="evenodd" d="M322.085 134.65V120.85H379.585V161.405H377.581V171.218H363.485V198.818H366.36V233.241H385.011V275.875H393.69V326.125H323.235V343.95H273.785V371.55H220.885V408.35H204.785V407.2H178.91V425.6L146.135 455.5L124.285 439.4V407.2H100.135V371.55H33.4353V335.065H8.71033V318.65H1.23532V254.825H15.0353V223.775H1.23532V194.45H34.0103L74.8353 169.725H85.7603V159.95H118.535V176.625H120.835V154.775H135.21V153.05H121.41V99.575H184.66V72.4315H159.723V36.9L188.685 18.5H234.685L259.41 36.9V95.8307H330.135V114.525H319.785V134.65H322.085ZM258.26 351.425V315.2H237.56V307.725H230.66V312.325L219.735 323.25H209.96V343.95H180.635V323.25H171.435L159.935 311.75V293.925H154.185V301.4H121.985V353.15H143.835V384.775H181.21V351.425H258.26ZM311.735 258.85H277.235V267.475H265.16V269.2H284.135V284.725H281.26V286.45H284.135V289.9H287.01V308.875H284.135V325.55H301.257V276.1H311.735V258.85ZM100.135 353.15V340.5H75.9853V346.825H54.7103V318.65H47.8103V353.15H100.135ZM166.835 135.225V133.5H161.085V142.7L150.16 153.05H146.71V154.775H159.935V197.325H147.285V199.05H150.16V233.55H153.61V237.575H157.06V262.875H121.41V251.95H117.96V262.875H103.585V255.4H75.9854V261.725H93.8103V311.75H75.9854V325.417H100.049V272.804L154.185 273.225V279.55H159.935V251.631H191.919V248.5H181.21V199.509H163.76V166.85H188.11V165.125H163.76V135.225H166.835ZM272.635 286.45H244.46V291.625H237.56V293.247H231.235V251.95H207.085V248.5H231.235V226.65H217.435V199.05H237.56V212.85H247.91V215.725H237.56V267.475H249.635V269.2H237.56V284.725H272.635V286.45ZM346.81 177.2V160.525H328.985V153.05H322.085V149.6H319.785V160.525H286.435V121.425H259.41V135.8H243.885V137.812H277.235V212.85H266.885V215.725H277.235V245.05H311.735V233.55H346.81V203.075H328.985V177.2H346.81ZM234.11 160.525V166.85H209.385V165.125H220.885V149.025L179.17 149.205V135.381H175.739V133.816H185.235V122L212.598 121.797V135.581H226.635V160.525H234.11ZM245.035 71.975V103.394H197.885V71.975H245.035ZM131.76 204.225V234.125H121.41V244.475H118.535V238.725H103.585V240.733H69.6603V226.41H40.3353V254.825H34.0103V223.775L74.8353 199.625H100.135V209.975H118.76V192.549H121.028V197.325H136.36V199.625L131.76 204.225Z" fill="#271406"/>
<path d="M322.085 120.85V120.35H321.585V120.85H322.085ZM322.085 134.65V135.15H322.585V134.65H322.085ZM379.585 120.85H380.085V120.35H379.585V120.85ZM379.585 161.405V161.905H380.085V161.405H379.585ZM377.581 161.405V160.905H377.081V161.405H377.581ZM377.581 171.218V171.718H378.081V171.218H377.581ZM363.485 171.218V170.718H362.985V171.218H363.485ZM363.485 198.818H362.985V199.318H363.485V198.818ZM366.36 198.818H366.86V198.318H366.36V198.818ZM366.36 233.241H365.86V233.741H366.36V233.241ZM385.011 233.241H385.511V232.741H385.011V233.241ZM385.011 275.875H384.511V276.375H385.011V275.875ZM393.69 275.875H394.19V275.375H393.69V275.875ZM393.69 326.125V326.625H394.19V326.125H393.69ZM323.235 326.125V325.625H322.735V326.125H323.235ZM323.235 343.95V344.45H323.735V343.95H323.235ZM273.785 343.95V343.45H273.285V343.95H273.785ZM273.785 371.55V372.05H274.285V371.55H273.785ZM220.885 371.55V371.05H220.385V371.55H220.885ZM220.885 408.35V408.85H221.385V408.35H220.885ZM204.785 408.35H204.285V408.85H204.785V408.35ZM204.785 407.2H205.285V406.7H204.785V407.2ZM178.91 407.2V406.7H178.41V407.2H178.91ZM178.91 425.6L179.247 425.969L179.41 425.821V425.6H178.91ZM146.135 455.5L145.839 455.903L146.169 456.146L146.472 455.869L146.135 455.5ZM124.285 439.4H123.785V439.653L123.989 439.803L124.285 439.4ZM124.285 407.2H124.785V406.7H124.285V407.2ZM100.135 407.2H99.6353V407.7H100.135V407.2ZM100.135 371.55H100.635V371.05H100.135V371.55ZM33.4353 371.55H32.9353V372.05H33.4353V371.55ZM33.4353 335.065H33.9353V334.565H33.4353V335.065ZM8.71033 335.065H8.21033V335.565H8.71033V335.065ZM8.71033 318.65H9.21033V318.15H8.71033V318.65ZM1.23532 318.65H0.735321V319.15H1.23532V318.65ZM1.23532 254.825V254.325H0.735321V254.825H1.23532ZM15.0353 254.825V255.325H15.5353V254.825H15.0353ZM15.0353 223.775H15.5353V223.275H15.0353V223.775ZM1.23532 223.775H0.735321V224.275H1.23532V223.775ZM1.23532 194.45V193.95H0.735321V194.45H1.23532ZM34.0103 194.45V194.95H34.1499L34.2693 194.878L34.0103 194.45ZM74.8353 169.725V169.225H74.6957L74.5763 169.297L74.8353 169.725ZM85.7603 169.725V170.225H86.2603V169.725H85.7603ZM85.7603 159.95V159.45H85.2603V159.95H85.7603ZM118.535 159.95H119.035V159.45H118.535V159.95ZM118.535 176.625H118.035V177.125H118.535V176.625ZM120.835 176.625V177.125H121.335V176.625H120.835ZM120.835 154.775V154.275H120.335V154.775H120.835ZM135.21 154.775V155.275H135.71V154.775H135.21ZM135.21 153.05H135.71V152.55H135.21V153.05ZM121.41 153.05H120.91V153.55H121.41V153.05ZM121.41 99.575V99.075H120.91V99.575H121.41ZM184.66 99.575V100.075H185.16V99.575H184.66ZM184.66 72.4315H185.16V71.9315H184.66V72.4315ZM159.723 72.4315H159.223V72.9315H159.723V72.4315ZM159.723 36.9L159.455 36.478L159.223 36.6253V36.9H159.723ZM188.685 18.5V18H188.54L188.417 18.078L188.685 18.5ZM234.685 18.5L234.984 18.0989L234.851 18H234.685V18.5ZM259.41 36.9H259.91V36.6488L259.709 36.4989L259.41 36.9ZM259.41 95.8307H258.91V96.3307H259.41V95.8307ZM330.135 95.8307H330.635V95.3307H330.135V95.8307ZM330.135 114.525V115.025H330.635V114.525H330.135ZM319.785 114.525V114.025H319.285V114.525H319.785ZM319.785 134.65H319.285V135.15H319.785V134.65ZM258.26 315.2H258.76V314.7H258.26V315.2ZM258.26 351.425V351.925H258.76V351.425H258.26ZM237.56 315.2H237.06V315.7H237.56V315.2ZM237.56 307.725H238.06V307.225H237.56V307.725ZM230.66 307.725V307.225H230.16V307.725H230.66ZM230.66 312.325L231.014 312.679L231.16 312.532V312.325H230.66ZM219.735 323.25V323.75H219.942L220.089 323.604L219.735 323.25ZM209.96 323.25V322.75H209.46V323.25H209.96ZM209.96 343.95V344.45H210.46V343.95H209.96ZM180.635 343.95H180.135V344.45H180.635V343.95ZM180.635 323.25H181.135V322.75H180.635V323.25ZM171.435 323.25L171.082 323.604L171.228 323.75H171.435V323.25ZM159.935 311.75H159.435V311.957L159.582 312.104L159.935 311.75ZM159.935 293.925H160.435V293.425H159.935V293.925ZM154.185 293.925V293.425H153.685V293.925H154.185ZM154.185 301.4V301.9H154.685V301.4H154.185ZM121.985 301.4V300.9H121.485V301.4H121.985ZM121.985 353.15H121.485V353.65H121.985V353.15ZM143.835 353.15H144.335V352.65H143.835V353.15ZM143.835 384.775H143.335V385.275H143.835V384.775ZM181.21 384.775V385.275H181.71V384.775H181.21ZM181.21 351.425V350.925H180.71V351.425H181.21ZM277.235 258.85V258.35H276.735V258.85H277.235ZM311.735 258.85H312.235V258.35H311.735V258.85ZM277.235 267.475V267.975H277.735V267.475H277.235ZM265.16 267.475V266.975H264.66V267.475H265.16ZM265.16 269.2H264.66V269.7H265.16V269.2ZM284.135 269.2H284.635V268.7H284.135V269.2ZM284.135 284.725V285.225H284.635V284.725H284.135ZM281.26 284.725V284.225H280.76V284.725H281.26ZM281.26 286.45H280.76V286.95H281.26V286.45ZM284.135 286.45H284.635V285.95H284.135V286.45ZM284.135 289.9H283.635V290.4H284.135V289.9ZM287.01 289.9H287.51V289.4H287.01V289.9ZM287.01 308.875V309.375H287.51V308.875H287.01ZM284.135 308.875V308.375H283.635V308.875H284.135ZM284.135 325.55H283.635V326.05H284.135V325.55ZM301.257 325.55V326.05H301.757V325.55H301.257ZM301.257 276.1V275.6H300.757V276.1H301.257ZM311.735 276.1V276.6H312.235V276.1H311.735ZM100.135 340.5H100.635V340H100.135V340.5ZM100.135 353.15V353.65H100.635V353.15H100.135ZM75.9853 340.5V340H75.4853V340.5H75.9853ZM75.9853 346.825V347.325H76.4853V346.825H75.9853ZM54.7103 346.825H54.2103V347.325H54.7103V346.825ZM54.7103 318.65H55.2103V318.15H54.7103V318.65ZM47.8103 318.65V318.15H47.3103V318.65H47.8103ZM47.8103 353.15H47.3103V353.65H47.8103V353.15ZM166.835 133.5H167.335V133H166.835V133.5ZM166.835 135.225V135.725H167.335V135.225H166.835ZM161.085 133.5V133H160.585V133.5H161.085ZM161.085 142.7L161.429 143.063L161.585 142.915V142.7H161.085ZM150.16 153.05V153.55H150.36L150.504 153.413L150.16 153.05ZM146.71 153.05V152.55H146.21V153.05H146.71ZM146.71 154.775H146.21V155.275H146.71V154.775ZM159.935 154.775H160.435V154.275H159.935V154.775ZM159.935 197.325V197.825H160.435V197.325H159.935ZM147.285 197.325V196.825H146.785V197.325H147.285ZM147.285 199.05H146.785V199.55H147.285V199.05ZM150.16 199.05H150.66V198.55H150.16V199.05ZM150.16 233.55H149.66V234.05H150.16V233.55ZM153.61 233.55H154.11V233.05H153.61V233.55ZM153.61 237.575H153.11V238.075H153.61V237.575ZM157.06 237.575H157.56V237.075H157.06V237.575ZM157.06 262.875V263.375H157.56V262.875H157.06ZM121.41 262.875H120.91V263.375H121.41V262.875ZM121.41 251.95H121.91V251.45H121.41V251.95ZM117.96 251.95V251.45H117.46V251.95H117.96ZM117.96 262.875V263.375H118.46V262.875H117.96ZM103.585 262.875H103.085V263.375H103.585V262.875ZM103.585 255.4H104.085V254.9H103.585V255.4ZM75.9854 255.4V254.9H75.4854V255.4H75.9854ZM75.9854 261.725H75.4854V262.225H75.9854V261.725ZM93.8103 261.725H94.3103V261.225H93.8103V261.725ZM93.8103 311.75V312.25H94.3103V311.75H93.8103ZM75.9854 311.75V311.25H75.4854V311.75H75.9854ZM75.9854 325.417H75.4854V325.917H75.9854V325.417ZM100.049 325.417V325.917H100.549V325.417H100.049ZM100.049 272.804L100.053 272.304L99.5493 272.3V272.804H100.049ZM154.185 273.225H154.685V272.729L154.189 272.725L154.185 273.225ZM154.185 279.55H153.685V280.05H154.185V279.55ZM159.935 279.55V280.05H160.435V279.55H159.935ZM159.935 251.631V251.131H159.435V251.631H159.935ZM191.919 251.631V252.131H192.419V251.631H191.919ZM191.919 248.5H192.419V248H191.919V248.5ZM181.21 248.5H180.71V249H181.21V248.5ZM181.21 199.509H181.71V199.009H181.21V199.509ZM163.76 199.509H163.26V200.009H163.76V199.509ZM163.76 166.85V166.35H163.26V166.85H163.76ZM188.11 166.85V167.35H188.61V166.85H188.11ZM188.11 165.125H188.61V164.625H188.11V165.125ZM163.76 165.125H163.26V165.625H163.76V165.125ZM163.76 135.225V134.725H163.26V135.225H163.76ZM244.46 286.45V285.95H243.96V286.45H244.46ZM272.635 286.45V286.95H273.135V286.45H272.635ZM244.46 291.625V292.125H244.96V291.625H244.46ZM237.56 291.625V291.125H237.06V291.625H237.56ZM237.56 293.247V293.747H238.06V293.247H237.56ZM231.235 293.247H230.735V293.747H231.235V293.247ZM231.235 251.95H231.735V251.45H231.235V251.95ZM207.085 251.95H206.585V252.45H207.085V251.95ZM207.085 248.5V248H206.585V248.5H207.085ZM231.235 248.5V249H231.735V248.5H231.235ZM231.235 226.65H231.735V226.15H231.235V226.65ZM217.435 226.65H216.935V227.15H217.435V226.65ZM217.435 199.05V198.55H216.935V199.05H217.435ZM237.56 199.05H238.06V198.55H237.56V199.05ZM237.56 212.85H237.06V213.35H237.56V212.85ZM247.91 212.85H248.41V212.35H247.91V212.85ZM247.91 215.725V216.225H248.41V215.725H247.91ZM237.56 215.725V215.225H237.06V215.725H237.56ZM237.56 267.475H237.06V267.975H237.56V267.475ZM249.635 267.475H250.135V266.975H249.635V267.475ZM249.635 269.2V269.7H250.135V269.2H249.635ZM237.56 269.2V268.7H237.06V269.2H237.56ZM237.56 284.725H237.06V285.225H237.56V284.725ZM272.635 284.725H273.135V284.225H272.635V284.725ZM346.81 160.525H347.31V160.025H346.81V160.525ZM346.81 177.2V177.7H347.31V177.2H346.81ZM328.985 160.525H328.485V161.025H328.985V160.525ZM328.985 153.05H329.485V152.55H328.985V153.05ZM322.085 153.05H321.585V153.55H322.085V153.05ZM322.085 149.6H322.585V149.1H322.085V149.6ZM319.785 149.6V149.1H319.285V149.6H319.785ZM319.785 160.525V161.025H320.285V160.525H319.785ZM286.435 160.525H285.935V161.025H286.435V160.525ZM286.435 121.425H286.935V120.925H286.435V121.425ZM259.41 121.425V120.925H258.91V121.425H259.41ZM259.41 135.8V136.3H259.91V135.8H259.41ZM243.885 135.8V135.3H243.385V135.8H243.885ZM243.885 137.812H243.385V138.312H243.885V137.812ZM277.235 137.812H277.735V137.312H277.235V137.812ZM277.235 212.85V213.35H277.735V212.85H277.235ZM266.885 212.85V212.35H266.385V212.85H266.885ZM266.885 215.725H266.385V216.225H266.885V215.725ZM277.235 215.725H277.735V215.225H277.235V215.725ZM277.235 245.05H276.735V245.55H277.235V245.05ZM311.735 245.05V245.55H312.235V245.05H311.735ZM311.735 233.55V233.05H311.235V233.55H311.735ZM346.81 233.55V234.05H347.31V233.55H346.81ZM346.81 203.075H347.31V202.575H346.81V203.075ZM328.985 203.075H328.485V203.575H328.985V203.075ZM328.985 177.2V176.7H328.485V177.2H328.985ZM234.11 166.85V167.35H234.61V166.85H234.11ZM234.11 160.525H234.61V160.025H234.11V160.525ZM209.385 166.85H208.885V167.35H209.385V166.85ZM209.385 165.125V164.625H208.885V165.125H209.385ZM220.885 165.125V165.625H221.385V165.125H220.885ZM220.885 149.025H221.385V148.523L220.883 148.525L220.885 149.025ZM179.17 149.205H178.67V149.708L179.172 149.705L179.17 149.205ZM179.17 135.381H179.67V134.881H179.17V135.381ZM175.739 135.381H175.239V135.881H175.739V135.381ZM175.739 133.816V133.316H175.239V133.816H175.739ZM185.235 133.816V134.316H185.735V133.816H185.235ZM185.235 122L185.232 121.5L184.735 121.504V122H185.235ZM212.598 121.797H213.098V121.293L212.594 121.297L212.598 121.797ZM212.598 135.581H212.098V136.081H212.598V135.581ZM226.635 135.581H227.135V135.081H226.635V135.581ZM226.635 160.525H226.135V161.025H226.635V160.525ZM245.035 103.394V103.894H245.535V103.394H245.035ZM245.035 71.975H245.535V71.475H245.035V71.975ZM197.885 103.394H197.385V103.894H197.885V103.394ZM197.885 71.975V71.475H197.385V71.975H197.885ZM131.76 234.125V234.625H132.26V234.125H131.76ZM131.76 204.225L131.407 203.871L131.26 204.018V204.225H131.76ZM121.41 234.125V233.625H120.91V234.125H121.41ZM121.41 244.475V244.975H121.91V244.475H121.41ZM118.535 244.475H118.035V244.975H118.535V244.475ZM118.535 238.725H119.035V238.225H118.535V238.725ZM103.585 238.725V238.225H103.085V238.725H103.585ZM103.585 240.733V241.233H104.085V240.733H103.585ZM69.6603 240.733H69.1603V241.233H69.6603V240.733ZM69.6603 226.41H70.1603V225.91H69.6603V226.41ZM40.3353 226.41V225.91H39.8353V226.41H40.3353ZM40.3353 254.825V255.325H40.8353V254.825H40.3353ZM34.0103 254.825H33.5103V255.325H34.0103V254.825ZM34.0103 223.775L33.7558 223.345L33.5103 223.49V223.775H34.0103ZM74.8353 199.625V199.125H74.6985L74.5807 199.195L74.8353 199.625ZM100.135 199.625H100.635V199.125H100.135V199.625ZM100.135 209.975H99.6353V210.475H100.135V209.975ZM118.76 209.975V210.475H119.26V209.975H118.76ZM118.76 192.549V192.049H118.26V192.549H118.76ZM121.028 192.549H121.528V192.049H121.028V192.549ZM121.028 197.325H120.528V197.825H121.028V197.325ZM136.36 197.325H136.86V196.825H136.36V197.325ZM136.36 199.625L136.714 199.979L136.86 199.832V199.625H136.36ZM322.085 120.85H321.585V134.65H322.085H322.585V120.85H322.085ZM379.585 120.85V120.35H322.085V120.85V121.35H379.585V120.85ZM379.585 161.405H380.085V120.85H379.585H379.085V161.405H379.585ZM377.581 161.405V161.905H379.585V161.405V160.905H377.581V161.405ZM377.581 171.218H378.081V161.405H377.581H377.081V171.218H377.581ZM363.485 171.218V171.718H377.581V171.218V170.718H363.485V171.218ZM363.485 198.818H363.985V171.218H363.485H362.985V198.818H363.485ZM366.36 198.818V198.318H363.485V198.818V199.318H366.36V198.818ZM366.36 233.241H366.86V198.818H366.36H365.86V233.241H366.36ZM385.011 233.241V232.741H366.36V233.241V233.741H385.011V233.241ZM385.011 275.875H385.511V233.241H385.011H384.511V275.875H385.011ZM393.69 275.875V275.375H385.011V275.875V276.375H393.69V275.875ZM393.69 326.125H394.19V275.875H393.69H393.19V326.125H393.69ZM323.235 326.125V326.625H393.69V326.125V325.625H323.235V326.125ZM323.235 343.95H323.735V326.125H323.235H322.735V343.95H323.235ZM273.785 343.95V344.45H323.235V343.95V343.45H273.785V343.95ZM273.785 371.55H274.285V343.95H273.785H273.285V371.55H273.785ZM220.885 371.55V372.05H273.785V371.55V371.05H220.885V371.55ZM220.885 408.35H221.385V371.55H220.885H220.385V408.35H220.885ZM204.785 408.35V408.85H220.885V408.35V407.85H204.785V408.35ZM204.785 407.2H204.285V408.35H204.785H205.285V407.2H204.785ZM178.91 407.2V407.7H204.785V407.2V406.7H178.91V407.2ZM178.91 425.6H179.41V407.2H178.91H178.41V425.6H178.91ZM146.135 455.5L146.472 455.869L179.247 425.969L178.91 425.6L178.573 425.231L145.798 455.131L146.135 455.5ZM124.285 439.4L123.989 439.803L145.839 455.903L146.135 455.5L146.432 455.097L124.582 438.997L124.285 439.4ZM124.285 407.2H123.785V439.4H124.285H124.785V407.2H124.285ZM100.135 407.2V407.7H124.285V407.2V406.7H100.135V407.2ZM100.135 371.55H99.6353V407.2H100.135H100.635V371.55H100.135ZM33.4353 371.55V372.05H100.135V371.55V371.05H33.4353V371.55ZM33.4353 335.065H32.9353V371.55H33.4353H33.9353V335.065H33.4353ZM8.71033 335.065V335.565H33.4353V335.065V334.565H8.71033V335.065ZM8.71033 318.65H8.21033V335.065H8.71033H9.21033V318.65H8.71033ZM1.23532 318.65V319.15H8.71033V318.65V318.15H1.23532V318.65ZM1.23532 254.825H0.735321V318.65H1.23532H1.73532V254.825H1.23532ZM15.0353 254.825V254.325H1.23532V254.825V255.325H15.0353V254.825ZM15.0353 223.775H14.5353V254.825H15.0353H15.5353V223.775H15.0353ZM1.23532 223.775V224.275H15.0353V223.775V223.275H1.23532V223.775ZM1.23532 194.45H0.735321V223.775H1.23532H1.73532V194.45H1.23532ZM34.0103 194.45V193.95H1.23532V194.45V194.95H34.0103V194.45ZM74.8353 169.725L74.5763 169.297L33.7513 194.022L34.0103 194.45L34.2693 194.878L75.0943 170.153L74.8353 169.725ZM85.7603 169.725V169.225H74.8353V169.725V170.225H85.7603V169.725ZM85.7603 159.95H85.2603V169.725H85.7603H86.2603V159.95H85.7603ZM118.535 159.95V159.45H85.7603V159.95V160.45H118.535V159.95ZM118.535 176.625H119.035V159.95H118.535H118.035V176.625H118.535ZM120.835 176.625V176.125H118.535V176.625V177.125H120.835V176.625ZM120.835 154.775H120.335V176.625H120.835H121.335V154.775H120.835ZM135.21 154.775V154.275H120.835V154.775V155.275H135.21V154.775ZM135.21 153.05H134.71V154.775H135.21H135.71V153.05H135.21ZM121.41 153.05V153.55H135.21V153.05V152.55H121.41V153.05ZM121.41 99.575H120.91V153.05H121.41H121.91V99.575H121.41ZM184.66 99.575V99.075H121.41V99.575V100.075H184.66V99.575ZM184.66 72.4315H184.16V99.575H184.66H185.16V72.4315H184.66ZM159.723 72.4315V72.9315H184.66V72.4315V71.9315H159.723V72.4315ZM159.723 36.9H159.223V72.4315H159.723H160.223V36.9H159.723ZM188.685 18.5L188.417 18.078L159.455 36.478L159.723 36.9L159.991 37.322L188.953 18.922L188.685 18.5ZM234.685 18.5V18H188.685V18.5V19H234.685V18.5ZM259.41 36.9L259.709 36.4989L234.984 18.0989L234.685 18.5L234.387 18.9011L259.112 37.3011L259.41 36.9ZM259.41 95.8307H259.91V36.9H259.41H258.91V95.8307H259.41ZM330.135 95.8307V95.3307H259.41V95.8307V96.3307H330.135V95.8307ZM330.135 114.525H330.635V95.8307H330.135H329.635V114.525H330.135ZM319.785 114.525V115.025H330.135V114.525V114.025H319.785V114.525ZM319.785 134.65H320.285V114.525H319.785H319.285V134.65H319.785ZM322.085 134.65V134.15H319.785V134.65V135.15H322.085V134.65ZM258.26 315.2H257.76V351.425H258.26H258.76V315.2H258.26ZM237.56 315.2V315.7H258.26V315.2V314.7H237.56V315.2ZM237.56 307.725H237.06V315.2H237.56H238.06V307.725H237.56ZM230.66 307.725V308.225H237.56V307.725V307.225H230.66V307.725ZM230.66 312.325H231.16V307.725H230.66H230.16V312.325H230.66ZM219.735 323.25L220.089 323.604L231.014 312.679L230.66 312.325L230.307 311.971L219.382 322.896L219.735 323.25ZM209.96 323.25V323.75H219.735V323.25V322.75H209.96V323.25ZM209.96 343.95H210.46V323.25H209.96H209.46V343.95H209.96ZM180.635 343.95V344.45H209.96V343.95V343.45H180.635V343.95ZM180.635 323.25H180.135V343.95H180.635H181.135V323.25H180.635ZM171.435 323.25V323.75H180.635V323.25V322.75H171.435V323.25ZM159.935 311.75L159.582 312.104L171.082 323.604L171.435 323.25L171.789 322.896L160.289 311.396L159.935 311.75ZM159.935 293.925H159.435V311.75H159.935H160.435V293.925H159.935ZM154.185 293.925V294.425H159.935V293.925V293.425H154.185V293.925ZM154.185 301.4H154.685V293.925H154.185H153.685V301.4H154.185ZM121.985 301.4V301.9H154.185V301.4V300.9H121.985V301.4ZM121.985 353.15H122.485V301.4H121.985H121.485V353.15H121.985ZM143.835 353.15V352.65H121.985V353.15V353.65H143.835V353.15ZM143.835 384.775H144.335V353.15H143.835H143.335V384.775H143.835ZM181.21 384.775V384.275H143.835V384.775V385.275H181.21V384.775ZM181.21 351.425H180.71V384.775H181.21H181.71V351.425H181.21ZM258.26 351.425V350.925H181.21V351.425V351.925H258.26V351.425ZM277.235 258.85V259.35H311.735V258.85V258.35H277.235V258.85ZM277.235 267.475H277.735V258.85H277.235H276.735V267.475H277.235ZM265.16 267.475V267.975H277.235V267.475V266.975H265.16V267.475ZM265.16 269.2H265.66V267.475H265.16H264.66V269.2H265.16ZM284.135 269.2V268.7H265.16V269.2V269.7H284.135V269.2ZM284.135 284.725H284.635V269.2H284.135H283.635V284.725H284.135ZM281.26 284.725V285.225H284.135V284.725V284.225H281.26V284.725ZM281.26 286.45H281.76V284.725H281.26H280.76V286.45H281.26ZM284.135 286.45V285.95H281.26V286.45V286.95H284.135V286.45ZM284.135 289.9H284.635V286.45H284.135H283.635V289.9H284.135ZM287.01 289.9V289.4H284.135V289.9V290.4H287.01V289.9ZM287.01 308.875H287.51V289.9H287.01H286.51V308.875H287.01ZM284.135 308.875V309.375H287.01V308.875V308.375H284.135V308.875ZM284.135 325.55H284.635V308.875H284.135H283.635V325.55H284.135ZM301.257 325.55V325.05H284.135V325.55V326.05H301.257V325.55ZM301.257 276.1H300.757V325.55H301.257H301.757V276.1H301.257ZM311.735 276.1V275.6H301.257V276.1V276.6H311.735V276.1ZM311.735 258.85H311.235V276.1H311.735H312.235V258.85H311.735ZM100.135 340.5H99.6353V353.15H100.135H100.635V340.5H100.135ZM75.9853 340.5V341H100.135V340.5V340H75.9853V340.5ZM75.9853 346.825H76.4853V340.5H75.9853H75.4853V346.825H75.9853ZM54.7103 346.825V347.325H75.9853V346.825V346.325H54.7103V346.825ZM54.7103 318.65H54.2103V346.825H54.7103H55.2103V318.65H54.7103ZM47.8103 318.65V319.15H54.7103V318.65V318.15H47.8103V318.65ZM47.8103 353.15H48.3103V318.65H47.8103H47.3103V353.15H47.8103ZM100.135 353.15V352.65H47.8103V353.15V353.65H100.135V353.15ZM166.835 133.5H166.335V135.225H166.835H167.335V133.5H166.835ZM161.085 133.5V134H166.835V133.5V133H161.085V133.5ZM161.085 142.7H161.585V133.5H161.085H160.585V142.7H161.085ZM150.16 153.05L150.504 153.413L161.429 143.063L161.085 142.7L160.741 142.337L149.816 152.687L150.16 153.05ZM146.71 153.05V153.55H150.16V153.05V152.55H146.71V153.05ZM146.71 154.775H147.21V153.05H146.71H146.21V154.775H146.71ZM159.935 154.775V154.275H146.71V154.775V155.275H159.935V154.775ZM159.935 197.325H160.435V154.775H159.935H159.435V197.325H159.935ZM147.285 197.325V197.825H159.935V197.325V196.825H147.285V197.325ZM147.285 199.05H147.785V197.325H147.285H146.785V199.05H147.285ZM150.16 199.05V198.55H147.285V199.05V199.55H150.16V199.05ZM150.16 233.55H150.66V199.05H150.16H149.66V233.55H150.16ZM153.61 233.55V233.05H150.16V233.55V234.05H153.61V233.55ZM153.61 237.575H154.11V233.55H153.61H153.11V237.575H153.61ZM157.06 237.575V237.075H153.61V237.575V238.075H157.06V237.575ZM157.06 262.875H157.56V237.575H157.06H156.56V262.875H157.06ZM121.41 262.875V263.375H157.06V262.875V262.375H121.41V262.875ZM121.41 251.95H120.91V262.875H121.41H121.91V251.95H121.41ZM117.96 251.95V252.45H121.41V251.95V251.45H117.96V251.95ZM117.96 262.875H118.46V251.95H117.96H117.46V262.875H117.96ZM103.585 262.875V263.375H117.96V262.875V262.375H103.585V262.875ZM103.585 255.4H103.085V262.875H103.585H104.085V255.4H103.585ZM75.9854 255.4V255.9H103.585V255.4V254.9H75.9854V255.4ZM75.9854 261.725H76.4854V255.4H75.9854H75.4854V261.725H75.9854ZM93.8103 261.725V261.225H75.9854V261.725V262.225H93.8103V261.725ZM93.8103 311.75H94.3103V261.725H93.8103H93.3103V311.75H93.8103ZM75.9854 311.75V312.25H93.8103V311.75V311.25H75.9854V311.75ZM75.9854 325.417H76.4854V311.75H75.9854H75.4854V325.417H75.9854ZM100.049 325.417V324.917H75.9854V325.417V325.917H100.049V325.417ZM100.049 272.804H99.5493V325.417H100.049H100.549V272.804H100.049ZM154.185 273.225L154.189 272.725L100.053 272.304L100.049 272.804L100.045 273.304L154.181 273.725L154.185 273.225ZM154.185 279.55H154.685V273.225H154.185H153.685V279.55H154.185ZM159.935 279.55V279.05H154.185V279.55V280.05H159.935V279.55ZM159.935 251.631H159.435V279.55H159.935H160.435V251.631H159.935ZM191.919 251.631V251.131H159.935V251.631V252.131H191.919V251.631ZM191.919 248.5H191.419V251.631H191.919H192.419V248.5H191.919ZM181.21 248.5V249H191.919V248.5V248H181.21V248.5ZM181.21 199.509H180.71V248.5H181.21H181.71V199.509H181.21ZM163.76 199.509V200.009H181.21V199.509V199.009H163.76V199.509ZM163.76 166.85H163.26V199.509H163.76H164.26V166.85H163.76ZM188.11 166.85V166.35H163.76V166.85V167.35H188.11V166.85ZM188.11 165.125H187.61V166.85H188.11H188.61V165.125H188.11ZM163.76 165.125V165.625H188.11V165.125V164.625H163.76V165.125ZM163.76 135.225H163.26V165.125H163.76H164.26V135.225H163.76ZM166.835 135.225V134.725H163.76V135.225V135.725H166.835V135.225ZM244.46 286.45V286.95H272.635V286.45V285.95H244.46V286.45ZM244.46 291.625H244.96V286.45H244.46H243.96V291.625H244.46ZM237.56 291.625V292.125H244.46V291.625V291.125H237.56V291.625ZM237.56 293.247H238.06V291.625H237.56H237.06V293.247H237.56ZM231.235 293.247V293.747H237.56V293.247V292.747H231.235V293.247ZM231.235 251.95H230.735V293.247H231.235H231.735V251.95H231.235ZM207.085 251.95V252.45H231.235V251.95V251.45H207.085V251.95ZM207.085 248.5H206.585V251.95H207.085H207.585V248.5H207.085ZM231.235 248.5V248H207.085V248.5V249H231.235V248.5ZM231.235 226.65H230.735V248.5H231.235H231.735V226.65H231.235ZM217.435 226.65V227.15H231.235V226.65V226.15H217.435V226.65ZM217.435 199.05H216.935V226.65H217.435H217.935V199.05H217.435ZM237.56 199.05V198.55H217.435V199.05V199.55H237.56V199.05ZM237.56 212.85H238.06V199.05H237.56H237.06V212.85H237.56ZM247.91 212.85V212.35H237.56V212.85V213.35H247.91V212.85ZM247.91 215.725H248.41V212.85H247.91H247.41V215.725H247.91ZM237.56 215.725V216.225H247.91V215.725V215.225H237.56V215.725ZM237.56 267.475H238.06V215.725H237.56H237.06V267.475H237.56ZM249.635 267.475V266.975H237.56V267.475V267.975H249.635V267.475ZM249.635 269.2H250.135V267.475H249.635H249.135V269.2H249.635ZM237.56 269.2V269.7H249.635V269.2V268.7H237.56V269.2ZM237.56 284.725H238.06V269.2H237.56H237.06V284.725H237.56ZM272.635 284.725V284.225H237.56V284.725V285.225H272.635V284.725ZM272.635 286.45H273.135V284.725H272.635H272.135V286.45H272.635ZM346.81 160.525H346.31V177.2H346.81H347.31V160.525H346.81ZM328.985 160.525V161.025H346.81V160.525V160.025H328.985V160.525ZM328.985 153.05H328.485V160.525H328.985H329.485V153.05H328.985ZM322.085 153.05V153.55H328.985V153.05V152.55H322.085V153.05ZM322.085 149.6H321.585V153.05H322.085H322.585V149.6H322.085ZM319.785 149.6V150.1H322.085V149.6V149.1H319.785V149.6ZM319.785 160.525H320.285V149.6H319.785H319.285V160.525H319.785ZM286.435 160.525V161.025H319.785V160.525V160.025H286.435V160.525ZM286.435 121.425H285.935V160.525H286.435H286.935V121.425H286.435ZM259.41 121.425V121.925H286.435V121.425V120.925H259.41V121.425ZM259.41 135.8H259.91V121.425H259.41H258.91V135.8H259.41ZM243.885 135.8V136.3H259.41V135.8V135.3H243.885V135.8ZM243.885 137.812H244.385V135.8H243.885H243.385V137.812H243.885ZM277.235 137.812V137.312H243.885V137.812V138.312H277.235V137.812ZM277.235 212.85H277.735V137.812H277.235H276.735V212.85H277.235ZM266.885 212.85V213.35H277.235V212.85V212.35H266.885V212.85ZM266.885 215.725H267.385V212.85H266.885H266.385V215.725H266.885ZM277.235 215.725V215.225H266.885V215.725V216.225H277.235V215.725ZM277.235 245.05H277.735V215.725H277.235H276.735V245.05H277.235ZM311.735 245.05V244.55H277.235V245.05V245.55H311.735V245.05ZM311.735 233.55H311.235V245.05H311.735H312.235V233.55H311.735ZM346.81 233.55V233.05H311.735V233.55V234.05H346.81V233.55ZM346.81 203.075H346.31V233.55H346.81H347.31V203.075H346.81ZM328.985 203.075V203.575H346.81V203.075V202.575H328.985V203.075ZM328.985 177.2H328.485V203.075H328.985H329.485V177.2H328.985ZM346.81 177.2V176.7H328.985V177.2V177.7H346.81V177.2ZM234.11 166.85H234.61V160.525H234.11H233.61V166.85H234.11ZM209.385 166.85V167.35H234.11V166.85V166.35H209.385V166.85ZM209.385 165.125H208.885V166.85H209.385H209.885V165.125H209.385ZM220.885 165.125V164.625H209.385V165.125V165.625H220.885V165.125ZM220.885 149.025H220.385V165.125H220.885H221.385V149.025H220.885ZM179.17 149.205L179.172 149.705L220.887 149.525L220.885 149.025L220.883 148.525L179.168 148.705L179.17 149.205ZM179.17 135.381H178.67V149.205H179.17H179.67V135.381H179.17ZM175.739 135.381V135.881H179.17V135.381V134.881H175.739V135.381ZM175.739 133.816H175.239V135.381H175.739H176.239V133.816H175.739ZM185.235 133.816V133.316H175.739V133.816V134.316H185.235V133.816ZM185.235 122H184.735V133.816H185.235H185.735V122H185.235ZM212.598 121.797L212.594 121.297L185.232 121.5L185.235 122L185.239 122.5L212.602 122.297L212.598 121.797ZM212.598 135.581H213.098V121.797H212.598H212.098V135.581H212.598ZM226.635 135.581V135.081H212.598V135.581V136.081H226.635V135.581ZM226.635 160.525H227.135V135.581H226.635H226.135V160.525H226.635ZM234.11 160.525V160.025H226.635V160.525V161.025H234.11V160.525ZM245.035 103.394H245.535V71.975H245.035H244.535V103.394H245.035ZM197.885 103.394V103.894H245.035V103.394V102.894H197.885V103.394ZM197.885 71.975H197.385V103.394H197.885H198.385V71.975H197.885ZM245.035 71.975V71.475H197.885V71.975V72.475H245.035V71.975ZM131.76 234.125H132.26V204.225H131.76H131.26V234.125H131.76ZM121.41 234.125V234.625H131.76V234.125V233.625H121.41V234.125ZM121.41 244.475H121.91V234.125H121.41H120.91V244.475H121.41ZM118.535 244.475V244.975H121.41V244.475V243.975H118.535V244.475ZM118.535 238.725H118.035V244.475H118.535H119.035V238.725H118.535ZM103.585 238.725V239.225H118.535V238.725V238.225H103.585V238.725ZM103.585 240.733H104.085V238.725H103.585H103.085V240.733H103.585ZM69.6603 240.733V241.233H103.585V240.733V240.233H69.6603V240.733ZM69.6603 226.41H69.1603V240.733H69.6603H70.1603V226.41H69.6603ZM40.3353 226.41V226.91H69.6603V226.41V225.91H40.3353V226.41ZM40.3353 254.825H40.8353V226.41H40.3353H39.8353V254.825H40.3353ZM34.0103 254.825V255.325H40.3353V254.825V254.325H34.0103V254.825ZM34.0103 223.775H33.5103V254.825H34.0103H34.5103V223.775H34.0103ZM74.8353 199.625L74.5807 199.195L33.7558 223.345L34.0103 223.775L34.2649 224.205L75.0899 200.055L74.8353 199.625ZM100.135 199.625V199.125H74.8353V199.625V200.125H100.135V199.625ZM100.135 209.975H100.635V199.625H100.135H99.6353V209.975H100.135ZM118.76 209.975V209.475H100.135V209.975V210.475H118.76V209.975ZM118.76 192.549H118.26V209.975H118.76H119.26V192.549H118.76ZM121.028 192.549V192.049H118.76V192.549V193.049H121.028V192.549ZM121.028 197.325H121.528V192.549H121.028H120.528V197.325H121.028ZM136.36 197.325V196.825H121.028V197.325V197.825H136.36V197.325ZM136.36 199.625H136.86V197.325H136.36H135.86V199.625H136.36ZM131.76 204.225L132.114 204.579L136.714 199.979L136.36 199.625L136.007 199.271L131.407 203.871L131.76 204.225Z" fill="#B27C40"/>
<circle cx="250.21" cy="134.075" r="1.65" transform="rotate(180 250.21 134.075)" stroke="#B27C40"/>
<path d="M208.811 166.85H188.686M188.686 165.125H208.811M209.385 166.85V174.325H188.11V166.85M212.015 166.85V177.2H184.97V166.85M209.96 339.925H180.635M301.385 289.9H308.285M308.285 289.9V276.1M308.285 289.9V297.375H301.385M384.76 276.1H372.11V297.375H389.935M393.385 297.375H389.935M389.935 297.375V303.7H393.385M346.81 203.075V184.675H339.91M266.31 214L258.835 216.875M247.91 214.575L255.96 211.7M265.16 269.2H249.06M266.885 267.475V260.575H247.91V267.475M128.885 153.05V107.625H157.06V99.5751M160.51 99.5751V111.075H132.335V153.05M85.7603 169.725H89.7853V166.85M89.7853 159.95V166.85M89.7853 166.85H91.5103V159.95M8.71026 318.65V313.475M1.23526 311.75H8.71026V313.475M1.23526 313.475H8.71026M28.8353 318.65H17.9103M269.185 181.225H266.31V177.775H269.76M265.16 267.475H249.635V262.875H265.16V267.475Z" stroke="#B27C40" stroke-width="0.5"/>
<path d="M121.985 316.35H118.535M121.985 310.025H115.085V316.35H118.535M118.535 316.35V319.8H121.985M60.4604 346.825V341.075H54.7104M75.9854 261.725H70.2354V256.55H75.9854M40.3354 249.075H47.8104V262.3H34.0104V255.4M47.8104 318.65H28.2604M18.4854 318.65H8.71036M39.7604 191L43.2104 197.325L37.4604 200.775L32.8604 194.45M237.56 238.725H245.035V232.975H237.56M277.235 184.675H269.76V177.775H277.235M58.1604 290.475L31.1354 297.95L28.8354 289.9L55.8604 282.425L58.1604 290.475Z" stroke="#B27C40"/>
<path d="M184.661 99.5751V106.475H178.336V99.5751M128.311 154.775V161.675H120.836M159.936 177.2H150.161V170.875H159.936M157.061 255.4H150.161V262.875M167.986 251.375V258.275H163.961M159.936 258.275H163.961M163.961 258.275V262.3H159.936M224.336 251.375V283H231.236M322.661 283V290.475H350.836V283H328.986M322.661 283V276.675H328.986V283M322.661 283H328.986M361.186 326.125V319.225H354.286V326.125M323.236 335.9H315.186V343.95M339.911 233.55V241.025H333.586V233.55M335.886 160.525L328.986 153.625M319.786 153.05H312.311V156.788M312.311 160.525V156.788M312.311 156.788H308.286V160.525M286.436 121.425V115.1H280.686V121.425M259.411 128.325H251.936V135.8M226.636 156.5H241.586V166.85H234.111M212.836 297.375V280.125H202.486V273.225H188.686V280.125H178.336V297.375H212.836ZM202.486 322.1V323.825H188.686V322.1H202.486Z" stroke="#B27C40"/>
<path d="M241.585 160.525H234.11M181.21 205.375H188.11V199.498H181.21" stroke="#B27C40"/>
<circle cx="240.435" cy="218.6" r="2.225" transform="rotate(180 240.435 218.6)" stroke="#B27C40"/>
<path d="M16.1853 318.65V334.75M42.6353 318.65V350.275H33.4353" stroke="#B27C40" stroke-opacity="0.23" stroke-width="0.5"/>
<path d="M361.76 318.075H353.71V325.55H323.81V276.1H323.811V291.05H351.411V282.425H329.561V276.1H393.109V276.32H372.111V297.375H389.655V304.003H393.109V325.55H361.76V318.075Z" fill="#F08234" fill-opacity="0.23"/>
<path d="M361.347 301.924H359.886C359.845 301.685 359.768 301.472 359.656 301.288C359.544 301.1 359.404 300.941 359.238 300.811C359.071 300.681 358.881 300.583 358.667 300.518C358.457 300.45 358.229 300.417 357.984 300.417C357.549 300.417 357.164 300.526 356.828 300.745C356.492 300.961 356.229 301.278 356.039 301.698C355.848 302.114 355.753 302.624 355.753 303.225C355.753 303.837 355.848 304.353 356.039 304.772C356.231 305.189 356.494 305.504 356.828 305.717C357.164 305.928 357.548 306.034 357.98 306.034C358.22 306.034 358.444 306.002 358.652 305.94C358.863 305.875 359.052 305.78 359.218 305.655C359.388 305.53 359.529 305.376 359.644 305.194C359.761 305.012 359.842 304.803 359.886 304.569L361.347 304.577C361.292 304.957 361.174 305.314 360.992 305.647C360.812 305.98 360.576 306.275 360.285 306.53C359.993 306.782 359.652 306.98 359.261 307.124C358.871 307.264 358.437 307.334 357.96 307.334C357.257 307.334 356.63 307.172 356.078 306.846C355.526 306.521 355.091 306.051 354.773 305.436C354.455 304.821 354.296 304.084 354.296 303.225C354.296 302.363 354.457 301.626 354.777 301.014C355.097 300.4 355.533 299.93 356.085 299.604C356.638 299.278 357.263 299.116 357.96 299.116C358.406 299.116 358.82 299.178 359.203 299.303C359.585 299.428 359.927 299.612 360.226 299.854C360.526 300.094 360.772 300.388 360.964 300.737C361.16 301.083 361.287 301.479 361.347 301.924Z" fill="white"/>
<path d="M170.86 265.175H220.311V308.875H170.86V265.175ZM213.41 280.125H201.91V273.225H189.261V280.125H178.91V297.375H213.41V280.125Z" fill="#F08234" fill-opacity="0.23"/>
<path d="M191.2 289.975V281.975H194.262C194.84 281.975 195.321 282.066 195.704 282.248C196.089 282.428 196.377 282.674 196.567 282.987C196.76 283.299 196.856 283.653 196.856 284.049C196.856 284.375 196.793 284.653 196.668 284.885C196.543 285.114 196.375 285.3 196.165 285.444C195.954 285.587 195.718 285.69 195.458 285.752V285.83C195.741 285.846 196.014 285.933 196.274 286.092C196.537 286.248 196.752 286.47 196.918 286.756C197.085 287.043 197.168 287.389 197.168 287.795C197.168 288.209 197.068 288.582 196.868 288.912C196.667 289.241 196.365 289.5 195.961 289.69C195.558 289.88 195.05 289.975 194.438 289.975H191.2ZM192.649 288.764H194.208C194.734 288.764 195.112 288.664 195.344 288.463C195.579 288.26 195.696 288 195.696 287.682C195.696 287.445 195.637 287.231 195.52 287.041C195.403 286.849 195.236 286.698 195.02 286.588C194.804 286.476 194.546 286.42 194.247 286.42H192.649V288.764ZM192.649 285.377H194.083C194.333 285.377 194.558 285.332 194.758 285.241C194.959 285.147 195.116 285.015 195.231 284.846C195.348 284.674 195.407 284.471 195.407 284.237C195.407 283.927 195.297 283.672 195.079 283.471C194.862 283.271 194.541 283.17 194.114 283.17H192.649V285.377Z" fill="white"/>
<path d="M8.97803 311.473H1.81006V318.075H1.77783L1.80322 275.238H52.979L52.9751 283.287L52.8101 282.697L28.2554 289.537L30.772 298.571L52.9692 292.387L52.9536 318.075H8.97803V311.473Z" fill="#F08234" fill-opacity="0.23"/>
<path d="M21.8437 304.925H23.3906L20.5742 296.925H18.7852L15.9648 304.925H17.5117L19.6484 298.566H19.7109L21.8437 304.925ZM21.793 301.788H17.5742V302.952H21.793V301.788Z" fill="white"/>
</svg>
