<svg width="395" height="474" viewBox="0 0 395 474" fill="none" xmlns="http://www.w3.org/2000/svg">
<path d="M373.565 136.375H378.74V139.25H361.49V123.725H373.565V136.375Z" fill="#271406" fill-opacity="0.9" stroke="#B27C40" stroke-opacity="0.23" stroke-width="0.5"/>
<path fill-rule="evenodd" clip-rule="evenodd" d="M72.8399 339.35V353.15H15.3399V312.595H17.3442V302.782H31.4399V275.182H28.5649V240.759H9.91384V198.125H1.23511V147.875H71.6897V130.05H121.14V102.45H174.04V65.65H190.14V66.8H216.015V48.4L248.79 18.5L270.64 34.6V66.8H294.79V102.45H361.49V138.935H386.215V155.35H393.69V219.175H379.89V250.225H393.69V279.55H360.915L320.09 304.275H309.165V314.05H276.39V297.375H274.09V319.225H259.715V320.95H273.515V374.425H210.265V401.568H235.202V437.1L206.24 455.5H160.24L135.515 437.1V378.169H64.7897V359.475H75.1397V339.35H72.8399ZM136.665 122.575V158.8H157.365V166.275H164.265V161.675L175.19 150.75H184.965V130.05H214.29V150.75H223.49L234.99 162.25V180.075H240.74V172.6H272.94V120.85H251.09V89.225H213.715V122.575H136.665ZM83.1897 215.15H117.69V206.525H129.765V204.8H110.79V189.275H113.665V187.55H110.79V184.1H107.915V165.125H110.79V148.45H93.6676V197.9H83.1897V215.15ZM294.79 120.85V133.5H318.94V127.175H340.215V155.35H347.115V120.85H294.79ZM228.09 338.775V340.5H233.84V331.3L244.765 320.95H248.215V319.225H234.99V276.675H247.64V274.95H244.765V240.45H241.315V236.425H237.865V211.125H273.515V222.05H276.965V211.125H291.34V218.6H318.94V212.275H301.115V162.25H318.94V148.583H294.876V201.196L240.74 200.775V194.45H234.99V222.369H203.006V225.5H213.715V274.491H231.165V307.15H206.815V308.875H231.165V338.775H228.09ZM122.29 187.55H150.465V182.375H157.365V180.753H163.69V222.05H187.84V225.5H163.69V247.35H177.49V274.95H157.365V261.15H147.015V258.275H157.365V206.525H145.29V204.8H157.365V189.275H122.29V187.55ZM48.1147 296.8V313.475H65.9397V320.95H72.8397V324.4H75.1397V313.475H108.49V352.575H135.515V338.2H151.04V336.188H117.69V261.15H128.04V258.275H117.69V228.95H83.1897V240.45H48.1147V270.925H65.9397V296.8H48.1147ZM160.815 313.475V307.15H185.54V308.875H174.04V324.975L215.755 324.795V338.619H219.186V340.184H209.69V352L182.327 352.203V338.419H168.29V313.475H160.815ZM149.89 402.025V370.606H197.04V402.025H149.89ZM263.165 269.775V239.875H273.515V229.525H276.39V235.275H291.34V233.267H325.265V247.59H354.59V219.175H360.915V250.225L320.09 274.375H294.79V264.025H276.165V281.451H273.897V276.675H258.565V274.375L263.165 269.775Z" fill="#271406"/>
<path d="M72.8399 353.15V353.65H73.3399V353.15H72.8399ZM72.8399 339.35V338.85H72.3399V339.35H72.8399ZM15.3399 353.15H14.8399V353.65H15.3399V353.15ZM15.3399 312.595V312.095H14.8399V312.595H15.3399ZM17.3442 312.595V313.095H17.8442V312.595H17.3442ZM17.3442 302.782V302.282H16.8442V302.782H17.3442ZM31.4399 302.782V303.282H31.9399V302.782H31.4399ZM31.4399 275.182H31.9399V274.682H31.4399V275.182ZM28.5649 275.182H28.0649V275.682H28.5649V275.182ZM28.5649 240.759H29.0649V240.259H28.5649V240.759ZM9.91384 240.759H9.41384V241.259H9.91384V240.759ZM9.91384 198.125H10.4138V197.625H9.91384V198.125ZM1.23511 198.125H0.735107V198.625H1.23511V198.125ZM1.23511 147.875V147.375H0.735107V147.875H1.23511ZM71.6897 147.875V148.375H72.1897V147.875H71.6897ZM71.6897 130.05V129.55H71.1897V130.05H71.6897ZM121.14 130.05V130.55H121.64V130.05H121.14ZM121.14 102.45V101.95H120.64V102.45H121.14ZM174.04 102.45V102.95H174.54V102.45H174.04ZM174.04 65.65V65.15H173.54V65.65H174.04ZM190.14 65.65H190.64V65.15H190.14V65.65ZM190.14 66.8H189.64V67.3H190.14V66.8ZM216.015 66.8V67.3H216.515V66.8H216.015ZM216.015 48.4L215.678 48.0306L215.515 48.1793V48.4H216.015ZM248.79 18.5L249.086 18.0975L248.756 17.854L248.453 18.1306L248.79 18.5ZM270.64 34.6H271.14V34.3473L270.936 34.1975L270.64 34.6ZM270.64 66.8H270.14V67.3H270.64V66.8ZM294.79 66.8H295.29V66.3H294.79V66.8ZM294.79 102.45H294.29V102.95H294.79V102.45ZM361.49 102.45H361.99V101.95H361.49V102.45ZM361.49 138.935H360.99V139.435H361.49V138.935ZM386.215 138.935H386.715V138.435H386.215V138.935ZM386.215 155.35H385.715V155.85H386.215V155.35ZM393.69 155.35H394.19V154.85H393.69V155.35ZM393.69 219.175V219.675H394.19V219.175H393.69ZM379.89 219.175V218.675H379.39V219.175H379.89ZM379.89 250.225H379.39V250.725H379.89V250.225ZM393.69 250.225H394.19V249.725H393.69V250.225ZM393.69 279.55V280.05H394.19V279.55H393.69ZM360.915 279.55V279.05H360.775L360.656 279.122L360.915 279.55ZM320.09 304.275V304.775H320.229L320.349 304.703L320.09 304.275ZM309.165 304.275V303.775H308.665V304.275H309.165ZM309.165 314.05V314.55H309.665V314.05H309.165ZM276.39 314.05H275.89V314.55H276.39V314.05ZM276.39 297.375H276.89V296.875H276.39V297.375ZM274.09 297.375V296.875H273.59V297.375H274.09ZM274.09 319.225V319.725H274.59V319.225H274.09ZM259.715 319.225V318.725H259.215V319.225H259.715ZM259.715 320.95H259.215V321.45H259.715V320.95ZM273.515 320.95H274.015V320.45H273.515V320.95ZM273.515 374.425V374.925H274.015V374.425H273.515ZM210.265 374.425V373.925H209.765V374.425H210.265ZM210.265 401.568H209.765V402.068H210.265V401.568ZM235.202 401.568H235.702V401.068H235.202V401.568ZM235.202 437.1L235.47 437.522L235.702 437.375V437.1H235.202ZM206.24 455.5V456H206.385L206.508 455.922L206.24 455.5ZM160.24 455.5L159.941 455.901L160.074 456H160.24V455.5ZM135.515 437.1H135.015V437.351L135.216 437.501L135.515 437.1ZM135.515 378.169H136.015V377.669H135.515V378.169ZM64.7897 378.169H64.2897V378.669H64.7897V378.169ZM64.7897 359.475V358.975H64.2897V359.475H64.7897ZM75.1397 359.475V359.975H75.6397V359.475H75.1397ZM75.1397 339.35H75.6397V338.85H75.1397V339.35ZM136.665 158.8H136.165V159.3H136.665V158.8ZM136.665 122.575V122.075H136.165V122.575H136.665ZM157.365 158.8H157.865V158.3H157.365V158.8ZM157.365 166.275H156.865V166.775H157.365V166.275ZM164.265 166.275V166.775H164.765V166.275H164.265ZM164.265 161.675L163.911 161.321L163.765 161.468V161.675H164.265ZM175.19 150.75V150.25H174.983L174.836 150.396L175.19 150.75ZM184.965 150.75V151.25H185.465V150.75H184.965ZM184.965 130.05V129.55H184.465V130.05H184.965ZM214.29 130.05H214.79V129.55H214.29V130.05ZM214.29 150.75H213.79V151.25H214.29V150.75ZM223.49 150.75L223.843 150.396L223.697 150.25H223.49V150.75ZM234.99 162.25H235.49V162.043L235.343 161.896L234.99 162.25ZM234.99 180.075H234.49V180.575H234.99V180.075ZM240.74 180.075V180.575H241.24V180.075H240.74ZM240.74 172.6V172.1H240.24V172.6H240.74ZM272.94 172.6V173.1H273.44V172.6H272.94ZM272.94 120.85H273.44V120.35H272.94V120.85ZM251.09 120.85H250.59V121.35H251.09V120.85ZM251.09 89.225H251.59V88.725H251.09V89.225ZM213.715 89.225V88.725H213.215V89.225H213.715ZM213.715 122.575V123.075H214.215V122.575H213.715ZM117.69 215.15V215.65H118.19V215.15H117.69ZM83.1897 215.15H82.6897V215.65H83.1897V215.15ZM117.69 206.525V206.025H117.19V206.525H117.69ZM129.765 206.525V207.025H130.265V206.525H129.765ZM129.765 204.8H130.265V204.3H129.765V204.8ZM110.79 204.8H110.29V205.3H110.79V204.8ZM110.79 189.275V188.775H110.29V189.275H110.79ZM113.665 189.275V189.775H114.165V189.275H113.665ZM113.665 187.55H114.165V187.05H113.665V187.55ZM110.79 187.55H110.29V188.05H110.79V187.55ZM110.79 184.1H111.29V183.6H110.79V184.1ZM107.915 184.1H107.415V184.6H107.915V184.1ZM107.915 165.125V164.625H107.415V165.125H107.915ZM110.79 165.125V165.625H111.29V165.125H110.79ZM110.79 148.45H111.29V147.95H110.79V148.45ZM93.6676 148.45V147.95H93.1676V148.45H93.6676ZM93.6676 197.9V198.4H94.1676V197.9H93.6676ZM83.1897 197.9V197.4H82.6897V197.9H83.1897ZM294.79 133.5H294.29V134H294.79V133.5ZM294.79 120.85V120.35H294.29V120.85H294.79ZM318.94 133.5V134H319.44V133.5H318.94ZM318.94 127.175V126.675H318.44V127.175H318.94ZM340.215 127.175H340.715V126.675H340.215V127.175ZM340.215 155.35H339.715V155.85H340.215V155.35ZM347.115 155.35V155.85H347.615V155.35H347.115ZM347.115 120.85H347.615V120.35H347.115V120.85ZM228.09 340.5H227.59V341H228.09V340.5ZM228.09 338.775V338.275H227.59V338.775H228.09ZM233.84 340.5V341H234.34V340.5H233.84ZM233.84 331.3L233.496 330.937L233.34 331.085V331.3H233.84ZM244.765 320.95V320.45H244.565L244.421 320.587L244.765 320.95ZM248.215 320.95V321.45H248.715V320.95H248.215ZM248.215 319.225H248.715V318.725H248.215V319.225ZM234.99 319.225H234.49V319.725H234.99V319.225ZM234.99 276.675V276.175H234.49V276.675H234.99ZM247.64 276.675V277.175H248.14V276.675H247.64ZM247.64 274.95H248.14V274.45H247.64V274.95ZM244.765 274.95H244.265V275.45H244.765V274.95ZM244.765 240.45H245.265V239.95H244.765V240.45ZM241.315 240.45H240.815V240.95H241.315V240.45ZM241.315 236.425H241.815V235.925H241.315V236.425ZM237.865 236.425H237.365V236.925H237.865V236.425ZM237.865 211.125V210.625H237.365V211.125H237.865ZM273.515 211.125H274.015V210.625H273.515V211.125ZM273.515 222.05H273.015V222.55H273.515V222.05ZM276.965 222.05V222.55H277.465V222.05H276.965ZM276.965 211.125V210.625H276.465V211.125H276.965ZM291.34 211.125H291.84V210.625H291.34V211.125ZM291.34 218.6H290.84V219.1H291.34V218.6ZM318.94 218.6V219.1H319.44V218.6H318.94ZM318.94 212.275H319.44V211.775H318.94V212.275ZM301.115 212.275H300.615V212.775H301.115V212.275ZM301.115 162.25V161.75H300.615V162.25H301.115ZM318.94 162.25V162.75H319.44V162.25H318.94ZM318.94 148.583H319.44V148.083H318.94V148.583ZM294.876 148.583V148.083H294.376V148.583H294.876ZM294.876 201.196L294.872 201.696L295.376 201.7V201.196H294.876ZM240.74 200.775H240.24V201.271L240.736 201.275L240.74 200.775ZM240.74 194.45H241.24V193.95H240.74V194.45ZM234.99 194.45V193.95H234.49V194.45H234.99ZM234.99 222.369V222.869H235.49V222.369H234.99ZM203.006 222.369V221.869H202.506V222.369H203.006ZM203.006 225.5H202.506V226H203.006V225.5ZM213.715 225.5H214.215V225H213.715V225.5ZM213.715 274.491H213.215V274.991H213.715V274.491ZM231.165 274.491H231.665V273.991H231.165V274.491ZM231.165 307.15V307.65H231.665V307.15H231.165ZM206.815 307.15V306.65H206.315V307.15H206.815ZM206.815 308.875H206.315V309.375H206.815V308.875ZM231.165 308.875H231.665V308.375H231.165V308.875ZM231.165 338.775V339.275H231.665V338.775H231.165ZM150.465 187.55V188.05H150.965V187.55H150.465ZM122.29 187.55V187.05H121.79V187.55H122.29ZM150.465 182.375V181.875H149.965V182.375H150.465ZM157.365 182.375V182.875H157.865V182.375H157.365ZM157.365 180.753V180.253H156.865V180.753H157.365ZM163.69 180.753H164.19V180.253H163.69V180.753ZM163.69 222.05H163.19V222.55H163.69V222.05ZM187.84 222.05H188.34V221.55H187.84V222.05ZM187.84 225.5V226H188.34V225.5H187.84ZM163.69 225.5V225H163.19V225.5H163.69ZM163.69 247.35H163.19V247.85H163.69V247.35ZM177.49 247.35H177.99V246.85H177.49V247.35ZM177.49 274.95V275.45H177.99V274.95H177.49ZM157.365 274.95H156.865V275.45H157.365V274.95ZM157.365 261.15H157.865V260.65H157.365V261.15ZM147.015 261.15H146.515V261.65H147.015V261.15ZM147.015 258.275V257.775H146.515V258.275H147.015ZM157.365 258.275V258.775H157.865V258.275H157.365ZM157.365 206.525H157.865V206.025H157.365V206.525ZM145.29 206.525H144.79V207.025H145.29V206.525ZM145.29 204.8V204.3H144.79V204.8H145.29ZM157.365 204.8V205.3H157.865V204.8H157.365ZM157.365 189.275H157.865V188.775H157.365V189.275ZM122.29 189.275H121.79V189.775H122.29V189.275ZM48.1147 313.475H47.6147V313.975H48.1147V313.475ZM48.1147 296.8V296.3H47.6147V296.8H48.1147ZM65.9397 313.475H66.4397V312.975H65.9397V313.475ZM65.9397 320.95H65.4397V321.45H65.9397V320.95ZM72.8397 320.95H73.3397V320.45H72.8397V320.95ZM72.8397 324.4H72.3397V324.9H72.8397V324.4ZM75.1397 324.4V324.9H75.6397V324.4H75.1397ZM75.1397 313.475V312.975H74.6397V313.475H75.1397ZM108.49 313.475H108.99V312.975H108.49V313.475ZM108.49 352.575H107.99V353.075H108.49V352.575ZM135.515 352.575V353.075H136.015V352.575H135.515ZM135.515 338.2V337.7H135.015V338.2H135.515ZM151.04 338.2V338.7H151.54V338.2H151.04ZM151.04 336.188H151.54V335.688H151.04V336.188ZM117.69 336.188H117.19V336.688H117.69V336.188ZM117.69 261.15V260.65H117.19V261.15H117.69ZM128.04 261.15V261.65H128.54V261.15H128.04ZM128.04 258.275H128.54V257.775H128.04V258.275ZM117.69 258.275H117.19V258.775H117.69V258.275ZM117.69 228.95H118.19V228.45H117.69V228.95ZM83.1897 228.95V228.45H82.6897V228.95H83.1897ZM83.1897 240.45V240.95H83.6897V240.45H83.1897ZM48.1147 240.45V239.95H47.6147V240.45H48.1147ZM48.1147 270.925H47.6147V271.425H48.1147V270.925ZM65.9397 270.925H66.4397V270.425H65.9397V270.925ZM65.9397 296.8V297.3H66.4397V296.8H65.9397ZM160.815 307.15V306.65H160.315V307.15H160.815ZM160.815 313.475H160.315V313.975H160.815V313.475ZM185.54 307.15H186.04V306.65H185.54V307.15ZM185.54 308.875V309.375H186.04V308.875H185.54ZM174.04 308.875V308.375H173.54V308.875H174.04ZM174.04 324.975H173.54V325.477L174.042 325.475L174.04 324.975ZM215.755 324.795H216.255V324.292L215.753 324.295L215.755 324.795ZM215.755 338.619H215.255V339.119H215.755V338.619ZM219.186 338.619H219.686V338.119H219.186V338.619ZM219.186 340.184V340.684H219.686V340.184H219.186ZM209.69 340.184V339.684H209.19V340.184H209.69ZM209.69 352L209.693 352.5L210.19 352.496V352H209.69ZM182.327 352.203H181.827V352.707L182.331 352.703L182.327 352.203ZM182.327 338.419H182.827V337.919H182.327V338.419ZM168.29 338.419H167.79V338.919H168.29V338.419ZM168.29 313.475H168.79V312.975H168.29V313.475ZM149.89 370.606V370.106H149.39V370.606H149.89ZM149.89 402.025H149.39V402.525H149.89V402.025ZM197.04 370.606H197.54V370.106H197.04V370.606ZM197.04 402.025V402.525H197.54V402.025H197.04ZM263.165 239.875V239.375H262.665V239.875H263.165ZM263.165 269.775L263.518 270.129L263.665 269.982V269.775H263.165ZM273.515 239.875V240.375H274.015V239.875H273.515ZM273.515 229.525V229.025H273.015V229.525H273.515ZM276.39 229.525H276.89V229.025H276.39V229.525ZM276.39 235.275H275.89V235.775H276.39V235.275ZM291.34 235.275V235.775H291.84V235.275H291.34ZM291.34 233.267V232.767H290.84V233.267H291.34ZM325.265 233.267H325.765V232.767H325.265V233.267ZM325.265 247.59H324.765V248.09H325.265V247.59ZM354.59 247.59V248.09H355.09V247.59H354.59ZM354.59 219.175V218.675H354.09V219.175H354.59ZM360.915 219.175H361.415V218.675H360.915V219.175ZM360.915 250.225L361.169 250.655L361.415 250.51V250.225H360.915ZM320.09 274.375V274.875H320.227L320.344 274.805L320.09 274.375ZM294.79 274.375H294.29V274.875H294.79V274.375ZM294.79 264.025H295.29V263.525H294.79V264.025ZM276.165 264.025V263.525H275.665V264.025H276.165ZM276.165 281.451V281.951H276.665V281.451H276.165ZM273.897 281.451H273.397V281.951H273.897V281.451ZM273.897 276.675H274.397V276.175H273.897V276.675ZM258.565 276.675H258.065V277.175H258.565V276.675ZM258.565 274.375L258.211 274.021L258.065 274.168V274.375H258.565ZM72.8399 353.15H73.3399V339.35H72.8399H72.3399V353.15H72.8399ZM15.3399 353.15V353.65H72.8399V353.15V352.65H15.3399V353.15ZM15.3399 312.595H14.8399V353.15H15.3399H15.8399V312.595H15.3399ZM17.3442 312.595V312.095H15.3399V312.595V313.095H17.3442V312.595ZM17.3442 302.782H16.8442V312.595H17.3442H17.8442V302.782H17.3442ZM31.4399 302.782V302.282H17.3442V302.782V303.282H31.4399V302.782ZM31.4399 275.182H30.9399V302.782H31.4399H31.9399V275.182H31.4399ZM28.5649 275.182V275.682H31.4399V275.182V274.682H28.5649V275.182ZM28.5649 240.759H28.0649V275.182H28.5649H29.0649V240.759H28.5649ZM9.91384 240.759V241.259H28.5649V240.759V240.259H9.91384V240.759ZM9.91384 198.125H9.41384V240.759H9.91384H10.4138V198.125H9.91384ZM1.23511 198.125V198.625H9.91384V198.125V197.625H1.23511V198.125ZM1.23511 147.875H0.735107V198.125H1.23511H1.73511V147.875H1.23511ZM71.6897 147.875V147.375H1.23511V147.875V148.375H71.6897V147.875ZM71.6897 130.05H71.1897V147.875H71.6897H72.1897V130.05H71.6897ZM121.14 130.05V129.55H71.6897V130.05V130.55H121.14V130.05ZM121.14 102.45H120.64V130.05H121.14H121.64V102.45H121.14ZM174.04 102.45V101.95H121.14V102.45V102.95H174.04V102.45ZM174.04 65.65H173.54V102.45H174.04H174.54V65.65H174.04ZM190.14 65.65V65.15H174.04V65.65V66.15H190.14V65.65ZM190.14 66.8H190.64V65.65H190.14H189.64V66.8H190.14ZM216.015 66.8V66.3H190.14V66.8V67.3H216.015V66.8ZM216.015 48.4H215.515V66.8H216.015H216.515V48.4H216.015ZM248.79 18.5L248.453 18.1306L215.678 48.0306L216.015 48.4L216.352 48.7694L249.127 18.8694L248.79 18.5ZM270.64 34.6L270.936 34.1975L249.086 18.0975L248.79 18.5L248.493 18.9025L270.343 35.0025L270.64 34.6ZM270.64 66.8H271.14V34.6H270.64H270.14V66.8H270.64ZM294.79 66.8V66.3H270.64V66.8V67.3H294.79V66.8ZM294.79 102.45H295.29V66.8H294.79H294.29V102.45H294.79ZM361.49 102.45V101.95H294.79V102.45V102.95H361.49V102.45ZM361.49 138.935H361.99V102.45H361.49H360.99V138.935H361.49ZM386.215 138.935V138.435H361.49V138.935V139.435H386.215V138.935ZM386.215 155.35H386.715V138.935H386.215H385.715V155.35H386.215ZM393.69 155.35V154.85H386.215V155.35V155.85H393.69V155.35ZM393.69 219.175H394.19V155.35H393.69H393.19V219.175H393.69ZM379.89 219.175V219.675H393.69V219.175V218.675H379.89V219.175ZM379.89 250.225H380.39V219.175H379.89H379.39V250.225H379.89ZM393.69 250.225V249.725H379.89V250.225V250.725H393.69V250.225ZM393.69 279.55H394.19V250.225H393.69H393.19V279.55H393.69ZM360.915 279.55V280.05H393.69V279.55V279.05H360.915V279.55ZM320.09 304.275L320.349 304.703L361.174 279.978L360.915 279.55L360.656 279.122L319.831 303.847L320.09 304.275ZM309.165 304.275V304.775H320.09V304.275V303.775H309.165V304.275ZM309.165 314.05H309.665V304.275H309.165H308.665V314.05H309.165ZM276.39 314.05V314.55H309.165V314.05V313.55H276.39V314.05ZM276.39 297.375H275.89V314.05H276.39H276.89V297.375H276.39ZM274.09 297.375V297.875H276.39V297.375V296.875H274.09V297.375ZM274.09 319.225H274.59V297.375H274.09H273.59V319.225H274.09ZM259.715 319.225V319.725H274.09V319.225V318.725H259.715V319.225ZM259.715 320.95H260.215V319.225H259.715H259.215V320.95H259.715ZM273.515 320.95V320.45H259.715V320.95V321.45H273.515V320.95ZM273.515 374.425H274.015V320.95H273.515H273.015V374.425H273.515ZM210.265 374.425V374.925H273.515V374.425V373.925H210.265V374.425ZM210.265 401.568H210.765V374.425H210.265H209.765V401.568H210.265ZM235.202 401.568V401.068H210.265V401.568V402.068H235.202V401.568ZM235.202 437.1H235.702V401.568H235.202H234.702V437.1H235.202ZM206.24 455.5L206.508 455.922L235.47 437.522L235.202 437.1L234.934 436.678L205.972 455.078L206.24 455.5ZM160.24 455.5V456H206.24V455.5V455H160.24V455.5ZM135.515 437.1L135.216 437.501L159.941 455.901L160.24 455.5L160.538 455.099L135.813 436.699L135.515 437.1ZM135.515 378.169H135.015V437.1H135.515H136.015V378.169H135.515ZM64.7897 378.169V378.669H135.515V378.169V377.669H64.7897V378.169ZM64.7897 359.475H64.2897V378.169H64.7897H65.2897V359.475H64.7897ZM75.1397 359.475V358.975H64.7897V359.475V359.975H75.1397V359.475ZM75.1397 339.35H74.6397V359.475H75.1397H75.6397V339.35H75.1397ZM72.8399 339.35V339.85H75.1397V339.35V338.85H72.8399V339.35ZM136.665 158.8H137.165V122.575H136.665H136.165V158.8H136.665ZM157.365 158.8V158.3H136.665V158.8V159.3H157.365V158.8ZM157.365 166.275H157.865V158.8H157.365H156.865V166.275H157.365ZM164.265 166.275V165.775H157.365V166.275V166.775H164.265V166.275ZM164.265 161.675H163.765V166.275H164.265H164.765V161.675H164.265ZM175.19 150.75L174.836 150.396L163.911 161.321L164.265 161.675L164.618 162.029L175.543 151.104L175.19 150.75ZM184.965 150.75V150.25H175.19V150.75V151.25H184.965V150.75ZM184.965 130.05H184.465V150.75H184.965H185.465V130.05H184.965ZM214.29 130.05V129.55H184.965V130.05V130.55H214.29V130.05ZM214.29 150.75H214.79V130.05H214.29H213.79V150.75H214.29ZM223.49 150.75V150.25H214.29V150.75V151.25H223.49V150.75ZM234.99 162.25L235.343 161.896L223.843 150.396L223.49 150.75L223.136 151.104L234.636 162.604L234.99 162.25ZM234.99 180.075H235.49V162.25H234.99H234.49V180.075H234.99ZM240.74 180.075V179.575H234.99V180.075V180.575H240.74V180.075ZM240.74 172.6H240.24V180.075H240.74H241.24V172.6H240.74ZM272.94 172.6V172.1H240.74V172.6V173.1H272.94V172.6ZM272.94 120.85H272.44V172.6H272.94H273.44V120.85H272.94ZM251.09 120.85V121.35H272.94V120.85V120.35H251.09V120.85ZM251.09 89.225H250.59V120.85H251.09H251.59V89.225H251.09ZM213.715 89.225V89.725H251.09V89.225V88.725H213.715V89.225ZM213.715 122.575H214.215V89.225H213.715H213.215V122.575H213.715ZM136.665 122.575V123.075H213.715V122.575V122.075H136.665V122.575ZM117.69 215.15V214.65H83.1897V215.15V215.65H117.69V215.15ZM117.69 206.525H117.19V215.15H117.69H118.19V206.525H117.69ZM129.765 206.525V206.025H117.69V206.525V207.025H129.765V206.525ZM129.765 204.8H129.265V206.525H129.765H130.265V204.8H129.765ZM110.79 204.8V205.3H129.765V204.8V204.3H110.79V204.8ZM110.79 189.275H110.29V204.8H110.79H111.29V189.275H110.79ZM113.665 189.275V188.775H110.79V189.275V189.775H113.665V189.275ZM113.665 187.55H113.165V189.275H113.665H114.165V187.55H113.665ZM110.79 187.55V188.05H113.665V187.55V187.05H110.79V187.55ZM110.79 184.1H110.29V187.55H110.79H111.29V184.1H110.79ZM107.915 184.1V184.6H110.79V184.1V183.6H107.915V184.1ZM107.915 165.125H107.415V184.1H107.915H108.415V165.125H107.915ZM110.79 165.125V164.625H107.915V165.125V165.625H110.79V165.125ZM110.79 148.45H110.29V165.125H110.79H111.29V148.45H110.79ZM93.6676 148.45V148.95H110.79V148.45V147.95H93.6676V148.45ZM93.6676 197.9H94.1676V148.45H93.6676H93.1676V197.9H93.6676ZM83.1897 197.9V198.4H93.6676V197.9V197.4H83.1897V197.9ZM83.1897 215.15H83.6897V197.9H83.1897H82.6897V215.15H83.1897ZM294.79 133.5H295.29V120.85H294.79H294.29V133.5H294.79ZM318.94 133.5V133H294.79V133.5V134H318.94V133.5ZM318.94 127.175H318.44V133.5H318.94H319.44V127.175H318.94ZM340.215 127.175V126.675H318.94V127.175V127.675H340.215V127.175ZM340.215 155.35H340.715V127.175H340.215H339.715V155.35H340.215ZM347.115 155.35V154.85H340.215V155.35V155.85H347.115V155.35ZM347.115 120.85H346.615V155.35H347.115H347.615V120.85H347.115ZM294.79 120.85V121.35H347.115V120.85V120.35H294.79V120.85ZM228.09 340.5H228.59V338.775H228.09H227.59V340.5H228.09ZM233.84 340.5V340H228.09V340.5V341H233.84V340.5ZM233.84 331.3H233.34V340.5H233.84H234.34V331.3H233.84ZM244.765 320.95L244.421 320.587L233.496 330.937L233.84 331.3L234.184 331.663L245.109 321.313L244.765 320.95ZM248.215 320.95V320.45H244.765V320.95V321.45H248.215V320.95ZM248.215 319.225H247.715V320.95H248.215H248.715V319.225H248.215ZM234.99 319.225V319.725H248.215V319.225V318.725H234.99V319.225ZM234.99 276.675H234.49V319.225H234.99H235.49V276.675H234.99ZM247.64 276.675V276.175H234.99V276.675V277.175H247.64V276.675ZM247.64 274.95H247.14V276.675H247.64H248.14V274.95H247.64ZM244.765 274.95V275.45H247.64V274.95V274.45H244.765V274.95ZM244.765 240.45H244.265V274.95H244.765H245.265V240.45H244.765ZM241.315 240.45V240.95H244.765V240.45V239.95H241.315V240.45ZM241.315 236.425H240.815V240.45H241.315H241.815V236.425H241.315ZM237.865 236.425V236.925H241.315V236.425V235.925H237.865V236.425ZM237.865 211.125H237.365V236.425H237.865H238.365V211.125H237.865ZM273.515 211.125V210.625H237.865V211.125V211.625H273.515V211.125ZM273.515 222.05H274.015V211.125H273.515H273.015V222.05H273.515ZM276.965 222.05V221.55H273.515V222.05V222.55H276.965V222.05ZM276.965 211.125H276.465V222.05H276.965H277.465V211.125H276.965ZM291.34 211.125V210.625H276.965V211.125V211.625H291.34V211.125ZM291.34 218.6H291.84V211.125H291.34H290.84V218.6H291.34ZM318.94 218.6V218.1H291.34V218.6V219.1H318.94V218.6ZM318.94 212.275H318.44V218.6H318.94H319.44V212.275H318.94ZM301.115 212.275V212.775H318.94V212.275V211.775H301.115V212.275ZM301.115 162.25H300.615V212.275H301.115H301.615V162.25H301.115ZM318.94 162.25V161.75H301.115V162.25V162.75H318.94V162.25ZM318.94 148.583H318.44V162.25H318.94H319.44V148.583H318.94ZM294.876 148.583V149.083H318.94V148.583V148.083H294.876V148.583ZM294.876 201.196H295.376V148.583H294.876H294.376V201.196H294.876ZM240.74 200.775L240.736 201.275L294.872 201.696L294.876 201.196L294.88 200.696L240.744 200.275L240.74 200.775ZM240.74 194.45H240.24V200.775H240.74H241.24V194.45H240.74ZM234.99 194.45V194.95H240.74V194.45V193.95H234.99V194.45ZM234.99 222.369H235.49V194.45H234.99H234.49V222.369H234.99ZM203.006 222.369V222.869H234.99V222.369V221.869H203.006V222.369ZM203.006 225.5H203.506V222.369H203.006H202.506V225.5H203.006ZM213.715 225.5V225H203.006V225.5V226H213.715V225.5ZM213.715 274.491H214.215V225.5H213.715H213.215V274.491H213.715ZM231.165 274.491V273.991H213.715V274.491V274.991H231.165V274.491ZM231.165 307.15H231.665V274.491H231.165H230.665V307.15H231.165ZM206.815 307.15V307.65H231.165V307.15V306.65H206.815V307.15ZM206.815 308.875H207.315V307.15H206.815H206.315V308.875H206.815ZM231.165 308.875V308.375H206.815V308.875V309.375H231.165V308.875ZM231.165 338.775H231.665V308.875H231.165H230.665V338.775H231.165ZM228.09 338.775V339.275H231.165V338.775V338.275H228.09V338.775ZM150.465 187.55V187.05H122.29V187.55V188.05H150.465V187.55ZM150.465 182.375H149.965V187.55H150.465H150.965V182.375H150.465ZM157.365 182.375V181.875H150.465V182.375V182.875H157.365V182.375ZM157.365 180.753H156.865V182.375H157.365H157.865V180.753H157.365ZM163.69 180.753V180.253H157.365V180.753V181.253H163.69V180.753ZM163.69 222.05H164.19V180.753H163.69H163.19V222.05H163.69ZM187.84 222.05V221.55H163.69V222.05V222.55H187.84V222.05ZM187.84 225.5H188.34V222.05H187.84H187.34V225.5H187.84ZM163.69 225.5V226H187.84V225.5V225H163.69V225.5ZM163.69 247.35H164.19V225.5H163.69H163.19V247.35H163.69ZM177.49 247.35V246.85H163.69V247.35V247.85H177.49V247.35ZM177.49 274.95H177.99V247.35H177.49H176.99V274.95H177.49ZM157.365 274.95V275.45H177.49V274.95V274.45H157.365V274.95ZM157.365 261.15H156.865V274.95H157.365H157.865V261.15H157.365ZM147.015 261.15V261.65H157.365V261.15V260.65H147.015V261.15ZM147.015 258.275H146.515V261.15H147.015H147.515V258.275H147.015ZM157.365 258.275V257.775H147.015V258.275V258.775H157.365V258.275ZM157.365 206.525H156.865V258.275H157.365H157.865V206.525H157.365ZM145.29 206.525V207.025H157.365V206.525V206.025H145.29V206.525ZM145.29 204.8H144.79V206.525H145.29H145.79V204.8H145.29ZM157.365 204.8V204.3H145.29V204.8V205.3H157.365V204.8ZM157.365 189.275H156.865V204.8H157.365H157.865V189.275H157.365ZM122.29 189.275V189.775H157.365V189.275V188.775H122.29V189.275ZM122.29 187.55H121.79V189.275H122.29H122.79V187.55H122.29ZM48.1147 313.475H48.6147V296.8H48.1147H47.6147V313.475H48.1147ZM65.9397 313.475V312.975H48.1147V313.475V313.975H65.9397V313.475ZM65.9397 320.95H66.4397V313.475H65.9397H65.4397V320.95H65.9397ZM72.8397 320.95V320.45H65.9397V320.95V321.45H72.8397V320.95ZM72.8397 324.4H73.3397V320.95H72.8397H72.3397V324.4H72.8397ZM75.1397 324.4V323.9H72.8397V324.4V324.9H75.1397V324.4ZM75.1397 313.475H74.6397V324.4H75.1397H75.6397V313.475H75.1397ZM108.49 313.475V312.975H75.1397V313.475V313.975H108.49V313.475ZM108.49 352.575H108.99V313.475H108.49H107.99V352.575H108.49ZM135.515 352.575V352.075H108.49V352.575V353.075H135.515V352.575ZM135.515 338.2H135.015V352.575H135.515H136.015V338.2H135.515ZM151.04 338.2V337.7H135.515V338.2V338.7H151.04V338.2ZM151.04 336.188H150.54V338.2H151.04H151.54V336.188H151.04ZM117.69 336.188V336.688H151.04V336.188V335.688H117.69V336.188ZM117.69 261.15H117.19V336.188H117.69H118.19V261.15H117.69ZM128.04 261.15V260.65H117.69V261.15V261.65H128.04V261.15ZM128.04 258.275H127.54V261.15H128.04H128.54V258.275H128.04ZM117.69 258.275V258.775H128.04V258.275V257.775H117.69V258.275ZM117.69 228.95H117.19V258.275H117.69H118.19V228.95H117.69ZM83.1897 228.95V229.45H117.69V228.95V228.45H83.1897V228.95ZM83.1897 240.45H83.6897V228.95H83.1897H82.6897V240.45H83.1897ZM48.1147 240.45V240.95H83.1897V240.45V239.95H48.1147V240.45ZM48.1147 270.925H48.6147V240.45H48.1147H47.6147V270.925H48.1147ZM65.9397 270.925V270.425H48.1147V270.925V271.425H65.9397V270.925ZM65.9397 296.8H66.4397V270.925H65.9397H65.4397V296.8H65.9397ZM48.1147 296.8V297.3H65.9397V296.8V296.3H48.1147V296.8ZM160.815 307.15H160.315V313.475H160.815H161.315V307.15H160.815ZM185.54 307.15V306.65H160.815V307.15V307.65H185.54V307.15ZM185.54 308.875H186.04V307.15H185.54H185.04V308.875H185.54ZM174.04 308.875V309.375H185.54V308.875V308.375H174.04V308.875ZM174.04 324.975H174.54V308.875H174.04H173.54V324.975H174.04ZM215.755 324.795L215.753 324.295L174.038 324.475L174.04 324.975L174.042 325.475L215.757 325.295L215.755 324.795ZM215.755 338.619H216.255V324.795H215.755H215.255V338.619H215.755ZM219.186 338.619V338.119H215.755V338.619V339.119H219.186V338.619ZM219.186 340.184H219.686V338.619H219.186H218.686V340.184H219.186ZM209.69 340.184V340.684H219.186V340.184V339.684H209.69V340.184ZM209.69 352H210.19V340.184H209.69H209.19V352H209.69ZM182.327 352.203L182.331 352.703L209.693 352.5L209.69 352L209.686 351.5L182.323 351.703L182.327 352.203ZM182.327 338.419H181.827V352.203H182.327H182.827V338.419H182.327ZM168.29 338.419V338.919H182.327V338.419V337.919H168.29V338.419ZM168.29 313.475H167.79V338.419H168.29H168.79V313.475H168.29ZM160.815 313.475V313.975H168.29V313.475V312.975H160.815V313.475ZM149.89 370.606H149.39V402.025H149.89H150.39V370.606H149.89ZM197.04 370.606V370.106H149.89V370.606V371.106H197.04V370.606ZM197.04 402.025H197.54V370.606H197.04H196.54V402.025H197.04ZM149.89 402.025V402.525H197.04V402.025V401.525H149.89V402.025ZM263.165 239.875H262.665V269.775H263.165H263.665V239.875H263.165ZM273.515 239.875V239.375H263.165V239.875V240.375H273.515V239.875ZM273.515 229.525H273.015V239.875H273.515H274.015V229.525H273.515ZM276.39 229.525V229.025H273.515V229.525V230.025H276.39V229.525ZM276.39 235.275H276.89V229.525H276.39H275.89V235.275H276.39ZM291.34 235.275V234.775H276.39V235.275V235.775H291.34V235.275ZM291.34 233.267H290.84V235.275H291.34H291.84V233.267H291.34ZM325.265 233.267V232.767H291.34V233.267V233.767H325.265V233.267ZM325.265 247.59H325.765V233.267H325.265H324.765V247.59H325.265ZM354.59 247.59V247.09H325.265V247.59V248.09H354.59V247.59ZM354.59 219.175H354.09V247.59H354.59H355.09V219.175H354.59ZM360.915 219.175V218.675H354.59V219.175V219.675H360.915V219.175ZM360.915 250.225H361.415V219.175H360.915H360.415V250.225H360.915ZM320.09 274.375L320.344 274.805L361.169 250.655L360.915 250.225L360.66 249.795L319.835 273.945L320.09 274.375ZM294.79 274.375V274.875H320.09V274.375V273.875H294.79V274.375ZM294.79 264.025H294.29V274.375H294.79H295.29V264.025H294.79ZM276.165 264.025V264.525H294.79V264.025V263.525H276.165V264.025ZM276.165 281.451H276.665V264.025H276.165H275.665V281.451H276.165ZM273.897 281.451V281.951H276.165V281.451V280.951H273.897V281.451ZM273.897 276.675H273.397V281.451H273.897H274.397V276.675H273.897ZM258.565 276.675V277.175H273.897V276.675V276.175H258.565V276.675ZM258.565 274.375H258.065V276.675H258.565H259.065V274.375H258.565ZM263.165 269.775L262.811 269.421L258.211 274.021L258.565 274.375L258.918 274.729L263.518 270.129L263.165 269.775Z" fill="#B27C40"/>
<circle cx="144.715" cy="339.925" r="1.65" stroke="#B27C40"/>
<path d="M186.115 307.15H206.24M206.24 308.875H186.115M185.54 307.15V299.675H206.815V307.15M182.91 307.15V296.8H209.955V307.15M184.965 134.075H214.29M93.5398 184.1H86.6398M86.6398 184.1V197.9M86.6398 184.1V176.625H93.5398M10.1648 197.9H22.8148V176.625H4.98979M1.53979 176.625H4.98979M4.98979 176.625V170.3H1.53979M48.1148 270.925V289.325H55.0148M128.615 260L136.09 257.125M147.015 259.425L138.965 262.3M129.765 204.8H145.865M128.04 206.525V213.425H147.015V206.525M266.04 320.95V366.375H237.865V374.425M234.415 374.425V362.925H262.59V320.95M309.165 304.275H305.14V307.15M305.14 314.05V307.15M305.14 307.15H303.415V314.05M386.215 155.35V160.525M393.69 162.25H386.215V160.525M393.69 160.525H386.215M366.09 155.35H377.015M125.74 292.775H128.615V296.225H125.165M129.765 206.525H145.29V211.125H129.765V206.525Z" stroke="#B27C40" stroke-width="0.5"/>
<path d="M272.94 157.65H276.39M272.94 163.975H279.84V157.65H276.39M276.39 157.65V154.2H272.94M334.465 127.175V132.925H340.215M318.94 212.275H324.69V217.45H318.94M354.59 224.925H347.115V211.7H360.915V218.6M347.115 155.35H366.665M376.44 155.35H386.215M355.165 283L351.715 276.675L357.465 273.225L362.065 279.55M157.365 235.275H149.89V241.025H157.365M117.69 289.325H125.165V296.225H117.69M336.765 183.525L363.79 176.05L366.09 184.1L339.065 191.575L336.765 183.525Z" stroke="#B27C40"/>
<path d="M210.265 374.425V367.525H216.59V374.425M266.615 319.225V312.325H274.09M234.99 296.8H244.765V303.125H234.99M237.865 218.6H244.765V211.125M226.94 222.625V215.725H230.965M234.99 215.725H230.965M230.965 215.725V211.7H234.99M170.59 222.625V191H163.69M72.2647 191V183.525H44.0897V191H65.9397M72.2647 191V197.325H65.9397V191M72.2647 191H65.9397M33.7397 147.875V154.775H40.6397V147.875M71.6897 138.1H79.7397V130.05M55.0147 240.45V232.975H61.3397V240.45M59.0397 313.475L65.9397 320.375M75.1397 320.95H82.6147V317.212M82.6147 313.475V317.212M82.6147 317.212H86.6397V313.475M108.49 352.575V358.9H114.24V352.575M135.515 345.675H142.99V338.2M168.29 317.5H153.34V307.15H160.815M182.09 176.625V193.875H192.44V200.775H206.24V193.875H216.59V176.625H182.09ZM192.44 151.9V150.175H206.24V151.9H192.44Z" stroke="#B27C40"/>
<path d="M153.34 313.475H160.815M213.715 268.625H206.815V274.502H213.715" stroke="#B27C40"/>
<circle cx="154.49" cy="255.4" r="2.225" stroke="#B27C40"/>
<path d="M378.74 155.35V139.25M352.29 155.35V123.725H361.49" stroke="#B27C40" stroke-opacity="0.23" stroke-width="0.5"/>
<path d="M33.165 155.925H41.2148V148.45H71.1152V197.9H71.1143V182.95H43.5146V191.575H65.3643V197.9H1.81641V197.68H22.8145V176.625H5.27051V169.997H1.81641V148.45H33.165V155.925Z" fill="#F08234" fill-opacity="0.23"/>
<path d="M38.5015 168.524H37.0405C36.9989 168.285 36.922 168.072 36.8101 167.888C36.6981 167.7 36.5588 167.541 36.3921 167.411C36.2254 167.281 36.0353 167.183 35.8218 167.118C35.6108 167.05 35.383 167.016 35.1382 167.016C34.7033 167.016 34.3179 167.126 33.9819 167.345C33.646 167.561 33.383 167.878 33.1929 168.298C33.0028 168.714 32.9077 169.223 32.9077 169.825C32.9077 170.437 33.0028 170.953 33.1929 171.372C33.3856 171.789 33.6486 172.104 33.9819 172.317C34.3179 172.528 34.702 172.634 35.1343 172.634C35.3739 172.634 35.5978 172.602 35.8062 172.54C36.0171 172.475 36.2059 172.38 36.3726 172.255C36.5418 172.13 36.6838 171.976 36.7983 171.794C36.9155 171.611 36.9963 171.403 37.0405 171.169L38.5015 171.177C38.4468 171.557 38.3283 171.914 38.146 172.247C37.9663 172.58 37.7306 172.874 37.439 173.13C37.1473 173.382 36.8062 173.58 36.4155 173.723C36.0249 173.864 35.5913 173.934 35.1147 173.934C34.4116 173.934 33.784 173.772 33.2319 173.446C32.6799 173.121 32.245 172.651 31.9272 172.036C31.6095 171.421 31.4507 170.684 31.4507 169.825C31.4507 168.963 31.6108 168.226 31.9312 167.614C32.2515 166.999 32.6877 166.529 33.2397 166.204C33.7918 165.878 34.4168 165.716 35.1147 165.716C35.5601 165.716 35.9741 165.778 36.3569 165.903C36.7397 166.028 37.0809 166.212 37.3804 166.454C37.6799 166.693 37.9259 166.988 38.1187 167.337C38.314 167.683 38.4416 168.079 38.5015 168.524Z" fill="white"/>
<path d="M224.065 208.825H174.615V165.125H224.065V208.825ZM181.515 193.875H193.015V200.775H205.665V193.875H216.015V176.625H181.515V193.875Z" fill="#F08234" fill-opacity="0.23"/>
<path d="M196.104 191.075V183.075H199.167C199.745 183.075 200.225 183.166 200.608 183.348C200.993 183.528 201.281 183.774 201.471 184.087C201.664 184.399 201.76 184.753 201.76 185.149C201.76 185.475 201.698 185.753 201.573 185.985C201.448 186.214 201.28 186.401 201.069 186.544C200.858 186.687 200.622 186.79 200.362 186.852V186.93C200.646 186.946 200.918 187.033 201.178 187.192C201.441 187.348 201.656 187.57 201.823 187.856C201.989 188.143 202.073 188.489 202.073 188.895C202.073 189.309 201.972 189.682 201.772 190.013C201.571 190.341 201.269 190.6 200.866 190.79C200.462 190.98 199.954 191.075 199.342 191.075H196.104ZM197.553 189.864H199.112C199.638 189.864 200.017 189.764 200.249 189.563C200.483 189.36 200.6 189.1 200.6 188.782C200.6 188.545 200.542 188.332 200.424 188.141C200.307 187.949 200.14 187.798 199.924 187.688C199.708 187.576 199.45 187.52 199.151 187.52H197.553V189.864ZM197.553 186.477H198.987C199.237 186.477 199.462 186.432 199.663 186.341C199.863 186.247 200.021 186.115 200.135 185.946C200.252 185.774 200.311 185.571 200.311 185.337C200.311 185.027 200.202 184.772 199.983 184.571C199.767 184.371 199.445 184.27 199.018 184.27H197.553V186.477Z" fill="white"/>
<path d="M385.947 162.527H393.115V155.925H393.147L393.122 198.762H341.946L341.95 190.713L342.115 191.303L366.669 184.463L364.153 175.429L341.956 181.613L341.971 155.925H385.947V162.527Z" fill="#F08234" fill-opacity="0.23"/>
<path d="M373.081 176.125H371.534L374.351 168.125H376.14L378.96 176.125H377.413L375.276 169.766H375.214L373.081 176.125ZM373.132 172.988H377.351V174.152H373.132V172.988Z" fill="white"/>
</svg>
