<svg width="387" height="473" viewBox="0 0 387 473" fill="none" xmlns="http://www.w3.org/2000/svg">
<path fill-rule="evenodd" clip-rule="evenodd" d="M1 293.25V194.555H14.1593L30.6085 181.395V166.043L13.0627 151.787H5.93476V116.695L13.611 104.632H56.9272V88.1832L66.7967 82.1518L79.9561 100.246H82.6976L87.6324 97.5044H88.729L91.4705 100.246H117.789L124.917 105.181H129.852L136.432 101.343H162.75V91.473L173.716 83.7967V82.1518L180.844 79.9586L185.231 76.1205V69.5408L189.069 61.3162H202.228V49.2535L192.359 36.0941V18H252.124V39.9322L244.996 48.7051V61.8645H263.09L267.477 65.7026H271.863L276.25 61.8645L280.636 61.3162L286.119 58.5747L290.506 64.0577L315.179 73.9272L325.597 75.0238L334.918 71.734V116.695H332.725V119.437H386.459V192.361L360.689 202.231V207.455H386.459V309.151H376.041V312.684H376.59V315.182H377.138V344.79H376.041V377.141H253.221V362.885H251.576V382.315H287.216V397.976H266.38V402.363H263.639V455H215.936V402.363H213.194V397.976H202.777L165.492 402.911V382.075L231.289 382.315V362.885H229.095V377.141H165.492V342.049H141.915V315.73H115.048V297.408H79.4078V304.764H55.8306V293.25H1ZM266.38 116.695V149.045H268.573V119.437H317.921V116.695H266.38ZM229.095 160.011V192.361H243.9V160.011H229.095ZM291.602 309.151V312.44H265.832V265.834H223.236V253.432H212.409V217.035H224.161V218.68H265.832V172.622H299.279V196.199H311.341V206.617H316.276V213.745H311.341V219.777H269.122V309.151H291.602ZM63.5069 257.061V221.97H129.852V234.581H178.651V274.607H193.455V288.863H225.257V322.858H213.743V325.051H180.296V280.09H164.944V257.061H63.5069ZM130.4 305.312V295.443H165.492V332.179H163.299V301.474H136.432L132.593 305.312H130.4ZM315.179 309.151V312.44H353.561V309.151H315.179ZM286.119 270.221V293.798L319.725 294.02V270.221H286.119ZM108.468 203.327V169.881H153.429V203.327H108.468ZM54.734 135.338V170.429H66.0006V160.011H141.915V158.366H137.528V135.338H102.985H88.729H54.734ZM150.139 147.4V135.338H205.518V170.429H194.552L202.228 151.238V140.821H164.944L150.139 147.4Z" fill="#271406"/>
<path d="M1 194.555V194.055H0.5V194.555H1ZM1 293.25H0.5V293.75H1V293.25ZM14.1593 194.555V195.055H14.3347L14.4717 194.945L14.1593 194.555ZM30.6085 181.395L30.9209 181.786L31.1085 181.636V181.395H30.6085ZM30.6085 166.043H31.1085V165.805L30.9238 165.655L30.6085 166.043ZM13.0627 151.787L13.378 151.399L13.2403 151.287H13.0627V151.787ZM5.93476 151.787H5.43476V152.287H5.93476V151.787ZM5.93476 116.695L5.51292 116.427L5.43476 116.55V116.695H5.93476ZM13.611 104.632V104.132H13.3366L13.1892 104.364L13.611 104.632ZM56.9272 104.632V105.132H57.4272V104.632H56.9272ZM56.9272 88.1832L56.6665 87.7565L56.4272 87.9028V88.1832H56.9272ZM66.7967 82.1518L67.2011 81.8577L66.9297 81.4846L66.536 81.7252L66.7967 82.1518ZM79.9561 100.246L79.5517 100.54L79.7015 100.746H79.9561V100.246ZM82.6976 100.246V100.746H82.8272L82.9404 100.683L82.6976 100.246ZM87.6324 97.5044V97.0044H87.5028L87.3896 97.0673L87.6324 97.5044ZM88.729 97.5044L89.0825 97.1508L88.9361 97.0044H88.729V97.5044ZM91.4705 100.246L91.117 100.599L91.2634 100.746H91.4705V100.246ZM117.789 100.246L118.074 99.8348L117.945 99.7459H117.789V100.246ZM124.917 105.181L124.633 105.592L124.761 105.681H124.917V105.181ZM129.852 105.181V105.681H129.987L130.104 105.613L129.852 105.181ZM136.432 101.343V100.843H136.296L136.18 100.911L136.432 101.343ZM162.75 101.343V101.843H163.25V101.343H162.75ZM162.75 91.473L162.464 91.0634L162.25 91.2127V91.473H162.75ZM173.716 83.7967L174.003 84.2064L174.216 84.0571V83.7967H173.716ZM173.716 82.1518L173.569 81.6739L173.216 81.7825V82.1518H173.716ZM180.844 79.9586L180.991 80.4365L181.093 80.4051L181.174 80.3349L180.844 79.9586ZM185.231 76.1205L185.56 76.4967L185.731 76.3473V76.1205H185.231ZM185.231 69.5408L184.778 69.3293L184.731 69.4299V69.5408H185.231ZM189.069 61.3162V60.8162H188.751L188.616 61.1047L189.069 61.3162ZM202.228 61.3162V61.8162H202.728V61.3162H202.228ZM202.228 49.2535H202.728V49.0868L202.628 48.9535L202.228 49.2535ZM192.359 36.0941H191.859V36.2608L191.959 36.3941L192.359 36.0941ZM192.359 18V17.5H191.859V18H192.359ZM252.124 18H252.624V17.5H252.124V18ZM252.124 39.9322L252.512 40.2475L252.624 40.1098V39.9322H252.124ZM244.996 48.7051L244.608 48.3898L244.496 48.5276V48.7051H244.996ZM244.996 61.8645H244.496V62.3645H244.996V61.8645ZM263.09 61.8645L263.42 61.4882L263.278 61.3645H263.09V61.8645ZM267.477 65.7026L267.148 66.0789L267.289 66.2026H267.477V65.7026ZM271.863 65.7026V66.2026H272.051L272.193 66.0789L271.863 65.7026ZM276.25 61.8645L276.188 61.3684L276.036 61.3874L275.92 61.4882L276.25 61.8645ZM280.636 61.3162L280.698 61.8123L280.783 61.8017L280.86 61.7634L280.636 61.3162ZM286.119 58.5747L286.51 58.2623L286.257 57.9467L285.896 58.1274L286.119 58.5747ZM290.506 64.0577L290.115 64.3701L290.198 64.473L290.32 64.522L290.506 64.0577ZM315.179 73.9272L314.994 74.3915L315.058 74.4172L315.127 74.4245L315.179 73.9272ZM325.597 75.0238L325.545 75.5211L325.657 75.5329L325.764 75.4953L325.597 75.0238ZM334.918 71.734H335.418V71.0273L334.752 71.2625L334.918 71.734ZM334.918 116.695V117.195H335.418V116.695H334.918ZM332.725 116.695V116.195H332.225V116.695H332.725ZM332.725 119.437H332.225V119.937H332.725V119.437ZM386.459 119.437H386.959V118.937H386.459V119.437ZM386.459 192.361L386.638 192.828L386.959 192.705V192.361H386.459ZM360.689 202.231L360.51 201.764L360.189 201.887V202.231H360.689ZM360.689 207.455H360.189V207.955H360.689V207.455ZM386.459 207.455H386.959V206.955H386.459V207.455ZM386.459 309.151V309.651H386.959V309.151H386.459ZM376.041 309.151V308.651H375.541V309.151H376.041ZM376.041 312.684H375.541V313.184H376.041V312.684ZM376.59 312.684H377.09V312.184H376.59V312.684ZM376.59 315.182H376.09V315.682H376.59V315.182ZM377.138 315.182H377.638V314.682H377.138V315.182ZM377.138 344.79V345.29H377.638V344.79H377.138ZM376.041 344.79V344.29H375.541V344.79H376.041ZM376.041 377.141V377.641H376.541V377.141H376.041ZM253.221 377.141H252.721V377.641H253.221V377.141ZM253.221 362.885H253.721V362.385H253.221V362.885ZM251.576 362.885V362.385H251.076V362.885H251.576ZM251.576 382.315H251.076V382.815H251.576V382.315ZM287.216 382.315H287.716V381.815H287.216V382.315ZM287.216 397.976V398.476H287.716V397.976H287.216ZM266.38 397.976V397.476H265.88V397.976H266.38ZM266.38 402.363V402.863H266.88V402.363H266.38ZM263.639 402.363V401.863H263.139V402.363H263.639ZM263.639 455V455.5H264.139V455H263.639ZM215.936 455H215.436V455.5H215.936V455ZM215.936 402.363H216.436V401.863H215.936V402.363ZM213.194 402.363H212.694V402.863H213.194V402.363ZM213.194 397.976H213.694V397.476H213.194V397.976ZM202.777 397.976V397.476H202.744L202.711 397.48L202.777 397.976ZM165.492 402.911H164.992V403.481L165.557 403.407L165.492 402.911ZM165.492 382.075L165.494 381.575L164.992 381.573V382.075H165.492ZM231.289 382.315L231.287 382.815L231.789 382.816V382.315H231.289ZM231.289 362.885H231.789V362.385H231.289V362.885ZM229.095 362.885V362.385H228.595V362.885H229.095ZM229.095 377.141V377.641H229.595V377.141H229.095ZM165.492 377.141H164.992V377.641H165.492V377.141ZM165.492 342.049H165.992V341.549H165.492V342.049ZM141.915 342.049H141.415V342.549H141.915V342.049ZM141.915 315.73H142.415V315.23H141.915V315.73ZM115.048 315.73H114.548V316.23H115.048V315.73ZM115.048 297.408H115.548V296.908H115.048V297.408ZM79.4078 297.408V296.908H78.9078V297.408H79.4078ZM79.4078 304.764V305.264H79.9078V304.764H79.4078ZM55.8306 304.764H55.3306V305.264H55.8306V304.764ZM55.8306 293.25H56.3306V292.75H55.8306V293.25ZM266.38 149.045H265.88V149.545H266.38V149.045ZM266.38 116.695V116.195H265.88V116.695H266.38ZM268.573 149.045V149.545H269.073V149.045H268.573ZM268.573 119.437V118.937H268.073V119.437H268.573ZM317.921 119.437V119.937H318.421V119.437H317.921ZM317.921 116.695H318.421V116.195H317.921V116.695ZM229.095 192.361H228.595V192.861H229.095V192.361ZM229.095 160.011V159.511H228.595V160.011H229.095ZM243.9 192.361V192.861H244.4V192.361H243.9ZM243.9 160.011H244.4V159.511H243.9V160.011ZM291.602 312.44V312.94H292.102V312.44H291.602ZM291.602 309.151H292.102V308.651H291.602V309.151ZM265.832 312.44H265.332V312.94H265.832V312.44ZM265.832 265.834H266.332V265.334H265.832V265.834ZM223.236 265.834H222.736V266.334H223.236V265.834ZM223.236 253.432H223.736V252.932H223.236V253.432ZM212.409 253.432H211.909V253.932H212.409V253.432ZM212.409 217.035V216.535H211.909V217.035H212.409ZM224.161 217.035H224.661V216.535H224.161V217.035ZM224.161 218.68H223.661V219.18H224.161V218.68ZM265.832 218.68V219.18H266.332V218.68H265.832ZM265.832 172.622V172.122H265.332V172.622H265.832ZM299.279 172.622H299.779V172.122H299.279V172.622ZM299.279 196.199H298.779V196.699H299.279V196.199ZM311.341 196.199H311.841V195.699H311.341V196.199ZM311.341 206.617H310.841V207.117H311.341V206.617ZM316.276 206.617H316.776V206.117H316.276V206.617ZM316.276 213.745V214.245H316.776V213.745H316.276ZM311.341 213.745V213.245H310.841V213.745H311.341ZM311.341 219.777V220.277H311.841V219.777H311.341ZM269.122 219.777V219.277H268.622V219.777H269.122ZM269.122 309.151H268.622V309.651H269.122V309.151ZM63.5069 221.97V221.47H63.0069V221.97H63.5069ZM63.5069 257.061H63.0069V257.561H63.5069V257.061ZM129.852 221.97H130.352V221.47H129.852V221.97ZM129.852 234.581H129.352V235.081H129.852V234.581ZM178.651 234.581H179.151V234.081H178.651V234.581ZM178.651 274.607H178.151V275.107H178.651V274.607ZM193.455 274.607H193.955V274.107H193.455V274.607ZM193.455 288.863H192.955V289.363H193.455V288.863ZM225.257 288.863H225.757V288.363H225.257V288.863ZM225.257 322.858V323.358H225.757V322.858H225.257ZM213.743 322.858V322.358H213.243V322.858H213.743ZM213.743 325.051V325.551H214.243V325.051H213.743ZM180.296 325.051H179.796V325.551H180.296V325.051ZM180.296 280.09H180.796V279.59H180.296V280.09ZM164.944 280.09H164.444V280.59H164.944V280.09ZM164.944 257.061H165.444V256.561H164.944V257.061ZM130.4 295.443V294.943H129.9V295.443H130.4ZM130.4 305.312H129.9V305.812H130.4V305.312ZM165.492 295.443H165.992V294.943H165.492V295.443ZM165.492 332.179V332.679H165.992V332.179H165.492ZM163.299 332.179H162.799V332.679H163.299V332.179ZM163.299 301.474H163.799V300.974H163.299V301.474ZM136.432 301.474V300.974H136.225L136.078 301.121L136.432 301.474ZM132.593 305.312V305.812H132.801L132.947 305.666L132.593 305.312ZM315.179 312.44H314.679V312.94H315.179V312.44ZM315.179 309.151V308.651H314.679V309.151H315.179ZM353.561 312.44V312.94H354.061V312.44H353.561ZM353.561 309.151H354.061V308.651H353.561V309.151ZM286.119 293.798H285.619V294.295L286.116 294.298L286.119 293.798ZM286.119 270.221V269.721H285.619V270.221H286.119ZM319.725 294.02L319.722 294.52L320.225 294.523V294.02H319.725ZM319.725 270.221H320.225V269.721H319.725V270.221ZM108.468 169.881V169.381H107.968V169.881H108.468ZM108.468 203.327H107.968V203.827H108.468V203.327ZM153.429 169.881H153.929V169.381H153.429V169.881ZM153.429 203.327V203.827H153.929V203.327H153.429ZM54.734 170.429H54.234V170.929H54.734V170.429ZM54.734 135.338V134.838H54.234V135.338H54.734ZM66.0006 170.429V170.929H66.5006V170.429H66.0006ZM66.0006 160.011V159.511H65.5006V160.011H66.0006ZM141.915 160.011V160.511H142.415V160.011H141.915ZM141.915 158.366H142.415V157.866H141.915V158.366ZM137.528 158.366H137.028V158.866H137.528V158.366ZM137.528 135.338H138.028V134.838H137.528V135.338ZM150.139 135.338V134.838H149.639V135.338H150.139ZM150.139 147.4H149.639V148.17L150.342 147.857L150.139 147.4ZM205.518 135.338H206.018V134.838H205.518V135.338ZM205.518 170.429V170.929H206.018V170.429H205.518ZM194.552 170.429L194.088 170.243L193.814 170.929H194.552V170.429ZM202.228 151.238L202.693 151.424L202.728 151.335V151.238H202.228ZM202.228 140.821H202.728V140.321H202.228V140.821ZM164.944 140.821V140.321H164.837L164.74 140.364L164.944 140.821ZM1 194.555H0.5V293.25H1H1.5V194.555H1ZM14.1593 194.555V194.055H1V194.555V195.055H14.1593V194.555ZM30.6085 181.395L30.2962 181.005L13.847 194.164L14.1593 194.555L14.4717 194.945L30.9209 181.786L30.6085 181.395ZM30.6085 166.043H30.1085V181.395H30.6085H31.1085V166.043H30.6085ZM13.0627 151.787L12.7474 152.175L30.2932 166.431L30.6085 166.043L30.9238 165.655L13.378 151.399L13.0627 151.787ZM5.93476 151.787V152.287H13.0627V151.787V151.287H5.93476V151.787ZM5.93476 116.695H5.43476V151.787H5.93476H6.43476V116.695H5.93476ZM13.611 104.632L13.1892 104.364L5.51292 116.427L5.93476 116.695L6.35659 116.964L14.0329 104.901L13.611 104.632ZM56.9272 104.632V104.132H13.611V104.632V105.132H56.9272V104.632ZM56.9272 88.1832H56.4272V104.632H56.9272H57.4272V88.1832H56.9272ZM66.7967 82.1518L66.536 81.7252L56.6665 87.7565L56.9272 88.1832L57.188 88.6098L67.0575 82.5785L66.7967 82.1518ZM79.9561 100.246L80.3605 99.9518L67.2011 81.8577L66.7967 82.1518L66.3924 82.4459L79.5517 100.54L79.9561 100.246ZM82.6976 100.246V99.7459H79.9561V100.246V100.746H82.6976V100.246ZM87.6324 97.5044L87.3896 97.0673L82.4548 99.8088L82.6976 100.246L82.9404 100.683L87.8752 97.9415L87.6324 97.5044ZM88.729 97.5044V97.0044H87.6324V97.5044V98.0044H88.729V97.5044ZM91.4705 100.246L91.8241 99.8924L89.0825 97.1508L88.729 97.5044L88.3754 97.8579L91.117 100.599L91.4705 100.246ZM117.789 100.246V99.7459H91.4705V100.246V100.746H117.789V100.246ZM124.917 105.181L125.202 104.77L118.074 99.8348L117.789 100.246L117.505 100.657L124.633 105.592L124.917 105.181ZM129.852 105.181V104.681H124.917V105.181V105.681H129.852V105.181ZM136.432 101.343L136.18 100.911L129.6 104.749L129.852 105.181L130.104 105.613L136.684 101.774L136.432 101.343ZM162.75 101.343V100.843H136.432V101.343V101.843H162.75V101.343ZM162.75 91.473H162.25V101.343H162.75H163.25V91.473H162.75ZM173.716 83.7967L173.43 83.3871L162.464 91.0634L162.75 91.473L163.037 91.8826L174.003 84.2064L173.716 83.7967ZM173.716 82.1518H173.216V83.7967H173.716H174.216V82.1518H173.716ZM180.844 79.9586L180.697 79.4807L173.569 81.6739L173.716 82.1518L173.863 82.6297L180.991 80.4365L180.844 79.9586ZM185.231 76.1205L184.902 75.7442L180.515 79.5823L180.844 79.9586L181.174 80.3349L185.56 76.4967L185.231 76.1205ZM185.231 69.5408H184.731V76.1205H185.231H185.731V69.5408H185.231ZM189.069 61.3162L188.616 61.1047L184.778 69.3293L185.231 69.5408L185.684 69.7522L189.522 61.5276L189.069 61.3162ZM202.228 61.3162V60.8162H189.069V61.3162V61.8162H202.228V61.3162ZM202.228 49.2535H201.728V61.3162H202.228H202.728V49.2535H202.228ZM192.359 36.0941L191.959 36.3941L201.828 49.5535L202.228 49.2535L202.628 48.9535L192.759 35.7941L192.359 36.0941ZM192.359 18H191.859V36.0941H192.359H192.859V18H192.359ZM252.124 18V17.5H192.359V18V18.5H252.124V18ZM252.124 39.9322H252.624V18H252.124H251.624V39.9322H252.124ZM244.996 48.7051L245.384 49.0204L252.512 40.2475L252.124 39.9322L251.736 39.617L244.608 48.3898L244.996 48.7051ZM244.996 61.8645H245.496V48.7051H244.996H244.496V61.8645H244.996ZM263.09 61.8645V61.3645H244.996V61.8645V62.3645H263.09V61.8645ZM267.477 65.7026L267.806 65.3263L263.42 61.4882L263.09 61.8645L262.761 62.2408L267.148 66.0789L267.477 65.7026ZM271.863 65.7026V65.2026H267.477V65.7026V66.2026H271.863V65.7026ZM276.25 61.8645L275.92 61.4882L271.534 65.3263L271.863 65.7026L272.193 66.0789L276.579 62.2408L276.25 61.8645ZM280.636 61.3162L280.574 60.82L276.188 61.3684L276.25 61.8645L276.312 62.3606L280.698 61.8123L280.636 61.3162ZM286.119 58.5747L285.896 58.1274L280.413 60.869L280.636 61.3162L280.86 61.7634L286.343 59.0219L286.119 58.5747ZM290.506 64.0577L290.896 63.7454L286.51 58.2623L286.119 58.5747L285.729 58.887L290.115 64.3701L290.506 64.0577ZM315.179 73.9272L315.365 73.463L290.691 63.5935L290.506 64.0577L290.32 64.522L314.994 74.3915L315.179 73.9272ZM325.597 75.0238L325.65 74.5266L315.232 73.43L315.179 73.9272L315.127 74.4245L325.545 75.5211L325.597 75.0238ZM334.918 71.734L334.752 71.2625L325.431 74.5523L325.597 75.0238L325.764 75.4953L335.085 72.2055L334.918 71.734ZM334.918 116.695H335.418V71.734H334.918H334.418V116.695H334.918ZM332.725 116.695V117.195H334.918V116.695V116.195H332.725V116.695ZM332.725 119.437H333.225V116.695H332.725H332.225V119.437H332.725ZM386.459 119.437V118.937H332.725V119.437V119.937H386.459V119.437ZM386.459 192.361H386.959V119.437H386.459H385.959V192.361H386.459ZM360.689 202.231L360.868 202.698L386.638 192.828L386.459 192.361L386.28 191.894L360.51 201.764L360.689 202.231ZM360.689 207.455H361.189V202.231H360.689H360.189V207.455H360.689ZM386.459 207.455V206.955H360.689V207.455V207.955H386.459V207.455ZM386.459 309.151H386.959V207.455H386.459H385.959V309.151H386.459ZM376.041 309.151V309.651H386.459V309.151V308.651H376.041V309.151ZM376.041 312.684H376.541V309.151H376.041H375.541V312.684H376.041ZM376.59 312.684V312.184H376.041V312.684V313.184H376.59V312.684ZM376.59 315.182H377.09V312.684H376.59H376.09V315.182H376.59ZM377.138 315.182V314.682H376.59V315.182V315.682H377.138V315.182ZM377.138 344.79H377.638V315.182H377.138H376.638V344.79H377.138ZM376.041 344.79V345.29H377.138V344.79V344.29H376.041V344.79ZM376.041 377.141H376.541V344.79H376.041H375.541V377.141H376.041ZM253.221 377.141V377.641H376.041V377.141V376.641H253.221V377.141ZM253.221 362.885H252.721V377.141H253.221H253.721V362.885H253.221ZM251.576 362.885V363.385H253.221V362.885V362.385H251.576V362.885ZM251.576 382.315H252.076V362.885H251.576H251.076V382.315H251.576ZM287.216 382.315V381.815H251.576V382.315V382.815H287.216V382.315ZM287.216 397.976H287.716V382.315H287.216H286.716V397.976H287.216ZM266.38 397.976V398.476H287.216V397.976V397.476H266.38V397.976ZM266.38 402.363H266.88V397.976H266.38H265.88V402.363H266.38ZM263.639 402.363V402.863H266.38V402.363V401.863H263.639V402.363ZM263.639 455H264.139V402.363H263.639H263.139V455H263.639ZM215.936 455V455.5H263.639V455V454.5H215.936V455ZM215.936 402.363H215.436V455H215.936H216.436V402.363H215.936ZM213.194 402.363V402.863H215.936V402.363V401.863H213.194V402.363ZM213.194 397.976H212.694V402.363H213.194H213.694V397.976H213.194ZM202.777 397.976V398.476H213.194V397.976V397.476H202.777V397.976ZM165.492 402.911L165.557 403.407L202.842 398.472L202.777 397.976L202.711 397.48L165.426 402.415L165.492 402.911ZM165.492 382.075H164.992V402.911H165.492H165.992V382.075H165.492ZM231.289 382.315L231.29 381.815L165.494 381.575L165.492 382.075L165.49 382.575L231.287 382.815L231.289 382.315ZM231.289 362.885H230.789V382.315H231.289H231.789V362.885H231.289ZM229.095 362.885V363.385H231.289V362.885V362.385H229.095V362.885ZM229.095 377.141H229.595V362.885H229.095H228.595V377.141H229.095ZM165.492 377.141V377.641H229.095V377.141V376.641H165.492V377.141ZM165.492 342.049H164.992V377.141H165.492H165.992V342.049H165.492ZM141.915 342.049V342.549H165.492V342.049V341.549H141.915V342.049ZM141.915 315.73H141.415V342.049H141.915H142.415V315.73H141.915ZM115.048 315.73V316.23H141.915V315.73V315.23H115.048V315.73ZM115.048 297.408H114.548V315.73H115.048H115.548V297.408H115.048ZM79.4078 297.408V297.908H115.048V297.408V296.908H79.4078V297.408ZM79.4078 304.764H79.9078V297.408H79.4078H78.9078V304.764H79.4078ZM55.8306 304.764V305.264H79.4078V304.764V304.264H55.8306V304.764ZM55.8306 293.25H55.3306V304.764H55.8306H56.3306V293.25H55.8306ZM1 293.25V293.75H55.8306V293.25V292.75H1V293.25ZM266.38 149.045H266.88V116.695H266.38H265.88V149.045H266.38ZM268.573 149.045V148.545H266.38V149.045V149.545H268.573V149.045ZM268.573 119.437H268.073V149.045H268.573H269.073V119.437H268.573ZM317.921 119.437V118.937H268.573V119.437V119.937H317.921V119.437ZM317.921 116.695H317.421V119.437H317.921H318.421V116.695H317.921ZM266.38 116.695V117.195H317.921V116.695V116.195H266.38V116.695ZM229.095 192.361H229.595V160.011H229.095H228.595V192.361H229.095ZM243.9 192.361V191.861H229.095V192.361V192.861H243.9V192.361ZM243.9 160.011H243.4V192.361H243.9H244.4V160.011H243.9ZM229.095 160.011V160.511H243.9V160.011V159.511H229.095V160.011ZM291.602 312.44H292.102V309.151H291.602H291.102V312.44H291.602ZM265.832 312.44V312.94H291.602V312.44V311.94H265.832V312.44ZM265.832 265.834H265.332V312.44H265.832H266.332V265.834H265.832ZM223.236 265.834V266.334H265.832V265.834V265.334H223.236V265.834ZM223.236 253.432H222.736V265.834H223.236H223.736V253.432H223.236ZM212.409 253.432V253.932H223.236V253.432V252.932H212.409V253.432ZM212.409 217.035H211.909V253.432H212.409H212.909V217.035H212.409ZM224.161 217.035V216.535H212.409V217.035V217.535H224.161V217.035ZM224.161 218.68H224.661V217.035H224.161H223.661V218.68H224.161ZM265.832 218.68V218.18H224.161V218.68V219.18H265.832V218.68ZM265.832 172.622H265.332V218.68H265.832H266.332V172.622H265.832ZM299.279 172.622V172.122H265.832V172.622V173.122H299.279V172.622ZM299.279 196.199H299.779V172.622H299.279H298.779V196.199H299.279ZM311.341 196.199V195.699H299.279V196.199V196.699H311.341V196.199ZM311.341 206.617H311.841V196.199H311.341H310.841V206.617H311.341ZM316.276 206.617V206.117H311.341V206.617V207.117H316.276V206.617ZM316.276 213.745H316.776V206.617H316.276H315.776V213.745H316.276ZM311.341 213.745V214.245H316.276V213.745V213.245H311.341V213.745ZM311.341 219.777H311.841V213.745H311.341H310.841V219.777H311.341ZM269.122 219.777V220.277H311.341V219.777V219.277H269.122V219.777ZM269.122 309.151H269.622V219.777H269.122H268.622V309.151H269.122ZM291.602 309.151V308.651H269.122V309.151V309.651H291.602V309.151ZM63.5069 221.97H63.0069V257.061H63.5069H64.0069V221.97H63.5069ZM129.852 221.97V221.47H63.5069V221.97V222.47H129.852V221.97ZM129.852 234.581H130.352V221.97H129.852H129.352V234.581H129.852ZM178.651 234.581V234.081H129.852V234.581V235.081H178.651V234.581ZM178.651 274.607H179.151V234.581H178.651H178.151V274.607H178.651ZM193.455 274.607V274.107H178.651V274.607V275.107H193.455V274.607ZM193.455 288.863H193.955V274.607H193.455H192.955V288.863H193.455ZM225.257 288.863V288.363H193.455V288.863V289.363H225.257V288.863ZM225.257 322.858H225.757V288.863H225.257H224.757V322.858H225.257ZM213.743 322.858V323.358H225.257V322.858V322.358H213.743V322.858ZM213.743 325.051H214.243V322.858H213.743H213.243V325.051H213.743ZM180.296 325.051V325.551H213.743V325.051V324.551H180.296V325.051ZM180.296 280.09H179.796V325.051H180.296H180.796V280.09H180.296ZM164.944 280.09V280.59H180.296V280.09V279.59H164.944V280.09ZM164.944 257.061H164.444V280.09H164.944H165.444V257.061H164.944ZM63.5069 257.061V257.561H164.944V257.061V256.561H63.5069V257.061ZM130.4 295.443H129.9V305.312H130.4H130.9V295.443H130.4ZM165.492 295.443V294.943H130.4V295.443V295.943H165.492V295.443ZM165.492 332.179H165.992V295.443H165.492H164.992V332.179H165.492ZM163.299 332.179V332.679H165.492V332.179V331.679H163.299V332.179ZM163.299 301.474H162.799V332.179H163.299H163.799V301.474H163.299ZM136.432 301.474V301.974H163.299V301.474V300.974H136.432V301.474ZM132.593 305.312L132.947 305.666L136.785 301.828L136.432 301.474L136.078 301.121L132.24 304.959L132.593 305.312ZM130.4 305.312V305.812H132.593V305.312V304.812H130.4V305.312ZM315.179 312.44H315.679V309.151H315.179H314.679V312.44H315.179ZM353.561 312.44V311.94H315.179V312.44V312.94H353.561V312.44ZM353.561 309.151H353.061V312.44H353.561H354.061V309.151H353.561ZM315.179 309.151V309.651H353.561V309.151V308.651H315.179V309.151ZM286.119 293.798H286.619V270.221H286.119H285.619V293.798H286.119ZM319.725 294.02L319.728 293.52L286.122 293.298L286.119 293.798L286.116 294.298L319.722 294.52L319.725 294.02ZM319.725 270.221H319.225V294.02H319.725H320.225V270.221H319.725ZM286.119 270.221V270.721H319.725V270.221V269.721H286.119V270.221ZM108.468 169.881H107.968V203.327H108.468H108.968V169.881H108.468ZM153.429 169.881V169.381H108.468V169.881V170.381H153.429V169.881ZM153.429 203.327H153.929V169.881H153.429H152.929V203.327H153.429ZM108.468 203.327V203.827H153.429V203.327V202.827H108.468V203.327ZM54.734 170.429H55.234V135.338H54.734H54.234V170.429H54.734ZM66.0006 170.429V169.929H54.734V170.429V170.929H66.0006V170.429ZM66.0006 160.011H65.5006V170.429H66.0006H66.5006V160.011H66.0006ZM141.915 160.011V159.511H66.0006V160.011V160.511H141.915V160.011ZM141.915 158.366H141.415V160.011H141.915H142.415V158.366H141.915ZM137.528 158.366V158.866H141.915V158.366V157.866H137.528V158.366ZM137.528 135.338H137.028V158.366H137.528H138.028V135.338H137.528ZM102.985 135.338V135.838H137.528V135.338V134.838H102.985V135.338ZM88.729 135.338V135.838H102.985V135.338V134.838H88.729V135.338ZM54.734 135.338V135.838H88.729V135.338V134.838H54.734V135.338ZM150.139 135.338H149.639V147.4H150.139H150.639V135.338H150.139ZM205.518 135.338V134.838H150.139V135.338V135.838H205.518V135.338ZM205.518 170.429H206.018V135.338H205.518H205.018V170.429H205.518ZM194.552 170.429V170.929H205.518V170.429V169.929H194.552V170.429ZM202.228 151.238L201.764 151.053L194.088 170.243L194.552 170.429L195.016 170.615L202.693 151.424L202.228 151.238ZM202.228 140.821H201.728V151.238H202.228H202.728V140.821H202.228ZM164.944 140.821V141.321H202.228V140.821V140.321H164.944V140.821ZM150.139 147.4L150.342 147.857L165.147 141.277L164.944 140.821L164.74 140.364L149.936 146.943L150.139 147.4Z" fill="#B27C40"/>
<path d="M161.654 101.891V113.954H162.75M162.75 122.178H161.654V135.338" stroke="#B27C40" stroke-opacity="0.23" stroke-width="0.5"/>
<path d="M137.528 103.536H150.139M150.139 103.536V101.343M150.139 103.536C150.139 103.974 150.139 106.277 150.139 107.374M150.139 113.405V122.726M150.139 128.758V133.144M150.139 135.338V133.144M150.139 133.144H137.528" stroke="#B27C40" stroke-opacity="0.23"/>
<path d="M313.534 153.98V141.917M353.012 153.98V141.917M268.573 129.854H386.459M328.339 103.536C328.339 102.658 328.339 98.0527 328.339 95.8595H332.177M334.918 95.8595H332.177M332.177 95.8595V93.1179H334.918M154.526 145.207L156.171 148.497L172.071 140.821M198.39 140.821V160.011" stroke="#B27C40" stroke-width="0.5"/>
<path d="M354.658 259.803V244.999M354.658 244.999H315.18M354.658 244.999V234.033H348.078M339.853 234.033H315.18M253.221 365.626C254.098 365.626 260.166 365.626 263.09 365.626M263.09 365.626V361.24H270.218V361.788M263.09 365.626V368.916M270.218 368.916V361.788M270.218 368.916H270.767M270.218 368.916H263.09M278.991 368.916V363.433M278.991 368.916H283.378M278.991 368.916H270.767M270.218 361.788H278.991V363.433M278.991 363.433H283.378M285.571 377.141V363.433H283.378M283.378 363.433V368.916M283.378 377.141V368.916M270.767 377.141V368.916M263.09 377.141V368.916M230.74 337.114V362.885M252.124 337.114V359.046M252.124 362.885V359.046M252.124 359.046H254.318C255.286 361.947 256.237 362.56 258.156 362.885V365.078M229.095 363.433C228.937 363.433 226.069 363.433 221.967 363.433M196.745 377.141V363.433C197.348 363.433 197.986 363.433 198.653 363.433M198.653 363.433V370.287M198.653 363.433C201.483 363.433 204.834 363.433 208.26 363.433M198.653 377.141V370.287M198.653 370.287H208.26M208.26 370.287V363.433M208.26 370.287V375.496M208.26 377.141V375.496M208.26 363.433C213.098 363.433 218.085 363.433 221.967 363.433M208.26 375.496H221.967M221.967 375.496V377.141M221.967 375.496V371.109M221.967 363.433V371.109M221.967 371.109H229.095M141.366 315.73H147.946V321.213H141.915M253.769 265.834V299.281H255.414M265.832 299.281H258.704M255.414 299.281V303.119H258.704M255.414 299.281H258.704M258.704 303.119V299.281M258.704 303.119V305.861H261.994M265.832 305.861H262.268H261.994M261.994 305.861V309.699H265.832M252.124 218.68V211.552H258.704M265.284 211.552H258.704M258.704 211.552V218.68M202.228 61.3162V67.8959M202.228 88.1832V67.8959M245.545 88.1832V61.8645M202.228 67.8959H194.004M188.521 62.4128V67.8959H194.004M194.004 61.3162V67.8959" stroke="#B27C40"/>
<path d="M339.305 234.033H349.174M334.918 184.685V172.622M337.66 153.98V158.915H339.853M339.853 158.915H347.529V154.528M339.853 158.915V154.528M339.853 153.98V154.528M347.529 153.98V154.528M347.529 154.528H339.853" stroke="#B27C40" stroke-width="0.5"/>
<path d="M60.217 203.327H88.7289M47.606 189.62H70.0865M78.8594 189.62H81.6009M88.7289 189.62H84.8908M66.2484 170.429H70.0865V169.332H66.2484M108.468 169.881H87.084M81.6009 189.62V193.458H84.8908V189.62M81.6009 189.62H84.8908M124.369 221.97V215.39H129.852V221.97M153.429 169.881H159.46V170.977H153.429M179.748 170.977V169.881H166.588V170.977H178.651M179.748 170.977V262.545M179.748 170.977H178.651M178.651 227.453V170.977M192.359 262.545V203.327M193.455 262.545V242.257M193.455 227.453V203.327M193.455 192.91V169.881H194.552M192.359 192.91V188.523M192.359 169.332V188.523M192.359 188.523H188.521V192.361H191.81M218.677 140.272V160.011H229.095M185.231 125.468H162.202M142.463 135.338H137.528M148.494 135.338H150.688M81.6009 100.246V119.437H110.661V100.246M280.088 103.536C280.526 103.536 316.459 103.536 334.37 103.536M312.986 141.917H353.561M353.561 153.98H346.981M340.401 153.98H329.984M321.759 153.98H312.986M386.459 161.108H374.945V168.236H386.459M360.14 168.236V184.685H355.206M315.728 168.236V184.685H321.759M321.759 184.685V172.622H355.206V184.685M321.759 184.685H355.206M78.8594 170.429H88.1806V169.332H78.8594V170.429ZM367.268 139.724L366.72 146.852L373.848 147.4L374.396 140.272L367.268 139.724Z" stroke="#B27C40"/>
<path d="M330.532 172.622C330.532 173.061 330.532 180.847 330.532 184.685M292.15 172.622V152.335H299.278V172.622M269.122 230.743C269.56 230.743 273.691 230.743 275.701 230.743V230.194M275.701 219.777V226.356M279.539 226.356V230.194M279.539 226.356H282.829M279.539 226.356H275.701M279.539 230.194H275.701M279.539 230.194H282.829V226.356M275.701 230.194V226.356M282.829 226.356V219.777M292.699 219.777V228.55H300.375V219.777M364.527 294.346C363.65 294.346 334.187 294.346 319.566 294.346M325.597 282.832H386.459M319.566 270.221H346.981M360.689 206.617V219.777H376.59V259.803H353.561V263.641M353.561 263.641V270.221H346.981M353.561 263.641H346.981V270.221" stroke="#B27C40"/>
<path d="M110.661 257.061V263.641H117.241V257.061M130.948 257.061V268.576M164.943 280.09H130.948V268.576M164.943 268.576H130.948" stroke="#B27C40"/>
<path d="M47.606 203.327H51.4441" stroke="#B27C40"/>
<path d="M35.5433 240.612H22.3839V274.059H35.5433V246.644M35.5433 240.612H42.6713V246.644H35.5433M35.5433 240.612V246.644M1 283.38H4.83814V287.767M4.83814 287.767H8.67629V293.25M4.83814 287.767H1M87.0841 280.09H63.5069V269.124H96.4053V280.09H93.6637M87.0841 280.09V287.218H93.6637V280.09M87.0841 280.09H93.6637" stroke="#B27C40"/>
<path d="M93.6638 283.928C95.766 284.055 96.2415 283.013 96.4053 280.09" stroke="#B27C40"/>
<path d="M311.341 219.777C311.78 219.777 329.435 219.777 338.208 219.777V196.199H311.341M311.341 202.231H331.629V206.617H316.276M332.177 206.617H333.274V213.745H316.276" stroke="#B27C40"/>
<path d="M48.1543 189.62V203.327M88.1806 203.327V189.62M69.5382 189.62V169.881M79.4077 189.62V169.881M113.951 160.011V163.301H117.241V160.011M169.33 169.881V166.591H173.168V169.881M159.46 170.429H166.588M170.427 170.977V178.654H153.429M193.455 192.361V203.876M205.518 170.429H229.095M218.677 151.787C219.116 151.787 226.537 151.787 230.192 151.787M230.192 151.787H234.03V160.011H230.192V151.787ZM162.75 101.343V125.468" stroke="#B27C40" stroke-width="0.5"/>
<path d="M137.528 101.343V135.338M56.9273 102.439L64.0553 87.0866M64.0553 87.0866H67.3451L68.99 84.8934M64.0553 87.0866L63.8359 86.5383M62.9587 84.345L63.8359 86.5383M63.8359 86.5383L61.862 88.1832H61.3137M59.6688 86.5383L60.7654 88.1832H61.3137M61.3137 88.1832V91.473L59.6688 93.6663H56.9273M7.57973 114.502L9.22465 116.147V120.533L5.93481 122.726M189.069 325.051V328.341H192.907V325.051M319.566 294.346V298.733H323.952V294.346M315.728 234.033V244.999M283.378 312.44H287.764C288.665 314.215 288.761 315.083 287.764 316.279H283.378C281.937 315.165 281.778 314.366 283.378 312.44Z" stroke="#B27C40" stroke-width="0.5"/>
<path d="M245.544 67.8959H252.672M252.672 67.8959V64.606M252.672 67.8959H259.8V64.606M256.511 64.606V61.8645H252.672V64.606M256.511 64.606H252.672M256.511 64.606H259.8M259.8 64.606V61.8645M381.524 309.151V302.571H386.459M321.211 153.98H330.532M292.15 152.335C291.712 152.335 287.947 152.335 286.119 152.335M272.96 64.606L274.056 67.3476L278.443 66.2509V64.0577M278.443 64.0577L276.798 61.8645M278.443 64.0577L280.636 62.4128M280.636 62.4128L280.088 61.3162M280.636 62.4128L282.829 66.2509L287.216 66.7993L289.409 65.1543V62.4128M297.634 66.7993L300.375 70.0891H300.923L302.02 71.1857H304.213M304.213 71.1857V69.5408M304.213 71.1857V73.3789L307.503 75.5722L310.793 72.2823M317.921 73.9272V76.6688L320.114 77.7654H323.952L324.262 77.4552M325.049 75.0238V76.6688L324.262 77.4552M324.262 77.4552L326.694 80.5069L329.984 82.1518L334.918 79.9586M330.532 377.141V363.433H333.273V377.141" stroke="#B27C40" stroke-width="0.5"/>
<path d="M50.8958 203.327C51.773 203.327 57.841 203.327 60.7653 203.327" stroke="#B27C40" stroke-width="0.5"/>
<path d="M179.748 227.453H192.359M192.359 241.709H179.199" stroke="#B27C40" stroke-opacity="0.23" stroke-width="0.5"/>
<path d="M326.694 119.437H332.725M326.694 119.437V126.565H334.37V119.437M326.694 119.437C326.255 119.437 320.662 119.437 317.921 119.437M55.2822 203.327V196.199H81.0526V203.327" stroke="#B27C40" stroke-opacity="0.23"/>
<path fill-rule="evenodd" clip-rule="evenodd" d="M299.827 119.985H385.911V161.108H374.945V168.236L299.827 168.236V119.985ZM385.911 168.236L386.459 168.236V161.108H385.911V168.236ZM367.269 139.724L366.72 146.852L373.848 147.4L374.396 140.272L367.269 139.724Z" fill="#F08234" fill-opacity="0.2"/>
<path d="M361.409 160.593H359.862L362.678 152.593H364.467L367.288 160.593H365.741L363.604 154.234H363.542L361.409 160.593ZM361.459 157.457H365.678V158.621H361.459V157.457Z" fill="white"/>
<path d="M54.7339 170.429H95.3091V221.969H63.5073V228.55H40.478V164.946H54.7339V170.429Z" fill="#F08234" fill-opacity="0.23"/>
<path d="M48.9434 185.816V177.816H52.0059C52.584 177.816 53.0645 177.907 53.4473 178.089C53.8327 178.269 54.1204 178.515 54.3105 178.827C54.5033 179.14 54.5996 179.494 54.5996 179.89C54.5996 180.215 54.5371 180.494 54.4121 180.726C54.2871 180.955 54.1191 181.141 53.9082 181.284C53.6973 181.428 53.4616 181.53 53.2012 181.593V181.671C53.485 181.687 53.7572 181.774 54.0176 181.933C54.2806 182.089 54.4954 182.31 54.6621 182.597C54.8288 182.883 54.9121 183.23 54.9121 183.636C54.9121 184.05 54.8118 184.422 54.6113 184.753C54.4108 185.081 54.1087 185.34 53.7051 185.53C53.3014 185.721 52.7936 185.816 52.1816 185.816H48.9434ZM50.3926 184.605H51.9512C52.4772 184.605 52.8561 184.504 53.0879 184.304C53.3223 184.101 53.4395 183.84 53.4395 183.523C53.4395 183.286 53.3809 183.072 53.2637 182.882C53.1465 182.689 52.9798 182.538 52.7637 182.429C52.5475 182.317 52.2897 182.261 51.9902 182.261H50.3926V184.605ZM50.3926 181.218H51.8262C52.0762 181.218 52.3014 181.172 52.502 181.081C52.7025 180.987 52.86 180.856 52.9746 180.687C53.0918 180.515 53.1504 180.312 53.1504 180.077C53.1504 179.767 53.041 179.512 52.8223 179.312C52.6061 179.111 52.2845 179.011 51.8574 179.011H50.3926V181.218Z" fill="white"/>
<path d="M343.691 234.033V154.528" stroke="#B27C40" stroke-opacity="0.23" stroke-dasharray="3 3"/>
</svg>
