<svg width="387" height="473" viewBox="0 0 387 473" fill="none" xmlns="http://www.w3.org/2000/svg">
<path fill-rule="evenodd" clip-rule="evenodd" d="M386.459 179.75V278.445H373.3L356.85 291.605V306.957L374.396 321.213H381.524V356.305L373.848 368.368H330.532V384.817L320.662 390.848L307.503 372.754H304.761L299.827 375.496H298.73L295.988 372.754H269.67L262.542 367.819H257.607L251.027 371.657H224.709V381.527L213.743 389.203V390.848L206.615 393.041L202.228 396.88V403.459L198.39 411.684H185.231V423.747L195.1 436.906V455H135.335V433.068L142.463 424.295V411.136H124.369L119.982 407.297H115.596L111.209 411.136L106.823 411.684L101.34 414.425L96.9533 408.942L72.2795 399.073L61.8617 397.976L52.5405 401.266V356.305H54.7338V353.563H0.999756V280.639L26.7701 270.769V265.545H0.999756V163.849H11.4176V160.316H10.8693V157.818H10.321V128.21H11.4176V95.8595H134.238V110.115H135.883V90.6855H100.243V75.0238H121.079V70.6374H123.82V18H171.523V70.6374H174.264V75.0238H184.682L221.967 70.0891V90.9247L156.17 90.6855V110.115H158.364V95.8595H221.967V130.951H245.544V157.27H272.411V175.592H308.051V168.236H331.628V179.75H386.459ZM121.079 356.305V323.955H118.886V353.563H69.5381V356.305H121.079ZM158.364 312.989V280.639H143.559V312.989H158.364ZM95.8568 163.849V160.56H121.627V207.166H164.223V219.568H175.05V255.965H163.298V254.32H121.627V300.378H88.1805V276.801H76.1177V266.383H71.183V259.255H76.1177V253.223H118.337V163.849H95.8568ZM323.952 215.939V251.03H257.607V238.419H208.808V198.393H194.004V184.137H162.202V150.142H173.716V147.949H207.163V192.91H222.515V215.939H323.952ZM257.059 167.688V177.557H221.967V140.821H224.16V171.526H251.027L254.866 167.688H257.059ZM72.2796 163.849V160.56H33.8981V163.849H72.2796ZM101.34 202.779V179.202L67.734 178.98V202.779H101.34ZM278.991 269.673V303.119H234.03V269.673H278.991ZM332.725 337.662V302.571H321.458V312.989H245.544V314.634H249.931V337.662H284.474H298.73H332.725ZM237.32 325.6V337.662H181.941V302.571H192.907L185.231 321.762V332.179H222.515L237.32 325.6Z" fill="#271406"/>
<path d="M386.459 278.445V278.945H386.959V278.445H386.459ZM386.459 179.75H386.959V179.25H386.459V179.75ZM373.3 278.445V277.945H373.124L372.987 278.055L373.3 278.445ZM356.85 291.605L356.538 291.214L356.35 291.364V291.605H356.85ZM356.85 306.957H356.35V307.195L356.535 307.345L356.85 306.957ZM374.396 321.213L374.081 321.601L374.219 321.713H374.396V321.213ZM381.524 321.213H382.024V320.713H381.524V321.213ZM381.524 356.305L381.946 356.573L382.024 356.45V356.305H381.524ZM373.848 368.368V368.868H374.122L374.27 368.636L373.848 368.368ZM330.532 368.368V367.868H330.032V368.368H330.532ZM330.532 384.817L330.792 385.243L331.032 385.097V384.817H330.532ZM320.662 390.848L320.258 391.142L320.529 391.515L320.923 391.275L320.662 390.848ZM307.503 372.754L307.907 372.46L307.758 372.254H307.503V372.754ZM304.761 372.754V372.254H304.632L304.519 372.317L304.761 372.754ZM299.827 375.496V375.996H299.956L300.069 375.933L299.827 375.496ZM298.73 375.496L298.376 375.849L298.523 375.996H298.73V375.496ZM295.988 372.754L296.342 372.401L296.196 372.254H295.988V372.754ZM269.67 372.754L269.385 373.165L269.514 373.254H269.67V372.754ZM262.542 367.819L262.826 367.408L262.698 367.319H262.542V367.819ZM257.607 367.819V367.319H257.472L257.355 367.387L257.607 367.819ZM251.027 371.657V372.157H251.163L251.279 372.089L251.027 371.657ZM224.709 371.657V371.157H224.209V371.657H224.709ZM224.709 381.527L224.995 381.937L225.209 381.787V381.527H224.709ZM213.743 389.203L213.456 388.794L213.243 388.943V389.203H213.743ZM213.743 390.848L213.89 391.326L214.243 391.217V390.848H213.743ZM206.615 393.041L206.468 392.564L206.366 392.595L206.285 392.665L206.615 393.041ZM202.228 396.88L201.899 396.503L201.728 396.653V396.88H202.228ZM202.228 403.459L202.681 403.671L202.728 403.57V403.459H202.228ZM198.39 411.684V412.184H198.708L198.843 411.895L198.39 411.684ZM185.231 411.684V411.184H184.731V411.684H185.231ZM185.231 423.747H184.731V423.913L184.831 424.047L185.231 423.747ZM195.1 436.906H195.6V436.739L195.5 436.606L195.1 436.906ZM195.1 455V455.5H195.6V455H195.1ZM135.335 455H134.835V455.5H135.335V455ZM135.335 433.068L134.947 432.752L134.835 432.89V433.068H135.335ZM142.463 424.295L142.851 424.61L142.963 424.472V424.295H142.463ZM142.463 411.136H142.963V410.636H142.463V411.136ZM124.369 411.136L124.039 411.512L124.181 411.636H124.369V411.136ZM119.982 407.297L120.311 406.921L120.17 406.797H119.982V407.297ZM115.596 407.297V406.797H115.408L115.266 406.921L115.596 407.297ZM111.209 411.136L111.271 411.632L111.423 411.613L111.539 411.512L111.209 411.136ZM106.823 411.684L106.761 411.188L106.676 411.198L106.599 411.237L106.823 411.684ZM101.34 414.425L100.949 414.738L101.202 415.053L101.563 414.873L101.34 414.425ZM96.9533 408.942L97.3438 408.63L97.2614 408.527L97.139 408.478L96.9533 408.942ZM72.2795 399.073L72.4652 398.609L72.4008 398.583L72.3319 398.576L72.2795 399.073ZM61.8617 397.976L61.9141 397.479L61.8018 397.467L61.6953 397.505L61.8617 397.976ZM52.5405 401.266H52.0405V401.973L52.7069 401.737L52.5405 401.266ZM52.5405 356.305V355.805H52.0405V356.305H52.5405ZM54.7338 356.305V356.805H55.2338V356.305H54.7338ZM54.7338 353.563H55.2338V353.063H54.7338V353.563ZM0.999756 353.563H0.499756V354.063H0.999756V353.563ZM0.999756 280.639L0.820923 280.172L0.499756 280.295V280.639H0.999756ZM26.7701 270.769L26.949 271.236L27.2701 271.113V270.769H26.7701ZM26.7701 265.545H27.2701V265.045H26.7701V265.545ZM0.999756 265.545H0.499756V266.045H0.999756V265.545ZM0.999756 163.849V163.349H0.499756V163.849H0.999756ZM11.4176 163.849V164.349H11.9176V163.849H11.4176ZM11.4176 160.316H11.9176V159.816H11.4176V160.316ZM10.8693 160.316H10.3693V160.816H10.8693V160.316ZM10.8693 157.818H11.3693V157.318H10.8693V157.818ZM10.321 157.818H9.82095V158.318H10.321V157.818ZM10.321 128.21V127.71H9.82095V128.21H10.321ZM11.4176 128.21V128.71H11.9176V128.21H11.4176ZM11.4176 95.8595V95.3595H10.9176V95.8595H11.4176ZM134.238 95.8595H134.738V95.3595H134.238V95.8595ZM134.238 110.115H133.738V110.615H134.238V110.115ZM135.883 110.115V110.615H136.383V110.115H135.883ZM135.883 90.6855H136.383V90.1855H135.883V90.6855ZM100.243 90.6855H99.7432V91.1855H100.243V90.6855ZM100.243 75.0238V74.5238H99.7432V75.0238H100.243ZM121.079 75.0238V75.5238H121.579V75.0238H121.079ZM121.079 70.6374V70.1374H120.579V70.6374H121.079ZM123.82 70.6374V71.1374H124.32V70.6374H123.82ZM123.82 18V17.5H123.32V18H123.82ZM171.523 18H172.023V17.5H171.523V18ZM171.523 70.6374H171.023V71.1374H171.523V70.6374ZM174.264 70.6374H174.764V70.1374H174.264V70.6374ZM174.264 75.0238H173.764V75.5238H174.264V75.0238ZM184.682 75.0238V75.5238H184.715L184.748 75.5195L184.682 75.0238ZM221.967 70.0891H222.467V69.5186L221.902 69.5934L221.967 70.0891ZM221.967 90.9247L221.965 91.4247L222.467 91.4265V90.9247H221.967ZM156.17 90.6855L156.172 90.1855L155.67 90.1837V90.6855H156.17ZM156.17 110.115H155.67V110.615H156.17V110.115ZM158.364 110.115V110.615H158.864V110.115H158.364ZM158.364 95.8595V95.3595H157.864V95.8595H158.364ZM221.967 95.8595H222.467V95.3595H221.967V95.8595ZM221.967 130.951H221.467V131.451H221.967V130.951ZM245.544 130.951H246.044V130.451H245.544V130.951ZM245.544 157.27H245.044V157.77H245.544V157.27ZM272.411 157.27H272.911V156.77H272.411V157.27ZM272.411 175.592H271.911V176.092H272.411V175.592ZM308.051 175.592V176.092H308.551V175.592H308.051ZM308.051 168.236V167.736H307.551V168.236H308.051ZM331.628 168.236H332.128V167.736H331.628V168.236ZM331.628 179.75H331.128V180.25H331.628V179.75ZM121.079 323.955H121.579V323.455H121.079V323.955ZM121.079 356.305V356.805H121.579V356.305H121.079ZM118.886 323.955V323.455H118.386V323.955H118.886ZM118.886 353.563V354.063H119.386V353.563H118.886ZM69.5381 353.563V353.063H69.0381V353.563H69.5381ZM69.5381 356.305H69.0381V356.805H69.5381V356.305ZM158.364 280.639H158.864V280.139H158.364V280.639ZM158.364 312.989V313.489H158.864V312.989H158.364ZM143.559 280.639V280.139H143.059V280.639H143.559ZM143.559 312.989H143.059V313.489H143.559V312.989ZM95.8568 160.56V160.06H95.3568V160.56H95.8568ZM95.8568 163.849H95.3568V164.349H95.8568V163.849ZM121.627 160.56H122.127V160.06H121.627V160.56ZM121.627 207.166H121.127V207.666H121.627V207.166ZM164.223 207.166H164.723V206.666H164.223V207.166ZM164.223 219.568H163.723V220.068H164.223V219.568ZM175.05 219.568H175.55V219.068H175.05V219.568ZM175.05 255.965V256.465H175.55V255.965H175.05ZM163.298 255.965H162.798V256.465H163.298V255.965ZM163.298 254.32H163.798V253.82H163.298V254.32ZM121.627 254.32V253.82H121.127V254.32H121.627ZM121.627 300.378V300.878H122.127V300.378H121.627ZM88.1805 300.378H87.6805V300.878H88.1805V300.378ZM88.1805 276.801H88.6805V276.301H88.1805V276.801ZM76.1177 276.801H75.6177V277.301H76.1177V276.801ZM76.1177 266.383H76.6177V265.883H76.1177V266.383ZM71.183 266.383H70.683V266.883H71.183V266.383ZM71.183 259.255V258.755H70.683V259.255H71.183ZM76.1177 259.255V259.755H76.6177V259.255H76.1177ZM76.1177 253.223V252.723H75.6177V253.223H76.1177ZM118.337 253.223V253.723H118.837V253.223H118.337ZM118.337 163.849H118.837V163.349H118.337V163.849ZM323.952 251.03V251.53H324.452V251.03H323.952ZM323.952 215.939H324.452V215.439H323.952V215.939ZM257.607 251.03H257.107V251.53H257.607V251.03ZM257.607 238.419H258.107V237.919H257.607V238.419ZM208.808 238.419H208.308V238.919H208.808V238.419ZM208.808 198.393H209.308V197.893H208.808V198.393ZM194.004 198.393H193.504V198.893H194.004V198.393ZM194.004 184.137H194.504V183.637H194.004V184.137ZM162.202 184.137H161.702V184.637H162.202V184.137ZM162.202 150.142V149.642H161.702V150.142H162.202ZM173.716 150.142V150.642H174.216V150.142H173.716ZM173.716 147.949V147.449H173.216V147.949H173.716ZM207.163 147.949H207.663V147.449H207.163V147.949ZM207.163 192.91H206.663V193.41H207.163V192.91ZM222.515 192.91H223.015V192.41H222.515V192.91ZM222.515 215.939H222.015V216.439H222.515V215.939ZM257.059 177.557V178.057H257.559V177.557H257.059ZM257.059 167.688H257.559V167.188H257.059V167.688ZM221.967 177.557H221.467V178.057H221.967V177.557ZM221.967 140.821V140.321H221.467V140.821H221.967ZM224.16 140.821H224.66V140.321H224.16V140.821ZM224.16 171.526H223.66V172.026H224.16V171.526ZM251.027 171.526V172.026H251.234L251.381 171.879L251.027 171.526ZM254.866 167.688V167.188H254.658L254.512 167.334L254.866 167.688ZM72.2796 160.56H72.7796V160.06H72.2796V160.56ZM72.2796 163.849V164.349H72.7796V163.849H72.2796ZM33.8981 160.56V160.06H33.3981V160.56H33.8981ZM33.8981 163.849H33.3981V164.349H33.8981V163.849ZM101.34 179.202H101.84V178.705L101.343 178.702L101.34 179.202ZM101.34 202.779V203.279H101.84V202.779H101.34ZM67.734 178.98L67.7373 178.48L67.234 178.477V178.98H67.734ZM67.734 202.779H67.234V203.279H67.734V202.779ZM278.991 303.119V303.619H279.491V303.119H278.991ZM278.991 269.673H279.491V269.173H278.991V269.673ZM234.03 303.119H233.53V303.619H234.03V303.119ZM234.03 269.673V269.173H233.53V269.673H234.03ZM332.725 302.571H333.225V302.071H332.725V302.571ZM332.725 337.662V338.162H333.225V337.662H332.725ZM321.458 302.571V302.071H320.958V302.571H321.458ZM321.458 312.989V313.489H321.958V312.989H321.458ZM245.544 312.989V312.489H245.044V312.989H245.544ZM245.544 314.634H245.044V315.134H245.544V314.634ZM249.931 314.634H250.431V314.134H249.931V314.634ZM249.931 337.662H249.431V338.162H249.931V337.662ZM237.32 337.662V338.162H237.82V337.662H237.32ZM237.32 325.6H237.82V324.83L237.117 325.143L237.32 325.6ZM181.941 337.662H181.441V338.162H181.941V337.662ZM181.941 302.571V302.071H181.441V302.571H181.941ZM192.907 302.571L193.371 302.757L193.645 302.071H192.907V302.571ZM185.231 321.762L184.766 321.576L184.731 321.665V321.762H185.231ZM185.231 332.179H184.731V332.679H185.231V332.179ZM222.515 332.179V332.679H222.622L222.719 332.636L222.515 332.179ZM386.459 278.445H386.959V179.75H386.459H385.959V278.445H386.459ZM373.3 278.445V278.945H386.459V278.445V277.945H373.3V278.445ZM356.85 291.605L357.163 291.995L373.612 278.836L373.3 278.445L372.987 278.055L356.538 291.214L356.85 291.605ZM356.85 306.957H357.35V291.605H356.85H356.35V306.957H356.85ZM374.396 321.213L374.712 320.825L357.166 306.569L356.85 306.957L356.535 307.345L374.081 321.601L374.396 321.213ZM381.524 321.213V320.713H374.396V321.213V321.713H381.524V321.213ZM381.524 356.305H382.024V321.213H381.524H381.024V356.305H381.524ZM373.848 368.368L374.27 368.636L381.946 356.573L381.524 356.305L381.102 356.036L373.426 368.099L373.848 368.368ZM330.532 368.368V368.868H373.848V368.368V367.868H330.532V368.368ZM330.532 384.817H331.032V368.368H330.532H330.032V384.817H330.532ZM320.662 390.848L320.923 391.275L330.792 385.243L330.532 384.817L330.271 384.39L320.402 390.422L320.662 390.848ZM307.503 372.754L307.099 373.048L320.258 391.142L320.662 390.848L321.067 390.554L307.907 372.46L307.503 372.754ZM304.761 372.754V373.254H307.503V372.754V372.254H304.761V372.754ZM299.827 375.496L300.069 375.933L305.004 373.191L304.761 372.754L304.519 372.317L299.584 375.059L299.827 375.496ZM298.73 375.496V375.996H299.827V375.496V374.996H298.73V375.496ZM295.988 372.754L295.635 373.108L298.376 375.849L298.73 375.496L299.084 375.142L296.342 372.401L295.988 372.754ZM269.67 372.754V373.254H295.988V372.754V372.254H269.67V372.754ZM262.542 367.819L262.257 368.23L269.385 373.165L269.67 372.754L269.954 372.343L262.826 367.408L262.542 367.819ZM257.607 367.819V368.319H262.542V367.819V367.319H257.607V367.819ZM251.027 371.657L251.279 372.089L257.859 368.251L257.607 367.819L257.355 367.387L250.775 371.226L251.027 371.657ZM224.709 371.657V372.157H251.027V371.657V371.157H224.709V371.657ZM224.709 381.527H225.209V371.657H224.709H224.209V381.527H224.709ZM213.743 389.203L214.029 389.613L224.995 381.937L224.709 381.527L224.422 381.117L213.456 388.794L213.743 389.203ZM213.743 390.848H214.243V389.203H213.743H213.243V390.848H213.743ZM206.615 393.041L206.762 393.519L213.89 391.326L213.743 390.848L213.595 390.37L206.468 392.564L206.615 393.041ZM202.228 396.88L202.557 397.256L206.944 393.418L206.615 393.041L206.285 392.665L201.899 396.503L202.228 396.88ZM202.228 403.459H202.728V396.88H202.228H201.728V403.459H202.228ZM198.39 411.684L198.843 411.895L202.681 403.671L202.228 403.459L201.775 403.248L197.937 411.472L198.39 411.684ZM185.231 411.684V412.184H198.39V411.684V411.184H185.231V411.684ZM185.231 423.747H185.731V411.684H185.231H184.731V423.747H185.231ZM195.1 436.906L195.5 436.606L185.631 423.447L185.231 423.747L184.831 424.047L194.7 437.206L195.1 436.906ZM195.1 455H195.6V436.906H195.1H194.6V455H195.1ZM135.335 455V455.5H195.1V455V454.5H135.335V455ZM135.335 433.068H134.835V455H135.335H135.835V433.068H135.335ZM142.463 424.295L142.075 423.98L134.947 432.752L135.335 433.068L135.723 433.383L142.851 424.61L142.463 424.295ZM142.463 411.136H141.963V424.295H142.463H142.963V411.136H142.463ZM124.369 411.136V411.636H142.463V411.136V410.636H124.369V411.136ZM119.982 407.297L119.653 407.674L124.039 411.512L124.369 411.136L124.698 410.759L120.311 406.921L119.982 407.297ZM115.596 407.297V407.797H119.982V407.297V406.797H115.596V407.297ZM111.209 411.136L111.539 411.512L115.925 407.674L115.596 407.297L115.266 406.921L110.88 410.759L111.209 411.136ZM106.823 411.684L106.885 412.18L111.271 411.632L111.209 411.136L111.147 410.639L106.761 411.188L106.823 411.684ZM101.34 414.425L101.563 414.873L107.046 412.131L106.823 411.684L106.599 411.237L101.116 413.978L101.34 414.425ZM96.9533 408.942L96.5629 409.255L100.949 414.738L101.34 414.425L101.73 414.113L97.3438 408.63L96.9533 408.942ZM72.2795 399.073L72.0938 399.537L96.7676 409.407L96.9533 408.942L97.139 408.478L72.4652 398.609L72.2795 399.073ZM61.8617 397.976L61.8094 398.473L72.2272 399.57L72.2795 399.073L72.3319 398.576L61.9141 397.479L61.8617 397.976ZM52.5405 401.266L52.7069 401.737L62.0281 398.448L61.8617 397.976L61.6953 397.505L52.3741 400.794L52.5405 401.266ZM52.5405 356.305H52.0405V401.266H52.5405H53.0405V356.305H52.5405ZM54.7338 356.305V355.805H52.5405V356.305V356.805H54.7338V356.305ZM54.7338 353.563H54.2338V356.305H54.7338H55.2338V353.563H54.7338ZM0.999756 353.563V354.063H54.7338V353.563V353.063H0.999756V353.563ZM0.999756 280.639H0.499756V353.563H0.999756H1.49976V280.639H0.999756ZM26.7701 270.769L26.5913 270.302L0.820923 280.172L0.999756 280.639L1.17859 281.106L26.949 271.236L26.7701 270.769ZM26.7701 265.545H26.2701V270.769H26.7701H27.2701V265.545H26.7701ZM0.999756 265.545V266.045H26.7701V265.545V265.045H0.999756V265.545ZM0.999756 163.849H0.499756V265.545H0.999756H1.49976V163.849H0.999756ZM11.4176 163.849V163.349H0.999756V163.849V164.349H11.4176V163.849ZM11.4176 160.316H10.9176V163.849H11.4176H11.9176V160.316H11.4176ZM10.8693 160.316V160.816H11.4176V160.316V159.816H10.8693V160.316ZM10.8693 157.818H10.3693V160.316H10.8693H11.3693V157.818H10.8693ZM10.321 157.818V158.318H10.8693V157.818V157.318H10.321V157.818ZM10.321 128.21H9.82095V157.818H10.321H10.821V128.21H10.321ZM11.4176 128.21V127.71H10.321V128.21V128.71H11.4176V128.21ZM11.4176 95.8595H10.9176V128.21H11.4176H11.9176V95.8595H11.4176ZM134.238 95.8595V95.3595H11.4176V95.8595V96.3595H134.238V95.8595ZM134.238 110.115H134.738V95.8595H134.238H133.738V110.115H134.238ZM135.883 110.115V109.615H134.238V110.115V110.615H135.883V110.115ZM135.883 90.6855H135.383V110.115H135.883H136.383V90.6855H135.883ZM100.243 90.6855V91.1855H135.883V90.6855V90.1855H100.243V90.6855ZM100.243 75.0238H99.7432V90.6855H100.243H100.743V75.0238H100.243ZM121.079 75.0238V74.5238H100.243V75.0238V75.5238H121.079V75.0238ZM121.079 70.6374H120.579V75.0238H121.079H121.579V70.6374H121.079ZM123.82 70.6374V70.1374H121.079V70.6374V71.1374H123.82V70.6374ZM123.82 18H123.32V70.6374H123.82H124.32V18H123.82ZM171.523 18V17.5H123.82V18V18.5H171.523V18ZM171.523 70.6374H172.023V18H171.523H171.023V70.6374H171.523ZM174.264 70.6374V70.1374H171.523V70.6374V71.1374H174.264V70.6374ZM174.264 75.0238H174.764V70.6374H174.264H173.764V75.0238H174.264ZM184.682 75.0238V74.5238H174.264V75.0238V75.5238H184.682V75.0238ZM221.967 70.0891L221.902 69.5934L184.617 74.5282L184.682 75.0238L184.748 75.5195L222.033 70.5847L221.967 70.0891ZM221.967 90.9247H222.467V70.0891H221.967H221.467V90.9247H221.967ZM156.17 90.6855L156.169 91.1855L221.965 91.4247L221.967 90.9247L221.969 90.4247L156.172 90.1855L156.17 90.6855ZM156.17 110.115H156.67V90.6855H156.17H155.67V110.115H156.17ZM158.364 110.115V109.615H156.17V110.115V110.615H158.364V110.115ZM158.364 95.8595H157.864V110.115H158.364H158.864V95.8595H158.364ZM221.967 95.8595V95.3595H158.364V95.8595V96.3595H221.967V95.8595ZM221.967 130.951H222.467V95.8595H221.967H221.467V130.951H221.967ZM245.544 130.951V130.451H221.967V130.951V131.451H245.544V130.951ZM245.544 157.27H246.044V130.951H245.544H245.044V157.27H245.544ZM272.411 157.27V156.77H245.544V157.27V157.77H272.411V157.27ZM272.411 175.592H272.911V157.27H272.411H271.911V175.592H272.411ZM308.051 175.592V175.092H272.411V175.592V176.092H308.051V175.592ZM308.051 168.236H307.551V175.592H308.051H308.551V168.236H308.051ZM331.628 168.236V167.736H308.051V168.236V168.736H331.628V168.236ZM331.628 179.75H332.128V168.236H331.628H331.128V179.75H331.628ZM386.459 179.75V179.25H331.628V179.75V180.25H386.459V179.75ZM121.079 323.955H120.579V356.305H121.079H121.579V323.955H121.079ZM118.886 323.955V324.455H121.079V323.955V323.455H118.886V323.955ZM118.886 353.563H119.386V323.955H118.886H118.386V353.563H118.886ZM69.5381 353.563V354.063H118.886V353.563V353.063H69.5381V353.563ZM69.5381 356.305H70.0381V353.563H69.5381H69.0381V356.305H69.5381ZM121.079 356.305V355.805H69.5381V356.305V356.805H121.079V356.305ZM158.364 280.639H157.864V312.989H158.364H158.864V280.639H158.364ZM143.559 280.639V281.139H158.364V280.639V280.139H143.559V280.639ZM143.559 312.989H144.059V280.639H143.559H143.059V312.989H143.559ZM158.364 312.989V312.489H143.559V312.989V313.489H158.364V312.989ZM95.8568 160.56H95.3568V163.849H95.8568H96.3568V160.56H95.8568ZM121.627 160.56V160.06H95.8568V160.56V161.06H121.627V160.56ZM121.627 207.166H122.127V160.56H121.627H121.127V207.166H121.627ZM164.223 207.166V206.666H121.627V207.166V207.666H164.223V207.166ZM164.223 219.568H164.723V207.166H164.223H163.723V219.568H164.223ZM175.05 219.568V219.068H164.223V219.568V220.068H175.05V219.568ZM175.05 255.965H175.55V219.568H175.05H174.55V255.965H175.05ZM163.298 255.965V256.465H175.05V255.965V255.465H163.298V255.965ZM163.298 254.32H162.798V255.965H163.298H163.798V254.32H163.298ZM121.627 254.32V254.82H163.298V254.32V253.82H121.627V254.32ZM121.627 300.378H122.127V254.32H121.627H121.127V300.378H121.627ZM88.1805 300.378V300.878H121.627V300.378V299.878H88.1805V300.378ZM88.1805 276.801H87.6805V300.378H88.1805H88.6805V276.801H88.1805ZM76.1177 276.801V277.301H88.1805V276.801V276.301H76.1177V276.801ZM76.1177 266.383H75.6177V276.801H76.1177H76.6177V266.383H76.1177ZM71.183 266.383V266.883H76.1177V266.383V265.883H71.183V266.383ZM71.183 259.255H70.683V266.383H71.183H71.683V259.255H71.183ZM76.1177 259.255V258.755H71.183V259.255V259.755H76.1177V259.255ZM76.1177 253.223H75.6177V259.255H76.1177H76.6177V253.223H76.1177ZM118.337 253.223V252.723H76.1177V253.223V253.723H118.337V253.223ZM118.337 163.849H117.837V253.223H118.337H118.837V163.849H118.337ZM95.8568 163.849V164.349H118.337V163.849V163.349H95.8568V163.849ZM323.952 251.03H324.452V215.939H323.952H323.452V251.03H323.952ZM257.607 251.03V251.53H323.952V251.03V250.53H257.607V251.03ZM257.607 238.419H257.107V251.03H257.607H258.107V238.419H257.607ZM208.808 238.419V238.919H257.607V238.419V237.919H208.808V238.419ZM208.808 198.393H208.308V238.419H208.808H209.308V198.393H208.808ZM194.004 198.393V198.893H208.808V198.393V197.893H194.004V198.393ZM194.004 184.137H193.504V198.393H194.004H194.504V184.137H194.004ZM162.202 184.137V184.637H194.004V184.137V183.637H162.202V184.137ZM162.202 150.142H161.702V184.137H162.202H162.702V150.142H162.202ZM173.716 150.142V149.642H162.202V150.142V150.642H173.716V150.142ZM173.716 147.949H173.216V150.142H173.716H174.216V147.949H173.716ZM207.163 147.949V147.449H173.716V147.949V148.449H207.163V147.949ZM207.163 192.91H207.663V147.949H207.163H206.663V192.91H207.163ZM222.515 192.91V192.41H207.163V192.91V193.41H222.515V192.91ZM222.515 215.939H223.015V192.91H222.515H222.015V215.939H222.515ZM323.952 215.939V215.439H222.515V215.939V216.439H323.952V215.939ZM257.059 177.557H257.559V167.688H257.059H256.559V177.557H257.059ZM221.967 177.557V178.057H257.059V177.557V177.057H221.967V177.557ZM221.967 140.821H221.467V177.557H221.967H222.467V140.821H221.967ZM224.16 140.821V140.321H221.967V140.821V141.321H224.16V140.821ZM224.16 171.526H224.66V140.821H224.16H223.66V171.526H224.16ZM251.027 171.526V171.026H224.16V171.526V172.026H251.027V171.526ZM254.866 167.688L254.512 167.334L250.674 171.172L251.027 171.526L251.381 171.879L255.219 168.041L254.866 167.688ZM257.059 167.688V167.188H254.866V167.688V168.188H257.059V167.688ZM72.2796 160.56H71.7796V163.849H72.2796H72.7796V160.56H72.2796ZM33.8981 160.56V161.06H72.2796V160.56V160.06H33.8981V160.56ZM33.8981 163.849H34.3981V160.56H33.8981H33.3981V163.849H33.8981ZM72.2796 163.849V163.349H33.8981V163.849V164.349H72.2796V163.849ZM101.34 179.202H100.84V202.779H101.34H101.84V179.202H101.34ZM67.734 178.98L67.7307 179.48L101.337 179.702L101.34 179.202L101.343 178.702L67.7373 178.48L67.734 178.98ZM67.734 202.779H68.234V178.98H67.734H67.234V202.779H67.734ZM101.34 202.779V202.279H67.734V202.779V203.279H101.34V202.779ZM278.991 303.119H279.491V269.673H278.991H278.491V303.119H278.991ZM234.03 303.119V303.619H278.991V303.119V302.619H234.03V303.119ZM234.03 269.673H233.53V303.119H234.03H234.53V269.673H234.03ZM278.991 269.673V269.173H234.03V269.673V270.173H278.991V269.673ZM332.725 302.571H332.225V337.662H332.725H333.225V302.571H332.725ZM321.458 302.571V303.071H332.725V302.571V302.071H321.458V302.571ZM321.458 312.989H321.958V302.571H321.458H320.958V312.989H321.458ZM245.544 312.989V313.489H321.458V312.989V312.489H245.544V312.989ZM245.544 314.634H246.044V312.989H245.544H245.044V314.634H245.544ZM249.931 314.634V314.134H245.544V314.634V315.134H249.931V314.634ZM249.931 337.662H250.431V314.634H249.931H249.431V337.662H249.931ZM284.474 337.662V337.162H249.931V337.662V338.162H284.474V337.662ZM298.73 337.662V337.162H284.474V337.662V338.162H298.73V337.662ZM332.725 337.662V337.162H298.73V337.662V338.162H332.725V337.662ZM237.32 337.662H237.82V325.6H237.32H236.82V337.662H237.32ZM181.941 337.662V338.162H237.32V337.662V337.162H181.941V337.662ZM181.941 302.571H181.441V337.662H181.941H182.441V302.571H181.941ZM192.907 302.571V302.071H181.941V302.571V303.071H192.907V302.571ZM185.231 321.762L185.695 321.947L193.371 302.757L192.907 302.571L192.443 302.385L184.766 321.576L185.231 321.762ZM185.231 332.179H185.731V321.762H185.231H184.731V332.179H185.231ZM222.515 332.179V331.679H185.231V332.179V332.679H222.515V332.179ZM237.32 325.6L237.117 325.143L222.312 331.723L222.515 332.179L222.719 332.636L237.523 326.057L237.32 325.6Z" fill="#B27C40"/>
<path d="M225.805 371.109V359.046H224.709M224.709 350.822H225.805V337.662" stroke="#B27C40" stroke-opacity="0.23" stroke-width="0.5"/>
<path d="M249.931 369.464H237.32M237.32 369.464V371.657M237.32 369.464C237.32 369.026 237.32 366.723 237.32 365.626M237.32 359.595V350.274M237.32 344.242V339.856M237.32 337.662V339.856M237.32 339.856H249.931" stroke="#B27C40" stroke-opacity="0.23"/>
<path d="M73.9243 319.02V331.083M34.4463 319.02V331.083M118.885 343.146H0.999597M59.1201 369.464C59.1201 370.342 59.1201 374.947 59.1201 377.141H55.2819M52.5404 377.141H55.2819M55.2819 377.141V379.882H52.5404M232.933 327.793L231.288 324.503L215.387 332.179M189.069 332.179V312.989" stroke="#B27C40" stroke-width="0.5"/>
<path d="M32.8017 213.197V228.001M32.8017 228.001H72.2797M32.8017 228.001V238.967H39.3813M47.6059 238.967H72.2797M134.238 107.374C133.361 107.374 127.293 107.374 124.369 107.374M124.369 107.374V111.76H117.241V111.212M124.369 107.374V104.084M117.241 104.084V111.212M117.241 104.084H116.693M117.241 104.084H124.369M108.468 104.084V109.567M108.468 104.084H104.081M108.468 104.084H116.693M117.241 111.212H108.468V109.567M108.468 109.567H104.081M101.888 95.8595V109.567H104.081M104.081 109.567V104.084M104.081 95.8595V104.084M116.693 95.8595V104.084M124.369 95.8595V104.084M156.719 135.886V110.115M135.335 135.886V113.954M135.335 110.115V113.954M135.335 113.954H133.142C132.173 111.053 131.222 110.44 129.304 110.115V107.922M158.364 109.567C158.522 109.567 161.391 109.567 165.492 109.567M190.714 95.8595V109.567C190.111 109.567 189.473 109.567 188.807 109.567M188.807 109.567V102.713M188.807 109.567C185.976 109.567 182.625 109.567 179.199 109.567M188.807 95.8595V102.713M188.807 102.713H179.199M179.199 102.713V109.567M179.199 102.713V97.5044M179.199 95.8595V97.5044M179.199 109.567C174.362 109.567 169.374 109.567 165.492 109.567M179.199 97.5044H165.492M165.492 97.5044V95.8595M165.492 97.5044V101.891M165.492 109.567V101.891M165.492 101.891H158.364M246.093 157.27H239.513V151.787H245.544M133.69 207.166V173.719H132.045M121.627 173.719H128.755M132.045 173.719V169.881H128.755M132.045 173.719H128.755M128.755 169.881V173.719M128.755 169.881V167.139H125.465M121.627 167.139H125.191H125.465M125.465 167.139V163.301H121.627M135.335 254.32V261.448H128.755M122.176 261.448H128.755M128.755 261.448V254.32M185.231 411.684V405.104M185.231 384.817V405.104M141.915 384.817V411.136M185.231 405.104H193.455M198.938 410.587V405.104H193.455M193.455 411.684V405.104" stroke="#B27C40"/>
<path d="M48.1541 238.967H38.2846M52.5405 288.315V300.378M49.799 319.02V314.085H47.6058M47.6058 314.085H39.9295V318.472M47.6058 314.085V318.472M47.6058 319.02V318.472M39.9295 319.02V318.472M39.9295 318.472H47.6058" stroke="#B27C40" stroke-width="0.5"/>
<path d="M327.242 269.673H298.73M339.853 283.38H317.372M308.6 283.38H305.858M298.73 283.38H302.568M321.211 302.571H317.372V303.668H321.211M278.991 303.119H300.375M305.858 283.38V279.542H302.568V283.38M305.858 283.38H302.568M263.09 251.03V257.61H257.607V251.03M234.03 303.119H227.999V302.023H234.03M207.711 302.023V303.119H220.871V302.023H208.808M207.711 302.023V210.456M207.711 302.023H208.808M208.808 245.547V302.023M195.1 210.456V269.673M194.004 210.456V230.743M194.004 245.547V269.673M194.004 280.09V303.119H192.907M195.1 280.09V284.477M195.1 303.668V284.477M195.1 284.477H198.938V280.639H195.649M168.782 332.728V312.989H158.364M202.228 347.532H225.257M244.996 337.663H249.931M238.965 337.663H236.771M305.858 372.754V353.563H276.798V372.754M107.371 369.464C106.933 369.464 71.0002 369.464 53.0889 369.464M74.4728 331.083H33.8982M33.8982 319.02H40.4779M47.0575 319.02H57.4754M65.6999 319.02H74.4728M0.999816 311.892H12.5142V304.764H0.999816M27.3185 304.764V288.315H32.2533M71.7313 304.764V288.315H65.6999M65.6999 288.315V300.378H32.2533V288.315M65.6999 288.315H32.2533M308.6 302.571H299.278V303.668H308.6V302.571ZM20.1905 333.276L20.7388 326.148L13.6109 325.6L13.0626 332.728L20.1905 333.276Z" stroke="#B27C40"/>
<path d="M56.9271 300.378C56.9271 299.939 56.9271 292.153 56.9271 288.315M95.3085 300.378V320.665H88.1806V300.378M118.337 242.257C117.899 242.257 113.768 242.257 111.758 242.257V242.806M111.758 253.223V246.644M107.92 246.644V242.806M107.92 246.644H104.63M107.92 246.644H111.758M107.92 242.806H111.758M107.92 242.806H104.63V246.644M111.758 242.806V246.644M104.63 246.644V253.223M94.7602 253.223V244.45H87.084V253.223M22.9321 178.654C23.8094 178.654 53.2717 178.654 67.8932 178.654M61.8619 190.168H0.999883M67.8932 202.779H40.4779M26.7703 266.383V253.223H10.8694V213.197H33.8983V209.359M33.8983 209.359V202.779H40.4779M33.8983 209.359H40.4779V202.779" stroke="#B27C40"/>
<path d="M276.798 215.939V209.359H270.218V215.939M256.511 215.939V204.424M222.516 192.91H256.511V204.424M222.516 204.424H256.511" stroke="#B27C40"/>
<path d="M339.853 269.673H336.015" stroke="#B27C40"/>
<path d="M351.916 232.388H365.075V198.941H351.916V226.356M351.916 232.388H344.788V226.356H351.916M351.916 232.388V226.356M386.459 189.62H382.621V185.233M382.621 185.233H378.783V179.75M382.621 185.233H386.459M300.375 192.91H323.952V203.876H291.054V192.91H293.795M300.375 192.91V185.782H293.795V192.91M300.375 192.91H293.795" stroke="#B27C40"/>
<path d="M293.795 189.072C291.693 188.945 291.218 189.987 291.054 192.91" stroke="#B27C40"/>
<path d="M76.1177 253.223C75.679 253.223 58.0236 253.223 49.2507 253.223V276.801H76.1177M76.1177 270.769H55.8303V266.383H71.1829M55.282 266.383H54.1854V259.255H71.1829" stroke="#B27C40"/>
<path d="M339.305 283.38V269.673M299.278 269.673V283.38M317.921 283.38V303.119M308.051 283.38V303.119M273.508 312.989V309.699H270.218V312.989M218.129 303.119V306.409H214.291V303.119M227.999 302.571H220.871M217.032 302.023V294.346H234.03M194.004 280.639V269.124M181.941 302.571H158.364M168.781 321.213C168.343 321.213 160.922 321.213 157.267 321.213M157.267 321.213H153.429V312.989H157.267V321.213ZM224.709 371.657V347.532" stroke="#B27C40" stroke-width="0.5"/>
<path d="M249.931 371.658V337.663M330.532 370.561L323.404 385.913M323.404 385.913H320.114L318.469 388.107M323.404 385.913L323.623 386.462M324.501 388.655L323.623 386.462M323.623 386.462L325.597 384.817H326.145M327.79 386.462L326.694 384.817H326.145M326.145 384.817V381.527L327.79 379.334H330.532M379.879 358.498L378.235 356.853V352.467L381.524 350.274M198.39 147.949V144.659H194.552V147.949M67.8933 178.654V174.267H63.5068V178.654M71.7314 238.967V228.001M104.081 160.56H99.695C98.7942 158.785 98.6985 157.917 99.695 156.722H104.081C105.522 157.835 105.681 158.634 104.081 160.56Z" stroke="#B27C40" stroke-width="0.5"/>
<path d="M141.915 405.104H134.787M134.787 405.104V408.394M134.787 405.104H127.659V408.394M130.948 408.394V411.136H134.787V408.394M130.948 408.394H134.787M130.948 408.394H127.659M127.659 408.394V411.136M5.93464 163.849V170.429H0.999881M66.2483 319.02H56.9271M95.3085 320.665C95.7472 320.665 99.5122 320.665 101.34 320.665M114.499 408.394L113.403 405.652L109.016 406.749V408.942M109.016 408.942L110.661 411.136M109.016 408.942L106.823 410.587M106.823 410.587L107.371 411.684M106.823 410.587L104.63 406.749L100.243 406.201L98.0501 407.846V410.587M89.8255 406.201L87.0839 402.911H86.5356L85.439 401.814H83.2458M83.2458 401.814V403.459M83.2458 401.814V399.621L79.956 397.428L76.6661 400.718M69.5381 399.073V396.331L67.3449 395.235H63.5068L63.1966 395.545M62.4102 397.976V396.331L63.1966 395.545M63.1966 395.545L60.7652 392.493L57.4754 390.848L52.5407 393.041M56.9271 95.8595V109.567H54.1856V95.8595" stroke="#B27C40" stroke-width="0.5"/>
<path d="M336.563 269.673C335.686 269.673 329.618 269.673 326.693 269.673" stroke="#B27C40" stroke-width="0.5"/>
<path d="M207.711 245.547H195.1M195.1 231.291H208.259" stroke="#B27C40" stroke-opacity="0.23" stroke-width="0.5"/>
<path d="M60.7652 353.563H54.7338M60.7652 353.563V346.435H53.0889V353.563M60.7652 353.563C61.2039 353.563 66.7966 353.563 69.5381 353.563M332.177 269.673V276.8H306.406V269.673" stroke="#B27C40" stroke-opacity="0.23"/>
<path fill-rule="evenodd" clip-rule="evenodd" d="M87.6323 353.015H1.54832V311.892H12.5144V304.764L87.6323 304.764V353.015ZM1.54832 304.764L1.00001 304.764V311.892H1.54832V304.764ZM20.1907 333.276L20.739 326.148L13.611 325.6L13.0627 332.728L20.1907 333.276Z" fill="#F08234" fill-opacity="0.2"/>
<path d="M26.0503 320.151H27.5972L24.7808 312.151H22.9917L20.1714 320.151H21.7183L23.855 313.791H23.9175L26.0503 320.151ZM25.9995 317.014H21.7808V318.178H25.9995V317.014Z" fill="white"/>
<path d="M332.725 302.571H292.15V251.031H323.952V244.45H346.981V308.054H332.725V302.571Z" fill="#F08234" fill-opacity="0.23"/>
<path d="M331.321 294.928V286.928H334.383C334.961 286.928 335.442 287.02 335.825 287.202C336.21 287.382 336.498 287.628 336.688 287.94C336.881 288.253 336.977 288.607 336.977 289.003C336.977 289.328 336.915 289.607 336.79 289.839C336.665 290.068 336.497 290.254 336.286 290.397C336.075 290.54 335.839 290.643 335.579 290.706V290.784C335.862 290.8 336.135 290.887 336.395 291.046C336.658 291.202 336.873 291.423 337.04 291.71C337.206 291.996 337.29 292.343 337.29 292.749C337.29 293.163 337.189 293.535 336.989 293.866C336.788 294.194 336.486 294.453 336.083 294.643C335.679 294.833 335.171 294.928 334.559 294.928H331.321ZM332.77 293.718H334.329C334.855 293.718 335.234 293.617 335.465 293.417C335.7 293.214 335.817 292.953 335.817 292.635C335.817 292.399 335.758 292.185 335.641 291.995C335.524 291.802 335.357 291.651 335.141 291.542C334.925 291.43 334.667 291.374 334.368 291.374H332.77V293.718ZM332.77 290.331H334.204C334.454 290.331 334.679 290.285 334.879 290.194C335.08 290.1 335.237 289.969 335.352 289.8C335.469 289.628 335.528 289.425 335.528 289.19C335.528 288.88 335.418 288.625 335.2 288.425C334.984 288.224 334.662 288.124 334.235 288.124H332.77V290.331Z" fill="white"/>
<path d="M43.7676 238.967V318.472" stroke="#B27C40" stroke-opacity="0.23" stroke-dasharray="3 3"/>
</svg>
