<svg width="494" height="473" viewBox="0 0 494 473" fill="none" xmlns="http://www.w3.org/2000/svg">
<path fill-rule="evenodd" clip-rule="evenodd" d="M417.918 188.059V204.034H399.366V148.379L378.237 127.25V112.305H398.851V92.2076L300.422 45.3125H268.987V18H191.688V82.4163H121.088C120.916 103.029 120.675 144.256 121.088 144.256H147.885V147.348H43.788V234.954H25.2361L0.500275 260.205V403.982H120.057V455H232.399C234.093 453.73 235.254 453.328 237.552 452.939L246.313 450.877C248.588 450.259 249.286 449.521 249.92 447.785C251.84 444.24 252.956 441.617 254.073 438.99C254.702 437.512 255.331 436.032 256.104 434.387L262.803 413.258V410.166L267.441 404.498V393.16H396.274V350.388H469.966V318.438H459.659C459.488 302.634 459.659 271.027 459.659 271.027H492.641V205.58C489.628 193.495 485.006 190.184 473.573 188.059H417.918ZM296.3 357.087V328.229V327.713H288.055V321.529H247.343V291.125H236.006V301.947H244.251V331.836H213.332V324.106H202.51V330.805H211.27V403.982H238.583V357.087H296.3ZM204.056 252.475H210.755V299.886H223.123V301.947H170.559V353.48H117.996V342.658L122.118 336.474V329.259C119.087 326.475 118.511 324.621 118.511 319.468C120.057 314.83 120.726 313.882 124.18 311.223V272.058H155.615V279.788C155.615 280.2 187.909 279.96 204.056 279.788V252.475ZM88.1064 342.143V309.162H77.2845V349.873H89.6524V380.792H155.099V373.578H92.2291V342.143H88.1064ZM440.077 311.738V318.438H374.115V357.087H315.367V327.713H359.17V277.211H401.943V311.738H440.077ZM417.918 252.991V230.316H398.851V234.439L390.605 242.169H348.348V213.825H331.858V222.071H289.085V236.5H305.06V291.125H273.11V306.07H287.539V293.702H334.434V245.261H367.415V252.991H417.918ZM471.512 235.985V245.261H459.659V235.985H471.512ZM438.016 290.094V275.15H431.832V290.094H438.016ZM95.8364 178.268V187.544V188.059H86.0451V178.268H95.8364ZM72.1312 230.316H69.5545V261.751H63.3706C62.2189 262.965 61.9292 263.773 61.8246 265.358C61.9282 266.886 62.3076 267.536 63.3706 268.45H69.5545V279.788H22.6595V284.941H89.1371V261.751H72.1312V230.316ZM54.61 339.566H58.2173V315.861H26.2668V339.566H29.3588V331.836H54.61V339.566ZM60.2786 373.578V380.792H13.8989V373.578H60.2786ZM175.197 107.667H223.123V224.132H253.012V211.764H267.441V236.5H155.615V261.236H152.523V221.04H114.388V216.917H126.241V205.065C129.116 203.234 130.352 201.99 131.909 199.396L139.639 188.059C140.713 186.233 141.575 185.498 144.277 185.482V179.814L150.461 176.206L162.829 172.084H165.406V144.256C166.148 142.076 167.425 141.799 170.044 141.679C170.389 138.143 171.646 137.133 175.197 136.526V107.667ZM288.055 75.717V120.551H345.256V127.765H339.072V188.059H248.889V171.053H281.355V119.005H251.981V116.428H268.987V75.717H288.055Z" fill="#271406"/>
<path d="M417.918 204.034V204.534H418.418V204.034H417.918ZM417.918 188.059V187.559H417.418V188.059H417.918ZM399.366 204.034H398.866V204.534H399.366V204.034ZM399.366 148.379H399.866V148.171L399.719 148.025L399.366 148.379ZM378.237 127.25H377.737V127.457L377.884 127.604L378.237 127.25ZM378.237 112.305V111.805H377.737V112.305H378.237ZM398.851 112.305V112.805H399.351V112.305H398.851ZM398.851 92.2076H399.351V91.8919L399.066 91.7562L398.851 92.2076ZM300.422 45.3125L300.638 44.8611L300.535 44.8125H300.422V45.3125ZM268.987 45.3125H268.487V45.8125H268.987V45.3125ZM268.987 18H269.487V17.5H268.987V18ZM191.688 18V17.5H191.188V18H191.688ZM191.688 82.4163V82.9163H192.188V82.4163H191.688ZM121.088 82.4163V81.9163H120.592L120.588 82.4121L121.088 82.4163ZM147.885 144.256H148.385V143.756H147.885V144.256ZM147.885 147.348V147.848H148.385V147.348H147.885ZM43.788 147.348V146.848H43.288V147.348H43.788ZM43.788 234.954V235.454H44.288V234.954H43.788ZM25.2361 234.954V234.454H25.026L24.879 234.604L25.2361 234.954ZM0.500275 260.205L0.143097 259.855L0.000274658 260.001V260.205H0.500275ZM0.500275 403.982H0.000274658V404.482H0.500275V403.982ZM120.057 403.982H120.557V403.482H120.057V403.982ZM120.057 455H119.557V455.5H120.057V455ZM232.399 455V455.5H232.565L232.699 455.4L232.399 455ZM237.552 452.939L237.636 453.432L237.651 453.429L237.667 453.425L237.552 452.939ZM246.313 450.877L246.427 451.364L246.436 451.362L246.444 451.36L246.313 450.877ZM249.92 447.785L249.48 447.547L249.463 447.579L249.451 447.614L249.92 447.785ZM254.073 438.99L254.533 439.186L254.533 439.186L254.073 438.99ZM256.104 434.387L256.557 434.599L256.571 434.569L256.581 434.538L256.104 434.387ZM262.803 413.258L263.28 413.409L263.303 413.336V413.258H262.803ZM262.803 410.166L262.416 409.85L262.303 409.988V410.166H262.803ZM267.441 404.498L267.828 404.814L267.941 404.676V404.498H267.441ZM267.441 393.16V392.66H266.941V393.16H267.441ZM396.274 393.16V393.66H396.774V393.16H396.274ZM396.274 350.388V349.888H395.774V350.388H396.274ZM469.966 350.388V350.888H470.466V350.388H469.966ZM469.966 318.438H470.466V317.938H469.966V318.438ZM459.659 318.438L459.16 318.443L459.165 318.938H459.659V318.438ZM459.659 271.027V270.527H459.162L459.16 271.024L459.659 271.027ZM492.641 271.027V271.527H493.141V271.027H492.641ZM492.641 205.58H493.141V205.519L493.126 205.459L492.641 205.58ZM473.573 188.059L473.665 187.567L473.619 187.559H473.573V188.059ZM296.3 357.087V357.587H296.8V357.087H296.3ZM296.3 327.713H296.8V327.213H296.3V327.713ZM288.055 327.713H287.555V328.213H288.055V327.713ZM288.055 321.529H288.555V321.029H288.055V321.529ZM247.343 321.529H246.843V322.029H247.343V321.529ZM247.343 291.125H247.843V290.625H247.343V291.125ZM236.006 291.125V290.625H235.506V291.125H236.006ZM236.006 301.947H235.506V302.447H236.006V301.947ZM244.251 301.947H244.751V301.447H244.251V301.947ZM244.251 331.836V332.336H244.751V331.836H244.251ZM213.332 331.836H212.832V332.336H213.332V331.836ZM213.332 324.106H213.832V323.606H213.332V324.106ZM202.51 324.106V323.606H202.01V324.106H202.51ZM202.51 330.805H202.01V331.305H202.51V330.805ZM211.27 330.805H211.77V330.305H211.27V330.805ZM211.27 403.982H210.77V404.482H211.27V403.982ZM238.583 403.982V404.482H239.083V403.982H238.583ZM238.583 357.087V356.587H238.083V357.087H238.583ZM210.755 252.475H211.255V251.975H210.755V252.475ZM204.056 252.475V251.975H203.556V252.475H204.056ZM210.755 299.886H210.255V300.386H210.755V299.886ZM223.123 299.886H223.623V299.386H223.123V299.886ZM223.123 301.947V302.447H223.623V301.947H223.123ZM170.559 301.947V301.447H170.059V301.947H170.559ZM170.559 353.48V353.98H171.059V353.48H170.559ZM117.996 353.48H117.496V353.98H117.996V353.48ZM117.996 342.658L117.58 342.381L117.496 342.507V342.658H117.996ZM122.118 336.474L122.534 336.751L122.618 336.625V336.474H122.118ZM122.118 329.259H122.618V329.04L122.456 328.891L122.118 329.259ZM118.511 319.468L118.037 319.31L118.011 319.387V319.468H118.511ZM124.18 311.223L124.485 311.619L124.68 311.469V311.223H124.18ZM124.18 272.058V271.558H123.68V272.058H124.18ZM155.615 272.058H156.115V271.558H155.615V272.058ZM204.056 279.788L204.061 280.288L204.556 280.282V279.788H204.056ZM88.1064 309.162H88.6064V308.662H88.1064V309.162ZM88.1064 342.143H87.6064V342.643H88.1064V342.143ZM77.2845 309.162V308.662H76.7845V309.162H77.2845ZM77.2845 349.873H76.7845V350.373H77.2845V349.873ZM89.6524 349.873H90.1524V349.373H89.6524V349.873ZM89.6524 380.792H89.1524V381.292H89.6524V380.792ZM155.099 380.792V381.292H155.599V380.792H155.099ZM155.099 373.578H155.599V373.078H155.099V373.578ZM92.2291 373.578H91.7291V374.078H92.2291V373.578ZM92.2291 342.143H92.7291V341.643H92.2291V342.143ZM440.077 318.438V318.938H440.577V318.438H440.077ZM440.077 311.738H440.577V311.238H440.077V311.738ZM374.115 318.438V317.938H373.615V318.438H374.115ZM374.115 357.087V357.587H374.615V357.087H374.115ZM315.367 357.087H314.867V357.587H315.367V357.087ZM315.367 327.713V327.213H314.867V327.713H315.367ZM359.17 327.713V328.213H359.67V327.713H359.17ZM359.17 277.211V276.711H358.67V277.211H359.17ZM401.943 277.211H402.443V276.711H401.943V277.211ZM401.943 311.738H401.443V312.238H401.943V311.738ZM417.918 230.316H418.418V229.816H417.918V230.316ZM417.918 252.991V253.491H418.418V252.991H417.918ZM398.851 230.316V229.816H398.351V230.316H398.851ZM398.851 234.439L399.193 234.803L399.351 234.655V234.439H398.851ZM390.605 242.169V242.669H390.803L390.947 242.533L390.605 242.169ZM348.348 242.169H347.848V242.669H348.348V242.169ZM348.348 213.825H348.848V213.325H348.348V213.825ZM331.858 213.825V213.325H331.358V213.825H331.858ZM331.858 222.071V222.571H332.358V222.071H331.858ZM289.085 222.071V221.571H288.585V222.071H289.085ZM289.085 236.5H288.585V237H289.085V236.5ZM305.06 236.5H305.56V236H305.06V236.5ZM305.06 291.125V291.625H305.56V291.125H305.06ZM273.11 291.125V290.625H272.61V291.125H273.11ZM273.11 306.07H272.61V306.57H273.11V306.07ZM287.539 306.07V306.57H288.039V306.07H287.539ZM287.539 293.702V293.202H287.039V293.702H287.539ZM334.434 293.702V294.202H334.934V293.702H334.434ZM334.434 245.261V244.761H333.934V245.261H334.434ZM367.415 245.261H367.915V244.761H367.415V245.261ZM367.415 252.991H366.915V253.491H367.415V252.991ZM471.512 245.261V245.761H472.012V245.261H471.512ZM471.512 235.985H472.012V235.485H471.512V235.985ZM459.659 245.261H459.159V245.761H459.659V245.261ZM459.659 235.985V235.485H459.159V235.985H459.659ZM438.016 275.15H438.516V274.65H438.016V275.15ZM438.016 290.094V290.594H438.516V290.094H438.016ZM431.832 275.15V274.65H431.332V275.15H431.832ZM431.832 290.094H431.332V290.594H431.832V290.094ZM95.8364 178.268H96.3364V177.768H95.8364V178.268ZM95.8364 188.059V188.559H96.3364V188.059H95.8364ZM86.0451 188.059H85.5451V188.559H86.0451V188.059ZM86.0451 178.268V177.768H85.5451V178.268H86.0451ZM69.5545 230.316V229.816H69.0545V230.316H69.5545ZM72.1312 230.316H72.6312V229.816H72.1312V230.316ZM69.5545 261.751V262.251H70.0545V261.751H69.5545ZM63.3706 261.751V261.251H63.1558L63.0079 261.407L63.3706 261.751ZM61.8246 265.358L61.3257 265.326L61.3235 265.359L61.3257 265.392L61.8246 265.358ZM63.3706 268.45L63.0444 268.829L63.1851 268.95H63.3706V268.45ZM69.5545 268.45H70.0545V267.95H69.5545V268.45ZM69.5545 279.788V280.288H70.0545V279.788H69.5545ZM22.6595 279.788V279.288H22.1595V279.788H22.6595ZM22.6595 284.941H22.1595V285.441H22.6595V284.941ZM89.1371 284.941V285.441H89.6371V284.941H89.1371ZM89.1371 261.751H89.6371V261.251H89.1371V261.751ZM72.1312 261.751H71.6312V262.251H72.1312V261.751ZM58.2173 339.566V340.066H58.7173V339.566H58.2173ZM54.61 339.566H54.11V340.066H54.61V339.566ZM58.2173 315.861H58.7173V315.361H58.2173V315.861ZM26.2668 315.861V315.361H25.7668V315.861H26.2668ZM26.2668 339.566H25.7668V340.066H26.2668V339.566ZM29.3588 339.566V340.066H29.8588V339.566H29.3588ZM29.3588 331.836V331.336H28.8588V331.836H29.3588ZM54.61 331.836H55.11V331.336H54.61V331.836ZM60.2786 380.792V381.292H60.7786V380.792H60.2786ZM60.2786 373.578H60.7786V373.078H60.2786V373.578ZM13.8989 380.792H13.3989V381.292H13.8989V380.792ZM13.8989 373.578V373.078H13.3989V373.578H13.8989ZM223.123 107.667H223.623V107.167H223.123V107.667ZM175.197 107.667V107.167H174.697V107.667H175.197ZM223.123 224.132H222.623V224.632H223.123V224.132ZM253.012 224.132V224.632H253.512V224.132H253.012ZM253.012 211.764V211.264H252.512V211.764H253.012ZM267.441 211.764H267.941V211.264H267.441V211.764ZM267.441 236.5V237H267.941V236.5H267.441ZM155.615 236.5V236H155.115V236.5H155.615ZM155.615 261.236V261.736H156.115V261.236H155.615ZM152.523 261.236H152.023V261.736H152.523V261.236ZM152.523 221.04H153.023V220.54H152.523V221.04ZM114.388 221.04H113.888V221.54H114.388V221.04ZM114.388 216.917V216.417H113.888V216.917H114.388ZM126.241 216.917V217.417H126.741V216.917H126.241ZM126.241 205.065L125.972 204.643L125.741 204.79V205.065H126.241ZM131.909 199.396L131.496 199.115L131.488 199.126L131.481 199.139L131.909 199.396ZM139.639 188.059L140.053 188.341L140.062 188.327L140.07 188.312L139.639 188.059ZM144.277 185.482L144.28 185.982L144.777 185.979V185.482H144.277ZM144.277 179.814L144.025 179.382L143.777 179.527V179.814H144.277ZM150.461 176.206L150.303 175.732L150.254 175.748L150.209 175.774L150.461 176.206ZM162.829 172.084V171.584H162.748L162.671 171.609L162.829 172.084ZM165.406 172.084V172.584H165.906V172.084H165.406ZM165.406 144.256L164.933 144.095L164.906 144.173V144.256H165.406ZM170.044 141.679L170.067 142.179L170.499 142.159L170.542 141.728L170.044 141.679ZM175.197 136.526L175.281 137.019L175.697 136.948V136.526H175.197ZM288.055 120.551H287.555V121.051H288.055V120.551ZM288.055 75.717H288.555V75.217H288.055V75.717ZM345.256 120.551H345.756V120.051H345.256V120.551ZM345.256 127.765V128.265H345.756V127.765H345.256ZM339.072 127.765V127.265H338.572V127.765H339.072ZM339.072 188.059V188.559H339.572V188.059H339.072ZM248.889 188.059H248.389V188.559H248.889V188.059ZM248.889 171.053V170.553H248.389V171.053H248.889ZM281.355 171.053V171.553H281.855V171.053H281.355ZM281.355 119.005H281.855V118.505H281.355V119.005ZM251.981 119.005H251.481V119.505H251.981V119.005ZM251.981 116.428V115.928H251.481V116.428H251.981ZM268.987 116.428V116.928H269.487V116.428H268.987ZM268.987 75.717V75.217H268.487V75.717H268.987ZM417.918 204.034H418.418V188.059H417.918H417.418V204.034H417.918ZM399.366 204.034V204.534H417.918V204.034V203.534H399.366V204.034ZM399.366 148.379H398.866V204.034H399.366H399.866V148.379H399.366ZM378.237 127.25L377.884 127.604L399.012 148.732L399.366 148.379L399.719 148.025L378.591 126.896L378.237 127.25ZM378.237 112.305H377.737V127.25H378.237H378.737V112.305H378.237ZM398.851 112.305V111.805H378.237V112.305V112.805H398.851V112.305ZM398.851 92.2076H398.351V112.305H398.851H399.351V92.2076H398.851ZM300.422 45.3125L300.207 45.7639L398.635 92.6589L398.851 92.2076L399.066 91.7562L300.638 44.8611L300.422 45.3125ZM268.987 45.3125V45.8125H300.422V45.3125V44.8125H268.987V45.3125ZM268.987 18H268.487V45.3125H268.987H269.487V18H268.987ZM191.688 18V18.5H268.987V18V17.5H191.688V18ZM191.688 82.4163H192.188V18H191.688H191.188V82.4163H191.688ZM121.088 82.4163V82.9163H191.688V82.4163V81.9163H121.088V82.4163ZM121.088 144.256V143.756C121.362 143.756 121.488 143.962 121.501 143.982C121.533 144.033 121.545 144.074 121.547 144.079C121.552 144.096 121.55 144.097 121.545 144.064C121.537 144.005 121.527 143.904 121.517 143.754C121.496 143.457 121.478 143.013 121.462 142.43C121.43 141.268 121.406 139.581 121.389 137.488C121.357 133.304 121.354 127.508 121.369 121.067C121.399 108.185 121.502 92.7265 121.588 82.4204L121.088 82.4163L120.588 82.4121C120.502 92.7192 120.399 108.18 120.369 121.065C120.354 127.507 120.357 133.306 120.389 137.496C120.406 139.59 120.43 141.285 120.462 142.458C120.479 143.043 120.497 143.504 120.519 143.822C120.53 143.978 120.542 144.111 120.556 144.21C120.563 144.256 120.573 144.316 120.591 144.373C120.599 144.398 120.617 144.454 120.655 144.514C120.674 144.545 120.807 144.756 121.088 144.756V144.256ZM147.885 144.256V143.756H121.088V144.256V144.756H147.885V144.256ZM147.885 147.348H148.385V144.256H147.885H147.385V147.348H147.885ZM43.788 147.348V147.848H147.885V147.348V146.848H43.788V147.348ZM43.788 234.954H44.288V147.348H43.788H43.288V234.954H43.788ZM25.2361 234.954V235.454H43.788V234.954V234.454H25.2361V234.954ZM0.500275 260.205L0.857452 260.555L25.5933 235.304L25.2361 234.954L24.879 234.604L0.143097 259.855L0.500275 260.205ZM0.500275 403.982H1.00027V260.205H0.500275H0.000274658V403.982H0.500275ZM120.057 403.982V403.482H0.500275V403.982V404.482H120.057V403.982ZM120.057 455H120.557V403.982H120.057H119.557V455H120.057ZM232.399 455V454.5H120.057V455V455.5H232.399V455ZM237.552 452.939L237.469 452.446C236.308 452.642 235.404 452.847 234.567 453.173C233.725 453.502 232.972 453.946 232.099 454.6L232.399 455L232.699 455.4C233.52 454.784 234.194 454.392 234.931 454.105C235.672 453.815 236.498 453.624 237.636 453.432L237.552 452.939ZM246.313 450.877L246.198 450.391L237.438 452.452L237.552 452.939L237.667 453.425L246.427 451.364L246.313 450.877ZM249.92 447.785L249.451 447.614C249.144 448.451 248.847 448.979 248.399 449.377C247.947 449.78 247.291 450.093 246.182 450.395L246.313 450.877L246.444 451.36C247.61 451.043 248.441 450.679 249.064 450.124C249.693 449.564 250.061 448.855 250.39 447.957L249.92 447.785ZM254.073 438.99L253.613 438.794C252.497 441.419 251.389 444.024 249.48 447.547L249.92 447.785L250.36 448.023C252.292 444.456 253.415 441.814 254.533 439.186L254.073 438.99ZM256.104 434.387L255.652 434.174C254.874 435.829 254.241 437.317 253.613 438.794L254.073 438.99L254.533 439.186C255.162 437.707 255.788 436.235 256.557 434.599L256.104 434.387ZM262.803 413.258L262.327 413.107L255.627 434.236L256.104 434.387L256.581 434.538L263.28 413.409L262.803 413.258ZM262.803 410.166H262.303V413.258H262.803H263.303V410.166H262.803ZM267.441 404.498L267.054 404.181L262.416 409.85L262.803 410.166L263.19 410.483L267.828 404.814L267.441 404.498ZM267.441 393.16H266.941V404.498H267.441H267.941V393.16H267.441ZM396.274 393.16V392.66H267.441V393.16V393.66H396.274V393.16ZM396.274 350.388H395.774V393.16H396.274H396.774V350.388H396.274ZM469.966 350.388V349.888H396.274V350.388V350.888H469.966V350.388ZM469.966 318.438H469.466V350.388H469.966H470.466V318.438H469.966ZM459.659 318.438V318.938H469.966V318.438V317.938H459.659V318.438ZM459.659 271.027C459.16 271.024 459.16 271.025 459.159 271.025C459.159 271.025 459.159 271.025 459.159 271.026C459.159 271.027 459.159 271.028 459.159 271.03C459.159 271.034 459.159 271.04 459.159 271.047C459.159 271.063 459.159 271.085 459.159 271.116C459.159 271.176 459.158 271.266 459.158 271.383C459.156 271.619 459.155 271.966 459.152 272.414C459.148 273.309 459.142 274.605 459.135 276.211C459.122 279.421 459.106 283.866 459.095 288.805C459.074 298.682 459.074 310.538 459.16 318.443L459.659 318.438L460.159 318.432C460.074 310.534 460.074 298.684 460.095 288.807C460.106 283.869 460.122 279.425 460.135 276.215C460.142 274.61 460.148 273.314 460.152 272.419C460.155 271.971 460.156 271.624 460.158 271.389C460.158 271.271 460.159 271.181 460.159 271.121C460.159 271.091 460.159 271.068 460.159 271.053C460.159 271.045 460.159 271.039 460.159 271.036C460.159 271.034 460.159 271.032 460.159 271.031C460.159 271.031 460.159 271.03 460.159 271.03C460.159 271.03 460.159 271.03 459.659 271.027ZM492.641 271.027V270.527H459.659V271.027V271.527H492.641V271.027ZM492.641 205.58H492.141V271.027H492.641H493.141V205.58H492.641ZM473.573 188.059L473.482 188.551C479.178 189.61 483.079 190.949 485.934 193.46C488.783 195.965 490.659 199.698 492.155 205.701L492.641 205.58L493.126 205.459C491.61 199.377 489.668 195.411 486.594 192.709C483.527 190.012 479.401 188.634 473.665 187.567L473.573 188.059ZM417.918 188.059V188.559H473.573V188.059V187.559H417.918V188.059ZM296.3 328.229H295.8V357.087H296.3H296.8V328.229H296.3ZM296.3 327.713H295.8V328.229H296.3H296.8V327.713H296.3ZM288.055 327.713V328.213H296.3V327.713V327.213H288.055V327.713ZM288.055 321.529H287.555V327.713H288.055H288.555V321.529H288.055ZM247.343 321.529V322.029H288.055V321.529V321.029H247.343V321.529ZM247.343 291.125H246.843V321.529H247.343H247.843V291.125H247.343ZM236.006 291.125V291.625H247.343V291.125V290.625H236.006V291.125ZM236.006 301.947H236.506V291.125H236.006H235.506V301.947H236.006ZM244.251 301.947V301.447H236.006V301.947V302.447H244.251V301.947ZM244.251 331.836H244.751V301.947H244.251H243.751V331.836H244.251ZM213.332 331.836V332.336H244.251V331.836V331.336H213.332V331.836ZM213.332 324.106H212.832V331.836H213.332H213.832V324.106H213.332ZM202.51 324.106V324.606H213.332V324.106V323.606H202.51V324.106ZM202.51 330.805H203.01V324.106H202.51H202.01V330.805H202.51ZM211.27 330.805V330.305H202.51V330.805V331.305H211.27V330.805ZM211.27 403.982H211.77V330.805H211.27H210.77V403.982H211.27ZM238.583 403.982V403.482H211.27V403.982V404.482H238.583V403.982ZM238.583 357.087H238.083V403.982H238.583H239.083V357.087H238.583ZM296.3 357.087V356.587H238.583V357.087V357.587H296.3V357.087ZM210.755 252.475V251.975H204.056V252.475V252.975H210.755V252.475ZM210.755 299.886H211.255V252.475H210.755H210.255V299.886H210.755ZM223.123 299.886V299.386H210.755V299.886V300.386H223.123V299.886ZM223.123 301.947H223.623V299.886H223.123H222.623V301.947H223.123ZM170.559 301.947V302.447H223.123V301.947V301.447H170.559V301.947ZM170.559 353.48H171.059V301.947H170.559H170.059V353.48H170.559ZM117.996 353.48V353.98H170.559V353.48V352.98H117.996V353.48ZM117.996 342.658H117.496V353.48H117.996H118.496V342.658H117.996ZM122.118 336.474L121.702 336.197L117.58 342.381L117.996 342.658L118.412 342.935L122.534 336.751L122.118 336.474ZM122.118 329.259H121.618V336.474H122.118H122.618V329.259H122.118ZM118.511 319.468H118.011C118.011 322.05 118.153 323.878 118.707 325.421C119.269 326.984 120.234 328.208 121.78 329.628L122.118 329.259L122.456 328.891C120.971 327.526 120.133 326.432 119.648 325.083C119.157 323.715 119.011 322.04 119.011 319.468H118.511ZM124.18 311.223L123.874 310.827C122.145 312.159 121.059 313.101 120.218 314.32C119.382 315.534 118.809 316.992 118.037 319.31L118.511 319.468L118.985 319.626C119.759 317.306 120.294 315.972 121.042 314.887C121.786 313.808 122.761 312.947 124.485 311.619L124.18 311.223ZM124.18 272.058H123.68V311.223H124.18H124.68V272.058H124.18ZM155.615 272.058V271.558H124.18V272.058V272.558H155.615V272.058ZM155.615 279.788H156.115V272.058H155.615H155.115V279.788H155.615ZM204.056 279.788L204.05 279.288C195.978 279.374 183.869 279.477 173.779 279.507C168.733 279.522 164.194 279.519 160.918 279.486C159.279 279.469 157.96 279.446 157.052 279.413C156.596 279.397 156.252 279.379 156.024 279.359C155.908 279.349 155.837 279.34 155.801 279.333C155.778 279.329 155.792 279.33 155.821 279.341C155.833 279.346 155.88 279.365 155.933 279.407C155.98 279.445 156.115 279.57 156.115 279.788H155.615H155.115C155.115 280.012 155.253 280.144 155.308 280.187C155.369 280.236 155.428 280.261 155.455 280.272C155.515 280.296 155.576 280.308 155.615 280.316C155.702 280.332 155.814 280.345 155.938 280.356C156.192 280.378 156.557 280.396 157.016 280.413C157.937 280.446 159.267 280.469 160.908 280.486C164.191 280.519 168.735 280.522 173.782 280.507C183.875 280.477 195.987 280.374 204.061 280.288L204.056 279.788ZM204.056 252.475H203.556V279.788H204.056H204.556V252.475H204.056ZM88.1064 309.162H87.6064V342.143H88.1064H88.6064V309.162H88.1064ZM77.2845 309.162V309.662H88.1064V309.162V308.662H77.2845V309.162ZM77.2845 349.873H77.7845V309.162H77.2845H76.7845V349.873H77.2845ZM89.6524 349.873V349.373H77.2845V349.873V350.373H89.6524V349.873ZM89.6524 380.792H90.1524V349.873H89.6524H89.1524V380.792H89.6524ZM155.099 380.792V380.292H89.6524V380.792V381.292H155.099V380.792ZM155.099 373.578H154.599V380.792H155.099H155.599V373.578H155.099ZM92.2291 373.578V374.078H155.099V373.578V373.078H92.2291V373.578ZM92.2291 342.143H91.7291V373.578H92.2291H92.7291V342.143H92.2291ZM88.1064 342.143V342.643H92.2291V342.143V341.643H88.1064V342.143ZM440.077 318.438H440.577V311.738H440.077H439.577V318.438H440.077ZM374.115 318.438V318.938H440.077V318.438V317.938H374.115V318.438ZM374.115 357.087H374.615V318.438H374.115H373.615V357.087H374.115ZM315.367 357.087V357.587H374.115V357.087V356.587H315.367V357.087ZM315.367 327.713H314.867V357.087H315.367H315.867V327.713H315.367ZM359.17 327.713V327.213H315.367V327.713V328.213H359.17V327.713ZM359.17 277.211H358.67V327.713H359.17H359.67V277.211H359.17ZM401.943 277.211V276.711H359.17V277.211V277.711H401.943V277.211ZM401.943 311.738H402.443V277.211H401.943H401.443V311.738H401.943ZM440.077 311.738V311.238H401.943V311.738V312.238H440.077V311.738ZM417.918 230.316H417.418V252.991H417.918H418.418V230.316H417.918ZM398.851 230.316V230.816H417.918V230.316V229.816H398.851V230.316ZM398.851 234.439H399.351V230.316H398.851H398.351V234.439H398.851ZM390.605 242.169L390.947 242.533L399.193 234.803L398.851 234.439L398.509 234.074L390.263 241.804L390.605 242.169ZM348.348 242.169V242.669H390.605V242.169V241.669H348.348V242.169ZM348.348 213.825H347.848V242.169H348.348H348.848V213.825H348.348ZM331.858 213.825V214.325H348.348V213.825V213.325H331.858V213.825ZM331.858 222.071H332.358V213.825H331.858H331.358V222.071H331.858ZM289.085 222.071V222.571H331.858V222.071V221.571H289.085V222.071ZM289.085 236.5H289.585V222.071H289.085H288.585V236.5H289.085ZM305.06 236.5V236H289.085V236.5V237H305.06V236.5ZM305.06 291.125H305.56V236.5H305.06H304.56V291.125H305.06ZM273.11 291.125V291.625H305.06V291.125V290.625H273.11V291.125ZM273.11 306.07H273.61V291.125H273.11H272.61V306.07H273.11ZM287.539 306.07V305.57H273.11V306.07V306.57H287.539V306.07ZM287.539 293.702H287.039V306.07H287.539H288.039V293.702H287.539ZM334.434 293.702V293.202H287.539V293.702V294.202H334.434V293.702ZM334.434 245.261H333.934V293.702H334.434H334.934V245.261H334.434ZM367.415 245.261V244.761H334.434V245.261V245.761H367.415V245.261ZM367.415 252.991H367.915V245.261H367.415H366.915V252.991H367.415ZM417.918 252.991V252.491H367.415V252.991V253.491H417.918V252.991ZM471.512 245.261H472.012V235.985H471.512H471.012V245.261H471.512ZM459.659 245.261V245.761H471.512V245.261V244.761H459.659V245.261ZM459.659 235.985H459.159V245.261H459.659H460.159V235.985H459.659ZM471.512 235.985V235.485H459.659V235.985V236.485H471.512V235.985ZM438.016 275.15H437.516V290.094H438.016H438.516V275.15H438.016ZM431.832 275.15V275.65H438.016V275.15V274.65H431.832V275.15ZM431.832 290.094H432.332V275.15H431.832H431.332V290.094H431.832ZM438.016 290.094V289.594H431.832V290.094V290.594H438.016V290.094ZM95.8364 187.544H96.3364V178.268H95.8364H95.3364V187.544H95.8364ZM95.8364 188.059H96.3364V187.544H95.8364H95.3364V188.059H95.8364ZM86.0451 188.059V188.559H95.8364V188.059V187.559H86.0451V188.059ZM86.0451 178.268H85.5451V188.059H86.0451H86.5451V178.268H86.0451ZM95.8364 178.268V177.768H86.0451V178.268V178.768H95.8364V178.268ZM69.5545 230.316V230.816H72.1312V230.316V229.816H69.5545V230.316ZM69.5545 261.751H70.0545V230.316H69.5545H69.0545V261.751H69.5545ZM63.3706 261.751V262.251H69.5545V261.751V261.251H63.3706V261.751ZM61.8246 265.358L62.3235 265.391C62.3744 264.62 62.468 264.085 62.6666 263.607C62.8641 263.132 63.1808 262.677 63.7332 262.095L63.3706 261.751L63.0079 261.407C62.4087 262.038 62.0047 262.594 61.7432 263.223C61.4829 263.849 61.3794 264.511 61.3257 265.326L61.8246 265.358ZM63.3706 268.45L63.6967 268.071C63.1844 267.631 62.8799 267.289 62.6824 266.906C62.4855 266.523 62.3729 266.055 62.3234 265.325L61.8246 265.358L61.3257 265.392C61.3798 266.19 61.5088 266.811 61.7932 267.363C62.0771 267.915 62.4939 268.356 63.0444 268.829L63.3706 268.45ZM69.5545 268.45V267.95H63.3706V268.45V268.95H69.5545V268.45ZM69.5545 279.788H70.0545V268.45H69.5545H69.0545V279.788H69.5545ZM22.6595 279.788V280.288H69.5545V279.788V279.288H22.6595V279.788ZM22.6595 284.941H23.1595V279.788H22.6595H22.1595V284.941H22.6595ZM89.1371 284.941V284.441H22.6595V284.941V285.441H89.1371V284.941ZM89.1371 261.751H88.6371V284.941H89.1371H89.6371V261.751H89.1371ZM72.1312 261.751V262.251H89.1371V261.751V261.251H72.1312V261.751ZM72.1312 230.316H71.6312V261.751H72.1312H72.6312V230.316H72.1312ZM58.2173 339.566V339.066H54.61V339.566V340.066H58.2173V339.566ZM58.2173 315.861H57.7173V339.566H58.2173H58.7173V315.861H58.2173ZM26.2668 315.861V316.361H58.2173V315.861V315.361H26.2668V315.861ZM26.2668 339.566H26.7668V315.861H26.2668H25.7668V339.566H26.2668ZM29.3588 339.566V339.066H26.2668V339.566V340.066H29.3588V339.566ZM29.3588 331.836H28.8588V339.566H29.3588H29.8588V331.836H29.3588ZM54.61 331.836V331.336H29.3588V331.836V332.336H54.61V331.836ZM54.61 339.566H55.11V331.836H54.61H54.11V339.566H54.61ZM60.2786 380.792H60.7786V373.578H60.2786H59.7786V380.792H60.2786ZM13.8989 380.792V381.292H60.2786V380.792V380.292H13.8989V380.792ZM13.8989 373.578H13.3989V380.792H13.8989H14.3989V373.578H13.8989ZM60.2786 373.578V373.078H13.8989V373.578V374.078H60.2786V373.578ZM223.123 107.667V107.167H175.197V107.667V108.167H223.123V107.667ZM223.123 224.132H223.623V107.667H223.123H222.623V224.132H223.123ZM253.012 224.132V223.632H223.123V224.132V224.632H253.012V224.132ZM253.012 211.764H252.512V224.132H253.012H253.512V211.764H253.012ZM267.441 211.764V211.264H253.012V211.764V212.264H267.441V211.764ZM267.441 236.5H267.941V211.764H267.441H266.941V236.5H267.441ZM155.615 236.5V237H267.441V236.5V236H155.615V236.5ZM155.615 261.236H156.115V236.5H155.615H155.115V261.236H155.615ZM152.523 261.236V261.736H155.615V261.236V260.736H152.523V261.236ZM152.523 221.04H152.023V261.236H152.523H153.023V221.04H152.523ZM114.388 221.04V221.54H152.523V221.04V220.54H114.388V221.04ZM114.388 216.917H113.888V221.04H114.388H114.888V216.917H114.388ZM126.241 216.917V216.417H114.388V216.917V217.417H126.241V216.917ZM126.241 205.065H125.741V216.917H126.241H126.741V205.065H126.241ZM131.909 199.396L131.481 199.139C130.714 200.415 130.04 201.338 129.215 202.163C128.389 202.991 127.395 203.737 125.972 204.643L126.241 205.065L126.509 205.487C127.962 204.562 129.023 203.771 129.923 202.87C130.825 201.967 131.547 200.971 132.338 199.654L131.909 199.396ZM139.639 188.059L139.226 187.777L131.496 199.115L131.909 199.396L132.323 199.678L140.053 188.341L139.639 188.059ZM144.277 185.482L144.274 184.982C142.886 184.991 141.889 185.182 141.09 185.664C140.291 186.145 139.755 186.876 139.208 187.806L139.639 188.059L140.07 188.312C140.598 187.415 141.029 186.867 141.605 186.52C142.181 186.174 142.966 185.99 144.28 185.982L144.277 185.482ZM144.277 179.814H143.777V185.482H144.277H144.777V179.814H144.277ZM150.461 176.206L150.209 175.774L144.025 179.382L144.277 179.814L144.529 180.246L150.713 176.638L150.461 176.206ZM162.829 172.084L162.671 171.609L150.303 175.732L150.461 176.206L150.619 176.681L162.987 172.558L162.829 172.084ZM165.406 172.084V171.584H162.829V172.084V172.584H165.406V172.084ZM165.406 144.256H164.906V172.084H165.406H165.906V144.256H165.406ZM170.044 141.679L170.021 141.18C168.724 141.239 167.649 141.337 166.804 141.744C165.911 142.175 165.333 142.918 164.933 144.095L165.406 144.256L165.879 144.417C166.221 143.414 166.653 142.928 167.238 142.645C167.872 142.339 168.745 142.239 170.067 142.179L170.044 141.679ZM175.197 136.526L175.113 136.033C173.324 136.339 171.989 136.762 171.072 137.644C170.141 138.539 169.723 139.822 169.546 141.631L170.044 141.679L170.542 141.728C170.71 140 171.093 139.011 171.765 138.365C172.45 137.706 173.519 137.32 175.281 137.019L175.197 136.526ZM175.197 107.667H174.697V136.526H175.197H175.697V107.667H175.197ZM288.055 120.551H288.555V75.717H288.055H287.555V120.551H288.055ZM345.256 120.551V120.051H288.055V120.551V121.051H345.256V120.551ZM345.256 127.765H345.756V120.551H345.256H344.756V127.765H345.256ZM339.072 127.765V128.265H345.256V127.765V127.265H339.072V127.765ZM339.072 188.059H339.572V127.765H339.072H338.572V188.059H339.072ZM248.889 188.059V188.559H339.072V188.059V187.559H248.889V188.059ZM248.889 171.053H248.389V188.059H248.889H249.389V171.053H248.889ZM281.355 171.053V170.553H248.889V171.053V171.553H281.355V171.053ZM281.355 119.005H280.855V171.053H281.355H281.855V119.005H281.355ZM251.981 119.005V119.505H281.355V119.005V118.505H251.981V119.005ZM251.981 116.428H251.481V119.005H251.981H252.481V116.428H251.981ZM268.987 116.428V115.928H251.981V116.428V116.928H268.987V116.428ZM268.987 75.717H268.487V116.428H268.987H269.487V75.717H268.987ZM288.055 75.717V75.217H268.987V75.717V76.217H288.055V75.717Z" fill="#B27C40"/>
<path d="M288.055 188.059C288.055 188.471 288.055 193.728 288.055 196.304H280.84V188.059" stroke="#B27C40"/>
<path d="M223.123 119.005H231.368V111.79M231.368 111.79V107.667H223.123V111.79H231.368Z" stroke="#B27C40"/>
<path d="M247.344 291.125V288.548M210.755 275.15H214.878M214.878 275.15H247.344V288.548M214.878 275.15V260.205H210.755M247.344 299.37H252.497V288.548H247.344" stroke="#B27C40"/>
<path d="M305.061 282.88H300.938M288.57 291.125V282.88H300.938M300.938 282.88V278.757H305.061M296.3 327.713V321.53H287.539M374.115 357.087V365.848H366.9V357.087M396.274 341.627H469.966" stroke="#B27C40"/>
<path d="M414.826 311.738C414.826 311.326 414.826 308.131 414.826 306.585H410.188M410.188 306.585V311.738M410.188 306.585V302.978H401.943M471.512 236.5V219.494H464.298V235.985M430.801 188.059V192.182H426.678M417.918 196.304H426.163V188.059M348.348 221.04H357.109V213.825H348.348M345.256 127.765H352.986V120.551H345.256M310.729 120.551V98.9068M310.729 90.6615V75.2016H302.999V90.6615H307.122M310.729 90.6615H307.122M310.729 90.6615V98.9068M307.122 90.6615V98.9068H310.729M264.865 153.016H263.319V151.47M264.865 153.016V151.47H263.319M264.865 153.016L263.319 151.47M264.865 136.526H263.319V134.98M264.865 136.526V134.98H263.319M264.865 136.526L263.319 134.98M380.814 185.998L390.09 176.722L383.391 160.746L362.778 153.016L350.41 158.685L346.287 174.145L352.471 185.482L370.507 190.12L380.814 185.998Z" stroke="#B27C40"/>
<path d="M21.6289 373.578V365.333H13.8989V373.578M30.3895 380.792V403.982M60.2787 373.578L77.2846 349.357M89.6525 380.792V388.522H96.8671V380.792M120.057 434.387H129.333V437.479M129.333 455V441.601M120.057 441.601H129.333M129.333 441.601V437.479M140.67 455V446.755L129.333 437.479" stroke="#B27C40"/>
<path d="M121.088 182.906V180.844L125.21 176.722H129.333C131.239 177.137 131.866 177.993 132.425 180.329M86.0453 188.059L82.438 189.09H79.8614C79.1743 188.746 77.5939 188.059 76.7694 188.059C75.9449 188.059 63.0272 188.059 56.6715 188.059V181.875H57.1868V178.268H86.0453" stroke="#B27C40"/>
<path d="M88.1066 321.014H101.505M45.8495 315.861V307.1H38.1195V315.861M124.18 279.272H115.934V272.058H124.18M125.21 221.04V229.285H121.088M114.388 221.04V229.285H121.088M121.088 229.285V221.04M127.787 204.034C126.679 201.557 125.709 199.405 124.365 197.335C122.47 192.969 121.552 188.933 121.088 182.906L148.916 177.237" stroke="#B27C40"/>
<path d="M431.582 275.4V235.735H459.91V236.75H432.597V275.4H431.582Z" stroke="#B27C40" stroke-width="0.5"/>
<path d="M246.828 288.992C256.589 286.668 263.849 277.892 263.849 267.419C263.849 255.173 253.921 245.245 241.675 245.245C229.428 245.246 219.501 255.173 219.501 267.419C219.501 270.334 220.064 273.116 221.086 275.665H220.548C219.549 273.11 219.001 270.329 219.001 267.419L219.008 266.834C219.318 254.582 229.348 244.746 241.675 244.745L242.26 244.752C254.318 245.058 264.036 254.777 264.342 266.834L264.349 267.419C264.349 278.169 256.868 287.173 246.828 289.506V288.992Z" fill="#B27C40"/>
<path d="M247.859 299.886H253.012V288.033H247.859V263.752H288.054V290.609H272.594V306.585H247.859V299.886Z" fill="#F08234" fill-opacity="0.23"/>
<path d="M211.27 274.635H215.393V263.812H211.27L247.859 263.772V274.635L211.27 274.675V274.635Z" fill="#F08234" fill-opacity="0.23"/>
<path d="M268.23 283.573V275.573H271.293C271.871 275.573 272.351 275.664 272.734 275.847C273.12 276.026 273.407 276.272 273.597 276.585C273.79 276.897 273.886 277.252 273.886 277.647C273.886 277.973 273.824 278.252 273.699 278.483C273.574 278.712 273.406 278.899 273.195 279.042C272.984 279.185 272.748 279.288 272.488 279.35V279.429C272.772 279.444 273.044 279.531 273.304 279.69C273.567 279.847 273.782 280.068 273.949 280.354C274.116 280.641 274.199 280.987 274.199 281.393C274.199 281.807 274.099 282.18 273.898 282.511C273.698 282.839 273.396 283.098 272.992 283.288C272.588 283.478 272.08 283.573 271.469 283.573H268.23ZM269.679 282.362H271.238C271.764 282.362 272.143 282.262 272.375 282.061C272.609 281.858 272.726 281.598 272.726 281.28C272.726 281.043 272.668 280.83 272.551 280.64C272.433 280.447 272.267 280.296 272.051 280.186C271.834 280.074 271.577 280.018 271.277 280.018H269.679V282.362ZM269.679 278.975H271.113C271.363 278.975 271.588 278.93 271.789 278.839C271.989 278.745 272.147 278.613 272.261 278.444C272.379 278.272 272.437 278.069 272.437 277.835C272.437 277.525 272.328 277.27 272.109 277.069C271.893 276.869 271.571 276.768 271.144 276.768H269.679V278.975Z" fill="white"/>
<path d="M58.7329 332.352H58.7319L58.7329 315.346H46.3647V308.646H76.769V349.873L60.2788 373.062H22.144V364.817H13.3833V373.062H1.01514V308.646H37.604V315.346H25.7524L25.7515 332.352V340.081H29.8745V332.352H54.0942V340.081H58.7329V332.352Z" fill="#F08234" fill-opacity="0.2"/>
<path d="M44.033 357.781H45.5798L42.7634 349.781H40.9744L38.1541 357.781H39.7009L41.8376 351.421H41.9001L44.033 357.781ZM43.9822 354.644H39.7634V355.808H43.9822V354.644Z" fill="white"/>
<path d="M459.145 274.634H432.863V237.015H459.145V274.634Z" fill="#F08234" fill-opacity="0.23"/>
<path d="M459.145 290.61H438.531V274.634H459.145V290.61Z" fill="#F08234" fill-opacity="0.23"/>
<path d="M492.125 270.512H459.144V245.776H492.125V270.512Z" fill="#F08234" fill-opacity="0.23"/>
<path d="M456.475 259.72H455.014C454.972 259.481 454.895 259.269 454.783 259.084C454.671 258.896 454.532 258.737 454.365 258.607C454.199 258.477 454.008 258.379 453.795 258.314C453.584 258.247 453.356 258.213 453.111 258.213C452.676 258.213 452.291 258.322 451.955 258.541C451.619 258.757 451.356 259.075 451.166 259.494C450.976 259.911 450.881 260.42 450.881 261.021C450.881 261.633 450.976 262.149 451.166 262.568C451.359 262.985 451.622 263.3 451.955 263.513C452.291 263.724 452.675 263.83 453.107 263.83C453.347 263.83 453.571 263.799 453.779 263.736C453.99 263.671 454.179 263.576 454.346 263.451C454.515 263.326 454.657 263.172 454.771 262.99C454.889 262.808 454.969 262.599 455.014 262.365L456.475 262.373C456.42 262.753 456.301 263.11 456.119 263.443C455.939 263.776 455.704 264.071 455.412 264.326C455.12 264.579 454.779 264.776 454.389 264.92C453.998 265.06 453.564 265.131 453.088 265.131C452.385 265.131 451.757 264.968 451.205 264.642C450.653 264.317 450.218 263.847 449.9 263.232C449.583 262.618 449.424 261.881 449.424 261.021C449.424 260.159 449.584 259.422 449.904 258.81C450.225 258.196 450.661 257.726 451.213 257.4C451.765 257.075 452.39 256.912 453.088 256.912C453.533 256.912 453.947 256.974 454.33 257.099C454.713 257.224 455.054 257.408 455.354 257.65C455.653 257.89 455.899 258.184 456.092 258.533C456.287 258.879 456.415 259.275 456.475 259.72Z" fill="white"/>
</svg>
