<svg width="494" height="473" viewBox="0 0 494 473" fill="none" xmlns="http://www.w3.org/2000/svg">
<path fill-rule="evenodd" clip-rule="evenodd" d="M75.2229 284.941V268.966H93.7748V324.621L114.903 345.75V360.695H94.2901V380.792L192.718 427.688H224.153V455H301.453V390.584H372.053C372.225 369.971 372.465 328.744 372.053 328.744H345.256V325.652H449.353V238.046H467.904L492.64 212.795V69.0177H373.084V18H260.742C259.047 19.2703 257.887 19.6723 255.588 20.0613L246.828 22.1226C244.552 22.7407 243.855 23.4789 243.221 25.2146C241.3 28.7602 240.185 31.3834 239.068 34.0098C238.439 35.4882 237.81 36.9677 237.037 38.6132L230.337 59.7417V62.8337L225.699 68.5024V79.8396H96.8667V122.612H23.1745V154.562H33.4811C33.6529 170.366 33.4811 201.973 33.4811 201.973H0.5V267.42C3.51285 279.505 8.13511 282.816 19.5672 284.941H75.2229ZM196.841 115.913V144.771V145.287H205.086V151.471H245.797V181.875H257.134V171.053H248.889V141.164H279.809V148.894H290.631V142.195H281.87V69.0177H254.558V115.913H196.841ZM289.085 220.525H282.386V173.114H270.018V171.053H322.581V119.52H375.145V130.342L371.022 136.526V143.741C374.054 146.525 374.63 148.379 374.63 153.532C373.084 158.17 372.414 159.118 368.961 161.777V200.942H337.526V193.212C337.526 192.8 305.232 193.04 289.085 193.212V220.525ZM405.034 130.857V163.838H415.856V123.127H403.488V92.2076H338.041V99.4222H400.912V130.857H405.034ZM53.0637 161.262V154.562H119.026V115.913H177.774V145.287H133.971V195.789H91.1981V161.262H53.0637ZM75.2229 220.009V242.684H94.2901V238.561L102.535 230.831H144.792V259.175H161.283V250.929H204.055V236.5H188.08V181.875H220.031V166.93H205.601V179.298H158.706V227.739H125.725V220.009H75.2229ZM21.6285 237.015V227.739H33.4811V237.015H21.6285ZM55.125 182.906V197.85H61.309V182.906H55.125ZM397.304 294.732V285.456V284.941H407.096V294.732H397.304ZM421.009 242.684H423.586V211.249H429.77C430.922 210.035 431.211 209.227 431.316 207.642C431.212 206.114 430.833 205.464 429.77 204.55H423.586V193.212H470.481V188.059H404.004V211.249H421.009V242.684ZM438.531 133.434H434.923V157.139H466.874V133.434H463.782V141.164H438.531V133.434ZM432.862 99.4222V92.2076H479.242V99.4222H432.862ZM317.943 365.333H270.018V248.868H240.129V261.236H225.699V236.5H337.526V211.764H340.618V251.96H378.752V256.083H366.9V267.935C364.024 269.766 362.789 271.01 361.231 273.604L353.501 284.941C352.428 286.767 351.566 287.502 348.863 287.518V293.186L342.679 296.794L330.311 300.916H327.735V328.744C326.993 330.924 325.715 331.201 323.097 331.321C322.751 334.857 321.495 335.867 317.943 336.474V365.333ZM205.086 397.283V352.449H147.884V345.235H154.068V284.941H244.251V301.947H211.785V353.995H241.159V356.572H224.153V397.283H205.086Z" fill="#271406"/>
<path d="M75.2229 268.966V268.466H74.7229V268.966H75.2229ZM75.2229 284.941V285.441H75.7229V284.941H75.2229ZM93.7748 268.966H94.2748V268.466H93.7748V268.966ZM93.7748 324.621H93.2748V324.829L93.4212 324.975L93.7748 324.621ZM114.903 345.75H115.403V345.543L115.257 345.396L114.903 345.75ZM114.903 360.695V361.195H115.403V360.695H114.903ZM94.2901 360.695V360.195H93.7901V360.695H94.2901ZM94.2901 380.792H93.7901V381.108L94.075 381.244L94.2901 380.792ZM192.718 427.688L192.503 428.139L192.605 428.188H192.718V427.688ZM224.153 427.688H224.653V427.188H224.153V427.688ZM224.153 455H223.653V455.5H224.153V455ZM301.453 455V455.5H301.953V455H301.453ZM301.453 390.584V390.084H300.953V390.584H301.453ZM372.053 390.584V391.084H372.549L372.553 390.588L372.053 390.584ZM345.256 328.744H344.756V329.244H345.256V328.744ZM345.256 325.652V325.152H344.756V325.652H345.256ZM449.353 325.652V326.152H449.853V325.652H449.353ZM449.353 238.046V237.546H448.853V238.046H449.353ZM467.904 238.046V238.546H468.115L468.262 238.396L467.904 238.046ZM492.64 212.795L492.998 213.145L493.14 212.999V212.795H492.64ZM492.64 69.0177H493.14V68.5177H492.64V69.0177ZM373.084 69.0177H372.584V69.5177H373.084V69.0177ZM373.084 18H373.584V17.5H373.084V18ZM260.742 18V17.5H260.575L260.442 17.5999L260.742 18ZM255.588 20.0613L255.505 19.5683L255.489 19.571L255.474 19.5746L255.588 20.0613ZM246.828 22.1226L246.713 21.6359L246.705 21.6379L246.697 21.6401L246.828 22.1226ZM243.221 25.2146L243.66 25.4527L243.678 25.4206L243.69 25.3863L243.221 25.2146ZM239.068 34.0098L238.608 33.8142L238.608 33.8142L239.068 34.0098ZM237.037 38.6132L236.584 38.4005L236.57 38.4305L236.56 38.4621L237.037 38.6132ZM230.337 59.7417L229.861 59.5906L229.837 59.6644V59.7417H230.337ZM230.337 62.8337L230.724 63.1503L230.837 63.0122V62.8337H230.337ZM225.699 68.5024L225.312 68.1857L225.199 68.3239V68.5024H225.699ZM225.699 79.8396V80.3396H226.199V79.8396H225.699ZM96.8667 79.8396V79.3396H96.3667V79.8396H96.8667ZM96.8667 122.612V123.112H97.3667V122.612H96.8667ZM23.1745 122.612V122.112H22.6745V122.612H23.1745ZM23.1745 154.562H22.6745V155.062H23.1745V154.562ZM33.4811 154.562L33.9811 154.557L33.9757 154.062H33.4811V154.562ZM33.4811 201.973V202.473H33.9784L33.9811 201.976L33.4811 201.973ZM0.5 201.973V201.473H0V201.973H0.5ZM0.5 267.42H0V267.481L0.0148479 267.541L0.5 267.42ZM19.5672 284.941L19.4758 285.433L19.5211 285.441H19.5672V284.941ZM196.841 115.913V115.413H196.341V115.913H196.841ZM196.841 145.287H196.341V145.787H196.841V145.287ZM205.086 145.287H205.586V144.787H205.086V145.287ZM205.086 151.471H204.586V151.971H205.086V151.471ZM245.797 151.471H246.297V150.971H245.797V151.471ZM245.797 181.875H245.297V182.375H245.797V181.875ZM257.134 181.875V182.375H257.634V181.875H257.134ZM257.134 171.053H257.634V170.553H257.134V171.053ZM248.889 171.053H248.389V171.553H248.889V171.053ZM248.889 141.164V140.664H248.389V141.164H248.889ZM279.809 141.164H280.309V140.664H279.809V141.164ZM279.809 148.894H279.309V149.394H279.809V148.894ZM290.631 148.894V149.394H291.131V148.894H290.631ZM290.631 142.195H291.131V141.695H290.631V142.195ZM281.87 142.195H281.37V142.695H281.87V142.195ZM281.87 69.0177H282.37V68.5177H281.87V69.0177ZM254.558 69.0177V68.5177H254.058V69.0177H254.558ZM254.558 115.913V116.413H255.058V115.913H254.558ZM282.386 220.525H281.886V221.025H282.386V220.525ZM289.085 220.525V221.025H289.585V220.525H289.085ZM282.386 173.114H282.886V172.614H282.386V173.114ZM270.018 173.114H269.518V173.614H270.018V173.114ZM270.018 171.053V170.553H269.518V171.053H270.018ZM322.581 171.053V171.553H323.081V171.053H322.581ZM322.581 119.52V119.02H322.081V119.52H322.581ZM375.145 119.52H375.645V119.02H375.145V119.52ZM375.145 130.342L375.561 130.619L375.645 130.493V130.342H375.145ZM371.022 136.526L370.606 136.249L370.522 136.375V136.526H371.022ZM371.022 143.741H370.522V143.96L370.684 144.109L371.022 143.741ZM374.63 153.532L375.104 153.69L375.13 153.613V153.532H374.63ZM368.961 161.777L368.656 161.381L368.461 161.531V161.777H368.961ZM368.961 200.942V201.442H369.461V200.942H368.961ZM337.526 200.942H337.026V201.442H337.526V200.942ZM289.085 193.212L289.08 192.712L288.585 192.718V193.212H289.085ZM405.034 163.838H404.534V164.338H405.034V163.838ZM405.034 130.857H405.534V130.357H405.034V130.857ZM415.856 163.838V164.338H416.356V163.838H415.856ZM415.856 123.127H416.356V122.627H415.856V123.127ZM403.488 123.127H402.988V123.627H403.488V123.127ZM403.488 92.2076H403.988V91.7076H403.488V92.2076ZM338.041 92.2076V91.7076H337.541V92.2076H338.041ZM338.041 99.4222H337.541V99.9222H338.041V99.4222ZM400.912 99.4222H401.412V98.9222H400.912V99.4222ZM400.912 130.857H400.412V131.357H400.912V130.857ZM53.0637 154.562V154.062H52.5637V154.562H53.0637ZM53.0637 161.262H52.5637V161.762H53.0637V161.262ZM119.026 154.562V155.062H119.526V154.562H119.026ZM119.026 115.913V115.413H118.526V115.913H119.026ZM177.774 115.913H178.274V115.413H177.774V115.913ZM177.774 145.287V145.787H178.274V145.287H177.774ZM133.971 145.287V144.787H133.471V145.287H133.971ZM133.971 195.789V196.289H134.471V195.789H133.971ZM91.1981 195.789H90.6981V196.289H91.1981V195.789ZM91.1981 161.262H91.6981V160.762H91.1981V161.262ZM75.2229 242.684H74.7229V243.184H75.2229V242.684ZM75.2229 220.009V219.509H74.7229V220.009H75.2229ZM94.2901 242.684V243.184H94.7901V242.684H94.2901ZM94.2901 238.561L93.9481 238.197L93.7901 238.345V238.561H94.2901ZM102.535 230.831V230.331H102.338L102.193 230.467L102.535 230.831ZM144.792 230.831H145.292V230.331H144.792V230.831ZM144.792 259.175H144.292V259.675H144.792V259.175ZM161.283 259.175V259.675H161.783V259.175H161.283ZM161.283 250.929V250.429H160.783V250.929H161.283ZM204.055 250.929V251.429H204.555V250.929H204.055ZM204.055 236.5H204.555V236H204.055V236.5ZM188.08 236.5H187.58V237H188.08V236.5ZM188.08 181.875V181.375H187.58V181.875H188.08ZM220.031 181.875V182.375H220.531V181.875H220.031ZM220.031 166.93H220.531V166.43H220.031V166.93ZM205.601 166.93V166.43H205.101V166.93H205.601ZM205.601 179.298V179.798H206.101V179.298H205.601ZM158.706 179.298V178.798H158.206V179.298H158.706ZM158.706 227.739V228.239H159.206V227.739H158.706ZM125.725 227.739H125.225V228.239H125.725V227.739ZM125.725 220.009H126.225V219.509H125.725V220.009ZM21.6285 227.739V227.239H21.1285V227.739H21.6285ZM21.6285 237.015H21.1285V237.515H21.6285V237.015ZM33.4811 227.739H33.9811V227.239H33.4811V227.739ZM33.4811 237.015V237.515H33.9811V237.015H33.4811ZM55.125 197.85H54.625V198.35H55.125V197.85ZM55.125 182.906V182.406H54.625V182.906H55.125ZM61.309 197.85V198.35H61.809V197.85H61.309ZM61.309 182.906H61.809V182.406H61.309V182.906ZM397.304 294.732H396.804V295.232H397.304V294.732ZM397.304 284.941V284.441H396.804V284.941H397.304ZM407.096 284.941H407.596V284.441H407.096V284.941ZM407.096 294.732V295.232H407.596V294.732H407.096ZM423.586 242.684V243.184H424.086V242.684H423.586ZM421.009 242.684H420.509V243.184H421.009V242.684ZM423.586 211.249V210.749H423.086V211.249H423.586ZM429.77 211.249V211.749H429.985L430.133 211.593L429.77 211.249ZM431.316 207.642L431.815 207.674L431.817 207.641L431.815 207.608L431.316 207.642ZM429.77 204.55L430.096 204.171L429.956 204.05H429.77V204.55ZM423.586 204.55H423.086V205.05H423.586V204.55ZM423.586 193.212V192.712H423.086V193.212H423.586ZM470.481 193.212V193.712H470.981V193.212H470.481ZM470.481 188.059H470.981V187.559H470.481V188.059ZM404.004 188.059V187.559H403.504V188.059H404.004ZM404.004 211.249H403.504V211.749H404.004V211.249ZM421.009 211.249H421.509V210.749H421.009V211.249ZM434.923 133.434V132.934H434.423V133.434H434.923ZM438.531 133.434H439.031V132.934H438.531V133.434ZM434.923 157.139H434.423V157.639H434.923V157.139ZM466.874 157.139V157.639H467.374V157.139H466.874ZM466.874 133.434H467.374V132.934H466.874V133.434ZM463.782 133.434V132.934H463.282V133.434H463.782ZM463.782 141.164V141.664H464.282V141.164H463.782ZM438.531 141.164H438.031V141.664H438.531V141.164ZM432.862 92.2076V91.7076H432.362V92.2076H432.862ZM432.862 99.4222H432.362V99.9222H432.862V99.4222ZM479.242 92.2076H479.742V91.7076H479.242V92.2076ZM479.242 99.4222V99.9222H479.742V99.4222H479.242ZM270.018 365.333H269.518V365.833H270.018V365.333ZM317.943 365.333V365.833H318.443V365.333H317.943ZM270.018 248.868H270.518V248.368H270.018V248.868ZM240.129 248.868V248.368H239.629V248.868H240.129ZM240.129 261.236V261.736H240.629V261.236H240.129ZM225.699 261.236H225.199V261.736H225.699V261.236ZM225.699 236.5V236H225.199V236.5H225.699ZM337.526 236.5V237H338.026V236.5H337.526ZM337.526 211.764V211.264H337.026V211.764H337.526ZM340.618 211.764H341.118V211.264H340.618V211.764ZM340.618 251.96H340.118V252.46H340.618V251.96ZM378.752 251.96H379.252V251.46H378.752V251.96ZM378.752 256.083V256.583H379.252V256.083H378.752ZM366.9 256.083V255.583H366.4V256.083H366.9ZM366.9 267.935L367.168 268.357L367.4 268.21V267.935H366.9ZM361.231 273.604L361.644 273.885L361.652 273.874L361.66 273.861L361.231 273.604ZM353.501 284.941L353.088 284.659L353.079 284.673L353.07 284.688L353.501 284.941ZM348.863 287.518L348.86 287.018L348.363 287.021V287.518H348.863ZM348.863 293.186L349.115 293.618L349.363 293.473V293.186H348.863ZM342.679 296.794L342.837 297.268L342.886 297.252L342.931 297.226L342.679 296.794ZM330.311 300.916V301.416H330.392L330.469 301.391L330.311 300.916ZM327.735 300.916V300.416H327.235V300.916H327.735ZM327.735 328.744L328.208 328.905L328.235 328.827V328.744H327.735ZM323.097 331.321L323.074 330.821L322.641 330.841L322.599 331.272L323.097 331.321ZM317.943 336.474L317.859 335.981L317.443 336.052V336.474H317.943ZM205.086 352.449H205.586V351.949H205.086V352.449ZM205.086 397.283H204.586V397.783H205.086V397.283ZM147.884 352.449H147.384V352.949H147.884V352.449ZM147.884 345.235V344.735H147.384V345.235H147.884ZM154.068 345.235V345.735H154.568V345.235H154.068ZM154.068 284.941V284.441H153.568V284.941H154.068ZM244.251 284.941H244.751V284.441H244.251V284.941ZM244.251 301.947V302.447H244.751V301.947H244.251ZM211.785 301.947V301.447H211.285V301.947H211.785ZM211.785 353.995H211.285V354.495H211.785V353.995ZM241.159 353.995H241.659V353.495H241.159V353.995ZM241.159 356.572V357.072H241.659V356.572H241.159ZM224.153 356.572V356.072H223.653V356.572H224.153ZM224.153 397.283V397.783H224.653V397.283H224.153ZM75.2229 268.966H74.7229V284.941H75.2229H75.7229V268.966H75.2229ZM93.7748 268.966V268.466H75.2229V268.966V269.466H93.7748V268.966ZM93.7748 324.621H94.2748V268.966H93.7748H93.2748V324.621H93.7748ZM114.903 345.75L115.257 345.396L94.1283 324.268L93.7748 324.621L93.4212 324.975L114.55 346.104L114.903 345.75ZM114.903 360.695H115.403V345.75H114.903H114.403V360.695H114.903ZM94.2901 360.695V361.195H114.903V360.695V360.195H94.2901V360.695ZM94.2901 380.792H94.7901V360.695H94.2901H93.7901V380.792H94.2901ZM192.718 427.688L192.933 427.236L94.5052 380.341L94.2901 380.792L94.075 381.244L192.503 428.139L192.718 427.688ZM224.153 427.688V427.188H192.718V427.688V428.188H224.153V427.688ZM224.153 455H224.653V427.688H224.153H223.653V455H224.153ZM301.453 455V454.5H224.153V455V455.5H301.453V455ZM301.453 390.584H300.953V455H301.453H301.953V390.584H301.453ZM372.053 390.584V390.084H301.453V390.584V391.084H372.053V390.584ZM372.053 328.744V329.244C371.779 329.244 371.652 329.038 371.639 329.018C371.608 328.968 371.596 328.926 371.594 328.921C371.589 328.904 371.59 328.903 371.595 328.936C371.604 328.995 371.614 329.096 371.624 329.246C371.644 329.543 371.662 329.987 371.679 330.57C371.711 331.732 371.735 333.419 371.751 335.512C371.784 339.696 371.787 345.492 371.772 351.933C371.742 364.815 371.639 380.274 371.553 390.58L372.053 390.584L372.553 390.588C372.639 380.281 372.742 364.82 372.772 351.935C372.787 345.493 372.784 339.694 372.751 335.504C372.735 333.41 372.711 331.715 372.678 330.542C372.662 329.957 372.643 329.496 372.622 329.178C372.611 329.022 372.599 328.889 372.584 328.79C372.578 328.744 372.567 328.684 372.55 328.627C372.542 328.602 372.524 328.546 372.486 328.486C372.467 328.455 372.334 328.244 372.053 328.244V328.744ZM345.256 328.744V329.244H372.053V328.744V328.244H345.256V328.744ZM345.256 325.652H344.756V328.744H345.256H345.756V325.652H345.256ZM449.353 325.652V325.152H345.256V325.652V326.152H449.353V325.652ZM449.353 238.046H448.853V325.652H449.353H449.853V238.046H449.353ZM467.904 238.046V237.546H449.353V238.046V238.546H467.904V238.046ZM492.64 212.795L492.283 212.445L467.547 237.696L467.904 238.046L468.262 238.396L492.998 213.145L492.64 212.795ZM492.64 69.0177H492.14V212.795H492.64H493.14V69.0177H492.64ZM373.084 69.0177V69.5177H492.64V69.0177V68.5177H373.084V69.0177ZM373.084 18H372.584V69.0177H373.084H373.584V18H373.084ZM260.742 18V18.5H373.084V18V17.5H260.742V18ZM255.588 20.0613L255.672 20.5543C256.832 20.3579 257.736 20.1535 258.573 19.827C259.416 19.4984 260.169 19.0544 261.042 18.4001L260.742 18L260.442 17.5999C259.62 18.2159 258.946 18.6081 258.21 18.8954C257.468 19.1847 256.643 19.3757 255.505 19.5683L255.588 20.0613ZM246.828 22.1226L246.942 22.6094L255.703 20.548L255.588 20.0613L255.474 19.5746L246.713 21.6359L246.828 22.1226ZM243.221 25.2146L243.69 25.3863C243.996 24.5487 244.294 24.0211 244.741 23.623C245.194 23.2202 245.849 22.9065 246.959 22.6052L246.828 22.1226L246.697 21.6401C245.531 21.9568 244.7 22.3213 244.076 22.876C243.448 23.4355 243.079 24.1448 242.751 25.0429L243.221 25.2146ZM239.068 34.0098L239.528 34.2055C240.644 31.5813 241.752 28.9764 243.66 25.4527L243.221 25.2146L242.781 24.9765C240.849 28.5441 239.726 31.1856 238.608 33.8142L239.068 34.0098ZM237.037 38.6132L237.489 38.8259C238.267 37.1708 238.899 35.6833 239.528 34.2055L239.068 34.0098L238.608 33.8142C237.979 35.2932 237.353 36.7645 236.584 38.4005L237.037 38.6132ZM230.337 59.7417L230.814 59.8929L237.513 38.7643L237.037 38.6132L236.56 38.4621L229.861 59.5906L230.337 59.7417ZM230.337 62.8337H230.837V59.7417H230.337H229.837V62.8337H230.337ZM225.699 68.5024L226.086 68.819L230.724 63.1503L230.337 62.8337L229.95 62.5171L225.312 68.1857L225.699 68.5024ZM225.699 79.8396H226.199V68.5024H225.699H225.199V79.8396H225.699ZM96.8667 79.8396V80.3396H225.699V79.8396V79.3396H96.8667V79.8396ZM96.8667 122.612H97.3667V79.8396H96.8667H96.3667V122.612H96.8667ZM23.1745 122.612V123.112H96.8667V122.612V122.112H23.1745V122.612ZM23.1745 154.562H23.6745V122.612H23.1745H22.6745V154.562H23.1745ZM33.4811 154.562V154.062H23.1745V154.562V155.062H33.4811V154.562ZM33.4811 201.973C33.9811 201.976 33.9811 201.975 33.9811 201.975C33.9811 201.975 33.9811 201.975 33.9811 201.974C33.9811 201.973 33.9811 201.972 33.9812 201.97C33.9812 201.966 33.9812 201.96 33.9812 201.953C33.9813 201.937 33.9815 201.915 33.9816 201.884C33.9819 201.824 33.9824 201.734 33.983 201.617C33.9842 201.381 33.986 201.034 33.9882 200.586C33.9925 199.691 33.9986 198.395 34.0053 196.789C34.0187 193.579 34.0348 189.134 34.0455 184.195C34.067 174.318 34.067 162.462 33.9811 154.557L33.4811 154.562L32.9812 154.568C33.067 162.466 33.067 174.316 33.0455 184.193C33.0348 189.131 33.0187 193.575 33.0053 196.785C32.9986 198.39 32.9925 199.686 32.9882 200.581C32.986 201.029 32.9842 201.376 32.983 201.611C32.9824 201.729 32.9819 201.819 32.9816 201.879C32.9815 201.909 32.9813 201.932 32.9813 201.947C32.9812 201.955 32.9812 201.961 32.9812 201.964C32.9812 201.966 32.9812 201.968 32.9811 201.969C32.9811 201.969 32.9811 201.97 32.9811 201.97C32.9811 201.97 32.9811 201.97 33.4811 201.973ZM0.5 201.973V202.473H33.4811V201.973V201.473H0.5V201.973ZM0.5 267.42H1V201.973H0.5H0V267.42H0.5ZM19.5672 284.941L19.6586 284.449C13.9623 283.39 10.0619 282.051 7.20656 279.54C4.35737 277.035 2.48175 273.302 0.985152 267.299L0.5 267.42L0.0148479 267.541C1.5311 273.623 3.47304 277.589 6.54621 280.291C9.61323 282.988 13.74 284.366 19.4758 285.433L19.5672 284.941ZM75.2229 284.941V284.441H19.5672V284.941V285.441H75.2229V284.941ZM196.841 144.771H197.341V115.913H196.841H196.341V144.771H196.841ZM196.841 145.287H197.341V144.771H196.841H196.341V145.287H196.841ZM205.086 145.287V144.787H196.841V145.287V145.787H205.086V145.287ZM205.086 151.471H205.586V145.287H205.086H204.586V151.471H205.086ZM245.797 151.471V150.971H205.086V151.471V151.971H245.797V151.471ZM245.797 181.875H246.297V151.471H245.797H245.297V181.875H245.797ZM257.134 181.875V181.375H245.797V181.875V182.375H257.134V181.875ZM257.134 171.053H256.634V181.875H257.134H257.634V171.053H257.134ZM248.889 171.053V171.553H257.134V171.053V170.553H248.889V171.053ZM248.889 141.164H248.389V171.053H248.889H249.389V141.164H248.889ZM279.809 141.164V140.664H248.889V141.164V141.664H279.809V141.164ZM279.809 148.894H280.309V141.164H279.809H279.309V148.894H279.809ZM290.631 148.894V148.394H279.809V148.894V149.394H290.631V148.894ZM290.631 142.195H290.131V148.894H290.631H291.131V142.195H290.631ZM281.87 142.195V142.695H290.631V142.195V141.695H281.87V142.195ZM281.87 69.0177H281.37V142.195H281.87H282.37V69.0177H281.87ZM254.558 69.0177V69.5177H281.87V69.0177V68.5177H254.558V69.0177ZM254.558 115.913H255.058V69.0177H254.558H254.058V115.913H254.558ZM196.841 115.913V116.413H254.558V115.913V115.413H196.841V115.913ZM282.386 220.525V221.025H289.085V220.525V220.025H282.386V220.525ZM282.386 173.114H281.886V220.525H282.386H282.886V173.114H282.386ZM270.018 173.114V173.614H282.386V173.114V172.614H270.018V173.114ZM270.018 171.053H269.518V173.114H270.018H270.518V171.053H270.018ZM322.581 171.053V170.553H270.018V171.053V171.553H322.581V171.053ZM322.581 119.52H322.081V171.053H322.581H323.081V119.52H322.581ZM375.145 119.52V119.02H322.581V119.52V120.02H375.145V119.52ZM375.145 130.342H375.645V119.52H375.145H374.645V130.342H375.145ZM371.022 136.526L371.438 136.803L375.561 130.619L375.145 130.342L374.729 130.065L370.606 136.249L371.022 136.526ZM371.022 143.741H371.522V136.526H371.022H370.522V143.741H371.022ZM374.63 153.532H375.13C375.13 150.95 374.988 149.122 374.433 147.579C373.872 146.016 372.906 144.792 371.361 143.372L371.022 143.741L370.684 144.109C372.17 145.474 373.008 146.568 373.492 147.917C373.984 149.285 374.13 150.96 374.13 153.532H374.63ZM368.961 161.777L369.266 162.173C370.996 160.841 372.082 159.899 372.922 158.68C373.759 157.466 374.331 156.008 375.104 153.69L374.63 153.532L374.155 153.374C373.382 155.694 372.847 157.028 372.099 158.113C371.355 159.192 370.38 160.054 368.656 161.381L368.961 161.777ZM368.961 200.942H369.461V161.777H368.961H368.461V200.942H368.961ZM337.526 200.942V201.442H368.961V200.942V200.442H337.526V200.942ZM337.526 193.212H337.026V200.942H337.526H338.026V193.212H337.526ZM289.085 193.212L289.09 193.712C297.163 193.626 309.272 193.523 319.362 193.493C324.407 193.478 328.946 193.481 332.223 193.514C333.862 193.531 335.181 193.554 336.089 193.587C336.544 193.603 336.889 193.621 337.116 193.641C337.232 193.651 337.304 193.66 337.34 193.667C337.362 193.671 337.348 193.67 337.32 193.659C337.308 193.654 337.26 193.635 337.207 193.593C337.161 193.555 337.026 193.43 337.026 193.212H337.526H338.026C338.026 192.988 337.887 192.856 337.833 192.813C337.772 192.764 337.713 192.739 337.685 192.728C337.625 192.704 337.565 192.692 337.526 192.684C337.439 192.668 337.327 192.655 337.202 192.644C336.949 192.622 336.584 192.604 336.125 192.587C335.203 192.554 333.874 192.531 332.233 192.514C328.949 192.481 324.406 192.478 319.359 192.493C309.265 192.523 297.154 192.626 289.08 192.712L289.085 193.212ZM289.085 220.525H289.585V193.212H289.085H288.585V220.525H289.085ZM405.034 163.838H405.534V130.857H405.034H404.534V163.838H405.034ZM415.856 163.838V163.338H405.034V163.838V164.338H415.856V163.838ZM415.856 123.127H415.356V163.838H415.856H416.356V123.127H415.856ZM403.488 123.127V123.627H415.856V123.127V122.627H403.488V123.127ZM403.488 92.2076H402.988V123.127H403.488H403.988V92.2076H403.488ZM338.041 92.2076V92.7076H403.488V92.2076V91.7076H338.041V92.2076ZM338.041 99.4222H338.541V92.2076H338.041H337.541V99.4222H338.041ZM400.912 99.4222V98.9222H338.041V99.4222V99.9222H400.912V99.4222ZM400.912 130.857H401.412V99.4222H400.912H400.412V130.857H400.912ZM405.034 130.857V130.357H400.912V130.857V131.357H405.034V130.857ZM53.0637 154.562H52.5637V161.262H53.0637H53.5637V154.562H53.0637ZM119.026 154.562V154.062H53.0637V154.562V155.062H119.026V154.562ZM119.026 115.913H118.526V154.562H119.026H119.526V115.913H119.026ZM177.774 115.913V115.413H119.026V115.913V116.413H177.774V115.913ZM177.774 145.287H178.274V115.913H177.774H177.274V145.287H177.774ZM133.971 145.287V145.787H177.774V145.287V144.787H133.971V145.287ZM133.971 195.789H134.471V145.287H133.971H133.471V195.789H133.971ZM91.1981 195.789V196.289H133.971V195.789V195.289H91.1981V195.789ZM91.1981 161.262H90.6981V195.789H91.1981H91.6981V161.262H91.1981ZM53.0637 161.262V161.762H91.1981V161.262V160.762H53.0637V161.262ZM75.2229 242.684H75.7229V220.009H75.2229H74.7229V242.684H75.2229ZM94.2901 242.684V242.184H75.2229V242.684V243.184H94.2901V242.684ZM94.2901 238.561H93.7901V242.684H94.2901H94.7901V238.561H94.2901ZM102.535 230.831L102.193 230.467L93.9481 238.197L94.2901 238.561L94.6321 238.926L102.877 231.196L102.535 230.831ZM144.792 230.831V230.331H102.535V230.831V231.331H144.792V230.831ZM144.792 259.175H145.292V230.831H144.792H144.292V259.175H144.792ZM161.283 259.175V258.675H144.792V259.175V259.675H161.283V259.175ZM161.283 250.929H160.783V259.175H161.283H161.783V250.929H161.283ZM204.055 250.929V250.429H161.283V250.929V251.429H204.055V250.929ZM204.055 236.5H203.555V250.929H204.055H204.555V236.5H204.055ZM188.08 236.5V237H204.055V236.5V236H188.08V236.5ZM188.08 181.875H187.58V236.5H188.08H188.58V181.875H188.08ZM220.031 181.875V181.375H188.08V181.875V182.375H220.031V181.875ZM220.031 166.93H219.531V181.875H220.031H220.531V166.93H220.031ZM205.601 166.93V167.43H220.031V166.93V166.43H205.601V166.93ZM205.601 179.298H206.101V166.93H205.601H205.101V179.298H205.601ZM158.706 179.298V179.798H205.601V179.298V178.798H158.706V179.298ZM158.706 227.739H159.206V179.298H158.706H158.206V227.739H158.706ZM125.725 227.739V228.239H158.706V227.739V227.239H125.725V227.739ZM125.725 220.009H125.225V227.739H125.725H126.225V220.009H125.725ZM75.2229 220.009V220.509H125.725V220.009V219.509H75.2229V220.009ZM21.6285 227.739H21.1285V237.015H21.6285H22.1285V227.739H21.6285ZM33.4811 227.739V227.239H21.6285V227.739V228.239H33.4811V227.739ZM33.4811 237.015H33.9811V227.739H33.4811H32.9811V237.015H33.4811ZM21.6285 237.015V237.515H33.4811V237.015V236.515H21.6285V237.015ZM55.125 197.85H55.625V182.906H55.125H54.625V197.85H55.125ZM61.309 197.85V197.35H55.125V197.85V198.35H61.309V197.85ZM61.309 182.906H60.809V197.85H61.309H61.809V182.906H61.309ZM55.125 182.906V183.406H61.309V182.906V182.406H55.125V182.906ZM397.304 285.456H396.804V294.732H397.304H397.804V285.456H397.304ZM397.304 284.941H396.804V285.456H397.304H397.804V284.941H397.304ZM407.096 284.941V284.441H397.304V284.941V285.441H407.096V284.941ZM407.096 294.732H407.596V284.941H407.096H406.596V294.732H407.096ZM397.304 294.732V295.232H407.096V294.732V294.232H397.304V294.732ZM423.586 242.684V242.184H421.009V242.684V243.184H423.586V242.684ZM423.586 211.249H423.086V242.684H423.586H424.086V211.249H423.586ZM429.77 211.249V210.749H423.586V211.249V211.749H429.77V211.249ZM431.316 207.642L430.817 207.609C430.766 208.38 430.673 208.915 430.474 209.393C430.277 209.868 429.96 210.323 429.407 210.905L429.77 211.249L430.133 211.593C430.732 210.962 431.136 210.406 431.397 209.777C431.658 209.151 431.761 208.489 431.815 207.674L431.316 207.642ZM429.77 204.55L429.444 204.929C429.956 205.369 430.261 205.711 430.458 206.094C430.655 206.477 430.768 206.945 430.817 207.675L431.316 207.642L431.815 207.608C431.761 206.81 431.632 206.189 431.347 205.637C431.063 205.085 430.647 204.644 430.096 204.171L429.77 204.55ZM423.586 204.55V205.05H429.77V204.55V204.05H423.586V204.55ZM423.586 193.212H423.086V204.55H423.586H424.086V193.212H423.586ZM470.481 193.212V192.712H423.586V193.212V193.712H470.481V193.212ZM470.481 188.059H469.981V193.212H470.481H470.981V188.059H470.481ZM404.004 188.059V188.559H470.481V188.059V187.559H404.004V188.059ZM404.004 211.249H404.504V188.059H404.004H403.504V211.249H404.004ZM421.009 211.249V210.749H404.004V211.249V211.749H421.009V211.249ZM421.009 242.684H421.509V211.249H421.009H420.509V242.684H421.009ZM434.923 133.434V133.934H438.531V133.434V132.934H434.923V133.434ZM434.923 157.139H435.423V133.434H434.923H434.423V157.139H434.923ZM466.874 157.139V156.639H434.923V157.139V157.639H466.874V157.139ZM466.874 133.434H466.374V157.139H466.874H467.374V133.434H466.874ZM463.782 133.434V133.934H466.874V133.434V132.934H463.782V133.434ZM463.782 141.164H464.282V133.434H463.782H463.282V141.164H463.782ZM438.531 141.164V141.664H463.782V141.164V140.664H438.531V141.164ZM438.531 133.434H438.031V141.164H438.531H439.031V133.434H438.531ZM432.862 92.2076H432.362V99.4222H432.862H433.362V92.2076H432.862ZM479.242 92.2076V91.7076H432.862V92.2076V92.7076H479.242V92.2076ZM479.242 99.4222H479.742V92.2076H479.242H478.742V99.4222H479.242ZM432.862 99.4222V99.9222H479.242V99.4222V98.9222H432.862V99.4222ZM270.018 365.333V365.833H317.943V365.333V364.833H270.018V365.333ZM270.018 248.868H269.518V365.333H270.018H270.518V248.868H270.018ZM240.129 248.868V249.368H270.018V248.868V248.368H240.129V248.868ZM240.129 261.236H240.629V248.868H240.129H239.629V261.236H240.129ZM225.699 261.236V261.736H240.129V261.236V260.736H225.699V261.236ZM225.699 236.5H225.199V261.236H225.699H226.199V236.5H225.699ZM337.526 236.5V236H225.699V236.5V237H337.526V236.5ZM337.526 211.764H337.026V236.5H337.526H338.026V211.764H337.526ZM340.618 211.764V211.264H337.526V211.764V212.264H340.618V211.764ZM340.618 251.96H341.118V211.764H340.618H340.118V251.96H340.618ZM378.752 251.96V251.46H340.618V251.96V252.46H378.752V251.96ZM378.752 256.083H379.252V251.96H378.752H378.252V256.083H378.752ZM366.9 256.083V256.583H378.752V256.083V255.583H366.9V256.083ZM366.9 267.935H367.4V256.083H366.9H366.4V267.935H366.9ZM361.231 273.604L361.66 273.861C362.426 272.585 363.101 271.662 363.925 270.837C364.752 270.009 365.745 269.263 367.168 268.357L366.9 267.935L366.631 267.513C365.179 268.438 364.117 269.229 363.218 270.13C362.316 271.033 361.594 272.029 360.803 273.346L361.231 273.604ZM353.501 284.941L353.914 285.223L361.644 273.885L361.231 273.604L360.818 273.322L353.088 284.659L353.501 284.941ZM348.863 287.518L348.866 288.018C350.254 288.009 351.251 287.818 352.051 287.336C352.85 286.855 353.386 286.124 353.932 285.194L353.501 284.941L353.07 284.688C352.543 285.585 352.111 286.133 351.535 286.48C350.96 286.826 350.175 287.01 348.86 287.018L348.863 287.518ZM348.863 293.186H349.363V287.518H348.863H348.363V293.186H348.863ZM342.679 296.794L342.931 297.226L349.115 293.618L348.863 293.186L348.611 292.754L342.427 296.362L342.679 296.794ZM330.311 300.916L330.469 301.391L342.837 297.268L342.679 296.794L342.521 296.319L330.153 300.442L330.311 300.916ZM327.735 300.916V301.416H330.311V300.916V300.416H327.735V300.916ZM327.735 328.744H328.235V300.916H327.735H327.235V328.744H327.735ZM323.097 331.321L323.119 331.82C324.417 331.761 325.492 331.663 326.337 331.256C327.23 330.825 327.807 330.082 328.208 328.905L327.735 328.744L327.261 328.583C326.92 329.586 326.488 330.072 325.902 330.355C325.268 330.661 324.395 330.761 323.074 330.821L323.097 331.321ZM317.943 336.474L318.028 336.967C319.817 336.661 321.151 336.238 322.069 335.356C322.999 334.461 323.418 333.178 323.594 331.369L323.097 331.321L322.599 331.272C322.43 333 322.048 333.989 321.376 334.635C320.691 335.294 319.622 335.68 317.859 335.981L317.943 336.474ZM317.943 365.333H318.443V336.474H317.943H317.443V365.333H317.943ZM205.086 352.449H204.586V397.283H205.086H205.586V352.449H205.086ZM147.884 352.449V352.949H205.086V352.449V351.949H147.884V352.449ZM147.884 345.235H147.384V352.449H147.884H148.384V345.235H147.884ZM154.068 345.235V344.735H147.884V345.235V345.735H154.068V345.235ZM154.068 284.941H153.568V345.235H154.068H154.568V284.941H154.068ZM244.251 284.941V284.441H154.068V284.941V285.441H244.251V284.941ZM244.251 301.947H244.751V284.941H244.251H243.751V301.947H244.251ZM211.785 301.947V302.447H244.251V301.947V301.447H211.785V301.947ZM211.785 353.995H212.285V301.947H211.785H211.285V353.995H211.785ZM241.159 353.995V353.495H211.785V353.995V354.495H241.159V353.995ZM241.159 356.572H241.659V353.995H241.159H240.659V356.572H241.159ZM224.153 356.572V357.072H241.159V356.572V356.072H224.153V356.572ZM224.153 397.283H224.653V356.572H224.153H223.653V397.283H224.153ZM205.086 397.283V397.783H224.153V397.283V396.783H205.086V397.283Z" fill="#B27C40"/>
<path d="M205.086 284.941C205.086 284.529 205.086 279.272 205.086 276.696H212.301V284.941" stroke="#B27C40"/>
<path d="M270.018 353.995H261.772V361.21M261.772 361.21V365.333H270.018V361.21H261.772Z" stroke="#B27C40"/>
<path d="M245.797 181.875V184.452M282.386 197.85H278.263M278.263 197.85H245.797V184.452M278.263 197.85V212.795H282.386M245.797 173.63H240.644V184.452H245.797" stroke="#B27C40"/>
<path d="M188.08 190.12H192.203M204.571 181.875V190.12H192.203M192.203 190.12V194.243H188.08M196.841 145.287V151.471H205.601M119.026 115.913V107.152H126.241V115.913M96.8668 131.373H23.1746" stroke="#B27C40"/>
<path d="M78.3149 161.262C78.3149 161.674 78.3149 164.869 78.3149 166.415H82.9528M82.9528 166.415V161.262M82.9528 166.415V170.022H91.1981M21.6285 236.5V253.506H28.8432V237.015M62.3396 284.941V280.818H66.4623M75.2229 276.696H66.9776V284.941M144.792 251.96H136.032V259.175H144.792M147.884 345.235H140.154V352.449H147.884M182.412 352.449V374.093M182.412 382.338V397.798H190.142V382.338H186.019M182.412 382.338H186.019M182.412 382.338V374.093M186.019 382.338V374.093H182.412M228.276 319.983H229.822V321.529M228.276 319.983V321.529H229.822M228.276 319.983L229.822 321.529M228.276 336.474H229.822V338.02M228.276 336.474V338.02H229.822M228.276 336.474L229.822 338.02M112.327 287.002L103.051 296.278L109.75 312.254L130.363 319.983L142.731 314.315L146.854 298.855L140.67 287.518L122.633 282.88L112.327 287.002Z" stroke="#B27C40"/>
<path d="M471.512 99.4222V107.667H479.242V99.4222M462.751 92.2075V69.0177M432.862 99.4222L415.856 123.643M403.488 92.2075V84.4776H396.274V92.2075M373.084 38.6132H363.808V35.5212M363.808 18V31.3986M373.084 31.3986H363.808M363.808 31.3986V35.5212M352.47 18V26.2453L363.808 35.5212" stroke="#B27C40"/>
<path d="M372.053 290.094V292.156L367.93 296.278H363.808C361.901 295.863 361.275 295.007 360.716 292.671M407.096 284.941L410.703 283.91H413.28C413.967 284.254 415.547 284.941 416.371 284.941C417.196 284.941 430.114 284.941 436.469 284.941V291.125H435.954V294.732H407.096" stroke="#B27C40"/>
<path d="M405.034 151.986H391.636M447.291 157.139V165.9H455.021V157.139M368.961 193.728H377.206V200.942H368.961M367.93 251.96V243.715H372.053M378.752 251.96V243.715H372.053M372.053 243.715V251.96M365.354 268.966C366.462 271.443 367.432 273.595 368.776 275.665C370.671 280.031 371.589 284.067 372.053 290.094L344.225 295.763" stroke="#B27C40"/>
<path d="M61.5592 197.6V237.265H33.2311V236.25H60.5436V197.6H61.5592Z" stroke="#B27C40" stroke-width="0.5"/>
<path d="M246.313 184.008C236.551 186.332 229.291 195.108 229.291 205.581C229.292 217.827 239.22 227.755 251.466 227.755C263.712 227.754 273.64 217.827 273.64 205.581C273.64 202.667 273.077 199.884 272.055 197.335H272.593C273.591 199.89 274.14 202.672 274.14 205.581L274.133 206.166C273.823 218.418 263.793 228.254 251.466 228.255L250.88 228.248C238.823 227.942 229.105 218.223 228.799 206.166L228.791 205.581C228.791 194.831 236.273 185.827 246.313 183.494V184.008Z" fill="#B27C40"/>
<path d="M245.281 173.114H240.128V184.967H245.281V209.248H205.086V182.391H220.546V166.415H245.281V173.114Z" fill="#F08234" fill-opacity="0.23"/>
<path d="M281.871 198.365H277.748V209.188H281.871L245.282 209.228V198.365L281.871 198.325V198.365Z" fill="#F08234" fill-opacity="0.23"/>
<path d="M218.243 198.028V190.028H221.306C221.884 190.028 222.364 190.119 222.747 190.302C223.132 190.481 223.42 190.728 223.61 191.04C223.803 191.353 223.899 191.707 223.899 192.103C223.899 192.428 223.837 192.707 223.712 192.938C223.587 193.168 223.419 193.354 223.208 193.497C222.997 193.64 222.761 193.743 222.501 193.806V193.884C222.785 193.899 223.057 193.987 223.317 194.145C223.58 194.302 223.795 194.523 223.962 194.81C224.128 195.096 224.212 195.442 224.212 195.849C224.212 196.263 224.112 196.635 223.911 196.966C223.71 197.294 223.408 197.553 223.005 197.743C222.601 197.933 222.093 198.028 221.481 198.028H218.243ZM219.692 196.817H221.251C221.777 196.817 222.156 196.717 222.388 196.517C222.622 196.313 222.739 196.053 222.739 195.735C222.739 195.498 222.681 195.285 222.563 195.095C222.446 194.902 222.28 194.751 222.063 194.642C221.847 194.53 221.589 194.474 221.29 194.474H219.692V196.817ZM219.692 193.431H221.126C221.376 193.431 221.601 193.385 221.802 193.294C222.002 193.2 222.16 193.069 222.274 192.899C222.391 192.728 222.45 192.524 222.45 192.29C222.45 191.98 222.341 191.725 222.122 191.524C221.906 191.324 221.584 191.224 221.157 191.224H219.692V193.431Z" fill="white"/>
<path d="M434.408 140.648H434.409L434.408 157.654H446.776V164.354H416.372V123.127L432.862 99.9375H470.997V108.183H479.757V99.9375H492.125V164.354H455.537V157.654H467.388L467.389 140.648V132.919H463.266V140.648H439.046V132.919H434.408V140.648Z" fill="#F08234" fill-opacity="0.2"/>
<path d="M449.108 123.821H447.561L450.377 115.821H452.166L454.987 123.821H453.44L451.303 117.461H451.24L449.108 123.821ZM449.158 120.684H453.377V121.848H449.158V120.684Z" fill="white"/>
<path d="M33.9965 198.366H60.2783V235.985H33.9965V198.366Z" fill="#F08234" fill-opacity="0.23"/>
<path d="M33.9965 182.39H54.6097V198.366H33.9965V182.39Z" fill="#F08234" fill-opacity="0.23"/>
<path d="M1.01538 202.488H33.9965V227.224H1.01538V202.488Z" fill="#F08234" fill-opacity="0.23"/>
<path d="M42.6638 211.279H41.2029C41.1612 211.04 41.0844 210.828 40.9724 210.643C40.8604 210.455 40.7211 210.296 40.5544 210.166C40.3878 210.036 40.1977 209.938 39.9841 209.873C39.7732 209.805 39.5453 209.772 39.3005 209.772C38.8656 209.772 38.4802 209.881 38.1443 210.1C37.8083 210.316 37.5453 210.634 37.3552 211.053C37.1651 211.47 37.0701 211.979 37.0701 212.58C37.0701 213.192 37.1651 213.708 37.3552 214.127C37.5479 214.544 37.811 214.859 38.1443 215.072C38.4802 215.283 38.8643 215.389 39.2966 215.389C39.5362 215.389 39.7602 215.358 39.9685 215.295C40.1794 215.23 40.3682 215.135 40.5349 215.01C40.7042 214.885 40.8461 214.731 40.9607 214.549C41.0779 214.367 41.1586 214.158 41.2029 213.924L42.6638 213.932C42.6091 214.312 42.4906 214.669 42.3083 215.002C42.1287 215.335 41.893 215.63 41.6013 215.885C41.3097 216.137 40.9685 216.335 40.5779 216.479C40.1873 216.619 39.7537 216.69 39.2771 216.69C38.574 216.69 37.9464 216.527 37.3943 216.201C36.8422 215.876 36.4073 215.406 36.0896 214.791C35.7719 214.177 35.613 213.44 35.613 212.58C35.613 211.718 35.7732 210.981 36.0935 210.369C36.4138 209.755 36.85 209.285 37.4021 208.959C37.9542 208.634 38.5792 208.471 39.2771 208.471C39.7224 208.471 40.1365 208.533 40.5193 208.658C40.9021 208.783 41.2432 208.967 41.5427 209.209C41.8422 209.449 42.0883 209.743 42.281 210.092C42.4763 210.438 42.6039 210.834 42.6638 211.279Z" fill="white"/>
</svg>
