<svg width="469" height="473" viewBox="0 0 469 473" fill="none" xmlns="http://www.w3.org/2000/svg">
<path fill-rule="evenodd" clip-rule="evenodd" d="M108.109 404.058V354.615L77.9114 354.615V369.098H17.2415V331.735L18.6875 331.735V283.74H0.5V270.605L18.6875 252.417V160.469V153.845H30.9651L37.6168 160.469H50.0105V156.932H42.4323V131.129H120.235V160.469H123.771V109.895H146.833L192.807 94.2334H239.969V45.7865C239.969 30.4404 252.41 18 267.756 18C283.102 18 295.542 30.4404 295.542 45.7865V51.3438H379.912L441.042 112.474V159.459L419.021 159.459V161.654H434.004V198.793H401.013V220.768H408.034V209.281L442.053 209.281L468.277 235.251V257.469L440.996 296.182H406.366V288.287L394.563 288.287V295.865H368.797L369.578 352.617L329.161 393.034H295.662V455H205.11V414.589L193.995 404.058H108.109ZM364.25 99.8439L359.704 104.391L371.323 116.011H407.698V108.432H395.068L372.839 86.2032V75.5938L365.766 65.9949H354.146V89.7397L364.25 99.8439ZM284.675 334.138V319.155H299.079V277.703H284.175V260.223H287.964V264.542H350.61V241.744L341.516 232.209V178.317H375.071V198.793H379.067V220.768H367.787V234.752L420.947 253.73V261.112L383.562 270.211H328.125V360.109L324.13 367.101H319.135V334.138H284.675ZM284.427 183.709V195.328H309.183V146.323H322.318L341.011 155.417H367.282V134.198H362.735L351.62 123.083L356.672 118.031L351.62 112.979L346.568 117.526L335.959 106.917V88.2241H332.928L328.886 90.2449H295.28V80.9043H291.5V119.547H275.839V123.589L277.86 131.167V154.406L284.427 168.552V183.709ZM205.765 394.07L215.254 404.058L225.742 393.37L225.325 360.109H298.763L302.155 367.101H307.649V356.318H262.703V334.138H264.198V330.143H237.729L217.235 310.166H201.068V340.631H210.667V389.075L205.765 394.07ZM218.251 219.769V199.293H223.745L255.209 184.809L267.532 184.713V177.318H269.692V210.28H317.637V217.771H309.646V240.246H262.201V264.218H247.547V219.769H218.251ZM142.969 124.094H147.011V160.469H142.969V124.094ZM63.146 145.854V160.837H105.879V145.854H63.146ZM120.235 197.349V232.255H173.787V219.769H207.263V168.989L254.582 154.843L265.697 119.547V111.393H281.396V106.917H268.766V80.9549L265.197 80.928V108.869L261.511 108.894V119.881L228.855 119.883V143.856H187.786V134.476H170.755V178.656H142.969V208.782H123.771V197.349H120.235ZM63.146 240.797V244.839V269.089V332.141H155.094V382.289H171.766V289.689H204.099L212.183 297.181H214.203V260.292H231.66L238.228 254.23C238.526 252.69 237.28 252.059 235.927 251.912H229.865V250.396H180.86V265.552H165.703H151.052L135.391 254.438H99.0158V226.761H106.379V217.667L79.9091 217.558V221.767H55.4371V235.751H63.146V240.797ZM36.4589 265.717H45.4486V283.696H36.4589V265.717ZM141.339 351.618C141.339 354.377 139.103 356.613 136.345 356.613C133.586 356.613 131.35 354.377 131.35 351.618C131.35 348.86 133.586 346.624 136.345 346.624C139.103 346.624 141.339 348.86 141.339 351.618Z" fill="#271406"/>
<path d="M295.042 45.7861C295.042 30.7165 282.826 18.5002 267.756 18.5C252.686 18.5 240.469 30.7164 240.469 45.7861V94.7334H192.891L146.994 110.368L146.915 110.395H124.271V160.969H119.734V131.629H42.9326V156.433H50.5107V160.969H37.4102L37.2637 160.823L30.7588 154.345H19.1875V252.624L1 270.812V283.24H19.1875V332.234H17.7412V368.599H77.4111V354.115H108.609V403.559H194.194L205.453 414.227L205.609 414.374V454.5H295.162V392.534H328.954L369.075 352.412L368.298 295.872L368.29 295.365H394.063V287.787H406.866V295.682H440.736L467.777 257.309V235.459L441.847 209.781H408.534V221.268H400.513V198.293H433.504V162.154H418.521V158.959H440.542V112.681L379.705 51.8438H295.042V45.7861ZM217.438 309.666L237.931 329.643H264.698V334.639H263.203V355.818H308.148V367.601H301.842L298.45 360.608H225.831L226.242 393.364L226.245 393.572L215.248 404.778L214.892 404.402L205.07 394.064L210.167 388.871V341.131H200.568V309.666H217.438ZM201.568 340.131H211.167V389.279L206.46 394.075L215.26 403.338L225.239 393.169L224.819 359.608H299.076L302.468 366.601H307.148V356.818H262.203V333.639H263.698V330.643H237.525L217.032 310.666H201.568V340.131ZM106.381 217.167L106.879 217.17V227.261H99.5156V253.938H135.55L151.213 265.053H180.359V249.896H230.365V251.412H235.955L235.981 251.415C236.701 251.494 237.465 251.705 238.017 252.164C238.606 252.654 238.901 253.383 238.719 254.324L238.688 254.485L238.567 254.597L231.999 260.659L231.855 260.792H214.703V297.681H211.986L211.843 297.547L203.904 290.189H172.266V382.789H154.594V332.641H62.6455V236.251H54.9375V221.267H79.4092V217.056L106.381 217.167ZM375.571 177.816V198.293H379.566V221.268H368.287V234.399L421.115 253.26L421.447 253.378V261.505L383.68 270.697L383.622 270.712H328.625V360.241L328.56 360.356L324.563 367.349L324.42 367.601H318.636V334.639H284.175V318.655H298.578V278.203H283.676V259.723H288.464V264.042H350.11V241.944L341.017 232.409V177.816H375.571ZM342.017 232.008L350.972 241.399L351.11 241.544V265.042H287.464V260.723H284.676V277.203H299.578V319.655H285.175V333.639H319.636V366.601H323.839L327.625 359.976V269.712H383.5L420.447 260.719V254.082L367.287 235.104V220.268H378.566V199.293H374.571V178.816H342.017V232.008ZM140.839 351.618C140.839 349.136 138.827 347.124 136.345 347.124C133.863 347.124 131.851 349.136 131.851 351.618C131.851 354.1 133.863 356.112 136.345 356.112C138.827 356.112 140.839 354.1 140.839 351.618ZM45.9482 265.217V284.196H35.959V265.217H45.9482ZM36.959 283.196H44.9482V266.217H36.959V283.196ZM270.192 176.817V209.78H318.137V218.271H310.146V240.746H262.7V264.719H247.047V220.27H217.751V198.793H223.635L255.097 184.31H255.205L267.031 184.216V176.817H270.192ZM268.031 185.209L255.319 185.309L223.854 199.793H218.751V219.27H248.047V263.719H261.7V239.746H309.146V217.271H317.137V210.78H269.192V177.817H268.031V185.209ZM269.266 80.459V106.417H281.896V111.894H266.196V119.624L266.174 119.697L255.059 154.993L254.979 155.246L207.764 169.361V220.27H174.287V232.755H119.734V196.85H124.271V208.281H142.469V178.156H170.256V133.976H188.286V143.356H228.354V119.384L261.011 119.381V108.397L261.508 108.394L264.697 108.372V80.4238L269.266 80.459ZM265.697 109.366L262.011 109.39V120.381L229.354 120.383V144.356H187.286V134.976H171.256V179.156H143.469V209.281H123.271V197.85H120.734V231.755H173.287V219.27H206.764V168.617L207.12 168.51L254.185 154.439L265.196 119.471V110.894H280.896V107.417H268.266V81.4512L265.697 81.4307V109.366ZM295.78 80.4043V89.7451H328.768L332.81 87.7236H336.459V106.71L346.586 116.837L351.639 112.29L351.974 112.626L357.38 118.031L352.327 123.083L362.942 133.698H367.782V155.917H340.896L340.792 155.866L322.204 146.823H309.683V195.828H283.928V168.663L277.406 154.617L277.359 154.517V131.229L275.355 123.718L275.339 123.654V119.047H291V80.4043H295.78ZM106.38 145.354V161.337H62.6455V145.354H106.38ZM147.511 123.594V160.969H142.469V123.594H147.511ZM63.6455 160.337H105.38V146.354H63.6455V160.337ZM143.469 159.969H146.511V124.594H143.469V159.969ZM366.019 65.4951L366.169 65.6982L373.339 75.4297V85.9961L395.275 107.933H408.198V116.511H371.116L358.996 104.391L363.543 99.8428L353.793 90.0928L353.646 89.9473V65.4951H366.019ZM354.646 89.5322L364.958 99.8438L360.41 104.391L371.53 115.511H407.198V108.933H394.861L372.339 86.4102V75.7578L365.514 66.4951H354.646V89.5322ZM141.839 351.618C141.839 354.653 139.379 357.112 136.345 357.112C133.31 357.112 130.851 354.653 130.851 351.618C130.851 348.584 133.31 346.124 136.345 346.124C139.379 346.124 141.839 348.584 141.839 351.618ZM63.6455 331.641H155.594V381.789H171.266V289.189H204.295L204.439 289.322L212.379 296.681H213.703V259.792H231.465L237.758 253.982C237.818 253.474 237.648 253.158 237.377 252.933C237.046 252.658 236.518 252.483 235.896 252.412H229.365V250.896H181.359V266.053H150.893L150.763 265.96L135.23 254.938H98.5156V226.261H105.879V218.164L80.4092 218.06V222.267H55.9375V235.251H63.6455V331.641ZM284.928 194.828H308.683V145.823H322.434L322.537 145.873L341.127 154.917H366.782V134.698H362.527L351.267 123.438L350.913 123.083L355.965 118.031L351.602 113.668L346.55 118.215L335.459 107.124V88.7236H333.046L329.004 90.7451H294.78V81.4043H292V120.047H276.339V123.521L278.343 131.038L278.359 131.102V154.295L284.881 168.342L284.928 168.441V194.828ZM296.042 50.8438H380.119L441.542 112.267V159.959H419.521V161.154H434.504V199.293H401.513V220.268H407.534V208.781H442.259L442.404 208.926L468.629 234.896L468.777 235.043V257.628L468.686 257.757L441.255 296.682H405.866V288.787H395.063V296.365H369.304L370.081 352.821L329.368 393.534H296.162V455.5H204.609V414.804L193.797 404.559H107.609V355.115H78.4111V369.599H16.7412V331.234H18.1875V284.24H0V270.397L18.1875 252.21V153.345H31.1719L31.3184 153.49L37.8232 159.969H49.5107V157.433H41.9326V130.629H120.734V159.969H123.271V109.395H146.751L192.646 93.7598L192.724 93.7334H239.469V45.7861C239.469 30.1641 252.134 17.5 267.756 17.5C283.378 17.5002 296.042 30.1642 296.042 45.7861V50.8438Z" fill="#B27C40"/>
<path d="M124.271 160.469V179.157H120.229V183.704H96.9896V191.797H120.735V197.349H119.735V192.797H95.9896V182.704H119.229V178.157H123.271V160.469H124.271ZM143.469 160.469V178.657H142.469V160.469H143.469ZM178.833 127.13V130.415H181.865V134.198H180.865V131.415H178.833V134.198H177.833V128.13H171.255V134.198H170.255V127.13H178.833Z" fill="#B27C40"/>
<path d="M201.068 333.139V334.139H194.495V340.131H201.068V341.131H194.495V383.266H193.495V333.139H201.068ZM131.849 331.735V376.699H130.849V331.735H131.849ZM136.396 331.735V346.386H135.396V331.735H136.396Z" fill="#B27C40"/>
<path d="M206.62 340.631V343.865H210.667V344.865H205.62V340.631H206.62Z" fill="#B27C40"/>
<path d="M233.234 219.769V226.495H239.974V219.769H240.974V227.495H232.234V219.769H233.234Z" fill="#B27C40"/>
<path d="M203.268 231.755V232.755H174.086V231.755H203.268Z" fill="#B27C40"/>
<path d="M127.812 231.703V239.786H119.729V231.703H127.812ZM120.729 238.786H126.812V232.703H120.729V238.786Z" fill="#B27C40"/>
<path d="M19.1873 277.203V283.74H18.1873V278.203H15.6511V283.74H14.6511V277.203H19.1873Z" fill="#B27C40"/>
<path d="M48.4893 341.844V350.422H44.9531V353.958H36.8799V350.422H33.3438V341.844H48.4893ZM37.8799 352.958H43.9531V350.422H37.8799V352.958ZM34.3438 349.422H47.4893V342.844H34.3438V349.422Z" fill="#B27C40"/>
<path d="M88.4015 209.479V217.557H87.4015V210.479H81.3282V217.557H80.3282V209.479H88.4015ZM26.7657 187.251V190.787H30.3019V194.323H41.4171V202.901H18.6876V201.901H40.4171V195.323H18.6876V194.323H25.7657V188.251H18.6876V187.251H26.7657ZM26.7657 194.323H29.3019V191.787H26.7657V194.323ZM63.4288 160.837V170.825H69.7189V160.837H70.7189V167.548H77.297V160.837H78.297V168.548H77.0753L79.5372 177.195L71.547 178.908L71.4327 178.434L69.8263 171.825H62.4288V160.837H63.4288ZM70.7189 171.262L72.2892 177.725L78.2833 176.441L76.0363 168.548H70.7189V171.262Z" fill="#B27C40"/>
<path d="M151.827 231.755V235.751H193.49V236.751H150.827V231.755H151.827Z" fill="#B27C40"/>
<path d="M248.024 258.12L238.93 265.193L238.317 264.404L247.411 257.331L248.024 258.12Z" fill="#B27C40"/>
<path d="M259.161 263.719V289.69H250.713V264.218H251.713V288.69H258.161V263.719H259.161Z" fill="#B27C40"/>
<path d="M266.235 240.246V264.032H261.693V263.032H265.235V240.246H266.235Z" fill="#B27C40"/>
<path d="M330.902 247.37V255.948H322.324V247.37H330.902ZM323.324 254.948H329.902V248.37H323.324V254.948ZM292 195.328V201.902H296.042V209.98H295.042V202.902H292V209.98H291V195.328H292Z" fill="#B27C40"/>
<path d="M341.61 177.736V178.736H335.036V184.808H341.61V185.808H334.036V177.736H341.61ZM281.896 95.8074V107.417H268.266V95.8074H281.896ZM269.266 106.417H280.896V96.8074H269.266V106.417Z" fill="#B27C40"/>
<path d="M235.922 445.011V454.5H234.922V446.011H205.11V445.011H235.922ZM295.036 445.51V446.51H258.152V454.5H257.152V445.51H295.036ZM295.5 420.04V421.04H292.666V429.529H295.162V430.529H291.666V420.04H295.5ZM208.641 421.039V430.246H205.11V429.246H207.641V422.039H205.11V421.039H208.641ZM341.611 329.643V351.867H340.611V330.643H328.125V329.643H341.611ZM368.797 324.149V325.149H362.586V331.64H368.797V332.64H361.586V324.149H368.797ZM347.603 281.816V282.816H341.535V284.332H340.525V313.644H341.535V316.16H338.009V281.816H347.603ZM339.009 315.16H340.535V314.644H339.525V283.332H340.535V282.816H339.009V315.16ZM451.739 249.113L442.903 264.186L442.644 264.626L435.225 260.06L444.319 244.546L451.739 249.113ZM436.582 259.721L442.298 263.239L450.38 249.451L444.664 245.933L436.582 259.721ZM423.36 127.13V128.13H420.828V133.193H421.334V159.458H420.334V134.193H418.808V159.458H417.808V134.193H416.287V133.193H419.828V128.13H416.287V127.13H423.36ZM404.156 140.771V150.865H389.506V157.938H381.433V140.771H404.156ZM382.433 156.938H388.506V149.865H403.156V141.771H382.433V156.938Z" fill="#B27C40"/>
<path d="M354.146 65.4949V66.4949H347.068V70.0417H354.146V71.0417H350.857V73.5779H354.146V74.5779H349.857V71.0417H347.074V71.5466H309.188V69.5369H346.068V65.4949H354.146ZM310.188 70.5466H346.068V70.5369H310.188V70.5466Z" fill="#B27C40"/>
<path d="M416.287 125.609V127.125H417.802V128.128H419.828V133.187H417.802V159.5H418.5V162H433.5V177.293H374.86V116.516H407.193L416.287 125.609ZM381.427 157.943H389.511V150.87H404.162V140.766H381.427V157.943Z" fill="#F08234" fill-opacity="0.23"/>
<path d="M404.463 165.406H402.916L405.732 157.406H407.521L410.342 165.406H408.795L406.658 159.047H406.596L404.463 165.406ZM404.514 162.27H408.732V163.434H404.514V162.27Z" fill="white"/>
<path d="M106.378 183.81H96.4565V192.8H106.378V209.781H98.3882V217.272H88.3999V210.779H80.4087V217.272H79.3413V221.767L66.6392 221.599V171.325H70.4204L71.4185 178.317L78.9106 176.818L76.9126 168.328H78.4106V161.336L66.6392 160.845V160.837H106.378V183.81Z" fill="#F08234" fill-opacity="0.23"/>
<path d="M81.1121 193.698V185.698H84.1746C84.7527 185.698 85.2332 185.789 85.616 185.972C86.0014 186.151 86.2891 186.397 86.4792 186.71C86.672 187.022 86.7683 187.377 86.7683 187.772C86.7683 188.098 86.7058 188.377 86.5808 188.608C86.4558 188.837 86.2878 189.024 86.0769 189.167C85.866 189.31 85.6303 189.413 85.3699 189.475V189.554C85.6537 189.569 85.9259 189.656 86.1863 189.815C86.4493 189.972 86.6641 190.193 86.8308 190.479C86.9975 190.766 87.0808 191.112 87.0808 191.518C87.0808 191.932 86.9806 192.305 86.78 192.636C86.5795 192.964 86.2774 193.223 85.8738 193.413C85.4701 193.603 84.9623 193.698 84.3503 193.698H81.1121ZM82.5613 192.487H84.1199C84.6459 192.487 85.0248 192.387 85.2566 192.186C85.491 191.983 85.6082 191.723 85.6082 191.405C85.6082 191.168 85.5496 190.955 85.4324 190.765C85.3152 190.572 85.1485 190.421 84.9324 190.311C84.7162 190.199 84.4584 190.143 84.1589 190.143H82.5613V192.487ZM82.5613 189.1H83.9949C84.2449 189.1 84.4701 189.055 84.6707 188.964C84.8712 188.87 85.0287 188.738 85.1433 188.569C85.2605 188.397 85.3191 188.194 85.3191 187.96C85.3191 187.65 85.2097 187.395 84.991 187.194C84.7748 186.994 84.4532 186.893 84.0261 186.893H82.5613V189.1Z" fill="white"/>
<path d="M104.568 183.714V191.786H97.0001V183.714H104.568ZM98.0001 190.786H103.568V184.714H98.0001V190.786ZM142.969 178.156V179.156H123.771V178.156H142.969ZM142.969 159.969V160.969H123.771V159.969H142.969Z" fill="#B27C40" fill-opacity="0.23"/>
</svg>
