<svg width="469" height="473" viewBox="0 0 469 473" fill="none" xmlns="http://www.w3.org/2000/svg">
<path fill-rule="evenodd" clip-rule="evenodd" d="M360.668 68.9417V118.385L390.866 118.385V103.902H451.536V141.265L450.09 141.265V189.26H468.277V202.395L450.09 220.583V312.531V319.155H437.812L431.161 312.531H418.767V316.068H426.345V341.871H348.543V312.531H345.006V363.105H321.945L275.971 378.767H228.808V427.214C228.808 442.56 216.368 455 201.022 455C185.676 455 173.235 442.56 173.235 427.214V421.656H88.8654L27.7351 360.526V313.541L49.7562 313.541V311.346H34.7733V274.207H67.7647V252.232H60.7436V263.719L26.7247 263.719L0.500061 237.749V215.531L27.7813 176.818H62.4112V184.713L74.2143 184.713V177.135H99.98L99.1996 120.383L139.616 79.9662H173.115V18H263.668V58.4109L274.782 68.9417H360.668ZM104.527 373.156L109.074 368.609L97.454 356.989H61.0789V364.568H73.7091L95.9384 386.797V397.406L103.011 407.005H114.631V383.26L104.527 373.156ZM184.102 138.862V153.845H169.699V195.297H184.602V212.777H180.813V208.458H118.167V231.256L127.261 240.791V294.683H93.7059V274.207H89.7105V252.232H100.99V238.248L47.8302 219.27V211.888L85.2156 202.789H140.652V112.891L144.648 105.899H149.642V138.862H184.102ZM184.35 289.291V277.672H159.595V326.677H146.459L127.766 317.583H101.496V338.802H106.043L117.157 349.917L112.105 354.969L117.157 360.021L122.209 355.474L132.819 366.083V384.776H135.85L139.892 382.755H173.497V392.096H177.277V353.453H192.938V349.411L190.918 341.833V318.594L184.35 304.448V289.291ZM263.012 78.9303L253.523 68.9417L243.035 79.6297L243.452 112.891H170.014L166.622 105.899H161.129V116.682H206.074V138.862H204.579V142.857H231.049L251.543 162.834H267.709V132.369H258.11V83.9246L263.012 78.9303ZM250.526 253.231V273.707H245.033L213.569 288.191L201.246 288.287V295.682H199.085V262.72H151.14V255.229H159.131V232.754H206.577V208.782H221.23V253.231H250.526ZM325.808 348.906H321.767V312.531H325.808V348.906ZM405.631 327.146V312.163H362.898V327.146H405.631ZM348.543 275.651V240.745H294.991V253.231H261.514V304.011L214.195 318.157L203.081 353.453V361.607H187.381V366.083H200.011V392.045L203.58 392.072V364.131L207.266 364.106V353.119L239.923 353.117V329.144H280.992V338.524H298.022V294.344H325.808V264.218H345.006V275.651H348.543ZM405.631 232.203V228.161V203.911V140.859H313.683V90.7112H297.011V183.311H264.678L256.595 175.819H254.574V212.708H237.117L230.549 218.77C230.251 220.31 231.497 220.941 232.85 221.088H238.912V222.604H287.918V207.448H303.074H317.725L333.386 218.562H369.762V246.239H362.398V255.333L388.868 255.442V251.233H413.34V237.249H405.631V232.203ZM432.318 207.283H423.329V189.304H432.318V207.283ZM327.438 121.382C327.438 118.623 329.674 116.387 332.433 116.387C335.191 116.387 337.427 118.623 337.427 121.382C337.427 124.14 335.191 126.376 332.433 126.376C329.674 126.376 327.438 124.14 327.438 121.382Z" fill="#271406"/>
<path d="M360.668 118.385H360.168V118.885L360.668 118.885L360.668 118.385ZM360.668 68.9417H361.168V68.4417H360.668V68.9417ZM390.866 118.385L390.866 118.885L391.366 118.885V118.385H390.866ZM390.866 103.902V103.402H390.366V103.902H390.866ZM451.536 103.902H452.036V103.402H451.536V103.902ZM451.536 141.265L451.536 141.765L452.036 141.765V141.265H451.536ZM450.09 141.265L450.09 140.765L449.59 140.765V141.265H450.09ZM450.09 189.26H449.59V189.76H450.09V189.26ZM468.277 189.26H468.777V188.76H468.277V189.26ZM468.277 202.395L468.631 202.749L468.777 202.603V202.395H468.277ZM450.09 220.583L449.736 220.229L449.59 220.376V220.583H450.09ZM450.09 319.155V319.655H450.59V319.155H450.09ZM437.812 319.155L437.459 319.51L437.606 319.655H437.812V319.155ZM431.161 312.531L431.513 312.177L431.367 312.031H431.161V312.531ZM418.767 312.531V312.031H418.267V312.531H418.767ZM418.767 316.068H418.267V316.568H418.767V316.068ZM426.345 316.068H426.845V315.568H426.345V316.068ZM426.345 341.871V342.371H426.845V341.871H426.345ZM348.543 341.871H348.043V342.371H348.543V341.871ZM348.543 312.531H349.043V312.031H348.543V312.531ZM345.006 312.531V312.031H344.506V312.531H345.006ZM345.006 363.105V363.605H345.506V363.105H345.006ZM321.945 363.105V362.605H321.862L321.784 362.632L321.945 363.105ZM275.971 378.767V379.267H276.054L276.132 379.24L275.971 378.767ZM228.808 378.767V378.267H228.308V378.767H228.808ZM173.235 421.656H173.735V421.156H173.235V421.656ZM88.8654 421.656L88.5119 422.01L88.6583 422.156H88.8654V421.656ZM27.7351 360.526H27.2351V360.733L27.3816 360.879L27.7351 360.526ZM27.7351 313.541L27.7351 313.041L27.2351 313.041V313.541H27.7351ZM49.7562 313.541L49.7562 314.041L50.2562 314.041V313.541H49.7562ZM49.7562 311.346H50.2562V310.846H49.7562V311.346ZM34.7733 311.346H34.2733V311.846H34.7733V311.346ZM34.7733 274.207V273.707H34.2733V274.207H34.7733ZM67.7647 274.207V274.707H68.2647V274.207H67.7647ZM67.7647 252.232H68.2647V251.732H67.7647V252.232ZM60.7436 252.232V251.732H60.2436V252.232H60.7436ZM60.7436 263.719L60.7436 264.219L61.2436 264.219V263.719H60.7436ZM26.7247 263.719L26.3729 264.074L26.519 264.219L26.7247 264.219L26.7247 263.719ZM0.500061 237.749H6.10352e-05V237.957L0.148235 238.104L0.500061 237.749ZM0.500061 215.531L0.091352 215.243L6.10352e-05 215.372V215.531H0.500061ZM27.7813 176.818V176.318H27.522L27.3726 176.53L27.7813 176.818ZM62.4112 176.818H62.9112V176.318H62.4112V176.818ZM62.4112 184.713H61.9112V185.213L62.4112 185.213L62.4112 184.713ZM74.2143 184.713L74.2143 185.213L74.7143 185.213V184.713H74.2143ZM74.2143 177.135V176.635H73.7143V177.135H74.2143ZM99.98 177.135V177.635H100.487L100.48 177.128L99.98 177.135ZM99.1996 120.383L98.8461 120.029L98.6968 120.179L98.6997 120.39L99.1996 120.383ZM139.616 79.9662V79.4662H139.409L139.263 79.6126L139.616 79.9662ZM173.115 79.9662V80.4662H173.615V79.9662H173.115ZM173.115 18V17.5H172.615V18H173.115ZM263.668 18H264.168V17.5H263.668V18ZM263.668 58.4109H263.168V58.6259L263.324 58.7738L263.668 58.4109ZM274.782 68.9417L274.438 69.3047L274.583 69.4417H274.782V68.9417ZM109.074 368.609L109.427 368.963L109.781 368.609L109.427 368.256L109.074 368.609ZM104.527 373.156L104.173 372.803L103.82 373.156L104.173 373.51L104.527 373.156ZM97.454 356.989L97.8075 356.636L97.6611 356.489H97.454V356.989ZM61.0789 356.989V356.489H60.5789V356.989H61.0789ZM61.0789 364.568H60.5789V365.068H61.0789V364.568ZM73.7091 364.568L74.0627 364.214L73.9162 364.068H73.7091V364.568ZM95.9384 386.797H96.4384V386.59L96.2919 386.443L95.9384 386.797ZM95.9384 397.406H95.4384V397.57L95.5358 397.703L95.9384 397.406ZM103.011 407.005L102.609 407.302L102.759 407.505H103.011V407.005ZM114.631 407.005V407.505H115.131V407.005H114.631ZM114.631 383.26H115.131V383.053L114.985 382.907L114.631 383.26ZM184.102 153.845V154.345H184.602V153.845H184.102ZM184.102 138.862H184.602V138.362H184.102V138.862ZM169.699 153.845V153.345H169.199V153.845H169.699ZM169.699 195.297H169.199V195.797H169.699V195.297ZM184.602 195.297H185.102V194.797H184.602V195.297ZM184.602 212.777V213.277H185.102V212.777H184.602ZM180.813 212.777H180.313V213.277H180.813V212.777ZM180.813 208.458H181.313V207.958H180.813V208.458ZM118.167 208.458V207.958H117.667V208.458H118.167ZM118.167 231.256H117.667V231.456L117.806 231.601L118.167 231.256ZM127.261 240.791H127.761V240.591L127.623 240.446L127.261 240.791ZM127.261 294.683V295.183H127.761V294.683H127.261ZM93.7059 294.683H93.2059V295.183H93.7059V294.683ZM93.7059 274.207H94.2059V273.707H93.7059V274.207ZM89.7105 274.207H89.2105V274.707H89.7105V274.207ZM89.7105 252.232V251.732H89.2105V252.232H89.7105ZM100.99 252.232V252.732H101.49V252.232H100.99ZM100.99 238.248H101.49V237.896L101.158 237.777L100.99 238.248ZM47.8302 219.27H47.3302V219.622L47.6621 219.741L47.8302 219.27ZM47.8302 211.888L47.7119 211.402L47.3302 211.495V211.888H47.8302ZM85.2156 202.789V202.289H85.1557L85.0974 202.303L85.2156 202.789ZM140.652 202.789V203.289H141.152V202.789H140.652ZM140.652 112.891L140.218 112.643L140.152 112.759V112.891H140.652ZM144.648 105.899V105.399H144.357L144.214 105.651L144.648 105.899ZM149.642 105.899H150.142V105.399H149.642V105.899ZM149.642 138.862H149.142V139.362H149.642V138.862ZM184.35 277.672H184.85V277.172H184.35V277.672ZM159.595 277.672V277.172H159.095V277.672H159.595ZM159.595 326.677V327.177H160.095V326.677H159.595ZM146.459 326.677L146.24 327.127L146.344 327.177H146.459V326.677ZM127.766 317.583L127.985 317.134L127.882 317.083H127.766V317.583ZM101.496 317.583V317.083H100.996V317.583H101.496ZM101.496 338.802H100.996V339.302H101.496V338.802ZM106.043 338.802L106.396 338.448L106.25 338.302H106.043V338.802ZM117.157 349.917L117.511 350.27L117.864 349.917L117.511 349.563L117.157 349.917ZM112.105 354.969L111.751 354.615L111.398 354.969L111.751 355.322L112.105 354.969ZM117.157 360.021L116.804 360.374L117.139 360.71L117.492 360.392L117.157 360.021ZM122.209 355.474L122.563 355.12L122.227 354.785L121.875 355.102L122.209 355.474ZM132.819 366.083H133.319V365.876L133.172 365.73L132.819 366.083ZM132.819 384.776H132.319V385.276H132.819V384.776ZM135.85 384.776V385.276H135.968L136.073 385.223L135.85 384.776ZM139.892 382.755V382.255H139.773L139.668 382.308L139.892 382.755ZM173.497 382.755H173.997V382.255H173.497V382.755ZM173.497 392.096H172.997V392.596H173.497V392.096ZM177.277 392.096V392.596H177.777V392.096H177.277ZM177.277 353.453V352.953H176.777V353.453H177.277ZM192.938 353.453V353.953H193.438V353.453H192.938ZM192.938 349.411H193.438V349.346L193.422 349.282L192.938 349.411ZM190.918 341.833H190.418V341.899L190.434 341.962L190.918 341.833ZM190.918 318.594H191.418V318.483L191.371 318.383L190.918 318.594ZM184.35 304.448H183.85V304.558L183.896 304.658L184.35 304.448ZM253.523 68.9417L253.886 68.5973L253.529 68.2219L253.166 68.5915L253.523 68.9417ZM263.012 78.9303L263.369 79.2805L263.707 78.936L263.375 78.5859L263.012 78.9303ZM243.035 79.6297L242.678 79.2795L242.532 79.428L242.535 79.636L243.035 79.6297ZM243.452 112.891V113.391H243.958L243.952 112.885L243.452 112.891ZM170.014 112.891L169.564 113.11L169.701 113.391H170.014V112.891ZM166.622 105.899L167.072 105.681L166.936 105.399H166.622V105.899ZM161.129 105.899V105.399H160.629V105.899H161.129ZM161.129 116.682H160.629V117.182H161.129V116.682ZM206.074 116.682H206.574V116.182H206.074V116.682ZM206.074 138.862V139.362H206.574V138.862H206.074ZM204.579 138.862V138.362H204.079V138.862H204.579ZM204.579 142.857H204.079V143.357H204.579V142.857ZM231.049 142.857L231.398 142.499L231.252 142.357H231.049V142.857ZM251.543 162.834L251.194 163.192L251.339 163.334H251.543V162.834ZM267.709 162.834V163.334H268.209V162.834H267.709ZM267.709 132.369H268.209V131.869H267.709V132.369ZM258.11 132.369H257.61V132.869H258.11V132.369ZM258.11 83.9246L257.754 83.5744L257.61 83.7202V83.9246H258.11ZM250.526 273.707V274.207H251.026V273.707H250.526ZM250.526 253.231H251.026V252.731H250.526V253.231ZM245.033 273.707V273.207H244.923L244.824 273.253L245.033 273.707ZM213.569 288.191L213.573 288.691L213.68 288.69L213.778 288.645L213.569 288.191ZM201.246 288.287L201.242 287.787L200.746 287.791V288.287H201.246ZM201.246 295.682V296.182H201.746V295.682H201.246ZM199.085 295.682H198.585V296.182H199.085V295.682ZM199.085 262.72H199.585V262.22H199.085V262.72ZM151.14 262.72H150.64V263.22H151.14V262.72ZM151.14 255.229V254.729H150.64V255.229H151.14ZM159.131 255.229V255.729H159.631V255.229H159.131ZM159.131 232.754V232.254H158.631V232.754H159.131ZM206.577 232.754V233.254H207.077V232.754H206.577ZM206.577 208.782V208.282H206.077V208.782H206.577ZM221.23 208.782H221.73V208.282H221.23V208.782ZM221.23 253.231H220.73V253.731H221.23V253.231ZM321.767 348.906H321.267V349.406H321.767V348.906ZM325.808 348.906V349.406H326.308V348.906H325.808ZM321.767 312.531V312.031H321.267V312.531H321.767ZM325.808 312.531H326.308V312.031H325.808V312.531ZM405.631 312.163H406.131V311.663H405.631V312.163ZM405.631 327.146V327.646H406.131V327.146H405.631ZM362.898 312.163V311.663H362.398V312.163H362.898ZM362.898 327.146H362.398V327.646H362.898V327.146ZM348.543 240.745H349.043V240.245H348.543V240.745ZM348.543 275.651V276.151H349.043V275.651H348.543ZM294.991 240.745V240.245H294.491V240.745H294.991ZM294.991 253.231V253.731H295.491V253.231H294.991ZM261.514 253.231V252.731H261.014V253.231H261.514ZM261.514 304.011L261.657 304.49L262.014 304.383V304.011H261.514ZM214.195 318.157L214.052 317.678L213.798 317.753L213.718 318.006L214.195 318.157ZM203.081 353.453L202.604 353.303L202.581 353.376V353.453H203.081ZM203.081 361.607V362.107H203.581V361.607H203.081ZM187.381 361.607V361.107H186.881V361.607H187.381ZM187.381 366.083H186.881V366.583H187.381V366.083ZM200.011 366.083H200.511V365.583H200.011V366.083ZM200.011 392.045H199.511V392.541L200.008 392.545L200.011 392.045ZM203.58 392.072L203.576 392.572L204.08 392.576V392.072H203.58ZM203.58 364.131L203.577 363.631L203.08 363.634V364.131H203.58ZM207.266 364.106L207.27 364.606L207.766 364.603V364.106H207.266ZM207.266 353.119L207.266 352.619L206.766 352.619V353.119H207.266ZM239.923 353.117L239.923 353.617L240.423 353.617V353.117H239.923ZM239.923 329.144V328.644H239.423V329.144H239.923ZM280.992 329.144H281.492V328.644H280.992V329.144ZM280.992 338.524H280.492V339.024H280.992V338.524ZM298.022 338.524V339.024H298.522V338.524H298.022ZM298.022 294.344V293.844H297.522V294.344H298.022ZM325.808 294.344V294.844H326.308V294.344H325.808ZM325.808 264.218V263.718H325.308V264.218H325.808ZM345.006 264.218H345.506V263.718H345.006V264.218ZM345.006 275.651H344.506V276.151H345.006V275.651ZM405.631 140.859H406.131V140.359H405.631V140.859ZM313.683 140.859H313.183V141.359H313.683V140.859ZM313.683 90.7112H314.183V90.2112H313.683V90.7112ZM297.011 90.7112V90.2112H296.511V90.7112H297.011ZM297.011 183.311V183.811H297.511V183.311H297.011ZM264.678 183.311L264.338 183.678L264.482 183.811H264.678V183.311ZM256.595 175.819L256.935 175.453L256.791 175.319H256.595V175.819ZM254.574 175.819V175.319H254.074V175.819H254.574ZM254.574 212.708V213.208H255.074V212.708H254.574ZM237.117 212.708V212.208H236.922L236.778 212.34L237.117 212.708ZM230.549 218.77L230.21 218.403L230.09 218.514L230.058 218.675L230.549 218.77ZM232.85 221.088L232.796 221.585L232.823 221.588H232.85V221.088ZM238.912 221.088H239.412V220.588H238.912V221.088ZM238.912 222.604H238.412V223.104H238.912V222.604ZM287.918 222.604V223.104H288.418V222.604H287.918ZM287.918 207.448V206.948H287.418V207.448H287.918ZM317.725 207.448L318.014 207.04L317.884 206.948H317.725V207.448ZM333.386 218.562L333.097 218.97L333.227 219.062H333.386V218.562ZM369.762 218.562H370.262V218.062H369.762V218.562ZM369.762 246.239V246.739H370.262V246.239H369.762ZM362.398 246.239V245.739H361.898V246.239H362.398ZM362.398 255.333H361.898V255.831L362.396 255.833L362.398 255.333ZM388.868 255.442L388.866 255.942L389.368 255.945V255.442H388.868ZM388.868 251.233V250.733H388.368V251.233H388.868ZM413.34 251.233V251.733H413.84V251.233H413.34ZM413.34 237.249H413.84V236.749H413.34V237.249ZM405.631 237.249H405.131V237.749H405.631V237.249ZM423.329 207.283H422.829V207.783H423.329V207.283ZM432.318 207.283V207.783H432.818V207.283H432.318ZM423.329 189.304V188.804H422.829V189.304H423.329ZM432.318 189.304H432.818V188.804H432.318V189.304ZM360.668 118.385H361.168V68.9417H360.668H360.168V118.385H360.668ZM390.866 118.385L390.866 117.885L360.668 117.885L360.668 118.385L360.668 118.885L390.866 118.885L390.866 118.385ZM390.866 103.902H390.366V118.385H390.866H391.366V103.902H390.866ZM451.536 103.902V103.402H390.866V103.902V104.402H451.536V103.902ZM451.536 141.265H452.036V103.902H451.536H451.036V141.265H451.536ZM450.09 141.265L450.09 141.765L451.536 141.765L451.536 141.265L451.536 140.765L450.09 140.765L450.09 141.265ZM450.09 189.26H450.59V141.265H450.09H449.59V189.26H450.09ZM468.277 189.26V188.76H450.09V189.26V189.76H468.277V189.26ZM468.277 202.395H468.777V189.26H468.277H467.777V202.395H468.277ZM450.09 220.583L450.443 220.937L468.631 202.749L468.277 202.395L467.924 202.042L449.736 220.229L450.09 220.583ZM450.09 312.531H450.59V220.583H450.09H449.59V312.531H450.09ZM450.09 319.155H450.59V312.531H450.09H449.59V319.155H450.09ZM437.812 319.155V319.655H450.09V319.155V318.655H437.812V319.155ZM431.161 312.531L430.808 312.885L437.459 319.51L437.812 319.155L438.165 318.801L431.513 312.177L431.161 312.531ZM418.767 312.531V313.031H431.161V312.531V312.031H418.767V312.531ZM418.767 316.068H419.267V312.531H418.767H418.267V316.068H418.767ZM426.345 316.068V315.568H418.767V316.068V316.568H426.345V316.068ZM426.345 341.871H426.845V316.068H426.345H425.845V341.871H426.345ZM348.543 341.871V342.371H426.345V341.871V341.371H348.543V341.871ZM348.543 312.531H348.043V341.871H348.543H349.043V312.531H348.543ZM345.006 312.531V313.031H348.543V312.531V312.031H345.006V312.531ZM345.006 363.105H345.506V312.531H345.006H344.506V363.105H345.006ZM321.945 363.105V363.605H345.006V363.105V362.605H321.945V363.105ZM275.971 378.767L276.132 379.24L322.106 363.578L321.945 363.105L321.784 362.632L275.81 378.293L275.971 378.767ZM228.808 378.767V379.267H275.971V378.767V378.267H228.808V378.767ZM228.808 427.214H229.308V378.767H228.808H228.308V427.214H228.808ZM201.022 455V455.5C216.644 455.5 229.308 442.836 229.308 427.214H228.808H228.308C228.308 442.283 216.092 454.5 201.022 454.5V455ZM173.235 427.214H172.735C172.735 442.836 185.4 455.5 201.022 455.5V455V454.5C185.952 454.5 173.735 442.283 173.735 427.214H173.235ZM173.235 421.656H172.735V427.214H173.235H173.735V421.656H173.235ZM88.8654 421.656V422.156H173.235V421.656V421.156H88.8654V421.656ZM27.7351 360.526L27.3816 360.879L88.5119 422.01L88.8654 421.656L89.219 421.303L28.0887 360.172L27.7351 360.526ZM27.7351 313.541H27.2351V360.526H27.7351H28.2351V313.541H27.7351ZM49.7562 313.541L49.7562 313.041L27.7351 313.041L27.7351 313.541L27.7351 314.041L49.7562 314.041L49.7562 313.541ZM49.7562 311.346H49.2562V313.541H49.7562H50.2562V311.346H49.7562ZM34.7733 311.346V311.846H49.7562V311.346V310.846H34.7733V311.346ZM34.7733 274.207H34.2733V311.346H34.7733H35.2733V274.207H34.7733ZM67.7647 274.207V273.707H34.7733V274.207V274.707H67.7647V274.207ZM67.7647 252.232H67.2647V274.207H67.7647H68.2647V252.232H67.7647ZM60.7436 252.232V252.732H67.7647V252.232V251.732H60.7436V252.232ZM60.7436 263.719H61.2436V252.232H60.7436H60.2436V263.719H60.7436ZM26.7247 263.719L26.7247 264.219L60.7436 264.219L60.7436 263.719L60.7436 263.219L26.7247 263.219L26.7247 263.719ZM0.500061 237.749L0.148235 238.104L26.3729 264.074L26.7247 263.719L27.0765 263.364L0.851887 237.393L0.500061 237.749ZM0.500061 215.531H6.10352e-05V237.749H0.500061H1.00006V215.531H0.500061ZM27.7813 176.818L27.3726 176.53L0.091352 215.243L0.500061 215.531L0.90877 215.819L28.1901 177.106L27.7813 176.818ZM62.4112 176.818V176.318H27.7813V176.818V177.318H62.4112V176.818ZM62.4112 184.713H62.9112V176.818H62.4112H61.9112V184.713H62.4112ZM74.2143 184.713L74.2143 184.213L62.4112 184.213L62.4112 184.713L62.4112 185.213L74.2143 185.213L74.2143 184.713ZM74.2143 177.135H73.7143V184.713H74.2143H74.7143V177.135H74.2143ZM99.98 177.135V176.635H74.2143V177.135V177.635H99.98V177.135ZM99.1996 120.383L98.6997 120.39L99.4801 177.142L99.98 177.135L100.48 177.128L99.6996 120.376L99.1996 120.383ZM139.616 79.9662L139.263 79.6126L98.8461 120.029L99.1996 120.383L99.5532 120.736L139.97 80.3197L139.616 79.9662ZM173.115 79.9662V79.4662H139.616V79.9662V80.4662H173.115V79.9662ZM173.115 18H172.615V79.9662H173.115H173.615V18H173.115ZM263.668 18V17.5H173.115V18V18.5H263.668V18ZM263.668 58.4109H264.168V18H263.668H263.168V58.4109H263.668ZM274.782 68.9417L275.126 68.5788L264.012 58.0479L263.668 58.4109L263.324 58.7738L274.438 69.3047L274.782 68.9417ZM360.668 68.9417V68.4417H274.782V68.9417V69.4417H360.668V68.9417ZM109.074 368.609L108.72 368.256L104.173 372.803L104.527 373.156L104.88 373.51L109.427 368.963L109.074 368.609ZM97.454 356.989L97.1004 357.343L108.72 368.963L109.074 368.609L109.427 368.256L97.8075 356.636L97.454 356.989ZM61.0789 356.989V357.489H97.454V356.989V356.489H61.0789V356.989ZM61.0789 364.568H61.5789V356.989H61.0789H60.5789V364.568H61.0789ZM73.7091 364.568V364.068H61.0789V364.568V365.068H73.7091V364.568ZM95.9384 386.797L96.2919 386.443L74.0627 364.214L73.7091 364.568L73.3556 364.921L95.5848 387.15L95.9384 386.797ZM95.9384 397.406H96.4384V386.797H95.9384H95.4384V397.406H95.9384ZM103.011 407.005L103.414 406.709L96.3409 397.11L95.9384 397.406L95.5358 397.703L102.609 407.302L103.011 407.005ZM114.631 407.005V406.505H103.011V407.005V407.505H114.631V407.005ZM114.631 383.26H114.131V407.005H114.631H115.131V383.26H114.631ZM104.527 373.156L104.173 373.51L114.278 383.614L114.631 383.26L114.985 382.907L104.88 372.803L104.527 373.156ZM184.102 153.845H184.602V138.862H184.102H183.602V153.845H184.102ZM169.699 153.845V154.345H184.102V153.845V153.345H169.699V153.845ZM169.699 195.297H170.199V153.845H169.699H169.199V195.297H169.699ZM184.602 195.297V194.797H169.699V195.297V195.797H184.602V195.297ZM184.602 212.777H185.102V195.297H184.602H184.102V212.777H184.602ZM180.813 212.777V213.277H184.602V212.777V212.277H180.813V212.777ZM180.813 208.458H180.313V212.777H180.813H181.313V208.458H180.813ZM118.167 208.458V208.958H180.813V208.458V207.958H118.167V208.458ZM118.167 231.256H118.667V208.458H118.167H117.667V231.256H118.167ZM127.261 240.791L127.623 240.446L118.529 230.911L118.167 231.256L117.806 231.601L126.899 241.136L127.261 240.791ZM127.261 294.683H127.761V240.791H127.261H126.761V294.683H127.261ZM93.7059 294.683V295.183H127.261V294.683V294.183H93.7059V294.683ZM93.7059 274.207H93.2059V294.683H93.7059H94.2059V274.207H93.7059ZM89.7105 274.207V274.707H93.7059V274.207V273.707H89.7105V274.207ZM89.7105 252.232H89.2105V274.207H89.7105H90.2105V252.232H89.7105ZM100.99 252.232V251.732H89.7105V252.232V252.732H100.99V252.232ZM100.99 238.248H100.49V252.232H100.99H101.49V238.248H100.99ZM47.8302 219.27L47.6621 219.741L100.822 238.719L100.99 238.248L101.158 237.777L47.9983 218.799L47.8302 219.27ZM47.8302 211.888H47.3302V219.27H47.8302H48.3302V211.888H47.8302ZM85.2156 202.789L85.0974 202.303L47.7119 211.402L47.8302 211.888L47.9484 212.374L85.3339 203.274L85.2156 202.789ZM140.652 202.789V202.289H85.2156V202.789V203.289H140.652V202.789ZM140.652 112.891H140.152V202.789H140.652H141.152V112.891H140.652ZM144.648 105.899L144.214 105.651L140.218 112.643L140.652 112.891L141.086 113.139L145.082 106.147L144.648 105.899ZM149.642 105.899V105.399H144.648V105.899V106.399H149.642V105.899ZM149.642 138.862H150.142V105.899H149.642H149.142V138.862H149.642ZM184.102 138.862V138.362H149.642V138.862V139.362H184.102V138.862ZM184.35 277.672H183.85V289.291H184.35H184.85V277.672H184.35ZM159.595 277.672V278.172H184.35V277.672V277.172H159.595V277.672ZM159.595 326.677H160.095V277.672H159.595H159.095V326.677H159.595ZM146.459 326.677V327.177H159.595V326.677V326.177H146.459V326.677ZM127.766 317.583L127.548 318.033L146.24 327.127L146.459 326.677L146.678 326.227L127.985 317.134L127.766 317.583ZM101.496 317.583V318.083H127.766V317.583V317.083H101.496V317.583ZM101.496 338.802H101.996V317.583H101.496H100.996V338.802H101.496ZM106.043 338.802V338.302H101.496V338.802V339.302H106.043V338.802ZM117.157 349.917L117.511 349.563L106.396 338.448L106.043 338.802L105.689 339.155L116.804 350.27L117.157 349.917ZM112.105 354.969L112.459 355.322L117.511 350.27L117.157 349.917L116.804 349.563L111.751 354.615L112.105 354.969ZM117.157 360.021L117.511 359.667L112.459 354.615L112.105 354.969L111.751 355.322L116.804 360.374L117.157 360.021ZM122.209 355.474L121.875 355.102L116.823 359.649L117.157 360.021L117.492 360.392L122.544 355.845L122.209 355.474ZM132.819 366.083L133.172 365.73L122.563 355.12L122.209 355.474L121.856 355.827L132.465 366.437L132.819 366.083ZM132.819 384.776H133.319V366.083H132.819H132.319V384.776H132.819ZM135.85 384.776V384.276H132.819V384.776V385.276H135.85V384.776ZM139.892 382.755L139.668 382.308L135.626 384.329L135.85 384.776L136.073 385.223L140.115 383.202L139.892 382.755ZM173.497 382.755V382.255H139.892V382.755V383.255H173.497V382.755ZM173.497 392.096H173.997V382.755H173.497H172.997V392.096H173.497ZM177.277 392.096V391.596H173.497V392.096V392.596H177.277V392.096ZM177.277 353.453H176.777V392.096H177.277H177.777V353.453H177.277ZM192.938 353.453V352.953H177.277V353.453V353.953H192.938V353.453ZM192.938 349.411H192.438V353.453H192.938H193.438V349.411H192.938ZM190.918 341.833L190.434 341.962L192.455 349.54L192.938 349.411L193.422 349.282L191.401 341.704L190.918 341.833ZM190.918 318.594H190.418V341.833H190.918H191.418V318.594H190.918ZM184.35 304.448L183.896 304.658L190.464 318.804L190.918 318.594L191.371 318.383L184.803 304.237L184.35 304.448ZM184.35 289.291H183.85V304.448H184.35H184.85V289.291H184.35ZM253.523 68.9417L253.161 69.2861L262.65 79.2747L263.012 78.9303L263.375 78.5859L253.886 68.5973L253.523 68.9417ZM243.035 79.6297L243.392 79.9799L253.88 69.2919L253.523 68.9417L253.166 68.5915L242.678 79.2795L243.035 79.6297ZM243.452 112.891L243.952 112.885L243.535 79.6234L243.035 79.6297L242.535 79.636L242.952 112.898L243.452 112.891ZM170.014 112.891V113.391H243.452V112.891V112.391H170.014V112.891ZM166.622 105.899L166.173 106.118L169.564 113.11L170.014 112.891L170.464 112.673L167.072 105.681L166.622 105.899ZM161.129 105.899V106.399H166.622V105.899V105.399H161.129V105.899ZM161.129 116.682H161.629V105.899H161.129H160.629V116.682H161.129ZM206.074 116.682V116.182H161.129V116.682V117.182H206.074V116.682ZM206.074 138.862H206.574V116.682H206.074H205.574V138.862H206.074ZM204.579 138.862V139.362H206.074V138.862V138.362H204.579V138.862ZM204.579 142.857H205.079V138.862H204.579H204.079V142.857H204.579ZM231.049 142.857V142.357H204.579V142.857V143.357H231.049V142.857ZM251.543 162.834L251.892 162.476L231.398 142.499L231.049 142.857L230.7 143.215L251.194 163.192L251.543 162.834ZM267.709 162.834V162.334H251.543V162.834V163.334H267.709V162.834ZM267.709 132.369H267.209V162.834H267.709H268.209V132.369H267.709ZM258.11 132.369V132.869H267.709V132.369V131.869H258.11V132.369ZM258.11 83.9246H257.61V132.369H258.11H258.61V83.9246H258.11ZM263.012 78.9303L262.655 78.5801L257.754 83.5744L258.11 83.9246L258.467 84.2748L263.369 79.2805L263.012 78.9303ZM250.526 273.707H251.026V253.231H250.526H250.026V273.707H250.526ZM245.033 273.707V274.207H250.526V273.707V273.207H245.033V273.707ZM213.569 288.191L213.778 288.645L245.242 274.162L245.033 273.707L244.824 273.253L213.36 287.737L213.569 288.191ZM201.246 288.287L201.25 288.787L213.573 288.691L213.569 288.191L213.565 287.691L201.242 287.787L201.246 288.287ZM201.246 295.682H201.746V288.287H201.246H200.746V295.682H201.246ZM199.085 295.682V296.182H201.246V295.682V295.182H199.085V295.682ZM199.085 262.72H198.585V295.682H199.085H199.585V262.72H199.085ZM151.14 262.72V263.22H199.085V262.72V262.22H151.14V262.72ZM151.14 255.229H150.64V262.72H151.14H151.64V255.229H151.14ZM159.131 255.229V254.729H151.14V255.229V255.729H159.131V255.229ZM159.131 232.754H158.631V255.229H159.131H159.631V232.754H159.131ZM206.577 232.754V232.254H159.131V232.754V233.254H206.577V232.754ZM206.577 208.782H206.077V232.754H206.577H207.077V208.782H206.577ZM221.23 208.782V208.282H206.577V208.782V209.282H221.23V208.782ZM221.23 253.231H221.73V208.782H221.23H220.73V253.231H221.23ZM250.526 253.231V252.731H221.23V253.231V253.731H250.526V253.231ZM321.767 348.906V349.406H325.808V348.906V348.406H321.767V348.906ZM321.767 312.531H321.267V348.906H321.767H322.267V312.531H321.767ZM325.808 312.531V312.031H321.767V312.531V313.031H325.808V312.531ZM325.808 348.906H326.308V312.531H325.808H325.308V348.906H325.808ZM405.631 312.163H405.131V327.146H405.631H406.131V312.163H405.631ZM362.898 312.163V312.663H405.631V312.163V311.663H362.898V312.163ZM362.898 327.146H363.398V312.163H362.898H362.398V327.146H362.898ZM405.631 327.146V326.646H362.898V327.146V327.646H405.631V327.146ZM348.543 240.745H348.043V275.651H348.543H349.043V240.745H348.543ZM294.991 240.745V241.245H348.543V240.745V240.245H294.991V240.745ZM294.991 253.231H295.491V240.745H294.991H294.491V253.231H294.991ZM261.514 253.231V253.731H294.991V253.231V252.731H261.514V253.231ZM261.514 304.011H262.014V253.231H261.514H261.014V304.011H261.514ZM214.195 318.157L214.339 318.636L261.657 304.49L261.514 304.011L261.371 303.532L214.052 317.678L214.195 318.157ZM203.081 353.453L203.558 353.603L214.672 318.307L214.195 318.157L213.718 318.006L202.604 353.303L203.081 353.453ZM203.081 361.607H203.581V353.453H203.081H202.581V361.607H203.081ZM187.381 361.607V362.107H203.081V361.607V361.107H187.381V361.607ZM187.381 366.083H187.881V361.607H187.381H186.881V366.083H187.381ZM200.011 366.083V365.583H187.381V366.083V366.583H200.011V366.083ZM200.011 392.045H200.511V366.083H200.011H199.511V392.045H200.011ZM203.58 392.072L203.584 391.572L200.015 391.545L200.011 392.045L200.008 392.545L203.576 392.572L203.58 392.072ZM203.58 364.131H203.08V392.072H203.58H204.08V364.131H203.58ZM207.266 364.106L207.263 363.606L203.577 363.631L203.58 364.131L203.584 364.631L207.27 364.606L207.266 364.106ZM207.266 353.119H206.766V364.106H207.266H207.766V353.119H207.266ZM239.923 353.117L239.923 352.617L207.266 352.619L207.266 353.119L207.266 353.619L239.923 353.617L239.923 353.117ZM239.923 329.144H239.423V353.117H239.923H240.423V329.144H239.923ZM280.992 329.144V328.644H239.923V329.144V329.644H280.992V329.144ZM280.992 338.524H281.492V329.144H280.992H280.492V338.524H280.992ZM298.022 338.524V338.024H280.992V338.524V339.024H298.022V338.524ZM298.022 294.344H297.522V338.524H298.022H298.522V294.344H298.022ZM325.808 294.344V293.844H298.022V294.344V294.844H325.808V294.344ZM325.808 264.218H325.308V294.344H325.808H326.308V264.218H325.808ZM345.006 264.218V263.718H325.808V264.218V264.718H345.006V264.218ZM345.006 275.651H345.506V264.218H345.006H344.506V275.651H345.006ZM348.543 275.651V275.151H345.006V275.651V276.151H348.543V275.651ZM405.631 228.161H405.131V232.203H405.631H406.131V228.161H405.631ZM405.631 203.911H405.131V228.161H405.631H406.131V203.911H405.631ZM405.631 140.859H405.131V203.911H405.631H406.131V140.859H405.631ZM313.683 140.859V141.359H405.631V140.859V140.359H313.683V140.859ZM313.683 90.7112H313.183V140.859H313.683H314.183V90.7112H313.683ZM297.011 90.7112V91.2112H313.683V90.7112V90.2112H297.011V90.7112ZM297.011 183.311H297.511V90.7112H297.011H296.511V183.311H297.011ZM264.678 183.311V183.811H297.011V183.311V182.811H264.678V183.311ZM256.595 175.819L256.255 176.186L264.338 183.678L264.678 183.311L265.018 182.944L256.935 175.453L256.595 175.819ZM254.574 175.819V176.319H256.595V175.819V175.319H254.574V175.819ZM254.574 212.708H255.074V175.819H254.574H254.074V212.708H254.574ZM237.117 212.708V213.208H254.574V212.708V212.208H237.117V212.708ZM230.549 218.77L230.888 219.138L237.456 213.075L237.117 212.708L236.778 212.34L230.21 218.403L230.549 218.77ZM232.85 221.088L232.904 220.591C232.271 220.522 231.735 220.345 231.4 220.067C231.103 219.82 230.924 219.464 231.04 218.865L230.549 218.77L230.058 218.675C229.876 219.617 230.171 220.346 230.761 220.836C231.313 221.295 232.076 221.507 232.796 221.585L232.85 221.088ZM238.912 221.088V220.588H232.85V221.088V221.588H238.912V221.088ZM238.912 222.604H239.412V221.088H238.912H238.412V222.604H238.912ZM287.918 222.604V222.104H238.912V222.604V223.104H287.918V222.604ZM287.918 207.448H287.418V222.604H287.918H288.418V207.448H287.918ZM303.074 207.448V206.948H287.918V207.448V207.948H303.074V207.448ZM317.725 207.448V206.948H303.074V207.448V207.948H317.725V207.448ZM333.386 218.562L333.676 218.154L318.014 207.04L317.725 207.448L317.436 207.855L333.097 218.97L333.386 218.562ZM369.762 218.562V218.062H333.386V218.562V219.062H369.762V218.562ZM369.762 246.239H370.262V218.562H369.762H369.262V246.239H369.762ZM362.398 246.239V246.739H369.762V246.239V245.739H362.398V246.239ZM362.398 255.333H362.898V246.239H362.398H361.898V255.333H362.398ZM388.868 255.442L388.87 254.942L362.401 254.833L362.398 255.333L362.396 255.833L388.866 255.942L388.868 255.442ZM388.868 251.233H388.368V255.442H388.868H389.368V251.233H388.868ZM413.34 251.233V250.733H388.868V251.233V251.733H413.34V251.233ZM413.34 237.249H412.84V251.233H413.34H413.84V237.249H413.34ZM405.631 237.249V237.749H413.34V237.249V236.749H405.631V237.249ZM405.631 232.203H405.131V237.249H405.631H406.131V232.203H405.631ZM423.329 207.283V207.783H432.318V207.283V206.783H423.329V207.283ZM423.329 189.304H422.829V207.283H423.329H423.829V189.304H423.329ZM432.318 189.304V188.804H423.329V189.304V189.804H432.318V189.304ZM432.318 207.283H432.818V189.304H432.318H431.818V207.283H432.318ZM332.433 116.387V115.887C329.398 115.887 326.938 118.347 326.938 121.382H327.438H327.938C327.938 118.9 329.951 116.887 332.433 116.887V116.387ZM337.427 121.382H337.927C337.927 118.347 335.467 115.887 332.433 115.887V116.387V116.887C334.915 116.887 336.927 118.9 336.927 121.382H337.427ZM332.433 126.376V126.876C335.467 126.876 337.927 124.416 337.927 121.382H337.427H336.927C336.927 123.864 334.915 125.876 332.433 125.876V126.376ZM327.438 121.382H326.938C326.938 124.416 329.398 126.876 332.433 126.876V126.376V125.876C329.951 125.876 327.938 123.864 327.938 121.382H327.438Z" fill="#B27C40"/>
<path d="M298.022 338.802V345.37H290.444V342.086M290.444 338.802V342.086M290.444 342.086H287.413V338.802M345.006 312.531V294.344H349.048V289.797H372.288V280.703H348.543V275.651M325.808 312.531V294.344" stroke="#B27C40"/>
<path d="M332.881 141.265V126.614M337.428 141.265V96.3016M267.709 139.361H274.782V132.369M274.782 89.7339V132.369M267.709 132.369H274.782" stroke="#B27C40"/>
<path d="M262.657 132.369V128.635H258.11" stroke="#B27C40"/>
<path d="M236.043 253.231V246.005H228.303V253.231" stroke="#B27C40"/>
<path d="M294.692 240.745H265.509" stroke="#B27C40"/>
<path d="M341.465 240.797V233.714H348.548V240.797H341.465Z" stroke="#B27C40"/>
<path d="M453.626 189.26V195.297H450.09V189.26" stroke="#B27C40"/>
<path d="M431.397 123.078H434.934V130.656H420.788V123.078H424.324M431.397 123.078V119.541H424.324V123.078M431.397 123.078H424.324" stroke="#B27C40"/>
<path d="M450.09 278.177H442.512M450.09 270.599H427.861V278.177H438.975M442.512 278.177H438.975M442.512 278.177V281.713M450.09 285.25H442.512V281.713M438.975 278.177V281.713H442.512M398.558 312.163V304.953M398.558 304.953V301.675M398.558 304.953H392.364M390.98 312.163V304.953H392.364M387.949 255.442V263.021H380.876V255.442M405.849 312.163C405.849 311.764 405.849 305.005 405.849 301.675H398.558M398.558 301.675L396.859 294.683L389.867 296.182L392.364 304.953" stroke="#B27C40"/>
<path d="M317.45 241.245V236.75H275.288" stroke="#B27C40"/>
<path d="M221.06 215.274L230.154 208.201" stroke="#B27C40"/>
<path d="M217.564 208.782V183.81H210.116V209.281" stroke="#B27C40"/>
<path d="M207.084 209.468H203.043V232.754" stroke="#B27C40"/>
<path d="M177.277 277.672V270.599M177.277 263.021V270.599M177.277 270.599H173.235V263.021M145.954 225.13V217.552H138.376V225.13H145.954Z" stroke="#B27C40"/>
<path d="M127.168 294.764H134.241V287.691H127.168M187.381 366.083C187.381 366.487 187.381 373.325 187.381 376.693H200.011V366.083H187.381Z" stroke="#B27C40"/>
<path d="M263.668 27.4891H233.355L233.355 18.4994M263.668 43.2547H260.636L260.636 51.4617H263.668M211.126 18.4994L211.126 26.9897H173.741M173.277 52.4606H176.611V42.9714H173.615M140.652 142.857H127.667V121.133M99.98 148.351H106.691L106.691 140.859H99.98M127.742 190.684V189.169H128.753V158.856H127.742V157.341H130.268V190.684H127.742ZM127.742 190.684H121.175M50.4695 313.541V339.307M50.4695 339.307H52.4903M50.4695 339.307H48.4487M47.9435 313.541V339.307H48.4487M48.4487 339.307C48.4487 339.711 48.4487 343.517 48.4487 345.37M48.4487 345.37H45.4174M48.4487 345.37H52.4903M32.8739 213.109L24.2854 227.76L17.7177 223.718L26.3062 209.067L32.8739 213.109ZM86.8446 331.729V315.562H79.7716V322.635H65.1206V331.729H86.8446Z" stroke="#B27C40"/>
<path d="M114.631 407.005H122.209V402.963M114.631 402.458H118.42M118.42 402.458H122.209V402.963M118.42 402.458V398.922H114.631M121.704 401.953H159.089V402.963H122.209" stroke="#B27C40"/>
<path d="M52.4907 347.391V345.875H50.9751V344.872H48.9497V339.813H50.9751V313.5H50.2769V311H35.2769V295.707H93.9175V356.484H61.5845L52.4907 347.391ZM87.3501 315.057H79.2661V322.13H64.6157V332.234H87.3501V315.057Z" fill="#F08234" fill-opacity="0.23"/>
<path d="M64.3146 316.458H65.8615L63.045 308.458H61.256L58.4357 316.458H59.9825L62.1193 310.099H62.1818L64.3146 316.458ZM64.2638 313.321H60.045V314.485H64.2638V313.321Z" fill="white"/>
<path d="M362.399 289.19H372.321V280.2H362.399V263.219H370.389V255.728H380.377V262.221H388.369V255.728H389.436V251.233L402.138 251.401V301.675H398.357L397.359 294.683L389.867 296.182L391.865 304.672H390.367V311.664L402.138 312.155V312.163H362.399V289.19Z" fill="#F08234" fill-opacity="0.23"/>
<path d="M381.16 288.166V280.166H384.223C384.801 280.166 385.281 280.258 385.664 280.44C386.049 280.62 386.337 280.866 386.527 281.178C386.72 281.491 386.816 281.845 386.816 282.241C386.816 282.566 386.754 282.845 386.629 283.077C386.504 283.306 386.336 283.492 386.125 283.635C385.914 283.778 385.678 283.881 385.418 283.944V284.022C385.702 284.038 385.974 284.125 386.234 284.284C386.497 284.44 386.712 284.661 386.879 284.948C387.045 285.234 387.129 285.581 387.129 285.987C387.129 286.401 387.029 286.773 386.828 287.104C386.627 287.432 386.325 287.691 385.922 287.881C385.518 288.071 385.01 288.166 384.398 288.166H381.16ZM382.609 286.956H384.168C384.694 286.956 385.073 286.855 385.305 286.655C385.539 286.452 385.656 286.191 385.656 285.873C385.656 285.636 385.598 285.423 385.48 285.233C385.363 285.04 385.196 284.889 384.98 284.78C384.764 284.668 384.506 284.612 384.207 284.612H382.609V286.956ZM382.609 283.569H384.043C384.293 283.569 384.518 283.523 384.719 283.432C384.919 283.338 385.077 283.207 385.191 283.038C385.308 282.866 385.367 282.663 385.367 282.428C385.367 282.118 385.258 281.863 385.039 281.663C384.823 281.462 384.501 281.362 384.074 281.362H382.609V283.569Z" fill="white"/>
<path d="M345.006 294.344H325.808M345.006 312.531C344.602 312.531 332.039 312.531 325.808 312.531M364.71 281.713V288.786H371.277V281.713H364.71Z" stroke="#B27C40" stroke-opacity="0.23"/>
</svg>
