<svg width="467" height="473" viewBox="0 0 467 473" fill="none" xmlns="http://www.w3.org/2000/svg">
<path fill-rule="evenodd" clip-rule="evenodd" d="M17.4805 296.574V214.172H1V106.251H33.4294V134.959H78.0864V110.504H73.8333V86.0487H139.755V112.099H205.146V18H244.487V83.9221H315.725V56.809H410.355V84.9854H388.558V88.1752H391.748V95.618H437.468V113.162H466.176V130.174H464.05V188.653H466.176V204.602H455.544L425.772 183.337H390.685V234.373H401.849V217.893H433.215V280.094H448.101V308.27H425.241V360.123H332.206V397.584H248.208V455H229.601L214.715 453.937V452.342L195.577 453.937V452.342H183.881V401.305H186.007V395.771H178.564V399.71H108.389V386.951H67.9854V288.068H80.2129V281.157H53.0998V296.574H17.4805ZM294.46 100.934V108.909H343.901V131.769H363.572V110.504H367.293L372.609 104.124V88.1752H375.799V84.9854H350.281V74.8844H347.355V100.934H294.46ZM392.811 108.909V134.959H425.241V108.909H392.811ZM339.117 157.819L326.358 181.742V183.869H333.8V200.349L328.484 210.982V231.184H358.255V213.64H373.673V198.754H350.813V162.072L344.965 149.313H343.901V157.819H339.117ZM241.297 216.298V264.676H239.17V288.068H279.574V281.157H292.865V310.928H364.103V288.068H395.47V291.79H397.596V280.094H405.039V257.234H397.596L382.179 273.182H358.255V248.196H339.117V264.145H307.219L294.991 251.917V182.805H283.296V210.45H236.512V213.64C236.881 215.036 237.29 215.663 238.639 216.298H241.297ZM116.364 343.889H147.198V319.966H161.552V336.446H188.665V319.966H191.324V332.193H239.17V304.549H279.574V327.94H380.584V304.549H395.47V300.827H397.596V311.46H389.622V334.32H293.928V376.319H248.208V364.623H237.575V378.445H144.54L140.819 374.192V355.054H116.364V343.889ZM169.527 223.209H163.147V167.282H189.197V131.769H205.146V138.148H231.727V112.099L240.765 100.934H281.701V141.87H299.244V168.451H264.157V196.096H256.714V182.274H213.12V194.501L222.945 204.602V211.513H201.425V223.209H198.235V207.792H169.527V223.209ZM92.4403 134.959V110.504H104.136V102.529H119.022V131.769H173.954V156.224H146.135V180.147H114.769V134.959H92.4403ZM78.0863 168.983H40.8722V186.527C40.8722 186.952 65.6816 186.704 78.0863 186.527V168.983ZM115.832 288.068V329.004H122.743V288.6H188.665V303.485H191.324V264.145H201.425V239.69H163.679L145.603 257.765H132.844V225.336H96.1617L85.5291 214.172H40.8722V245.006H99.3515V281.157H96.6934V288.068H115.832Z" fill="#271406"/>
<path d="M17.4805 214.172H17.9805V213.672H17.4805V214.172ZM17.4805 296.574H16.9805V297.074H17.4805V296.574ZM1 214.172H0.5V214.672H1V214.172ZM1 106.251V105.751H0.5V106.251H1ZM33.4294 106.251H33.9294V105.751H33.4294V106.251ZM33.4294 134.959H32.9294V135.459H33.4294V134.959ZM78.0864 134.959V135.459H78.5864V134.959H78.0864ZM78.0864 110.504H78.5864V110.004H78.0864V110.504ZM73.8333 110.504H73.3333V111.004H73.8333V110.504ZM73.8333 86.0487V85.5487H73.3333V86.0487H73.8333ZM139.755 86.0487H140.255V85.5487H139.755V86.0487ZM139.755 112.099H139.255V112.599H139.755V112.099ZM205.146 112.099V112.599H205.646V112.099H205.146ZM205.146 18V17.5H204.646V18H205.146ZM244.487 18H244.987V17.5H244.487V18ZM244.487 83.9221H243.987V84.4221H244.487V83.9221ZM315.725 83.9221V84.4221H316.225V83.9221H315.725ZM315.725 56.809V56.309H315.225V56.809H315.725ZM410.355 56.809H410.855V56.309H410.355V56.809ZM410.355 84.9854V85.4854H410.855V84.9854H410.355ZM388.558 84.9854V84.4854H388.058V84.9854H388.558ZM388.558 88.1752H388.058V88.6752H388.558V88.1752ZM391.748 88.1752H392.248V87.6752H391.748V88.1752ZM391.748 95.618H391.248V96.118H391.748V95.618ZM437.468 95.618H437.968V95.118H437.468V95.618ZM437.468 113.162H436.968V113.662H437.468V113.162ZM466.176 113.162H466.676V112.662H466.176V113.162ZM466.176 130.174V130.674H466.676V130.174H466.176ZM464.05 130.174V129.674H463.55V130.174H464.05ZM464.05 188.653H463.55V189.153H464.05V188.653ZM466.176 188.653H466.676V188.153H466.176V188.653ZM466.176 204.602V205.102H466.676V204.602H466.176ZM455.544 204.602L455.253 205.009L455.384 205.102H455.544V204.602ZM425.772 183.337L426.063 182.93L425.933 182.837H425.772V183.337ZM390.685 183.337V182.837H390.185V183.337H390.685ZM390.685 234.373H390.185V234.873H390.685V234.373ZM401.849 234.373V234.873H402.349V234.373H401.849ZM401.849 217.893V217.393H401.349V217.893H401.849ZM433.215 217.893H433.715V217.393H433.215V217.893ZM433.215 280.094H432.715V280.594H433.215V280.094ZM448.101 280.094H448.601V279.594H448.101V280.094ZM448.101 308.27V308.77H448.601V308.27H448.101ZM425.241 308.27V307.77H424.741V308.27H425.241ZM425.241 360.123V360.623H425.741V360.123H425.241ZM332.206 360.123V359.623H331.706V360.123H332.206ZM332.206 397.584V398.084H332.706V397.584H332.206ZM248.208 397.584V397.084H247.708V397.584H248.208ZM248.208 455V455.5H248.708V455H248.208ZM229.601 455L229.565 455.499L229.583 455.5H229.601V455ZM214.715 453.937H214.215V454.402L214.68 454.435L214.715 453.937ZM214.715 452.342H215.215V451.798L214.674 451.844L214.715 452.342ZM195.577 453.937H195.077V454.48L195.618 454.435L195.577 453.937ZM195.577 452.342H196.077V451.842H195.577V452.342ZM183.881 452.342H183.381V452.842H183.881V452.342ZM183.881 401.305V400.805H183.381V401.305H183.881ZM186.007 401.305V401.805H186.507V401.305H186.007ZM186.007 395.771H186.507V395.271H186.007V395.771ZM178.564 395.771V395.271H178.064V395.771H178.564ZM178.564 399.71V400.21H179.064V399.71H178.564ZM108.389 399.71H107.889V400.21H108.389V399.71ZM108.389 386.951H108.889V386.451H108.389V386.951ZM67.9854 386.951H67.4854V387.451H67.9854V386.951ZM67.9854 288.068V287.568H67.4854V288.068H67.9854ZM80.2129 288.068V288.568H80.7129V288.068H80.2129ZM80.2129 281.157H80.7129V280.657H80.2129V281.157ZM53.0998 281.157V280.657H52.5998V281.157H53.0998ZM53.0998 296.574V297.074H53.5998V296.574H53.0998ZM294.46 108.909H293.96V109.409H294.46V108.909ZM294.46 100.934V100.434H293.96V100.934H294.46ZM343.901 108.909H344.401V108.409H343.901V108.909ZM343.901 131.769H343.401V132.269H343.901V131.769ZM363.572 131.769V132.269H364.072V131.769H363.572ZM363.572 110.504V110.004H363.072V110.504H363.572ZM367.293 110.504V111.004H367.527L367.677 110.824L367.293 110.504ZM372.609 104.124L372.994 104.444L373.109 104.305V104.124H372.609ZM372.609 88.1752V87.6752H372.109V88.1752H372.609ZM375.799 88.1752V88.6752H376.299V88.1752H375.799ZM375.799 84.9854H376.299V84.4854H375.799V84.9854ZM350.281 84.9854H349.781V85.4854H350.281V84.9854ZM350.281 74.8844H350.781V74.3844H350.281V74.8844ZM347.355 74.8844V74.3844H346.855V74.8844H347.355ZM347.355 100.934V101.434H347.855V100.934H347.355ZM392.811 134.959H392.311V135.459H392.811V134.959ZM392.811 108.909V108.409H392.311V108.909H392.811ZM425.241 134.959V135.459H425.741V134.959H425.241ZM425.241 108.909H425.741V108.409H425.241V108.909ZM326.358 181.742L325.916 181.507L325.858 181.617V181.742H326.358ZM339.117 157.819V157.319H338.817L338.676 157.583L339.117 157.819ZM326.358 183.869H325.858V184.369H326.358V183.869ZM333.8 183.869H334.3V183.369H333.8V183.869ZM333.8 200.349L334.248 200.573L334.3 200.467V200.349H333.8ZM328.484 210.982L328.037 210.758L327.984 210.864V210.982H328.484ZM328.484 231.184H327.984V231.684H328.484V231.184ZM358.255 231.184V231.684H358.755V231.184H358.255ZM358.255 213.64V213.14H357.755V213.64H358.255ZM373.673 213.64V214.14H374.173V213.64H373.673ZM373.673 198.754H374.173V198.254H373.673V198.754ZM350.813 198.754H350.313V199.254H350.813V198.754ZM350.813 162.072H351.313V161.963L351.267 161.863L350.813 162.072ZM344.965 149.313L345.419 149.104L345.286 148.813H344.965V149.313ZM343.901 149.313V148.813H343.401V149.313H343.901ZM343.901 157.819V158.319H344.401V157.819H343.901ZM241.297 264.676V265.176H241.797V264.676H241.297ZM241.297 216.298H241.797V215.798H241.297V216.298ZM239.17 264.676V264.176H238.67V264.676H239.17ZM239.17 288.068H238.67V288.568H239.17V288.068ZM279.574 288.068V288.568H280.074V288.068H279.574ZM279.574 281.157V280.657H279.074V281.157H279.574ZM292.865 281.157H293.365V280.657H292.865V281.157ZM292.865 310.928H292.365V311.428H292.865V310.928ZM364.103 310.928V311.428H364.603V310.928H364.103ZM364.103 288.068V287.568H363.603V288.068H364.103ZM395.47 288.068H395.97V287.568H395.47V288.068ZM395.47 291.79H394.97V292.29H395.47V291.79ZM397.596 291.79V292.29H398.096V291.79H397.596ZM397.596 280.094V279.594H397.096V280.094H397.596ZM405.039 280.094V280.594H405.539V280.094H405.039ZM405.039 257.234H405.539V256.734H405.039V257.234ZM397.596 257.234V256.734H397.384L397.237 256.886L397.596 257.234ZM382.179 273.182V273.682H382.391L382.538 273.53L382.179 273.182ZM358.255 273.182H357.755V273.682H358.255V273.182ZM358.255 248.196H358.755V247.696H358.255V248.196ZM339.117 248.196V247.696H338.617V248.196H339.117ZM339.117 264.145V264.645H339.617V264.145H339.117ZM307.219 264.145L306.865 264.498L307.012 264.645H307.219V264.145ZM294.991 251.917H294.491V252.124L294.638 252.271L294.991 251.917ZM294.991 182.805H295.491V182.305H294.991V182.805ZM283.296 182.805V182.305H282.796V182.805H283.296ZM283.296 210.45V210.95H283.796V210.45H283.296ZM236.512 210.45V209.95H236.012V210.45H236.512ZM236.512 213.64H236.012V213.705L236.029 213.768L236.512 213.64ZM238.639 216.298L238.426 216.75L238.527 216.798H238.639V216.298ZM147.198 343.889V344.389H147.698V343.889H147.198ZM116.364 343.889V343.389H115.864V343.889H116.364ZM147.198 319.966V319.466H146.698V319.966H147.198ZM161.552 319.966H162.052V319.466H161.552V319.966ZM161.552 336.446H161.052V336.946H161.552V336.446ZM188.665 336.446V336.946H189.165V336.446H188.665ZM188.665 319.966V319.466H188.165V319.966H188.665ZM191.324 319.966H191.824V319.466H191.324V319.966ZM191.324 332.193H190.824V332.693H191.324V332.193ZM239.17 332.193V332.693H239.67V332.193H239.17ZM239.17 304.549V304.049H238.67V304.549H239.17ZM279.574 304.549H280.074V304.049H279.574V304.549ZM279.574 327.94H279.074V328.44H279.574V327.94ZM380.584 327.94V328.44H381.084V327.94H380.584ZM380.584 304.549V304.049H380.084V304.549H380.584ZM395.47 304.549V305.049H395.97V304.549H395.47ZM395.47 300.827V300.327H394.97V300.827H395.47ZM397.596 300.827H398.096V300.327H397.596V300.827ZM397.596 311.46V311.96H398.096V311.46H397.596ZM389.622 311.46V310.96H389.122V311.46H389.622ZM389.622 334.32V334.82H390.122V334.32H389.622ZM293.928 334.32V333.82H293.428V334.32H293.928ZM293.928 376.319V376.819H294.428V376.319H293.928ZM248.208 376.319H247.708V376.819H248.208V376.319ZM248.208 364.623H248.708V364.123H248.208V364.623ZM237.575 364.623V364.123H237.075V364.623H237.575ZM237.575 378.445V378.945H238.075V378.445H237.575ZM144.54 378.445L144.164 378.775L144.313 378.945H144.54V378.445ZM140.819 374.192H140.319V374.38L140.442 374.521L140.819 374.192ZM140.819 355.054H141.319V354.554H140.819V355.054ZM116.364 355.054H115.864V355.554H116.364V355.054ZM163.147 223.209H162.647V223.709H163.147V223.209ZM169.527 223.209V223.709H170.027V223.209H169.527ZM163.147 167.282V166.782H162.647V167.282H163.147ZM189.197 167.282V167.782H189.697V167.282H189.197ZM189.197 131.769V131.269H188.697V131.769H189.197ZM205.146 131.769H205.646V131.269H205.146V131.769ZM205.146 138.148H204.646V138.648H205.146V138.148ZM231.727 138.148V138.648H232.227V138.148H231.727ZM231.727 112.099L231.339 111.784L231.227 111.922V112.099H231.727ZM240.765 100.934V100.434H240.527L240.377 100.62L240.765 100.934ZM281.701 100.934H282.201V100.434H281.701V100.934ZM281.701 141.87H281.201V142.37H281.701V141.87ZM299.244 141.87H299.744V141.37H299.244V141.87ZM299.244 168.451V168.951H299.744V168.451H299.244ZM264.157 168.451V167.951H263.657V168.451H264.157ZM264.157 196.096V196.596H264.657V196.096H264.157ZM256.714 196.096H256.214V196.596H256.714V196.096ZM256.714 182.274H257.214V181.774H256.714V182.274ZM213.12 182.274V181.774H212.62V182.274H213.12ZM213.12 194.501H212.62V194.704L212.762 194.85L213.12 194.501ZM222.945 204.602H223.445V204.399L223.304 204.254L222.945 204.602ZM222.945 211.513V212.013H223.445V211.513H222.945ZM201.425 211.513V211.013H200.925V211.513H201.425ZM201.425 223.209V223.709H201.925V223.209H201.425ZM198.235 223.209H197.735V223.709H198.235V223.209ZM198.235 207.792H198.735V207.292H198.235V207.792ZM169.527 207.792V207.292H169.027V207.792H169.527ZM92.4403 110.504V110.004H91.9403V110.504H92.4403ZM92.4403 134.959H91.9403V135.459H92.4403V134.959ZM104.136 110.504V111.004H104.636V110.504H104.136ZM104.136 102.529V102.029H103.636V102.529H104.136ZM119.022 102.529H119.522V102.029H119.022V102.529ZM119.022 131.769H118.522V132.269H119.022V131.769ZM173.954 131.769H174.454V131.269H173.954V131.769ZM173.954 156.224V156.724H174.454V156.224H173.954ZM146.135 156.224V155.724H145.635V156.224H146.135ZM146.135 180.147V180.647H146.635V180.147H146.135ZM114.769 180.147H114.269V180.647H114.769V180.147ZM114.769 134.959H115.269V134.459H114.769V134.959ZM40.8722 168.983V168.483H40.3722V168.983H40.8722ZM78.0863 168.983H78.5863V168.483H78.0863V168.983ZM78.0863 186.527L78.0935 187.027L78.5863 187.02V186.527H78.0863ZM115.832 329.004H115.332V329.504H115.832V329.004ZM115.832 288.068H116.332V287.568H115.832V288.068ZM122.743 329.004V329.504H123.243V329.004H122.743ZM122.743 288.6V288.1H122.243V288.6H122.743ZM188.665 288.6H189.165V288.1H188.665V288.6ZM188.665 303.485H188.165V303.985H188.665V303.485ZM191.324 303.485V303.985H191.824V303.485H191.324ZM191.324 264.145V263.645H190.824V264.145H191.324ZM201.425 264.145V264.645H201.925V264.145H201.425ZM201.425 239.69H201.925V239.19H201.425V239.69ZM163.679 239.69V239.19H163.472L163.325 239.336L163.679 239.69ZM145.603 257.765V258.265H145.81L145.957 258.119L145.603 257.765ZM132.844 257.765H132.344V258.265H132.844V257.765ZM132.844 225.336H133.344V224.836H132.844V225.336ZM96.1617 225.336L95.7997 225.681L95.9475 225.836H96.1617V225.336ZM85.5291 214.172L85.8912 213.827L85.7434 213.672H85.5291V214.172ZM40.8722 214.172V213.672H40.3722V214.172H40.8722ZM40.8722 245.006H40.3722V245.506H40.8722V245.006ZM99.3515 245.006H99.8515V244.506H99.3515V245.006ZM99.3515 281.157V281.657H99.8515V281.157H99.3515ZM96.6934 281.157V280.657H96.1934V281.157H96.6934ZM96.6934 288.068H96.1934V288.568H96.6934V288.068ZM17.4805 214.172H16.9805V296.574H17.4805H17.9805V214.172H17.4805ZM1 214.172V214.672H17.4805V214.172V213.672H1V214.172ZM1 106.251H0.5V214.172H1H1.5V106.251H1ZM33.4294 106.251V105.751H1V106.251V106.751H33.4294V106.251ZM33.4294 134.959H33.9294V106.251H33.4294H32.9294V134.959H33.4294ZM78.0864 134.959V134.459H33.4294V134.959V135.459H78.0864V134.959ZM78.0864 110.504H77.5864V134.959H78.0864H78.5864V110.504H78.0864ZM73.8333 110.504V111.004H78.0864V110.504V110.004H73.8333V110.504ZM73.8333 86.0487H73.3333V110.504H73.8333H74.3333V86.0487H73.8333ZM139.755 86.0487V85.5487H73.8333V86.0487V86.5487H139.755V86.0487ZM139.755 112.099H140.255V86.0487H139.755H139.255V112.099H139.755ZM205.146 112.099V111.599H139.755V112.099V112.599H205.146V112.099ZM205.146 18H204.646V112.099H205.146H205.646V18H205.146ZM244.487 18V17.5H205.146V18V18.5H244.487V18ZM244.487 83.9221H244.987V18H244.487H243.987V83.9221H244.487ZM315.725 83.9221V83.4221H244.487V83.9221V84.4221H315.725V83.9221ZM315.725 56.809H315.225V83.9221H315.725H316.225V56.809H315.725ZM410.355 56.809V56.309H315.725V56.809V57.309H410.355V56.809ZM410.355 84.9854H410.855V56.809H410.355H409.855V84.9854H410.355ZM388.558 84.9854V85.4854H410.355V84.9854V84.4854H388.558V84.9854ZM388.558 88.1752H389.058V84.9854H388.558H388.058V88.1752H388.558ZM391.748 88.1752V87.6752H388.558V88.1752V88.6752H391.748V88.1752ZM391.748 95.618H392.248V88.1752H391.748H391.248V95.618H391.748ZM437.468 95.618V95.118H391.748V95.618V96.118H437.468V95.618ZM437.468 113.162H437.968V95.618H437.468H436.968V113.162H437.468ZM466.176 113.162V112.662H437.468V113.162V113.662H466.176V113.162ZM466.176 130.174H466.676V113.162H466.176H465.676V130.174H466.176ZM464.05 130.174V130.674H466.176V130.174V129.674H464.05V130.174ZM464.05 188.653H464.55V130.174H464.05H463.55V188.653H464.05ZM466.176 188.653V188.153H464.05V188.653V189.153H466.176V188.653ZM466.176 204.602H466.676V188.653H466.176H465.676V204.602H466.176ZM455.544 204.602V205.102H466.176V204.602V204.102H455.544V204.602ZM425.772 183.337L425.482 183.744L455.253 205.009L455.544 204.602L455.834 204.195L426.063 182.93L425.772 183.337ZM390.685 183.337V183.837H425.772V183.337V182.837H390.685V183.337ZM390.685 234.373H391.185V183.337H390.685H390.185V234.373H390.685ZM401.849 234.373V233.873H390.685V234.373V234.873H401.849V234.373ZM401.849 217.893H401.349V234.373H401.849H402.349V217.893H401.849ZM433.215 217.893V217.393H401.849V217.893V218.393H433.215V217.893ZM433.215 280.094H433.715V217.893H433.215H432.715V280.094H433.215ZM448.101 280.094V279.594H433.215V280.094V280.594H448.101V280.094ZM448.101 308.27H448.601V280.094H448.101H447.601V308.27H448.101ZM425.241 308.27V308.77H448.101V308.27V307.77H425.241V308.27ZM425.241 360.123H425.741V308.27H425.241H424.741V360.123H425.241ZM332.206 360.123V360.623H425.241V360.123V359.623H332.206V360.123ZM332.206 397.584H332.706V360.123H332.206H331.706V397.584H332.206ZM248.208 397.584V398.084H332.206V397.584V397.084H248.208V397.584ZM248.208 455H248.708V397.584H248.208H247.708V455H248.208ZM229.601 455V455.5H248.208V455V454.5H229.601V455ZM214.715 453.937L214.68 454.435L229.565 455.499L229.601 455L229.637 454.501L214.751 453.438L214.715 453.937ZM214.715 452.342H214.215V453.937H214.715H215.215V452.342H214.715ZM195.577 453.937L195.618 454.435L214.757 452.84L214.715 452.342L214.674 451.844L195.535 453.438L195.577 453.937ZM195.577 452.342H195.077V453.937H195.577H196.077V452.342H195.577ZM183.881 452.342V452.842H195.577V452.342V451.842H183.881V452.342ZM183.881 401.305H183.381V452.342H183.881H184.381V401.305H183.881ZM186.007 401.305V400.805H183.881V401.305V401.805H186.007V401.305ZM186.007 395.771H185.507V401.305H186.007H186.507V395.771H186.007ZM178.564 395.771V396.271H186.007V395.771V395.271H178.564V395.771ZM178.564 399.71H179.064V395.771H178.564H178.064V399.71H178.564ZM108.389 399.71V400.21H178.564V399.71V399.21H108.389V399.71ZM108.389 386.951H107.889V399.71H108.389H108.889V386.951H108.389ZM67.9854 386.951V387.451H108.389V386.951V386.451H67.9854V386.951ZM67.9854 288.068H67.4854V386.951H67.9854H68.4854V288.068H67.9854ZM80.2129 288.068V287.568H67.9854V288.068V288.568H80.2129V288.068ZM80.2129 281.157H79.7129V288.068H80.2129H80.7129V281.157H80.2129ZM53.0998 281.157V281.657H80.2129V281.157V280.657H53.0998V281.157ZM53.0998 296.574H53.5998V281.157H53.0998H52.5998V296.574H53.0998ZM17.4805 296.574V297.074H53.0998V296.574V296.074H17.4805V296.574ZM294.46 108.909H294.96V100.934H294.46H293.96V108.909H294.46ZM343.901 108.909V108.409H294.46V108.909V109.409H343.901V108.909ZM343.901 131.769H344.401V108.909H343.901H343.401V131.769H343.901ZM363.572 131.769V131.269H343.901V131.769V132.269H363.572V131.769ZM363.572 110.504H363.072V131.769H363.572H364.072V110.504H363.572ZM367.293 110.504V110.004H363.572V110.504V111.004H367.293V110.504ZM372.609 104.124L372.225 103.804L366.909 110.184L367.293 110.504L367.677 110.824L372.994 104.444L372.609 104.124ZM372.609 88.1752H372.109V104.124H372.609H373.109V88.1752H372.609ZM375.799 88.1752V87.6752H372.609V88.1752V88.6752H375.799V88.1752ZM375.799 84.9854H375.299V88.1752H375.799H376.299V84.9854H375.799ZM350.281 84.9854V85.4854H375.799V84.9854V84.4854H350.281V84.9854ZM350.281 74.8844H349.781V84.9854H350.281H350.781V74.8844H350.281ZM347.355 74.8844V75.3844H350.281V74.8844V74.3844H347.355V74.8844ZM347.355 100.934H347.855V74.8844H347.355H346.855V100.934H347.355ZM294.46 100.934V101.434H347.355V100.934V100.434H294.46V100.934ZM392.811 134.959H393.311V108.909H392.811H392.311V134.959H392.811ZM425.241 134.959V134.459H392.811V134.959V135.459H425.241V134.959ZM425.241 108.909H424.741V134.959H425.241H425.741V108.909H425.241ZM392.811 108.909V109.409H425.241V108.909V108.409H392.811V108.909ZM326.358 181.742L326.799 181.977L339.558 158.054L339.117 157.819L338.676 157.583L325.916 181.507L326.358 181.742ZM326.358 183.869H326.858V181.742H326.358H325.858V183.869H326.358ZM333.8 183.869V183.369H326.358V183.869V184.369H333.8V183.869ZM333.8 200.349H334.3V183.869H333.8H333.3V200.349H333.8ZM328.484 210.982L328.931 211.205L334.248 200.573L333.8 200.349L333.353 200.126L328.037 210.758L328.484 210.982ZM328.484 231.184H328.984V210.982H328.484H327.984V231.184H328.484ZM358.255 231.184V230.684H328.484V231.184V231.684H358.255V231.184ZM358.255 213.64H357.755V231.184H358.255H358.755V213.64H358.255ZM373.673 213.64V213.14H358.255V213.64V214.14H373.673V213.64ZM373.673 198.754H373.173V213.64H373.673H374.173V198.754H373.673ZM350.813 198.754V199.254H373.673V198.754V198.254H350.813V198.754ZM350.813 162.072H350.313V198.754H350.813H351.313V162.072H350.813ZM344.965 149.313L344.51 149.521L350.358 162.28L350.813 162.072L351.267 161.863L345.419 149.104L344.965 149.313ZM343.901 149.313V149.813H344.965V149.313V148.813H343.901V149.313ZM343.901 157.819H344.401V149.313H343.901H343.401V157.819H343.901ZM339.117 157.819V158.319H343.901V157.819V157.319H339.117V157.819ZM241.297 264.676H241.797V216.298H241.297H240.797V264.676H241.297ZM239.17 264.676V265.176H241.297V264.676V264.176H239.17V264.676ZM239.17 288.068H239.67V264.676H239.17H238.67V288.068H239.17ZM279.574 288.068V287.568H239.17V288.068V288.568H279.574V288.068ZM279.574 281.157H279.074V288.068H279.574H280.074V281.157H279.574ZM292.865 281.157V280.657H279.574V281.157V281.657H292.865V281.157ZM292.865 310.928H293.365V281.157H292.865H292.365V310.928H292.865ZM364.103 310.928V310.428H292.865V310.928V311.428H364.103V310.928ZM364.103 288.068H363.603V310.928H364.103H364.603V288.068H364.103ZM395.47 288.068V287.568H364.103V288.068V288.568H395.47V288.068ZM395.47 291.79H395.97V288.068H395.47H394.97V291.79H395.47ZM397.596 291.79V291.29H395.47V291.79V292.29H397.596V291.79ZM397.596 280.094H397.096V291.79H397.596H398.096V280.094H397.596ZM405.039 280.094V279.594H397.596V280.094V280.594H405.039V280.094ZM405.039 257.234H404.539V280.094H405.039H405.539V257.234H405.039ZM397.596 257.234V257.734H405.039V257.234V256.734H397.596V257.234ZM382.179 273.182L382.538 273.53L397.956 257.581L397.596 257.234L397.237 256.886L381.819 272.835L382.179 273.182ZM358.255 273.182V273.682H382.179V273.182V272.682H358.255V273.182ZM358.255 248.196H357.755V273.182H358.255H358.755V248.196H358.255ZM339.117 248.196V248.696H358.255V248.196V247.696H339.117V248.196ZM339.117 264.145H339.617V248.196H339.117H338.617V264.145H339.117ZM307.219 264.145V264.645H339.117V264.145V263.645H307.219V264.145ZM294.991 251.917L294.638 252.271L306.865 264.498L307.219 264.145L307.572 263.791L295.345 251.564L294.991 251.917ZM294.991 182.805H294.491V251.917H294.991H295.491V182.805H294.991ZM283.296 182.805V183.305H294.991V182.805V182.305H283.296V182.805ZM283.296 210.45H283.796V182.805H283.296H282.796V210.45H283.296ZM236.512 210.45V210.95H283.296V210.45V209.95H236.512V210.45ZM236.512 213.64H237.012V210.45H236.512H236.012V213.64H236.512ZM238.639 216.298L238.852 215.846C238.216 215.546 237.854 215.273 237.604 214.949C237.349 214.619 237.175 214.191 236.996 213.512L236.512 213.64L236.029 213.768C236.218 214.485 236.433 215.069 236.812 215.56C237.196 216.057 237.713 216.415 238.426 216.75L238.639 216.298ZM241.297 216.298V215.798H238.639V216.298V216.798H241.297V216.298ZM147.198 343.889V343.389H116.364V343.889V344.389H147.198V343.889ZM147.198 319.966H146.698V343.889H147.198H147.698V319.966H147.198ZM161.552 319.966V319.466H147.198V319.966V320.466H161.552V319.966ZM161.552 336.446H162.052V319.966H161.552H161.052V336.446H161.552ZM188.665 336.446V335.946H161.552V336.446V336.946H188.665V336.446ZM188.665 319.966H188.165V336.446H188.665H189.165V319.966H188.665ZM191.324 319.966V319.466H188.665V319.966V320.466H191.324V319.966ZM191.324 332.193H191.824V319.966H191.324H190.824V332.193H191.324ZM239.17 332.193V331.693H191.324V332.193V332.693H239.17V332.193ZM239.17 304.549H238.67V332.193H239.17H239.67V304.549H239.17ZM279.574 304.549V304.049H239.17V304.549V305.049H279.574V304.549ZM279.574 327.94H280.074V304.549H279.574H279.074V327.94H279.574ZM380.584 327.94V327.44H279.574V327.94V328.44H380.584V327.94ZM380.584 304.549H380.084V327.94H380.584H381.084V304.549H380.584ZM395.47 304.549V304.049H380.584V304.549V305.049H395.47V304.549ZM395.47 300.827H394.97V304.549H395.47H395.97V300.827H395.47ZM397.596 300.827V300.327H395.47V300.827V301.327H397.596V300.827ZM397.596 311.46H398.096V300.827H397.596H397.096V311.46H397.596ZM389.622 311.46V311.96H397.596V311.46V310.96H389.622V311.46ZM389.622 334.32H390.122V311.46H389.622H389.122V334.32H389.622ZM293.928 334.32V334.82H389.622V334.32V333.82H293.928V334.32ZM293.928 376.319H294.428V334.32H293.928H293.428V376.319H293.928ZM248.208 376.319V376.819H293.928V376.319V375.819H248.208V376.319ZM248.208 364.623H247.708V376.319H248.208H248.708V364.623H248.208ZM237.575 364.623V365.123H248.208V364.623V364.123H237.575V364.623ZM237.575 378.445H238.075V364.623H237.575H237.075V378.445H237.575ZM144.54 378.445V378.945H237.575V378.445V377.945H144.54V378.445ZM140.819 374.192L140.442 374.521L144.164 378.775L144.54 378.445L144.916 378.116L141.195 373.863L140.819 374.192ZM140.819 355.054H140.319V374.192H140.819H141.319V355.054H140.819ZM116.364 355.054V355.554H140.819V355.054V354.554H116.364V355.054ZM116.364 343.889H115.864V355.054H116.364H116.864V343.889H116.364ZM163.147 223.209V223.709H169.527V223.209V222.709H163.147V223.209ZM163.147 167.282H162.647V223.209H163.147H163.647V167.282H163.147ZM189.197 167.282V166.782H163.147V167.282V167.782H189.197V167.282ZM189.197 131.769H188.697V167.282H189.197H189.697V131.769H189.197ZM205.146 131.769V131.269H189.197V131.769V132.269H205.146V131.769ZM205.146 138.148H205.646V131.769H205.146H204.646V138.148H205.146ZM231.727 138.148V137.648H205.146V138.148V138.648H231.727V138.148ZM231.727 112.099H231.227V138.148H231.727H232.227V112.099H231.727ZM240.765 100.934L240.377 100.62L231.339 111.784L231.727 112.099L232.116 112.413L241.154 101.249L240.765 100.934ZM281.701 100.934V100.434H240.765V100.934V101.434H281.701V100.934ZM281.701 141.87H282.201V100.934H281.701H281.201V141.87H281.701ZM299.244 141.87V141.37H281.701V141.87V142.37H299.244V141.87ZM299.244 168.451H299.744V141.87H299.244H298.744V168.451H299.244ZM264.157 168.451V168.951H299.244V168.451V167.951H264.157V168.451ZM264.157 196.096H264.657V168.451H264.157H263.657V196.096H264.157ZM256.714 196.096V196.596H264.157V196.096V195.596H256.714V196.096ZM256.714 182.274H256.214V196.096H256.714H257.214V182.274H256.714ZM213.12 182.274V182.774H256.714V182.274V181.774H213.12V182.274ZM213.12 194.501H213.62V182.274H213.12H212.62V194.501H213.12ZM222.945 204.602L223.304 204.254L213.479 194.153L213.12 194.501L212.762 194.85L222.587 204.951L222.945 204.602ZM222.945 211.513H223.445V204.602H222.945H222.445V211.513H222.945ZM201.425 211.513V212.013H222.945V211.513V211.013H201.425V211.513ZM201.425 223.209H201.925V211.513H201.425H200.925V223.209H201.425ZM198.235 223.209V223.709H201.425V223.209V222.709H198.235V223.209ZM198.235 207.792H197.735V223.209H198.235H198.735V207.792H198.235ZM169.527 207.792V208.292H198.235V207.792V207.292H169.527V207.792ZM169.527 223.209H170.027V207.792H169.527H169.027V223.209H169.527ZM92.4403 110.504H91.9403V134.959H92.4403H92.9403V110.504H92.4403ZM104.136 110.504V110.004H92.4403V110.504V111.004H104.136V110.504ZM104.136 102.529H103.636V110.504H104.136H104.636V102.529H104.136ZM119.022 102.529V102.029H104.136V102.529V103.029H119.022V102.529ZM119.022 131.769H119.522V102.529H119.022H118.522V131.769H119.022ZM173.954 131.769V131.269H119.022V131.769V132.269H173.954V131.769ZM173.954 156.224H174.454V131.769H173.954H173.454V156.224H173.954ZM146.135 156.224V156.724H173.954V156.224V155.724H146.135V156.224ZM146.135 180.147H146.635V156.224H146.135H145.635V180.147H146.135ZM114.769 180.147V180.647H146.135V180.147V179.647H114.769V180.147ZM114.769 134.959H114.269V180.147H114.769H115.269V134.959H114.769ZM92.4403 134.959V135.459H114.769V134.959V134.459H92.4403V134.959ZM40.8722 168.983V169.483H78.0863V168.983V168.483H40.8722V168.983ZM40.8722 186.527H41.3722V168.983H40.8722H40.3722V186.527H40.8722ZM78.0863 186.527L78.0792 186.027C71.8778 186.115 62.5761 186.222 54.8255 186.253C50.9497 186.268 47.4644 186.265 44.9492 186.231C43.6906 186.214 42.6801 186.19 41.9863 186.157C41.6376 186.14 41.3789 186.122 41.2117 186.102C41.1248 186.092 41.0809 186.084 41.0666 186.08C41.0554 186.077 41.0829 186.083 41.1236 186.104C41.1435 186.115 41.193 186.142 41.2431 186.196C41.2962 186.254 41.3722 186.366 41.3722 186.527H40.8722H40.3722C40.3722 186.694 40.4512 186.813 40.5104 186.877C40.5665 186.937 40.625 186.972 40.6568 186.988C40.7215 187.023 40.7848 187.04 40.8209 187.049C40.9012 187.07 40.9982 187.084 41.0961 187.095C41.2983 187.119 41.5847 187.139 41.9386 187.156C42.6501 187.19 43.6747 187.214 44.9358 187.231C47.46 187.265 50.9523 187.268 54.8295 187.253C62.5848 187.222 71.8902 187.115 78.0935 187.027L78.0863 186.527ZM78.0863 168.983H77.5863V186.527H78.0863H78.5863V168.983H78.0863ZM115.832 329.004H116.332V288.068H115.832H115.332V329.004H115.832ZM122.743 329.004V328.504H115.832V329.004V329.504H122.743V329.004ZM122.743 288.6H122.243V329.004H122.743H123.243V288.6H122.743ZM188.665 288.6V288.1H122.743V288.6V289.1H188.665V288.6ZM188.665 303.485H189.165V288.6H188.665H188.165V303.485H188.665ZM191.324 303.485V302.985H188.665V303.485V303.985H191.324V303.485ZM191.324 264.145H190.824V303.485H191.324H191.824V264.145H191.324ZM201.425 264.145V263.645H191.324V264.145V264.645H201.425V264.145ZM201.425 239.69H200.925V264.145H201.425H201.925V239.69H201.425ZM163.679 239.69V240.19H201.425V239.69V239.19H163.679V239.69ZM145.603 257.765L145.957 258.119L164.032 240.043L163.679 239.69L163.325 239.336L145.25 257.412L145.603 257.765ZM132.844 257.765V258.265H145.603V257.765V257.265H132.844V257.765ZM132.844 225.336H132.344V257.765H132.844H133.344V225.336H132.844ZM96.1617 225.336V225.836H132.844V225.336V224.836H96.1617V225.336ZM85.5291 214.172L85.1671 214.516L95.7997 225.681L96.1617 225.336L96.5238 224.991L85.8912 213.827L85.5291 214.172ZM40.8722 214.172V214.672H85.5291V214.172V213.672H40.8722V214.172ZM40.8722 245.006H41.3722V214.172H40.8722H40.3722V245.006H40.8722ZM99.3515 245.006V244.506H40.8722V245.006V245.506H99.3515V245.006ZM99.3515 281.157H99.8515V245.006H99.3515H98.8515V281.157H99.3515ZM96.6934 281.157V281.657H99.3515V281.157V280.657H96.6934V281.157ZM96.6934 288.068H97.1934V281.157H96.6934H96.1934V288.068H96.6934ZM115.832 288.068V287.568H96.6934V288.068V288.568H115.832V288.068Z" fill="#B27C40"/>
<path d="M339.117 248.196H327.421" stroke="#B27C40"/>
<path d="M283.296 197.159H277.979V200.881V201.412M277.979 201.412H277.448V210.45M277.979 201.412H283.296M350.813 170.578H358.256M358.256 170.578V163.135M358.256 170.578H366.23V163.135H358.256M358.256 131.769V163.135" stroke="#B27C40" stroke-width="0.5"/>
<path d="M366.23 213.64V229.057H358.255M425.772 308.27H417.798V315.713M425.241 319.966H417.798V315.713M425.241 315.713H417.798" stroke="#B27C40"/>
<path d="M425.241 328.472H420.988V345.749H425.241M425.241 355.054H417.798V359.838M304.029 334.32V342.826H311.472M318.915 334.32V342.826H311.472M311.472 342.826V334.32" stroke="#B27C40"/>
<path d="M343.901 131.769V137.085H344.965V131.769M417.798 134.959V142.933H425.241V134.959M435.342 151.971V166.856H442.785V151.971H435.342Z" stroke="#B27C40"/>
<path d="M294.991 210.45H299.776M294.991 217.361H305.624V210.45H299.776M299.776 210.45V206.197H294.991M294.991 182.805H309.345V183.869H294.991" stroke="#B27C40"/>
<path d="M299.245 153.034H307.219V148.781H299.245M307.751 148.781V141.87H299.245" stroke="#B27C40"/>
<path d="M107.326 151.971H99.8832V158.882H107.326M24.9233 106.251V113.693H28.6448M33.4294 113.693H28.6448M28.6448 113.693V117.946H33.4294M119.022 124.326H126.996V131.769M163.147 201.944H155.173V209.387H163.147M198.235 223.209H181.754M67.9854 377.914H78.618L98.8199 380.572V378.977H108.389V386.951M116.364 355.054H107.326V347.611H116.364M128.06 288.6V329.004H122.212M147.73 288.6V296.043M181.223 288.6V296.043H188.665M239.17 288.068H223.753V281.157H239.17M239.17 268.929H234.386V264.676H239.17M241.297 247.133H232.259V239.69H241.297M223.221 210.45H224.816V211.513H223.221" stroke="#B27C40"/>
<path d="M236.512 210.45H234.917V211.831M236.512 210.45V211.831H234.917M236.512 210.45L234.917 211.831" stroke="#B27C40"/>
<path d="M68.517 245.006V252.981H76.4914V245.006M17.4805 245.538H24.9233V237.563H17.4805" stroke="#B27C40"/>
<path d="M1 206.197H10.0377M10.0377 206.197V214.172M10.0377 206.197V196.096H1M10.0377 206.197H17.4805V214.172" stroke="#B27C40"/>
<path d="M70.1119 186.527V194.501H78.0864V186.527M1 154.629H21.7336V163.667H1M56.8212 168.983V161.54H64.264V168.983M131.781 225.336V207.792H132.844V225.336" stroke="#B27C40"/>
<path d="M36.6192 296.574V294.448H25.4549M25.4549 294.448V296.574M25.4549 294.448V288.6H17.4805M80.2128 288.068V311.991M80.2128 316.245H67.9853M80.2128 316.245V311.991M80.2128 316.245H83.9342V311.991H80.2128" stroke="#B27C40"/>
<path d="M283.046 168.701V210.2H264.407V168.701H283.046Z" stroke="#B27C40" stroke-width="0.5"/>
<path d="M425.773 217.893V280.789M380.584 304.549V288.068M234.917 264.676H224.285V239.158M113.706 194.501H131.781V225.336H96.1619L85.5293 214.172H113.706V194.501Z" stroke="#B27C40" stroke-width="0.5"/>
<path d="M131.781 194.501V188.653H115.3V194.501H107.326V134.959" stroke="#B27C40" stroke-width="0.5"/>
<circle cx="196.108" cy="327.94" r="4.28467" stroke="#B27C40"/>
<circle cx="201.956" cy="329.535" r="1.87652" stroke="#B27C40" stroke-width="0.5"/>
<circle cx="79.1496" cy="247.133" r="2.40815" stroke="#B27C40" stroke-width="0.5"/>
<path d="M40.3406 135.49H48.8467V145.984H40.3406V135.49Z" fill="#F08234" fill-opacity="0.2"/>
<path d="M78.6179 168.451H107.062V175.09H78.6179V168.451Z" fill="#F08234" fill-opacity="0.2"/>
<path d="M107.326 151.439H99.3516V159.414H107.326V168.451H64.7959V161.009H56.2891V168.451H48.8467V135.49H107.326V151.439Z" fill="#F08234" fill-opacity="0.2"/>
<path d="M70.9009 162.971V154.971H73.9634C74.5415 154.971 75.022 155.062 75.4048 155.244C75.7902 155.424 76.078 155.67 76.2681 155.983C76.4608 156.295 76.5571 156.649 76.5571 157.045C76.5571 157.371 76.4946 157.649 76.3696 157.881C76.2446 158.11 76.0767 158.296 75.8657 158.44C75.6548 158.583 75.4191 158.686 75.1587 158.748V158.826C75.4425 158.842 75.7147 158.929 75.9751 159.088C76.2381 159.244 76.453 159.466 76.6196 159.752C76.7863 160.039 76.8696 160.385 76.8696 160.791C76.8696 161.205 76.7694 161.578 76.5688 161.908C76.3683 162.236 76.0662 162.496 75.6626 162.686C75.259 162.876 74.7511 162.971 74.1392 162.971H70.9009ZM72.3501 161.76H73.9087C74.4347 161.76 74.8136 161.66 75.0454 161.459C75.2798 161.256 75.397 160.996 75.397 160.678C75.397 160.441 75.3384 160.227 75.2212 160.037C75.104 159.845 74.9373 159.693 74.7212 159.584C74.505 159.472 74.2472 159.416 73.9478 159.416H72.3501V161.76ZM72.3501 158.373H73.7837C74.0337 158.373 74.259 158.328 74.4595 158.236C74.66 158.143 74.8175 158.011 74.9321 157.842C75.0493 157.67 75.1079 157.467 75.1079 157.233C75.1079 156.923 74.9985 156.667 74.7798 156.467C74.5636 156.266 74.242 156.166 73.8149 156.166H72.3501V158.373Z" fill="white"/>
<path d="M425.772 113.693H465.645V129.642H425.772V113.693Z" fill="#F08234" fill-opacity="0.23"/>
<path d="M463.655 189.185H425.596V189.184L433.215 189.152L425.596 183.843V182.805H412.662V189.185H412.619V135.49H417.266V143.465H425.773V129.642H463.655V189.185ZM434.81 167.388H443.316V151.439H434.81V167.388Z" fill="#F08234" fill-opacity="0.23"/>
<path d="M465.645 204.071H455.544L434.81 189.185H465.645V204.071Z" fill="#F08234" fill-opacity="0.23"/>
<path d="M444.069 140.642H442.522L445.339 132.642H447.128L449.948 140.642H448.401L446.265 134.283H446.202L444.069 140.642ZM444.12 137.506H448.339V138.67H444.12V137.506Z" fill="white"/>
</svg>
