<svg width="467" height="473" viewBox="0 0 467 473" fill="none" xmlns="http://www.w3.org/2000/svg">
<path fill-rule="evenodd" clip-rule="evenodd" d="M449.696 176.426V258.828H466.176V366.749H433.747V338.041H389.09V362.496H393.343V386.951H327.421V360.901H262.03V455H222.69V389.078H151.451V416.191H56.821V388.015H78.6179V384.825H75.4281V377.382H29.7079V359.838H0.999878V342.826H3.1264V284.347H0.999878V268.398H11.6325L41.4038 289.663H76.4914V238.627H65.3271V255.107H33.9609V192.906H19.0753V164.73H41.9354V112.877H134.971V75.4161H218.968V18H237.575L252.461 19.0633V20.6582L271.6 19.0633V20.6582H283.296V71.6946H281.169V77.229H288.612V73.2896H358.787V86.0487H399.191V184.932H386.963V191.843H414.077V176.426H449.696ZM172.716 372.066V364.091H123.275V341.231H103.605V362.496H99.8831L94.5668 368.876V384.825H91.3771V388.015H116.895V398.116H119.821V372.066H172.716ZM74.3649 364.091V338.041H41.9354V364.091H74.3649ZM128.06 315.181L140.819 291.258V289.131H133.376V272.651L138.692 262.018V241.816H108.921V259.36H93.5036V274.246H116.364V310.928L122.212 323.687H123.275V315.181H128.06ZM225.879 256.702V208.324H228.006V184.932H187.602V191.843H174.311V162.072H103.073V184.932H71.7067V181.21H69.5802V192.906H62.1374V215.766H69.5802L84.9975 199.818H108.921V224.804H128.06V208.855H159.957L172.185 221.083V290.195H183.881V262.55H230.664V259.36C230.295 257.964 229.886 257.337 228.538 256.702H225.879ZM350.813 129.111H319.978V153.034H305.624V136.554H278.511V153.034H275.853V140.807H228.006V168.451H187.602V145.06H86.5924V168.451H71.7067V172.173H69.5802V161.54H77.5547V138.68H173.248V96.6813H218.968V108.377H229.601V94.5547H322.636L326.358 98.8078V117.946H350.813V129.111ZM297.65 249.791H304.029V305.718H277.979V341.231H262.03V334.852H235.449V360.901L226.411 372.066H185.476V331.13H167.932V304.549H203.019V276.904H210.462V290.726H254.056V278.499L244.231 268.398V261.487H265.752V249.791H268.942V265.208H297.65V249.791ZM374.736 338.041V362.496H363.04V370.471H348.154V341.231H293.223V316.776H321.041V292.853H352.407V338.041H374.736ZM389.09 304.017H426.304V286.473C426.304 286.048 401.495 286.296 389.09 286.473V304.017ZM351.344 184.932V143.996H344.433V184.4H278.511V169.515H275.853V208.855H265.752V233.31H303.497L321.573 215.235H334.332V247.664H371.015L381.647 258.828H426.304V227.994H367.825V191.843H370.483V184.932H351.344Z" fill="#271406"/>
<path d="M449.696 258.828H449.196V259.328H449.696V258.828ZM449.696 176.426H450.196V175.926H449.696V176.426ZM466.176 258.828H466.676V258.328H466.176V258.828ZM466.176 366.749V367.249H466.676V366.749H466.176ZM433.747 366.749H433.247V367.249H433.747V366.749ZM433.747 338.041H434.247V337.541H433.747V338.041ZM389.09 338.041V337.541H388.59V338.041H389.09ZM389.09 362.496H388.59V362.996H389.09V362.496ZM393.343 362.496H393.843V361.996H393.343V362.496ZM393.343 386.951V387.451H393.843V386.951H393.343ZM327.421 386.951H326.921V387.451H327.421V386.951ZM327.421 360.901H327.921V360.401H327.421V360.901ZM262.03 360.901V360.401H261.53V360.901H262.03ZM262.03 455V455.5H262.53V455H262.03ZM222.69 455H222.19V455.5H222.69V455ZM222.69 389.078H223.19V388.578H222.69V389.078ZM151.451 389.078V388.578H150.951V389.078H151.451ZM151.451 416.191V416.691H151.951V416.191H151.451ZM56.821 416.191H56.321V416.691H56.821V416.191ZM56.821 388.015V387.515H56.321V388.015H56.821ZM78.6179 388.015V388.515H79.1179V388.015H78.6179ZM78.6179 384.825H79.1179V384.325H78.6179V384.825ZM75.4281 384.825H74.9281V385.325H75.4281V384.825ZM75.4281 377.382H75.9281V376.882H75.4281V377.382ZM29.7079 377.382H29.2079V377.882H29.7079V377.382ZM29.7079 359.838H30.2079V359.338H29.7079V359.838ZM0.999878 359.838H0.499878V360.338H0.999878V359.838ZM0.999878 342.826V342.326H0.499878V342.826H0.999878ZM3.1264 342.826V343.326H3.6264V342.826H3.1264ZM3.1264 284.347H3.6264V283.847H3.1264V284.347ZM0.999878 284.347H0.499878V284.847H0.999878V284.347ZM0.999878 268.398V267.898H0.499878V268.398H0.999878ZM11.6325 268.398L11.9231 267.991L11.7927 267.898H11.6325V268.398ZM41.4038 289.663L41.1132 290.07L41.2436 290.163H41.4038V289.663ZM76.4914 289.663V290.163H76.9914V289.663H76.4914ZM76.4914 238.627H76.9914V238.127H76.4914V238.627ZM65.3271 238.627V238.127H64.8271V238.627H65.3271ZM65.3271 255.107V255.607H65.8271V255.107H65.3271ZM33.9609 255.107H33.4609V255.607H33.9609V255.107ZM33.9609 192.906H34.4609V192.406H33.9609V192.906ZM19.0753 192.906H18.5753V193.406H19.0753V192.906ZM19.0753 164.73V164.23H18.5753V164.73H19.0753ZM41.9354 164.73V165.23H42.4354V164.73H41.9354ZM41.9354 112.877V112.377H41.4354V112.877H41.9354ZM134.971 112.877V113.377H135.471V112.877H134.971ZM134.971 75.4161V74.9161H134.471V75.4161H134.971ZM218.968 75.4161V75.9161H219.468V75.4161H218.968ZM218.968 18V17.5H218.468V18H218.968ZM237.575 18L237.611 17.5013L237.593 17.5H237.575V18ZM252.461 19.0633H252.961V18.5977L252.497 18.5645L252.461 19.0633ZM252.461 20.6582H251.961V21.2016L252.502 21.1564L252.461 20.6582ZM271.6 19.0633H272.1V18.5199L271.558 18.565L271.6 19.0633ZM271.6 20.6582H271.1V21.1582H271.6V20.6582ZM283.296 20.6582H283.796V20.1582H283.296V20.6582ZM283.296 71.6946V72.1946H283.796V71.6946H283.296ZM281.169 71.6946V71.1946H280.669V71.6946H281.169ZM281.169 77.229H280.669V77.729H281.169V77.229ZM288.612 77.229V77.729H289.112V77.229H288.612ZM288.612 73.2896V72.7896H288.112V73.2896H288.612ZM358.787 73.2896H359.287V72.7896H358.787V73.2896ZM358.787 86.0487H358.287V86.5487H358.787V86.0487ZM399.191 86.0487H399.691V85.5487H399.191V86.0487ZM399.191 184.932V185.432H399.691V184.932H399.191ZM386.963 184.932V184.432H386.463V184.932H386.963ZM386.963 191.843H386.463V192.343H386.963V191.843ZM414.077 191.843V192.343H414.577V191.843H414.077ZM414.077 176.426V175.926H413.577V176.426H414.077ZM172.716 364.091H173.216V363.591H172.716V364.091ZM172.716 372.066V372.566H173.216V372.066H172.716ZM123.275 364.091H122.775V364.591H123.275V364.091ZM123.275 341.231H123.775V340.731H123.275V341.231ZM103.605 341.231V340.731H103.105V341.231H103.605ZM103.605 362.496V362.996H104.105V362.496H103.605ZM99.8831 362.496V361.996H99.649L99.499 362.176L99.8831 362.496ZM94.5668 368.876L94.1827 368.556L94.0668 368.695V368.876H94.5668ZM94.5668 384.825V385.325H95.0668V384.825H94.5668ZM91.3771 384.825V384.325H90.8771V384.825H91.3771ZM91.3771 388.015H90.8771V388.515H91.3771V388.015ZM116.895 388.015H117.395V387.515H116.895V388.015ZM116.895 398.116H116.395V398.616H116.895V398.116ZM119.821 398.116V398.616H120.321V398.116H119.821ZM119.821 372.066V371.566H119.321V372.066H119.821ZM74.3649 338.041H74.8649V337.541H74.3649V338.041ZM74.3649 364.091V364.591H74.8649V364.091H74.3649ZM41.9354 338.041V337.541H41.4354V338.041H41.9354ZM41.9354 364.091H41.4354V364.591H41.9354V364.091ZM140.819 291.258L141.26 291.493L141.319 291.383V291.258H140.819ZM128.06 315.181V315.681H128.36L128.501 315.417L128.06 315.181ZM140.819 289.131H141.319V288.631H140.819V289.131ZM133.376 289.131H132.876V289.631H133.376V289.131ZM133.376 272.651L132.929 272.427L132.876 272.533V272.651H133.376ZM138.692 262.018L139.139 262.242L139.192 262.136V262.018H138.692ZM138.692 241.816H139.192V241.316H138.692V241.816ZM108.921 241.816V241.316H108.421V241.816H108.921ZM108.921 259.36V259.86H109.421V259.36H108.921ZM93.5036 259.36V258.86H93.0036V259.36H93.5036ZM93.5036 274.246H93.0036V274.746H93.5036V274.246ZM116.364 274.246H116.864V273.746H116.364V274.246ZM116.364 310.928H115.864V311.037L115.909 311.137L116.364 310.928ZM122.212 323.687L121.757 323.896L121.891 324.187H122.212V323.687ZM123.275 323.687V324.187H123.775V323.687H123.275ZM123.275 315.181V314.681H122.775V315.181H123.275ZM225.879 208.324V207.824H225.379V208.324H225.879ZM225.879 256.702H225.379V257.202H225.879V256.702ZM228.006 208.324V208.824H228.506V208.324H228.006ZM228.006 184.932H228.506V184.432H228.006V184.932ZM187.602 184.932V184.432H187.102V184.932H187.602ZM187.602 191.843V192.343H188.102V191.843H187.602ZM174.311 191.843H173.811V192.343H174.311V191.843ZM174.311 162.072H174.811V161.572H174.311V162.072ZM103.073 162.072V161.572H102.573V162.072H103.073ZM103.073 184.932V185.432H103.573V184.932H103.073ZM71.7067 184.932H71.2067V185.432H71.7067V184.932ZM71.7067 181.21H72.2067V180.71H71.7067V181.21ZM69.5802 181.21V180.71H69.0802V181.21H69.5802ZM69.5802 192.906V193.406H70.0802V192.906H69.5802ZM62.1374 192.906V192.406H61.6374V192.906H62.1374ZM62.1374 215.766H61.6374V216.266H62.1374V215.766ZM69.5802 215.766V216.266H69.7923L69.9397 216.114L69.5802 215.766ZM84.9975 199.818V199.318H84.7854L84.638 199.47L84.9975 199.818ZM108.921 199.818H109.421V199.318H108.921V199.818ZM108.921 224.804H108.421V225.304H108.921V224.804ZM128.06 224.804V225.304H128.56V224.804H128.06ZM128.06 208.855V208.355H127.56V208.855H128.06ZM159.957 208.855L160.311 208.502L160.164 208.355H159.957V208.855ZM172.185 221.083H172.685V220.876L172.538 220.729L172.185 221.083ZM172.185 290.195H171.685V290.695H172.185V290.195ZM183.881 290.195V290.695H184.381V290.195H183.881ZM183.881 262.55V262.05H183.381V262.55H183.881ZM230.664 262.55V263.05H231.164V262.55H230.664ZM230.664 259.36H231.164V259.295L231.148 259.232L230.664 259.36ZM228.538 256.702L228.751 256.25L228.649 256.202H228.538V256.702ZM319.978 129.111V128.611H319.478V129.111H319.978ZM350.813 129.111V129.611H351.313V129.111H350.813ZM319.978 153.034V153.534H320.478V153.034H319.978ZM305.624 153.034H305.124V153.534H305.624V153.034ZM305.624 136.554H306.124V136.054H305.624V136.554ZM278.511 136.554V136.054H278.011V136.554H278.511ZM278.511 153.034V153.534H279.011V153.034H278.511ZM275.853 153.034H275.353V153.534H275.853V153.034ZM275.853 140.807H276.353V140.307H275.853V140.807ZM228.006 140.807V140.307H227.506V140.807H228.006ZM228.006 168.451V168.951H228.506V168.451H228.006ZM187.602 168.451H187.102V168.951H187.602V168.451ZM187.602 145.06H188.102V144.56H187.602V145.06ZM86.5924 145.06V144.56H86.0924V145.06H86.5924ZM86.5924 168.451V168.951H87.0924V168.451H86.5924ZM71.7067 168.451V167.951H71.2067V168.451H71.7067ZM71.7067 172.173V172.673H72.2067V172.173H71.7067ZM69.5802 172.173H69.0802V172.673H69.5802V172.173ZM69.5802 161.54V161.04H69.0802V161.54H69.5802ZM77.5547 161.54V162.04H78.0547V161.54H77.5547ZM77.5547 138.68V138.18H77.0547V138.68H77.5547ZM173.248 138.68V139.18H173.748V138.68H173.248ZM173.248 96.6813V96.1813H172.748V96.6813H173.248ZM218.968 96.6813H219.468V96.1813H218.968V96.6813ZM218.968 108.377H218.468V108.877H218.968V108.377ZM229.601 108.377V108.877H230.101V108.377H229.601ZM229.601 94.5547V94.0547H229.101V94.5547H229.601ZM322.636 94.5547L323.012 94.2255L322.863 94.0547H322.636V94.5547ZM326.358 98.8078H326.858V98.6199L326.734 98.4785L326.358 98.8078ZM326.358 117.946H325.858V118.446H326.358V117.946ZM350.813 117.946H351.313V117.446H350.813V117.946ZM304.029 249.791H304.529V249.291H304.029V249.791ZM297.65 249.791V249.291H297.15V249.791H297.65ZM304.029 305.718V306.218H304.529V305.718H304.029ZM277.979 305.718V305.218H277.479V305.718H277.979ZM277.979 341.231V341.731H278.479V341.231H277.979ZM262.03 341.231H261.53V341.731H262.03V341.231ZM262.03 334.852H262.53V334.352H262.03V334.852ZM235.449 334.852V334.352H234.949V334.852H235.449ZM235.449 360.901L235.837 361.216L235.949 361.078V360.901H235.449ZM226.411 372.066V372.566H226.65L226.8 372.38L226.411 372.066ZM185.476 372.066H184.976V372.566H185.476V372.066ZM185.476 331.13H185.976V330.63H185.476V331.13ZM167.932 331.13H167.432V331.63H167.932V331.13ZM167.932 304.549V304.049H167.432V304.549H167.932ZM203.019 304.549V305.049H203.519V304.549H203.019ZM203.019 276.904V276.404H202.519V276.904H203.019ZM210.462 276.904H210.962V276.404H210.462V276.904ZM210.462 290.726H209.962V291.226H210.462V290.726ZM254.056 290.726V291.226H254.556V290.726H254.056ZM254.056 278.499H254.556V278.296L254.414 278.15L254.056 278.499ZM244.231 268.398H243.731V268.601L243.873 268.746L244.231 268.398ZM244.231 261.487V260.987H243.731V261.487H244.231ZM265.752 261.487V261.987H266.252V261.487H265.752ZM265.752 249.791V249.291H265.252V249.791H265.752ZM268.942 249.791H269.442V249.291H268.942V249.791ZM268.942 265.208H268.442V265.708H268.942V265.208ZM297.65 265.208V265.708H298.15V265.208H297.65ZM374.736 362.496V362.996H375.236V362.496H374.736ZM374.736 338.041H375.236V337.541H374.736V338.041ZM363.04 362.496V361.996H362.54V362.496H363.04ZM363.04 370.471V370.971H363.54V370.471H363.04ZM348.154 370.471H347.654V370.971H348.154V370.471ZM348.154 341.231H348.654V340.731H348.154V341.231ZM293.223 341.231H292.723V341.731H293.223V341.231ZM293.223 316.776V316.276H292.723V316.776H293.223ZM321.041 316.776V317.276H321.541V316.776H321.041ZM321.041 292.853V292.353H320.541V292.853H321.041ZM352.407 292.853H352.907V292.353H352.407V292.853ZM352.407 338.041H351.907V338.541H352.407V338.041ZM426.304 304.017V304.517H426.804V304.017H426.304ZM389.09 304.017H388.59V304.517H389.09V304.017ZM389.09 286.473L389.083 285.973L388.59 285.98V286.473H389.09ZM351.344 143.996H351.844V143.496H351.344V143.996ZM351.344 184.932H350.844V185.432H351.344V184.932ZM344.433 143.996V143.496H343.933V143.996H344.433ZM344.433 184.4V184.9H344.933V184.4H344.433ZM278.511 184.4H278.011V184.9H278.511V184.4ZM278.511 169.515H279.011V169.015H278.511V169.515ZM275.853 169.515V169.015H275.353V169.515H275.853ZM275.853 208.855V209.355H276.353V208.855H275.853ZM265.752 208.855V208.355H265.252V208.855H265.752ZM265.752 233.31H265.252V233.81H265.752V233.31ZM303.497 233.31V233.81H303.705L303.851 233.664L303.497 233.31ZM321.573 215.235V214.735H321.366L321.219 214.881L321.573 215.235ZM334.332 215.235H334.832V214.735H334.332V215.235ZM334.332 247.664H333.832V248.164H334.332V247.664ZM371.015 247.664L371.377 247.319L371.229 247.164H371.015V247.664ZM381.647 258.828L381.285 259.173L381.433 259.328H381.647V258.828ZM426.304 258.828V259.328H426.804V258.828H426.304ZM426.304 227.994H426.804V227.494H426.304V227.994ZM367.825 227.994H367.325V228.494H367.825V227.994ZM367.825 191.843V191.343H367.325V191.843H367.825ZM370.483 191.843V192.343H370.983V191.843H370.483ZM370.483 184.932H370.983V184.432H370.483V184.932ZM449.696 258.828H450.196V176.426H449.696H449.196V258.828H449.696ZM466.176 258.828V258.328H449.696V258.828V259.328H466.176V258.828ZM466.176 366.749H466.676V258.828H466.176H465.676V366.749H466.176ZM433.747 366.749V367.249H466.176V366.749V366.249H433.747V366.749ZM433.747 338.041H433.247V366.749H433.747H434.247V338.041H433.747ZM389.09 338.041V338.541H433.747V338.041V337.541H389.09V338.041ZM389.09 362.496H389.59V338.041H389.09H388.59V362.496H389.09ZM393.343 362.496V361.996H389.09V362.496V362.996H393.343V362.496ZM393.343 386.951H393.843V362.496H393.343H392.843V386.951H393.343ZM327.421 386.951V387.451H393.343V386.951V386.451H327.421V386.951ZM327.421 360.901H326.921V386.951H327.421H327.921V360.901H327.421ZM262.03 360.901V361.401H327.421V360.901V360.401H262.03V360.901ZM262.03 455H262.53V360.901H262.03H261.53V455H262.03ZM222.69 455V455.5H262.03V455V454.5H222.69V455ZM222.69 389.078H222.19V455H222.69H223.19V389.078H222.69ZM151.451 389.078V389.578H222.69V389.078V388.578H151.451V389.078ZM151.451 416.191H151.951V389.078H151.451H150.951V416.191H151.451ZM56.821 416.191V416.691H151.451V416.191V415.691H56.821V416.191ZM56.821 388.015H56.321V416.191H56.821H57.321V388.015H56.821ZM78.6179 388.015V387.515H56.821V388.015V388.515H78.6179V388.015ZM78.6179 384.825H78.1179V388.015H78.6179H79.1179V384.825H78.6179ZM75.4281 384.825V385.325H78.6179V384.825V384.325H75.4281V384.825ZM75.4281 377.382H74.9281V384.825H75.4281H75.9281V377.382H75.4281ZM29.7079 377.382V377.882H75.4281V377.382V376.882H29.7079V377.382ZM29.7079 359.838H29.2079V377.382H29.7079H30.2079V359.838H29.7079ZM0.999878 359.838V360.338H29.7079V359.838V359.338H0.999878V359.838ZM0.999878 342.826H0.499878V359.838H0.999878H1.49988V342.826H0.999878ZM3.1264 342.826V342.326H0.999878V342.826V343.326H3.1264V342.826ZM3.1264 284.347H2.6264V342.826H3.1264H3.6264V284.347H3.1264ZM0.999878 284.347V284.847H3.1264V284.347V283.847H0.999878V284.347ZM0.999878 268.398H0.499878V284.347H0.999878H1.49988V268.398H0.999878ZM11.6325 268.398V267.898H0.999878V268.398V268.898H11.6325V268.398ZM41.4038 289.663L41.6944 289.256L11.9231 267.991L11.6325 268.398L11.3419 268.805L41.1132 290.07L41.4038 289.663ZM76.4914 289.663V289.163H41.4038V289.663V290.163H76.4914V289.663ZM76.4914 238.627H75.9914V289.663H76.4914H76.9914V238.627H76.4914ZM65.3271 238.627V239.127H76.4914V238.627V238.127H65.3271V238.627ZM65.3271 255.107H65.8271V238.627H65.3271H64.8271V255.107H65.3271ZM33.9609 255.107V255.607H65.3271V255.107V254.607H33.9609V255.107ZM33.9609 192.906H33.4609V255.107H33.9609H34.4609V192.906H33.9609ZM19.0753 192.906V193.406H33.9609V192.906V192.406H19.0753V192.906ZM19.0753 164.73H18.5753V192.906H19.0753H19.5753V164.73H19.0753ZM41.9354 164.73V164.23H19.0753V164.73V165.23H41.9354V164.73ZM41.9354 112.877H41.4354V164.73H41.9354H42.4354V112.877H41.9354ZM134.971 112.877V112.377H41.9354V112.877V113.377H134.971V112.877ZM134.971 75.4161H134.471V112.877H134.971H135.471V75.4161H134.971ZM218.968 75.4161V74.9161H134.971V75.4161V75.9161H218.968V75.4161ZM218.968 18H218.468V75.4161H218.968H219.468V18H218.968ZM237.575 18V17.5H218.968V18V18.5H237.575V18ZM252.461 19.0633L252.497 18.5645L237.611 17.5013L237.575 18L237.54 18.4987L252.425 19.562L252.461 19.0633ZM252.461 20.6582H252.961V19.0633H252.461H251.961V20.6582H252.461ZM271.6 19.0633L271.558 18.565L252.419 20.1599L252.461 20.6582L252.502 21.1564L271.641 19.5615L271.6 19.0633ZM271.6 20.6582H272.1V19.0633H271.6H271.1V20.6582H271.6ZM283.296 20.6582V20.1582H271.6V20.6582V21.1582H283.296V20.6582ZM283.296 71.6946H283.796V20.6582H283.296H282.796V71.6946H283.296ZM281.169 71.6946V72.1946H283.296V71.6946V71.1946H281.169V71.6946ZM281.169 77.229H281.669V71.6946H281.169H280.669V77.229H281.169ZM288.612 77.229V76.729H281.169V77.229V77.729H288.612V77.229ZM288.612 73.2896H288.112V77.229H288.612H289.112V73.2896H288.612ZM358.787 73.2896V72.7896H288.612V73.2896V73.7896H358.787V73.2896ZM358.787 86.0487H359.287V73.2896H358.787H358.287V86.0487H358.787ZM399.191 86.0487V85.5487H358.787V86.0487V86.5487H399.191V86.0487ZM399.191 184.932H399.691V86.0487H399.191H398.691V184.932H399.191ZM386.963 184.932V185.432H399.191V184.932V184.432H386.963V184.932ZM386.963 191.843H387.463V184.932H386.963H386.463V191.843H386.963ZM414.077 191.843V191.343H386.963V191.843V192.343H414.077V191.843ZM414.077 176.426H413.577V191.843H414.077H414.577V176.426H414.077ZM449.696 176.426V175.926H414.077V176.426V176.926H449.696V176.426ZM172.716 364.091H172.216V372.066H172.716H173.216V364.091H172.716ZM123.275 364.091V364.591H172.716V364.091V363.591H123.275V364.091ZM123.275 341.231H122.775V364.091H123.275H123.775V341.231H123.275ZM103.605 341.231V341.731H123.275V341.231V340.731H103.605V341.231ZM103.605 362.496H104.105V341.231H103.605H103.105V362.496H103.605ZM99.8831 362.496V362.996H103.605V362.496V361.996H99.8831V362.496ZM94.5668 368.876L94.951 369.196L100.267 362.816L99.8831 362.496L99.499 362.176L94.1827 368.556L94.5668 368.876ZM94.5668 384.825H95.0668V368.876H94.5668H94.0668V384.825H94.5668ZM91.3771 384.825V385.325H94.5668V384.825V384.325H91.3771V384.825ZM91.3771 388.015H91.8771V384.825H91.3771H90.8771V388.015H91.3771ZM116.895 388.015V387.515H91.3771V388.015V388.515H116.895V388.015ZM116.895 398.116H117.395V388.015H116.895H116.395V398.116H116.895ZM119.821 398.116V397.616H116.895V398.116V398.616H119.821V398.116ZM119.821 372.066H119.321V398.116H119.821H120.321V372.066H119.821ZM172.716 372.066V371.566H119.821V372.066V372.566H172.716V372.066ZM74.3649 338.041H73.8649V364.091H74.3649H74.8649V338.041H74.3649ZM41.9354 338.041V338.541H74.3649V338.041V337.541H41.9354V338.041ZM41.9354 364.091H42.4354V338.041H41.9354H41.4354V364.091H41.9354ZM74.3649 364.091V363.591H41.9354V364.091V364.591H74.3649V364.091ZM140.819 291.258L140.378 291.023L127.618 314.946L128.06 315.181L128.501 315.417L141.26 291.493L140.819 291.258ZM140.819 289.131H140.319V291.258H140.819H141.319V289.131H140.819ZM133.376 289.131V289.631H140.819V289.131V288.631H133.376V289.131ZM133.376 272.651H132.876V289.131H133.376H133.876V272.651H133.376ZM138.692 262.018L138.245 261.795L132.929 272.427L133.376 272.651L133.823 272.874L139.139 262.242L138.692 262.018ZM138.692 241.816H138.192V262.018H138.692H139.192V241.816H138.692ZM108.921 241.816V242.316H138.692V241.816V241.316H108.921V241.816ZM108.921 259.36H109.421V241.816H108.921H108.421V259.36H108.921ZM93.5036 259.36V259.86H108.921V259.36V258.86H93.5036V259.36ZM93.5036 274.246H94.0036V259.36H93.5036H93.0036V274.246H93.5036ZM116.364 274.246V273.746H93.5036V274.246V274.746H116.364V274.246ZM116.364 310.928H116.864V274.246H116.364H115.864V310.928H116.364ZM122.212 323.687L122.666 323.479L116.818 310.72L116.364 310.928L115.909 311.137L121.757 323.896L122.212 323.687ZM123.275 323.687V323.187H122.212V323.687V324.187H123.275V323.687ZM123.275 315.181H122.775V323.687H123.275H123.775V315.181H123.275ZM128.06 315.181V314.681H123.275V315.181V315.681H128.06V315.181ZM225.879 208.324H225.379V256.702H225.879H226.379V208.324H225.879ZM228.006 208.324V207.824H225.879V208.324V208.824H228.006V208.324ZM228.006 184.932H227.506V208.324H228.006H228.506V184.932H228.006ZM187.602 184.932V185.432H228.006V184.932V184.432H187.602V184.932ZM187.602 191.843H188.102V184.932H187.602H187.102V191.843H187.602ZM174.311 191.843V192.343H187.602V191.843V191.343H174.311V191.843ZM174.311 162.072H173.811V191.843H174.311H174.811V162.072H174.311ZM103.073 162.072V162.572H174.311V162.072V161.572H103.073V162.072ZM103.073 184.932H103.573V162.072H103.073H102.573V184.932H103.073ZM71.7067 184.932V185.432H103.073V184.932V184.432H71.7067V184.932ZM71.7067 181.21H71.2067V184.932H71.7067H72.2067V181.21H71.7067ZM69.5802 181.21V181.71H71.7067V181.21V180.71H69.5802V181.21ZM69.5802 192.906H70.0802V181.21H69.5802H69.0802V192.906H69.5802ZM62.1374 192.906V193.406H69.5802V192.906V192.406H62.1374V192.906ZM62.1374 215.766H62.6374V192.906H62.1374H61.6374V215.766H62.1374ZM69.5802 215.766V215.266H62.1374V215.766V216.266H69.5802V215.766ZM84.9975 199.818L84.638 199.47L69.2207 215.419L69.5802 215.766L69.9397 216.114L85.357 200.165L84.9975 199.818ZM108.921 199.818V199.318H84.9975V199.818V200.318H108.921V199.818ZM108.921 224.804H109.421V199.818H108.921H108.421V224.804H108.921ZM128.06 224.804V224.304H108.921V224.804V225.304H128.06V224.804ZM128.06 208.855H127.56V224.804H128.06H128.56V208.855H128.06ZM159.957 208.855V208.355H128.06V208.855V209.355H159.957V208.855ZM172.185 221.083L172.538 220.729L160.311 208.502L159.957 208.855L159.604 209.209L171.831 221.436L172.185 221.083ZM172.185 290.195H172.685V221.083H172.185H171.685V290.195H172.185ZM183.881 290.195V289.695H172.185V290.195V290.695H183.881V290.195ZM183.881 262.55H183.381V290.195H183.881H184.381V262.55H183.881ZM230.664 262.55V262.05H183.881V262.55V263.05H230.664V262.55ZM230.664 259.36H230.164V262.55H230.664H231.164V259.36H230.664ZM228.538 256.702L228.325 257.154C228.96 257.454 229.322 257.727 229.572 258.051C229.827 258.381 230.001 258.809 230.181 259.488L230.664 259.36L231.148 259.232C230.958 258.515 230.743 257.931 230.364 257.44C229.98 256.943 229.464 256.585 228.751 256.25L228.538 256.702ZM225.879 256.702V257.202H228.538V256.702V256.202H225.879V256.702ZM319.978 129.111V129.611H350.813V129.111V128.611H319.978V129.111ZM319.978 153.034H320.478V129.111H319.978H319.478V153.034H319.978ZM305.624 153.034V153.534H319.978V153.034V152.534H305.624V153.034ZM305.624 136.554H305.124V153.034H305.624H306.124V136.554H305.624ZM278.511 136.554V137.054H305.624V136.554V136.054H278.511V136.554ZM278.511 153.034H279.011V136.554H278.511H278.011V153.034H278.511ZM275.853 153.034V153.534H278.511V153.034V152.534H275.853V153.034ZM275.853 140.807H275.353V153.034H275.853H276.353V140.807H275.853ZM228.006 140.807V141.307H275.853V140.807V140.307H228.006V140.807ZM228.006 168.451H228.506V140.807H228.006H227.506V168.451H228.006ZM187.602 168.451V168.951H228.006V168.451V167.951H187.602V168.451ZM187.602 145.06H187.102V168.451H187.602H188.102V145.06H187.602ZM86.5924 145.06V145.56H187.602V145.06V144.56H86.5924V145.06ZM86.5924 168.451H87.0924V145.06H86.5924H86.0924V168.451H86.5924ZM71.7067 168.451V168.951H86.5924V168.451V167.951H71.7067V168.451ZM71.7067 172.173H72.2067V168.451H71.7067H71.2067V172.173H71.7067ZM69.5802 172.173V172.673H71.7067V172.173V171.673H69.5802V172.173ZM69.5802 161.54H69.0802V172.173H69.5802H70.0802V161.54H69.5802ZM77.5547 161.54V161.04H69.5802V161.54V162.04H77.5547V161.54ZM77.5547 138.68H77.0547V161.54H77.5547H78.0547V138.68H77.5547ZM173.248 138.68V138.18H77.5547V138.68V139.18H173.248V138.68ZM173.248 96.6813H172.748V138.68H173.248H173.748V96.6813H173.248ZM218.968 96.6813V96.1813H173.248V96.6813V97.1813H218.968V96.6813ZM218.968 108.377H219.468V96.6813H218.968H218.468V108.377H218.968ZM229.601 108.377V107.877H218.968V108.377V108.877H229.601V108.377ZM229.601 94.5547H229.101V108.377H229.601H230.101V94.5547H229.601ZM322.636 94.5547V94.0547H229.601V94.5547V95.0547H322.636V94.5547ZM326.358 98.8078L326.734 98.4785L323.012 94.2255L322.636 94.5547L322.26 94.884L325.981 99.1371L326.358 98.8078ZM326.358 117.946H326.858V98.8078H326.358H325.858V117.946H326.358ZM350.813 117.946V117.446H326.358V117.946V118.446H350.813V117.946ZM350.813 129.111H351.313V117.946H350.813H350.313V129.111H350.813ZM304.029 249.791V249.291H297.65V249.791V250.291H304.029V249.791ZM304.029 305.718H304.529V249.791H304.029H303.529V305.718H304.029ZM277.979 305.718V306.218H304.029V305.718V305.218H277.979V305.718ZM277.979 341.231H278.479V305.718H277.979H277.479V341.231H277.979ZM262.03 341.231V341.731H277.979V341.231V340.731H262.03V341.231ZM262.03 334.852H261.53V341.231H262.03H262.53V334.852H262.03ZM235.449 334.852V335.352H262.03V334.852V334.352H235.449V334.852ZM235.449 360.901H235.949V334.852H235.449H234.949V360.901H235.449ZM226.411 372.066L226.8 372.38L235.837 361.216L235.449 360.901L235.06 360.587L226.022 371.751L226.411 372.066ZM185.476 372.066V372.566H226.411V372.066V371.566H185.476V372.066ZM185.476 331.13H184.976V372.066H185.476H185.976V331.13H185.476ZM167.932 331.13V331.63H185.476V331.13V330.63H167.932V331.13ZM167.932 304.549H167.432V331.13H167.932H168.432V304.549H167.932ZM203.019 304.549V304.049H167.932V304.549V305.049H203.019V304.549ZM203.019 276.904H202.519V304.549H203.019H203.519V276.904H203.019ZM210.462 276.904V276.404H203.019V276.904V277.404H210.462V276.904ZM210.462 290.726H210.962V276.904H210.462H209.962V290.726H210.462ZM254.056 290.726V290.226H210.462V290.726V291.226H254.056V290.726ZM254.056 278.499H253.556V290.726H254.056H254.556V278.499H254.056ZM244.231 268.398L243.873 268.746L253.697 278.847L254.056 278.499L254.414 278.15L244.589 268.049L244.231 268.398ZM244.231 261.487H243.731V268.398H244.231H244.731V261.487H244.231ZM265.752 261.487V260.987H244.231V261.487V261.987H265.752V261.487ZM265.752 249.791H265.252V261.487H265.752H266.252V249.791H265.752ZM268.942 249.791V249.291H265.752V249.791V250.291H268.942V249.791ZM268.942 265.208H269.442V249.791H268.942H268.442V265.208H268.942ZM297.65 265.208V264.708H268.942V265.208V265.708H297.65V265.208ZM297.65 249.791H297.15V265.208H297.65H298.15V249.791H297.65ZM374.736 362.496H375.236V338.041H374.736H374.236V362.496H374.736ZM363.04 362.496V362.996H374.736V362.496V361.996H363.04V362.496ZM363.04 370.471H363.54V362.496H363.04H362.54V370.471H363.04ZM348.154 370.471V370.971H363.04V370.471V369.971H348.154V370.471ZM348.154 341.231H347.654V370.471H348.154H348.654V341.231H348.154ZM293.223 341.231V341.731H348.154V341.231V340.731H293.223V341.231ZM293.223 316.776H292.723V341.231H293.223H293.723V316.776H293.223ZM321.041 316.776V316.276H293.223V316.776V317.276H321.041V316.776ZM321.041 292.853H320.541V316.776H321.041H321.541V292.853H321.041ZM352.407 292.853V292.353H321.041V292.853V293.353H352.407V292.853ZM352.407 338.041H352.907V292.853H352.407H351.907V338.041H352.407ZM374.736 338.041V337.541H352.407V338.041V338.541H374.736V338.041ZM426.304 304.017V303.517H389.09V304.017V304.517H426.304V304.017ZM426.304 286.473H425.804V304.017H426.304H426.804V286.473H426.304ZM389.09 286.473L389.097 286.973C395.299 286.885 404.6 286.778 412.351 286.747C416.227 286.732 419.712 286.735 422.227 286.769C423.486 286.786 424.496 286.81 425.19 286.843C425.539 286.86 425.797 286.878 425.965 286.898C426.052 286.908 426.095 286.916 426.11 286.92C426.121 286.923 426.093 286.917 426.053 286.896C426.033 286.885 425.983 286.858 425.933 286.804C425.88 286.746 425.804 286.634 425.804 286.473H426.304H426.804C426.804 286.306 426.725 286.187 426.666 286.123C426.61 286.063 426.551 286.028 426.519 286.012C426.455 285.977 426.392 285.96 426.355 285.951C426.275 285.93 426.178 285.916 426.08 285.905C425.878 285.881 425.592 285.861 425.238 285.844C424.526 285.81 423.502 285.786 422.24 285.769C419.716 285.735 416.224 285.732 412.347 285.747C404.591 285.778 395.286 285.885 389.083 285.973L389.09 286.473ZM389.09 304.017H389.59V286.473H389.09H388.59V304.017H389.09ZM351.344 143.996H350.844V184.932H351.344H351.844V143.996H351.344ZM344.433 143.996V144.496H351.344V143.996V143.496H344.433V143.996ZM344.433 184.4H344.933V143.996H344.433H343.933V184.4H344.433ZM278.511 184.4V184.9H344.433V184.4V183.9H278.511V184.4ZM278.511 169.515H278.011V184.4H278.511H279.011V169.515H278.511ZM275.853 169.515V170.015H278.511V169.515V169.015H275.853V169.515ZM275.853 208.855H276.353V169.515H275.853H275.353V208.855H275.853ZM265.752 208.855V209.355H275.853V208.855V208.355H265.752V208.855ZM265.752 233.31H266.252V208.855H265.752H265.252V233.31H265.752ZM303.497 233.31V232.81H265.752V233.31V233.81H303.497V233.31ZM321.573 215.235L321.219 214.881L303.144 232.957L303.497 233.31L303.851 233.664L321.926 215.588L321.573 215.235ZM334.332 215.235V214.735H321.573V215.235V215.735H334.332V215.235ZM334.332 247.664H334.832V215.235H334.332H333.832V247.664H334.332ZM371.015 247.664V247.164H334.332V247.664V248.164H371.015V247.664ZM381.647 258.828L382.009 258.484L371.377 247.319L371.015 247.664L370.652 248.009L381.285 259.173L381.647 258.828ZM426.304 258.828V258.328H381.647V258.828V259.328H426.304V258.828ZM426.304 227.994H425.804V258.828H426.304H426.804V227.994H426.304ZM367.825 227.994V228.494H426.304V227.994V227.494H367.825V227.994ZM367.825 191.843H367.325V227.994H367.825H368.325V191.843H367.825ZM370.483 191.843V191.343H367.825V191.843V192.343H370.483V191.843ZM370.483 184.932H369.983V191.843H370.483H370.983V184.932H370.483ZM351.344 184.932V185.432H370.483V184.932V184.432H351.344V184.932Z" fill="#B27C40"/>
<path d="M128.06 224.804H139.755" stroke="#B27C40"/>
<path d="M183.881 275.841H189.197V272.119V271.588M189.197 271.588H189.729V262.55M189.197 271.588H183.881M116.364 302.422H108.921M108.921 302.422V309.865M108.921 302.422H100.946V309.865H108.921M108.921 341.231V309.865" stroke="#B27C40" stroke-width="0.5"/>
<path d="M100.946 259.36V243.943H108.921M41.4039 164.73H49.3783V157.287M41.9355 153.034H49.3783V157.287M41.9355 157.287H49.3783" stroke="#B27C40"/>
<path d="M41.9353 144.528H46.1883V127.251H41.9353M41.9353 117.946H49.3781V113.162M163.147 138.68V130.174H155.704M148.261 138.68V130.174H155.704M155.704 130.174V138.68" stroke="#B27C40"/>
<path d="M123.275 341.231V335.915H122.212V341.231M49.3783 338.041V330.067H41.9355V338.041M31.8345 321.029V306.144H24.3917V321.029H31.8345Z" stroke="#B27C40"/>
<path d="M172.185 262.55H167.4M172.185 255.639H161.552V262.55H167.4M167.4 262.55V266.803H172.185M172.185 290.195H157.831V289.131H172.185" stroke="#B27C40"/>
<path d="M167.932 319.966H159.957V324.219H167.932M159.426 324.219V331.13H167.932" stroke="#B27C40"/>
<path d="M359.85 321.029H367.293V314.118H359.85M442.253 366.749V359.307H438.532M433.747 359.307H438.532M438.532 359.307V355.054H433.747M348.154 348.674H340.18V341.231M304.029 271.056H312.004V263.613H304.029M268.941 249.791H285.422M399.191 95.0863H388.558L368.356 92.4282V94.0231H358.787V86.0486M350.813 117.946H359.85V125.389H350.813M339.117 184.4V143.996H344.965M319.446 184.4V176.957M285.954 184.4V176.957H278.511M228.006 184.932H243.423V191.843H228.006M228.006 204.071H232.791V208.324H228.006M225.879 225.867H234.917V233.31H225.879M243.955 262.55H242.36V261.487H243.955" stroke="#B27C40"/>
<path d="M230.664 262.55H232.259V261.169M230.664 262.55V261.169H232.259M230.664 262.55L232.259 261.169" stroke="#B27C40"/>
<path d="M398.659 227.994V220.019H390.685V227.994M449.696 227.462H442.253V235.437H449.696" stroke="#B27C40"/>
<path d="M466.176 266.803H457.139M457.139 266.803V258.829M457.139 266.803V276.904H466.176M457.139 266.803H449.696V258.829" stroke="#B27C40"/>
<path d="M397.064 286.473V278.499H389.09V286.473M466.176 318.371H445.443V309.333H466.176M410.355 304.017V311.46H402.912V304.017M335.395 247.664V265.208H334.332V247.664" stroke="#B27C40"/>
<path d="M430.557 176.426V178.552H441.721M441.721 178.552V176.426M441.721 178.552V184.4H449.696M386.963 184.932V161.009M386.963 156.755H399.191M386.963 156.755V161.009M386.963 156.755H383.242V161.009H386.963" stroke="#B27C40"/>
<path d="M184.131 304.299V262.8H202.77V304.299H184.131Z" stroke="#B27C40" stroke-width="0.5"/>
<path d="M41.4037 255.107V192.211M86.5922 168.451V184.932M232.259 208.324H242.892V233.842M353.471 278.499H335.395V247.664H371.014L381.647 258.828H353.471V278.499Z" stroke="#B27C40" stroke-width="0.5"/>
<path d="M335.395 278.499V284.347H351.876V278.499H359.85V338.041" stroke="#B27C40" stroke-width="0.5"/>
<circle cx="271.068" cy="145.06" r="4.28467" transform="rotate(180 271.068 145.06)" stroke="#B27C40"/>
<circle cx="265.22" cy="143.465" r="1.87652" transform="rotate(180 265.22 143.465)" stroke="#B27C40" stroke-width="0.5"/>
<circle cx="388.026" cy="225.867" r="2.40815" transform="rotate(180 388.026 225.867)" stroke="#B27C40" stroke-width="0.5"/>
<path d="M426.835 337.51H418.329V327.016H426.835V337.51Z" fill="#F08234" fill-opacity="0.2"/>
<path d="M388.558 304.549H360.114V297.91H388.558V304.549Z" fill="#F08234" fill-opacity="0.2"/>
<path d="M359.85 321.561H367.824V313.586H359.85V304.549H402.38V311.991H410.887V304.549H418.329V337.51H359.85V321.561Z" fill="#F08234" fill-opacity="0.2"/>
<path d="M389.347 318.207V310.207H392.41C392.988 310.207 393.468 310.298 393.851 310.48C394.236 310.66 394.524 310.906 394.714 311.219C394.907 311.531 395.003 311.885 395.003 312.281C395.003 312.607 394.941 312.885 394.816 313.117C394.691 313.346 394.523 313.532 394.312 313.676C394.101 313.819 393.865 313.922 393.605 313.984V314.062C393.889 314.078 394.161 314.165 394.421 314.324C394.684 314.48 394.899 314.702 395.066 314.988C395.233 315.274 395.316 315.621 395.316 316.027C395.316 316.441 395.216 316.814 395.015 317.144C394.815 317.472 394.513 317.732 394.109 317.922C393.705 318.112 393.197 318.207 392.585 318.207H389.347ZM390.796 316.996H392.355C392.881 316.996 393.26 316.896 393.492 316.695C393.726 316.492 393.843 316.232 393.843 315.914C393.843 315.677 393.785 315.463 393.667 315.273C393.55 315.08 393.384 314.929 393.167 314.82C392.951 314.708 392.694 314.652 392.394 314.652H390.796V316.996ZM390.796 313.609H392.23C392.48 313.609 392.705 313.564 392.906 313.472C393.106 313.379 393.264 313.247 393.378 313.078C393.496 312.906 393.554 312.703 393.554 312.469C393.554 312.159 393.445 311.903 393.226 311.703C393.01 311.502 392.688 311.402 392.261 311.402H390.796V313.609Z" fill="white"/>
<path d="M41.4038 359.307H1.53156V343.358H41.4038V359.307Z" fill="#F08234" fill-opacity="0.23"/>
<path d="M3.52148 283.815H41.5801V283.816L33.9609 283.848L41.5801 289.157V290.195H54.5146V283.815H54.5576V337.51H49.9102V329.535H41.4033V343.358H3.52148V283.815ZM32.3662 305.612H23.8604V321.561H32.3662V305.612Z" fill="#F08234" fill-opacity="0.23"/>
<path d="M1.53125 268.929H11.6328L32.3662 283.815H1.53125V268.929Z" fill="#F08234" fill-opacity="0.23"/>
<path d="M23.1069 340.535H24.6538L21.8374 332.535H20.0483L17.228 340.535H18.7749L20.9116 334.176H20.9741L23.1069 340.535ZM23.0562 337.399H18.8374V338.563H23.0562V337.399Z" fill="white"/>
</svg>
