<svg width="416" height="473" viewBox="0 0 416 473" fill="none" xmlns="http://www.w3.org/2000/svg">
<mask id="path-1-outside-1_301_20" maskUnits="userSpaceOnUse" x="0.535156" y="16" width="415" height="440" fill="black">
<rect fill="white" x="0.535156" y="16" width="415" height="440"/>
<path d="M202.362 19.0713C214.949 23.8626 221.994 26.2215 234.495 27.6396H274.66V79.0518L278.678 82.7998H359.811C368.292 85.447 371.341 88.3005 372.664 96.7246V112.255H357.133V125.107H361.953V127.25L369.986 135.283H372.664V140.639H385.517V138.496H414.436V181.875H400.512V194.894H414.436V251.495H370.521L364.096 245.068V237.571H351.242V307.191H295.546V334.504H310.006V362.352L253.774 418.583L253.622 454.465H190.045V362.888H134.885V363.958H121.496L113.463 355.926V341.466L117.747 336.646L113.998 332.897L111.32 335.039H85.0791V300.229H72.2266V314.41H6.35547V278.272H19.208V265.419H1.53516V236.5H15.459V209.723H1.53516V166.88H47.0557V160.453H36.3447V137.961C38.2332 129.664 40.4439 126.298 48.6631 125.107H148.272V104.758H134.349V57.0947L139.169 44.7773L153.628 32.46L156.842 25.4971C163.135 24.6854 166.651 24.0496 172.908 22.2842H181.477L186.832 18L202.362 19.0713ZM260.236 278.843V294.143L248.734 306.691H162.458V335.004H218.464V388.022H226.426V383.737H253.445L253.592 383.591L273.942 363.241L274.089 363.095V278.843H260.236ZM141.347 223.146V250.995H72.501L68.8994 245.336L68.6523 244.948L68.2451 245.161L56.999 251.052L56.5801 251.271L56.7764 251.702L59.2773 257.205L58.0244 258.041L57.8018 258.189V264.919H40.665V278.772H127.422V318.23L125.073 320.579L125.427 320.934L130.064 325.571L134.849 320.787V278.772H191.08V264.919H162.696V223.146H141.347ZM218.464 226.896V289.482H232.316V278.843H225.354V237H232.853V226.896H218.464ZM218.464 153.526V166.915H215.251V181.304H218.464V198.684L218.61 198.83L228.785 209.006L228.932 209.152H253.274V250.995H246.312V264.848H274.089V263.241H309.506V278.772H323.358V250.995H309.506V252.602H281.587V153.526H218.464ZM68.5127 159.953V167.38H86.1855V232.716H93.0762V159.953H68.5127ZM29.9541 195.299V223.076H33.6318V216.114H54.0537V223.076H58.2666V195.299H29.9541ZM372.163 165.309V209.25L322.323 209.223H322.321L310.004 209.251L307.87 209.223H307.831L307.793 209.228C305.797 209.513 304.335 210.422 303.38 211.694C302.431 212.957 302.008 214.543 302.008 216.149C302.008 218.307 302.568 219.914 303.612 221.053C304.651 222.186 306.111 222.791 307.781 223.069L307.822 223.076H386.017V165.309H372.163ZM106.536 139.067V195.477L106.689 195.624L120.613 209.013L120.759 209.152H163.518V204.72H162.696V181.304H194.294V166.915H134.849V139.067H106.536ZM263.984 111.755V125.607H294.808L309.506 139.779V163.702H302.008V170.593H309.506V181.304H322.823V153.456H330.32V125.607H331.927V111.755H263.984ZM162.768 76.4092V138.996H176.621V132.569H246.241V76.4092H232.388V90.333H176.621V76.4092H162.768Z"/>
</mask>
<path d="M202.362 19.0713C214.949 23.8626 221.994 26.2215 234.495 27.6396H274.66V79.0518L278.678 82.7998H359.811C368.292 85.447 371.341 88.3005 372.664 96.7246V112.255H357.133V125.107H361.953V127.25L369.986 135.283H372.664V140.639H385.517V138.496H414.436V181.875H400.512V194.894H414.436V251.495H370.521L364.096 245.068V237.571H351.242V307.191H295.546V334.504H310.006V362.352L253.774 418.583L253.622 454.465H190.045V362.888H134.885V363.958H121.496L113.463 355.926V341.466L117.747 336.646L113.998 332.897L111.32 335.039H85.0791V300.229H72.2266V314.41H6.35547V278.272H19.208V265.419H1.53516V236.5H15.459V209.723H1.53516V166.88H47.0557V160.453H36.3447V137.961C38.2332 129.664 40.4439 126.298 48.6631 125.107H148.272V104.758H134.349V57.0947L139.169 44.7773L153.628 32.46L156.842 25.4971C163.135 24.6854 166.651 24.0496 172.908 22.2842H181.477L186.832 18L202.362 19.0713ZM260.236 278.843V294.143L248.734 306.691H162.458V335.004H218.464V388.022H226.426V383.737H253.445L253.592 383.591L273.942 363.241L274.089 363.095V278.843H260.236ZM141.347 223.146V250.995H72.501L68.8994 245.336L68.6523 244.948L68.2451 245.161L56.999 251.052L56.5801 251.271L56.7764 251.702L59.2773 257.205L58.0244 258.041L57.8018 258.189V264.919H40.665V278.772H127.422V318.23L125.073 320.579L125.427 320.934L130.064 325.571L134.849 320.787V278.772H191.08V264.919H162.696V223.146H141.347ZM218.464 226.896V289.482H232.316V278.843H225.354V237H232.853V226.896H218.464ZM218.464 153.526V166.915H215.251V181.304H218.464V198.684L218.61 198.83L228.785 209.006L228.932 209.152H253.274V250.995H246.312V264.848H274.089V263.241H309.506V278.772H323.358V250.995H309.506V252.602H281.587V153.526H218.464ZM68.5127 159.953V167.38H86.1855V232.716H93.0762V159.953H68.5127ZM29.9541 195.299V223.076H33.6318V216.114H54.0537V223.076H58.2666V195.299H29.9541ZM372.163 165.309V209.25L322.323 209.223H322.321L310.004 209.251L307.87 209.223H307.831L307.793 209.228C305.797 209.513 304.335 210.422 303.38 211.694C302.431 212.957 302.008 214.543 302.008 216.149C302.008 218.307 302.568 219.914 303.612 221.053C304.651 222.186 306.111 222.791 307.781 223.069L307.822 223.076H386.017V165.309H372.163ZM106.536 139.067V195.477L106.689 195.624L120.613 209.013L120.759 209.152H163.518V204.72H162.696V181.304H194.294V166.915H134.849V139.067H106.536ZM263.984 111.755V125.607H294.808L309.506 139.779V163.702H302.008V170.593H309.506V181.304H322.823V153.456H330.32V125.607H331.927V111.755H263.984ZM162.768 76.4092V138.996H176.621V132.569H246.241V76.4092H232.388V90.333H176.621V76.4092H162.768Z" fill="#271406"/>
<path d="M202.362 19.0713L202.718 18.1367L202.579 18.0839L202.431 18.0737L202.362 19.0713ZM234.495 27.6396L234.382 28.6333L234.439 28.6396H234.495V27.6396ZM274.66 27.6396H275.66V26.6396H274.66V27.6396ZM274.66 79.0518H273.66V79.4864L273.978 79.783L274.66 79.0518ZM278.678 82.7998L277.996 83.531L278.284 83.7998H278.678V82.7998ZM359.811 82.7998L360.108 81.8452L359.963 81.7998H359.811V82.7998ZM372.664 96.7246H373.664V96.6466L373.652 96.5695L372.664 96.7246ZM372.664 112.255V113.255H373.664V112.255H372.664ZM357.133 112.255V111.255H356.133V112.255H357.133ZM357.133 125.107H356.133V126.107H357.133V125.107ZM361.953 125.107H362.953V124.107H361.953V125.107ZM361.953 127.25H360.953V127.664L361.246 127.957L361.953 127.25ZM369.986 135.283L369.279 135.99L369.572 136.283H369.986V135.283ZM372.664 135.283H373.664V134.283H372.664V135.283ZM372.664 140.639H371.664V141.639H372.664V140.639ZM385.517 140.639V141.639H386.517V140.639H385.517ZM385.517 138.496V137.496H384.517V138.496H385.517ZM414.436 138.496H415.436V137.496H414.436V138.496ZM414.436 181.875V182.875H415.436V181.875H414.436ZM400.512 181.875V180.875H399.512V181.875H400.512ZM400.512 194.894H399.512V195.894H400.512V194.894ZM414.436 194.894H415.436V193.894H414.436V194.894ZM414.436 251.495V252.495H415.436V251.495H414.436ZM370.521 251.495L369.814 252.202L370.107 252.495H370.521V251.495ZM364.096 245.068H363.096V245.483L363.389 245.775L364.096 245.068ZM364.096 237.571H365.096V236.571H364.096V237.571ZM351.242 237.571V236.571H350.242V237.571H351.242ZM351.242 307.191V308.191H352.242V307.191H351.242ZM295.546 307.191V306.191H294.546V307.191H295.546ZM295.546 334.504H294.546V335.504H295.546V334.504ZM310.006 334.504H311.006V333.504H310.006V334.504ZM310.006 362.352L310.713 363.059L311.006 362.766V362.352H310.006ZM253.774 418.583L253.067 417.876L252.776 418.167L252.774 418.579L253.774 418.583ZM253.622 454.465V455.465H254.618L254.622 454.469L253.622 454.465ZM190.045 454.465H189.045V455.465H190.045V454.465ZM190.045 362.888H191.045V361.888H190.045V362.888ZM134.885 362.888V361.888H133.885V362.888H134.885ZM134.885 363.958V364.958H135.885V363.958H134.885ZM121.496 363.958L120.789 364.665L121.082 364.958H121.496V363.958ZM113.463 355.926H112.463V356.34L112.756 356.633L113.463 355.926ZM113.463 341.466L112.715 340.802L112.463 341.086V341.466H113.463ZM117.747 336.646L118.495 337.31L119.121 336.605L118.454 335.938L117.747 336.646ZM113.998 332.897L114.705 332.19L114.072 331.558L113.373 332.117L113.998 332.897ZM111.32 335.039V336.039H111.671L111.945 335.82L111.32 335.039ZM85.0791 335.039H84.0791V336.039H85.0791V335.039ZM85.0791 300.229H86.0791V299.229H85.0791V300.229ZM72.2266 300.229V299.229H71.2266V300.229H72.2266ZM72.2266 314.41V315.41H73.2266V314.41H72.2266ZM6.35547 314.41H5.35547V315.41H6.35547V314.41ZM6.35547 278.272V277.272H5.35547V278.272H6.35547ZM19.208 278.272V279.272H20.208V278.272H19.208ZM19.208 265.419H20.208V264.419H19.208V265.419ZM1.53516 265.419H0.535156V266.419H1.53516V265.419ZM1.53516 236.5V235.5H0.535156V236.5H1.53516ZM15.459 236.5V237.5H16.459V236.5H15.459ZM15.459 209.723H16.459V208.723H15.459V209.723ZM1.53516 209.723H0.535156V210.723H1.53516V209.723ZM1.53516 166.88V165.88H0.535156V166.88H1.53516ZM47.0557 166.88V167.88H48.0557V166.88H47.0557ZM47.0557 160.453H48.0557V159.453H47.0557V160.453ZM36.3447 160.453H35.3447V161.453H36.3447V160.453ZM36.3447 137.961L35.3697 137.739L35.3447 137.849V137.961H36.3447ZM48.6631 125.107V124.107H48.591L48.5197 124.118L48.6631 125.107ZM148.272 125.107V126.107H149.272V125.107H148.272ZM148.272 104.758H149.272V103.758H148.272V104.758ZM134.349 104.758H133.349V105.758H134.349V104.758ZM134.349 57.0947L133.417 56.7303L133.349 56.906V57.0947H134.349ZM139.169 44.7773L138.52 44.0161L138.329 44.179L138.238 44.4129L139.169 44.7773ZM153.628 32.46L154.276 33.2212L154.444 33.0786L154.536 32.879L153.628 32.46ZM156.842 25.4971L156.714 24.5053L156.166 24.576L155.934 25.078L156.842 25.4971ZM172.908 22.2842V21.2842H172.77L172.637 21.3218L172.908 22.2842ZM181.477 22.2842V23.2842H181.827L182.101 23.0651L181.477 22.2842ZM186.832 18L186.901 17.0024L186.512 16.9755L186.207 17.2191L186.832 18ZM260.236 278.843V277.843H259.236V278.843H260.236ZM260.236 294.143L260.974 294.818L261.236 294.532V294.143H260.236ZM248.734 306.691V307.691H249.174L249.472 307.367L248.734 306.691ZM162.458 306.691V305.691H161.458V306.691H162.458ZM162.458 335.004H161.458V336.004H162.458V335.004ZM218.464 335.004H219.464V334.004H218.464V335.004ZM218.464 388.022H217.464V389.022H218.464V388.022ZM226.426 388.022V389.022H227.426V388.022H226.426ZM226.426 383.737V382.737H225.426V383.737H226.426ZM253.445 383.737V384.737H253.86L254.152 384.444L253.445 383.737ZM253.592 383.591L252.885 382.884L252.885 382.884L253.592 383.591ZM273.942 363.241L274.649 363.948L274.649 363.948L273.942 363.241ZM274.089 363.095L274.796 363.802L275.089 363.509V363.095H274.089ZM274.089 278.843H275.089V277.843H274.089V278.843ZM141.347 223.146V222.146H140.347V223.146H141.347ZM141.347 250.995V251.995H142.347V250.995H141.347ZM72.501 250.995L71.6573 251.532L71.9521 251.995H72.501V250.995ZM68.8994 245.336L69.7431 244.799L69.7427 244.799L68.8994 245.336ZM68.6523 244.948L69.4957 244.411L69.0024 243.637L68.1891 244.062L68.6523 244.948ZM68.2451 245.161L67.7818 244.275L67.7811 244.275L68.2451 245.161ZM56.999 251.052L56.535 250.166L56.5346 250.166L56.999 251.052ZM56.5801 251.271L56.1156 250.386L55.2778 250.825L55.6701 251.686L56.5801 251.271ZM56.7764 251.702L57.6868 251.288L57.6863 251.287L56.7764 251.702ZM59.2773 257.205L59.8323 258.037L60.5394 257.565L60.1877 256.791L59.2773 257.205ZM58.0244 258.041L58.5791 258.873L58.5794 258.873L58.0244 258.041ZM57.8018 258.189L57.2471 257.357L56.8018 257.654V258.189H57.8018ZM57.8018 264.919V265.919H58.8018V264.919H57.8018ZM40.665 264.919V263.919H39.665V264.919H40.665ZM40.665 278.772H39.665V279.772H40.665V278.772ZM127.422 278.772H128.422V277.772H127.422V278.772ZM127.422 318.23L128.129 318.938L128.422 318.645V318.23H127.422ZM125.073 320.579L124.366 319.872L123.66 320.578L124.365 321.285L125.073 320.579ZM125.427 320.934L124.719 321.64L124.72 321.641L125.427 320.934ZM130.064 325.571L129.357 326.278L130.064 326.986L130.772 326.278L130.064 325.571ZM134.849 320.787L135.556 321.494L135.849 321.201V320.787H134.849ZM134.849 278.772V277.772H133.849V278.772H134.849ZM191.08 278.772V279.772H192.08V278.772H191.08ZM191.08 264.919H192.08V263.919H191.08V264.919ZM162.696 264.919H161.696V265.919H162.696V264.919ZM162.696 223.146H163.696V222.146H162.696V223.146ZM218.464 226.896V225.896H217.464V226.896H218.464ZM218.464 289.482H217.464V290.482H218.464V289.482ZM232.316 289.482V290.482H233.316V289.482H232.316ZM232.316 278.843H233.316V277.843H232.316V278.843ZM225.354 278.843H224.354V279.843H225.354V278.843ZM225.354 237V236H224.354V237H225.354ZM232.853 237V238H233.853V237H232.853ZM232.853 226.896H233.853V225.896H232.853V226.896ZM218.464 153.526V152.526H217.464V153.526H218.464ZM218.464 166.915V167.915H219.464V166.915H218.464ZM215.251 166.915V165.915H214.251V166.915H215.251ZM215.251 181.304H214.251V182.304H215.251V181.304ZM218.464 181.304H219.464V180.304H218.464V181.304ZM218.464 198.684H217.464V199.098L217.757 199.391L218.464 198.684ZM218.61 198.83L219.317 198.123L219.317 198.123L218.61 198.83ZM228.785 209.006L228.078 209.713L228.078 209.713L228.785 209.006ZM228.932 209.152L228.225 209.859L228.517 210.152H228.932V209.152ZM253.274 209.152H254.274V208.152H253.274V209.152ZM253.274 250.995V251.995H254.274V250.995H253.274ZM246.312 250.995V249.995H245.312V250.995H246.312ZM246.312 264.848H245.312V265.848H246.312V264.848ZM274.089 264.848V265.848H275.089V264.848H274.089ZM274.089 263.241V262.241H273.089V263.241H274.089ZM309.506 263.241H310.506V262.241H309.506V263.241ZM309.506 278.772H308.506V279.772H309.506V278.772ZM323.358 278.772V279.772H324.358V278.772H323.358ZM323.358 250.995H324.358V249.995H323.358V250.995ZM309.506 250.995V249.995H308.506V250.995H309.506ZM309.506 252.602V253.602H310.506V252.602H309.506ZM281.587 252.602H280.587V253.602H281.587V252.602ZM281.587 153.526H282.587V152.526H281.587V153.526ZM68.5127 159.953V158.953H67.5127V159.953H68.5127ZM68.5127 167.38H67.5127V168.38H68.5127V167.38ZM86.1855 167.38H87.1855V166.38H86.1855V167.38ZM86.1855 232.716H85.1855V233.716H86.1855V232.716ZM93.0762 232.716V233.716H94.0762V232.716H93.0762ZM93.0762 159.953H94.0762V158.953H93.0762V159.953ZM29.9541 195.299V194.299H28.9541V195.299H29.9541ZM29.9541 223.076H28.9541V224.076H29.9541V223.076ZM33.6318 223.076V224.076H34.6318V223.076H33.6318ZM33.6318 216.114V215.114H32.6318V216.114H33.6318ZM54.0537 216.114H55.0537V215.114H54.0537V216.114ZM54.0537 223.076H53.0537V224.076H54.0537V223.076ZM58.2666 223.076V224.076H59.2666V223.076H58.2666ZM58.2666 195.299H59.2666V194.299H58.2666V195.299ZM372.163 165.309V164.309H371.163V165.309H372.163ZM372.163 209.25L372.163 210.25L373.163 210.251V209.25H372.163ZM322.323 209.223L322.324 208.223H322.323V209.223ZM322.321 209.223L322.321 208.223L322.319 208.223L322.321 209.223ZM310.004 209.251L309.991 210.251L309.998 210.251L310.006 210.251L310.004 209.251ZM307.87 209.223L307.883 208.223H307.87V209.223ZM307.831 209.223V208.223H307.767L307.704 208.231L307.831 209.223ZM307.793 209.228L307.666 208.236L307.659 208.237L307.652 208.238L307.793 209.228ZM303.38 211.694L302.58 211.094L302.58 211.094L303.38 211.694ZM302.008 216.149L301.008 216.149L301.008 216.149L302.008 216.149ZM303.612 221.053L302.875 221.729L302.875 221.729L303.612 221.053ZM307.781 223.069L307.617 224.056L307.617 224.056L307.781 223.069ZM307.822 223.076L307.658 224.063L307.74 224.076H307.822V223.076ZM386.017 223.076V224.076H387.017V223.076H386.017ZM386.017 165.309H387.017V164.309H386.017V165.309ZM106.536 139.067V138.067H105.536V139.067H106.536ZM106.536 195.477H105.536V195.902L105.843 196.197L106.536 195.477ZM106.689 195.624L105.996 196.345L105.996 196.345L106.689 195.624ZM120.613 209.013L119.92 209.734L119.921 209.734L120.613 209.013ZM120.759 209.152L120.066 209.874L120.357 210.152H120.759V209.152ZM163.518 209.152V210.152H164.518V209.152H163.518ZM163.518 204.72H164.518V203.72H163.518V204.72ZM162.696 204.72H161.696V205.72H162.696V204.72ZM162.696 181.304V180.304H161.696V181.304H162.696ZM194.294 181.304V182.304H195.294V181.304H194.294ZM194.294 166.915H195.294V165.915H194.294V166.915ZM134.849 166.915H133.849V167.915H134.849V166.915ZM134.849 139.067H135.849V138.067H134.849V139.067ZM263.984 111.755V110.755H262.984V111.755H263.984ZM263.984 125.607H262.984V126.607H263.984V125.607ZM294.808 125.607L295.502 124.888L295.211 124.607H294.808V125.607ZM309.506 139.779H310.506V139.354L310.2 139.059L309.506 139.779ZM309.506 163.702V164.702H310.506V163.702H309.506ZM302.008 163.702V162.702H301.008V163.702H302.008ZM302.008 170.593H301.008V171.593H302.008V170.593ZM309.506 170.593H310.506V169.593H309.506V170.593ZM309.506 181.304H308.506V182.304H309.506V181.304ZM322.823 181.304V182.304H323.823V181.304H322.823ZM322.823 153.456V152.456H321.823V153.456H322.823ZM330.32 153.456V154.456H331.32V153.456H330.32ZM330.32 125.607V124.607H329.32V125.607H330.32ZM331.927 125.607V126.607H332.927V125.607H331.927ZM331.927 111.755H332.927V110.755H331.927V111.755ZM162.768 76.4092V75.4092H161.768V76.4092H162.768ZM162.768 138.996H161.768V139.996H162.768V138.996ZM176.621 138.996V139.996H177.621V138.996H176.621ZM176.621 132.569V131.569H175.621V132.569H176.621ZM246.241 132.569V133.569H247.241V132.569H246.241ZM246.241 76.4092H247.241V75.4092H246.241V76.4092ZM232.388 76.4092V75.4092H231.388V76.4092H232.388ZM232.388 90.333V91.333H233.388V90.333H232.388ZM176.621 90.333H175.621V91.333H176.621V90.333ZM176.621 76.4092H177.621V75.4092H176.621V76.4092ZM202.362 19.0713L202.007 20.0059C214.623 24.8087 221.759 27.2012 234.382 28.6333L234.495 27.6396L234.608 26.646C222.228 25.2417 215.274 22.9164 202.718 18.1367L202.362 19.0713ZM234.495 27.6396V28.6396H274.66V27.6396V26.6396H234.495V27.6396ZM274.66 27.6396H273.66V79.0518H274.66H275.66V27.6396H274.66ZM274.66 79.0518L273.978 79.783L277.996 83.531L278.678 82.7998L279.36 82.0686L275.342 78.3205L274.66 79.0518ZM278.678 82.7998V83.7998H359.811V82.7998V81.7998H278.678V82.7998ZM359.811 82.7998L359.513 83.7544C363.715 85.0661 366.391 86.3796 368.196 88.2838C369.983 90.1692 371.029 92.7559 371.676 96.8798L372.664 96.7246L373.652 96.5695C372.977 92.2692 371.836 89.2172 369.647 86.9079C367.477 84.6176 364.387 83.1807 360.108 81.8452L359.811 82.7998ZM372.664 96.7246H371.664V112.255H372.664H373.664V96.7246H372.664ZM372.664 112.255V111.255H357.133V112.255V113.255H372.664V112.255ZM357.133 112.255H356.133V125.107H357.133H358.133V112.255H357.133ZM357.133 125.107V126.107H361.953V125.107V124.107H357.133V125.107ZM361.953 125.107H360.953V127.25H361.953H362.953V125.107H361.953ZM361.953 127.25L361.246 127.957L369.279 135.99L369.986 135.283L370.693 134.576L362.66 126.543L361.953 127.25ZM369.986 135.283V136.283H372.664V135.283V134.283H369.986V135.283ZM372.664 135.283H371.664V140.639H372.664H373.664V135.283H372.664ZM372.664 140.639V141.639H385.517V140.639V139.639H372.664V140.639ZM385.517 140.639H386.517V138.496H385.517H384.517V140.639H385.517ZM385.517 138.496V139.496H414.436V138.496V137.496H385.517V138.496ZM414.436 138.496H413.436V181.875H414.436H415.436V138.496H414.436ZM414.436 181.875V180.875H400.512V181.875V182.875H414.436V181.875ZM400.512 181.875H399.512V194.894H400.512H401.512V181.875H400.512ZM400.512 194.894V195.894H414.436V194.894V193.894H400.512V194.894ZM414.436 194.894H413.436V251.495H414.436H415.436V194.894H414.436ZM414.436 251.495V250.495H370.521V251.495V252.495H414.436V251.495ZM370.521 251.495L371.229 250.788L364.803 244.361L364.096 245.068L363.389 245.775L369.814 252.202L370.521 251.495ZM364.096 245.068H365.096V237.571H364.096H363.096V245.068H364.096ZM364.096 237.571V236.571H351.242V237.571V238.571H364.096V237.571ZM351.242 237.571H350.242V307.191H351.242H352.242V237.571H351.242ZM351.242 307.191V306.191H295.546V307.191V308.191H351.242V307.191ZM295.546 307.191H294.546V334.504H295.546H296.546V307.191H295.546ZM295.546 334.504V335.504H310.006V334.504V333.504H295.546V334.504ZM310.006 334.504H309.006V362.352H310.006H311.006V334.504H310.006ZM310.006 362.352L309.299 361.644L253.067 417.876L253.774 418.583L254.482 419.29L310.713 363.059L310.006 362.352ZM253.774 418.583L252.774 418.579L252.622 454.461L253.622 454.465L254.622 454.469L254.774 418.587L253.774 418.583ZM253.622 454.465V453.465H190.045V454.465V455.465H253.622V454.465ZM190.045 454.465H191.045V362.888H190.045H189.045V454.465H190.045ZM190.045 362.888V361.888H134.885V362.888V363.888H190.045V362.888ZM134.885 362.888H133.885V363.958H134.885H135.885V362.888H134.885ZM134.885 363.958V362.958H121.496V363.958V364.958H134.885V363.958ZM121.496 363.958L122.203 363.251L114.17 355.219L113.463 355.926L112.756 356.633L120.789 364.665L121.496 363.958ZM113.463 355.926H114.463V341.466H113.463H112.463V355.926H113.463ZM113.463 341.466L114.21 342.13L118.495 337.31L117.747 336.646L117 335.981L112.715 340.802L113.463 341.466ZM117.747 336.646L118.454 335.938L114.705 332.19L113.998 332.897L113.291 333.605L117.04 337.353L117.747 336.646ZM113.998 332.897L113.373 332.117L110.696 334.258L111.32 335.039L111.945 335.82L114.623 333.678L113.998 332.897ZM111.32 335.039V334.039H85.0791V335.039V336.039H111.32V335.039ZM85.0791 335.039H86.0791V300.229H85.0791H84.0791V335.039H85.0791ZM85.0791 300.229V299.229H72.2266V300.229V301.229H85.0791V300.229ZM72.2266 300.229H71.2266V314.41H72.2266H73.2266V300.229H72.2266ZM72.2266 314.41V313.41H6.35547V314.41V315.41H72.2266V314.41ZM6.35547 314.41H7.35547V278.272H6.35547H5.35547V314.41H6.35547ZM6.35547 278.272V279.272H19.208V278.272V277.272H6.35547V278.272ZM19.208 278.272H20.208V265.419H19.208H18.208V278.272H19.208ZM19.208 265.419V264.419H1.53516V265.419V266.419H19.208V265.419ZM1.53516 265.419H2.53516V236.5H1.53516H0.535156V265.419H1.53516ZM1.53516 236.5V237.5H15.459V236.5V235.5H1.53516V236.5ZM15.459 236.5H16.459V209.723H15.459H14.459V236.5H15.459ZM15.459 209.723V208.723H1.53516V209.723V210.723H15.459V209.723ZM1.53516 209.723H2.53516V166.88H1.53516H0.535156V209.723H1.53516ZM1.53516 166.88V167.88H47.0557V166.88V165.88H1.53516V166.88ZM47.0557 166.88H48.0557V160.453H47.0557H46.0557V166.88H47.0557ZM47.0557 160.453V159.453H36.3447V160.453V161.453H47.0557V160.453ZM36.3447 160.453H37.3447V137.961H36.3447H35.3447V160.453H36.3447ZM36.3447 137.961L37.3198 138.183C38.2611 134.047 39.2437 131.358 40.8748 129.537C42.4689 127.757 44.8084 126.676 48.8065 126.097L48.6631 125.107L48.5197 124.118C44.2985 124.729 41.4232 125.927 39.385 128.202C37.3838 130.436 36.3168 133.578 35.3697 137.739L36.3447 137.961ZM48.6631 125.107V126.107H148.272V125.107V124.107H48.6631V125.107ZM148.272 125.107H149.272V104.758H148.272H147.272V125.107H148.272ZM148.272 104.758V103.758H134.349V104.758V105.758H148.272V104.758ZM134.349 104.758H135.349V57.0947H134.349H133.349V104.758H134.349ZM134.349 57.0947L135.28 57.4592L140.1 45.1418L139.169 44.7773L138.238 44.4129L133.417 56.7303L134.349 57.0947ZM139.169 44.7773L139.817 45.5386L154.276 33.2212L153.628 32.46L152.979 31.6987L138.52 44.0161L139.169 44.7773ZM153.628 32.46L154.536 32.879L157.75 25.9162L156.842 25.4971L155.934 25.078L152.72 32.0409L153.628 32.46ZM156.842 25.4971L156.97 26.4889C163.301 25.6723 166.867 25.0279 173.18 23.2466L172.908 22.2842L172.637 21.3218C166.436 23.0713 162.969 23.6985 156.714 24.5053L156.842 25.4971ZM172.908 22.2842V23.2842H181.477V22.2842V21.2842H172.908V22.2842ZM181.477 22.2842L182.101 23.0651L187.457 18.7809L186.832 18L186.207 17.2191L180.852 21.5033L181.477 22.2842ZM186.832 18L186.763 18.9976L202.293 20.0689L202.362 19.0713L202.431 18.0737L186.901 17.0024L186.832 18ZM260.236 278.843H259.236V294.143H260.236H261.236V278.843H260.236ZM260.236 294.143L259.499 293.467L247.997 306.016L248.734 306.691L249.472 307.367L260.974 294.818L260.236 294.143ZM248.734 306.691V305.691H162.458V306.691V307.691H248.734V306.691ZM162.458 306.691H161.458V335.004H162.458H163.458V306.691H162.458ZM162.458 335.004V336.004H218.464V335.004V334.004H162.458V335.004ZM218.464 335.004H217.464V388.022H218.464H219.464V335.004H218.464ZM218.464 388.022V389.022H226.426V388.022V387.022H218.464V388.022ZM226.426 388.022H227.426V383.737H226.426H225.426V388.022H226.426ZM226.426 383.737V384.737H253.445V383.737V382.737H226.426V383.737ZM253.445 383.737L254.152 384.444L254.299 384.298L253.592 383.591L252.885 382.884L252.738 383.03L253.445 383.737ZM253.592 383.591L254.299 384.298L274.649 363.948L273.942 363.241L273.235 362.534L252.885 382.884L253.592 383.591ZM273.942 363.241L274.649 363.948L274.796 363.802L274.089 363.095L273.382 362.388L273.235 362.534L273.942 363.241ZM274.089 363.095H275.089V278.843H274.089H273.089V363.095H274.089ZM274.089 278.843V277.843H260.236V278.843V279.843H274.089V278.843ZM141.347 223.146H140.347V250.995H141.347H142.347V223.146H141.347ZM141.347 250.995V249.995H72.501V250.995V251.995H141.347V250.995ZM72.501 250.995L73.3446 250.458L69.7431 244.799L68.8994 245.336L68.0558 245.873L71.6573 251.532L72.501 250.995ZM68.8994 245.336L69.7427 244.799L69.4957 244.411L68.6523 244.948L67.809 245.486L68.0561 245.873L68.8994 245.336ZM68.6523 244.948L68.1891 244.062L67.7818 244.275L68.2451 245.161L68.7084 246.047L69.1156 245.834L68.6523 244.948ZM68.2451 245.161L67.7811 244.275L56.535 250.166L56.999 251.052L57.463 251.938L68.7091 246.047L68.2451 245.161ZM56.999 251.052L56.5346 250.166L56.1156 250.386L56.5801 251.271L57.0445 252.157L57.4635 251.937L56.999 251.052ZM56.5801 251.271L55.6701 251.686L55.8664 252.117L56.7764 251.702L57.6863 251.287L57.49 250.857L56.5801 251.271ZM56.7764 251.702L55.866 252.116L58.367 257.619L59.2773 257.205L60.1877 256.791L57.6868 251.288L56.7764 251.702ZM59.2773 257.205L58.7223 256.373L57.4694 257.209L58.0244 258.041L58.5794 258.873L59.8323 258.037L59.2773 257.205ZM58.0244 258.041L57.4697 257.209L57.2471 257.357L57.8018 258.189L58.3565 259.022L58.5791 258.873L58.0244 258.041ZM57.8018 258.189H56.8018V264.919H57.8018H58.8018V258.189H57.8018ZM57.8018 264.919V263.919H40.665V264.919V265.919H57.8018V264.919ZM40.665 264.919H39.665V278.772H40.665H41.665V264.919H40.665ZM40.665 278.772V279.772H127.422V278.772V277.772H40.665V278.772ZM127.422 278.772H126.422V318.23H127.422H128.422V278.772H127.422ZM127.422 318.23L126.715 317.523L124.366 319.872L125.073 320.579L125.78 321.286L128.129 318.938L127.422 318.23ZM125.073 320.579L124.365 321.285L124.719 321.64L125.427 320.934L126.135 320.227L125.781 319.873L125.073 320.579ZM125.427 320.934L124.72 321.641L129.357 326.278L130.064 325.571L130.772 324.864L126.134 320.226L125.427 320.934ZM130.064 325.571L130.772 326.278L135.556 321.494L134.849 320.787L134.142 320.08L129.357 324.864L130.064 325.571ZM134.849 320.787H135.849V278.772H134.849H133.849V320.787H134.849ZM134.849 278.772V279.772H191.08V278.772V277.772H134.849V278.772ZM191.08 278.772H192.08V264.919H191.08H190.08V278.772H191.08ZM191.08 264.919V263.919H162.696V264.919V265.919H191.08V264.919ZM162.696 264.919H163.696V223.146H162.696H161.696V264.919H162.696ZM162.696 223.146V222.146H141.347V223.146V224.146H162.696V223.146ZM218.464 226.896H217.464V289.482H218.464H219.464V226.896H218.464ZM218.464 289.482V290.482H232.316V289.482V288.482H218.464V289.482ZM232.316 289.482H233.316V278.843H232.316H231.316V289.482H232.316ZM232.316 278.843V277.843H225.354V278.843V279.843H232.316V278.843ZM225.354 278.843H226.354V237H225.354H224.354V278.843H225.354ZM225.354 237V238H232.853V237V236H225.354V237ZM232.853 237H233.853V226.896H232.853H231.853V237H232.853ZM232.853 226.896V225.896H218.464V226.896V227.896H232.853V226.896ZM218.464 153.526H217.464V166.915H218.464H219.464V153.526H218.464ZM218.464 166.915V165.915H215.251V166.915V167.915H218.464V166.915ZM215.251 166.915H214.251V181.304H215.251H216.251V166.915H215.251ZM215.251 181.304V182.304H218.464V181.304V180.304H215.251V181.304ZM218.464 181.304H217.464V198.684H218.464H219.464V181.304H218.464ZM218.464 198.684L217.757 199.391L217.903 199.537L218.61 198.83L219.317 198.123L219.171 197.976L218.464 198.684ZM218.61 198.83L217.903 199.537L228.078 209.713L228.785 209.006L229.492 208.299L219.317 198.123L218.61 198.83ZM228.785 209.006L228.078 209.713L228.225 209.859L228.932 209.152L229.639 208.445L229.492 208.299L228.785 209.006ZM228.932 209.152V210.152H253.274V209.152V208.152H228.932V209.152ZM253.274 209.152H252.274V250.995H253.274H254.274V209.152H253.274ZM253.274 250.995V249.995H246.312V250.995V251.995H253.274V250.995ZM246.312 250.995H245.312V264.848H246.312H247.312V250.995H246.312ZM246.312 264.848V265.848H274.089V264.848V263.848H246.312V264.848ZM274.089 264.848H275.089V263.241H274.089H273.089V264.848H274.089ZM274.089 263.241V264.241H309.506V263.241V262.241H274.089V263.241ZM309.506 263.241H308.506V278.772H309.506H310.506V263.241H309.506ZM309.506 278.772V279.772H323.358V278.772V277.772H309.506V278.772ZM323.358 278.772H324.358V250.995H323.358H322.358V278.772H323.358ZM323.358 250.995V249.995H309.506V250.995V251.995H323.358V250.995ZM309.506 250.995H308.506V252.602H309.506H310.506V250.995H309.506ZM309.506 252.602V251.602H281.587V252.602V253.602H309.506V252.602ZM281.587 252.602H282.587V153.526H281.587H280.587V252.602H281.587ZM281.587 153.526V152.526H218.464V153.526V154.526H281.587V153.526ZM68.5127 159.953H67.5127V167.38H68.5127H69.5127V159.953H68.5127ZM68.5127 167.38V168.38H86.1855V167.38V166.38H68.5127V167.38ZM86.1855 167.38H85.1855V232.716H86.1855H87.1855V167.38H86.1855ZM86.1855 232.716V233.716H93.0762V232.716V231.716H86.1855V232.716ZM93.0762 232.716H94.0762V159.953H93.0762H92.0762V232.716H93.0762ZM93.0762 159.953V158.953H68.5127V159.953V160.953H93.0762V159.953ZM29.9541 195.299H28.9541V223.076H29.9541H30.9541V195.299H29.9541ZM29.9541 223.076V224.076H33.6318V223.076V222.076H29.9541V223.076ZM33.6318 223.076H34.6318V216.114H33.6318H32.6318V223.076H33.6318ZM33.6318 216.114V217.114H54.0537V216.114V215.114H33.6318V216.114ZM54.0537 216.114H53.0537V223.076H54.0537H55.0537V216.114H54.0537ZM54.0537 223.076V224.076H58.2666V223.076V222.076H54.0537V223.076ZM58.2666 223.076H59.2666V195.299H58.2666H57.2666V223.076H58.2666ZM58.2666 195.299V194.299H29.9541V195.299V196.299H58.2666V195.299ZM372.163 165.309H371.163V209.25H372.163H373.163V165.309H372.163ZM372.163 209.25L372.164 208.25L322.324 208.223L322.323 209.223L322.323 210.223L372.163 210.25L372.163 209.25ZM322.323 209.223V208.223H322.321V209.223V210.223H322.323V209.223ZM322.321 209.223L322.319 208.223L310.002 208.251L310.004 209.251L310.006 210.251L322.324 210.223L322.321 209.223ZM310.004 209.251L310.017 208.251L307.883 208.223L307.87 209.223L307.857 210.223L309.991 210.251L310.004 209.251ZM307.87 209.223V208.223H307.831V209.223V210.223H307.87V209.223ZM307.831 209.223L307.704 208.231L307.666 208.236L307.793 209.228L307.92 210.219L307.958 210.215L307.831 209.223ZM307.793 209.228L307.652 208.238C305.411 208.558 303.705 209.596 302.58 211.094L303.38 211.694L304.18 212.295C304.965 211.249 306.182 210.468 307.934 210.217L307.793 209.228ZM303.38 211.694L302.58 211.094C301.475 212.565 301.008 214.375 301.008 216.149L302.008 216.149L303.008 216.149C303.008 214.71 303.388 213.349 304.18 212.295L303.38 211.694ZM302.008 216.149L301.008 216.149C301.008 218.481 301.617 220.356 302.875 221.729L303.612 221.053L304.349 220.377C303.52 219.472 303.008 218.133 303.008 216.149L302.008 216.149ZM303.612 221.053L302.875 221.729C304.118 223.084 305.819 223.756 307.617 224.056L307.781 223.069L307.946 222.083C306.403 221.826 305.184 221.288 304.349 220.377L303.612 221.053ZM307.781 223.069L307.617 224.056L307.658 224.063L307.822 223.076L307.987 222.09L307.946 222.083L307.781 223.069ZM307.822 223.076V224.076H386.017V223.076V222.076H307.822V223.076ZM386.017 223.076H387.017V165.309H386.017H385.017V223.076H386.017ZM386.017 165.309V164.309H372.163V165.309V166.309H386.017V165.309ZM106.536 139.067H105.536V195.477H106.536H107.536V139.067H106.536ZM106.536 195.477L105.843 196.197L105.996 196.345L106.689 195.624L107.383 194.903L107.229 194.756L106.536 195.477ZM106.689 195.624L105.996 196.345L119.92 209.734L120.613 209.013L121.306 208.292L107.383 194.903L106.689 195.624ZM120.613 209.013L119.921 209.734L120.066 209.874L120.759 209.152L121.451 208.431L121.306 208.291L120.613 209.013ZM120.759 209.152V210.152H163.518V209.152V208.152H120.759V209.152ZM163.518 209.152H164.518V204.72H163.518H162.518V209.152H163.518ZM163.518 204.72V203.72H162.696V204.72V205.72H163.518V204.72ZM162.696 204.72H163.696V181.304H162.696H161.696V204.72H162.696ZM162.696 181.304V182.304H194.294V181.304V180.304H162.696V181.304ZM194.294 181.304H195.294V166.915H194.294H193.294V181.304H194.294ZM194.294 166.915V165.915H134.849V166.915V167.915H194.294V166.915ZM134.849 166.915H135.849V139.067H134.849H133.849V166.915H134.849ZM134.849 139.067V138.067H106.536V139.067V140.067H134.849V139.067ZM263.984 111.755H262.984V125.607H263.984H264.984V111.755H263.984ZM263.984 125.607V126.607H294.808V125.607V124.607H263.984V125.607ZM294.808 125.607L294.114 126.327L308.812 140.499L309.506 139.779L310.2 139.059L295.502 124.888L294.808 125.607ZM309.506 139.779H308.506V163.702H309.506H310.506V139.779H309.506ZM309.506 163.702V162.702H302.008V163.702V164.702H309.506V163.702ZM302.008 163.702H301.008V170.593H302.008H303.008V163.702H302.008ZM302.008 170.593V171.593H309.506V170.593V169.593H302.008V170.593ZM309.506 170.593H308.506V181.304H309.506H310.506V170.593H309.506ZM309.506 181.304V182.304H322.823V181.304V180.304H309.506V181.304ZM322.823 181.304H323.823V153.456H322.823H321.823V181.304H322.823ZM322.823 153.456V154.456H330.32V153.456V152.456H322.823V153.456ZM330.32 153.456H331.32V125.607H330.32H329.32V153.456H330.32ZM330.32 125.607V126.607H331.927V125.607V124.607H330.32V125.607ZM331.927 125.607H332.927V111.755H331.927H330.927V125.607H331.927ZM331.927 111.755V110.755H263.984V111.755V112.755H331.927V111.755ZM162.768 76.4092H161.768V138.996H162.768H163.768V76.4092H162.768ZM162.768 138.996V139.996H176.621V138.996V137.996H162.768V138.996ZM176.621 138.996H177.621V132.569H176.621H175.621V138.996H176.621ZM176.621 132.569V133.569H246.241V132.569V131.569H176.621V132.569ZM246.241 132.569H247.241V76.4092H246.241H245.241V132.569H246.241ZM246.241 76.4092V75.4092H232.388V76.4092V77.4092H246.241V76.4092ZM232.388 76.4092H231.388V90.333H232.388H233.388V76.4092H232.388ZM232.388 90.333V89.333H176.621V90.333V91.333H232.388V90.333ZM176.621 90.333H177.621V76.4092H176.621H175.621V90.333H176.621ZM176.621 76.4092V75.4092H162.768V76.4092V77.4092H176.621V76.4092Z" fill="#B27C40" mask="url(#path-1-outside-1_301_20)"/>
<path d="M19.7441 166.344V173.842H26.7062V166.344M86.6865 184.553H79.189V191.515H86.151" stroke="#B27C40" stroke-width="0.5"/>
<path d="M86.1506 207.581H64.729V208.652H86.1506" stroke="#B27C40" stroke-width="0.5"/>
<path d="M64.7287 209.187V215.614H58.3022V209.187H64.7287Z" stroke="#B27C40"/>
<path d="M64.729 212.401H68.4778V208.652" stroke="#B27C40" stroke-width="0.5"/>
<path d="M72.2264 160.453V153.491H88.2926V160.453M163.268 139.032V152.956H169.695V139.032M184.69 224.887L181.476 227.931L186.832 233.287L194.329 225.789M184.69 224.887L189.509 230.074M184.69 224.887L189.509 220.321M189.509 220.321L191.652 218.292L197.007 223.112L194.329 225.789M189.509 220.321L194.329 225.789M173.443 265.419V258.457H179.87V265.419M218.964 268.632H211.467V275.594H218.964M162.733 307.191V300.229H176.121V307.191M312.684 278.808V285.77H319.646V278.808M301.973 218.292L297.153 223.647L301.973 228.467L307.328 223.112M312.684 209.187V202.761H319.646V209.187M322.859 156.705H344.28V150.278H330.356M406.938 194.728V201.69H414.436M183.619 363.423V356.461H189.509V363.423M41.1651 278.272C41.1651 278.701 41.1651 283.449 41.1651 285.77H47.5916V278.808M26.7056 314.689V307.191H33.132V314.689M274.125 153.491V147.065H281.087V153.491M323.394 111.719V101.009H329.821V111.719M279.48 82.2647L274.125 88.1556L269.84 83.8713L274.66 77.9804M113.998 221.505V238.642H120.425V221.505H113.998ZM345.351 193.657L357.133 181.875L361.953 186.695L350.171 199.012L344.816 194.192L345.351 193.657ZM104.359 309.333V290.589H110.785V309.333H104.359Z" stroke="#B27C40"/>
<path d="M72.2266 153.491V146.529H78.653V150.01M78.653 153.491V150.01M78.653 150.01H82.4018V153.491" stroke="#B27C40" stroke-width="0.5"/>
<path d="M165.946 300.229V296.48H172.908V300.229M162.733 188.301H190.581V181.339M1 180.804H43.8431M176.657 139.032H197.543M246.277 139.032H211.467M197.543 139.032V140.638H211.467V139.032M197.543 139.032H211.467M281.623 194.728H288.049V166.88H301.973M358.74 124.572V128.857L368.38 138.496H373.2M194.33 455V451.787H200.756V452.322M200.756 455V452.322M200.756 452.322C201.185 452.322 205.576 452.322 207.718 452.322M207.718 452.322V455M207.718 452.322V451.787H214.68V455M229.14 455V451.787H236.102V455M249.49 455V453.929M243.064 455V451.787H249.49V453.929M249.49 453.929L252.168 450.716H254.31" stroke="#B27C40" stroke-width="0.5"/>
<path d="M229.675 208.652H217.893" stroke="#B27C40" stroke-width="0.5"/>
<path d="M236.102 452.322H243.064M194.33 453.393L191.652 450.716H189.51M410.152 201.69V205.974H414.972" stroke="#B27C40" stroke-width="0.5"/>
<path d="M372.129 209.187H322.859V157.24H372.129V209.187ZM344.28 194.192L350.171 199.548L362.488 186.695L357.133 181.34L344.28 194.192Z" fill="#F08234" fill-opacity="0.23"/>
<path d="M344.816 152.956H372.129V157.24H344.816V152.956Z" fill="#F08234" fill-opacity="0.23"/>
<path d="M338.599 177.88H337.052L339.869 169.88H341.658L344.478 177.88H342.931L340.794 171.52H340.732L338.599 177.88ZM338.65 174.743H342.869V175.907H338.65V174.743Z" fill="white"/>
<path d="M1.53516 181.105H29.9187V209.723H1.53516V181.105Z" fill="#F08234" fill-opacity="0.23"/>
<path d="M29.9185 181.091H71.6905V195.263H29.9185V181.091Z" fill="#F08234" fill-opacity="0.23"/>
<path d="M58.3018 195.263H64.7282V208.652H58.3018V195.263Z" fill="#F08234" fill-opacity="0.23"/>
<path d="M64.728 195.263H71.69V207.306H64.728V195.263Z" fill="#F08234" fill-opacity="0.23"/>
<path d="M43.8423 216.149H54.0175V230.073H43.8423V216.149Z" fill="#F08234" fill-opacity="0.23"/>
<path d="M54.0181 223.111H58.3024V230.073H54.0181V223.111Z" fill="#F08234" fill-opacity="0.23"/>
<path d="M58.3018 216.149H71.6902V230.073H58.3018V216.149Z" fill="#F08234" fill-opacity="0.23"/>
<path d="M65.2642 212.671H71.6906V216.149H65.2642V212.671Z" fill="#F08234" fill-opacity="0.23"/>
<path d="M68.7456 208.92H71.6911V212.668H68.7456V208.92Z" fill="#F08234" fill-opacity="0.23"/>
<path d="M16.248 195.017V187.017H19.3105C19.8887 187.017 20.3691 187.108 20.752 187.291C21.1374 187.47 21.4251 187.716 21.6152 188.029C21.8079 188.341 21.9043 188.695 21.9043 189.091C21.9043 189.417 21.8418 189.695 21.7168 189.927C21.5918 190.156 21.4238 190.343 21.2129 190.486C21.002 190.629 20.7663 190.732 20.5059 190.794V190.873C20.7897 190.888 21.0618 190.975 21.3223 191.134C21.5853 191.291 21.8001 191.512 21.9668 191.798C22.1335 192.085 22.2168 192.431 22.2168 192.837C22.2168 193.251 22.1165 193.624 21.916 193.955C21.7155 194.283 21.4134 194.542 21.0098 194.732C20.6061 194.922 20.0983 195.017 19.4863 195.017H16.248ZM17.6973 193.806H19.2559C19.7819 193.806 20.1608 193.706 20.3926 193.505C20.627 193.302 20.7441 193.042 20.7441 192.724C20.7441 192.487 20.6855 192.274 20.5684 192.084C20.4512 191.891 20.2845 191.74 20.0684 191.63C19.8522 191.518 19.5944 191.462 19.2949 191.462H17.6973V193.806ZM17.6973 190.419H19.1309C19.3809 190.419 19.6061 190.374 19.8066 190.283C20.0072 190.189 20.1647 190.057 20.2793 189.888C20.3965 189.716 20.4551 189.513 20.4551 189.279C20.4551 188.969 20.3457 188.714 20.127 188.513C19.9108 188.313 19.5892 188.212 19.1621 188.212H17.6973V190.419Z" fill="white"/>
</svg>
