<svg width="416" height="473" viewBox="0 0 416 473" fill="none" xmlns="http://www.w3.org/2000/svg">
<mask id="path-1-outside-1_333_336" maskUnits="userSpaceOnUse" x="0.436523" y="17" width="415" height="440" fill="black">
<rect fill="white" x="0.436523" y="17" width="415" height="440"/>
<path d="M213.609 453.929C201.023 449.137 193.978 446.779 181.477 445.36H141.312V393.948L137.294 390.2H56.1611C47.68 387.553 44.6306 384.699 43.3076 376.275V360.745H58.8389V347.893H54.0186V345.75L45.9854 337.717H43.3076V332.361H30.4551V334.504H1.53613V291.125H15.46V278.106H1.53613V221.505H45.4502L51.876 227.932V235.429H64.7295V165.809H120.426V138.496H105.966V110.648L162.197 54.417L162.35 18.5352H225.927V110.112H281.087V109.042H294.476L302.509 117.074V131.534L298.225 136.354L301.974 140.103L304.651 137.961H330.893V172.771H343.745V158.59H409.616V194.728H396.764V207.581H414.437V236.5H400.513V263.277H414.437V306.12H368.916V312.547H379.627V335.039C377.738 343.336 375.528 346.702 367.309 347.893H267.699V368.242H281.623V415.905L276.803 428.223L262.344 440.54L259.13 447.503C252.837 448.315 249.32 448.95 243.063 450.716H234.495L229.14 455L213.609 453.929ZM155.735 194.157V178.857L167.237 166.309H253.514V137.996H197.508V84.9775H189.546V89.2627H162.526L162.38 89.4092L142.029 109.759L141.883 109.905V194.157H155.735ZM274.625 249.854V222.005H343.471L347.072 227.664L347.319 228.052L347.727 227.839L358.973 221.948L359.392 221.729L359.195 221.298L356.694 215.795L357.947 214.959L358.17 214.811V208.081H375.307V194.228H288.55V154.77L290.898 152.421L290.545 152.066L285.907 147.429L281.123 152.213V194.228H224.892V208.081H253.275V249.854H274.625ZM197.508 246.104V183.518H183.655V194.157H190.617V236H183.119V246.104H197.508ZM197.508 319.474V306.085H200.721V291.696H197.508V274.316L197.361 274.17L187.187 263.994L187.04 263.848H162.697V222.005H169.66V208.152H141.883V209.759H106.466V194.228H92.6133V222.005H106.466V220.398H134.385V319.474H197.508ZM347.459 313.047V305.62H329.786V240.284H322.896V313.047H347.459ZM386.018 277.701V249.924H382.34V256.886H361.918V249.924H357.705V277.701H386.018ZM43.8086 307.691V263.75L93.6484 263.777H93.6504L105.968 263.749L108.102 263.777H108.141L108.179 263.772C110.175 263.487 111.637 262.578 112.592 261.306C113.54 260.043 113.964 258.457 113.964 256.851C113.964 254.693 113.404 253.086 112.359 251.947C111.32 250.814 109.861 250.209 108.19 249.931L108.149 249.924H29.9551V307.691H43.8086ZM309.436 333.933V277.523L309.282 277.376L295.358 263.987L295.213 263.848H252.454V268.28H253.275V291.696H221.678V306.085H281.123V333.933H309.436ZM151.987 361.245V347.393H121.164L106.466 333.221V309.298H113.964V302.407H106.466V291.696H93.1484V319.544H85.6514V347.393H84.0449V361.245H151.987ZM253.204 396.591V334.004H239.351V340.431H169.73V396.591H183.584V382.667H239.351V396.591H253.204Z"/>
</mask>
<path d="M213.609 453.929C201.023 449.137 193.978 446.779 181.477 445.36H141.312V393.948L137.294 390.2H56.1611C47.68 387.553 44.6306 384.699 43.3076 376.275V360.745H58.8389V347.893H54.0186V345.75L45.9854 337.717H43.3076V332.361H30.4551V334.504H1.53613V291.125H15.46V278.106H1.53613V221.505H45.4502L51.876 227.932V235.429H64.7295V165.809H120.426V138.496H105.966V110.648L162.197 54.417L162.35 18.5352H225.927V110.112H281.087V109.042H294.476L302.509 117.074V131.534L298.225 136.354L301.974 140.103L304.651 137.961H330.893V172.771H343.745V158.59H409.616V194.728H396.764V207.581H414.437V236.5H400.513V263.277H414.437V306.12H368.916V312.547H379.627V335.039C377.738 343.336 375.528 346.702 367.309 347.893H267.699V368.242H281.623V415.905L276.803 428.223L262.344 440.54L259.13 447.503C252.837 448.315 249.32 448.95 243.063 450.716H234.495L229.14 455L213.609 453.929ZM155.735 194.157V178.857L167.237 166.309H253.514V137.996H197.508V84.9775H189.546V89.2627H162.526L162.38 89.4092L142.029 109.759L141.883 109.905V194.157H155.735ZM274.625 249.854V222.005H343.471L347.072 227.664L347.319 228.052L347.727 227.839L358.973 221.948L359.392 221.729L359.195 221.298L356.694 215.795L357.947 214.959L358.17 214.811V208.081H375.307V194.228H288.55V154.77L290.898 152.421L290.545 152.066L285.907 147.429L281.123 152.213V194.228H224.892V208.081H253.275V249.854H274.625ZM197.508 246.104V183.518H183.655V194.157H190.617V236H183.119V246.104H197.508ZM197.508 319.474V306.085H200.721V291.696H197.508V274.316L197.361 274.17L187.187 263.994L187.04 263.848H162.697V222.005H169.66V208.152H141.883V209.759H106.466V194.228H92.6133V222.005H106.466V220.398H134.385V319.474H197.508ZM347.459 313.047V305.62H329.786V240.284H322.896V313.047H347.459ZM386.018 277.701V249.924H382.34V256.886H361.918V249.924H357.705V277.701H386.018ZM43.8086 307.691V263.75L93.6484 263.777H93.6504L105.968 263.749L108.102 263.777H108.141L108.179 263.772C110.175 263.487 111.637 262.578 112.592 261.306C113.54 260.043 113.964 258.457 113.964 256.851C113.964 254.693 113.404 253.086 112.359 251.947C111.32 250.814 109.861 250.209 108.19 249.931L108.149 249.924H29.9551V307.691H43.8086ZM309.436 333.933V277.523L309.282 277.376L295.358 263.987L295.213 263.848H252.454V268.28H253.275V291.696H221.678V306.085H281.123V333.933H309.436ZM151.987 361.245V347.393H121.164L106.466 333.221V309.298H113.964V302.407H106.466V291.696H93.1484V319.544H85.6514V347.393H84.0449V361.245H151.987ZM253.204 396.591V334.004H239.351V340.431H169.73V396.591H183.584V382.667H239.351V396.591H253.204Z" fill="#271406"/>
<path d="M213.609 453.929L213.254 454.863L213.392 454.916L213.541 454.926L213.609 453.929ZM181.477 445.36L181.589 444.367L181.533 444.36H181.477V445.36ZM141.312 445.36H140.312V446.36H141.312V445.36ZM141.312 393.948H142.312V393.514L141.994 393.217L141.312 393.948ZM137.294 390.2L137.976 389.469L137.688 389.2H137.294V390.2ZM56.1611 390.2L55.8632 391.155L56.0087 391.2H56.1611V390.2ZM43.3076 376.275H42.3076V376.353L42.3197 376.431L43.3076 376.275ZM43.3076 360.745V359.745H42.3076V360.745H43.3076ZM58.8389 360.745V361.745H59.8389V360.745H58.8389ZM58.8389 347.893H59.8389V346.893H58.8389V347.893ZM54.0186 347.893H53.0186V348.893H54.0186V347.893ZM54.0186 345.75H55.0186V345.336L54.7256 345.043L54.0186 345.75ZM45.9854 337.717L46.6924 337.01L46.3996 336.717H45.9854V337.717ZM43.3076 337.717H42.3076V338.717H43.3076V337.717ZM43.3076 332.361H44.3076V331.361H43.3076V332.361ZM30.4551 332.361V331.361H29.4551V332.361H30.4551ZM30.4551 334.504V335.504H31.4551V334.504H30.4551ZM1.53613 334.504H0.536133V335.504H1.53613V334.504ZM1.53613 291.125V290.125H0.536133V291.125H1.53613ZM15.46 291.125V292.125H16.46V291.125H15.46ZM15.46 278.106H16.46V277.106H15.46V278.106ZM1.53613 278.106H0.536133V279.106H1.53613V278.106ZM1.53613 221.505V220.505H0.536133V221.505H1.53613ZM45.4502 221.505L46.1573 220.798L45.8644 220.505H45.4502V221.505ZM51.876 227.932H52.876V227.517L52.5831 227.225L51.876 227.932ZM51.876 235.429H50.876V236.429H51.876V235.429ZM64.7295 235.429V236.429H65.7295V235.429H64.7295ZM64.7295 165.809V164.809H63.7295V165.809H64.7295ZM120.426 165.809V166.809H121.426V165.809H120.426ZM120.426 138.496H121.426V137.496H120.426V138.496ZM105.966 138.496H104.966V139.496H105.966V138.496ZM105.966 110.648L105.259 109.941L104.966 110.234V110.648H105.966ZM162.197 54.417L162.904 55.1241L163.196 54.833L163.197 54.4212L162.197 54.417ZM162.35 18.5352V17.5352H161.354L161.35 18.5309L162.35 18.5352ZM225.927 18.5352H226.927V17.5352H225.927V18.5352ZM225.927 110.112H224.927V111.112H225.927V110.112ZM281.087 110.112V111.112H282.087V110.112H281.087ZM281.087 109.042V108.042H280.087V109.042H281.087ZM294.476 109.042L295.183 108.335L294.89 108.042H294.476V109.042ZM302.509 117.074H303.509V116.66L303.216 116.367L302.509 117.074ZM302.509 131.534L303.256 132.198L303.509 131.914V131.534H302.509ZM298.225 136.354L297.477 135.69L296.851 136.395L297.518 137.062L298.225 136.354ZM301.974 140.103L301.267 140.81L301.899 141.442L302.598 140.883L301.974 140.103ZM304.651 137.961V136.961H304.301L304.027 137.18L304.651 137.961ZM330.893 137.961H331.893V136.961H330.893V137.961ZM330.893 172.771H329.893V173.771H330.893V172.771ZM343.745 172.771V173.771H344.745V172.771H343.745ZM343.745 158.59V157.59H342.745V158.59H343.745ZM409.616 158.59H410.616V157.59H409.616V158.59ZM409.616 194.728V195.728H410.616V194.728H409.616ZM396.764 194.728V193.728H395.764V194.728H396.764ZM396.764 207.581H395.764V208.581H396.764V207.581ZM414.437 207.581H415.437V206.581H414.437V207.581ZM414.437 236.5V237.5H415.437V236.5H414.437ZM400.513 236.5V235.5H399.513V236.5H400.513ZM400.513 263.277H399.513V264.277H400.513V263.277ZM414.437 263.277H415.437V262.277H414.437V263.277ZM414.437 306.12V307.12H415.437V306.12H414.437ZM368.916 306.12V305.12H367.916V306.12H368.916ZM368.916 312.547H367.916V313.547H368.916V312.547ZM379.627 312.547H380.627V311.547H379.627V312.547ZM379.627 335.039L380.602 335.261L380.627 335.151V335.039H379.627ZM367.309 347.893V348.893H367.381L367.452 348.882L367.309 347.893ZM267.699 347.893V346.893H266.699V347.893H267.699ZM267.699 368.242H266.699V369.242H267.699V368.242ZM281.623 368.242H282.623V367.242H281.623V368.242ZM281.623 415.905L282.554 416.27L282.623 416.094V415.905H281.623ZM276.803 428.223L277.451 428.984L277.642 428.821L277.734 428.587L276.803 428.223ZM262.344 440.54L261.695 439.779L261.528 439.921L261.436 440.121L262.344 440.54ZM259.13 447.503L259.258 448.495L259.806 448.424L260.038 447.922L259.13 447.503ZM243.063 450.716V451.716H243.202L243.335 451.678L243.063 450.716ZM234.495 450.716V449.716H234.144L233.87 449.935L234.495 450.716ZM229.14 455L229.071 455.998L229.46 456.024L229.764 455.781L229.14 455ZM155.735 194.157V195.157H156.735V194.157H155.735ZM155.735 178.857L154.998 178.182L154.735 178.468V178.857H155.735ZM167.237 166.309V165.309H166.797L166.5 165.633L167.237 166.309ZM253.514 166.309V167.309H254.514V166.309H253.514ZM253.514 137.996H254.514V136.996H253.514V137.996ZM197.508 137.996H196.508V138.996H197.508V137.996ZM197.508 84.9775H198.508V83.9775H197.508V84.9775ZM189.546 84.9775V83.9775H188.546V84.9775H189.546ZM189.546 89.2627V90.2627H190.546V89.2627H189.546ZM162.526 89.2627V88.2627H162.112L161.819 88.5556L162.526 89.2627ZM162.38 89.4092L163.087 90.1163L163.087 90.1163L162.38 89.4092ZM142.029 109.759L141.322 109.052V109.052L142.029 109.759ZM141.883 109.905L141.176 109.198L140.883 109.491V109.905H141.883ZM141.883 194.157H140.883V195.157H141.883V194.157ZM274.625 249.854V250.854H275.625V249.854H274.625ZM274.625 222.005V221.005H273.625V222.005H274.625ZM343.471 222.005L344.314 221.468L344.02 221.005H343.471V222.005ZM347.072 227.664L346.229 228.201L346.229 228.201L347.072 227.664ZM347.319 228.052L346.476 228.589L346.969 229.363L347.783 228.938L347.319 228.052ZM347.727 227.839L348.19 228.725L348.191 228.725L347.727 227.839ZM358.973 221.948L359.437 222.834L359.437 222.834L358.973 221.948ZM359.392 221.729L359.856 222.614L360.694 222.175L360.302 221.314L359.392 221.729ZM359.195 221.298L358.285 221.712L358.285 221.713L359.195 221.298ZM356.694 215.795L356.139 214.963L355.432 215.435L355.784 216.209L356.694 215.795ZM357.947 214.959L357.393 214.127L357.392 214.127L357.947 214.959ZM358.17 214.811L358.725 215.643L359.17 215.346V214.811H358.17ZM358.17 208.081V207.081H357.17V208.081H358.17ZM375.307 208.081V209.081H376.307V208.081H375.307ZM375.307 194.228H376.307V193.228H375.307V194.228ZM288.55 194.228H287.55V195.228H288.55V194.228ZM288.55 154.77L287.843 154.062L287.55 154.355V154.77H288.55ZM290.898 152.421L291.606 153.128L292.312 152.422L291.607 151.715L290.898 152.421ZM290.545 152.066L291.253 151.36L291.252 151.359L290.545 152.066ZM285.907 147.429L286.614 146.722L285.907 146.014L285.2 146.722L285.907 147.429ZM281.123 152.213L280.416 151.506L280.123 151.799V152.213H281.123ZM281.123 194.228V195.228H282.123V194.228H281.123ZM224.892 194.228V193.228H223.892V194.228H224.892ZM224.892 208.081H223.892V209.081H224.892V208.081ZM253.275 208.081H254.275V207.081H253.275V208.081ZM253.275 249.854H252.275V250.854H253.275V249.854ZM197.508 246.104V247.104H198.508V246.104H197.508ZM197.508 183.518H198.508V182.518H197.508V183.518ZM183.655 183.518V182.518H182.655V183.518H183.655ZM183.655 194.157H182.655V195.157H183.655V194.157ZM190.617 194.157H191.617V193.157H190.617V194.157ZM190.617 236V237H191.617V236H190.617ZM183.119 236V235H182.119V236H183.119ZM183.119 246.104H182.119V247.104H183.119V246.104ZM197.508 319.474V320.474H198.508V319.474H197.508ZM197.508 306.085V305.085H196.508V306.085H197.508ZM200.721 306.085V307.085H201.721V306.085H200.721ZM200.721 291.696H201.721V290.696H200.721V291.696ZM197.508 291.696H196.508V292.696H197.508V291.696ZM197.508 274.316H198.508V273.902L198.215 273.609L197.508 274.316ZM197.361 274.17L196.654 274.877L196.654 274.877L197.361 274.17ZM187.187 263.994L187.894 263.287L187.894 263.287L187.187 263.994ZM187.04 263.848L187.747 263.141L187.454 262.848H187.04V263.848ZM162.697 263.848H161.697V264.848H162.697V263.848ZM162.697 222.005V221.005H161.697V222.005H162.697ZM169.66 222.005V223.005H170.66V222.005H169.66ZM169.66 208.152H170.66V207.152H169.66V208.152ZM141.883 208.152V207.152H140.883V208.152H141.883ZM141.883 209.759V210.759H142.883V209.759H141.883ZM106.466 209.759H105.466V210.759H106.466V209.759ZM106.466 194.228H107.466V193.228H106.466V194.228ZM92.6133 194.228V193.228H91.6133V194.228H92.6133ZM92.6133 222.005H91.6133V223.005H92.6133V222.005ZM106.466 222.005V223.005H107.466V222.005H106.466ZM106.466 220.398V219.398H105.466V220.398H106.466ZM134.385 220.398H135.385V219.398H134.385V220.398ZM134.385 319.474H133.385V320.474H134.385V319.474ZM347.459 313.047V314.047H348.459V313.047H347.459ZM347.459 305.62H348.459V304.62H347.459V305.62ZM329.786 305.62H328.786V306.62H329.786V305.62ZM329.786 240.284H330.786V239.284H329.786V240.284ZM322.896 240.284V239.284H321.896V240.284H322.896ZM322.896 313.047H321.896V314.047H322.896V313.047ZM386.018 277.701V278.701H387.018V277.701H386.018ZM386.018 249.924H387.018V248.924H386.018V249.924ZM382.34 249.924V248.924H381.34V249.924H382.34ZM382.34 256.886V257.886H383.34V256.886H382.34ZM361.918 256.886H360.918V257.886H361.918V256.886ZM361.918 249.924H362.918V248.924H361.918V249.924ZM357.705 249.924V248.924H356.705V249.924H357.705ZM357.705 277.701H356.705V278.701H357.705V277.701ZM43.8086 307.691V308.691H44.8086V307.691H43.8086ZM43.8086 263.75L43.8091 262.75L42.8086 262.749V263.75H43.8086ZM93.6484 263.777L93.6479 264.777H93.6484V263.777ZM93.6504 263.777V264.777H93.6527L93.6504 263.777ZM105.968 263.749L105.981 262.749L105.973 262.749L105.965 262.749L105.968 263.749ZM108.102 263.777L108.088 264.777H108.102V263.777ZM108.141 263.777V264.777H108.204L108.268 264.769L108.141 263.777ZM108.179 263.772L108.306 264.764L108.313 264.763L108.32 264.762L108.179 263.772ZM112.592 261.306L113.391 261.906V261.906L112.592 261.306ZM113.964 256.851L114.964 256.851V256.851L113.964 256.851ZM112.359 251.947L113.096 251.271L113.096 251.271L112.359 251.947ZM108.19 249.931L108.355 248.944H108.355L108.19 249.931ZM108.149 249.924L108.314 248.937L108.232 248.924H108.149V249.924ZM29.9551 249.924V248.924H28.9551V249.924H29.9551ZM29.9551 307.691H28.9551V308.691H29.9551V307.691ZM309.436 333.933V334.933H310.436V333.933H309.436ZM309.436 277.523H310.436V277.098L310.129 276.803L309.436 277.523ZM309.282 277.376L309.975 276.655L309.975 276.655L309.282 277.376ZM295.358 263.987L296.052 263.266L296.051 263.266L295.358 263.987ZM295.213 263.848L295.905 263.126L295.615 262.848H295.213V263.848ZM252.454 263.848V262.848H251.454V263.848H252.454ZM252.454 268.28H251.454V269.28H252.454V268.28ZM253.275 268.28H254.275V267.28H253.275V268.28ZM253.275 291.696V292.696H254.275V291.696H253.275ZM221.678 291.696V290.696H220.678V291.696H221.678ZM221.678 306.085H220.678V307.085H221.678V306.085ZM281.123 306.085H282.123V305.085H281.123V306.085ZM281.123 333.933H280.123V334.933H281.123V333.933ZM151.987 361.245V362.245H152.987V361.245H151.987ZM151.987 347.393H152.987V346.393H151.987V347.393ZM121.164 347.393L120.47 348.112L120.76 348.393H121.164V347.393ZM106.466 333.221H105.466V333.646L105.772 333.941L106.466 333.221ZM106.466 309.298V308.298H105.466V309.298H106.466ZM113.964 309.298V310.298H114.964V309.298H113.964ZM113.964 302.407H114.964V301.407H113.964V302.407ZM106.466 302.407H105.466V303.407H106.466V302.407ZM106.466 291.696H107.466V290.696H106.466V291.696ZM93.1484 291.696V290.696H92.1484V291.696H93.1484ZM93.1484 319.544V320.544H94.1484V319.544H93.1484ZM85.6514 319.544V318.544H84.6514V319.544H85.6514ZM85.6514 347.393V348.393H86.6514V347.393H85.6514ZM84.0449 347.393V346.393H83.0449V347.393H84.0449ZM84.0449 361.245H83.0449V362.245H84.0449V361.245ZM253.204 396.591V397.591H254.204V396.591H253.204ZM253.204 334.004H254.204V333.004H253.204V334.004ZM239.351 334.004V333.004H238.351V334.004H239.351ZM239.351 340.431V341.431H240.351V340.431H239.351ZM169.73 340.431V339.431H168.73V340.431H169.73ZM169.73 396.591H168.73V397.591H169.73V396.591ZM183.584 396.591V397.591H184.584V396.591H183.584ZM183.584 382.667V381.667H182.584V382.667H183.584ZM239.351 382.667H240.351V381.667H239.351V382.667ZM239.351 396.591H238.351V397.591H239.351V396.591ZM213.609 453.929L213.965 452.994C201.348 448.191 194.213 445.799 181.589 444.367L181.477 445.36L181.364 446.354C193.743 447.758 200.697 450.084 213.254 454.863L213.609 453.929ZM181.477 445.36V444.36H141.312V445.36V446.36H181.477V445.36ZM141.312 445.36H142.312V393.948H141.312H140.312V445.36H141.312ZM141.312 393.948L141.994 393.217L137.976 389.469L137.294 390.2L136.612 390.931L140.629 394.679L141.312 393.948ZM137.294 390.2V389.2H56.1611V390.2V391.2H137.294V390.2ZM56.1611 390.2L56.4591 389.246C52.2566 387.934 49.5807 386.62 47.7759 384.716C45.9889 382.831 44.9432 380.244 44.2955 376.12L43.3076 376.275L42.3197 376.431C42.9951 380.731 44.1356 383.783 46.3243 386.092C48.4952 388.382 51.5845 389.819 55.8632 391.155L56.1611 390.2ZM43.3076 376.275H44.3076V360.745H43.3076H42.3076V376.275H43.3076ZM43.3076 360.745V361.745H58.8389V360.745V359.745H43.3076V360.745ZM58.8389 360.745H59.8389V347.893H58.8389H57.8389V360.745H58.8389ZM58.8389 347.893V346.893H54.0186V347.893V348.893H58.8389V347.893ZM54.0186 347.893H55.0186V345.75H54.0186H53.0186V347.893H54.0186ZM54.0186 345.75L54.7256 345.043L46.6924 337.01L45.9854 337.717L45.2783 338.424L53.3115 346.457L54.0186 345.75ZM45.9854 337.717V336.717H43.3076V337.717V338.717H45.9854V337.717ZM43.3076 337.717H44.3076V332.361H43.3076H42.3076V337.717H43.3076ZM43.3076 332.361V331.361H30.4551V332.361V333.361H43.3076V332.361ZM30.4551 332.361H29.4551V334.504H30.4551H31.4551V332.361H30.4551ZM30.4551 334.504V333.504H1.53613V334.504V335.504H30.4551V334.504ZM1.53613 334.504H2.53613V291.125H1.53613H0.536133V334.504H1.53613ZM1.53613 291.125V292.125H15.46V291.125V290.125H1.53613V291.125ZM15.46 291.125H16.46V278.106H15.46H14.46V291.125H15.46ZM15.46 278.106V277.106H1.53613V278.106V279.106H15.46V278.106ZM1.53613 278.106H2.53613V221.505H1.53613H0.536133V278.106H1.53613ZM1.53613 221.505V222.505H45.4502V221.505V220.505H1.53613V221.505ZM45.4502 221.505L44.743 222.212L51.1688 228.639L51.876 227.932L52.5831 227.225L46.1573 220.798L45.4502 221.505ZM51.876 227.932H50.876V235.429H51.876H52.876V227.932H51.876ZM51.876 235.429V236.429H64.7295V235.429V234.429H51.876V235.429ZM64.7295 235.429H65.7295V165.809H64.7295H63.7295V235.429H64.7295ZM64.7295 165.809V166.809H120.426V165.809V164.809H64.7295V165.809ZM120.426 165.809H121.426V138.496H120.426H119.426V165.809H120.426ZM120.426 138.496V137.496H105.966V138.496V139.496H120.426V138.496ZM105.966 138.496H106.966V110.648H105.966H104.966V138.496H105.966ZM105.966 110.648L106.673 111.356L162.904 55.1241L162.197 54.417L161.49 53.7099L105.259 109.941L105.966 110.648ZM162.197 54.417L163.197 54.4212L163.35 18.5394L162.35 18.5352L161.35 18.5309L161.197 54.4128L162.197 54.417ZM162.35 18.5352V19.5352H225.927V18.5352V17.5352H162.35V18.5352ZM225.927 18.5352H224.927V110.112H225.927H226.927V18.5352H225.927ZM225.927 110.112V111.112H281.087V110.112V109.112H225.927V110.112ZM281.087 110.112H282.087V109.042H281.087H280.087V110.112H281.087ZM281.087 109.042V110.042H294.476V109.042V108.042H281.087V109.042ZM294.476 109.042L293.769 109.749L301.802 117.781L302.509 117.074L303.216 116.367L295.183 108.335L294.476 109.042ZM302.509 117.074H301.509V131.534H302.509H303.509V117.074H302.509ZM302.509 131.534L301.761 130.87L297.477 135.69L298.225 136.354L298.972 137.019L303.256 132.198L302.509 131.534ZM298.225 136.354L297.518 137.062L301.267 140.81L301.974 140.103L302.681 139.395L298.932 135.647L298.225 136.354ZM301.974 140.103L302.598 140.883L305.276 138.742L304.651 137.961L304.027 137.18L301.349 139.322L301.974 140.103ZM304.651 137.961V138.961H330.893V137.961V136.961H304.651V137.961ZM330.893 137.961H329.893V172.771H330.893H331.893V137.961H330.893ZM330.893 172.771V173.771H343.745V172.771V171.771H330.893V172.771ZM343.745 172.771H344.745V158.59H343.745H342.745V172.771H343.745ZM343.745 158.59V159.59H409.616V158.59V157.59H343.745V158.59ZM409.616 158.59H408.616V194.728H409.616H410.616V158.59H409.616ZM409.616 194.728V193.728H396.764V194.728V195.728H409.616V194.728ZM396.764 194.728H395.764V207.581H396.764H397.764V194.728H396.764ZM396.764 207.581V208.581H414.437V207.581V206.581H396.764V207.581ZM414.437 207.581H413.437V236.5H414.437H415.437V207.581H414.437ZM414.437 236.5V235.5H400.513V236.5V237.5H414.437V236.5ZM400.513 236.5H399.513V263.277H400.513H401.513V236.5H400.513ZM400.513 263.277V264.277H414.437V263.277V262.277H400.513V263.277ZM414.437 263.277H413.437V306.12H414.437H415.437V263.277H414.437ZM414.437 306.12V305.12H368.916V306.12V307.12H414.437V306.12ZM368.916 306.12H367.916V312.547H368.916H369.916V306.12H368.916ZM368.916 312.547V313.547H379.627V312.547V311.547H368.916V312.547ZM379.627 312.547H378.627V335.039H379.627H380.627V312.547H379.627ZM379.627 335.039L378.652 334.817C377.711 338.953 376.728 341.642 375.097 343.463C373.503 345.243 371.163 346.324 367.165 346.903L367.309 347.893L367.452 348.882C371.673 348.271 374.548 347.073 376.587 344.798C378.588 342.564 379.655 339.422 380.602 335.261L379.627 335.039ZM367.309 347.893V346.893H267.699V347.893V348.893H367.309V347.893ZM267.699 347.893H266.699V368.242H267.699H268.699V347.893H267.699ZM267.699 368.242V369.242H281.623V368.242V367.242H267.699V368.242ZM281.623 368.242H280.623V415.905H281.623H282.623V368.242H281.623ZM281.623 415.905L280.692 415.541L275.872 427.858L276.803 428.223L277.734 428.587L282.554 416.27L281.623 415.905ZM276.803 428.223L276.154 427.461L261.695 439.779L262.344 440.54L262.992 441.301L277.451 428.984L276.803 428.223ZM262.344 440.54L261.436 440.121L258.222 447.084L259.13 447.503L260.038 447.922L263.252 440.959L262.344 440.54ZM259.13 447.503L259.002 446.511C252.671 447.328 249.105 447.972 242.792 449.753L243.063 450.716L243.335 451.678C249.536 449.929 253.003 449.302 259.258 448.495L259.13 447.503ZM243.063 450.716V449.716H234.495V450.716V451.716H243.063V450.716ZM234.495 450.716L233.87 449.935L228.515 454.219L229.14 455L229.764 455.781L235.12 451.497L234.495 450.716ZM229.14 455L229.208 454.002L213.678 452.931L213.609 453.929L213.541 454.926L229.071 455.998L229.14 455ZM155.735 194.157H156.735V178.857H155.735H154.735V194.157H155.735ZM155.735 178.857L156.473 179.533L167.974 166.984L167.237 166.309L166.5 165.633L154.998 178.182L155.735 178.857ZM167.237 166.309V167.309H253.514V166.309V165.309H167.237V166.309ZM253.514 166.309H254.514V137.996H253.514H252.514V166.309H253.514ZM253.514 137.996V136.996H197.508V137.996V138.996H253.514V137.996ZM197.508 137.996H198.508V84.9775H197.508H196.508V137.996H197.508ZM197.508 84.9775V83.9775H189.546V84.9775V85.9775H197.508V84.9775ZM189.546 84.9775H188.546V89.2627H189.546H190.546V84.9775H189.546ZM189.546 89.2627V88.2627H162.526V89.2627V90.2627H189.546V89.2627ZM162.526 89.2627L161.819 88.5556L161.673 88.7021L162.38 89.4092L163.087 90.1163L163.233 89.9698L162.526 89.2627ZM162.38 89.4092L161.673 88.7021L141.322 109.052L142.029 109.759L142.736 110.466L163.087 90.1163L162.38 89.4092ZM142.029 109.759L141.322 109.052L141.176 109.198L141.883 109.905L142.59 110.612L142.736 110.466L142.029 109.759ZM141.883 109.905H140.883V194.157H141.883H142.883V109.905H141.883ZM141.883 194.157V195.157H155.735V194.157V193.157H141.883V194.157ZM274.625 249.854H275.625V222.005H274.625H273.625V249.854H274.625ZM274.625 222.005V223.005H343.471V222.005V221.005H274.625V222.005ZM343.471 222.005L342.627 222.542L346.229 228.201L347.072 227.664L347.916 227.127L344.314 221.468L343.471 222.005ZM347.072 227.664L346.229 228.201L346.476 228.589L347.319 228.052L348.163 227.514L347.916 227.127L347.072 227.664ZM347.319 228.052L347.783 228.938L348.19 228.725L347.727 227.839L347.263 226.953L346.856 227.166L347.319 228.052ZM347.727 227.839L348.191 228.725L359.437 222.834L358.973 221.948L358.509 221.062L347.263 226.953L347.727 227.839ZM358.973 221.948L359.437 222.834L359.856 222.614L359.392 221.729L358.927 220.843L358.508 221.063L358.973 221.948ZM359.392 221.729L360.302 221.314L360.105 220.883L359.195 221.298L358.285 221.713L358.482 222.143L359.392 221.729ZM359.195 221.298L360.106 220.884L357.605 215.381L356.694 215.795L355.784 216.209L358.285 221.712L359.195 221.298ZM356.694 215.795L357.249 216.627L358.502 215.791L357.947 214.959L357.392 214.127L356.139 214.963L356.694 215.795ZM357.947 214.959L358.502 215.791L358.725 215.643L358.17 214.811L357.615 213.979L357.393 214.127L357.947 214.959ZM358.17 214.811H359.17V208.081H358.17H357.17V214.811H358.17ZM358.17 208.081V209.081H375.307V208.081V207.081H358.17V208.081ZM375.307 208.081H376.307V194.228H375.307H374.307V208.081H375.307ZM375.307 194.228V193.228H288.55V194.228V195.228H375.307V194.228ZM288.55 194.228H289.55V154.77H288.55H287.55V194.228H288.55ZM288.55 154.77L289.257 155.477L291.606 153.128L290.898 152.421L290.191 151.714L287.843 154.062L288.55 154.77ZM290.898 152.421L291.607 151.715L291.253 151.36L290.545 152.066L289.837 152.773L290.19 153.127L290.898 152.421ZM290.545 152.066L291.252 151.359L286.614 146.722L285.907 147.429L285.2 148.136L289.838 152.773L290.545 152.066ZM285.907 147.429L285.2 146.722L280.416 151.506L281.123 152.213L281.83 152.92L286.614 148.136L285.907 147.429ZM281.123 152.213H280.123V194.228H281.123H282.123V152.213H281.123ZM281.123 194.228V193.228H224.892V194.228V195.228H281.123V194.228ZM224.892 194.228H223.892V208.081H224.892H225.892V194.228H224.892ZM224.892 208.081V209.081H253.275V208.081V207.081H224.892V208.081ZM253.275 208.081H252.275V249.854H253.275H254.275V208.081H253.275ZM253.275 249.854V250.854H274.625V249.854V248.854H253.275V249.854ZM197.508 246.104H198.508V183.518H197.508H196.508V246.104H197.508ZM197.508 183.518V182.518H183.655V183.518V184.518H197.508V183.518ZM183.655 183.518H182.655V194.157H183.655H184.655V183.518H183.655ZM183.655 194.157V195.157H190.617V194.157V193.157H183.655V194.157ZM190.617 194.157H189.617V236H190.617H191.617V194.157H190.617ZM190.617 236V235H183.119V236V237H190.617V236ZM183.119 236H182.119V246.104H183.119H184.119V236H183.119ZM183.119 246.104V247.104H197.508V246.104V245.104H183.119V246.104ZM197.508 319.474H198.508V306.085H197.508H196.508V319.474H197.508ZM197.508 306.085V307.085H200.721V306.085V305.085H197.508V306.085ZM200.721 306.085H201.721V291.696H200.721H199.721V306.085H200.721ZM200.721 291.696V290.696H197.508V291.696V292.696H200.721V291.696ZM197.508 291.696H198.508V274.316H197.508H196.508V291.696H197.508ZM197.508 274.316L198.215 273.609L198.068 273.463L197.361 274.17L196.654 274.877L196.801 275.024L197.508 274.316ZM197.361 274.17L198.068 273.463L187.894 263.287L187.187 263.994L186.479 264.701L196.654 274.877L197.361 274.17ZM187.187 263.994L187.894 263.287L187.747 263.141L187.04 263.848L186.333 264.555L186.479 264.701L187.187 263.994ZM187.04 263.848V262.848H162.697V263.848V264.848H187.04V263.848ZM162.697 263.848H163.697V222.005H162.697H161.697V263.848H162.697ZM162.697 222.005V223.005H169.66V222.005V221.005H162.697V222.005ZM169.66 222.005H170.66V208.152H169.66H168.66V222.005H169.66ZM169.66 208.152V207.152H141.883V208.152V209.152H169.66V208.152ZM141.883 208.152H140.883V209.759H141.883H142.883V208.152H141.883ZM141.883 209.759V208.759H106.466V209.759V210.759H141.883V209.759ZM106.466 209.759H107.466V194.228H106.466H105.466V209.759H106.466ZM106.466 194.228V193.228H92.6133V194.228V195.228H106.466V194.228ZM92.6133 194.228H91.6133V222.005H92.6133H93.6133V194.228H92.6133ZM92.6133 222.005V223.005H106.466V222.005V221.005H92.6133V222.005ZM106.466 222.005H107.466V220.398H106.466H105.466V222.005H106.466ZM106.466 220.398V221.398H134.385V220.398V219.398H106.466V220.398ZM134.385 220.398H133.385V319.474H134.385H135.385V220.398H134.385ZM134.385 319.474V320.474H197.508V319.474V318.474H134.385V319.474ZM347.459 313.047H348.459V305.62H347.459H346.459V313.047H347.459ZM347.459 305.62V304.62H329.786V305.62V306.62H347.459V305.62ZM329.786 305.62H330.786V240.284H329.786H328.786V305.62H329.786ZM329.786 240.284V239.284H322.896V240.284V241.284H329.786V240.284ZM322.896 240.284H321.896V313.047H322.896H323.896V240.284H322.896ZM322.896 313.047V314.047H347.459V313.047V312.047H322.896V313.047ZM386.018 277.701H387.018V249.924H386.018H385.018V277.701H386.018ZM386.018 249.924V248.924H382.34V249.924V250.924H386.018V249.924ZM382.34 249.924H381.34V256.886H382.34H383.34V249.924H382.34ZM382.34 256.886V255.886H361.918V256.886V257.886H382.34V256.886ZM361.918 256.886H362.918V249.924H361.918H360.918V256.886H361.918ZM361.918 249.924V248.924H357.705V249.924V250.924H361.918V249.924ZM357.705 249.924H356.705V277.701H357.705H358.705V249.924H357.705ZM357.705 277.701V278.701H386.018V277.701V276.701H357.705V277.701ZM43.8086 307.691H44.8086V263.75H43.8086H42.8086V307.691H43.8086ZM43.8086 263.75L43.808 264.75L93.6479 264.777L93.6484 263.777L93.649 262.777L43.8091 262.75L43.8086 263.75ZM93.6484 263.777V264.777H93.6504V263.777V262.777H93.6484V263.777ZM93.6504 263.777L93.6527 264.777L105.97 264.749L105.968 263.749L105.965 262.749L93.6481 262.777L93.6504 263.777ZM105.968 263.749L105.954 264.749L108.088 264.777L108.102 263.777L108.115 262.777L105.981 262.749L105.968 263.749ZM108.102 263.777V264.777H108.141V263.777V262.777H108.102V263.777ZM108.141 263.777L108.268 264.769L108.306 264.764L108.179 263.772L108.052 262.781L108.013 262.785L108.141 263.777ZM108.179 263.772L108.32 264.762C110.56 264.442 112.266 263.404 113.391 261.906L112.592 261.306L111.792 260.705C111.007 261.751 109.79 262.532 108.037 262.783L108.179 263.772ZM112.592 261.306L113.391 261.906C114.496 260.435 114.964 258.625 114.964 256.851L113.964 256.851L112.964 256.851C112.964 258.29 112.584 259.651 111.792 260.705L112.592 261.306ZM113.964 256.851L114.964 256.851C114.964 254.519 114.355 252.644 113.096 251.271L112.359 251.947L111.622 252.623C112.452 253.528 112.964 254.867 112.964 256.851L113.964 256.851ZM112.359 251.947L113.096 251.271C111.854 249.916 110.153 249.244 108.355 248.944L108.19 249.931L108.026 250.917C109.568 251.174 110.787 251.712 111.622 252.623L112.359 251.947ZM108.19 249.931L108.355 248.944L108.314 248.937L108.149 249.924L107.985 250.91L108.026 250.917L108.19 249.931ZM108.149 249.924V248.924H29.9551V249.924V250.924H108.149V249.924ZM29.9551 249.924H28.9551V307.691H29.9551H30.9551V249.924H29.9551ZM29.9551 307.691V308.691H43.8086V307.691V306.691H29.9551V307.691ZM309.436 333.933H310.436V277.523H309.436H308.436V333.933H309.436ZM309.436 277.523L310.129 276.803L309.975 276.655L309.282 277.376L308.589 278.097L308.742 278.244L309.436 277.523ZM309.282 277.376L309.975 276.655L296.052 263.266L295.358 263.987L294.665 264.708L308.589 278.097L309.282 277.376ZM295.358 263.987L296.051 263.266L295.905 263.126L295.213 263.848L294.52 264.569L294.666 264.709L295.358 263.987ZM295.213 263.848V262.848H252.454V263.848V264.848H295.213V263.848ZM252.454 263.848H251.454V268.28H252.454H253.454V263.848H252.454ZM252.454 268.28V269.28H253.275V268.28V267.28H252.454V268.28ZM253.275 268.28H252.275V291.696H253.275H254.275V268.28H253.275ZM253.275 291.696V290.696H221.678V291.696V292.696H253.275V291.696ZM221.678 291.696H220.678V306.085H221.678H222.678V291.696H221.678ZM221.678 306.085V307.085H281.123V306.085V305.085H221.678V306.085ZM281.123 306.085H280.123V333.933H281.123H282.123V306.085H281.123ZM281.123 333.933V334.933H309.436V333.933V332.933H281.123V333.933ZM151.987 361.245H152.987V347.393H151.987H150.987V361.245H151.987ZM151.987 347.393V346.393H121.164V347.393V348.393H151.987V347.393ZM121.164 347.393L121.858 346.673L107.16 332.501L106.466 333.221L105.772 333.941L120.47 348.112L121.164 347.393ZM106.466 333.221H107.466V309.298H106.466H105.466V333.221H106.466ZM106.466 309.298V310.298H113.964V309.298V308.298H106.466V309.298ZM113.964 309.298H114.964V302.407H113.964H112.964V309.298H113.964ZM113.964 302.407V301.407H106.466V302.407V303.407H113.964V302.407ZM106.466 302.407H107.466V291.696H106.466H105.466V302.407H106.466ZM106.466 291.696V290.696H93.1484V291.696V292.696H106.466V291.696ZM93.1484 291.696H92.1484V319.544H93.1484H94.1484V291.696H93.1484ZM93.1484 319.544V318.544H85.6514V319.544V320.544H93.1484V319.544ZM85.6514 319.544H84.6514V347.393H85.6514H86.6514V319.544H85.6514ZM85.6514 347.393V346.393H84.0449V347.393V348.393H85.6514V347.393ZM84.0449 347.393H83.0449V361.245H84.0449H85.0449V347.393H84.0449ZM84.0449 361.245V362.245H151.987V361.245V360.245H84.0449V361.245ZM253.204 396.591H254.204V334.004H253.204H252.204V396.591H253.204ZM253.204 334.004V333.004H239.351V334.004V335.004H253.204V334.004ZM239.351 334.004H238.351V340.431H239.351H240.351V334.004H239.351ZM239.351 340.431V339.431H169.73V340.431V341.431H239.351V340.431ZM169.73 340.431H168.73V396.591H169.73H170.73V340.431H169.73ZM169.73 396.591V397.591H183.584V396.591V395.591H169.73V396.591ZM183.584 396.591H184.584V382.667H183.584H182.584V396.591H183.584ZM183.584 382.667V383.667H239.351V382.667V381.667H183.584V382.667ZM239.351 382.667H238.351V396.591H239.351H240.351V382.667H239.351ZM239.351 396.591V397.591H253.204V396.591V395.591H239.351V396.591Z" fill="#B27C40" mask="url(#path-1-outside-1_333_336)"/>
<path d="M396.228 306.656V299.158H389.266V306.656M329.285 288.447H336.783V281.485H329.821" stroke="#B27C40" stroke-width="0.5"/>
<path d="M329.821 265.419H351.243V264.348H329.821" stroke="#B27C40" stroke-width="0.5"/>
<path d="M351.243 263.813V257.386H357.669V263.813H351.243Z" stroke="#B27C40"/>
<path d="M351.243 260.599H347.494V264.348" stroke="#B27C40" stroke-width="0.5"/>
<path d="M343.745 312.547V319.509H327.679V312.547M252.704 333.968V320.044H246.277V333.968M231.282 248.113L234.495 245.069L229.14 239.713L221.642 247.211M231.282 248.113L226.462 242.926M231.282 248.113L226.462 252.679M226.462 252.679L224.32 254.708L218.965 249.888L221.642 247.211M226.462 252.679L221.642 247.211M242.528 207.581V214.543H236.102V207.581M197.008 204.368H204.505V197.406H197.008M253.239 165.809V172.771H239.851V165.809M103.288 194.192V187.23H96.3262V194.192M113.999 254.708L118.819 249.353L113.999 244.533L108.644 249.888M103.288 263.813V270.239H96.3262V263.813M93.1129 316.295H71.6914V322.722H85.6154M9.03327 278.272V271.31H1.53573M232.353 109.577V116.539H226.462V109.577M374.807 194.728C374.807 194.3 374.807 189.551 374.807 187.23H368.38V194.192M389.266 158.311V165.809H382.84V158.311M141.847 319.509V325.935H134.885V319.509M92.5774 361.281V371.991H86.1509V361.281M136.492 390.735L141.847 384.844L146.131 389.129L141.311 395.02M301.973 251.495V234.358H295.547V251.495H301.973ZM70.6203 279.343L58.8384 291.125L54.0186 286.305L65.8004 273.988L71.1558 278.808L70.6203 279.343ZM311.613 163.667V182.411H305.186V163.667H311.613Z" stroke="#B27C40"/>
<path d="M343.745 319.509V326.471H337.318V322.99M337.318 319.509V322.99M337.318 322.99H333.57V319.509" stroke="#B27C40" stroke-width="0.5"/>
<path d="M250.026 172.771V176.52H243.064V172.771M253.239 284.699H225.391V291.661M414.972 292.196H372.129M239.315 333.968H218.429M169.695 333.968H204.505M218.429 333.968V332.362H204.505V333.968M218.429 333.968H204.505M134.349 278.272H127.923V306.12H113.999M57.2315 348.428V344.143L47.5918 334.504H42.7719M221.642 18V21.2132H215.216V20.6777M215.216 18V20.6777M215.216 20.6777C214.787 20.6777 210.396 20.6777 208.254 20.6777M208.254 20.6777V18M208.254 20.6777V21.2132H201.292V18M186.832 18V21.2132H179.87V18M166.481 18V19.071M172.908 18V21.2132H166.481V19.071M166.481 19.071L163.804 22.2843H161.662" stroke="#B27C40" stroke-width="0.5"/>
<path d="M186.297 264.348H198.078" stroke="#B27C40" stroke-width="0.5"/>
<path d="M179.87 20.6777H172.908M221.642 19.6066L224.32 22.2843H226.462M5.81974 271.31V267.026H0.999882" stroke="#B27C40" stroke-width="0.5"/>
<path d="M43.8435 263.813H93.113V315.76H43.8435V263.813ZM71.6921 278.808L65.8015 273.452L53.4841 286.305L58.8396 291.66L71.6921 278.808Z" fill="#F08234" fill-opacity="0.23"/>
<path d="M71.1561 320.044H43.8434V315.76H71.1561V320.044Z" fill="#F08234" fill-opacity="0.23"/>
<path d="M77.3726 303.196H78.9194L76.103 295.196H74.314L71.4937 303.196H73.0405L75.1772 296.837H75.2397L77.3726 303.196ZM77.3218 300.059H73.103V301.224H77.3218V300.059Z" fill="white"/>
<path d="M414.437 291.895H386.053V263.277H414.437V291.895Z" fill="#F08234" fill-opacity="0.23"/>
<path d="M386.053 291.909H344.281V277.737H386.053V291.909Z" fill="#F08234" fill-opacity="0.23"/>
<path d="M357.67 277.737H351.243V264.348H357.67V277.737Z" fill="#F08234" fill-opacity="0.23"/>
<path d="M351.243 277.737H344.281V265.694H351.243V277.737Z" fill="#F08234" fill-opacity="0.23"/>
<path d="M372.129 256.851H361.954V242.927H372.129V256.851Z" fill="#F08234" fill-opacity="0.23"/>
<path d="M361.954 249.889H357.669V242.927H361.954V249.889Z" fill="#F08234" fill-opacity="0.23"/>
<path d="M357.67 256.851H344.281V242.927H357.67V256.851Z" fill="#F08234" fill-opacity="0.23"/>
<path d="M350.708 260.329H344.281V256.851H350.708V260.329Z" fill="#F08234" fill-opacity="0.23"/>
<path d="M347.226 264.08H344.281V260.332H347.226V264.08Z" fill="#F08234" fill-opacity="0.23"/>
<path d="M392.733 286.059V278.059H395.796C396.374 278.059 396.854 278.15 397.237 278.332C397.622 278.512 397.91 278.758 398.1 279.071C398.293 279.383 398.389 279.737 398.389 280.133C398.389 280.459 398.327 280.737 398.202 280.969C398.077 281.198 397.909 281.384 397.698 281.528C397.487 281.671 397.251 281.774 396.991 281.836V281.914C397.275 281.93 397.547 282.017 397.807 282.176C398.07 282.332 398.285 282.554 398.452 282.84C398.619 283.127 398.702 283.473 398.702 283.879C398.702 284.293 398.602 284.666 398.401 284.996C398.201 285.325 397.899 285.584 397.495 285.774C397.091 285.964 396.583 286.059 395.971 286.059H392.733ZM394.182 284.848H395.741C396.267 284.848 396.646 284.748 396.878 284.547C397.112 284.344 397.229 284.084 397.229 283.766C397.229 283.529 397.171 283.315 397.053 283.125C396.936 282.933 396.77 282.782 396.553 282.672C396.337 282.56 396.08 282.504 395.78 282.504H394.182V284.848ZM394.182 281.461H395.616C395.866 281.461 396.091 281.416 396.292 281.325C396.492 281.231 396.65 281.099 396.764 280.93C396.882 280.758 396.94 280.555 396.94 280.321C396.94 280.011 396.831 279.756 396.612 279.555C396.396 279.355 396.074 279.254 395.647 279.254H394.182V281.461Z" fill="white"/>
</svg>
